<?xml version="1.0" encoding="UTF-8" standalone="no"?>
<svg width="20px" height="20px" viewBox="0 0 20 20" version="1.1" xmlns="http://www.w3.org/2000/svg" xmlns:xlink="http://www.w3.org/1999/xlink" xmlns:sketch="http://www.bohemiancoding.com/sketch/ns">
    <!-- Generator: Sketch 3.4.4 (17249) - http://www.bohemiancoding.com/sketch -->
    <title>3</title>
    <desc>Created with Sketch.</desc>
    <defs></defs>
    <g id="Style-Inventory" stroke="none" stroke-width="1" fill="none" fill-rule="evenodd" sketch:type="MSPage">
        <g id="Home" sketch:type="MSArtboardGroup" transform="translate(-931.000000, -862.000000)">
            <g id="3" sketch:type="MSLayerGroup" transform="translate(931.000000, 862.000000)">
                <ellipse id="Oval-49-Copy-7" fill="#2F4149" sketch:type="MSShapeGroup" cx="10" cy="10" rx="10" ry="10"></ellipse>
                <path d="M7.1075,12.986 C7.6665,13.597 8.5115,14.156 9.8375,14.156 C11.3585,14.156 12.5675,13.259 12.5675,11.79 C12.5675,10.646 11.7745,9.918 10.7735,9.684 L10.7735,9.632 C11.6705,9.294 12.2815,8.657 12.2815,7.656 C12.2815,6.317 11.2415,5.55 9.7985,5.55 C8.8235,5.55 8.0565,5.992 7.4195,6.59 L7.9915,7.266 C8.4855,6.772 9.0705,6.421 9.7595,6.421 C10.6435,6.421 11.1895,6.928 11.1895,7.734 C11.1895,8.605 10.6045,9.281 8.8365,9.281 L8.8365,10.1 C10.8125,10.1 11.4885,10.763 11.4885,11.751 C11.4885,12.674 10.7735,13.272 9.7725,13.272 C8.7975,13.272 8.1475,12.804 7.6535,12.284 L7.1075,12.986 Z" fill="#FFFFFF" sketch:type="MSShapeGroup"></path>
            </g>
        </g>
    </g>
</svg>