<?xml version="1.0" encoding="UTF-8" standalone="no"?>
<svg width="120px" height="100px" viewBox="0 0 120 100" version="1.1" xmlns="http://www.w3.org/2000/svg" xmlns:xlink="http://www.w3.org/1999/xlink" xmlns:sketch="http://www.bohemiancoding.com/sketch/ns">
    <!-- Generator: Sketch 3.4.4 (17249) - http://www.bohemiancoding.com/sketch -->
    <title>autoimporter</title>
    <desc>Created with Sketch.</desc>
    <defs></defs>
    <g id="Style-Inventory" stroke="none" stroke-width="1" fill="none" fill-rule="evenodd" sketch:type="MSPage">
        <g id="Features" sketch:type="MSArtboardGroup" transform="translate(-261.000000, -999.000000)">
            <g id="autoimporter" sketch:type="MSLayerGroup" transform="translate(261.000000, 999.000000)">
                <rect id="Rectangle-273" fill-opacity="0.01" fill="#FFFFFF" sketch:type="MSShapeGroup" x="0" y="0" width="120" height="100"></rect>
                <g id="feature-1" transform="translate(36.000000, 16.000000)" sketch:type="MSShapeGroup">
                    <path d="M24,18.4827586 C18.9508571,18.4827586 12.5714286,14.344931 12.5714286,9.24137931 C9.00114286,12.8501379 6.99885714,14.874 3.42857143,18.4827586 L3.42857143,63.7562759 C3.42857143,65.5479483 4.86514286,67 6.63771429,67 L41.3622857,67 C43.1348571,67 44.5714286,65.5479483 44.5714286,63.7562759 L44.5714286,18.4827586 C41.2662857,14.874 39.2651429,12.8501379 35.6937143,9.24137931 L35.4285714,9.24137931 C35.4285714,14.344931 29.0491429,18.4827586 24,18.4827586 Z" id="Fill-1542" fill="#2F4149"></path>
                    <path d="M6.85714286,21.9482759 L41.1428571,21.9482759 L41.1428571,42.7413793 L6.85714286,42.7413793 L6.85714286,21.9482759 Z" id="Fill-1543" fill="#3AB0D5"></path>
                    <path d="M9.14285714,62.3793103 L8,61.2241379 L8,58.9137931 L9.14285714,57.7586207 L11.4285714,57.7586207 L12.5714286,58.9137931 L12.5714286,61.2241379 L11.4285714,62.3793103 L9.14285714,62.3793103" id="Fill-1624" fill="#ECF0F1"></path>
                    <path d="M18.2857143,62.3793103 L17.1428571,61.2241379 L17.1428571,58.9137931 L18.2857143,57.7586207 L20.5714286,57.7586207 L21.7142857,58.9137931 L21.7142857,61.2241379 L20.5714286,62.3793103 L18.2857143,62.3793103" id="Fill-1625" fill="#ECF0F1"></path>
                    <path d="M9.14285714,53.137931 L8,51.9827586 L8,49.6724138 L9.14285714,48.5172414 L11.4285714,48.5172414 L12.5714286,49.6724138 L12.5714286,51.9827586 L11.4285714,53.137931 L9.14285714,53.137931" id="Fill-1626" fill="#ECF0F1"></path>
                    <path d="M18.2857143,53.137931 L17.1428571,51.9827586 L17.1428571,49.6724138 L18.2857143,48.5172414 L20.5714286,48.5172414 L21.7142857,49.6724138 L21.7142857,51.9827586 L20.5714286,53.137931 L18.2857143,53.137931" id="Fill-1627" fill="#ECF0F1"></path>
                    <path d="M27.4285714,53.137931 L26.2857143,51.9827586 L26.2857143,49.6724138 L27.4285714,48.5172414 L38.8571429,48.5172414 L40,49.6724138 L40,51.9827586 L38.8571429,53.137931 L27.4285714,53.137931" id="Fill-1628" fill="#F88B1C"></path>
                    <path d="M27.4285714,62.3793103 L26.2857143,61.2241379 L26.2857143,58.9137931 L27.4285714,57.7586207 L29.7142857,57.7586207 L30.8571429,58.9137931 L30.8571429,61.2241379 L29.7142857,62.3793103 L27.4285714,62.3793103" id="Fill-1629" fill="#ECF0F1"></path>
                    <path d="M36.5714286,62.3793103 L35.4285714,61.2241379 L35.4285714,58.9137931 L36.5714286,57.7586207 L38.8571429,57.7586207 L40,58.9137931 L40,61.2241379 L38.8571429,62.3793103 L36.5714286,62.3793103" id="Fill-1633" fill="#ECF0F1"></path>
                    <path d="M12.5714286,13.862069 L12.5714286,4.62068966 L17.1428571,0 M35.4285714,13.862069 L35.4285714,4.62068966 L31.1222857,0" id="Stroke-1897" stroke="#BDC3C7" stroke-width="1.71999991" stroke-linecap="round" stroke-linejoin="round"></path>
                    <path d="M43.0502857,16.8354828 L48,11.832431 L43.1508571,6.93103448 L38.2765714,11.8578448 C39.9462857,13.5559483 41.3691429,15.0299483 43.0502857,16.8354828" id="Fill-1898" fill="#F88B1C"></path>
                    <path d="M9.85257143,11.9895345 L4.84914286,6.93103448 L0,11.832431 L5.00457143,16.8897759 C6.768,15.1073448 8.21142857,13.6483621 9.85257143,11.9895345" id="Fill-1899" fill="#F88B1C"></path>
                    <path d="M13.7142857,24.2586207 L10.2857143,24.2586207 C9.65485714,24.2586207 9.14285714,24.7761379 9.14285714,25.4137931 L9.14285714,34.6551724 C9.14285714,35.2928276 9.65485714,35.8103448 10.2857143,35.8103448 L13.7142857,35.8103448 C14.3451429,35.8103448 14.8571429,35.2928276 14.8571429,34.6551724 L14.8571429,25.4137931 C14.8571429,24.7761379 14.3451429,24.2586207 13.7142857,24.2586207 L13.7142857,24.2586207 Z M11.4285714,26.5689655 L12.5714286,26.5689655 L12.5714286,33.5 L11.4285714,33.5 L11.4285714,26.5689655 Z" id="Fill-1900" fill="#164C5D"></path>
                    <path d="M21.7142857,25.4137931 C21.7142857,24.7761379 21.2022857,24.2586207 20.5714286,24.2586207 L17.1428571,24.2586207 C16.512,24.2586207 16,24.7761379 16,25.4137931 C16,26.0514483 16.512,26.5689655 17.1428571,26.5689655 L19.4285714,26.5689655 L19.4285714,34.6551724 C19.4285714,35.2928276 19.9405714,35.8103448 20.5714286,35.8103448 C21.2022857,35.8103448 21.7142857,35.2928276 21.7142857,34.6551724 L21.7142857,25.4137931" id="Fill-1901" fill="#164C5D"></path>
                    <path d="M30.8571429,24.2586207 L27.4285714,24.2586207 C26.7977143,24.2586207 26.2857143,24.7761379 26.2857143,25.4137931 L26.2857143,34.6551724 C26.2857143,35.2928276 26.7977143,35.8103448 27.4285714,35.8103448 L30.8571429,35.8103448 C31.488,35.8103448 32,35.2928276 32,34.6551724 L32,25.4137931 C32,24.7761379 31.488,24.2586207 30.8571429,24.2586207 L30.8571429,24.2586207 Z M28.5714286,26.5689655 L29.7142857,26.5689655 L29.7142857,33.5 L28.5714286,33.5 L28.5714286,26.5689655 Z" id="Fill-1902" fill="#164C5D"></path>
                    <path d="M37.7142857,28.8793103 L35.4285714,28.8793103 L35.4285714,26.5689655 L37.7142857,26.5689655 C38.3451429,26.5689655 38.8571429,26.0514483 38.8571429,25.4137931 C38.8571429,24.7761379 38.3451429,24.2586207 37.7142857,24.2586207 L34.2857143,24.2586207 C33.6548571,24.2586207 33.1428571,24.7761379 33.1428571,25.4137931 L33.1428571,30.0344828 C33.1428571,30.6721379 33.6548571,31.1896552 34.2857143,31.1896552 L36.5714286,31.1896552 L36.5714286,33.5 L34.2857143,33.5 C33.6548571,33.5 33.1428571,34.0175172 33.1428571,34.6551724 C33.1428571,35.2928276 33.6548571,35.8103448 34.2857143,35.8103448 L37.7142857,35.8103448 C38.3451429,35.8103448 38.8571429,35.2928276 38.8571429,34.6551724 L38.8571429,30.0344828 C38.8571429,29.3968276 38.3451429,28.8793103 37.7142857,28.8793103" id="Fill-1903" fill="#164C5D"></path>
                    <path d="M24,26.5689655 C23.3691429,26.5689655 22.8571429,27.0864828 22.8571429,27.7241379 C22.8571429,28.3617931 23.3691429,28.8793103 24,28.8793103 C24.6308571,28.8793103 25.1428571,28.3617931 25.1428571,27.7241379 C25.1428571,27.0864828 24.6308571,26.5689655 24,26.5689655" id="Fill-1904" fill="#164C5D"></path>
                    <path d="M24,31.1896552 C23.3691429,31.1896552 22.8571429,31.7071724 22.8571429,32.3448276 C22.8571429,32.9824828 23.3691429,33.5 24,33.5 C24.6308571,33.5 25.1428571,32.9824828 25.1428571,32.3448276 C25.1428571,31.7071724 24.6308571,31.1896552 24,31.1896552" id="Fill-1905" fill="#164C5D"></path>
                    <path d="M12.5714286,38.1206897 L11.4285714,38.1206897 C10.7977143,38.1206897 10.2857143,38.6382069 10.2857143,39.2758621 C10.2857143,39.9135172 10.7977143,40.4310345 11.4285714,40.4310345 L12.5714286,40.4310345 C13.2022857,40.4310345 13.7142857,39.9135172 13.7142857,39.2758621 C13.7142857,38.6382069 13.2022857,38.1206897 12.5714286,38.1206897" id="Fill-1906" fill="#164C5D"></path>
                    <path d="M18.2857143,38.1206897 L17.1428571,38.1206897 C16.512,38.1206897 16,38.6382069 16,39.2758621 C16,39.9135172 16.512,40.4310345 17.1428571,40.4310345 L18.2857143,40.4310345 C18.9165714,40.4310345 19.4285714,39.9135172 19.4285714,39.2758621 C19.4285714,38.6382069 18.9165714,38.1206897 18.2857143,38.1206897" id="Fill-1907" fill="#164C5D"></path>
                    <path d="M24,38.1206897 L22.8571429,38.1206897 C22.2262857,38.1206897 21.7142857,38.6382069 21.7142857,39.2758621 C21.7142857,39.9135172 22.2262857,40.4310345 22.8571429,40.4310345 L24,40.4310345 C24.6308571,40.4310345 25.1428571,39.9135172 25.1428571,39.2758621 C25.1428571,38.6382069 24.6308571,38.1206897 24,38.1206897" id="Fill-1908" fill="#164C5D"></path>
                    <path d="M29.7142857,38.1206897 L28.5714286,38.1206897 C27.9405714,38.1206897 27.4285714,38.6382069 27.4285714,39.2758621 C27.4285714,39.9135172 27.9405714,40.4310345 28.5714286,40.4310345 L29.7142857,40.4310345 C30.3451429,40.4310345 30.8571429,39.9135172 30.8571429,39.2758621 C30.8571429,38.6382069 30.3451429,38.1206897 29.7142857,38.1206897" id="Fill-1909" fill="#164C5D"></path>
                    <path d="M35.4285714,38.1206897 L34.2857143,38.1206897 C33.6548571,38.1206897 33.1428571,38.6382069 33.1428571,39.2758621 C33.1428571,39.9135172 33.6548571,40.4310345 34.2857143,40.4310345 L35.4285714,40.4310345 C36.0594286,40.4310345 36.5714286,39.9135172 36.5714286,39.2758621 C36.5714286,38.6382069 36.0594286,38.1206897 35.4285714,38.1206897" id="Fill-1910" fill="#164C5D"></path>
                </g>
            </g>
        </g>
    </g>
</svg>