<?xml version="1.0" encoding="UTF-8" standalone="no"?>
<svg
   xmlns:sketch="http://www.bohemiancoding.com/sketch/ns"
   xmlns:dc="http://purl.org/dc/elements/1.1/"
   xmlns:cc="http://creativecommons.org/ns#"
   xmlns:rdf="http://www.w3.org/1999/02/22-rdf-syntax-ns#"
   xmlns:svg="http://www.w3.org/2000/svg"
   xmlns="http://www.w3.org/2000/svg"
   xmlns:xlink="http://www.w3.org/1999/xlink"
   xmlns:sodipodi="http://sodipodi.sourceforge.net/DTD/sodipodi-0.dtd"
   xmlns:inkscape="http://www.inkscape.org/namespaces/inkscape"
   width="60px"
   height="60px"
   viewBox="0 0 60 60"
   version="1.1"
   id="svg49"
   sodipodi:docname="Balance.svg"
   inkscape:version="0.92.3 (unknown)">
  <metadata
     id="metadata53">
    <rdf:RDF>
      <cc:Work
         rdf:about="">
        <dc:format>image/svg+xml</dc:format>
        <dc:type
           rdf:resource="http://purl.org/dc/dcmitype/StillImage" />
      </cc:Work>
    </rdf:RDF>
  </metadata>
  <sodipodi:namedview
     pagecolor="#ffffff"
     bordercolor="#666666"
     borderopacity="1"
     objecttolerance="10"
     gridtolerance="10"
     guidetolerance="10"
     inkscape:pageopacity="0"
     inkscape:pageshadow="2"
     inkscape:window-width="1848"
     inkscape:window-height="1018"
     id="namedview51"
     showgrid="false"
     inkscape:zoom="3.9333333"
     inkscape:cx="-34.322034"
     inkscape:cy="30"
     inkscape:window-x="1992"
     inkscape:window-y="28"
     inkscape:window-maximized="1"
     inkscape:current-layer="svg49" />
  <!-- Generator: Sketch 3.3.3 (12081) - http://www.bohemiancoding.com/sketch -->
  <title
     id="title2">Balance</title>
  <desc
     id="desc4">Created with Sketch.</desc>
  <defs
     id="defs10">
    <path
       id="path-1"
       d="M3,6 C4.657,6 6,4.657 6,3 C6,1.343 4.657,0 3,0 C1.343,0 0,1.343 0,3 C0,4.657 1.343,6 3,6 L3,6 Z" />
    <path
       id="path-3"
       d="M10,5 C10,2.239 7.761,0 5,0 C2.239,0 0,2.239 0,5 L10,5 L10,5 Z" />
    <path
       id="path-5"
       d="M14,0 C14,3.866 10.866,7 7,7 C3.134,7 0,3.866 0,0 L14,0 L14,0 Z" />
    <path
       id="path-7"
       d="M14,0 C14,3.866 10.866,7 7,7 C3.134,7 0,3.866 0,0 L14,0 L14,0 Z" />
    <mask
       id="mask-6-2"
       sketch:name="Clip 1027"
       fill="white">
      <use
         xlink:href="#path-5"
         id="use29-6"
         x="0"
         y="0"
         width="100%"
         height="100%" />
    </mask>
  </defs>
  <g
     style="fill:none;fill-rule:evenodd;stroke:none;stroke-width:1"
     transform="translate(-840,-720)"
     sketch:type="MSLayerGroup"
     id="Marketing_sliced" />
  <path
     d="M 50,19 H 12 c -0.553,0 -1,-0.448 -1,-1 0,-0.552 0.447,-1 1,-1 h 38 c 0.553,0 1,0.448 1,1 0,0.552 -0.447,1 -1,1"
     id="Fill-1016"
     sketch:type="MSShapeGroup"
     inkscape:connector-curvature="0"
     style="fill:#546e7a;fill-rule:evenodd;stroke:none;stroke-width:1;fill-opacity:1" />
  <path
     d="m 31,53.011 c -0.553,0 -1,-0.448 -1,-1 V 10 c 0,-0.552 0.447,-1 1,-1 0.553,0 1,0.448 1,1 v 42.011 c 0,0.552 -0.447,1 -1,1"
     id="Fill-1017"
     sketch:type="MSShapeGroup"
     inkscape:connector-curvature="0"
     style="fill:#546e7a;fill-rule:evenodd;stroke:none;stroke-width:1;fill-opacity:1" />
  <g
     style="fill:#546e7a;fill-rule:evenodd;stroke:none;stroke-width:1;fill-opacity:1"
     id="Group-1020"
     transform="translate(28,4)">
    <mask
       id="mask-2"
       sketch:name="Clip 1019"
       fill="white">
      <use
         xlink:href="#path-1"
         id="use15"
         x="0"
         y="0"
         width="100%"
         height="100%" />
    </mask>
    <g
       id="Clip-1019"
       style="fill:#546e7a;fill-opacity:1" />
    <path
       d="M 0,0 H 6 V 6 H 0 Z"
       id="Fill-1018"
       sketch:type="MSShapeGroup"
       mask="url(#mask-2)"
       inkscape:connector-curvature="0"
       style="fill:#546e7a;fill-opacity:1" />
  </g>
  <path
     d="m 31,11 c -2.206,0 -4,-1.794 -4,-4 0,-2.206 1.794,-4 4,-4 2.206,0 4,1.794 4,4 0,2.206 -1.794,4 -4,4 z m 0,-6 c -1.102,0 -2,0.897 -2,2 0,1.103 0.898,2 2,2 1.103,0 2,-0.897 2,-2 0,-1.103 -0.897,-2 -2,-2 z"
     id="Fill-1021"
     sketch:type="MSShapeGroup"
     inkscape:connector-curvature="0"
     style="fill:#546e7a;fill-rule:evenodd;stroke:none;stroke-width:1;fill-opacity:1" />
  <g
     style="fill:#546e7a;fill-rule:evenodd;stroke:none;stroke-width:1;fill-opacity:1"
     id="Group-1024"
     transform="translate(26,52)">
    <mask
       id="mask-4"
       sketch:name="Clip 1023"
       fill="white">
      <use
         xlink:href="#path-3"
         id="use22"
         x="0"
         y="0"
         width="100%"
         height="100%" />
    </mask>
    <g
       id="Clip-1023"
       style="fill:#546e7a;fill-opacity:1" />
    <path
       d="M 0,0 H 10 V 5 H 0 Z"
       id="Fill-1022"
       sketch:type="MSShapeGroup"
       mask="url(#mask-4)"
       inkscape:connector-curvature="0"
       style="fill:#546e7a;fill-opacity:1" />
  </g>
  <path
     d="M 36,58 H 26 c -0.553,0 -1,-0.448 -1,-1 0,-3.309 2.691,-6 6,-6 3.309,0 6,2.691 6,6 0,0.552 -0.447,1 -1,1 z m -8.873,-2 h 7.746 C 34.429,54.277 32.86,53 31,53 c -1.86,0 -3.429,1.277 -3.873,3 z"
     id="Fill-1025"
     sketch:type="MSShapeGroup"
     inkscape:connector-curvature="0"
     style="fill:#546e7a;fill-rule:evenodd;stroke:none;stroke-width:1;fill-opacity:1" />
  <path
     style="opacity:1;fill:#546e7a;fill-opacity:1;stroke:none;stroke-width:2.94736838;stroke-linecap:butt;stroke-linejoin:miter;stroke-miterlimit:4;stroke-dasharray:none;stroke-opacity:1"
     id="path1727"
     sodipodi:type="arc"
     sodipodi:cx="48.305084"
     sodipodi:cy="33.559322"
     sodipodi:rx="7.1186442"
     sodipodi:ry="7.1186442"
     sodipodi:start="0"
     sodipodi:end="3.1415927"
     sodipodi:open="true"
     d="m 55.423728,33.559322 a 7.1186442,7.1186442 0 0 1 -3.559322,6.164927 7.1186442,7.1186442 0 0 1 -7.118644,0 7.1186442,7.1186442 0 0 1 -3.559322,-6.164927" />
  <g
     style="fill:#3ab0d5;fill-rule:evenodd;stroke:none;stroke-width:1;fill-opacity:1"
     id="Group-1028"
     transform="translate(41,33)">
    <mask
       id="mask-6"
       sketch:name="Clip 1027"
       fill="white">
      <use
         xlink:href="#path-5"
         id="use29"
         x="0"
         y="0"
         width="100%"
         height="100%" />
    </mask>
    <g
       id="Clip-1027"
       style="fill:#3ab0d5;fill-opacity:1" />
    <path
       d="M 0,0 H 14 V 7 H 0 Z"
       id="Fill-1026"
       sketch:type="MSShapeGroup"
       mask="url(#mask-6)"
       inkscape:connector-curvature="0"
       style="fill:#3ab0d5;fill-opacity:1" />
  </g>
  <path
     d="m 48,41 c -4.411,0 -8,-3.589 -8,-8 0,-0.552 0.447,-1 1,-1 h 14 c 0.553,0 1,0.448 1,1 0,4.411 -3.589,8 -8,8 z m -5.917,-7 c 0.477,2.834 2.949,5 5.917,5 2.968,0 5.44,-2.166 5.917,-5 z"
     id="Fill-1029"
     sketch:type="MSShapeGroup"
     inkscape:connector-curvature="0"
     style="fill:#546e7a;fill-rule:evenodd;stroke:none;stroke-width:1;fill-opacity:1" />
  <path
     d="m 43.098,33.759 c -0.1,0 -0.202,-0.015 -0.302,-0.048 -0.527,-0.166 -0.819,-0.728 -0.652,-1.254 L 46.785,17.8 c 0.166,-0.526 0.726,-0.821 1.255,-0.651 0.526,0.166 0.818,0.728 0.651,1.255 l -4.64,14.656 c -0.135,0.426 -0.528,0.699 -0.953,0.699"
     id="Fill-1030"
     sketch:type="MSShapeGroup"
     inkscape:connector-curvature="0"
     style="fill:#546e7a;fill-rule:evenodd;stroke:none;stroke-width:1;fill-opacity:1" />
  <path
     d="m 52.964,33.808 c -0.424,0 -0.818,-0.272 -0.953,-0.697 L 47.32,18.416 c -0.167,-0.526 0.123,-1.089 0.65,-1.257 0.523,-0.167 1.089,0.123 1.257,0.649 l 4.69,14.695 c 0.167,0.526 -0.123,1.089 -0.649,1.257 -0.101,0.032 -0.203,0.048 -0.304,0.048"
     id="Fill-1031"
     sketch:type="MSShapeGroup"
     inkscape:connector-curvature="0"
     style="fill:#546e7a;fill-rule:evenodd;stroke:none;stroke-width:1;fill-opacity:1" />
  <g
     style="fill:#546e7a;fill-rule:evenodd;stroke:none;stroke-width:1;fill-opacity:1"
     id="Group-1034"
     transform="translate(8,33)">
    <mask
       id="mask-8"
       sketch:name="Clip 1033"
       fill="white">
      <use
         xlink:href="#path-7"
         id="use38"
         x="0"
         y="0"
         width="100%"
         height="100%" />
    </mask>
    <g
       id="Clip-1033"
       style="fill:#546e7a;fill-opacity:1" />
    <path
       d="M 0,0 H 14 V 7 H 0 Z"
       id="Fill-1032"
       sketch:type="MSShapeGroup"
       mask="url(#mask-8)"
       inkscape:connector-curvature="0"
       style="fill:#546e7a;fill-opacity:1" />
  </g>
  <path
     d="M 15,41 C 10.589,41 7,37.411 7,33 7,32.448 7.447,32 8,32 h 14 c 0.553,0 1,0.448 1,1 0,4.411 -3.589,8 -8,8 z M 9.083,34 c 0.477,2.834 2.949,5 5.917,5 2.968,0 5.44,-2.166 5.917,-5 z"
     id="Fill-1035"
     sketch:type="MSShapeGroup"
     inkscape:connector-curvature="0"
     style="fill:#546e7a;fill-rule:evenodd;stroke:none;stroke-width:1;fill-opacity:1" />
  <path
     d="m 10.098,33.759 c -0.1,0 -0.202,-0.015 -0.302,-0.048 C 9.269,33.545 8.977,32.983 9.144,32.457 L 13.785,17.8 c 0.167,-0.526 0.727,-0.821 1.255,-0.651 0.526,0.166 0.818,0.728 0.651,1.255 l -4.64,14.656 c -0.135,0.426 -0.528,0.699 -0.953,0.699"
     id="Fill-1036"
     sketch:type="MSShapeGroup"
     inkscape:connector-curvature="0"
     style="fill:#546e7a;fill-rule:evenodd;stroke:none;stroke-width:1;fill-opacity:1" />
  <path
     d="m 19.964,33.808 c -0.424,0 -0.818,-0.272 -0.953,-0.697 L 14.32,18.416 c -0.167,-0.526 0.123,-1.089 0.65,-1.257 0.523,-0.167 1.089,0.123 1.257,0.649 l 4.69,14.695 c 0.167,0.526 -0.123,1.089 -0.649,1.257 -0.101,0.032 -0.203,0.048 -0.304,0.048"
     id="Fill-1037"
     sketch:type="MSShapeGroup"
     inkscape:connector-curvature="0"
     style="fill:#546e7a;fill-rule:evenodd;stroke:none;stroke-width:1;fill-opacity:1" />
</svg>
