<?xml version="1.0" encoding="UTF-8" standalone="no"?>
<svg width="120px" height="100px" viewBox="0 0 120 100" version="1.1" xmlns="http://www.w3.org/2000/svg" xmlns:xlink="http://www.w3.org/1999/xlink" xmlns:sketch="http://www.bohemiancoding.com/sketch/ns">
    <!-- Generator: Sketch 3.4.4 (17249) - http://www.bohemiancoding.com/sketch -->
    <title>blog</title>
    <desc>Created with Sketch.</desc>
    <defs></defs>
    <g id="Style-Inventory" stroke="none" stroke-width="1" fill="none" fill-rule="evenodd" sketch:type="MSPage">
        <g id="Features" sketch:type="MSArtboardGroup" transform="translate(-660.000000, -1004.000000)">
            <g id="blog" sketch:type="MSLayerGroup" transform="translate(660.000000, 1004.000000)">
                <rect id="Rectangle-273" fill-opacity="0.01" fill="#FFFFFF" sketch:type="MSShapeGroup" x="0" y="0" width="120" height="100"></rect>
                <g id="feature-2" transform="translate(25.000000, 11.000000)" sketch:type="MSShapeGroup">
                    <g transform="translate(0.186485, 0.000000)">
                        <path d="M38.1678275,18.1206917 C37.867241,18.1206917 37.5666546,18.0059064 37.3376922,17.7751525 C36.8785933,17.3124613 36.8785933,16.5633985 37.3376922,16.1007073 L48.9607609,4.38669131 C49.4198598,3.92400011 50.1631068,3.92400011 50.6210315,4.38669131 L53.1126116,6.89658402 C53.5717105,7.35927523 53.5717105,8.10833798 53.1126116,8.56984583 C52.6535128,9.03253704 51.9102657,9.03253704 51.452341,8.56984583 L49.7908962,6.89658402 L38.9979628,17.7751525 C38.7690005,18.0059064 38.468414,18.1206917 38.1678275,18.1206917" id="Fill-306" fill="#546E7A"></path>
                        <path d="M15.1013376,61.9651211 C16.4774601,60.5782308 18.7072012,60.5782308 20.0833237,61.9651211 C21.9173709,60.116723 21.9173709,57.1192886 20.0833237,55.2708905 L13.4410669,48.5766599 C11.6070197,46.7282618 8.6328574,46.7282618 6.79881019,48.5766599 C8.17493268,49.9635502 8.17493268,52.2107384 6.79881019,53.5976287 C5.42386187,54.984519 3.19294658,54.984519 1.81799826,53.5976287 L0.156553454,68.6593517 L15.1013376,66.9860899 C13.7263893,65.5991996 13.7263893,63.3520114 15.1013376,61.9651211" id="Fill-339" fill="#F88B1C"></path>
                        <path d="M24.8610049,52.10542 L16.5573033,43.7379276 L56.4331529,3.55006041 L64.7356803,11.9175528 L24.8610049,52.10542" id="Fill-340" fill="#2F4149"></path>
                        <path d="M63.9325508,11.0537048 L57.2914682,4.35947418 L61.6159214,0 L68.2581781,6.69423058 L63.9325508,11.0537048" id="Fill-341" fill="#3AB0D5"></path>
                        <path d="M49.4233823,28.5330189 C49.1227958,28.5330189 48.8222093,28.4182336 48.5932469,28.1862963 L40.2895454,19.8199873 C39.8316207,19.3572961 39.8316207,18.6094167 40.2895454,18.1467255 C40.7486443,17.6840343 41.4918913,17.6840343 41.9509902,18.1467255 L50.2535176,26.5130345 C50.7114423,26.9757257 50.7114423,27.7247884 50.2535176,28.1862963 C50.0245552,28.4182336 49.7239687,28.5330189 49.4233823,28.5330189" id="Fill-342" fill="#3AB0D5"></path>
                        <path d="M13.4410669,48.5766599 L20.0704078,55.259057 L23.9839029,51.3149399 L17.3416462,44.6207093 L13.4281511,48.5660098 C13.4316736,48.5695598 13.4363703,48.5731099 13.4410669,48.5766599" id="Fill-343" fill="#3AB0D5"></path>
                        <path d="M0.156553454,68.6593517 L0.15772762,68.6593517 L2.0269998,68.4498981 L6.6849161,63.7650017 C6.84577683,63.8466531 7.01837922,63.9010874 7.20154911,63.9010874 L9.549881,63.9010874 C9.86103497,63.9010874 10.1604473,63.7768353 10.3800163,63.5543648 L11.5541823,62.3710113 C11.7749255,62.1497242 11.8982129,61.8491525 11.8982129,61.5343804 L11.8982129,59.1676735 C11.8982129,58.8529015 11.7749255,58.5523297 11.5541823,58.3310426 L10.3800163,57.1476891 C10.1604473,56.926402 9.86103497,56.8009666 9.549881,56.8009666 L7.20154911,56.8009666 C6.89039514,56.8009666 6.59215699,56.926402 6.37141379,57.1476891 L5.19724785,58.3310426 C4.97767882,58.5523297 4.85321723,58.8529015 4.85321723,59.1676735 L4.85321723,61.5343804 C4.85321723,61.7367339 4.92131885,61.9248871 5.01642629,62.09884 L0.364380826,66.7778197 L0.156553454,68.6593517 L0.156553454,68.6593517 Z M7.20154911,59.6575818 L7.68765381,59.1676735 L9.0637763,59.1676735 L9.549881,59.6575818 L9.549881,61.0444721 L9.0637763,61.5343804 L7.68765381,61.5343804 L7.20154911,61.0444721 L7.20154911,59.6575818 L7.20154911,59.6575818 Z" id="Fill-353" fill="#7B6856"></path>
                    </g>
                </g>
            </g>
        </g>
    </g>
</svg>