<?xml version="1.0" encoding="UTF-8" standalone="no"?>
<svg width="334px" height="" viewBox="0 0 334 182" version="1.1" xmlns="http://www.w3.org/2000/svg" xmlns:xlink="http://www.w3.org/1999/xlink" xmlns:sketch="http://www.bohemiancoding.com/sketch/ns">
    <!-- Generator: Sketch 3.4.4 (17249) - http://www.bohemiancoding.com/sketch -->
    <title>example-raspberry4</title>
    <desc>Created with Sketch.</desc>
    <defs>
        <filter x="-50%" y="-50%" width="200%" height="200%" filterUnits="objectBoundingBox" id="filter-1">
            <feOffset dx="0" dy="2" in="SourceAlpha" result="shadowOffsetOuter1"></feOffset>
            <feGaussianBlur stdDeviation="2" in="shadowOffsetOuter1" result="shadowBlurOuter1"></feGaussianBlur>
            <feColorMatrix values="0 0 0 0 0   0 0 0 0 0   0 0 0 0 0  0 0 0 0.35 0" in="shadowBlurOuter1" type="matrix" result="shadowMatrixOuter1"></feColorMatrix>
            <feMerge>
                <feMergeNode in="shadowMatrixOuter1"></feMergeNode>
                <feMergeNode in="SourceGraphic"></feMergeNode>
            </feMerge>
        </filter>
        <filter x="-50%" y="-50%" width="200%" height="200%" filterUnits="objectBoundingBox" id="filter-2">
            <feOffset dx="0" dy="2" in="SourceAlpha" result="shadowOffsetOuter1"></feOffset>
            <feGaussianBlur stdDeviation="2" in="shadowOffsetOuter1" result="shadowBlurOuter1"></feGaussianBlur>
            <feColorMatrix values="0 0 0 0 0   0 0 0 0 0   0 0 0 0 0  0 0 0 0.35 0" in="shadowBlurOuter1" type="matrix" result="shadowMatrixOuter1"></feColorMatrix>
            <feMerge>
                <feMergeNode in="shadowMatrixOuter1"></feMergeNode>
                <feMergeNode in="SourceGraphic"></feMergeNode>
            </feMerge>
        </filter>
        <filter x="-50%" y="-50%" width="200%" height="200%" filterUnits="objectBoundingBox" id="filter-3">
            <feOffset dx="0" dy="2" in="SourceAlpha" result="shadowOffsetOuter1"></feOffset>
            <feGaussianBlur stdDeviation="2" in="shadowOffsetOuter1" result="shadowBlurOuter1"></feGaussianBlur>
            <feColorMatrix values="0 0 0 0 0   0 0 0 0 0   0 0 0 0 0  0 0 0 0.35 0" in="shadowBlurOuter1" type="matrix" result="shadowMatrixOuter1"></feColorMatrix>
            <feMerge>
                <feMergeNode in="shadowMatrixOuter1"></feMergeNode>
                <feMergeNode in="SourceGraphic"></feMergeNode>
            </feMerge>
        </filter>
        <filter x="-50%" y="-50%" width="200%" height="200%" filterUnits="objectBoundingBox" id="filter-4">
            <feOffset dx="0" dy="2" in="SourceAlpha" result="shadowOffsetOuter1"></feOffset>
            <feGaussianBlur stdDeviation="2" in="shadowOffsetOuter1" result="shadowBlurOuter1"></feGaussianBlur>
            <feColorMatrix values="0 0 0 0 0   0 0 0 0 0   0 0 0 0 0  0 0 0 0.35 0" in="shadowBlurOuter1" type="matrix" result="shadowMatrixOuter1"></feColorMatrix>
            <feMerge>
                <feMergeNode in="shadowMatrixOuter1"></feMergeNode>
                <feMergeNode in="SourceGraphic"></feMergeNode>
            </feMerge>
        </filter>
    </defs>
    <g id="animations" stroke="none" stroke-width="1" fill="none" fill-rule="evenodd" sketch:type="MSPage">
        <g id="example-raspberry4" sketch:type="MSLayerGroup" transform="translate(4.000000, 2.000000)">
            <g id="Group" sketch:type="MSShapeGroup">
                <path d="M229.283887,100.736842 L234.286445,100.736842 C235.206916,100.736842 235.953964,101.481129 235.953964,102.401914 C235.953964,103.322699 235.206916,104.066986 234.286445,104.066986 L229.283887,104.066986 L229.283887,105.732057 L234.286445,105.732057 C235.206916,105.732057 235.953964,106.476344 235.953964,107.397129 C235.953964,108.317914 235.206916,109.062201 234.286445,109.062201 L229.283887,109.062201 L229.283887,110.727273 L234.286445,110.727273 C235.206916,110.727273 235.953964,111.47156 235.953964,112.392344 C235.953964,113.313129 235.206916,114.057416 234.286445,114.057416 L229.283887,114.057416 L229.283887,147.358852 L234.286445,147.358852 C235.206916,147.358852 235.953964,148.103139 235.953964,149.023923 C235.953964,149.944708 235.206916,150.688995 234.286445,150.688995 L229.283887,150.688995 L229.283887,152.354067 L234.286445,152.354067 C235.206916,152.354067 235.953964,153.098354 235.953964,154.019139 C235.953964,154.939923 235.206916,155.684211 234.286445,155.684211 L229.283887,155.684211 L229.283887,157.349282 L234.286445,157.349282 C235.206916,157.349282 235.953964,158.093569 235.953964,159.014354 C235.953964,159.935139 235.206916,160.679426 234.286445,160.679426 L229.283887,160.679426 L229.283887,162.344498 L234.286445,162.344498 C235.206916,162.344498 235.953964,163.088785 235.953964,164.009569 C235.953964,164.930354 235.206916,165.674641 234.286445,165.674641 L229.283887,165.674641 L229.283887,167.339713 L234.286445,167.339713 C235.206916,167.339713 235.953964,168.084 235.953964,169.004785 C235.953964,169.925569 235.206916,170.669856 234.286445,170.669856 L229.283887,170.669856 L229.283887,174 L326,174 L326,94.076555 L229.283887,94.076555 L229.283887,100.736842 Z" id="Fill-11" fill="#2F4149" filter="url(#filter-1)"></path>
                <path d="M235.953964,149.023923 C235.953964,148.103139 235.206916,147.358852 234.286445,147.358852 L229.283887,147.358852 L229.283887,150.688995 L234.286445,150.688995 C235.206916,150.688995 235.953964,149.944708 235.953964,149.023923" id="Fill-12" fill="#3AB0D5"></path>
                <path d="M235.953964,154.019139 C235.953964,153.098354 235.206916,152.354067 234.286445,152.354067 L229.283887,152.354067 L229.283887,155.684211 L234.286445,155.684211 C235.206916,155.684211 235.953964,154.939923 235.953964,154.019139" id="Fill-13" fill="#3AB0D5"></path>
                <path d="M234.286445,157.349282 L229.283887,157.349282 L229.283887,160.679426 L234.286445,160.679426 C235.206916,160.679426 235.953964,159.935139 235.953964,159.014354 C235.953964,158.093569 235.206916,157.349282 234.286445,157.349282 Z" id="Fill-14" fill="#3AB0D5"></path>
                <path d="M235.953964,164.009569 C235.953964,163.088785 235.206916,162.344498 234.286445,162.344498 L229.283887,162.344498 L229.283887,165.674641 L234.286445,165.674641 C235.206916,165.674641 235.953964,164.930354 235.953964,164.009569" id="Fill-15" fill="#3AB0D5"></path>
                <path d="M235.953964,169.004785 C235.953964,168.084 235.206916,167.339713 234.286445,167.339713 L229.283887,167.339713 L229.283887,170.669856 L234.286445,170.669856 C235.206916,170.669856 235.953964,169.925569 235.953964,169.004785" id="Fill-16" fill="#3AB0D5"></path>
                <path d="M235.953964,102.401914 C235.953964,101.481129 235.206916,100.736842 234.286445,100.736842 L229.283887,100.736842 L229.283887,104.066986 L234.286445,104.066986 C235.206916,104.066986 235.953964,103.322699 235.953964,102.401914" id="Fill-17" fill="#3AB0D5"></path>
                <path d="M235.953964,107.397129 C235.953964,106.476344 235.206916,105.732057 234.286445,105.732057 L229.283887,105.732057 L229.283887,109.062201 L234.286445,109.062201 C235.206916,109.062201 235.953964,108.317914 235.953964,107.397129" id="Fill-18" fill="#3AB0D5"></path>
                <path d="M235.953964,112.392344 C235.953964,111.47156 235.206916,110.727273 234.286445,110.727273 L229.283887,110.727273 L229.283887,114.057416 L234.286445,114.057416 C235.206916,114.057416 235.953964,113.313129 235.953964,112.392344" id="Fill-19" fill="#3AB0D5"></path>
                <path d="M322.664962,124.047847 C322.664962,124.966967 321.917913,125.712919 320.997442,125.712919 C320.076972,125.712919 319.329923,124.966967 319.329923,124.047847 C319.329923,123.128727 320.076972,122.382775 320.997442,122.382775 C321.917913,122.382775 322.664962,123.128727 322.664962,124.047847" id="Fill-732" fill="#3AB0D5"></path>
                <path d="M260.966752,147.358852 C260.966752,148.277971 260.219703,149.023923 259.299233,149.023923 C258.378762,149.023923 257.631714,148.277971 257.631714,147.358852 C257.631714,146.439732 258.378762,145.69378 259.299233,145.69378 C260.219703,145.69378 260.966752,146.439732 260.966752,147.358852" id="Fill-740" fill="#E8EDEE"></path>
                <path d="M255.964194,147.358852 C255.964194,148.277971 255.217146,149.023923 254.296675,149.023923 C253.376205,149.023923 252.629156,148.277971 252.629156,147.358852 C252.629156,146.439732 253.376205,145.69378 254.296675,145.69378 C255.217146,145.69378 255.964194,146.439732 255.964194,147.358852" id="Fill-741" fill="#E8EDEE"></path>
                <path d="M250.961637,147.358852 C250.961637,148.277971 250.214588,149.023923 249.294118,149.023923 C248.373647,149.023923 247.626598,148.277971 247.626598,147.358852 C247.626598,146.439732 248.373647,145.69378 249.294118,145.69378 C250.214588,145.69378 250.961637,146.439732 250.961637,147.358852" id="Fill-742" fill="#3AB0D5"></path>
                <path d="M235.953964,127.37799 C235.953964,128.29711 235.206916,129.043062 234.286445,129.043062 C233.365974,129.043062 232.618926,128.29711 232.618926,127.37799 C232.618926,126.458871 233.365974,125.712919 234.286445,125.712919 C235.206916,125.712919 235.953964,126.458871 235.953964,127.37799" id="Fill-743" fill="#3AB0D5"></path>
                <path d="M235.953964,132.373206 C235.953964,133.292325 235.206916,134.038278 234.286445,134.038278 C233.365974,134.038278 232.618926,133.292325 232.618926,132.373206 C232.618926,131.454086 233.365974,130.708134 234.286445,130.708134 C235.206916,130.708134 235.953964,131.454086 235.953964,132.373206" id="Fill-744" fill="#3AB0D5"></path>
                <path d="M235.953964,137.368421 C235.953964,138.287541 235.206916,139.033493 234.286445,139.033493 C233.365974,139.033493 232.618926,138.287541 232.618926,137.368421 C232.618926,136.449301 233.365974,135.703349 234.286445,135.703349 C235.206916,135.703349 235.953964,136.449301 235.953964,137.368421" id="Fill-745" fill="#3AB0D5"></path>
                <path d="M310.002613,139.866029 L276.130379,139.866029 C274.20206,139.866029 272.639386,138.305648 272.639386,136.380159 L272.639386,102.559679 C272.639386,100.632151 274.20206,99.0717703 276.130379,99.0717703 L310.002613,99.0717703 C311.930932,99.0717703 313.493606,100.632151 313.493606,102.559679 L313.493606,136.380159 C313.493606,138.305648 311.930932,139.866029 310.002613,139.866029" id="Fill-1051" fill="#28812F"></path>
                <path d="M282.644501,89.0813397 L289.314578,89.0813397 L289.314578,94.076555 L282.644501,94.076555 L282.644501,89.0813397 L282.644501,89.0813397 Z" id="Fill-1052" fill="#546A79"></path>
                <path d="M289.314578,89.0813397 L295.984655,89.0813397 L295.984655,94.076555 L289.314578,94.076555 L289.314578,89.0813397 L289.314578,89.0813397 Z" id="Fill-1053" fill="#38454F"></path>
                <path d="M295.984655,89.0813397 L302.654731,89.0813397 L302.654731,94.076555 L295.984655,94.076555 L295.984655,89.0813397 L295.984655,89.0813397 Z" id="Fill-1054" fill="#546A79"></path>
                <path d="M302.654731,89.0813397 L309.324808,89.0813397 L309.324808,94.076555 L302.654731,94.076555 L302.654731,89.0813397 L302.654731,89.0813397 Z" id="Fill-1055" fill="#38454F"></path>
                <path d="M309.324808,89.0813397 L315.994885,89.0813397 L315.994885,94.076555 L309.324808,94.076555 L309.324808,89.0813397 L309.324808,89.0813397 Z" id="Fill-1056" fill="#546A79"></path>
                <path d="M316.828645,152.354067 L313.493606,152.354067 C312.571468,152.354067 311.826087,151.60978 311.826087,150.688995 C311.826087,149.768211 312.571468,149.023923 313.493606,149.023923 L316.828645,149.023923 C317.750783,149.023923 318.496164,149.768211 318.496164,150.688995 C318.496164,151.60978 317.750783,152.354067 316.828645,152.354067" id="Fill-1058" fill="#F88B1C"></path>
                <path d="M272.639386,149.023923 L269.304348,149.023923 C268.383877,149.023923 267.636829,149.768211 267.636829,150.688995 C267.636829,151.60978 268.383877,152.354067 269.304348,152.354067 L272.639386,152.354067 C273.559857,152.354067 274.306905,151.60978 274.306905,150.688995 C274.306905,149.768211 273.559857,149.023923 272.639386,149.023923" id="Fill-1060" fill="#8F8F99"></path>
                <path d="M272.639386,155.684211 L269.304348,155.684211 C268.383877,155.684211 267.636829,156.428498 267.636829,157.349282 C267.636829,158.270067 268.383877,159.014354 269.304348,159.014354 L272.639386,159.014354 C273.559857,159.014354 274.306905,158.270067 274.306905,157.349282 C274.306905,156.428498 273.559857,155.684211 272.639386,155.684211" id="Fill-1061" fill="#8F8F99"></path>
                <path d="M272.639386,162.344498 L269.304348,162.344498 C268.383877,162.344498 267.636829,163.088785 267.636829,164.009569 C267.636829,164.930354 268.383877,165.674641 269.304348,165.674641 L272.639386,165.674641 C273.559857,165.674641 274.306905,164.930354 274.306905,164.009569 C274.306905,163.088785 273.559857,162.344498 272.639386,162.344498" id="Fill-1062" fill="#8F8F99"></path>
                <path d="M316.828645,159.014354 L313.493606,159.014354 C312.571468,159.014354 311.826087,158.270067 311.826087,157.349282 C311.826087,156.428498 312.571468,155.684211 313.493606,155.684211 L316.828645,155.684211 C317.750783,155.684211 318.496164,156.428498 318.496164,157.349282 C318.496164,158.270067 317.750783,159.014354 316.828645,159.014354" id="Fill-1063" fill="#F88B1C"></path>
                <path d="M316.828645,165.674641 L313.493606,165.674641 C312.571468,165.674641 311.826087,164.930354 311.826087,164.009569 C311.826087,163.088785 312.571468,162.344498 313.493606,162.344498 L316.828645,162.344498 C317.750783,162.344498 318.496164,163.088785 318.496164,164.009569 C318.496164,164.930354 317.750783,165.674641 316.828645,165.674641" id="Fill-1064" fill="#F88B1C"></path>
                <path d="M262.634271,159.014354 L259.299233,159.014354 C258.378762,159.014354 257.631714,158.270067 257.631714,157.349282 C257.631714,156.428498 258.378762,155.684211 259.299233,155.684211 L262.634271,155.684211 C263.554742,155.684211 264.30179,156.428498 264.30179,157.349282 C264.30179,158.270067 263.554742,159.014354 262.634271,159.014354" id="Fill-1065" fill="#F88B1C"></path>
                <path d="M262.634271,164.009569 L259.299233,164.009569 C258.378762,164.009569 257.631714,163.265282 257.631714,162.344498 C257.631714,161.423713 258.378762,160.679426 259.299233,160.679426 L262.634271,160.679426 C263.554742,160.679426 264.30179,161.423713 264.30179,162.344498 C264.30179,163.265282 263.554742,164.009569 262.634271,164.009569" id="Fill-1066" fill="#F88B1C"></path>
                <path d="M249.294118,159.014354 L245.959079,159.014354 C245.038609,159.014354 244.29156,158.270067 244.29156,157.349282 C244.29156,156.428498 245.038609,155.684211 245.959079,155.684211 L249.294118,155.684211 C250.214588,155.684211 250.961637,156.428498 250.961637,157.349282 C250.961637,158.270067 250.214588,159.014354 249.294118,159.014354" id="Fill-1067" fill="#F88B1C"></path>
                <path d="M249.294118,164.009569 L245.959079,164.009569 C245.038609,164.009569 244.29156,163.265282 244.29156,162.344498 C244.29156,161.423713 245.038609,160.679426 245.959079,160.679426 L249.294118,160.679426 C250.214588,160.679426 250.961637,161.423713 250.961637,162.344498 C250.961637,163.265282 250.214588,164.009569 249.294118,164.009569" id="Fill-1068" fill="#F88B1C"></path>
                <path d="M245.959079,127.37799 C245.038609,127.37799 244.29156,126.633703 244.29156,125.712919 L244.29156,122.382775 C244.29156,121.46199 245.038609,120.717703 245.959079,120.717703 C246.87955,120.717703 247.626598,121.46199 247.626598,122.382775 L247.626598,125.712919 C247.626598,126.633703 246.87955,127.37799 245.959079,127.37799" id="Fill-1069" fill="#8F8F99"></path>
                <path d="M259.299233,137.368421 C258.378762,137.368421 257.631714,136.624134 257.631714,135.703349 L257.631714,132.373206 C257.631714,131.452421 258.378762,130.708134 259.299233,130.708134 C260.219703,130.708134 260.966752,131.452421 260.966752,132.373206 L260.966752,135.703349 C260.966752,136.624134 260.219703,137.368421 259.299233,137.368421" id="Fill-1070" fill="#8F8F99"></path>
                <path d="M240.956522,132.373206 L249.294118,132.373206 L249.294118,140.698565 L240.956522,140.698565 L240.956522,132.373206 L240.956522,132.373206 Z" id="Fill-1071" fill="#000000"></path>
                <g transform="translate(274.917061, 101.346102)">
                    <path d="M4.2005396,4.19437449 L32.0983315,4.19437449 L32.0983315,32.0512209 L4.2005396,32.0512209 L4.2005396,4.19437449 L4.2005396,4.19437449 Z" id="Fill-1719" fill="#000000"></path>
                    <path d="M6.99031879,0.015847531 L12.5698772,0.015847531 L12.5698772,4.19437449 L6.99031879,4.19437449 L6.99031879,0.015847531 L6.99031879,0.015847531 Z" id="Fill-1720" fill="#E1C495"></path>
                    <path d="M15.3596563,0.015847531 L20.9392147,0.015847531 L20.9392147,4.19437449 L15.3596563,4.19437449 L15.3596563,0.015847531 L15.3596563,0.015847531 Z" id="Fill-1721" fill="#E1C495"></path>
                    <path d="M23.7289939,0.015847531 L29.3085523,0.015847531 L29.3085523,4.19437449 L23.7289939,4.19437449 L23.7289939,0.015847531 L23.7289939,0.015847531 Z" id="Fill-1722" fill="#E1C495"></path>
                    <path d="M6.99031879,32.0512209 L12.5698772,32.0512209 L12.5698772,36.2297478 L6.99031879,36.2297478 L6.99031879,32.0512209 L6.99031879,32.0512209 Z" id="Fill-1723" fill="#E1C495"></path>
                    <path d="M15.3596563,32.0512209 L20.9392147,32.0512209 L20.9392147,36.2297478 L15.3596563,36.2297478 L15.3596563,32.0512209 L15.3596563,32.0512209 Z" id="Fill-1724" fill="#E1C495"></path>
                    <path d="M23.7289939,32.0512209 L29.3085523,32.0512209 L29.3085523,36.2297478 L23.7289939,36.2297478 L23.7289939,32.0512209 L23.7289939,32.0512209 Z" id="Fill-1725" fill="#E1C495"></path>
                    <path d="M32.0983315,6.98005913 L36.2830002,6.98005913 L36.2830002,12.5514284 L32.0983315,12.5514284 L32.0983315,6.98005913 L32.0983315,6.98005913 Z" id="Fill-1726" fill="#E1C495"></path>
                    <path d="M32.0983315,15.337113 L36.2830002,15.337113 L36.2830002,20.9084823 L32.0983315,20.9084823 L32.0983315,15.337113 L32.0983315,15.337113 Z" id="Fill-1727" fill="#E1C495"></path>
                    <path d="M32.0983315,23.694167 L36.2830002,23.694167 L36.2830002,29.2655362 L32.0983315,29.2655362 L32.0983315,23.694167 L32.0983315,23.694167 Z" id="Fill-1728" fill="#E1C495"></path>
                    <path d="M0.0158708246,6.98005913 L4.2005396,6.98005913 L4.2005396,12.5514284 L0.0158708246,12.5514284 L0.0158708246,6.98005913 L0.0158708246,6.98005913 Z" id="Fill-1729" fill="#E1C495"></path>
                    <path d="M0.0158708246,15.337113 L4.2005396,15.337113 L4.2005396,20.9084823 L0.0158708246,20.9084823 L0.0158708246,15.337113 L0.0158708246,15.337113 Z" id="Fill-1730" fill="#E1C495"></path>
                    <path d="M0.0158708246,23.694167 L4.2005396,23.694167 L4.2005396,29.2655362 L0.0158708246,29.2655362 L0.0158708246,23.694167 L0.0158708246,23.694167 Z" id="Fill-1731" fill="#E1C495"></path>
                </g>
                <path d="M255.964194,94.076555 L262.634271,94.076555 L262.634271,132.373206 L255.964194,132.373206 L255.964194,94.076555 L255.964194,94.076555 Z" id="Fill-1946" fill="#546E7A"></path>
                <path d="M242.624041,94.076555 L249.294118,94.076555 L249.294118,122.382775 L242.624041,122.382775 L242.624041,94.076555 L242.624041,94.076555 Z" id="Fill-1947" fill="#546E7A"></path>
                <path d="M249.294118,154.019139 L259.299233,154.019139 L259.299233,165.674641 L249.294118,165.674641 L249.294118,154.019139 L249.294118,154.019139 Z" id="Fill-1948" fill="#000000"></path>
                <path d="M313.493606,154.019139 L313.493606,160.679426 L272.639386,160.679426 L272.639386,154.019139 L313.493606,154.019139 Z" id="Fill-1949" fill="#546E7A"></path>
                <path d="M272.639386,147.358852 L313.493606,147.358852 L313.493606,154.019139 L272.639386,154.019139 L272.639386,147.358852 L272.639386,147.358852 Z" id="Fill-1950" fill="#BC1142"></path>
                <path d="M272.639386,160.679426 L275.974425,160.679426 L275.974425,167.339713 L272.639386,167.339713 L272.639386,160.679426 L272.639386,160.679426 Z" id="Fill-1951" fill="#DD342E"></path>
                <path d="M279.309463,160.679426 L309.324808,160.679426 L309.324808,167.339713 L279.309463,167.339713 L279.309463,160.679426 L279.309463,160.679426 Z" id="Fill-1952" fill="#BC1142"></path>
                <path d="M310.350974,160.679426 L313.493606,160.679426 L313.493606,167.339713 L310.350974,167.339713 L310.350974,160.679426 L310.350974,160.679426 Z" id="Fill-1953" fill="#BC1142"></path>
                <path d="M275.974425,152.354067 L275.974425,167.339713 L279.309463,167.339713 L279.309463,147.358852 L275.974425,147.358852 L275.974425,152.354067" id="Fill-1957" fill="#000000"></path>
                <path d="M306.823529,167.339713 L310.158568,167.339713 L310.158568,147.358852 L306.823529,147.358852 L306.823529,167.339713 L306.823529,167.339713 Z" id="Fill-1958" fill="#000000"></path>
                <path d="M274.306905,90.7464115 C274.306905,89.8256268 273.559857,89.0813397 272.639386,89.0813397 C271.718916,89.0813397 270.971867,89.8256268 270.971867,90.7464115 L270.971867,94.076555 L274.306905,94.076555 L274.306905,90.7464115" id="Fill-1959" fill="#CBD4D8"></path>
                <path d="M279.309463,90.7464115 C279.309463,89.8256268 278.562414,89.0813397 277.641944,89.0813397 C276.721473,89.0813397 275.974425,89.8256268 275.974425,90.7464115 L275.974425,94.076555 L279.309463,94.076555 L279.309463,90.7464115" id="Fill-1960" fill="#CBD4D8"></path>
                <path d="M322.664962,90.7464115 C322.664962,89.8256268 321.919581,89.0813397 320.997442,89.0813397 C320.075304,89.0813397 319.329923,89.8256268 319.329923,90.7464115 L319.329923,94.076555 L322.664962,94.076555 L322.664962,90.7464115" id="Fill-1961" fill="#CBD4D8"></path>
                <path d="M310.992327,54.1148325 C310.992327,41.7516746 287.647059,16.7755981 287.647059,29.138756 L287.647059,79.923445 L310.992327,79.923445 L310.992327,54.1148325 L310.992327,54.1148325 Z" id="Fill-1089" fill="#0097A7" filter="url(#filter-2)"></path>
                <path d="M314.000532,79.0909091 C315.101095,79.0909091 315.994885,79.9833876 315.994885,81.0823349 L315.994885,92.0834641 C315.994885,93.1840766 315.101095,94.076555 314.000532,94.076555 L284.640522,94.076555 C283.538292,94.076555 282.644501,93.1840766 282.644501,92.0834641 L282.644501,81.0823349 C282.644501,79.9833876 283.538292,79.0909091 284.640522,79.0909091 L314.000532,79.0909091 L314.000532,79.0909091 Z" id="Fill-1091" fill="#000000" filter="url(#filter-3)"></path>
                <path d="M290.982097,87.4162679 L307.657289,87.4162679 C308.579427,87.4162679 309.324808,88.160555 309.324808,89.0813397 C309.324808,90.0021244 308.579427,90.7464115 307.657289,90.7464115 L290.982097,90.7464115 C290.059959,90.7464115 289.314578,90.0021244 289.314578,89.0813397 C289.314578,88.160555 290.059959,87.4162679 290.982097,87.4162679" id="Fill-1092" fill="#546A79"></path>
                <path d="M290.982097,82.4210526 L307.657289,82.4210526 C308.579427,82.4210526 309.324808,83.1653397 309.324808,84.0861244 C309.324808,85.0069091 308.579427,85.7511962 307.657289,85.7511962 L290.982097,85.7511962 C290.059959,85.7511962 289.314578,85.0069091 289.314578,84.0861244 C289.314578,83.1653397 290.059959,82.4210526 290.982097,82.4210526" id="Fill-1093" fill="#546A79"></path>
                <path d="M300.987212,57.4449775 L300.987212,74.4763203 C300.987212,75.397105 301.732593,76.1413921 302.654731,76.1413921 C303.57687,76.1413921 304.322251,75.397105 304.322251,74.4763203 L304.322251,56.6124416 C304.322251,56.6124416 304.322251,54.947367 302.654731,54.9473684 C300.987212,54.9473698 300.987212,56.6124402 300.987212,56.6124402" id="Fill-1915-Copy" fill="#2A6166"></path>
                <g id="example-raspberry">
                    <path d="M162.238116,60 C162.238116,61.659 163.584092,63 165.242526,63 L174.255754,63 L174.255754,57 L165.242526,57 C163.584092,57 162.238116,58.341 162.238116,60" id="Fill-40" fill="#3AB0D5"></path>
                    <path d="M162.238116,69 C162.238116,70.659 163.584092,72 165.242526,72 L174.255754,72 L174.255754,66 L165.242526,66 C163.584092,66 162.238116,67.341 162.238116,69" id="Fill-41" fill="#3AB0D5"></path>
                    <path d="M162.238116,78 C162.238116,79.659 163.584092,81 165.242526,81 L174.255754,81 L174.255754,75 L165.242526,75 C163.584092,75 162.238116,76.341 162.238116,78" id="Fill-42" fill="#3AB0D5"></path>
                    <path d="M162.238116,87 C162.238116,88.659 163.584092,90 165.242526,90 L174.255754,90 L174.255754,84 L165.242526,84 C163.584092,84 162.238116,85.341 162.238116,87" id="Fill-43" fill="#3AB0D5"></path>
                    <path d="M162.238116,96 C162.238116,97.659 163.584092,99 165.242526,99 L174.255754,99 L174.255754,93 L165.242526,93 C163.584092,93 162.238116,94.341 162.238116,96" id="Fill-44" fill="#3AB0D5"></path>
                    <path d="M162.238116,105 C162.238116,106.659 163.584092,108 165.242526,108 L174.255754,108 L174.255754,102 L165.242526,102 C163.584092,102 162.238116,103.341 162.238116,105" id="Fill-45" fill="#3AB0D5"></path>
                    <path d="M162.238116,114 C162.238116,115.659 163.584092,117 165.242526,117 L174.255754,117 L174.255754,111 L165.242526,111 C163.584092,111 162.238116,112.341 162.238116,114" id="Fill-46" fill="#3AB0D5"></path>
                    <path d="M162.238116,123 C162.238116,124.659 163.584092,126 165.242526,126 L174.255754,126 L174.255754,120 L165.242526,120 C163.584092,120 162.238116,121.341 162.238116,123" id="Fill-47" fill="#3AB0D5"></path>
                    <path d="M174.255754,13.497 C174.255754,6.042 168.204874,0 160.738916,0 L138.20284,0 C138.20284,6.627 132.821942,12 126.185202,12 C119.548461,12 114.167563,6.627 114.167563,0 L13.5168386,0 C6.05088085,0 0,6.042 0,13.497 L0,30 L12.0176382,30 L12.0176382,42 L0,42 L0,160.503 C0,167.958 6.05088085,174 13.5168386,174 L114.167563,174 C114.167563,167.373 119.548461,162 126.185202,162 C132.821942,162 138.20284,167.373 138.20284,174 L160.738916,174 C168.204874,174 174.255754,167.958 174.255754,160.503 L174.255754,126 L165.242526,126 C163.584092,126 162.238116,124.659 162.238116,123 C162.238116,121.341 163.584092,120 165.242526,120 L174.255754,120 L174.255754,117 L165.242526,117 C163.584092,117 162.238116,115.659 162.238116,114 C162.238116,112.341 163.584092,111 165.242526,111 L174.255754,111 L174.255754,108 L165.242526,108 C163.584092,108 162.238116,106.659 162.238116,105 C162.238116,103.341 163.584092,102 165.242526,102 L174.255754,102 L174.255754,99 L165.242526,99 C163.584092,99 162.238116,97.659 162.238116,96 C162.238116,94.341 163.584092,93 165.242526,93 L174.255754,93 L174.255754,90 L165.242526,90 C163.584092,90 162.238116,88.659 162.238116,87 C162.238116,85.341 163.584092,84 165.242526,84 L174.255754,84 L174.255754,81 L165.242526,81 C163.584092,81 162.238116,79.659 162.238116,78 C162.238116,76.341 163.584092,75 165.242526,75 L174.255754,75 L174.255754,72 L165.242526,72 C163.584092,72 162.238116,70.659 162.238116,69 C162.238116,67.341 163.584092,66 165.242526,66 L174.255754,66 L174.255754,63 L165.242526,63 C163.584092,63 162.238116,61.659 162.238116,60 C162.238116,58.341 163.584092,57 165.242526,57 L174.255754,57 L174.255754,13.497 Z M12.0176382,165 C10.3592042,165 9.01322868,163.656 9.01322868,162 C9.01322868,160.344 10.3592042,159 12.0176382,159 C13.6760723,159 15.0220478,160.344 15.0220478,162 C15.0220478,163.656 13.6760723,165 12.0176382,165 L12.0176382,165 L12.0176382,165 Z M12.0176382,15 C10.3592042,15 9.01322868,13.656 9.01322868,12 C9.01322868,10.344 10.3592042,9 12.0176382,9 C13.6760723,9 15.0220478,10.344 15.0220478,12 C15.0220478,13.656 13.6760723,15 12.0176382,15 L12.0176382,15 L12.0176382,15 Z M165.242526,162 C165.242526,163.656 163.89655,165 162.238116,165 C160.579682,165 159.233707,163.656 159.233707,162 C159.233707,160.344 160.579682,159 162.238116,159 C163.89655,159 165.242526,160.344 165.242526,162 L165.242526,162 L165.242526,162 Z M159.233707,12 C159.233707,10.344 160.579682,9 162.238116,9 C163.89655,9 165.242526,10.344 165.242526,12 C165.242526,13.656 163.89655,15 162.238116,15 C160.579682,15 159.233707,13.656 159.233707,12 L159.233707,12 L159.233707,12 Z" id="Fill-748" fill="#2F4149" filter="url(#filter-4)"></path>
                    <path d="M45.2016807,55.2063383 C45.2016807,49.6443383 49.7173082,45.1353383 55.2874836,45.1353383 L119.239345,45.1353383 C124.809521,45.1353383 129.325148,49.6443383 129.325148,55.2063383 L129.325148,119.064338 C129.325148,124.626338 124.809521,129.135338 119.239345,129.135338 L55.2874836,129.135338 C49.7173082,129.135338 45.2016807,124.626338 45.2016807,119.064338 L45.2016807,55.2063383 Z" id="Fill-1004" fill="#000000"></path>
                    <path d="M33.0485052,66 L24.0352765,66 C22.3768424,66 21.0308669,67.341 21.0308669,69 C21.0308669,70.659 22.3768424,72 24.0352765,72 L33.0485052,72 C34.7069392,72 36.0529147,70.659 36.0529147,69 C36.0529147,67.341 34.7069392,66 33.0485052,66" id="Fill-1005" fill="#E1C495"></path>
                    <path d="M33.0485052,102 L24.0352765,102 C22.3768424,102 21.0308669,103.341 21.0308669,105 C21.0308669,106.659 22.3768424,108 24.0352765,108 L33.0485052,108 C34.7069392,108 36.0529147,106.659 36.0529147,105 C36.0529147,103.341 34.7069392,102 33.0485052,102" id="Fill-1006" fill="#E1C495"></path>
                    <path d="M33.0485052,90 L24.0352765,90 C22.3768424,90 21.0308669,91.341 21.0308669,93 C21.0308669,94.659 22.3768424,96 24.0352765,96 L33.0485052,96 C34.7069392,96 36.0529147,94.659 36.0529147,93 C36.0529147,91.341 34.7069392,90 33.0485052,90" id="Fill-1007" fill="#E1C495"></path>
                    <path d="M33.0485052,78 L24.0352765,78 C22.3768424,78 21.0308669,79.341 21.0308669,81 C21.0308669,82.659 22.3768424,84 24.0352765,84 L33.0485052,84 C34.7069392,84 36.0529147,82.659 36.0529147,81 C36.0529147,79.341 34.7069392,78 33.0485052,78" id="Fill-1008" fill="#E1C495"></path>
                    <path d="M141.207249,72 L150.220478,72 C151.878912,72 153.224888,70.659 153.224888,69 C153.224888,67.341 151.878912,66 150.220478,66 L141.207249,66 C139.548815,66 138.20284,67.341 138.20284,69 C138.20284,70.659 139.548815,72 141.207249,72" id="Fill-1009" fill="#E1C495"></path>
                    <path d="M150.220478,102 L141.207249,102 C139.548815,102 138.20284,103.341 138.20284,105 C138.20284,106.659 139.548815,108 141.207249,108 L150.220478,108 C151.878912,108 153.224888,106.659 153.224888,105 C153.224888,103.341 151.878912,102 150.220478,102" id="Fill-1010" fill="#E1C495"></path>
                    <path d="M150.220478,90 L141.207249,90 C139.548815,90 138.20284,91.341 138.20284,93 C138.20284,94.659 139.548815,96 141.207249,96 L150.220478,96 C151.878912,96 153.224888,94.659 153.224888,93 C153.224888,91.341 151.878912,90 150.220478,90" id="Fill-1011" fill="#E1C495"></path>
                    <path d="M150.220478,78 L141.207249,78 C139.548815,78 138.20284,79.341 138.20284,81 C138.20284,82.659 139.548815,84 141.207249,84 L150.220478,84 C151.878912,84 153.224888,82.659 153.224888,81 C153.224888,79.341 151.878912,78 150.220478,78" id="Fill-1012" fill="#E1C495"></path>
                    <path d="M105.154335,21 C103.495901,21 102.149925,22.341 102.149925,24 L102.149925,33 C102.149925,34.659 103.495901,36 105.154335,36 C106.812769,36 108.158744,34.659 108.158744,33 L108.158744,24 C108.158744,22.341 106.812769,21 105.154335,21" id="Fill-1013" fill="#E1C495"></path>
                    <path d="M69.1014199,21 C67.4429858,21 66.0970103,22.341 66.0970103,24 L66.0970103,33 C66.0970103,34.659 67.4429858,36 69.1014199,36 C70.759854,36 72.1058294,34.659 72.1058294,33 L72.1058294,24 C72.1058294,22.341 70.759854,21 69.1014199,21" id="Fill-1014" fill="#E1C495"></path>
                    <path d="M81.1190581,21 C79.460624,21 78.1146486,22.341 78.1146486,24 L78.1146486,33 C78.1146486,34.659 79.460624,36 81.1190581,36 C82.7774922,36 84.1234677,34.659 84.1234677,33 L84.1234677,24 C84.1234677,22.341 82.7774922,21 81.1190581,21" id="Fill-1015" fill="#E1C495"></path>
                    <path d="M93.1366964,21 C91.4782623,21 90.1322868,22.341 90.1322868,24 L90.1322868,33 C90.1322868,34.659 91.4782623,36 93.1366964,36 C94.7951304,36 96.1411059,34.659 96.1411059,33 L96.1411059,24 C96.1411059,22.341 94.7951304,21 93.1366964,21" id="Fill-1016" fill="#E1C495"></path>
                    <path d="M105.154335,138 C103.495901,138 102.149925,139.341 102.149925,141 L102.149925,150 C102.149925,151.659 103.495901,153 105.154335,153 C106.812769,153 108.158744,151.659 108.158744,150 L108.158744,141 C108.158744,139.341 106.812769,138 105.154335,138" id="Fill-1017" fill="#E1C495"></path>
                    <path d="M69.1014199,138 C67.4429858,138 66.0970103,139.341 66.0970103,141 L66.0970103,150 C66.0970103,151.659 67.4429858,153 69.1014199,153 C70.759854,153 72.1058294,151.659 72.1058294,150 L72.1058294,141 C72.1058294,139.341 70.759854,138 69.1014199,138" id="Fill-1018" fill="#E1C495"></path>
                    <path d="M81.1190581,138 C79.460624,138 78.1146486,139.341 78.1146486,141 L78.1146486,150 C78.1146486,151.659 79.460624,153 81.1190581,153 C82.7774922,153 84.1234677,151.659 84.1234677,150 L84.1234677,141 C84.1234677,139.341 82.7774922,138 81.1190581,138" id="Fill-1019" fill="#E1C495"></path>
                    <path d="M93.1366964,138 C91.4782623,138 90.1322868,139.341 90.1322868,141 L90.1322868,150 C90.1322868,151.659 91.4782623,153 93.1366964,153 C94.7951304,153 96.1411059,151.659 96.1411059,150 L96.1411059,141 C96.1411059,139.341 94.7951304,138 93.1366964,138" id="Fill-1020" fill="#E1C495"></path>
                    <path d="M9.01322868,111 C7.3547946,111 6.00881912,109.656 6.00881912,108 C6.00881912,106.344 7.3547946,105 9.01322868,105 C10.6716628,105 12.0176382,106.344 12.0176382,108 C12.0176382,109.656 10.6716628,111 9.01322868,111" id="Fill-1021" fill="#3AB0D5"></path>
                    <path d="M9.01322868,123 C7.3547946,123 6.00881912,121.656 6.00881912,120 C6.00881912,118.344 7.3547946,117 9.01322868,117 C10.6716628,117 12.0176382,118.344 12.0176382,120 C12.0176382,121.656 10.6716628,123 9.01322868,123" id="Fill-1022" fill="#3AB0D5"></path>
                    <path d="M9.01322868,135 C7.3547946,135 6.00881912,133.656 6.00881912,132 C6.00881912,130.344 7.3547946,129 9.01322868,129 C10.6716628,129 12.0176382,130.344 12.0176382,132 C12.0176382,133.656 10.6716628,135 9.01322868,135" id="Fill-1023" fill="#3AB0D5"></path>
                    <path d="M9.01322868,147 C7.3547946,147 6.00881912,145.656 6.00881912,144 C6.00881912,142.344 7.3547946,141 9.01322868,141 C10.6716628,141 12.0176382,142.344 12.0176382,144 C12.0176382,145.656 10.6716628,147 9.01322868,147" id="Fill-1024" fill="#3AB0D5"></path>
                    <path d="M33.0485052,165 C33.0485052,166.656 31.7025297,168 30.0440956,168 C28.3856615,168 27.039686,166.656 27.039686,165 C27.039686,163.344 28.3856615,162 30.0440956,162 C31.7025297,162 33.0485052,163.344 33.0485052,165" id="Fill-1937" fill="#3AB0D5"></path>
                    <path d="M45.0661434,165 C45.0661434,166.656 43.7201679,168 42.0617338,168 C40.4032998,168 39.0573243,166.656 39.0573243,165 C39.0573243,163.344 40.4032998,162 42.0617338,162 C43.7201679,162 45.0661434,163.344 45.0661434,165" id="Fill-1938" fill="#3AB0D5"></path>
                    <path d="M57.0837816,165 C57.0837816,166.656 55.7378062,168 54.0793721,168 C52.420938,168 51.0749625,166.656 51.0749625,165 C51.0749625,163.344 52.420938,162 54.0793721,162 C55.7378062,162 57.0837816,163.344 57.0837816,165" id="Fill-1939" fill="#3AB0D5"></path>
                    <path d="M69.1014199,165 C69.1014199,166.656 67.7554444,168 66.0970103,168 C64.4385762,168 63.0926008,166.656 63.0926008,165 C63.0926008,163.344 64.4385762,162 66.0970103,162 C67.7554444,162 69.1014199,163.344 69.1014199,165" id="Fill-1940" fill="#3AB0D5"></path>
                    <path d="M63.0926008,33 L111.163154,33 L111.163154,45 L63.0926008,45 L63.0926008,33 L63.0926008,33 Z" id="Fill-1941" fill="#546E7A"></path>
                    <path d="M63.0926008,129 L111.163154,129 L111.163154,141 L63.0926008,141 L63.0926008,129 L63.0926008,129 Z" id="Fill-1942" fill="#546E7A"></path>
                    <path d="M129.189611,63 L141.207249,63 L141.207249,111 L129.189611,111 L129.189611,63 L129.189611,63 Z" id="Fill-1943" fill="#546E7A"></path>
                    <path d="M33.0485052,63 L45.0661434,63 L45.0661434,111 L33.0485052,111 L33.0485052,63 L33.0485052,63 Z" id="Fill-1944" fill="#546E7A"></path>
                    <g id="Raspberry_Pi_Logo" transform="translate(64.199488, 58.218045)">
                        <g id="Group">
                            <path d="M12.4016142,0.0531987102 C12.1070535,0.0623045912 11.7898186,0.170694734 11.4300269,0.45348617 C10.5486154,0.114909863 9.69406134,-0.00270776733 8.92984585,0.686573052 C7.74974737,0.534094944 7.36625606,0.848731022 7.07570768,1.21606317 C6.81665572,1.21071249 5.13717212,0.950799258 4.36701544,2.09519577 C2.43157256,1.86706232 1.81987462,3.22921521 2.51295866,4.49943373 C2.1176745,5.10900566 1.70809081,5.71120014 2.63249857,6.87327011 C2.30548921,7.52049947 2.50818944,8.2226138 3.27850075,9.07231768 C3.07520641,9.98217614 3.47481217,10.6240954 4.19157142,11.1243837 C4.05752038,12.3694703 5.33781328,13.0933522 5.7200838,13.3513197 C5.86687991,14.0767987 6.17282655,14.7613855 7.63518016,15.1399054 C7.87634346,16.2210666 8.75521569,16.4077729 9.60627016,16.6346903 C6.79340371,18.2634042 4.38120104,20.4063507 4.39755965,25.6643646 L3.98554251,26.396532 C0.760211299,28.3503401 -2.14161016,34.6300903 2.39607194,39.7343128 C2.69247199,41.3320577 3.18955388,42.479697 3.63216406,43.7498345 C4.29414233,48.8679201 8.61445843,51.2644563 9.75394524,51.5478801 C11.4237439,52.8148558 13.2021116,54.0170558 15.6086986,54.859139 C17.8773362,57.1898457 20.3351151,58.0781393 22.8063227,58.07668 C22.8425517,58.0766573 22.8794505,58.0770854 22.9156893,58.07668 C25.3868969,58.0782123 27.8445944,57.1899268 30.1133134,54.859139 C32.519819,54.0170558 34.2982681,52.8148558 35.9680668,51.5478801 C37.1075536,51.2644644 41.4278534,48.8679201 42.089848,43.7498345 C42.5324174,42.479697 43.0295319,41.3320577 43.3259401,39.7343128 C47.8635408,34.629685 44.9618007,28.3495294 41.7363881,26.3957213 L41.3237606,25.6636512 C41.3400923,20.4060426 38.9279165,18.2630961 36.1150501,16.6339768 C36.9661045,16.4071081 37.844993,16.2204018 38.0861401,15.139192 C39.5484855,14.7606072 39.8544973,14.0760285 40.0012364,13.3506063 C40.3835721,13.0926955 41.6637917,12.3687569 41.5297488,11.1236703 C42.2464918,10.6233333 42.646122,9.98138165 42.4428195,9.07160425 C43.2131308,8.22190038 43.4158717,7.51982658 43.0888217,6.87255669 C44.0133678,5.71097315 43.6031818,5.10877866 43.2084592,4.49920673 C43.901055,3.22898822 43.2898453,1.86683532 41.35367,2.09496877 C40.5837574,0.950572259 38.9047622,1.21048549 38.6451405,1.21583617 C38.3545921,0.848504024 37.9712636,0.533867946 36.7911651,0.686346053 C36.0269496,-0.00293476578 35.1723955,0.114682864 34.2909841,0.453267279 C33.2443588,-0.369439991 32.5517631,0.29004728 31.7606902,0.53939698 C30.4935086,0.126932674 30.203774,0.691891301 29.5811704,0.921954239 C28.1992344,0.631063822 27.7792821,1.26439763 27.1167992,1.93282702 L26.3461705,1.91762623 C24.261791,3.14122899 23.2263157,5.63278028 22.8592643,6.91361909 C22.4920421,5.63253707 21.4589351,3.14098578 19.3749626,1.91762623 L18.6043338,1.93282702 C17.9410371,1.26439763 17.5210848,0.631071929 16.1391488,0.921954239 C15.5165451,0.691891301 15.2276245,0.126932674 13.959629,0.53939698 C13.4404101,0.375755413 12.9628934,0.0355901155 12.4005968,0.0529717117 L12.4016142,0.0531987102 Z" id="Shape" fill="#000000"></path>
                            <path d="M8.25173685,5.4362888 C13.7817597,8.27628273 16.9966735,10.5736693 18.7578687,12.5303149 C17.8559479,16.1313212 13.1506919,16.2956518 11.4301897,16.1946375 C11.7824613,16.031304 12.0763872,15.8356719 12.1806102,15.5350692 C11.7488976,15.2294482 10.2181471,15.5028686 9.14946624,14.904808 C9.55998588,14.8200889 9.75200825,14.7375587 9.94403062,14.4357805 C8.93435464,14.1150074 7.84679216,13.83858 7.20717879,13.3071928 C7.55236166,13.3114409 7.87464249,13.3841129 8.32542383,13.0726791 C7.42106146,12.5872105 6.45606646,12.2024643 5.70633769,11.4604225 C6.17391712,11.4490215 6.67800636,11.4558177 6.82458273,11.2845393 C5.99688607,10.773736 5.29851193,10.205648 4.72042645,9.58432081 C5.37477071,9.66300172 5.65107653,9.59524754 5.80929111,9.4817175 C5.18361103,8.8433492 4.39170799,8.30432514 4.01415786,7.51769441 C4.50000033,7.68449774 4.94448239,7.74834917 5.26489947,7.5030368 C5.05228642,7.02524558 4.14136434,6.7434351 3.6169123,5.62689454 C4.12837512,5.67629751 4.67086232,5.73805082 4.77934999,5.62689454 C4.54194673,4.66344822 4.13460929,4.12181369 3.73508492,3.56064107 C4.82972799,3.54442689 6.48821397,3.56485676 6.4130946,3.47267917 L5.73624708,2.7837956 C6.80549768,2.49703169 7.89957105,2.82985683 8.69381802,3.07693978 C9.05044377,2.79662101 8.68750245,2.44215481 8.25239608,2.08025441 C9.1610719,2.20109866 9.98217628,2.40919139 10.7243361,2.69585801 C11.1208818,2.3392029 10.4668387,1.98253968 10.1504827,1.62588457 C11.5543116,1.89119712 12.1490812,2.26396913 12.7401885,2.63724377 C13.1690444,2.22777098 12.7647394,1.87977423 12.4753337,1.52332991 C13.5338413,1.91384832 14.0790468,2.41802812 14.653063,2.91572224 C14.8476735,2.65409841 15.1474754,2.46234146 14.7854945,1.83107496 C15.53703,2.26259092 16.1030541,2.77109179 16.5217856,3.34077685 C16.9867769,3.0458491 16.7988157,2.64251338 16.801355,2.2708034 C17.5823848,2.90368321 18.0780587,3.57717953 18.6847921,4.23482649 C18.8070096,4.14618359 18.9140242,3.84554846 19.0085054,3.37004344 C20.8718402,5.17078978 23.5047619,9.70638112 19.6853529,11.5046953 C16.434792,8.83422062 12.5526749,6.89314058 8.25060558,5.43702654 L8.25173685,5.4362888 Z" id="Shape" fill="#75A928"></path>
                            <path d="M37.5938681,5.4362888 C32.0644963,8.27652594 28.8497453,10.5732639 27.0885501,12.5303149 C27.9904709,16.1313212 32.6957269,16.2956518 34.4162291,16.1946375 C34.0639575,16.031304 33.7700316,15.8356719 33.6658086,15.5350692 C34.0975212,15.2294482 35.6282717,15.5028686 36.6969526,14.904808 C36.2864329,14.8200889 36.0944106,14.7375587 35.9023882,14.4357805 C36.9120642,14.1150074 37.9996266,13.83858 38.63924,13.3071928 C38.2940571,13.3114409 37.9717763,13.3841129 37.520995,13.0726791 C38.4253573,12.5872105 39.3903523,12.2024643 40.1400811,11.4604225 C39.6725017,11.4490215 39.1684124,11.4558177 39.0218361,11.2845393 C39.8495327,10.773736 40.5479069,10.205648 41.1259924,9.58432081 C40.4716481,9.66300172 40.1953423,9.59524754 40.0371277,9.4817175 C40.6628078,8.8433492 41.4547108,8.30432514 41.8322609,7.51769441 C41.3464185,7.68449774 40.9019364,7.74834917 40.5815193,7.5030368 C40.7941324,7.02524558 41.7050545,6.7434351 42.2295065,5.62689454 C41.7180437,5.67629751 41.1755565,5.73805082 41.0670688,5.62689454 C41.3049034,4.66304287 41.7122571,4.12140833 42.1117408,3.56023572 C41.0170977,3.54404343 39.3586118,3.56447978 39.4337311,3.47229003 L40.1105787,2.78340646 C39.041328,2.49664255 37.9472547,2.82946769 37.1530077,3.07655064 C36.796382,2.79623187 37.1593233,2.44176567 37.5944297,2.07986527 C36.6857538,2.20070952 35.8646495,2.40880225 35.1224896,2.69546887 C34.7259439,2.33881376 35.3799871,1.98215054 35.696343,1.62549543 C34.2925141,1.89080798 33.6977445,2.26357999 33.1066372,2.63685463 C32.6777813,2.22738184 33.0820863,1.87938509 33.371492,1.52294077 C32.3129844,1.91345918 31.7677789,2.41763898 31.1937627,2.9153331 C30.9991523,2.65370926 30.6993503,2.46195232 31.0613313,1.83068582 C30.3097957,2.26220178 29.7437717,2.77070265 29.3250402,3.34038771 C28.8600488,3.04545996 29.04801,2.64212424 29.0454708,2.27041426 C28.2644409,2.90329407 27.768767,3.57679039 27.1620336,4.23443735 C27.0398161,4.14579445 26.9328015,3.84515932 26.8383204,3.3696543 C24.9749856,5.17040064 22.3420638,9.70599198 26.1614729,11.5043062 C29.4103247,8.83326398 33.2921975,6.89234609 37.5945924,5.43623205 L37.5938681,5.4362888 Z" id="Shape" fill="#75A928"></path>
                            <path d="M29.6197507,42.1051133 C29.6322711,44.2865015 28.3725049,46.3071261 26.3179141,47.4011536 C24.2633233,48.495181 21.7283432,48.495181 19.6737524,47.4011536 C17.6191616,46.3071261 16.3593954,44.2865015 16.3719158,42.1051133 C16.3593954,39.9237252 17.6191616,37.9031006 19.6737524,36.8090731 C21.7283432,35.7150456 24.2633233,35.7150456 26.3179141,36.8090731 C28.3725049,37.9031006 29.6322711,39.9237252 29.6197507,42.1051133 L29.6197507,42.1051133 Z" id="Shape" fill="#BC1142"></path>
                            <path d="M19.1630272,24.7239177 C20.9339069,25.8896166 21.8336918,28.0770893 21.5234416,30.4623361 C21.2131914,32.8475829 19.7400406,35.0682279 17.6589107,36.2877758 C15.5777808,37.5073236 13.2048451,37.5404959 11.4339654,36.3747969 C9.66308568,35.209098 8.76330076,33.0216253 9.07355094,30.6363785 C9.38380112,28.2511317 10.856952,26.0304867 12.9380819,24.8109388 C15.0192118,23.591391 17.3921476,23.5582187 19.1630272,24.7239177 L19.1630272,24.7239177 L19.1630272,24.7239177 Z" id="Shape" fill="#BC1142"></path>
                            <path d="M26.5710967,24.3996342 C28.3419764,23.2339352 30.7149121,23.2671075 32.796042,24.4866553 C34.8771719,25.7062032 36.3503228,27.9268482 36.6605729,30.312095 C36.9708231,32.6973418 36.0710382,34.8848145 34.3001585,36.0505134 C32.5292789,37.2162124 30.1563431,37.1830401 28.0752132,35.9634923 C25.9940833,34.7439444 24.5209324,32.5232994 24.2106823,30.1380526 C23.9004321,27.7528058 24.800217,25.5653331 26.5710967,24.3996342 L26.5710967,24.3996342 L26.5710967,24.3996342 Z" id="Shape" fill="#BC1142"></path>
                            <path d="M5.44554406,27.6524658 C8.40881203,26.861214 6.44594203,39.8641721 4.03487876,38.7972794 C1.38274987,36.6724117 0.528521344,30.4494111 5.44554406,27.6524658 L5.44554406,27.6524658 Z" id="Shape" fill="#BC1142"></path>
                            <path d="M39.6903741,27.490324 C36.7267806,26.6993236 38.6899761,39.7028411 41.1010394,38.6359483 C43.7531683,36.5108374 44.6073968,30.2872693 39.6903741,27.490324 L39.6903741,27.490324 Z" id="Shape" fill="#BC1142"></path>
                            <path d="M29.6220994,17.8072184 C34.7359951,16.9470563 38.9912675,19.9735944 38.8195428,25.4974397 C38.6513258,27.6150921 27.7380112,18.122503 29.6220994,17.8072184 L29.6220994,17.8072184 Z" id="Shape" fill="#BC1142"></path>
                            <path d="M15.4926583,17.6450766 C10.3783557,16.7849146 6.12349029,19.8121012 6.29521497,25.3354601 C6.46344004,27.4530314 17.3767466,17.9604423 15.4926583,17.6450766 L15.4926583,17.6450766 Z" id="Shape" fill="#BC1142"></path>
                            <path d="M22.8385679,16.3568604 C19.7863449,16.2777773 16.8570963,18.6133872 16.8500157,19.9680815 C16.8415011,21.6141447 19.263195,23.2995271 22.8593213,23.3422515 C26.5317064,23.3684544 28.8750564,21.9932321 28.8868574,20.2944729 C28.9002731,18.3698503 25.5468532,16.3271073 22.8384865,16.3567793 L22.8385679,16.3568604 Z" id="Shape" fill="#BC1142"></path>
                            <path d="M23.024942,50.1115311 C25.6860234,49.9958349 29.2567572,50.9653696 29.2637564,52.251478 C29.3079247,53.5003749 26.0254034,56.3221279 22.8484156,56.2675672 C19.5582196,56.4089467 16.3319118,53.582824 16.3741512,52.6032446 C16.3249077,51.1669929 20.3804634,50.0456205 23.024942,50.1115311 L23.024942,50.1115311 Z" id="Shape" fill="#BC1142"></path>
                            <path d="M13.1959425,42.4892472 C15.0905296,44.762961 15.9541989,48.7575664 14.3731111,49.9351209 C12.8773159,50.8340348 9.24481006,50.4638327 6.66291737,46.769141 C4.92166173,43.6688285 5.14604321,40.5139552 6.36863337,39.587153 C8.19689076,38.4777791 11.021721,39.9762121 13.1960321,42.4892472 L13.1959425,42.4892472 Z" id="Shape" fill="#BC1142"></path>
                            <path d="M32.4746823,41.7685271 C30.4248106,44.1602801 29.2833705,48.5225419 30.7787587,49.9275002 C32.2085497,51.0190385 36.0467997,50.8664631 38.8820473,46.947659 C40.9407901,44.315693 40.2509615,39.9202732 39.0749975,38.7530147 C37.3281262,37.407076 34.8203762,39.1295808 32.474666,41.7678785 L32.4746823,41.7685271 Z" id="Shape" fill="#BC1142"></path>
                        </g>
                    </g>
                </g>
                <g id="w117-copy-3" transform="translate(243.040921, 37.880383) rotate(-90.000000) translate(-243.040921, -37.880383) translate(222.613811, -30.803828)">
                    <g id="w117">
                        <g id="Page-1">
                            <g id="w117">
                                <path d="M12.5063939,109.062201 C12.5063939,117.507445 6.94188235,132.69623 0,136.535885 C24.1790281,137.368421 35.8516624,134.870813 35.8516624,109.062201 L35.8516624,14.9856459 L12.5063939,14.9856459 L12.5063939,109.062201 Z" id="Fill-1090" fill="#3AB0D5"></path>
                                <path d="M38.859867,14.9856459 L9.49818926,14.9856459 C8.3976266,14.9856459 7.50383632,14.0931675 7.50383632,12.9942201 L7.50383632,1.99309091 C7.50383632,0.892478469 8.3976266,0 9.49818926,0 L38.859867,0 C39.9604297,0 40.8542199,0.892478469 40.8542199,1.99309091 L40.8542199,12.9942201 C40.8542199,14.0931675 39.9604297,14.9856459 38.859867,14.9856459" id="Fill-1094" fill="#000000"></path>
                                <path d="M32.516624,6.66028708 L15.8414322,6.66028708 C14.9192941,6.66028708 14.173913,5.916 14.173913,4.99521531 C14.173913,4.07443062 14.9192941,3.33014354 15.8414322,3.33014354 L32.516624,3.33014354 C33.4387621,3.33014354 34.1841432,4.07443062 34.1841432,4.99521531 C34.1841432,5.916 33.4387621,6.66028708 32.516624,6.66028708" id="Fill-1095" fill="#546A79"></path>
                                <path d="M32.516624,11.6555024 L15.8414322,11.6555024 C14.9192941,11.6555024 14.173913,10.9112153 14.173913,9.99043062 C14.173913,9.06964593 14.9192941,8.32535885 15.8414322,8.32535885 L32.516624,8.32535885 C33.4387621,8.32535885 34.1841432,9.06964593 34.1841432,9.99043062 C34.1841432,10.9112153 33.4387621,11.6555024 32.516624,11.6555024" id="Fill-1096" fill="#546A79"></path>
                                <path d="M28.3478261,93.2440191 C27.425688,93.2440191 26.6803069,93.9883062 26.6803069,94.9090909 L26.6803069,107.875005 C26.6803069,113.098335 24.8143529,118.163483 21.425954,122.136344 C20.8289821,122.83734 20.9140256,123.886335 21.6143836,124.484096 C21.9278772,124.750507 22.3130742,124.880383 22.6949361,124.880383 C23.166844,124.880383 23.6354169,124.682239 23.9655857,124.294278 C27.8675806,119.720325 30.0153453,113.887579 30.0153453,107.875005 L30.0153453,94.9090909 C30.0153453,93.9883062 29.2699642,93.2440191 28.3478261,93.2440191" id="Fill-1097" fill="#268892"></path>
                                <path d="M23.3452685,94.9090909 C23.3452685,93.9883062 22.5998875,93.2440191 21.6777494,93.2440191 C20.7556113,93.2440191 20.0102302,93.9883062 20.0102302,94.9090909 L20.0102302,107.875005 C20.0102302,113.101665 18.1442762,118.165148 14.7558772,122.136344 C14.1572379,122.83401 14.2406138,123.88467 14.9426394,124.482431 C15.256133,124.750507 15.6413299,124.880383 16.0231918,124.880383 C16.4950997,124.880383 16.9636726,124.682239 17.2921739,124.294278 C21.1958363,119.72199 23.3452685,113.890909 23.3452685,107.875005 L23.3452685,94.9090909" id="Fill-1098" fill="#268892"></path>
                            </g>
                        </g>
                    </g>
                </g>
                <path d="M295.150895,57.4449775 L295.150895,74.4763203 C295.150895,75.397105 295.896276,76.1413921 296.818414,76.1413921 C297.740552,76.1413921 298.485934,75.397105 298.485934,74.4763203 L298.485934,56.6124416 C298.485934,56.6124416 298.485934,54.947367 296.818414,54.9473684 C295.150895,54.9473698 295.150895,56.6124402 295.150895,56.6124402" id="Fill-1915-Copy" fill="#2A6166"></path>
                <path d="M268.851773,28.3062201 L235.120205,28.3062201 C234.198066,28.3062201 233.452685,29.0505072 233.452685,29.9712919 C233.452685,30.8920766 234.198066,31.6363636 235.120205,31.6363636 L269.685532,31.6363636 C269.685532,31.6363636 271.353054,31.6363636 271.353053,29.9712919 C271.353052,28.3062201 269.685534,28.3062201 269.685534,28.3062201" id="Fill-1915-Copy-4" fill="#268892"></path>
                <path d="M268.851773,34.9665072 L235.120205,34.9665072 C234.198066,34.9665072 233.452685,35.7107943 233.452685,36.6315789 C233.452685,37.5523636 234.198066,38.2966507 235.120205,38.2966507 L269.685532,38.2966507 C269.685532,38.2966507 271.353054,38.2966507 271.353053,36.6315789 C271.353052,34.9665072 269.685534,34.9665072 269.685534,34.9665072" id="Fill-1915-Copy-4" fill="#268892"></path>
                <path d="M252.176581,28.3062201 L218.445013,28.3062201 C217.522875,28.3062201 216.777494,29.0505072 216.777494,29.9712919 C216.777494,30.8920766 217.522875,31.6363636 218.445013,31.6363636 L253.010341,31.6363636 C253.010341,31.6363636 254.677863,31.6363636 254.677861,29.9712919 C254.67786,28.3062201 253.010342,28.3062201 253.010342,28.3062201" id="Fill-1915-Copy-4" fill="#268892"></path>
                <path d="M252.176581,34.9665072 L218.445013,34.9665072 C217.522875,34.9665072 216.777494,35.7107943 216.777494,36.6315789 C216.777494,37.5523636 217.522875,38.2966507 218.445013,38.2966507 L253.010341,38.2966507 C253.010341,38.2966507 254.677863,38.2966507 254.677861,36.6315789 C254.67786,34.9665072 253.010342,34.9665072 253.010342,34.9665072" id="Fill-1915-Copy-4" fill="#268892"></path>
                <g id="Group-Copy" transform="translate(282.193511, 107.469027)">
                    <path d="M11.3163137,22.8568996 C5.13401122,22.8568996 0.104642267,17.7302875 0.104642267,11.4284498 C0.104642267,5.1266121 5.13401122,0 11.3163137,0 C17.4986162,0 22.5279852,5.1266121 22.5279852,11.4284498 C22.5279852,17.7302875 17.4986162,22.8568996 11.3163137,22.8568996" id="Fill-1587" fill="#546E7A"></path>
                    <path d="M18.6861191,11.4284498 C18.6861191,15.6360241 15.3394352,19.0474163 11.2116715,19.0474163 C7.08390775,19.0474163 3.73722382,15.6360241 3.73722382,11.4284498 C3.73722382,7.22087553 7.08390775,3.80948327 11.2116715,3.80948327 C15.3394352,3.80948327 18.6861191,7.22087553 18.6861191,11.4284498" id="lens" fill="#2F4149"></path>
                    <path d="M13.3512321,14.5617498 C13.183057,14.7427002 13.0802834,14.9903166 13.0802834,15.2379331 C13.0802834,15.4855495 13.183057,15.7331659 13.3512321,15.9141163 C13.5287502,16.0855431 13.7716698,16.1903039 14.0145893,16.1903039 C14.2575089,16.1903039 14.5004284,16.0855431 14.6779465,15.9141163 C14.8461216,15.7331659 14.9488953,15.4855495 14.9488953,15.2379331 C14.9488953,14.9903166 14.8461216,14.7427002 14.6779465,14.5617498 C14.3322533,14.2093726 13.7062684,14.2093726 13.3512321,14.5617498" id="Fill-1606" fill="#FFFFFF"></path>
                    <path d="M8.67970232,6.94278325 C8.51152724,7.12373371 8.40875359,7.37135012 8.40875359,7.61896653 C8.40875359,7.86658294 8.51152724,8.11419936 8.67970232,8.29514981 C8.85722045,8.46657656 9.10014,8.57133735 9.34305954,8.57133735 C9.58597909,8.57133735 9.82889864,8.46657656 10.0064168,8.29514981 C10.1745918,8.11419936 10.2773655,7.86658294 10.2773655,7.61896653 C10.2773655,7.37135012 10.1745918,7.12373371 10.0064168,6.94278325 C9.66072357,6.59040605 9.03473858,6.59040605 8.67970232,6.94278325" id="Fill-1607" fill="#FFFFFF"></path>
                    <path d="M12.1459774,6.66659571 C11.6302405,6.66659571 11.2116715,7.09230547 11.2116715,7.61896653 C11.2116715,8.14562759 11.6302405,8.57133735 12.1459774,8.57133735 C13.1587651,8.57133735 14.0145893,9.87989485 14.0145893,11.4284498 C14.0145893,11.9551109 14.4331584,12.3808206 14.9488953,12.3808206 C15.4646322,12.3808206 15.8832012,11.9551109 15.8832012,11.4284498 C15.8832012,8.80276346 14.2070563,6.66659571 12.1459774,6.66659571" id="Fill-1608" fill="#FFFFFF"></path>
                </g>
                <path d="M322.664962,119.052632 C322.664962,119.971751 321.917913,120.717703 320.997442,120.717703 C320.076972,120.717703 319.329923,119.971751 319.329923,119.052632 C319.329923,118.133512 320.076972,117.38756 320.997442,117.38756 C321.917913,117.38756 322.664962,118.133512 322.664962,119.052632" id="Fill-732" fill="#3AB0D5"></path>
                <path d="M322.664962,114.057416 C322.664962,114.976536 321.917913,115.722488 320.997442,115.722488 C320.076972,115.722488 319.329923,114.976536 319.329923,114.057416 C319.329923,113.138297 320.076972,112.392344 320.997442,112.392344 C321.917913,112.392344 322.664962,113.138297 322.664962,114.057416" id="Fill-732" fill="#FFFFFF"></path>
                <path d="M322.664962,109.062201 C322.664962,109.981321 321.917913,110.727273 320.997442,110.727273 C320.076972,110.727273 319.329923,109.981321 319.329923,109.062201 C319.329923,108.143081 320.076972,107.397129 320.997442,107.397129 C321.917913,107.397129 322.664962,108.143081 322.664962,109.062201" id="Fill-732" fill="#3AB0D5"></path>
            </g>
        </g>
    </g>
</svg>
