<?xml version="1.0" encoding="UTF-8" standalone="no"?>
<svg
   xmlns:dc="http://purl.org/dc/elements/1.1/"
   xmlns:cc="http://creativecommons.org/ns#"
   xmlns:rdf="http://www.w3.org/1999/02/22-rdf-syntax-ns#"
   xmlns:svg="http://www.w3.org/2000/svg"
   xmlns="http://www.w3.org/2000/svg"
   xmlns:sodipodi="http://sodipodi.sourceforge.net/DTD/sodipodi-0.dtd"
   xmlns:inkscape="http://www.inkscape.org/namespaces/inkscape"
   width="334px"
   height="182px"
   viewBox="0 0 334 182"
   version="1.1"
   id="svg232"
   sodipodi:docname="case-raspberry.svg"
   inkscape:version="0.92.3 (2405546, 2018-03-11)">
  <metadata
     id="metadata236">
    <rdf:RDF>
      <cc:Work
         rdf:about="">
        <dc:format>image/svg+xml</dc:format>
        <dc:type
           rdf:resource="http://purl.org/dc/dcmitype/StillImage" />
      </cc:Work>
    </rdf:RDF>
  </metadata>
  <sodipodi:namedview
     pagecolor="#ffffff"
     bordercolor="#666666"
     borderopacity="1"
     objecttolerance="10"
     gridtolerance="10"
     guidetolerance="10"
     inkscape:pageopacity="0"
     inkscape:pageshadow="2"
     inkscape:window-width="1850"
     inkscape:window-height="1016"
     id="namedview234"
     showgrid="false"
     inkscape:zoom="1.2365269"
     inkscape:cx="167"
     inkscape:cy="91"
     inkscape:window-x="1990"
     inkscape:window-y="27"
     inkscape:window-maximized="1"
     inkscape:current-layer="svg232" />
  <!-- Generator: Sketch 3.4.4 (17249) - http://www.bohemiancoding.com/sketch -->
  <title
     id="title2">example-raspberry4</title>
  <desc
     id="desc4">Created with Sketch.</desc>
  <defs
     id="defs58">
    <filter
       x="-50%"
       y="-50%"
       width="200%"
       height="200%"
       filterUnits="objectBoundingBox"
       id="filter-1">
      <feOffset
         dx="0"
         dy="2"
         in="SourceAlpha"
         result="shadowOffsetOuter1"
         id="feOffset6" />
      <feGaussianBlur
         stdDeviation="2"
         in="shadowOffsetOuter1"
         result="shadowBlurOuter1"
         id="feGaussianBlur8" />
      <feColorMatrix
         values="0 0 0 0 0   0 0 0 0 0   0 0 0 0 0  0 0 0 0.35 0"
         in="shadowBlurOuter1"
         type="matrix"
         result="shadowMatrixOuter1"
         id="feColorMatrix10" />
      <feMerge
         id="feMerge16">
        <feMergeNode
           in="shadowMatrixOuter1"
           id="feMergeNode12" />
        <feMergeNode
           in="SourceGraphic"
           id="feMergeNode14" />
      </feMerge>
    </filter>
    <filter
       x="-50%"
       y="-50%"
       width="200%"
       height="200%"
       filterUnits="objectBoundingBox"
       id="filter-2">
      <feOffset
         dx="0"
         dy="2"
         in="SourceAlpha"
         result="shadowOffsetOuter1"
         id="feOffset19" />
      <feGaussianBlur
         stdDeviation="2"
         in="shadowOffsetOuter1"
         result="shadowBlurOuter1"
         id="feGaussianBlur21" />
      <feColorMatrix
         values="0 0 0 0 0   0 0 0 0 0   0 0 0 0 0  0 0 0 0.35 0"
         in="shadowBlurOuter1"
         type="matrix"
         result="shadowMatrixOuter1"
         id="feColorMatrix23" />
      <feMerge
         id="feMerge29">
        <feMergeNode
           in="shadowMatrixOuter1"
           id="feMergeNode25" />
        <feMergeNode
           in="SourceGraphic"
           id="feMergeNode27" />
      </feMerge>
    </filter>
    <filter
       x="-50%"
       y="-50%"
       width="200%"
       height="200%"
       filterUnits="objectBoundingBox"
       id="filter-3">
      <feOffset
         dx="0"
         dy="2"
         in="SourceAlpha"
         result="shadowOffsetOuter1"
         id="feOffset32" />
      <feGaussianBlur
         stdDeviation="2"
         in="shadowOffsetOuter1"
         result="shadowBlurOuter1"
         id="feGaussianBlur34" />
      <feColorMatrix
         values="0 0 0 0 0   0 0 0 0 0   0 0 0 0 0  0 0 0 0.35 0"
         in="shadowBlurOuter1"
         type="matrix"
         result="shadowMatrixOuter1"
         id="feColorMatrix36" />
      <feMerge
         id="feMerge42">
        <feMergeNode
           in="shadowMatrixOuter1"
           id="feMergeNode38" />
        <feMergeNode
           in="SourceGraphic"
           id="feMergeNode40" />
      </feMerge>
    </filter>
    <filter
       x="-50%"
       y="-50%"
       width="200%"
       height="200%"
       filterUnits="objectBoundingBox"
       id="filter-4">
      <feOffset
         dx="0"
         dy="2"
         in="SourceAlpha"
         result="shadowOffsetOuter1"
         id="feOffset45" />
      <feGaussianBlur
         stdDeviation="2"
         in="shadowOffsetOuter1"
         result="shadowBlurOuter1"
         id="feGaussianBlur47" />
      <feColorMatrix
         values="0 0 0 0 0   0 0 0 0 0   0 0 0 0 0  0 0 0 0.35 0"
         in="shadowBlurOuter1"
         type="matrix"
         result="shadowMatrixOuter1"
         id="feColorMatrix49" />
      <feMerge
         id="feMerge55">
        <feMergeNode
           in="shadowMatrixOuter1"
           id="feMergeNode51" />
        <feMergeNode
           in="SourceGraphic"
           id="feMergeNode53" />
      </feMerge>
    </filter>
  </defs>
  <path
     style="fill:#2f4149;fill-rule:evenodd;stroke:none;stroke-width:1;filter:url(#filter-1)"
     inkscape:connector-curvature="0"
     id="Fill-11"
     d="m 233.28389,102.73684 h 5.00255 c 0.92048,0 1.66752,0.74429 1.66752,1.66507 0,0.92079 -0.74704,1.66508 -1.66752,1.66508 h -5.00255 v 1.66507 h 5.00255 c 0.92048,0 1.66752,0.74428 1.66752,1.66507 0,0.92078 -0.74704,1.66507 -1.66752,1.66507 h -5.00255 v 1.66507 h 5.00255 c 0.92048,0 1.66752,0.74429 1.66752,1.66507 0,0.92079 -0.74704,1.66508 -1.66752,1.66508 h -5.00255 v 33.30143 h 5.00255 c 0.92048,0 1.66752,0.74429 1.66752,1.66507 0,0.92079 -0.74704,1.66507 -1.66752,1.66507 h -5.00255 v 1.66508 h 5.00255 c 0.92048,0 1.66752,0.74428 1.66752,1.66507 0,0.92078 -0.74704,1.66507 -1.66752,1.66507 h -5.00255 v 1.66507 h 5.00255 c 0.92048,0 1.66752,0.74429 1.66752,1.66507 0,0.92079 -0.74704,1.66508 -1.66752,1.66508 h -5.00255 v 1.66507 h 5.00255 c 0.92048,0 1.66752,0.74428 1.66752,1.66507 0,0.92078 -0.74704,1.66507 -1.66752,1.66507 h -5.00255 v 1.66507 h 5.00255 c 0.92048,0 1.66752,0.74429 1.66752,1.66507 0,0.92079 -0.74704,1.66508 -1.66752,1.66508 h -5.00255 V 176 H 330 V 96.076555 h -96.71611 z" />
  <path
     style="fill:#3ab0d5;fill-rule:evenodd;stroke:none;stroke-width:1"
     inkscape:connector-curvature="0"
     id="Fill-12"
     d="m 239.95396,151.02392 c 0,-0.92078 -0.74704,-1.66507 -1.66752,-1.66507 h -5.00255 v 3.33014 h 5.00255 c 0.92048,0 1.66752,-0.74428 1.66752,-1.66507" />
  <path
     style="fill:#3ab0d5;fill-rule:evenodd;stroke:none;stroke-width:1"
     inkscape:connector-curvature="0"
     id="Fill-13"
     d="m 239.95396,156.01914 c 0,-0.92079 -0.74704,-1.66507 -1.66752,-1.66507 h -5.00255 v 3.33014 h 5.00255 c 0.92048,0 1.66752,-0.74429 1.66752,-1.66507" />
  <path
     style="fill:#3ab0d5;fill-rule:evenodd;stroke:none;stroke-width:1"
     inkscape:connector-curvature="0"
     id="Fill-14"
     d="m 238.28644,159.34928 h -5.00255 v 3.33015 h 5.00255 c 0.92048,0 1.66752,-0.74429 1.66752,-1.66508 0,-0.92078 -0.74704,-1.66507 -1.66752,-1.66507 z" />
  <path
     style="fill:#3ab0d5;fill-rule:evenodd;stroke:none;stroke-width:1"
     inkscape:connector-curvature="0"
     id="Fill-15"
     d="m 239.95396,166.00957 c 0,-0.92079 -0.74704,-1.66507 -1.66752,-1.66507 h -5.00255 v 3.33014 h 5.00255 c 0.92048,0 1.66752,-0.74429 1.66752,-1.66507" />
  <path
     style="fill:#3ab0d5;fill-rule:evenodd;stroke:none;stroke-width:1"
     inkscape:connector-curvature="0"
     id="Fill-16"
     d="m 239.95396,171.00478 c 0,-0.92078 -0.74704,-1.66507 -1.66752,-1.66507 h -5.00255 v 3.33015 h 5.00255 c 0.92048,0 1.66752,-0.74429 1.66752,-1.66508" />
  <path
     style="fill:#3ab0d5;fill-rule:evenodd;stroke:none;stroke-width:1"
     inkscape:connector-curvature="0"
     id="Fill-17"
     d="m 239.95396,104.40191 c 0,-0.92078 -0.74704,-1.66507 -1.66752,-1.66507 h -5.00255 v 3.33015 h 5.00255 c 0.92048,0 1.66752,-0.74429 1.66752,-1.66508" />
  <path
     style="fill:#3ab0d5;fill-rule:evenodd;stroke:none;stroke-width:1"
     inkscape:connector-curvature="0"
     id="Fill-18"
     d="m 239.95396,109.39713 c 0,-0.92079 -0.74704,-1.66507 -1.66752,-1.66507 h -5.00255 v 3.33014 h 5.00255 c 0.92048,0 1.66752,-0.74429 1.66752,-1.66507" />
  <path
     style="fill:#3ab0d5;fill-rule:evenodd;stroke:none;stroke-width:1"
     inkscape:connector-curvature="0"
     id="Fill-19"
     d="m 239.95396,114.39234 c 0,-0.92078 -0.74704,-1.66507 -1.66752,-1.66507 h -5.00255 v 3.33015 h 5.00255 c 0.92048,0 1.66752,-0.74429 1.66752,-1.66508" />
  <path
     style="fill:#3ab0d5;fill-rule:evenodd;stroke:none;stroke-width:1"
     inkscape:connector-curvature="0"
     id="Fill-732"
     d="m 326.66496,126.04785 c 0,0.91912 -0.74705,1.66507 -1.66752,1.66507 -0.92047,0 -1.66752,-0.74595 -1.66752,-1.66507 0,-0.91912 0.74705,-1.66508 1.66752,-1.66508 0.92047,0 1.66752,0.74596 1.66752,1.66508" />
  <path
     style="fill:#e8edee;fill-rule:evenodd;stroke:none;stroke-width:1"
     inkscape:connector-curvature="0"
     id="Fill-740"
     d="m 264.96675,149.35885 c 0,0.91912 -0.74705,1.66507 -1.66752,1.66507 -0.92047,0 -1.66752,-0.74595 -1.66752,-1.66507 0,-0.91912 0.74705,-1.66507 1.66752,-1.66507 0.92047,0 1.66752,0.74595 1.66752,1.66507" />
  <path
     style="fill:#e8edee;fill-rule:evenodd;stroke:none;stroke-width:1"
     inkscape:connector-curvature="0"
     id="Fill-741"
     d="m 259.96419,149.35885 c 0,0.91912 -0.74704,1.66507 -1.66752,1.66507 -0.92047,0 -1.66751,-0.74595 -1.66751,-1.66507 0,-0.91912 0.74704,-1.66507 1.66751,-1.66507 0.92048,0 1.66752,0.74595 1.66752,1.66507" />
  <path
     style="fill:#3ab0d5;fill-rule:evenodd;stroke:none;stroke-width:1"
     inkscape:connector-curvature="0"
     id="Fill-742"
     d="m 254.96164,149.35885 c 0,0.91912 -0.74705,1.66507 -1.66752,1.66507 -0.92047,0 -1.66752,-0.74595 -1.66752,-1.66507 0,-0.91912 0.74705,-1.66507 1.66752,-1.66507 0.92047,0 1.66752,0.74595 1.66752,1.66507" />
  <path
     style="fill:#3ab0d5;fill-rule:evenodd;stroke:none;stroke-width:1"
     inkscape:connector-curvature="0"
     id="Fill-743"
     d="m 239.95396,129.37799 c 0,0.91912 -0.74704,1.66507 -1.66752,1.66507 -0.92047,0 -1.66751,-0.74595 -1.66751,-1.66507 0,-0.91912 0.74704,-1.66507 1.66751,-1.66507 0.92048,0 1.66752,0.74595 1.66752,1.66507" />
  <path
     style="fill:#3ab0d5;fill-rule:evenodd;stroke:none;stroke-width:1"
     inkscape:connector-curvature="0"
     id="Fill-744"
     d="m 239.95396,134.37321 c 0,0.91911 -0.74704,1.66507 -1.66752,1.66507 -0.92047,0 -1.66751,-0.74596 -1.66751,-1.66507 0,-0.91912 0.74704,-1.66508 1.66751,-1.66508 0.92048,0 1.66752,0.74596 1.66752,1.66508" />
  <path
     style="fill:#3ab0d5;fill-rule:evenodd;stroke:none;stroke-width:1"
     inkscape:connector-curvature="0"
     id="Fill-745"
     d="m 239.95396,139.36842 c 0,0.91912 -0.74704,1.66507 -1.66752,1.66507 -0.92047,0 -1.66751,-0.74595 -1.66751,-1.66507 0,-0.91912 0.74704,-1.66507 1.66751,-1.66507 0.92048,0 1.66752,0.74595 1.66752,1.66507" />
  <path
     style="fill:#28812f;fill-rule:evenodd;stroke:none;stroke-width:1"
     inkscape:connector-curvature="0"
     id="Fill-1051"
     d="m 314.00261,141.86603 h -33.87223 c -1.92832,0 -3.49099,-1.56038 -3.49099,-3.48587 v -33.82048 c 0,-1.92753 1.56267,-3.48791 3.49099,-3.48791 h 33.87223 c 1.92832,0 3.491,1.56038 3.491,3.48791 v 33.82048 c 0,1.92549 -1.56268,3.48587 -3.491,3.48587" />
  <path
     style="fill:#546a79;fill-rule:evenodd;stroke:none;stroke-width:1"
     inkscape:connector-curvature="0"
     id="Fill-1052"
     d="m 286.6445,91.08134 h 6.67008 v 4.995215 h -6.67008 z" />
  <path
     style="fill:#38454f;fill-rule:evenodd;stroke:none;stroke-width:1"
     inkscape:connector-curvature="0"
     id="Fill-1053"
     d="m 293.31458,91.08134 h 6.67007 v 4.995215 h -6.67007 z" />
  <path
     style="fill:#546a79;fill-rule:evenodd;stroke:none;stroke-width:1"
     inkscape:connector-curvature="0"
     id="Fill-1054"
     d="m 299.98465,91.08134 h 6.67008 v 4.995215 h -6.67008 z" />
  <path
     style="fill:#38454f;fill-rule:evenodd;stroke:none;stroke-width:1"
     inkscape:connector-curvature="0"
     id="Fill-1055"
     d="m 306.65473,91.08134 h 6.67008 v 4.995215 h -6.67008 z" />
  <path
     style="fill:#546a79;fill-rule:evenodd;stroke:none;stroke-width:1"
     inkscape:connector-curvature="0"
     id="Fill-1056"
     d="m 313.32481,91.08134 h 6.67007 v 4.995215 h -6.67007 z" />
  <path
     style="fill:#f88b1c;fill-rule:evenodd;stroke:none;stroke-width:1"
     inkscape:connector-curvature="0"
     id="Fill-1058"
     d="m 320.82864,154.35407 h -3.33503 c -0.92214,0 -1.66752,-0.74429 -1.66752,-1.66508 0,-0.92078 0.74538,-1.66507 1.66752,-1.66507 h 3.33503 c 0.92214,0 1.66752,0.74429 1.66752,1.66507 0,0.92079 -0.74538,1.66508 -1.66752,1.66508" />
  <path
     style="fill:#8f8f99;fill-rule:evenodd;stroke:none;stroke-width:1"
     inkscape:connector-curvature="0"
     id="Fill-1060"
     d="m 276.63939,151.02392 h -3.33504 c -0.92047,0 -1.66752,0.74429 -1.66752,1.66507 0,0.92079 0.74705,1.66508 1.66752,1.66508 h 3.33504 c 0.92047,0 1.66751,-0.74429 1.66751,-1.66508 0,-0.92078 -0.74704,-1.66507 -1.66751,-1.66507" />
  <path
     style="fill:#8f8f99;fill-rule:evenodd;stroke:none;stroke-width:1"
     inkscape:connector-curvature="0"
     id="Fill-1061"
     d="m 276.63939,157.68421 h -3.33504 c -0.92047,0 -1.66752,0.74429 -1.66752,1.66507 0,0.92079 0.74705,1.66507 1.66752,1.66507 h 3.33504 c 0.92047,0 1.66751,-0.74428 1.66751,-1.66507 0,-0.92078 -0.74704,-1.66507 -1.66751,-1.66507" />
  <path
     style="fill:#8f8f99;fill-rule:evenodd;stroke:none;stroke-width:1"
     inkscape:connector-curvature="0"
     id="Fill-1062"
     d="m 276.63939,164.3445 h -3.33504 c -0.92047,0 -1.66752,0.74428 -1.66752,1.66507 0,0.92078 0.74705,1.66507 1.66752,1.66507 h 3.33504 c 0.92047,0 1.66751,-0.74429 1.66751,-1.66507 0,-0.92079 -0.74704,-1.66507 -1.66751,-1.66507" />
  <path
     style="fill:#f88b1c;fill-rule:evenodd;stroke:none;stroke-width:1"
     inkscape:connector-curvature="0"
     id="Fill-1063"
     d="m 320.82864,161.01435 h -3.33503 c -0.92214,0 -1.66752,-0.74428 -1.66752,-1.66507 0,-0.92078 0.74538,-1.66507 1.66752,-1.66507 h 3.33503 c 0.92214,0 1.66752,0.74429 1.66752,1.66507 0,0.92079 -0.74538,1.66507 -1.66752,1.66507" />
  <path
     style="fill:#f88b1c;fill-rule:evenodd;stroke:none;stroke-width:1"
     inkscape:connector-curvature="0"
     id="Fill-1064"
     d="m 320.82864,167.67464 h -3.33503 c -0.92214,0 -1.66752,-0.74429 -1.66752,-1.66507 0,-0.92079 0.74538,-1.66507 1.66752,-1.66507 h 3.33503 c 0.92214,0 1.66752,0.74428 1.66752,1.66507 0,0.92078 -0.74538,1.66507 -1.66752,1.66507" />
  <path
     style="fill:#f88b1c;fill-rule:evenodd;stroke:none;stroke-width:1"
     inkscape:connector-curvature="0"
     id="Fill-1065"
     d="m 266.63427,161.01435 h -3.33504 c -0.92047,0 -1.66752,-0.74428 -1.66752,-1.66507 0,-0.92078 0.74705,-1.66507 1.66752,-1.66507 h 3.33504 c 0.92047,0 1.66752,0.74429 1.66752,1.66507 0,0.92079 -0.74705,1.66507 -1.66752,1.66507" />
  <path
     style="fill:#f88b1c;fill-rule:evenodd;stroke:none;stroke-width:1"
     inkscape:connector-curvature="0"
     id="Fill-1066"
     d="m 266.63427,166.00957 h -3.33504 c -0.92047,0 -1.66752,-0.74429 -1.66752,-1.66507 0,-0.92079 0.74705,-1.66507 1.66752,-1.66507 h 3.33504 c 0.92047,0 1.66752,0.74428 1.66752,1.66507 0,0.92078 -0.74705,1.66507 -1.66752,1.66507" />
  <path
     style="fill:#f88b1c;fill-rule:evenodd;stroke:none;stroke-width:1"
     inkscape:connector-curvature="0"
     id="Fill-1067"
     d="m 253.29412,161.01435 h -3.33504 c -0.92047,0 -1.66752,-0.74428 -1.66752,-1.66507 0,-0.92078 0.74705,-1.66507 1.66752,-1.66507 h 3.33504 c 0.92047,0 1.66752,0.74429 1.66752,1.66507 0,0.92079 -0.74705,1.66507 -1.66752,1.66507" />
  <path
     style="fill:#f88b1c;fill-rule:evenodd;stroke:none;stroke-width:1"
     inkscape:connector-curvature="0"
     id="Fill-1068"
     d="m 253.29412,166.00957 h -3.33504 c -0.92047,0 -1.66752,-0.74429 -1.66752,-1.66507 0,-0.92079 0.74705,-1.66507 1.66752,-1.66507 h 3.33504 c 0.92047,0 1.66752,0.74428 1.66752,1.66507 0,0.92078 -0.74705,1.66507 -1.66752,1.66507" />
  <path
     style="fill:#8f8f99;fill-rule:evenodd;stroke:none;stroke-width:1"
     inkscape:connector-curvature="0"
     id="Fill-1069"
     d="m 249.95908,129.37799 c -0.92047,0 -1.66752,-0.74429 -1.66752,-1.66507 v -3.33015 c 0,-0.92078 0.74705,-1.66507 1.66752,-1.66507 0.92047,0 1.66752,0.74429 1.66752,1.66507 v 3.33015 c 0,0.92078 -0.74705,1.66507 -1.66752,1.66507" />
  <path
     style="fill:#8f8f99;fill-rule:evenodd;stroke:none;stroke-width:1"
     inkscape:connector-curvature="0"
     id="Fill-1070"
     d="m 263.29923,139.36842 c -0.92047,0 -1.66752,-0.74429 -1.66752,-1.66507 v -3.33014 c 0,-0.92079 0.74705,-1.66508 1.66752,-1.66508 0.92047,0 1.66752,0.74429 1.66752,1.66508 v 3.33014 c 0,0.92078 -0.74705,1.66507 -1.66752,1.66507" />
  <path
     style="fill:#000000;fill-rule:evenodd;stroke:none;stroke-width:1"
     inkscape:connector-curvature="0"
     id="Fill-1071"
     d="m 244.95652,134.37321 h 8.3376 v 8.32535 h -8.3376 z" />
  <g
     style="fill:none;fill-rule:evenodd;stroke:none;stroke-width:1"
     id="g108"
     transform="translate(278.91706,103.3461)">
    <path
       style="fill:#000000"
       inkscape:connector-curvature="0"
       id="Fill-1719"
       d="M 4.2005396,4.1943745 H 32.098331 V 32.051221 H 4.2005396 Z" />
    <path
       style="fill:#e1c495"
       inkscape:connector-curvature="0"
       id="Fill-1720"
       d="M 6.9903188,0.01584753 H 12.569877 V 4.1943745 H 6.9903188 Z" />
    <path
       style="fill:#e1c495"
       inkscape:connector-curvature="0"
       id="Fill-1721"
       d="m 15.359656,0.01584753 h 5.579559 V 4.1943745 h -5.579559 z" />
    <path
       style="fill:#e1c495"
       inkscape:connector-curvature="0"
       id="Fill-1722"
       d="m 23.728994,0.01584753 h 5.579558 V 4.1943745 h -5.579558 z" />
    <path
       style="fill:#e1c495"
       inkscape:connector-curvature="0"
       id="Fill-1723"
       d="m 6.9903188,32.051221 h 5.5795582 v 4.178527 H 6.9903188 Z" />
    <path
       style="fill:#e1c495"
       inkscape:connector-curvature="0"
       id="Fill-1724"
       d="m 15.359656,32.051221 h 5.579559 v 4.178527 h -5.579559 z" />
    <path
       style="fill:#e1c495"
       inkscape:connector-curvature="0"
       id="Fill-1725"
       d="m 23.728994,32.051221 h 5.579558 v 4.178527 h -5.579558 z" />
    <path
       style="fill:#e1c495"
       inkscape:connector-curvature="0"
       id="Fill-1726"
       d="M 32.098331,6.9800591 H 36.283 v 5.5713689 h -4.184669 z" />
    <path
       style="fill:#e1c495"
       inkscape:connector-curvature="0"
       id="Fill-1727"
       d="M 32.098331,15.337113 H 36.283 v 5.571369 h -4.184669 z" />
    <path
       style="fill:#e1c495"
       inkscape:connector-curvature="0"
       id="Fill-1728"
       d="M 32.098331,23.694167 H 36.283 v 5.571369 h -4.184669 z" />
    <path
       style="fill:#e1c495"
       inkscape:connector-curvature="0"
       id="Fill-1729"
       d="M 0.01587082,6.9800591 H 4.2005396 V 12.551428 H 0.01587082 Z" />
    <path
       style="fill:#e1c495"
       inkscape:connector-curvature="0"
       id="Fill-1730"
       d="M 0.01587082,15.337113 H 4.2005396 v 5.571369 H 0.01587082 Z" />
    <path
       style="fill:#e1c495"
       inkscape:connector-curvature="0"
       id="Fill-1731"
       d="M 0.01587082,23.694167 H 4.2005396 v 5.571369 H 0.01587082 Z" />
  </g>
  <path
     style="fill:#546e7a;fill-rule:evenodd;stroke:none;stroke-width:1"
     inkscape:connector-curvature="0"
     id="Fill-1946"
     d="m 259.96419,96.076555 h 6.67008 v 38.296655 h -6.67008 z" />
  <path
     style="fill:#546e7a;fill-rule:evenodd;stroke:none;stroke-width:1"
     inkscape:connector-curvature="0"
     id="Fill-1947"
     d="m 246.62404,96.076555 h 6.67008 v 28.306215 h -6.67008 z" />
  <path
     style="fill:#000000;fill-rule:evenodd;stroke:none;stroke-width:1"
     inkscape:connector-curvature="0"
     id="Fill-1948"
     d="m 253.29412,156.01914 h 10.00511 v 11.6555 h -10.00511 z" />
  <path
     style="fill:#546e7a;fill-rule:evenodd;stroke:none;stroke-width:1"
     inkscape:connector-curvature="0"
     id="Fill-1949"
     d="m 317.49361,156.01914 v 6.66029 h -40.85422 v -6.66029 z" />
  <path
     style="fill:#bc1142;fill-rule:evenodd;stroke:none;stroke-width:1"
     inkscape:connector-curvature="0"
     id="Fill-1950"
     d="m 276.63939,149.35885 h 40.85422 v 6.66029 h -40.85422 z" />
  <path
     style="fill:#dd342e;fill-rule:evenodd;stroke:none;stroke-width:1"
     inkscape:connector-curvature="0"
     id="Fill-1951"
     d="m 276.63939,162.67943 h 3.33503 v 6.66028 h -3.33503 z" />
  <path
     style="fill:#bc1142;fill-rule:evenodd;stroke:none;stroke-width:1"
     inkscape:connector-curvature="0"
     id="Fill-1952"
     d="m 283.30946,162.67943 h 30.01535 v 6.66028 h -30.01535 z" />
  <path
     style="fill:#bc1142;fill-rule:evenodd;stroke:none;stroke-width:1"
     inkscape:connector-curvature="0"
     id="Fill-1953"
     d="m 314.35097,162.67943 h 3.14264 v 6.66028 h -3.14264 z" />
  <path
     style="fill:#000000;fill-rule:evenodd;stroke:none;stroke-width:1"
     inkscape:connector-curvature="0"
     id="Fill-1957"
     d="m 279.97442,154.35407 v 14.98564 h 3.33504 v -19.98086 h -3.33504 v 4.99522" />
  <path
     style="fill:#000000;fill-rule:evenodd;stroke:none;stroke-width:1"
     inkscape:connector-curvature="0"
     id="Fill-1958"
     d="m 310.82353,169.33971 h 3.33504 v -19.98086 h -3.33504 z" />
  <path
     style="fill:#cbd4d8;fill-rule:evenodd;stroke:none;stroke-width:1"
     inkscape:connector-curvature="0"
     id="Fill-1959"
     d="m 278.3069,92.746411 c 0,-0.920784 -0.74704,-1.665071 -1.66751,-1.665071 -0.92047,0 -1.66752,0.744287 -1.66752,1.665071 v 3.330144 h 3.33503 v -3.330144" />
  <path
     style="fill:#cbd4d8;fill-rule:evenodd;stroke:none;stroke-width:1"
     inkscape:connector-curvature="0"
     id="Fill-1960"
     d="m 283.30946,92.746411 c 0,-0.920784 -0.74705,-1.665071 -1.66752,-1.665071 -0.92047,0 -1.66752,0.744287 -1.66752,1.665071 v 3.330144 h 3.33504 v -3.330144" />
  <path
     style="fill:#cbd4d8;fill-rule:evenodd;stroke:none;stroke-width:1"
     inkscape:connector-curvature="0"
     id="Fill-1961"
     d="m 326.66496,92.746411 c 0,-0.920784 -0.74538,-1.665071 -1.66752,-1.665071 -0.92214,0 -1.66752,0.744287 -1.66752,1.665071 v 3.330144 h 3.33504 v -3.330144" />
  <path
     style="fill:#0097a7;fill-rule:evenodd;stroke:none;stroke-width:1;filter:url(#filter-2)"
     inkscape:connector-curvature="0"
     id="Fill-1089"
     d="m 314.99233,56.114832 c 0,-12.363157 -23.34527,-37.339234 -23.34527,-24.976076 v 50.784689 h 23.34527 z" />
  <path
     style="fill:#000000;fill-rule:evenodd;stroke:none;stroke-width:1;filter:url(#filter-3)"
     inkscape:connector-curvature="0"
     id="Fill-1091"
     d="m 318.00053,81.090909 c 1.10056,0 1.99435,0.892479 1.99435,1.991426 v 11.001129 c 0,1.100613 -0.89379,1.993091 -1.99435,1.993091 h -29.36001 c -1.10223,0 -1.99602,-0.892478 -1.99602,-1.993091 V 83.082335 c 0,-1.098947 0.89379,-1.991426 1.99602,-1.991426 z" />
  <path
     style="fill:#546a79;fill-rule:evenodd;stroke:none;stroke-width:1"
     inkscape:connector-curvature="0"
     id="Fill-1092"
     d="m 294.9821,89.416268 h 16.67519 c 0.92214,0 1.66752,0.744287 1.66752,1.665072 0,0.920784 -0.74538,1.665071 -1.66752,1.665071 H 294.9821 c -0.92214,0 -1.66752,-0.744287 -1.66752,-1.665071 0,-0.920785 0.74538,-1.665072 1.66752,-1.665072" />
  <path
     style="fill:#546a79;fill-rule:evenodd;stroke:none;stroke-width:1"
     inkscape:connector-curvature="0"
     id="Fill-1093"
     d="m 294.9821,84.421053 h 16.67519 c 0.92214,0 1.66752,0.744287 1.66752,1.665071 0,0.920785 -0.74538,1.665072 -1.66752,1.665072 H 294.9821 c -0.92214,0 -1.66752,-0.744287 -1.66752,-1.665072 0,-0.920784 0.74538,-1.665071 1.66752,-1.665071" />
  <path
     style="fill:#2a6166;fill-rule:evenodd;stroke:none;stroke-width:1"
     inkscape:connector-curvature="0"
     id="Fill-1915-Copy"
     d="M 304.98721,59.444977 V 76.47632 c 0,0.920785 0.74538,1.665072 1.66752,1.665072 0.92214,0 1.66752,-0.744287 1.66752,-1.665072 V 58.612442 c 0,0 0,-1.665075 -1.66752,-1.665074 -1.66752,2e-6 -1.66752,1.665072 -1.66752,1.665072" />
  <path
     d="m 166.23812,62 c 0,1.659 1.34597,3 3.00441,3 h 9.01322 v -6 h -9.01322 c -1.65844,0 -3.00441,1.341 -3.00441,3"
     id="Fill-40"
     inkscape:connector-curvature="0"
     style="fill:#3ab0d5;fill-rule:evenodd;stroke:none;stroke-width:1" />
  <path
     d="m 166.23812,71 c 0,1.659 1.34597,3 3.00441,3 h 9.01322 v -6 h -9.01322 c -1.65844,0 -3.00441,1.341 -3.00441,3"
     id="Fill-41"
     inkscape:connector-curvature="0"
     style="fill:#3ab0d5;fill-rule:evenodd;stroke:none;stroke-width:1" />
  <path
     d="m 166.23812,80 c 0,1.659 1.34597,3 3.00441,3 h 9.01322 v -6 h -9.01322 c -1.65844,0 -3.00441,1.341 -3.00441,3"
     id="Fill-42"
     inkscape:connector-curvature="0"
     style="fill:#3ab0d5;fill-rule:evenodd;stroke:none;stroke-width:1" />
  <path
     d="m 166.23812,89 c 0,1.659 1.34597,3 3.00441,3 h 9.01322 v -6 h -9.01322 c -1.65844,0 -3.00441,1.341 -3.00441,3"
     id="Fill-43"
     inkscape:connector-curvature="0"
     style="fill:#3ab0d5;fill-rule:evenodd;stroke:none;stroke-width:1" />
  <path
     d="m 166.23812,98 c 0,1.659 1.34597,3 3.00441,3 h 9.01322 v -6 h -9.01322 c -1.65844,0 -3.00441,1.341 -3.00441,3"
     id="Fill-44"
     inkscape:connector-curvature="0"
     style="fill:#3ab0d5;fill-rule:evenodd;stroke:none;stroke-width:1" />
  <path
     d="m 166.23812,107 c 0,1.659 1.34597,3 3.00441,3 h 9.01322 v -6 h -9.01322 c -1.65844,0 -3.00441,1.341 -3.00441,3"
     id="Fill-45"
     inkscape:connector-curvature="0"
     style="fill:#3ab0d5;fill-rule:evenodd;stroke:none;stroke-width:1" />
  <path
     d="m 166.23812,116 c 0,1.659 1.34597,3 3.00441,3 h 9.01322 v -6 h -9.01322 c -1.65844,0 -3.00441,1.341 -3.00441,3"
     id="Fill-46"
     inkscape:connector-curvature="0"
     style="fill:#3ab0d5;fill-rule:evenodd;stroke:none;stroke-width:1" />
  <path
     d="m 166.23812,125 c 0,1.659 1.34597,3 3.00441,3 h 9.01322 v -6 h -9.01322 c -1.65844,0 -3.00441,1.341 -3.00441,3"
     id="Fill-47"
     inkscape:connector-curvature="0"
     style="fill:#3ab0d5;fill-rule:evenodd;stroke:none;stroke-width:1" />
  <path
     d="M 178.25575,15.497 C 178.25575,8.042 172.20487,2 164.73892,2 h -22.53608 c 0,6.627 -5.3809,12 -12.01764,12 -6.63674,0 -12.01764,-5.373 -12.01764,-12 H 17.516839 C 10.050881,2 4,8.042 4,15.497 V 32 H 16.017638 V 44 H 4 V 162.503 C 4,169.958 10.050881,176 17.516839,176 H 118.16756 c 0,-6.627 5.3809,-12 12.01764,-12 6.63674,0 12.01764,5.373 12.01764,12 h 22.53608 c 7.46595,0 13.51683,-6.042 13.51683,-13.497 V 128 h -9.01322 c -1.65844,0 -3.00441,-1.341 -3.00441,-3 0,-1.659 1.34597,-3 3.00441,-3 h 9.01322 v -3 h -9.01322 c -1.65844,0 -3.00441,-1.341 -3.00441,-3 0,-1.659 1.34597,-3 3.00441,-3 h 9.01322 v -3 h -9.01322 c -1.65844,0 -3.00441,-1.341 -3.00441,-3 0,-1.659 1.34597,-3 3.00441,-3 h 9.01322 v -3 h -9.01322 c -1.65844,0 -3.00441,-1.341 -3.00441,-3 0,-1.659 1.34597,-3 3.00441,-3 h 9.01322 v -3 h -9.01322 c -1.65844,0 -3.00441,-1.341 -3.00441,-3 0,-1.659 1.34597,-3 3.00441,-3 h 9.01322 v -3 h -9.01322 c -1.65844,0 -3.00441,-1.341 -3.00441,-3 0,-1.659 1.34597,-3 3.00441,-3 h 9.01322 v -3 h -9.01322 c -1.65844,0 -3.00441,-1.341 -3.00441,-3 0,-1.659 1.34597,-3 3.00441,-3 h 9.01322 v -3 h -9.01322 c -1.65844,0 -3.00441,-1.341 -3.00441,-3 0,-1.659 1.34597,-3 3.00441,-3 h 9.01322 z M 16.017638,167 c -1.658434,0 -3.004409,-1.344 -3.004409,-3 0,-1.656 1.345975,-3 3.004409,-3 1.658434,0 3.00441,1.344 3.00441,3 0,1.656 -1.345976,3 -3.00441,3 z m 0,-150 c -1.658434,0 -3.004409,-1.344 -3.004409,-3 0,-1.656 1.345975,-3 3.004409,-3 1.658434,0 3.00441,1.344 3.00441,3 0,1.656 -1.345976,3 -3.00441,3 z M 169.24253,164 c 0,1.656 -1.34598,3 -3.00441,3 -1.65844,0 -3.00441,-1.344 -3.00441,-3 0,-1.656 1.34597,-3 3.00441,-3 1.65843,0 3.00441,1.344 3.00441,3 z M 163.23371,14 c 0,-1.656 1.34597,-3 3.00441,-3 1.65843,0 3.00441,1.344 3.00441,3 0,1.656 -1.34598,3 -3.00441,3 -1.65844,0 -3.00441,-1.344 -3.00441,-3 z"
     id="Fill-748"
     inkscape:connector-curvature="0"
     style="fill:#2f4149;fill-rule:evenodd;stroke:none;stroke-width:1;filter:url(#filter-4)" />
  <path
     d="m 49.201681,57.206338 c 0,-5.562 4.515627,-10.071 10.085803,-10.071 h 63.951866 c 5.57017,0 10.0858,4.509 10.0858,10.071 v 63.858002 c 0,5.562 -4.51563,10.071 -10.0858,10.071 H 59.287484 c -5.570176,0 -10.085803,-4.509 -10.085803,-10.071 z"
     id="Fill-1004"
     inkscape:connector-curvature="0"
     style="fill:#000000;fill-rule:evenodd;stroke:none;stroke-width:1" />
  <path
     d="m 37.048505,68 h -9.013229 c -1.658434,0 -3.004409,1.341 -3.004409,3 0,1.659 1.345975,3 3.004409,3 h 9.013229 c 1.658434,0 3.00441,-1.341 3.00441,-3 0,-1.659 -1.345976,-3 -3.00441,-3"
     id="Fill-1005"
     inkscape:connector-curvature="0"
     style="fill:#e1c495;fill-rule:evenodd;stroke:none;stroke-width:1" />
  <path
     d="m 37.048505,104 h -9.013229 c -1.658434,0 -3.004409,1.341 -3.004409,3 0,1.659 1.345975,3 3.004409,3 h 9.013229 c 1.658434,0 3.00441,-1.341 3.00441,-3 0,-1.659 -1.345976,-3 -3.00441,-3"
     id="Fill-1006"
     inkscape:connector-curvature="0"
     style="fill:#e1c495;fill-rule:evenodd;stroke:none;stroke-width:1" />
  <path
     d="m 37.048505,92 h -9.013229 c -1.658434,0 -3.004409,1.341 -3.004409,3 0,1.659 1.345975,3 3.004409,3 h 9.013229 c 1.658434,0 3.00441,-1.341 3.00441,-3 0,-1.659 -1.345976,-3 -3.00441,-3"
     id="Fill-1007"
     inkscape:connector-curvature="0"
     style="fill:#e1c495;fill-rule:evenodd;stroke:none;stroke-width:1" />
  <path
     d="m 37.048505,80 h -9.013229 c -1.658434,0 -3.004409,1.341 -3.004409,3 0,1.659 1.345975,3 3.004409,3 h 9.013229 c 1.658434,0 3.00441,-1.341 3.00441,-3 0,-1.659 -1.345976,-3 -3.00441,-3"
     id="Fill-1008"
     inkscape:connector-curvature="0"
     style="fill:#e1c495;fill-rule:evenodd;stroke:none;stroke-width:1" />
  <path
     d="m 145.20725,74 h 9.01323 c 1.65843,0 3.00441,-1.341 3.00441,-3 0,-1.659 -1.34598,-3 -3.00441,-3 h -9.01323 c -1.65844,0 -3.00441,1.341 -3.00441,3 0,1.659 1.34597,3 3.00441,3"
     id="Fill-1009"
     inkscape:connector-curvature="0"
     style="fill:#e1c495;fill-rule:evenodd;stroke:none;stroke-width:1" />
  <path
     d="m 154.22048,104 h -9.01323 c -1.65844,0 -3.00441,1.341 -3.00441,3 0,1.659 1.34597,3 3.00441,3 h 9.01323 c 1.65843,0 3.00441,-1.341 3.00441,-3 0,-1.659 -1.34598,-3 -3.00441,-3"
     id="Fill-1010"
     inkscape:connector-curvature="0"
     style="fill:#e1c495;fill-rule:evenodd;stroke:none;stroke-width:1" />
  <path
     d="m 154.22048,92 h -9.01323 c -1.65844,0 -3.00441,1.341 -3.00441,3 0,1.659 1.34597,3 3.00441,3 h 9.01323 c 1.65843,0 3.00441,-1.341 3.00441,-3 0,-1.659 -1.34598,-3 -3.00441,-3"
     id="Fill-1011"
     inkscape:connector-curvature="0"
     style="fill:#e1c495;fill-rule:evenodd;stroke:none;stroke-width:1" />
  <path
     d="m 154.22048,80 h -9.01323 c -1.65844,0 -3.00441,1.341 -3.00441,3 0,1.659 1.34597,3 3.00441,3 h 9.01323 c 1.65843,0 3.00441,-1.341 3.00441,-3 0,-1.659 -1.34598,-3 -3.00441,-3"
     id="Fill-1012"
     inkscape:connector-curvature="0"
     style="fill:#e1c495;fill-rule:evenodd;stroke:none;stroke-width:1" />
  <path
     d="m 109.15434,23 c -1.65844,0 -3.00442,1.341 -3.00442,3 v 9 c 0,1.659 1.34598,3 3.00442,3 1.65843,0 3.0044,-1.341 3.0044,-3 v -9 c 0,-1.659 -1.34597,-3 -3.0044,-3"
     id="Fill-1013"
     inkscape:connector-curvature="0"
     style="fill:#e1c495;fill-rule:evenodd;stroke:none;stroke-width:1" />
  <path
     d="m 73.10142,23 c -1.658434,0 -3.00441,1.341 -3.00441,3 v 9 c 0,1.659 1.345976,3 3.00441,3 1.658434,0 3.004409,-1.341 3.004409,-3 v -9 c 0,-1.659 -1.345975,-3 -3.004409,-3"
     id="Fill-1014"
     inkscape:connector-curvature="0"
     style="fill:#e1c495;fill-rule:evenodd;stroke:none;stroke-width:1" />
  <path
     d="m 85.119058,23 c -1.658434,0 -3.004409,1.341 -3.004409,3 v 9 c 0,1.659 1.345975,3 3.004409,3 1.658434,0 3.00441,-1.341 3.00441,-3 v -9 c 0,-1.659 -1.345976,-3 -3.00441,-3"
     id="Fill-1015"
     inkscape:connector-curvature="0"
     style="fill:#e1c495;fill-rule:evenodd;stroke:none;stroke-width:1" />
  <path
     d="m 97.136696,23 c -1.658434,0 -3.004409,1.341 -3.004409,3 v 9 c 0,1.659 1.345975,3 3.004409,3 1.658434,0 3.004414,-1.341 3.004414,-3 v -9 c 0,-1.659 -1.34598,-3 -3.004414,-3"
     id="Fill-1016"
     inkscape:connector-curvature="0"
     style="fill:#e1c495;fill-rule:evenodd;stroke:none;stroke-width:1" />
  <path
     d="m 109.15434,140 c -1.65844,0 -3.00442,1.341 -3.00442,3 v 9 c 0,1.659 1.34598,3 3.00442,3 1.65843,0 3.0044,-1.341 3.0044,-3 v -9 c 0,-1.659 -1.34597,-3 -3.0044,-3"
     id="Fill-1017"
     inkscape:connector-curvature="0"
     style="fill:#e1c495;fill-rule:evenodd;stroke:none;stroke-width:1" />
  <path
     d="m 73.10142,140 c -1.658434,0 -3.00441,1.341 -3.00441,3 v 9 c 0,1.659 1.345976,3 3.00441,3 1.658434,0 3.004409,-1.341 3.004409,-3 v -9 c 0,-1.659 -1.345975,-3 -3.004409,-3"
     id="Fill-1018"
     inkscape:connector-curvature="0"
     style="fill:#e1c495;fill-rule:evenodd;stroke:none;stroke-width:1" />
  <path
     d="m 85.119058,140 c -1.658434,0 -3.004409,1.341 -3.004409,3 v 9 c 0,1.659 1.345975,3 3.004409,3 1.658434,0 3.00441,-1.341 3.00441,-3 v -9 c 0,-1.659 -1.345976,-3 -3.00441,-3"
     id="Fill-1019"
     inkscape:connector-curvature="0"
     style="fill:#e1c495;fill-rule:evenodd;stroke:none;stroke-width:1" />
  <path
     d="m 97.136696,140 c -1.658434,0 -3.004409,1.341 -3.004409,3 v 9 c 0,1.659 1.345975,3 3.004409,3 1.658434,0 3.004414,-1.341 3.004414,-3 v -9 c 0,-1.659 -1.34598,-3 -3.004414,-3"
     id="Fill-1020"
     inkscape:connector-curvature="0"
     style="fill:#e1c495;fill-rule:evenodd;stroke:none;stroke-width:1" />
  <path
     d="m 13.013229,113 c -1.658434,0 -3.00441,-1.344 -3.00441,-3 0,-1.656 1.345976,-3 3.00441,-3 1.658434,0 3.004409,1.344 3.004409,3 0,1.656 -1.345975,3 -3.004409,3"
     id="Fill-1021"
     inkscape:connector-curvature="0"
     style="fill:#3ab0d5;fill-rule:evenodd;stroke:none;stroke-width:1" />
  <path
     d="m 13.013229,125 c -1.658434,0 -3.00441,-1.344 -3.00441,-3 0,-1.656 1.345976,-3 3.00441,-3 1.658434,0 3.004409,1.344 3.004409,3 0,1.656 -1.345975,3 -3.004409,3"
     id="Fill-1022"
     inkscape:connector-curvature="0"
     style="fill:#3ab0d5;fill-rule:evenodd;stroke:none;stroke-width:1" />
  <path
     d="m 13.013229,137 c -1.658434,0 -3.00441,-1.344 -3.00441,-3 0,-1.656 1.345976,-3 3.00441,-3 1.658434,0 3.004409,1.344 3.004409,3 0,1.656 -1.345975,3 -3.004409,3"
     id="Fill-1023"
     inkscape:connector-curvature="0"
     style="fill:#3ab0d5;fill-rule:evenodd;stroke:none;stroke-width:1" />
  <path
     d="m 13.013229,149 c -1.658434,0 -3.00441,-1.344 -3.00441,-3 0,-1.656 1.345976,-3 3.00441,-3 1.658434,0 3.004409,1.344 3.004409,3 0,1.656 -1.345975,3 -3.004409,3"
     id="Fill-1024"
     inkscape:connector-curvature="0"
     style="fill:#3ab0d5;fill-rule:evenodd;stroke:none;stroke-width:1" />
  <path
     d="m 37.048505,167 c 0,1.656 -1.345975,3 -3.004409,3 -1.658435,0 -3.00441,-1.344 -3.00441,-3 0,-1.656 1.345975,-3 3.00441,-3 1.658434,0 3.004409,1.344 3.004409,3"
     id="Fill-1937"
     inkscape:connector-curvature="0"
     style="fill:#3ab0d5;fill-rule:evenodd;stroke:none;stroke-width:1" />
  <path
     d="m 49.066143,167 c 0,1.656 -1.345975,3 -3.004409,3 -1.658434,0 -3.00441,-1.344 -3.00441,-3 0,-1.656 1.345976,-3 3.00441,-3 1.658434,0 3.004409,1.344 3.004409,3"
     id="Fill-1938"
     inkscape:connector-curvature="0"
     style="fill:#3ab0d5;fill-rule:evenodd;stroke:none;stroke-width:1" />
  <path
     d="m 61.083782,167 c 0,1.656 -1.345976,3 -3.00441,3 -1.658434,0 -3.00441,-1.344 -3.00441,-3 0,-1.656 1.345976,-3 3.00441,-3 1.658434,0 3.00441,1.344 3.00441,3"
     id="Fill-1939"
     inkscape:connector-curvature="0"
     style="fill:#3ab0d5;fill-rule:evenodd;stroke:none;stroke-width:1" />
  <path
     d="m 73.10142,167 c 0,1.656 -1.345976,3 -3.00441,3 -1.658434,0 -3.004409,-1.344 -3.004409,-3 0,-1.656 1.345975,-3 3.004409,-3 1.658434,0 3.00441,1.344 3.00441,3"
     id="Fill-1940"
     inkscape:connector-curvature="0"
     style="fill:#3ab0d5;fill-rule:evenodd;stroke:none;stroke-width:1" />
  <path
     d="M 67.092601,35 H 115.16315 V 47 H 67.092601 Z"
     id="Fill-1941"
     inkscape:connector-curvature="0"
     style="fill:#546e7a;fill-rule:evenodd;stroke:none;stroke-width:1" />
  <path
     d="m 67.092601,131 h 48.070549 v 12 H 67.092601 Z"
     id="Fill-1942"
     inkscape:connector-curvature="0"
     style="fill:#546e7a;fill-rule:evenodd;stroke:none;stroke-width:1" />
  <path
     d="m 133.18961,65 h 12.01764 v 48 h -12.01764 z"
     id="Fill-1943"
     inkscape:connector-curvature="0"
     style="fill:#546e7a;fill-rule:evenodd;stroke:none;stroke-width:1" />
  <path
     d="m 37.048505,65 h 12.017638 v 48 H 37.048505 Z"
     id="Fill-1944"
     inkscape:connector-curvature="0"
     style="fill:#546e7a;fill-rule:evenodd;stroke:none;stroke-width:1" />
  <g
     style="fill:none;fill-rule:evenodd;stroke:none;stroke-width:1"
     transform="rotate(-90,119.3321,-59.024609)"
     id="w117-copy-3">
    <g
       id="g204">
      <g
         id="Page-1">
        <g
           id="w117">
          <path
             style="fill:#3ab0d5"
             inkscape:connector-curvature="0"
             id="Fill-1090"
             d="m 12.506394,109.0622 c 0,8.44525 -5.5645117,23.63403 -12.506394,27.47368 24.179028,0.83254 35.851662,-1.66507 35.851662,-27.47368 V 14.985646 H 12.506394 Z" />
          <path
             style="fill:#000000"
             inkscape:connector-curvature="0"
             id="Fill-1094"
             d="M 38.859867,14.985646 H 9.4981893 c -1.1005627,0 -1.994353,-0.892478 -1.994353,-1.991426 V 1.9930909 C 7.5038363,0.89247847 8.3976266,0 9.4981893,0 H 38.859867 C 39.96043,0 40.85422,0.89247847 40.85422,1.9930909 V 12.99422 c 0,1.098948 -0.89379,1.991426 -1.994353,1.991426" />
          <path
             style="fill:#546a79"
             inkscape:connector-curvature="0"
             id="Fill-1095"
             d="M 32.516624,6.6602871 H 15.841432 c -0.922138,0 -1.667519,-0.7442871 -1.667519,-1.6650718 0,-0.9207847 0.745381,-1.6650718 1.667519,-1.6650718 h 16.675192 c 0.922138,0 1.667519,0.7442871 1.667519,1.6650718 0,0.9207847 -0.745381,1.6650718 -1.667519,1.6650718" />
          <path
             style="fill:#546a79"
             inkscape:connector-curvature="0"
             id="Fill-1096"
             d="M 32.516624,11.655502 H 15.841432 c -0.922138,0 -1.667519,-0.744287 -1.667519,-1.6650714 0,-0.9207847 0.745381,-1.6650717 1.667519,-1.6650717 h 16.675192 c 0.922138,0 1.667519,0.744287 1.667519,1.6650717 0,0.9207844 -0.745381,1.6650714 -1.667519,1.6650714" />
          <path
             style="fill:#268892"
             inkscape:connector-curvature="0"
             id="Fill-1097"
             d="m 28.347826,93.244019 c -0.922138,0 -1.667519,0.744287 -1.667519,1.665072 v 12.965919 c 0,5.22333 -1.865954,10.28847 -5.254353,14.26133 -0.596972,0.701 -0.511928,1.75 0.18843,2.34776 0.313493,0.26641 0.69869,0.39628 1.080552,0.39628 0.471908,0 0.940481,-0.19814 1.27065,-0.5861 3.901995,-4.57395 6.049759,-10.4067 6.049759,-16.41927 V 94.909091 c 0,-0.920785 -0.745381,-1.665072 -1.667519,-1.665072" />
          <path
             style="fill:#268892"
             inkscape:connector-curvature="0"
             id="Fill-1098"
             d="m 23.345268,94.909091 c 0,-0.920785 -0.745381,-1.665072 -1.667519,-1.665072 -0.922138,0 -1.667519,0.744287 -1.667519,1.665072 v 12.965919 c 0,5.22665 -1.865954,10.29014 -5.254353,14.26133 -0.598639,0.69767 -0.515263,1.74833 0.186762,2.34609 0.313494,0.26808 0.698691,0.39795 1.080553,0.39795 0.471908,0 0.940481,-0.19814 1.268982,-0.5861 3.903662,-4.57229 6.053094,-10.40337 6.053094,-16.41927 V 94.909091" />
        </g>
      </g>
    </g>
  </g>
  <path
     style="fill:#2a6166;fill-rule:evenodd;stroke:none;stroke-width:1"
     inkscape:connector-curvature="0"
     id="path207"
     d="M 299.15089,59.444977 V 76.47632 c 0,0.920785 0.74539,1.665072 1.66752,1.665072 0.92214,0 1.66752,-0.744287 1.66752,-1.665072 V 58.612442 c 0,0 0,-1.665075 -1.66752,-1.665074 -1.66752,2e-6 -1.66752,1.665072 -1.66752,1.665072" />
  <path
     style="fill:#268892;fill-rule:evenodd;stroke:none;stroke-width:1"
     inkscape:connector-curvature="0"
     id="Fill-1915-Copy-4"
     d="M 272.85177,30.30622 H 239.1202 c -0.92213,0 -1.66752,0.744287 -1.66752,1.665072 0,0.920785 0.74539,1.665072 1.66752,1.665072 h 34.56533 c 0,0 1.66752,0 1.66752,-1.665072 0,-1.665072 -1.66752,-1.665072 -1.66752,-1.665072" />
  <path
     style="fill:#268892;fill-rule:evenodd;stroke:none;stroke-width:1"
     inkscape:connector-curvature="0"
     id="path210"
     d="M 272.85177,36.966507 H 239.1202 c -0.92213,0 -1.66752,0.744287 -1.66752,1.665072 0,0.920785 0.74539,1.665072 1.66752,1.665072 h 34.56533 c 0,0 1.66752,0 1.66752,-1.665072 0,-1.665072 -1.66752,-1.665072 -1.66752,-1.665072" />
  <path
     style="fill:#268892;fill-rule:evenodd;stroke:none;stroke-width:1"
     inkscape:connector-curvature="0"
     id="path212"
     d="m 256.17658,30.30622 h -33.73157 c -0.92214,0 -1.66752,0.744287 -1.66752,1.665072 0,0.920785 0.74538,1.665072 1.66752,1.665072 h 34.56533 c 0,0 1.66752,0 1.66752,-1.665072 0,-1.665072 -1.66752,-1.665072 -1.66752,-1.665072" />
  <path
     style="fill:#268892;fill-rule:evenodd;stroke:none;stroke-width:1"
     inkscape:connector-curvature="0"
     id="path214"
     d="m 256.17658,36.966507 h -33.73157 c -0.92214,0 -1.66752,0.744287 -1.66752,1.665072 0,0.920785 0.74538,1.665072 1.66752,1.665072 h 34.56533 c 0,0 1.66752,0 1.66752,-1.665072 0,-1.665072 -1.66752,-1.665072 -1.66752,-1.665072" />
  <g
     style="fill:none;fill-rule:evenodd;stroke:none;stroke-width:1"
     transform="translate(286.19351,109.46903)"
     id="Group-Copy">
    <path
       style="fill:#546e7a"
       inkscape:connector-curvature="0"
       id="Fill-1587"
       d="M 11.316314,22.8569 C 5.1340112,22.8569 0.10464227,17.730287 0.10464227,11.42845 0.10464227,5.1266121 5.1340112,0 11.316314,0 c 6.182302,0 11.211671,5.1266121 11.211671,11.42845 0,6.301837 -5.029369,11.42845 -11.211671,11.42845" />
    <path
       style="fill:#2f4149"
       inkscape:connector-curvature="0"
       id="lens"
       d="m 18.686119,11.42845 c 0,4.207574 -3.346684,7.618966 -7.474447,7.618966 -4.1277643,0 -7.4744482,-3.411392 -7.4744482,-7.618966 0,-4.2075745 3.3466839,-7.6189667 7.4744482,-7.6189667 4.127763,0 7.474447,3.4113922 7.474447,7.6189667" />
    <path
       style="fill:#ffffff"
       inkscape:connector-curvature="0"
       id="Fill-1606"
       d="m 13.351232,14.56175 c -0.168175,0.18095 -0.270949,0.428567 -0.270949,0.676183 0,0.247616 0.102774,0.495233 0.270949,0.676183 0.177518,0.171427 0.420438,0.276188 0.663357,0.276188 0.24292,0 0.485839,-0.104761 0.663357,-0.276188 0.168176,-0.18095 0.270949,-0.428567 0.270949,-0.676183 0,-0.247616 -0.102773,-0.495233 -0.270949,-0.676183 -0.345693,-0.352377 -0.971678,-0.352377 -1.326714,0" />
    <path
       style="fill:#ffffff"
       inkscape:connector-curvature="0"
       id="Fill-1607"
       d="M 8.6797023,6.9427832 C 8.5115272,7.1237337 8.4087536,7.3713501 8.4087536,7.6189665 c 0,0.2476164 0.1027736,0.4952329 0.2709487,0.6761833 0.1775182,0.1714268 0.4204377,0.2761876 0.6633572,0.2761876 0.2429196,0 0.4858391,-0.1047608 0.6633575,-0.2761876 0.168175,-0.1809504 0.270949,-0.4285669 0.270949,-0.6761833 0,-0.2476164 -0.102774,-0.4952328 -0.270949,-0.6761833 -0.3456934,-0.3523771 -0.9716784,-0.3523771 -1.3267147,0" />
    <path
       style="fill:#ffffff"
       inkscape:connector-curvature="0"
       id="Fill-1608"
       d="m 12.145977,6.6665957 c -0.515737,0 -0.934305,0.4257098 -0.934305,0.9523708 0,0.5266611 0.418568,0.9523709 0.934305,0.9523709 1.012788,0 1.868612,1.3085575 1.868612,2.8571126 0,0.526661 0.418569,0.952371 0.934306,0.952371 0.515737,0 0.934306,-0.42571 0.934306,-0.952371 0,-2.6256865 -1.676145,-4.7618543 -3.737224,-4.7618543" />
  </g>
  <path
     style="fill:#3ab0d5;fill-rule:evenodd;stroke:none;stroke-width:1"
     inkscape:connector-curvature="0"
     id="path222"
     d="m 326.66496,121.05263 c 0,0.91912 -0.74705,1.66507 -1.66752,1.66507 -0.92047,0 -1.66752,-0.74595 -1.66752,-1.66507 0,-0.91912 0.74705,-1.66507 1.66752,-1.66507 0.92047,0 1.66752,0.74595 1.66752,1.66507" />
  <path
     style="fill:#ffffff;fill-rule:evenodd;stroke:none;stroke-width:1"
     inkscape:connector-curvature="0"
     id="path224"
     d="m 326.66496,116.05742 c 0,0.91912 -0.74705,1.66507 -1.66752,1.66507 -0.92047,0 -1.66752,-0.74595 -1.66752,-1.66507 0,-0.91912 0.74705,-1.66508 1.66752,-1.66508 0.92047,0 1.66752,0.74596 1.66752,1.66508" />
  <path
     style="fill:#3ab0d5;fill-rule:evenodd;stroke:none;stroke-width:1"
     inkscape:connector-curvature="0"
     id="path226"
     d="m 326.66496,111.0622 c 0,0.91912 -0.74705,1.66507 -1.66752,1.66507 -0.92047,0 -1.66752,-0.74595 -1.66752,-1.66507 0,-0.91912 0.74705,-1.66507 1.66752,-1.66507 0.92047,0 1.66752,0.74595 1.66752,1.66507" />
</svg>
