<?xml version="1.0" encoding="UTF-8" standalone="no"?>
<svg width="395px" height="217px" viewBox="0 0 395 217" version="1.1" xmlns="http://www.w3.org/2000/svg" xmlns:xlink="http://www.w3.org/1999/xlink" xmlns:sketch="http://www.bohemiancoding.com/sketch/ns">
    <!-- Generator: Sketch 3.4.4 (17249) - http://www.bohemiancoding.com/sketch -->
    <title>example-raspberry3</title>
    <desc>Created with Sketch.</desc>
    <defs>
        <filter x="-50%" y="-50%" width="200%" height="200%" filterUnits="objectBoundingBox" id="filter-1">
            <feOffset dx="0" dy="2" in="SourceAlpha" result="shadowOffsetOuter1"></feOffset>
            <feGaussianBlur stdDeviation="2" in="shadowOffsetOuter1" result="shadowBlurOuter1"></feGaussianBlur>
            <feColorMatrix values="0 0 0 0 0   0 0 0 0 0   0 0 0 0 0  0 0 0 0.35 0" in="shadowBlurOuter1" type="matrix" result="shadowMatrixOuter1"></feColorMatrix>
            <feMerge>
                <feMergeNode in="shadowMatrixOuter1"></feMergeNode>
                <feMergeNode in="SourceGraphic"></feMergeNode>
            </feMerge>
        </filter>
    </defs>
    <g id="animations" stroke="none" stroke-width="1" fill="none" fill-rule="evenodd" sketch:type="MSPage">
        <g id="example-raspberry3" sketch:type="MSLayerGroup" transform="translate(4.000000, 2.000000)">
            <g id="Group" sketch:type="MSShapeGroup">
                <path d="M275,121 L281,121 C282.104,121 283,121.894 283,123 C283,124.106 282.104,125 281,125 L275,125 L275,127 L281,127 C282.104,127 283,127.894 283,129 C283,130.106 282.104,131 281,131 L275,131 L275,133 L281,133 C282.104,133 283,133.894 283,135 C283,136.106 282.104,137 281,137 L275,137 L275,177 L281,177 C282.104,177 283,177.894 283,179 C283,180.106 282.104,181 281,181 L275,181 L275,183 L281,183 C282.104,183 283,183.894 283,185 C283,186.106 282.104,187 281,187 L275,187 L275,189 L281,189 C282.104,189 283,189.894 283,191 C283,192.106 282.104,193 281,193 L275,193 L275,195 L281,195 C282.104,195 283,195.894 283,197 C283,198.106 282.104,199 281,199 L275,199 L275,201 L281,201 C282.104,201 283,201.894 283,203 C283,204.106 282.104,205 281,205 L275,205 L275,209 L391,209 L391,113 L275,113 L275,121 Z" id="Fill-11" fill="#2F4149"></path>
                <path d="M283,179 C283,177.894 282.104,177 281,177 L275,177 L275,181 L281,181 C282.104,181 283,180.106 283,179" id="Fill-12" fill="#3AB0D5"></path>
                <path d="M283,185 C283,183.894 282.104,183 281,183 L275,183 L275,187 L281,187 C282.104,187 283,186.106 283,185" id="Fill-13" fill="#3AB0D5"></path>
                <path d="M281,189 L275,189 L275,193 L281,193 C282.104,193 283,192.106 283,191 C283,189.894 282.104,189 281,189 Z" id="Fill-14" fill="#3AB0D5"></path>
                <path d="M283,197 C283,195.894 282.104,195 281,195 L275,195 L275,199 L281,199 C282.104,199 283,198.106 283,197" id="Fill-15" fill="#3AB0D5"></path>
                <path d="M283,203 C283,201.894 282.104,201 281,201 L275,201 L275,205 L281,205 C282.104,205 283,204.106 283,203" id="Fill-16" fill="#3AB0D5"></path>
                <path d="M283,123 C283,121.894 282.104,121 281,121 L275,121 L275,125 L281,125 C282.104,125 283,124.106 283,123" id="Fill-17" fill="#3AB0D5"></path>
                <path d="M283,129 C283,127.894 282.104,127 281,127 L275,127 L275,131 L281,131 C282.104,131 283,130.106 283,129" id="Fill-18" fill="#3AB0D5"></path>
                <path d="M283,135 C283,133.894 282.104,133 281,133 L275,133 L275,137 L281,137 C282.104,137 283,136.106 283,135" id="Fill-19" fill="#3AB0D5"></path>
                <path d="M387,149 C387,150.104 386.104,151 385,151 C383.896,151 383,150.104 383,149 C383,147.896 383.896,147 385,147 C386.104,147 387,147.896 387,149" id="Fill-732" fill="#3AB0D5"></path>
                <path d="M313,177 C313,178.104 312.104,179 311,179 C309.896,179 309,178.104 309,177 C309,175.896 309.896,175 311,175 C312.104,175 313,175.896 313,177" id="Fill-740" fill="#E8EDEE"></path>
                <path d="M307,177 C307,178.104 306.104,179 305,179 C303.896,179 303,178.104 303,177 C303,175.896 303.896,175 305,175 C306.104,175 307,175.896 307,177" id="Fill-741" fill="#E8EDEE"></path>
                <path d="M301,177 C301,178.104 300.104,179 299,179 C297.896,179 297,178.104 297,177 C297,175.896 297.896,175 299,175 C300.104,175 301,175.896 301,177" id="Fill-742" fill="#3AB0D5"></path>
                <path d="M283,153 C283,154.104 282.104,155 281,155 C279.896,155 279,154.104 279,153 C279,151.896 279.896,151 281,151 C282.104,151 283,151.896 283,153" id="Fill-743" fill="#3AB0D5"></path>
                <path d="M283,159 C283,160.104 282.104,161 281,161 C279.896,161 279,160.104 279,159 C279,157.896 279.896,157 281,157 C282.104,157 283,157.896 283,159" id="Fill-744" fill="#3AB0D5"></path>
                <path d="M283,165 C283,166.104 282.104,167 281,167 C279.896,167 279,166.104 279,165 C279,163.896 279.896,163 281,163 C282.104,163 283,163.896 283,165" id="Fill-745" fill="#3AB0D5"></path>
                <path d="M371.81295,168 L331.18705,168 C328.87425,168 327,166.12575 327,163.81295 L327,123.1895 C327,120.87425 328.87425,119 331.18705,119 L371.81295,119 C374.12575,119 376,120.87425 376,123.1895 L376,163.81295 C376,166.12575 374.12575,168 371.81295,168" id="Fill-1051" fill="#28812F"></path>
                <path d="M339,107 L347,107 L347,113 L339,113 L339,107 L339,107 Z" id="Fill-1052" fill="#546A79"></path>
                <path d="M347,107 L355,107 L355,113 L347,113 L347,107 L347,107 Z" id="Fill-1053" fill="#38454F"></path>
                <path d="M355,107 L363,107 L363,113 L355,113 L355,107 L355,107 Z" id="Fill-1054" fill="#546A79"></path>
                <path d="M363,107 L371,107 L371,113 L363,113 L363,107 L363,107 Z" id="Fill-1055" fill="#38454F"></path>
                <path d="M371,107 L379,107 L379,113 L371,113 L371,107 L371,107 Z" id="Fill-1056" fill="#546A79"></path>
                <path d="M380,183 L376,183 C374.894,183 374,182.106 374,181 C374,179.894 374.894,179 376,179 L380,179 C381.106,179 382,179.894 382,181 C382,182.106 381.106,183 380,183" id="Fill-1058" fill="#F88B1C"></path>
                <path d="M327,179 L323,179 C321.896,179 321,179.894 321,181 C321,182.106 321.896,183 323,183 L327,183 C328.104,183 329,182.106 329,181 C329,179.894 328.104,179 327,179" id="Fill-1060" fill="#8F8F99"></path>
                <path d="M327,187 L323,187 C321.896,187 321,187.894 321,189 C321,190.106 321.896,191 323,191 L327,191 C328.104,191 329,190.106 329,189 C329,187.894 328.104,187 327,187" id="Fill-1061" fill="#8F8F99"></path>
                <path d="M327,195 L323,195 C321.896,195 321,195.894 321,197 C321,198.106 321.896,199 323,199 L327,199 C328.104,199 329,198.106 329,197 C329,195.894 328.104,195 327,195" id="Fill-1062" fill="#8F8F99"></path>
                <path d="M380,191 L376,191 C374.894,191 374,190.106 374,189 C374,187.894 374.894,187 376,187 L380,187 C381.106,187 382,187.894 382,189 C382,190.106 381.106,191 380,191" id="Fill-1063" fill="#F88B1C"></path>
                <path d="M380,199 L376,199 C374.894,199 374,198.106 374,197 C374,195.894 374.894,195 376,195 L380,195 C381.106,195 382,195.894 382,197 C382,198.106 381.106,199 380,199" id="Fill-1064" fill="#F88B1C"></path>
                <path d="M315,191 L311,191 C309.896,191 309,190.106 309,189 C309,187.894 309.896,187 311,187 L315,187 C316.104,187 317,187.894 317,189 C317,190.106 316.104,191 315,191" id="Fill-1065" fill="#F88B1C"></path>
                <path d="M315,197 L311,197 C309.896,197 309,196.106 309,195 C309,193.894 309.896,193 311,193 L315,193 C316.104,193 317,193.894 317,195 C317,196.106 316.104,197 315,197" id="Fill-1066" fill="#F88B1C"></path>
                <path d="M299,191 L295,191 C293.896,191 293,190.106 293,189 C293,187.894 293.896,187 295,187 L299,187 C300.104,187 301,187.894 301,189 C301,190.106 300.104,191 299,191" id="Fill-1067" fill="#F88B1C"></path>
                <path d="M299,197 L295,197 C293.896,197 293,196.106 293,195 C293,193.894 293.896,193 295,193 L299,193 C300.104,193 301,193.894 301,195 C301,196.106 300.104,197 299,197" id="Fill-1068" fill="#F88B1C"></path>
                <path d="M295,153 C293.896,153 293,152.106 293,151 L293,147 C293,145.894 293.896,145 295,145 C296.104,145 297,145.894 297,147 L297,151 C297,152.106 296.104,153 295,153" id="Fill-1069" fill="#8F8F99"></path>
                <path d="M311,165 C309.896,165 309,164.106 309,163 L309,159 C309,157.894 309.896,157 311,157 C312.104,157 313,157.894 313,159 L313,163 C313,164.106 312.104,165 311,165" id="Fill-1070" fill="#8F8F99"></path>
                <path d="M289,159 L299,159 L299,169 L289,169 L289,159 L289,159 Z" id="Fill-1071" fill="#000000"></path>
                <g transform="translate(329.731812, 121.731812)">
                    <path d="M5.03807051,5.03807051 L38.4983055,5.03807051 L38.4983055,38.4983055 L5.03807051,38.4983055 L5.03807051,5.03807051 L5.03807051,5.03807051 Z" id="Fill-1719" fill="#000000"></path>
                    <path d="M8.38409401,0.0190352528 L15.076141,0.0190352528 L15.076141,5.03807051 L8.38409401,5.03807051 L8.38409401,0.0190352528 L8.38409401,0.0190352528 Z" id="Fill-1720" fill="#E1C495"></path>
                    <path d="M18.4221645,0.0190352528 L25.1142115,0.0190352528 L25.1142115,5.03807051 L18.4221645,5.03807051 L18.4221645,0.0190352528 L18.4221645,0.0190352528 Z" id="Fill-1721" fill="#E1C495"></path>
                    <path d="M28.460235,0.0190352528 L35.152282,0.0190352528 L35.152282,5.03807051 L28.460235,5.03807051 L28.460235,0.0190352528 L28.460235,0.0190352528 Z" id="Fill-1722" fill="#E1C495"></path>
                    <path d="M8.38409401,38.4983055 L15.076141,38.4983055 L15.076141,43.5173408 L8.38409401,43.5173408 L8.38409401,38.4983055 L8.38409401,38.4983055 Z" id="Fill-1723" fill="#E1C495"></path>
                    <path d="M18.4221645,38.4983055 L25.1142115,38.4983055 L25.1142115,43.5173408 L18.4221645,43.5173408 L18.4221645,38.4983055 L18.4221645,38.4983055 Z" id="Fill-1724" fill="#E1C495"></path>
                    <path d="M28.460235,38.4983055 L35.152282,38.4983055 L35.152282,43.5173408 L28.460235,43.5173408 L28.460235,38.4983055 L28.460235,38.4983055 Z" id="Fill-1725" fill="#E1C495"></path>
                    <path d="M38.4983055,8.38409401 L43.5173408,8.38409401 L43.5173408,15.076141 L38.4983055,15.076141 L38.4983055,8.38409401 L38.4983055,8.38409401 Z" id="Fill-1726" fill="#E1C495"></path>
                    <path d="M38.4983055,18.4221645 L43.5173408,18.4221645 L43.5173408,25.1142115 L38.4983055,25.1142115 L38.4983055,18.4221645 L38.4983055,18.4221645 Z" id="Fill-1727" fill="#E1C495"></path>
                    <path d="M38.4983055,28.460235 L43.5173408,28.460235 L43.5173408,35.152282 L38.4983055,35.152282 L38.4983055,28.460235 L38.4983055,28.460235 Z" id="Fill-1728" fill="#E1C495"></path>
                    <path d="M0.0190352528,8.38409401 L5.03807051,8.38409401 L5.03807051,15.076141 L0.0190352528,15.076141 L0.0190352528,8.38409401 L0.0190352528,8.38409401 Z" id="Fill-1729" fill="#E1C495"></path>
                    <path d="M0.0190352528,18.4221645 L5.03807051,18.4221645 L5.03807051,25.1142115 L0.0190352528,25.1142115 L0.0190352528,18.4221645 L0.0190352528,18.4221645 Z" id="Fill-1730" fill="#E1C495"></path>
                    <path d="M0.0190352528,28.460235 L5.03807051,28.460235 L5.03807051,35.152282 L0.0190352528,35.152282 L0.0190352528,28.460235 L0.0190352528,28.460235 Z" id="Fill-1731" fill="#E1C495"></path>
                </g>
                <path d="M307,113 L315,113 L315,159 L307,159 L307,113 L307,113 Z" id="Fill-1946" fill="#546E7A"></path>
                <path d="M291,113 L299,113 L299,147 L291,147 L291,113 L291,113 Z" id="Fill-1947" fill="#546E7A"></path>
                <path d="M299,185 L311,185 L311,199 L299,199 L299,185 L299,185 Z" id="Fill-1948" fill="#000000"></path>
                <path d="M376,185 L376,193 L327,193 L327,185 L376,185 Z" id="Fill-1949" fill="#546E7A"></path>
                <path d="M327,177 L376,177 L376,185 L327,185 L327,177 L327,177 Z" id="Fill-1950" fill="#BC1142"></path>
                <path d="M327,193 L331,193 L331,201 L327,201 L327,193 L327,193 Z" id="Fill-1951" fill="#DD342E"></path>
                <path d="M335,193 L371,193 L371,201 L335,201 L335,193 L335,193 Z" id="Fill-1952" fill="#BC1142"></path>
                <path d="M372.230769,193 L376,193 L376,201 L372.230769,201 L372.230769,193 L372.230769,193 Z" id="Fill-1953" fill="#BC1142"></path>
                <path d="M331,183 L331,201 L335,201 L335,177 L331,177 L331,183" id="Fill-1957" fill="#000000"></path>
                <path d="M368,201 L372,201 L372,177 L368,177 L368,201 L368,201 Z" id="Fill-1958" fill="#000000"></path>
                <path d="M329,109 C329,107.894 328.104,107 327,107 C325.896,107 325,107.894 325,109 L325,113 L329,113 L329,109" id="Fill-1959" fill="#CBD4D8"></path>
                <path d="M335,109 C335,107.894 334.104,107 333,107 C331.896,107 331,107.894 331,109 L331,113 L335,113 L335,109" id="Fill-1960" fill="#CBD4D8"></path>
                <path d="M387,109 C387,107.894 386.106,107 385,107 C383.894,107 383,107.894 383,109 L383,113 L387,113 L387,109" id="Fill-1961" fill="#CBD4D8"></path>
                <path d="M345,61.9811987 C345,76.8311987 373,106.831199 373,91.9811987 L373,30.9811987 L345,30.9811987 L345,61.9811987 Z" id="Fill-1089" fill="#0097A7" transform="translate(359.000000, 63.490599) rotate(-180.000000) translate(-359.000000, -63.490599) "></path>
                <path d="M341.392,113 C340.072,113 339,111.928 339,110.608 L339,97.394 C339,96.072 340.072,95 341.392,95 L376.606,95 C377.928,95 379,96.072 379,97.394 L379,110.608 C379,111.928 377.928,113 376.606,113 L341.392,113 Z" id="Fill-1091" fill="#000000" transform="translate(359.000000, 104.000000) rotate(-180.000000) translate(-359.000000, -104.000000) "></path>
                <path d="M369,109 L349,109 C347.894,109 347,108.106 347,107 C347,105.894 347.894,105 349,105 L369,105 C370.106,105 371,105.894 371,107 C371,108.106 370.106,109 369,109" id="Fill-1092" fill="#546A79" transform="translate(359.000000, 107.000000) rotate(-180.000000) translate(-359.000000, -107.000000) "></path>
                <path d="M369,103 L349,103 C347.894,103 347,102.106 347,101 C347,99.894 347.894,99 349,99 L369,99 C370.106,99 371,99.894 371,101 C371,102.106 370.106,103 369,103" id="Fill-1093" fill="#546A79" transform="translate(359.000000, 101.000000) rotate(-180.000000) translate(-359.000000, -101.000000) "></path>
                <path d="M361,69.0000017 L361,89.4571893 C361,90.5631893 361.894,91.4571893 363,91.4571893 C364.106,91.4571893 365,90.5631893 365,89.4571893 L365,68.0000017 C365,68.0000017 365,65.9999983 363,66 C361,66.0000017 361,68 361,68" id="Fill-1915-Copy" fill="#2A6166"></path>
                <g id="example-raspberry">
                    <path d="M194.586207,72.0689655 C194.586207,74.0616724 196.200552,75.6724138 198.189655,75.6724138 L209,75.6724138 L209,68.4655172 L198.189655,68.4655172 C196.200552,68.4655172 194.586207,70.0762586 194.586207,72.0689655" id="Fill-40" fill="#3AB0D5"></path>
                    <path d="M194.586207,82.8793103 C194.586207,84.8720172 196.200552,86.4827586 198.189655,86.4827586 L209,86.4827586 L209,79.2758621 L198.189655,79.2758621 C196.200552,79.2758621 194.586207,80.8866034 194.586207,82.8793103" id="Fill-41" fill="#3AB0D5"></path>
                    <path d="M194.586207,93.6896552 C194.586207,95.6823621 196.200552,97.2931034 198.189655,97.2931034 L209,97.2931034 L209,90.0862069 L198.189655,90.0862069 C196.200552,90.0862069 194.586207,91.6969483 194.586207,93.6896552" id="Fill-42" fill="#3AB0D5"></path>
                    <path d="M194.586207,104.5 C194.586207,106.492707 196.200552,108.103448 198.189655,108.103448 L209,108.103448 L209,100.896552 L198.189655,100.896552 C196.200552,100.896552 194.586207,102.507293 194.586207,104.5" id="Fill-43" fill="#3AB0D5"></path>
                    <path d="M194.586207,115.310345 C194.586207,117.303052 196.200552,118.913793 198.189655,118.913793 L209,118.913793 L209,111.706897 L198.189655,111.706897 C196.200552,111.706897 194.586207,113.317638 194.586207,115.310345" id="Fill-44" fill="#3AB0D5"></path>
                    <path d="M194.586207,126.12069 C194.586207,128.113397 196.200552,129.724138 198.189655,129.724138 L209,129.724138 L209,122.517241 L198.189655,122.517241 C196.200552,122.517241 194.586207,124.127983 194.586207,126.12069" id="Fill-45" fill="#3AB0D5"></path>
                    <path d="M194.586207,136.931034 C194.586207,138.923741 196.200552,140.534483 198.189655,140.534483 L209,140.534483 L209,133.327586 L198.189655,133.327586 C196.200552,133.327586 194.586207,134.938328 194.586207,136.931034" id="Fill-46" fill="#3AB0D5"></path>
                    <path d="M194.586207,147.741379 C194.586207,149.734086 196.200552,151.344828 198.189655,151.344828 L209,151.344828 L209,144.137931 L198.189655,144.137931 C196.200552,144.137931 194.586207,145.748672 194.586207,147.741379" id="Fill-47" fill="#3AB0D5"></path>
                    <path d="M209,16.2119138 C209,7.25734483 201.742655,0 192.788086,0 L165.758621,0 C165.758621,7.96001724 159.304845,14.4137931 151.344828,14.4137931 C143.38481,14.4137931 136.931034,7.96001724 136.931034,0 L16.2119138,0 C7.25734483,0 0,7.25734483 0,16.2119138 L0,36.0344828 L14.4137931,36.0344828 L14.4137931,50.4482759 L0,50.4482759 L0,192.788086 C0,201.742655 7.25734483,209 16.2119138,209 L136.931034,209 C136.931034,201.039983 143.38481,194.586207 151.344828,194.586207 C159.304845,194.586207 165.758621,201.039983 165.758621,209 L192.788086,209 C201.742655,209 209,201.742655 209,192.788086 L209,151.344828 L198.189655,151.344828 C196.200552,151.344828 194.586207,149.734086 194.586207,147.741379 C194.586207,145.748672 196.200552,144.137931 198.189655,144.137931 L209,144.137931 L209,140.534483 L198.189655,140.534483 C196.200552,140.534483 194.586207,138.923741 194.586207,136.931034 C194.586207,134.938328 196.200552,133.327586 198.189655,133.327586 L209,133.327586 L209,129.724138 L198.189655,129.724138 C196.200552,129.724138 194.586207,128.113397 194.586207,126.12069 C194.586207,124.127983 196.200552,122.517241 198.189655,122.517241 L209,122.517241 L209,118.913793 L198.189655,118.913793 C196.200552,118.913793 194.586207,117.303052 194.586207,115.310345 C194.586207,113.317638 196.200552,111.706897 198.189655,111.706897 L209,111.706897 L209,108.103448 L198.189655,108.103448 C196.200552,108.103448 194.586207,106.492707 194.586207,104.5 C194.586207,102.507293 196.200552,100.896552 198.189655,100.896552 L209,100.896552 L209,97.2931034 L198.189655,97.2931034 C196.200552,97.2931034 194.586207,95.6823621 194.586207,93.6896552 C194.586207,91.6969483 196.200552,90.0862069 198.189655,90.0862069 L209,90.0862069 L209,86.4827586 L198.189655,86.4827586 C196.200552,86.4827586 194.586207,84.8720172 194.586207,82.8793103 C194.586207,80.8866034 196.200552,79.2758621 198.189655,79.2758621 L209,79.2758621 L209,75.6724138 L198.189655,75.6724138 C196.200552,75.6724138 194.586207,74.0616724 194.586207,72.0689655 C194.586207,70.0762586 196.200552,68.4655172 198.189655,68.4655172 L209,68.4655172 L209,16.2119138 Z M14.4137931,198.189655 C12.4246897,198.189655 10.8103448,196.57531 10.8103448,194.586207 C10.8103448,192.597103 12.4246897,190.982759 14.4137931,190.982759 C16.4028966,190.982759 18.0172414,192.597103 18.0172414,194.586207 C18.0172414,196.57531 16.4028966,198.189655 14.4137931,198.189655 L14.4137931,198.189655 L14.4137931,198.189655 Z M14.4137931,18.0172414 C12.4246897,18.0172414 10.8103448,16.4028966 10.8103448,14.4137931 C10.8103448,12.4246897 12.4246897,10.8103448 14.4137931,10.8103448 C16.4028966,10.8103448 18.0172414,12.4246897 18.0172414,14.4137931 C18.0172414,16.4028966 16.4028966,18.0172414 14.4137931,18.0172414 L14.4137931,18.0172414 L14.4137931,18.0172414 Z M198.189655,194.586207 C198.189655,196.57531 196.57531,198.189655 194.586207,198.189655 C192.597103,198.189655 190.982759,196.57531 190.982759,194.586207 C190.982759,192.597103 192.597103,190.982759 194.586207,190.982759 C196.57531,190.982759 198.189655,192.597103 198.189655,194.586207 L198.189655,194.586207 L198.189655,194.586207 Z M190.982759,14.4137931 C190.982759,12.4246897 192.597103,10.8103448 194.586207,10.8103448 C196.57531,10.8103448 198.189655,12.4246897 198.189655,14.4137931 C198.189655,16.4028966 196.57531,18.0172414 194.586207,18.0172414 C192.597103,18.0172414 190.982759,16.4028966 190.982759,14.4137931 L190.982759,14.4137931 L190.982759,14.4137931 Z" id="Fill-748" fill="#2F4149" filter="url(#filter-1)"></path>
                    <path d="M54.2142857,66.3110616 C54.2142857,59.6302685 59.6302685,54.2142857 66.3110616,54.2142857 L143.014062,54.2142857 C149.694855,54.2142857 155.110837,59.6302685 155.110837,66.3110616 L155.110837,143.014062 C155.110837,149.694855 149.694855,155.110837 143.014062,155.110837 L66.3110616,155.110837 C59.6302685,155.110837 54.2142857,149.694855 54.2142857,143.014062 L54.2142857,66.3110616 Z" id="Fill-1004" fill="#000000"></path>
                    <path d="M39.637931,79.2758621 L28.8275862,79.2758621 C26.8384828,79.2758621 25.2241379,80.8866034 25.2241379,82.8793103 C25.2241379,84.8720172 26.8384828,86.4827586 28.8275862,86.4827586 L39.637931,86.4827586 C41.6270345,86.4827586 43.2413793,84.8720172 43.2413793,82.8793103 C43.2413793,80.8866034 41.6270345,79.2758621 39.637931,79.2758621" id="Fill-1005" fill="#E1C495"></path>
                    <path d="M39.637931,122.517241 L28.8275862,122.517241 C26.8384828,122.517241 25.2241379,124.127983 25.2241379,126.12069 C25.2241379,128.113397 26.8384828,129.724138 28.8275862,129.724138 L39.637931,129.724138 C41.6270345,129.724138 43.2413793,128.113397 43.2413793,126.12069 C43.2413793,124.127983 41.6270345,122.517241 39.637931,122.517241" id="Fill-1006" fill="#E1C495"></path>
                    <path d="M39.637931,108.103448 L28.8275862,108.103448 C26.8384828,108.103448 25.2241379,109.71419 25.2241379,111.706897 C25.2241379,113.699603 26.8384828,115.310345 28.8275862,115.310345 L39.637931,115.310345 C41.6270345,115.310345 43.2413793,113.699603 43.2413793,111.706897 C43.2413793,109.71419 41.6270345,108.103448 39.637931,108.103448" id="Fill-1007" fill="#E1C495"></path>
                    <path d="M39.637931,93.6896552 L28.8275862,93.6896552 C26.8384828,93.6896552 25.2241379,95.3003966 25.2241379,97.2931034 C25.2241379,99.2858103 26.8384828,100.896552 28.8275862,100.896552 L39.637931,100.896552 C41.6270345,100.896552 43.2413793,99.2858103 43.2413793,97.2931034 C43.2413793,95.3003966 41.6270345,93.6896552 39.637931,93.6896552" id="Fill-1008" fill="#E1C495"></path>
                    <path d="M169.362069,86.4827586 L180.172414,86.4827586 C182.161517,86.4827586 183.775862,84.8720172 183.775862,82.8793103 C183.775862,80.8866034 182.161517,79.2758621 180.172414,79.2758621 L169.362069,79.2758621 C167.372966,79.2758621 165.758621,80.8866034 165.758621,82.8793103 C165.758621,84.8720172 167.372966,86.4827586 169.362069,86.4827586" id="Fill-1009" fill="#E1C495"></path>
                    <path d="M180.172414,122.517241 L169.362069,122.517241 C167.372966,122.517241 165.758621,124.127983 165.758621,126.12069 C165.758621,128.113397 167.372966,129.724138 169.362069,129.724138 L180.172414,129.724138 C182.161517,129.724138 183.775862,128.113397 183.775862,126.12069 C183.775862,124.127983 182.161517,122.517241 180.172414,122.517241" id="Fill-1010" fill="#E1C495"></path>
                    <path d="M180.172414,108.103448 L169.362069,108.103448 C167.372966,108.103448 165.758621,109.71419 165.758621,111.706897 C165.758621,113.699603 167.372966,115.310345 169.362069,115.310345 L180.172414,115.310345 C182.161517,115.310345 183.775862,113.699603 183.775862,111.706897 C183.775862,109.71419 182.161517,108.103448 180.172414,108.103448" id="Fill-1011" fill="#E1C495"></path>
                    <path d="M180.172414,93.6896552 L169.362069,93.6896552 C167.372966,93.6896552 165.758621,95.3003966 165.758621,97.2931034 C165.758621,99.2858103 167.372966,100.896552 169.362069,100.896552 L180.172414,100.896552 C182.161517,100.896552 183.775862,99.2858103 183.775862,97.2931034 C183.775862,95.3003966 182.161517,93.6896552 180.172414,93.6896552" id="Fill-1012" fill="#E1C495"></path>
                    <path d="M126.12069,25.2241379 C124.131586,25.2241379 122.517241,26.8348793 122.517241,28.8275862 L122.517241,39.637931 C122.517241,41.6306379 124.131586,43.2413793 126.12069,43.2413793 C128.109793,43.2413793 129.724138,41.6306379 129.724138,39.637931 L129.724138,28.8275862 C129.724138,26.8348793 128.109793,25.2241379 126.12069,25.2241379" id="Fill-1013" fill="#E1C495"></path>
                    <path d="M82.8793103,25.2241379 C80.8902069,25.2241379 79.2758621,26.8348793 79.2758621,28.8275862 L79.2758621,39.637931 C79.2758621,41.6306379 80.8902069,43.2413793 82.8793103,43.2413793 C84.8684138,43.2413793 86.4827586,41.6306379 86.4827586,39.637931 L86.4827586,28.8275862 C86.4827586,26.8348793 84.8684138,25.2241379 82.8793103,25.2241379" id="Fill-1014" fill="#E1C495"></path>
                    <path d="M97.2931034,25.2241379 C95.304,25.2241379 93.6896552,26.8348793 93.6896552,28.8275862 L93.6896552,39.637931 C93.6896552,41.6306379 95.304,43.2413793 97.2931034,43.2413793 C99.2822069,43.2413793 100.896552,41.6306379 100.896552,39.637931 L100.896552,28.8275862 C100.896552,26.8348793 99.2822069,25.2241379 97.2931034,25.2241379" id="Fill-1015" fill="#E1C495"></path>
                    <path d="M111.706897,25.2241379 C109.717793,25.2241379 108.103448,26.8348793 108.103448,28.8275862 L108.103448,39.637931 C108.103448,41.6306379 109.717793,43.2413793 111.706897,43.2413793 C113.696,43.2413793 115.310345,41.6306379 115.310345,39.637931 L115.310345,28.8275862 C115.310345,26.8348793 113.696,25.2241379 111.706897,25.2241379" id="Fill-1016" fill="#E1C495"></path>
                    <path d="M126.12069,165.758621 C124.131586,165.758621 122.517241,167.369362 122.517241,169.362069 L122.517241,180.172414 C122.517241,182.165121 124.131586,183.775862 126.12069,183.775862 C128.109793,183.775862 129.724138,182.165121 129.724138,180.172414 L129.724138,169.362069 C129.724138,167.369362 128.109793,165.758621 126.12069,165.758621" id="Fill-1017" fill="#E1C495"></path>
                    <path d="M82.8793103,165.758621 C80.8902069,165.758621 79.2758621,167.369362 79.2758621,169.362069 L79.2758621,180.172414 C79.2758621,182.165121 80.8902069,183.775862 82.8793103,183.775862 C84.8684138,183.775862 86.4827586,182.165121 86.4827586,180.172414 L86.4827586,169.362069 C86.4827586,167.369362 84.8684138,165.758621 82.8793103,165.758621" id="Fill-1018" fill="#E1C495"></path>
                    <path d="M97.2931034,165.758621 C95.304,165.758621 93.6896552,167.369362 93.6896552,169.362069 L93.6896552,180.172414 C93.6896552,182.165121 95.304,183.775862 97.2931034,183.775862 C99.2822069,183.775862 100.896552,182.165121 100.896552,180.172414 L100.896552,169.362069 C100.896552,167.369362 99.2822069,165.758621 97.2931034,165.758621" id="Fill-1019" fill="#E1C495"></path>
                    <path d="M111.706897,165.758621 C109.717793,165.758621 108.103448,167.369362 108.103448,169.362069 L108.103448,180.172414 C108.103448,182.165121 109.717793,183.775862 111.706897,183.775862 C113.696,183.775862 115.310345,182.165121 115.310345,180.172414 L115.310345,169.362069 C115.310345,167.369362 113.696,165.758621 111.706897,165.758621" id="Fill-1020" fill="#E1C495"></path>
                    <path d="M10.8103448,133.327586 C8.82124138,133.327586 7.20689655,131.713241 7.20689655,129.724138 C7.20689655,127.735034 8.82124138,126.12069 10.8103448,126.12069 C12.7994483,126.12069 14.4137931,127.735034 14.4137931,129.724138 C14.4137931,131.713241 12.7994483,133.327586 10.8103448,133.327586" id="Fill-1021" fill="#3AB0D5"></path>
                    <path d="M10.8103448,147.741379 C8.82124138,147.741379 7.20689655,146.127034 7.20689655,144.137931 C7.20689655,142.148828 8.82124138,140.534483 10.8103448,140.534483 C12.7994483,140.534483 14.4137931,142.148828 14.4137931,144.137931 C14.4137931,146.127034 12.7994483,147.741379 10.8103448,147.741379" id="Fill-1022" fill="#3AB0D5"></path>
                    <path d="M10.8103448,162.155172 C8.82124138,162.155172 7.20689655,160.540828 7.20689655,158.551724 C7.20689655,156.562621 8.82124138,154.948276 10.8103448,154.948276 C12.7994483,154.948276 14.4137931,156.562621 14.4137931,158.551724 C14.4137931,160.540828 12.7994483,162.155172 10.8103448,162.155172" id="Fill-1023" fill="#3AB0D5"></path>
                    <path d="M10.8103448,176.568966 C8.82124138,176.568966 7.20689655,174.954621 7.20689655,172.965517 C7.20689655,170.976414 8.82124138,169.362069 10.8103448,169.362069 C12.7994483,169.362069 14.4137931,170.976414 14.4137931,172.965517 C14.4137931,174.954621 12.7994483,176.568966 10.8103448,176.568966" id="Fill-1024" fill="#3AB0D5"></path>
                    <path d="M39.637931,198.189655 C39.637931,200.178759 38.0235862,201.793103 36.0344828,201.793103 C34.0453793,201.793103 32.4310345,200.178759 32.4310345,198.189655 C32.4310345,196.200552 34.0453793,194.586207 36.0344828,194.586207 C38.0235862,194.586207 39.637931,196.200552 39.637931,198.189655" id="Fill-1937" fill="#3AB0D5"></path>
                    <path d="M54.0517241,198.189655 C54.0517241,200.178759 52.4373793,201.793103 50.4482759,201.793103 C48.4591724,201.793103 46.8448276,200.178759 46.8448276,198.189655 C46.8448276,196.200552 48.4591724,194.586207 50.4482759,194.586207 C52.4373793,194.586207 54.0517241,196.200552 54.0517241,198.189655" id="Fill-1938" fill="#3AB0D5"></path>
                    <path d="M68.4655172,198.189655 C68.4655172,200.178759 66.8511724,201.793103 64.862069,201.793103 C62.8729655,201.793103 61.2586207,200.178759 61.2586207,198.189655 C61.2586207,196.200552 62.8729655,194.586207 64.862069,194.586207 C66.8511724,194.586207 68.4655172,196.200552 68.4655172,198.189655" id="Fill-1939" fill="#3AB0D5"></path>
                    <path d="M82.8793103,198.189655 C82.8793103,200.178759 81.2649655,201.793103 79.2758621,201.793103 C77.2867586,201.793103 75.6724138,200.178759 75.6724138,198.189655 C75.6724138,196.200552 77.2867586,194.586207 79.2758621,194.586207 C81.2649655,194.586207 82.8793103,196.200552 82.8793103,198.189655" id="Fill-1940" fill="#3AB0D5"></path>
                    <path d="M75.6724138,39.637931 L133.327586,39.637931 L133.327586,54.0517241 L75.6724138,54.0517241 L75.6724138,39.637931 L75.6724138,39.637931 Z" id="Fill-1941" fill="#546E7A"></path>
                    <path d="M75.6724138,154.948276 L133.327586,154.948276 L133.327586,169.362069 L75.6724138,169.362069 L75.6724138,154.948276 L75.6724138,154.948276 Z" id="Fill-1942" fill="#546E7A"></path>
                    <path d="M154.948276,75.6724138 L169.362069,75.6724138 L169.362069,133.327586 L154.948276,133.327586 L154.948276,75.6724138 L154.948276,75.6724138 Z" id="Fill-1943" fill="#546E7A"></path>
                    <path d="M39.637931,75.6724138 L54.0517241,75.6724138 L54.0517241,133.327586 L39.637931,133.327586 L39.637931,75.6724138 L39.637931,75.6724138 Z" id="Fill-1944" fill="#546E7A"></path>
                    <g id="Raspberry_Pi_Logo" transform="translate(77.000000, 69.928571)">
                        <g id="Group">
                            <path d="M14.8743287,0.0638996001 C14.5210365,0.0748371239 14.1405493,0.205029881 13.70902,0.544704653 C12.651867,0.138023915 11.6269263,-0.00325243317 10.7103366,0.824676827 C9.2949424,0.641527836 8.8349881,1.01945278 8.48650829,1.46067358 C8.17580487,1.45424661 6.16145491,1.14205198 5.23773938,2.5166432 C2.91639531,2.24262083 2.18273306,3.87877 3.0140087,5.40449224 C2.53991022,6.13667922 2.04866106,6.86000477 3.15738325,8.25582444 C2.76517264,9.03324361 3.00828856,9.87658785 3.93218955,10.8972092 C3.68836106,11.9900851 4.16764281,12.761126 5.02731419,13.3620471 C4.86653518,14.8575821 6.40210121,15.7270724 6.86059131,16.03693 C7.03665658,16.9083386 7.40360484,17.7306297 9.15753203,18.1852887 C9.44678003,19.4839249 10.5008875,19.7081869 11.5216308,19.9807486 C8.14791672,21.9370774 5.2547534,24.5110764 5.27437369,30.8267368 L4.78020589,31.7061792 C0.911787171,34.0529947 -2.56861832,41.5959131 2.87381635,47.726847 C3.22931456,49.6459773 3.82550787,51.0244637 4.35636854,52.5500885 C5.15033635,58.6976741 10.3320652,61.5762722 11.6987503,61.9167065 C13.7014842,63.4385337 15.8344345,64.8825556 18.7208625,65.8940233 C21.4418358,68.6935503 24.3896626,69.7605237 27.3535956,69.7587709 C27.3970482,69.7587436 27.4413042,69.7592577 27.4847685,69.7587709 C30.4487015,69.7606113 33.3964307,68.6936477 36.1175016,65.8940233 C39.003832,64.8825556 41.1368799,63.4385337 43.1396138,61.9167065 C44.5062989,61.576282 49.6880082,58.6976741 50.4819956,52.5500885 C51.0128074,51.0244637 51.6090398,49.6459773 51.9645477,47.726847 C57.4068848,41.5954262 53.9265769,34.052021 50.0580606,31.7052054 L49.5631607,30.8258799 C49.5827488,24.5107064 46.6896177,21.9367074 43.3159036,19.9798917 C44.3366469,19.7073884 45.3907739,19.4831264 45.6800023,18.1844317 C47.4339198,17.7296948 47.8009461,16.9074135 47.9769431,16.036073 C48.4355113,15.7262837 49.9709894,14.8567252 49.8102202,13.3611902 C50.669872,12.7602107 51.1491831,11.9891308 50.9053448,10.8963522 C51.8292458,9.87573092 52.0724105,9.03243537 51.6801511,8.25496751 C52.7890393,6.85973211 52.2970678,6.13640656 51.8236428,5.40421958 C52.6543328,3.87849734 51.9212562,2.24234817 49.5990336,2.51637054 C48.6756109,1.14177932 46.6618467,1.45397396 46.3504599,1.46040092 C46.0019801,1.01918012 45.542221,0.641255177 44.1268269,0.824404168 C43.2102371,-0.00352509224 42.1852965,0.137751256 41.1281435,0.544441732 C39.8728352,-0.443752633 39.0421453,0.348390124 38.0933431,0.647896372 C36.5735026,0.152465108 36.2259989,0.831064839 35.4792565,1.1074048 C33.8217811,0.758001947 33.318096,1.51873048 32.523523,2.32161406 L31.5992413,2.30335564 C29.0992647,3.7730854 27.8573295,6.7658108 27.4170931,8.30428959 C26.9766517,6.76551867 25.7375571,3.77279326 23.2380686,2.30335564 L22.3137869,2.32161406 C21.5182378,1.51873048 21.0145527,0.758011685 19.3570773,1.1074048 C18.6103348,0.831064839 18.2638073,0.152465108 16.7429906,0.647896372 C16.1202465,0.451338398 15.5475194,0.0427490467 14.8731085,0.0636269411 L14.8743287,0.0638996001 Z" id="Shape" fill="#000000"></path>
                            <path d="M9.8970218,6.52979516 C16.5296566,9.94105224 20.3855808,12.7005568 22.4979346,15.0507806 C21.416183,19.3761272 15.7727623,19.5735128 13.7092152,19.4521796 C14.131725,19.2559916 14.4842558,19.0210082 14.6092595,18.6599394 C14.0914693,18.2928429 12.2555078,18.6212618 10.9737463,17.9029015 C11.466118,17.8011413 11.6964271,17.7020102 11.9267361,17.3395295 C10.7157444,16.954233 9.41133661,16.6222024 8.64419297,15.983927 C9.05820064,15.9890296 9.44473991,16.0763195 9.98540097,15.702241 C8.90072096,15.1191206 7.74331897,14.656983 6.84410441,13.7656799 C7.40491286,13.7519856 8.00951069,13.7601489 8.18531241,13.5544178 C7.19258421,12.9408668 6.3549637,12.2585082 5.66161578,11.5122014 C6.44642745,11.606709 6.77782491,11.5253261 6.96758535,11.3889595 C6.21715311,10.6221838 5.26735529,9.97473537 4.81452676,9.02987432 C5.39723967,9.23023005 5.93034544,9.30692515 6.31464937,9.01226834 C6.05964414,8.43836969 4.96709649,8.09987319 4.33807579,6.75874114 C4.95151739,6.81808149 5.60216922,6.89225644 5.73228787,6.75874114 C5.44754961,5.60149815 4.95899458,4.95091414 4.47981044,4.27686198 C5.79271056,4.25738633 7.78187626,4.28192564 7.6917791,4.17120659 L6.87997733,3.34375448 C8.16242207,2.99930817 9.4746389,3.3990809 10.427248,3.69586445 C10.8549801,3.35915972 10.4196732,2.93339284 9.89781247,2.49869639 C10.987666,2.64384839 11.9724875,2.89379885 12.862624,3.2381283 C13.3382355,2.80973222 12.553785,2.3813264 12.174352,1.95293031 C13.8580854,2.27161034 14.5714441,2.71936521 15.2804101,3.16772384 C15.7947741,2.67588583 15.3098562,2.25788974 14.9627469,1.82974684 C16.2323066,2.29881782 16.8862188,2.90441308 17.574686,3.50221809 C17.8080992,3.18796877 18.1676776,2.95764003 17.7335225,2.19939463 C18.6349041,2.71770978 19.3137857,3.32849531 19.8160066,4.01277219 C20.373711,3.6585199 20.1482728,3.17405342 20.1513184,2.7275742 C21.0880751,3.48775742 21.6825797,4.29672714 22.4102875,5.08665941 C22.5568735,4.98018604 22.6852254,4.61907832 22.7985448,4.04792574 C25.0334034,6.21089117 28.1912942,11.6588141 23.6103465,13.8188582 C19.7116677,10.611219 15.0555089,8.27969185 9.89566498,6.53068131 L9.8970218,6.52979516 Z" id="Shape" fill="#75A928"></path>
                            <path d="M45.089578,6.52979516 C38.4577241,9.94134437 34.6019952,12.7000699 32.4896414,15.0507806 C33.571393,19.3761272 39.2148136,19.5735128 41.2783607,19.4521796 C40.8558509,19.2559916 40.5033201,19.0210082 40.3783164,18.6599394 C40.8961067,18.2928429 42.7320682,18.6212618 44.0138296,17.9029015 C43.5214579,17.8011413 43.2911489,17.7020102 43.0608398,17.3395295 C44.2718316,16.954233 45.5762393,16.6222024 46.343383,15.983927 C45.9293753,15.9890296 45.542836,16.0763195 45.002175,15.702241 C46.086855,15.1191206 47.244257,14.656983 48.1434715,13.7656799 C47.5826631,13.7519856 46.9780652,13.7601489 46.8022635,13.5544178 C47.7949917,12.9408668 48.6326122,12.2585082 49.3259602,11.5122014 C48.5411485,11.606709 48.209751,11.5253261 48.0199906,11.3889595 C48.7704228,10.6221838 49.7202206,9.97473537 50.1730492,9.02987432 C49.5903363,9.23023005 49.0572305,9.30692515 48.6729266,9.01226834 C48.9279318,8.43836969 50.0204794,8.09987319 50.6495001,6.75874114 C50.0360585,6.81808149 49.3854067,6.89225644 49.2552881,6.75874114 C49.5405437,5.60101126 50.0291182,4.95042725 50.5082536,4.27637508 C49.1953534,4.25692573 47.2061877,4.28147283 47.2962849,4.17073917 L48.1080867,3.34328706 C46.8256419,2.99884076 45.5134251,3.39861348 44.560816,3.69539704 C44.1330839,3.3586923 44.5683908,2.93292543 45.0902515,2.49822897 C44.000398,2.64338097 43.0155765,2.89333144 42.12544,3.23766089 C41.6498285,2.8092648 42.434279,2.38085898 42.813712,1.9524629 C41.1299786,2.27114292 40.4166199,2.7188978 39.7076539,3.16725642 C39.1932899,2.67541842 39.6782078,2.25742233 40.0253171,1.82927942 C38.7557573,2.2983504 38.1018452,2.90394567 37.413378,3.50175067 C37.1799648,3.18750136 36.8203864,2.95717261 37.2545415,2.19892722 C36.3531599,2.71724237 35.6742783,3.32802789 35.1720574,4.01230478 C34.614353,3.65805248 34.8397911,3.17358601 34.8367456,2.72710678 C33.8999889,3.48729 33.3054843,4.29625972 32.5777765,5.08619199 C32.4311905,4.97971863 32.3028386,4.6186109 32.1895192,4.04745832 C29.9546606,6.21042376 26.7967698,11.6583467 31.3777175,13.8183908 C35.2743464,10.61007 39.9302124,8.27873754 45.0904467,6.529727 L45.089578,6.52979516 Z" id="Shape" fill="#75A928"></path>
                            <path d="M35.5255293,50.5745327 C35.540546,53.1947058 34.0295995,55.6217779 31.565351,56.9358684 C29.1011025,58.2499588 26.0606816,58.2499588 23.5964331,56.9358684 C21.1321846,55.6217779 19.6212381,53.1947058 19.6362548,50.5745327 C19.6212381,47.9543596 21.1321846,45.5272875 23.5964331,44.213197 C26.0606816,42.8991065 29.1011025,42.8991065 31.565351,44.213197 C34.0295995,45.5272875 35.540546,47.9543596 35.5255293,50.5745327 L35.5255293,50.5745327 Z" id="Shape" fill="#BC1142"></path>
                            <path d="M22.9838762,29.6971196 C25.1078454,31.0972981 26.1870353,33.7247797 25.8149254,36.5898175 C25.4428155,39.4548553 23.6759382,42.1221818 21.1798591,43.587041 C18.68378,45.0519002 15.8377129,45.091745 13.7137438,43.6915664 C11.5897745,42.2913879 10.5105847,39.6639062 10.8826945,36.7988684 C11.2548044,33.9338306 13.0216817,31.2665041 15.5177608,29.8016449 C18.0138399,28.3367857 20.859907,28.2969409 22.9838762,29.6971196 L22.9838762,29.6971196 L22.9838762,29.6971196 Z" id="Shape" fill="#BC1142"></path>
                            <path d="M31.8690148,29.3076066 C33.9929839,27.9074279 36.839051,27.9472728 39.3351301,29.412132 C41.8312092,30.8769911 43.5980865,33.5443177 43.9701964,36.4093555 C44.3423063,39.2743933 43.2631164,41.9018749 41.1391472,43.3020534 C39.015178,44.7022321 36.1691109,44.6623873 33.6730318,43.1975281 C31.1769527,41.7326689 29.4100754,39.0653423 29.0379655,36.2003045 C28.6658557,33.3352667 29.7450455,30.7077851 31.8690148,29.3076066 L31.8690148,29.3076066 L31.8690148,29.3076066 Z" id="Shape" fill="#BC1142"></path>
                            <path d="M6.53131205,33.2147434 C10.0854157,32.2643318 7.73117587,47.8828275 4.83937913,46.6013298 C1.65845153,44.0490462 0.633901367,36.5742926 6.53131205,33.2147434 L6.53131205,33.2147434 Z" id="Shape" fill="#BC1142"></path>
                            <path d="M47.604099,33.0199869 C44.0496049,32.0698772 46.4042351,47.6890448 49.2960319,46.4075471 C52.4769595,43.8549714 53.5015096,36.3795361 47.604099,33.0199869 L47.604099,33.0199869 Z" id="Shape" fill="#BC1142"></path>
                            <path d="M35.5283463,21.3891301 C41.6618837,20.355947 46.7655999,23.9912714 46.5596357,30.6262351 C46.3578785,33.169852 33.2685962,21.7678341 35.5283463,21.3891301 L35.5283463,21.3891301 Z" id="Shape" fill="#BC1142"></path>
                            <path d="M18.5816853,21.1943736 C12.4476597,20.1611905 7.34443161,23.7972939 7.55039586,30.4316733 C7.75216274,32.9751929 20.8414353,21.573175 18.5816853,21.1943736 L18.5816853,21.1943736 Z" id="Shape" fill="#BC1142"></path>
                            <path d="M27.39227,19.6470334 C23.731475,19.5520429 20.2181738,22.3574593 20.2096814,23.9846497 C20.1994691,25.9618174 23.1040161,27.9862136 27.4171615,28.037532 C31.8217705,28.0690056 34.6323529,26.4171581 34.6465069,24.3766945 C34.6625975,22.0649351 30.6405509,19.6112956 27.3921724,19.646936 L27.39227,19.6470334 Z" id="Shape" fill="#BC1142"></path>
                            <path d="M27.6158047,60.1914368 C30.8074698,60.0524683 35.0901597,61.2170244 35.0985545,62.7618328 C35.1515293,64.2619446 31.2145176,67.6512915 27.4040813,67.585756 C23.4578647,67.7555739 19.5882746,64.3609782 19.6389359,63.184357 C19.579874,61.4592041 24.4440528,60.1122683 27.6158047,60.1914368 L27.6158047,60.1914368 Z" id="Shape" fill="#BC1142"></path>
                            <path d="M15.8270354,51.0359348 C18.0993775,53.7670049 19.1352508,58.5651229 17.2389155,59.9795418 C15.4448789,61.0592717 11.0881004,60.6146037 7.99141317,56.1767268 C5.90297465,52.4527882 6.17209477,48.663314 7.6384529,47.550086 C9.83124014,46.2175622 13.2193034,48.0174042 15.8271427,51.0359348 L15.8270354,51.0359348 Z" id="Shape" fill="#BC1142"></path>
                            <path d="M38.9496956,50.1702423 C36.4911071,53.0430951 35.1220793,58.2828233 36.9156278,59.9703882 C38.6304998,61.2814888 43.234045,61.098223 46.6346028,56.3911537 C49.1038311,53.2297692 48.27646,47.9502132 46.8660246,46.5481613 C44.7708507,44.9314878 41.7630893,47.0004735 38.9496761,50.1694633 L38.9496956,50.1702423 Z" id="Shape" fill="#BC1142"></path>
                        </g>
                    </g>
                </g>
                <g id="w117-copy-3" transform="translate(291.500000, 45.500000) rotate(-90.000000) translate(-291.500000, -45.500000) translate(267.000000, -37.000000)">
                    <g id="w117">
                        <g id="Page-1">
                            <g id="w117">
                                <path d="M15,131 C15,141.144 8.326,159.388 0,164 C29,165 43,162 43,131 L43,18 L15,18 L15,131 Z" id="Fill-1090" fill="#3AB0D5"></path>
                                <path d="M46.608,18 L11.392,18 C10.072,18 9,16.928 9,15.608 L9,2.394 C9,1.072 10.072,0 11.392,0 L46.608,0 C47.928,0 49,1.072 49,2.394 L49,15.608 C49,16.928 47.928,18 46.608,18" id="Fill-1094" fill="#000000"></path>
                                <path d="M39,8 L19,8 C17.894,8 17,7.106 17,6 C17,4.894 17.894,4 19,4 L39,4 C40.106,4 41,4.894 41,6 C41,7.106 40.106,8 39,8" id="Fill-1095" fill="#546A79"></path>
                                <path d="M39,14 L19,14 C17.894,14 17,13.106 17,12 C17,10.894 17.894,10 19,10 L39,10 C40.106,10 41,10.894 41,12 C41,13.106 40.106,14 39,14" id="Fill-1096" fill="#546A79"></path>
                                <path d="M34,112 C32.894,112 32,112.894 32,114 L32,129.574 C32,135.848 29.762,141.932 25.698,146.704 C24.982,147.546 25.084,148.806 25.924,149.524 C26.3,149.844 26.762,150 27.22,150 C27.786,150 28.348,149.762 28.744,149.296 C33.424,143.802 36,136.796 36,129.574 L36,114 C36,112.894 35.106,112 34,112" id="Fill-1097" fill="#268892"></path>
                                <path d="M28,114 C28,112.894 27.106,112 26,112 C24.894,112 24,112.894 24,114 L24,129.574 C24,135.852 21.762,141.934 17.698,146.704 C16.98,147.542 17.08,148.804 17.922,149.522 C18.298,149.844 18.76,150 19.218,150 C19.784,150 20.346,149.762 20.74,149.296 C25.422,143.804 28,136.8 28,129.574 L28,114" id="Fill-1098" fill="#268892"></path>
                            </g>
                        </g>
                    </g>
                </g>
                <path d="M354,69.0000017 L354,89.4571893 C354,90.5631893 354.894,91.4571893 356,91.4571893 C357.106,91.4571893 358,90.5631893 358,89.4571893 L358,68.0000017 C358,68.0000017 358,65.9999983 356,66 C354,66.0000017 354,68 354,68" id="Fill-1915-Copy" fill="#2A6166"></path>
                <path d="M300.728595,16.271407 L300.728595,56.7285947 C300.728595,57.8345947 301.622595,58.7285947 302.728595,58.7285947 C303.834595,58.7285947 304.728595,57.8345947 304.728595,56.7285947 L304.728595,15.271407 C304.728595,15.271407 304.728595,13.2714037 302.728595,13.2714053 C300.728595,13.271407 300.728595,15.2714053 300.728595,15.2714053" id="Fill-1915-Copy-4" fill="#268892" transform="translate(302.728595, 36.000000) rotate(-270.000000) translate(-302.728595, -36.000000) "></path>
                <path d="M300.728595,24.271407 L300.728595,64.7285947 C300.728595,65.8345947 301.622595,66.7285947 302.728595,66.7285947 C303.834595,66.7285947 304.728595,65.8345947 304.728595,64.7285947 L304.728595,23.271407 C304.728595,23.271407 304.728595,21.2714037 302.728595,21.2714053 C300.728595,21.271407 300.728595,23.2714053 300.728595,23.2714053" id="Fill-1915-Copy-4" fill="#268892" transform="translate(302.728595, 44.000000) rotate(-270.000000) translate(-302.728595, -44.000000) "></path>
                <path d="M280.728595,16.271407 L280.728595,56.7285947 C280.728595,57.8345947 281.622595,58.7285947 282.728595,58.7285947 C283.834595,58.7285947 284.728595,57.8345947 284.728595,56.7285947 L284.728595,15.271407 C284.728595,15.271407 284.728595,13.2714037 282.728595,13.2714053 C280.728595,13.271407 280.728595,15.2714053 280.728595,15.2714053" id="Fill-1915-Copy-4" fill="#268892" transform="translate(282.728595, 36.000000) rotate(-270.000000) translate(-282.728595, -36.000000) "></path>
                <path d="M280.728595,24.271407 L280.728595,64.7285947 C280.728595,65.8345947 281.622595,66.7285947 282.728595,66.7285947 C283.834595,66.7285947 284.728595,65.8345947 284.728595,64.7285947 L284.728595,23.271407 C284.728595,23.271407 284.728595,21.2714037 282.728595,21.2714053 C280.728595,21.271407 280.728595,23.2714053 280.728595,23.2714053" id="Fill-1915-Copy-4" fill="#268892" transform="translate(282.728595, 44.000000) rotate(-270.000000) translate(-282.728595, -44.000000) "></path>
                <g id="Group-Copy" transform="translate(338.459088, 129.086360)">
                    <path d="M13.5726339,27.4545518 C6.15766376,27.4545518 0.125506523,21.2967246 0.125506523,13.7272759 C0.125506523,6.15782718 6.15766376,0 13.5726339,0 C20.9876041,0 27.0197614,6.15782718 27.0197614,13.7272759 C27.0197614,21.2967246 20.9876041,27.4545518 13.5726339,27.4545518" id="Fill-1587" fill="#546E7A"></path>
                    <path d="M22.411879,13.7272759 C22.411879,18.7812013 18.3979115,22.8787932 13.4471274,22.8787932 C8.49634334,22.8787932 4.48237581,18.7812013 4.48237581,13.7272759 C4.48237581,8.67335049 8.49634334,4.57575864 13.4471274,4.57575864 C18.3979115,4.57575864 22.411879,8.67335049 22.411879,13.7272759" id="Fill-1605" fill="#2F4149"></path>
                    <path d="M16.0132876,17.4908374 C15.8115807,17.7081859 15.6883153,18.0056102 15.6883153,18.3030345 C15.6883153,18.6004589 15.8115807,18.8978832 16.0132876,19.1152317 C16.2262004,19.3211408 16.5175548,19.4469742 16.8089093,19.4469742 C17.1002637,19.4469742 17.3916181,19.3211408 17.604531,19.1152317 C17.8062379,18.8978832 17.9295032,18.6004589 17.9295032,18.3030345 C17.9295032,18.0056102 17.8062379,17.7081859 17.604531,17.4908374 C17.1899112,17.0675797 16.4391133,17.0675797 16.0132876,17.4908374" id="Fill-1606" fill="#FFFFFF"></path>
                    <path d="M10.4103178,8.33932011 C10.2086109,8.55666865 10.0853456,8.85409296 10.0853456,9.15151727 C10.0853456,9.44894158 10.2086109,9.74636589 10.4103178,9.96371443 C10.6232307,10.1696236 10.9145851,10.2954569 11.2059395,10.2954569 C11.4972939,10.2954569 11.7886484,10.1696236 12.0015612,9.96371443 C12.2032681,9.74636589 12.3265335,9.44894158 12.3265335,9.15151727 C12.3265335,8.85409296 12.2032681,8.55666865 12.0015612,8.33932011 C11.5869415,7.91606244 10.8361435,7.91606244 10.4103178,8.33932011" id="Fill-1607" fill="#FFFFFF"></path>
                    <path d="M14.5677214,8.00757761 C13.9491535,8.00757761 13.4471274,8.51891864 13.4471274,9.15151727 C13.4471274,9.7841159 13.9491535,10.2954569 14.5677214,10.2954569 C15.7824452,10.2954569 16.8089093,11.86723 16.8089093,13.7272759 C16.8089093,14.3598745 17.3109354,14.8712156 17.9295032,14.8712156 C18.5480711,14.8712156 19.0500972,14.3598745 19.0500972,13.7272759 C19.0500972,10.5734343 17.0397516,8.00757761 14.5677214,8.00757761" id="Fill-1608" fill="#FFFFFF"></path>
                </g>
                <path d="M387,143 C387,144.104 386.104,145 385,145 C383.896,145 383,144.104 383,143 C383,141.896 383.896,141 385,141 C386.104,141 387,141.896 387,143" id="Fill-732" fill="#3AB0D5"></path>
                <path d="M387,137 C387,138.104 386.104,139 385,139 C383.896,139 383,138.104 383,137 C383,135.896 383.896,135 385,135 C386.104,135 387,135.896 387,137" id="Fill-732" fill="#FFFFFF"></path>
                <path d="M387,131 C387,132.104 386.104,133 385,133 C383.896,133 383,132.104 383,131 C383,129.896 383.896,129 385,129 C386.104,129 387,129.896 387,131" id="Fill-732" fill="#3AB0D5"></path>
            </g>
        </g>
    </g>
</svg>