<?xml version="1.0" encoding="UTF-8" standalone="no"?>
<svg width="350px" height="247px" viewBox="0 0 350 247" version="1.1" xmlns="http://www.w3.org/2000/svg" xmlns:xlink="http://www.w3.org/1999/xlink" xmlns:sketch="http://www.bohemiancoding.com/sketch/ns">
    <!-- Generator: Sketch 3.4.4 (17249) - http://www.bohemiancoding.com/sketch -->
    <title>example-audio</title>
    <desc>Created with Sketch.</desc>
    <defs>
        <filter x="-50%" y="-50%" width="200%" height="200%" filterUnits="objectBoundingBox" id="filter-1">
            <feOffset dx="0" dy="1" in="SourceAlpha" result="shadowOffsetOuter1"></feOffset>
            <feGaussianBlur stdDeviation="1.5" in="shadowOffsetOuter1" result="shadowBlurOuter1"></feGaussianBlur>
            <feColorMatrix values="0 0 0 0 0   0 0 0 0 0   0 0 0 0 0  0 0 0 0.35 0" in="shadowBlurOuter1" type="matrix" result="shadowMatrixOuter1"></feColorMatrix>
            <feMerge>
                <feMergeNode in="shadowMatrixOuter1"></feMergeNode>
                <feMergeNode in="SourceGraphic"></feMergeNode>
            </feMerge>
        </filter>
        <filter x="-50%" y="-50%" width="200%" height="200%" filterUnits="objectBoundingBox" id="filter-2">
            <feOffset dx="0" dy="1" in="SourceAlpha" result="shadowOffsetOuter1"></feOffset>
            <feGaussianBlur stdDeviation="1.5" in="shadowOffsetOuter1" result="shadowBlurOuter1"></feGaussianBlur>
            <feColorMatrix values="0 0 0 0 0   0 0 0 0 0   0 0 0 0 0  0 0 0 0.35 0" in="shadowBlurOuter1" type="matrix" result="shadowMatrixOuter1"></feColorMatrix>
            <feMerge>
                <feMergeNode in="shadowMatrixOuter1"></feMergeNode>
                <feMergeNode in="SourceGraphic"></feMergeNode>
            </feMerge>
        </filter>
        <filter x="-50%" y="-50%" width="200%" height="200%" filterUnits="objectBoundingBox" id="filter-3">
            <feOffset dx="0" dy="1" in="SourceAlpha" result="shadowOffsetOuter1"></feOffset>
            <feGaussianBlur stdDeviation="1.5" in="shadowOffsetOuter1" result="shadowBlurOuter1"></feGaussianBlur>
            <feColorMatrix values="0 0 0 0 0   0 0 0 0 0   0 0 0 0 0  0 0 0 0.35 0" in="shadowBlurOuter1" type="matrix" result="shadowMatrixOuter1"></feColorMatrix>
            <feMerge>
                <feMergeNode in="shadowMatrixOuter1"></feMergeNode>
                <feMergeNode in="SourceGraphic"></feMergeNode>
            </feMerge>
        </filter>
        <filter x="-50%" y="-50%" width="200%" height="200%" filterUnits="objectBoundingBox" id="filter-4">
            <feOffset dx="0" dy="1" in="SourceAlpha" result="shadowOffsetOuter1"></feOffset>
            <feGaussianBlur stdDeviation="1.5" in="shadowOffsetOuter1" result="shadowBlurOuter1"></feGaussianBlur>
            <feColorMatrix values="0 0 0 0 0   0 0 0 0 0   0 0 0 0 0  0 0 0 0.35 0" in="shadowBlurOuter1" type="matrix" result="shadowMatrixOuter1"></feColorMatrix>
            <feMerge>
                <feMergeNode in="shadowMatrixOuter1"></feMergeNode>
                <feMergeNode in="SourceGraphic"></feMergeNode>
            </feMerge>
        </filter>
    </defs>
    <g id="animations" stroke="none" stroke-width="1" fill="none" fill-rule="evenodd" sketch:type="MSPage">
        <g id="example-audio" sketch:type="MSLayerGroup" transform="translate(3.000000, 2.000000)">
            <g id="btn-1" transform="translate(0.000000, 203.000000)" sketch:type="MSShapeGroup">
                <rect id="btn-1-bg" stroke="#2F4149" fill="#2F4149" filter="url(#filter-1)" x="0" y="0" width="106.758621" height="38" rx="2"></rect>
                <path d="M38.4430246,24 L41.8990246,24 C45.3370246,24 47.6410246,22.11 47.6410246,18.078 C47.6410246,14.046 45.3370246,12.264 41.7550246,12.264 L38.4430246,12.264 L38.4430246,24 Z M41.0890246,21.858 L41.0890246,14.406 L41.5930246,14.406 C43.5910246,14.406 44.9230246,15.27 44.9230246,18.078 C44.9230246,20.886 43.5910246,21.858 41.5930246,21.858 L41.0890246,21.858 Z M54.6430246,24.216 C57.8110246,24.216 59.9710246,21.912 59.9710246,18.078 C59.9710246,14.262 57.8110246,12.048 54.6430246,12.048 C51.4750246,12.048 49.3150246,14.244 49.3150246,18.078 C49.3150246,21.912 51.4750246,24.216 54.6430246,24.216 L54.6430246,24.216 Z M54.6430246,21.93 C53.0410246,21.93 52.0330246,20.436 52.0330246,18.078 C52.0330246,15.738 53.0410246,14.334 54.6430246,14.334 C56.2450246,14.334 57.2530246,15.738 57.2530246,18.078 C57.2530246,20.436 56.2450246,21.93 54.6430246,21.93 L54.6430246,21.93 Z M61.6270246,18.204 C61.6270246,22.146 64.1470246,24.216 67.3150246,24.216 C68.9530246,24.216 70.4110246,23.586 71.2390246,22.794 L71.2390246,17.394 L66.9550246,17.394 L66.9550246,19.554 L68.8990246,19.554 L68.8990246,21.57 C68.6110246,21.804 68.1250246,21.93 67.6390246,21.93 C65.4430246,21.93 64.3450246,20.526 64.3450246,18.114 C64.3450246,15.756 65.6230246,14.334 67.4410246,14.334 C68.4490246,14.334 69.0070246,14.676 69.5830246,15.216 L71.0410246,13.578 C70.2670246,12.786 69.0430246,12.048 67.4050246,12.048 C64.2190246,12.048 61.6270246,14.316 61.6270246,18.204 L61.6270246,18.204 Z" id="DOG" fill="#FFFFFF"></path>
            </g>
            <g id="btn-2" transform="translate(118.000000, 203.000000)" sketch:type="MSShapeGroup">
                <rect id="btn-2-bg" fill="#077CA0" filter="url(#filter-2)" x="0.620689655" y="0" width="106.758621" height="38" rx="2"></rect>
                <path d="M35.973,24 L40.329,24 C42.867,24 44.883,22.938 44.883,20.544 C44.883,18.978 44.019,18.096 42.345,17.79 L42.345,17.718 C43.713,17.358 44.307,16.224 44.307,15.18 C44.307,12.93 42.417,12.264 39.987,12.264 L35.973,12.264 L35.973,24 Z M38.619,16.998 L38.619,14.316 L39.879,14.316 C41.121,14.316 41.715,14.676 41.715,15.558 C41.715,16.44 41.157,16.998 39.861,16.998 L38.619,16.998 Z M38.619,21.948 L38.619,18.87 L40.113,18.87 C41.571,18.87 42.291,19.32 42.291,20.346 C42.291,21.408 41.553,21.948 40.113,21.948 L38.619,21.948 Z M46.863,24 L49.509,24 L49.509,12.264 L46.863,12.264 L46.863,24 Z M54.927,14.37 L56.295,14.37 C57.681,14.37 58.437,14.766 58.437,15.918 C58.437,17.07 57.681,17.664 56.295,17.664 L54.927,17.664 L54.927,14.37 Z M61.605,24 L58.941,19.302 C60.201,18.744 61.029,17.646 61.029,15.918 C61.029,13.128 58.995,12.264 56.511,12.264 L52.281,12.264 L52.281,24 L54.927,24 L54.927,19.77 L56.385,19.77 L58.635,24 L61.605,24 Z M63.369,24 L66.825,24 C70.263,24 72.567,22.11 72.567,18.078 C72.567,14.046 70.263,12.264 66.681,12.264 L63.369,12.264 L63.369,24 Z M66.015,21.858 L66.015,14.406 L66.519,14.406 C68.517,14.406 69.849,15.27 69.849,18.078 C69.849,20.886 68.517,21.858 66.519,21.858 L66.015,21.858 Z" id="BIRD" fill="#FFFFFF"></path>
            </g>
            <g id="btn-3" transform="translate(237.000000, 203.000000)" sketch:type="MSShapeGroup">
                <rect id="btn-3-bg" fill="#2F4149" filter="url(#filter-3)" x="0.24137931" y="0" width="106.758621" height="38" rx="2"></rect>
                <path d="M39.4096897,18.204 C39.4096897,22.146 41.8936897,24.216 44.9356897,24.216 C46.3936897,24.216 47.6896897,23.622 48.6616897,22.488 L47.2036897,20.886 C46.6276897,21.516 45.9256897,21.93 44.9716897,21.93 C43.2436897,21.93 42.1276897,20.526 42.1276897,18.114 C42.1276897,15.756 43.4056897,14.334 45.0436897,14.334 C45.8536897,14.334 46.4296897,14.676 47.0236897,15.216 L48.4816897,13.578 C47.6896897,12.768 46.4656897,12.048 45.0076897,12.048 C41.9836897,12.048 39.4096897,14.316 39.4096897,18.204 L39.4096897,18.204 Z M52.9096897,19.14 L53.1976897,18.06 C53.5216897,16.89 53.8276897,15.522 54.1156897,14.28 L54.1876897,14.28 C54.4936897,15.504 54.8176897,16.89 55.1416897,18.06 L55.4116897,19.14 L52.9096897,19.14 Z M56.6716897,24 L59.4796897,24 L55.8076897,12.264 L52.6216897,12.264 L48.9496897,24 L51.6496897,24 L52.3696897,21.21 L55.9516897,21.21 L56.6716897,24 Z M62.3236897,24 L64.9876897,24 L64.9876897,14.496 L68.2096897,14.496 L68.2096897,12.264 L59.1016897,12.264 L59.1016897,14.496 L62.3236897,14.496 L62.3236897,24 Z" id="CAT" fill="#FFFFFF"></path>
            </g>
            <g id="Audio-window" sketch:type="MSShapeGroup">
                <rect id="audio-bg" fill="#F7F7F7" filter="url(#filter-4)" x="0" y="0" width="344" height="190" rx="1"></rect>
                <g id="audio-waves" transform="translate(5.000000, 42.000000)" stroke="#077CA0" stroke-width="4" stroke-linecap="square">
                    <path d="M334,35 L334,40" id="Line-Copy-39"></path>
                    <path d="M325,35 L325,40" id="Line-Copy-38"></path>
                    <path d="M316,35 L316,40" id="Line-Copy-37"></path>
                    <path d="M307,29 L307,47" id="Line-Copy-36"></path>
                    <path d="M298,29 L298,47" id="Line-Copy-35"></path>
                    <path d="M289,20.5 L289,55.5" id="Line-Copy-34"></path>
                    <path d="M280,30 L280,45" id="Line-Copy-33"></path>
                    <path d="M271,23 L271,53" id="Line-Copy-32"></path>
                    <path d="M262,17 L262,59" id="Line-Copy-31"></path>
                    <path d="M253,17 L253,59" id="Line-Copy-30"></path>
                    <path d="M244,5 L244,70" id="Line-Copy-29"></path>
                    <path d="M235,5 L235,70" id="Line-Copy-28"></path>
                    <path d="M226,5 L226,70" id="Line-Copy-27"></path>
                    <path d="M217,20.5 L217,55.5" id="Line-Copy-26"></path>
                    <path d="M208,10 L208,65" id="Line-Copy-25"></path>
                    <path d="M199,10 L199,65" id="Line-Copy-24"></path>
                    <path d="M190,5 L190,70" id="Line-Copy-23"></path>
                    <path d="M181,20.5 L181,55.5" id="Line-Copy-22"></path>
                    <path d="M172,25 L172,50" id="Line-Copy-21"></path>
                    <path d="M163,5 L163,70" id="Line-Copy-20"></path>
                    <path d="M154,0 L154,75" id="Line-Copy-19"></path>
                    <path d="M145,10 L145,65" id="Line-Copy-18"></path>
                    <path d="M136,20.5 L136,55.5" id="Line-Copy-17"></path>
                    <path d="M127,25 L127,50" id="Line-Copy-16"></path>
                    <path d="M118,25 L118,50" id="Line-Copy-15"></path>
                    <path d="M109,20.5 L109,55.5" id="Line-Copy-14"></path>
                    <path d="M100,15 L100,60" id="Line-Copy-13"></path>
                    <path d="M91,10 L91,65" id="Line-Copy-12"></path>
                    <path d="M82,20.5 L82,55.5" id="Line-Copy-11"></path>
                    <path d="M73,20.5 L73,55.5" id="Line-Copy-10"></path>
                    <path d="M64,25 L64,50" id="Line-Copy-9"></path>
                    <path d="M55,25 L55,50" id="Line-Copy-8"></path>
                    <path d="M46,20.5 L46,55.5" id="Line-Copy-7"></path>
                    <path d="M37,33 L37,43" id="Line-Copy-6"></path>
                    <path d="M28,33 L28,43" id="Line-Copy-5"></path>
                    <path d="M19,33 L19,43" id="Line-Copy-4"></path>
                    <path d="M10,35 L10,40" id="Line-Copy-47"></path>
                    <path d="M1,35 L1,40" id="Line-Copy-3"></path>
                </g>
                <rect id="audio-ui" fill="#2F4149" x="0" y="145" width="344" height="45"></rect>
                <ellipse id="start-3" fill="#3AB0D5" cx="23.5" cy="167.952282" rx="3.5" ry="3.5"></ellipse>
                <rect id="empty-bar-3" fill="#1B1D20" x="50" y="164.452282" width="270" height="7"></rect>
                <rect id="progress-3" fill="#3AB0D5" x="23" y="164.452282" width="182.254237" height="7"></rect>
                <rect id="bar-3" fill="#FFFFFF" x="202.338983" y="157" width="5.83050847" height="21.6348548"></rect>
                <ellipse id="end-3" fill="#1B1D20" cx="320.5" cy="167.952282" rx="3.5" ry="3.5"></ellipse>
            </g>
        </g>
    </g>
</svg>
