<?xml version="1.0" encoding="UTF-8" standalone="no"?>
<svg width="451px" height="235px" viewBox="0 0 451 235" version="1.1" xmlns="http://www.w3.org/2000/svg" xmlns:xlink="http://www.w3.org/1999/xlink" xmlns:sketch="http://www.bohemiancoding.com/sketch/ns">
    <!-- Generator: Sketch 3.4.4 (17249) - http://www.bohemiancoding.com/sketch -->
    <title>case-video</title>
    <desc>Created with Sketch.</desc>
    <defs>
        <ellipse id="path-1" cx="7.51222809" cy="7.51447032" rx="7.51222809" ry="7.51447032"></ellipse>
    </defs>
    <g id="Style-Inventory" stroke="none" stroke-width="1" fill="none" fill-rule="evenodd" sketch:type="MSPage">
        <g id="Uses-cases" sketch:type="MSArtboardGroup" transform="translate(-185.000000, -769.000000)">
            <g id="case-video" sketch:type="MSLayerGroup" transform="translate(188.000000, 771.000000)">
                <g id="Group" sketch:type="MSShapeGroup">
                    <rect id="Rectangle-177" fill="#F7F7F7" x="0" y="0" width="332.436975" height="189.119042" rx="1"></rect>
                    <rect id="Rectangle-221" fill="#077CA0" x="0" y="115.966387" width="332.436975" height="73.4453782"></rect>
                    <g id="g106" transform="translate(0.000000, 187.218348)">
                        <g>
                            <g>
                                <path d="M332.436975,0.690953598 L332.436975,41.5558722 L0,41.5558722 L0,0.690953598 L332.436975,0.690953598 Z" id="Fill-247" fill="#2F4149"></path>
                                <path d="M160.836794,24.3494298 L68.1922,24.3494298 C66.4844513,24.3494298 65.1040468,22.9487211 65.1040468,21.2158534 C65.1040468,19.4861192 66.4844513,18.082277 68.1922,18.082277 L160.836794,18.082277 C162.544542,18.082277 163.924947,19.4861192 163.924947,21.2158534 C163.924947,22.9487211 162.544542,24.3494298 160.836794,24.3494298" id="Fill-1870" fill="#1B1D20"></path>
                                <path d="M18.5289187,33.750159 C16.8211701,33.750159 15.4407656,32.3494504 15.4407656,30.6165826 L15.4407656,11.8151242 C15.4407656,10.08539 16.8211701,8.68154776 18.5289187,8.68154776 C20.2366674,8.68154776 21.6170719,10.08539 21.6170719,11.8151242 L21.6170719,30.6165826 C21.6170719,32.3494504 20.2366674,33.750159 18.5289187,33.750159" id="Fill-1871" fill="#FFFFFF"></path>
                                <path d="M30.8815312,33.750159 C29.1737826,33.750159 27.7933781,32.3494504 27.7933781,30.6165826 L27.7933781,11.8151242 C27.7933781,10.08539 29.1737826,8.68154776 30.8815312,8.68154776 C32.5892799,8.68154776 33.9696844,10.08539 33.9696844,11.8151242 L33.9696844,30.6165826 C33.9696844,32.3494504 32.5892799,33.750159 30.8815312,33.750159" id="Fill-1872" fill="#FFFFFF"></path>
                                <path d="M111.805591,18.082277 L49.41045,18.082277 C47.7027013,18.082277 46.3222968,19.4861192 46.3222968,21.2158534 C46.3222968,22.9487211 47.7027013,24.3494298 49.41045,24.3494298 L121.196466,24.3494298 L121.196466,18.082277" id="Fill-2553" fill="#3AB0D5"></path>
                                <path d="M311.090794,24.3494298 L218.4462,24.3494298 C216.738451,24.3494298 215.358047,22.9487211 215.358047,21.2158534 C215.358047,19.4861192 216.738451,18.082277 218.4462,18.082277 L311.090794,18.082277 C312.798542,18.082277 314.178947,19.4861192 314.178947,21.2158534 C314.178947,22.9487211 312.798542,24.3494298 311.090794,24.3494298" id="Fill-1870" fill="#1B1D20"></path>
                                <path d="M235.963794,24.3494298 L143.3192,24.3494298 C141.611451,24.3494298 140.231047,22.9487211 140.231047,21.2158534 C140.231047,19.4861192 141.611451,18.082277 143.3192,18.082277 L235.963794,18.082277 C237.671542,18.082277 239.051947,19.4861192 239.051947,21.2158534 C239.051947,22.9487211 237.671542,24.3494298 235.963794,24.3494298" id="Fill-1870" fill="#1B1D20"></path>
                                <path d="M153.66135,18.082277 L119.784973,18.082277 C118.857779,18.082277 118.108312,19.4861192 118.108312,21.2158534 C118.108312,22.9487211 118.857779,24.3494298 119.784973,24.3494298 L158.759966,24.3494298 L158.759966,18.082277" id="Fill-2553" fill="#3AB0D5"></path>
                            </g>
                        </g>
                    </g>
                    <rect id="Rectangle-179" fill="#FFFFFF" x="154.949437" y="197.672164" width="5.634525" height="20.9076328"></rect>
                    <ellipse id="Oval-91" fill="#F88B1C" cx="279.079624" cy="29.9116362" rx="13.3233212" ry="13.4830647"></ellipse>
                    <g id="g135" transform="translate(7.731092, 191.344538)">
                        <g id="Page-1">
                            <g>
                                <g id="g135">
                                    <path d="M31.928975,16.155898 C31.928975,25.0789677 24.7812886,32.3117961 15.9644875,32.3117961 C7.1476864,32.3117961 0,25.0789677 0,16.155898 C0,7.23338552 7.1476864,0 15.9644875,0 C24.7812886,0 31.928975,7.23338552 31.928975,16.155898" id="Fill-760" fill="#C7CBC7"></path>
                                    <path d="M18.1664858,7.79939906 L21.4694832,7.79939906 L21.4694832,24.512397 L18.1664858,24.512397 L18.1664858,7.79939906 L18.1664858,7.79939906 Z" id="Fill-1899" fill="#FFFFFF"></path>
                                    <path d="M17.6159862,7.24229912 L22.0199827,7.24229912 L22.0199827,25.069497 L17.6159862,25.069497 L17.6159862,7.24229912 L17.6159862,7.24229912 Z M18.7169853,23.9552971 L20.9189836,23.9552971 L20.9189836,8.35649899 L18.7169853,8.35649899 L18.7169853,23.9552971 L18.7169853,23.9552971 Z" id="Fill-1900" fill="#FFFFFF"></path>
                                    <path d="M10.4594918,7.79939906 L13.7624892,7.79939906 L13.7624892,24.512397 L10.4594918,24.512397 L10.4594918,7.79939906 L10.4594918,7.79939906 Z" id="Fill-1901" fill="#FFFFFF"></path>
                                    <path d="M9.90899224,7.24229912 L14.3129888,7.24229912 L14.3129888,25.069497 L9.90899224,25.069497 L9.90899224,7.24229912 L9.90899224,7.24229912 Z M11.0099914,23.9552971 L13.2119896,23.9552971 L13.2119896,8.35649899 L11.0099914,8.35649899 L11.0099914,23.9552971 L11.0099914,23.9552971 Z" id="Fill-1902" fill="#FFFFFF"></path>
                                </g>
                            </g>
                        </g>
                    </g>
                    <path d="M126.596639,125.831261 C122.323277,131.119328 115.407815,131.119328 111.134454,125.831261 M106.302521,143.991597 C102.02916,149.279664 95.1136975,149.279664 90.8403361,143.991597 M73.4453782,153.755966 C69.1720168,159.044034 62.2565546,159.044034 57.9831933,153.755966 M34.789916,172.016807 C30.5165546,177.304874 23.6010924,177.304874 19.3277311,172.016807 M50.2521008,127.563025 C45.9787395,132.851092 39.0632773,132.851092 34.789916,127.563025 M27.0588235,143.02521 C22.7854622,148.313277 15.87,148.313277 11.5966387,143.02521 M100.504202,174.050084 C96.2308403,179.338151 89.3153782,179.338151 85.0420168,174.050084" id="Stroke-301" stroke="#285680" stroke-width="4" opacity="0.200000003"></path>
                    <path d="M327.605042,153.554958 C323.331681,158.843025 316.416218,158.843025 312.142857,153.554958 M288.94958,171.815798 C284.676218,177.103866 277.760756,177.103866 273.487395,171.815798 M304.411765,127.362017 C300.138403,132.650084 293.222941,132.650084 288.94958,127.362017 M281.218487,142.824202 C276.945126,148.112269 270.029664,148.112269 265.756303,142.824202" id="Stroke-301-Copy" stroke="#285680" stroke-width="4" opacity="0.200000003"></path>
                    <path d="M243.529412,155.789244 C239.25605,161.077311 232.340588,161.077311 228.067227,155.789244 M220.336134,137.226891 C216.062773,142.514958 209.147311,142.514958 204.87395,137.226891 M195.210084,157.621513 C190.936723,162.90958 184.021261,162.90958 179.747899,157.621513 M168.151261,167.184874 C163.877899,172.472941 156.962437,172.472941 152.689076,167.184874 M173.94958,132.394958 C169.676218,137.683025 162.760756,137.683025 158.487395,132.394958 M150.756303,147.857143 C146.482941,153.14521 139.567479,153.14521 135.294118,147.857143 M224.201681,169.218151 C219.928319,174.506218 213.012857,174.506218 208.739496,169.218151" id="Stroke-301" stroke="#285680" stroke-width="4" opacity="0.200000018"></path>
                    <path d="M83.6214687,89.7577916 L124.922437,89.7577916 L124.922437,105.599259 L142.725799,105.599259 C143.829525,105.599259 144.408324,106.441787 144.024298,107.465856 L135.240445,130.889463 C134.85386,131.920356 133.636244,132.75606 132.532192,132.75606 L60.7360129,132.75606 C59.626871,132.75606 58.4001511,131.928483 57.9888725,130.889463 L48.7170283,107.465856 C48.3089665,106.434963 48.8741382,105.599259 49.9766397,105.599259 L69.4773014,105.599259 L69.4773014,89.7577916 L82.4899353,89.7577916 L82.4899353,77.3109244 L83.6214687,77.3109244 L83.6214687,89.7577916 Z M82.4899353,85.2316581 L65.5169345,83.534358 L70.6088348,81.2712912 L63.8196345,78.4424578 L82.4899353,77.3109244 L82.4899353,85.2316581 Z" id="Rectangle-222" fill="#2F4149"></path>
                </g>
                <g id="Group-Copy-3" transform="translate(352.000000, 0.000000)">
                    <rect id="Rectangle-163" fill="#2F4149" sketch:type="MSShapeGroup" x="0" y="0" width="92.8070175" height="69.6052632" rx="1"></rect>
                    <rect id="Rectangle-273" fill="#FFFFFF" sketch:type="MSShapeGroup" x="6.05263158" y="6.05263158" width="80.7017544" height="36.3157895"></rect>
                    <rect id="Rectangle-262" fill="#077CA0" sketch:type="MSShapeGroup" x="12.1052632" y="32.2807018" width="65.5701754" height="4.03508772"></rect>
                    <g id="g236" transform="translate(6.052632, 48.421053)">
                        <mask id="mask-2" sketch:name="Mask" fill="white">
                            <use xlink:href="#path-1"></use>
                        </mask>
                        <use id="Mask" fill="#FFFFFF" sketch:type="MSShapeGroup" xlink:href="#path-1"></use>
                        <g mask="url(#mask-2)" fill="#F88B1C" sketch:type="MSShapeGroup">
                            <g transform="translate(2.842465, 2.843313)">
                                <path d="M8.40557413,3.71371506 C8.40557413,1.66281592 6.73286488,0 4.6697634,0 C2.60666193,0 0.933952681,1.66281592 0.933952681,3.71371506 C0.933952681,5.7646142 2.60666193,7.42743012 4.6697634,7.42743012 C6.73286488,7.42743012 8.40557413,5.7646142 8.40557413,3.71371506" id="Fill-1585"></path>
                                <path d="M4.6697634,7.42743012 C2.09112005,7.42743012 0,9.50618213 0,12.0695739 L0,12.9980027 L9.33952681,12.9980027 L9.33952681,12.0695739 C9.33952681,9.50618213 7.24840676,7.42743012 4.6697634,7.42743012" id="Fill-1586"></path>
                            </g>
                        </g>
                    </g>
                    <rect id="Rectangle-262" fill="#077CA0" sketch:type="MSShapeGroup" x="53.4649123" y="22.1929825" width="13.1140351" height="4.03508772"></rect>
                    <rect id="Rectangle-262" fill="#077CA0" sketch:type="MSShapeGroup" x="12.1052632" y="22.1929825" width="38.3333333" height="4.03508772"></rect>
                    <rect id="Rectangle-262" fill="#077CA0" sketch:type="MSShapeGroup" x="34.2982456" y="12.1052632" width="26.2280702" height="4.03508772"></rect>
                    <rect id="Rectangle-262" fill="#077CA0" sketch:type="MSShapeGroup" x="12.1052632" y="12.1052632" width="12.1052632" height="4.03508772"></rect>
                    <rect id="Rectangle-262" fill="#077CA0" sketch:type="MSShapeGroup" x="27.2368421" y="12.1052632" width="4.03508772" height="4.03508772"></rect>
                    <rect id="Rectangle-262" fill="#FFFFFF" sketch:type="MSShapeGroup" x="27.2368421" y="53.4649123" width="39.3421053" height="5.04385965"></rect>
                </g>
            </g>
        </g>
    </g>
</svg>