<?xml version="1.0" encoding="UTF-8" standalone="no"?>
<svg width="444px" height="243px" viewBox="0 0 444 243" version="1.1" xmlns="http://www.w3.org/2000/svg" xmlns:xlink="http://www.w3.org/1999/xlink" xmlns:sketch="http://www.bohemiancoding.com/sketch/ns">
    <!-- Generator: Sketch 3.4.4 (17249) - http://www.bohemiancoding.com/sketch -->
    <title>example-geo</title>
    <desc>Created with Sketch.</desc>
    <defs>
        <filter x="-50%" y="-50%" width="200%" height="200%" filterUnits="objectBoundingBox" id="filter-1">
            <feOffset dx="0" dy="1" in="SourceAlpha" result="shadowOffsetOuter1"></feOffset>
            <feGaussianBlur stdDeviation="1.5" in="shadowOffsetOuter1" result="shadowBlurOuter1"></feGaussianBlur>
            <feColorMatrix values="0 0 0 0 0   0 0 0 0 0   0 0 0 0 0  0 0 0 0.35 0" in="shadowBlurOuter1" type="matrix" result="shadowMatrixOuter1"></feColorMatrix>
            <feMerge>
                <feMergeNode in="shadowMatrixOuter1"></feMergeNode>
                <feMergeNode in="SourceGraphic"></feMergeNode>
            </feMerge>
        </filter>
        <filter x="-50%" y="-50%" width="200%" height="200%" filterUnits="objectBoundingBox" id="filter-2">
            <feOffset dx="0" dy="1" in="SourceAlpha" result="shadowOffsetOuter1"></feOffset>
            <feGaussianBlur stdDeviation="1.5" in="shadowOffsetOuter1" result="shadowBlurOuter1"></feGaussianBlur>
            <feColorMatrix values="0 0 0 0 0   0 0 0 0 0   0 0 0 0 0  0 0 0 0.35 0" in="shadowBlurOuter1" type="matrix" result="shadowMatrixOuter1"></feColorMatrix>
            <feMerge>
                <feMergeNode in="shadowMatrixOuter1"></feMergeNode>
                <feMergeNode in="SourceGraphic"></feMergeNode>
            </feMerge>
        </filter>
        <ellipse id="path-3" cx="7.44690436" cy="7.4491271" rx="7.44690436" ry="7.4491271"></ellipse>
        <rect id="path-5" x="0" y="0" width="98" height="57"></rect>
    </defs>
    <g id="animations" stroke="none" stroke-width="1" fill="none" fill-rule="evenodd" sketch:type="MSPage">
        <g id="example-geo" sketch:type="MSLayerGroup" transform="translate(3.000000, 2.000000)">
            <g id="picture-city" sketch:type="MSShapeGroup">
                <rect id="sky" fill="#F7F7F7" filter="url(#filter-1)" x="0" y="0" width="300" height="237" rx="1"></rect>
                <g id="building4" transform="translate(141.000000, 71.000000)">
                    <rect id="Rectangle-228-Copy-2" fill="#077CA0" x="0" y="0" width="51" height="162" rx="18"></rect>
                    <rect id="Rectangle-232" fill="#DDDFDF" x="8" y="72" width="5" height="7.71428571"></rect>
                    <rect id="Rectangle-232" fill="#DDDFDF" x="18" y="72" width="5" height="7.71428571"></rect>
                    <rect id="Rectangle-232" fill="#DDDFDF" x="28" y="72" width="5" height="7.71428571"></rect>
                    <rect id="Rectangle-232" fill="#DDDFDF" x="38" y="72" width="5" height="7.71428571"></rect>
                    <rect id="Rectangle-232" fill="#DDDFDF" x="8" y="83.5714286" width="5" height="7.71428571"></rect>
                    <rect id="Rectangle-232" fill="#DDDFDF" x="18" y="83.5714286" width="5" height="7.71428571"></rect>
                    <rect id="Rectangle-232" fill="#DDDFDF" x="28" y="83.5714286" width="5" height="7.71428571"></rect>
                    <rect id="Rectangle-232" fill="#DDDFDF" x="38" y="83.5714286" width="5" height="7.71428571"></rect>
                    <rect id="Rectangle-232" fill="#DDDFDF" x="8" y="95.1428571" width="5" height="7.71428571"></rect>
                    <rect id="Rectangle-232" fill="#DDDFDF" x="18" y="95.1428571" width="5" height="7.71428571"></rect>
                    <rect id="Rectangle-232" fill="#DDDFDF" x="28" y="95.1428571" width="5" height="7.71428571"></rect>
                    <rect id="Rectangle-232" fill="#DDDFDF" x="38" y="95.1428571" width="5" height="7.71428571"></rect>
                    <rect id="Rectangle-232" fill="#DDDFDF" x="8" y="106.714286" width="5" height="7.71428571"></rect>
                    <rect id="Rectangle-232" fill="#DDDFDF" x="18" y="106.714286" width="5" height="7.71428571"></rect>
                    <rect id="Rectangle-232" fill="#DDDFDF" x="28" y="106.714286" width="5" height="7.71428571"></rect>
                    <rect id="Rectangle-232" fill="#DDDFDF" x="38" y="106.714286" width="5" height="7.71428571"></rect>
                    <rect id="Rectangle-232" fill="#DDDFDF" x="8" y="118.285714" width="5" height="7.71428571"></rect>
                    <rect id="Rectangle-232" fill="#DDDFDF" x="18" y="118.285714" width="5" height="7.71428571"></rect>
                    <rect id="Rectangle-232" fill="#DDDFDF" x="28" y="118.285714" width="5" height="7.71428571"></rect>
                    <rect id="Rectangle-232" fill="#DDDFDF" x="38" y="118.285714" width="5" height="7.71428571"></rect>
                    <rect id="Rectangle-232" fill="#DDDFDF" x="8" y="14" width="5" height="7.71428571"></rect>
                    <rect id="Rectangle-232" fill="#DDDFDF" x="18" y="14" width="5" height="7.71428571"></rect>
                    <rect id="Rectangle-232" fill="#DDDFDF" x="28" y="14" width="5" height="7.71428571"></rect>
                    <rect id="Rectangle-232" fill="#DDDFDF" x="38" y="14" width="5" height="7.71428571"></rect>
                    <rect id="Rectangle-232" fill="#DDDFDF" x="8" y="25.5714286" width="5" height="7.71428571"></rect>
                    <rect id="Rectangle-232" fill="#DDDFDF" x="18" y="25.5714286" width="5" height="7.71428571"></rect>
                    <rect id="Rectangle-232" fill="#DDDFDF" x="28" y="25.5714286" width="5" height="7.71428571"></rect>
                    <rect id="Rectangle-232" fill="#DDDFDF" x="38" y="25.5714286" width="5" height="7.71428571"></rect>
                    <rect id="Rectangle-232" fill="#DDDFDF" x="28" y="37.1428571" width="5" height="7.71428571"></rect>
                    <rect id="Rectangle-232" fill="#DDDFDF" x="8" y="48.7142857" width="5" height="7.71428571"></rect>
                    <rect id="Rectangle-232" fill="#DDDFDF" x="18" y="48.7142857" width="5" height="7.71428571"></rect>
                    <rect id="Rectangle-232" fill="#DDDFDF" x="28" y="48.7142857" width="5" height="7.71428571"></rect>
                    <rect id="Rectangle-232" fill="#DDDFDF" x="38" y="48.7142857" width="5" height="7.71428571"></rect>
                    <rect id="Rectangle-232" fill="#DDDFDF" x="8" y="60.2857143" width="5" height="7.71428571"></rect>
                    <rect id="Rectangle-232" fill="#DDDFDF" x="18" y="60.2857143" width="5" height="7.71428571"></rect>
                    <rect id="Rectangle-232" fill="#DDDFDF" x="28" y="60.2857143" width="5" height="7.71428571"></rect>
                    <rect id="Rectangle-232" fill="#2F4149" x="38" y="60.2857143" width="5" height="7.71428571"></rect>
                    <rect id="Rectangle-232" fill="#DDDFDF" x="8" y="37.1428571" width="5" height="7.71428571"></rect>
                    <rect id="Rectangle-232" fill="#DDDFDF" x="18" y="37.1428571" width="5" height="7.71428571"></rect>
                    <rect id="Rectangle-232" fill="#DDDFDF" x="38" y="37.1428571" width="5" height="7.71428571"></rect>
                </g>
                <g id="building5" transform="translate(172.000000, 129.000000)">
                    <rect id="Rectangle-228-Copy" fill="#D0D3D4" x="0" y="0" width="120" height="107" rx="5"></rect>
                    <rect id="Rectangle-319" fill="#FFFFFF" x="18" y="27" width="5" height="5"></rect>
                    <rect id="Rectangle-361" fill="#FFFFFF" x="108" y="57" width="5" height="5"></rect>
                    <rect id="Rectangle-360" fill="#FFFFFF" x="98" y="57" width="5" height="5"></rect>
                    <rect id="Rectangle-359" fill="#FFFFFF" x="88" y="57" width="5" height="5"></rect>
                    <rect id="Rectangle-358" fill="#FFFFFF" x="78" y="57" width="5" height="5"></rect>
                    <rect id="Rectangle-357" fill="#FFFFFF" x="68" y="57" width="5" height="5"></rect>
                    <rect id="Rectangle-356" fill="#FFFFFF" x="58" y="57" width="5" height="5"></rect>
                    <rect id="Rectangle-355" fill="#FFFFFF" x="48" y="57" width="5" height="5"></rect>
                    <rect id="Rectangle-354" fill="#FFFFFF" x="38" y="57" width="5" height="5"></rect>
                    <rect id="Rectangle-353" fill="#FFFFFF" x="28" y="57" width="5" height="5"></rect>
                    <rect id="Rectangle-352" fill="#FFFFFF" x="18" y="57" width="5" height="5"></rect>
                    <rect id="Rectangle-350" fill="#FFFFFF" x="108" y="47" width="5" height="5"></rect>
                    <rect id="Rectangle-349" fill="#FFFFFF" x="98" y="47" width="5" height="5"></rect>
                    <rect id="Rectangle-348" fill="#FFFFFF" x="88" y="47" width="5" height="5"></rect>
                    <rect id="Rectangle-347" fill="#FFFFFF" x="78" y="47" width="5" height="5"></rect>
                    <rect id="Rectangle-346" fill="#FFFFFF" x="68" y="47" width="5" height="5"></rect>
                    <rect id="Rectangle-345" fill="#FFFFFF" x="58" y="47" width="5" height="5"></rect>
                    <rect id="Rectangle-344" fill="#FFFFFF" x="48" y="47" width="5" height="5"></rect>
                    <rect id="Rectangle-343" fill="#FFFFFF" x="38" y="47" width="5" height="5"></rect>
                    <rect id="Rectangle-342" fill="#FFFFFF" x="28" y="47" width="5" height="5"></rect>
                    <rect id="Rectangle-341" fill="#FFFFFF" x="18" y="47" width="5" height="5"></rect>
                    <rect id="Rectangle-339" fill="#FFFFFF" x="108" y="37" width="5" height="5"></rect>
                    <rect id="Rectangle-338" fill="#FFFFFF" x="98" y="37" width="5" height="5"></rect>
                    <rect id="Rectangle-337" fill="#FFFFFF" x="88" y="37" width="5" height="5"></rect>
                    <rect id="Rectangle-336" fill="#FFFFFF" x="78" y="37" width="5" height="5"></rect>
                    <rect id="Rectangle-335" fill="#FFFFFF" x="68" y="37" width="5" height="5"></rect>
                    <rect id="Rectangle-334" fill="#FFFFFF" x="58" y="37" width="5" height="5"></rect>
                    <rect id="Rectangle-333" fill="#FFFFFF" x="48" y="37" width="5" height="5"></rect>
                    <rect id="Rectangle-332" fill="#FFFFFF" x="38" y="37" width="5" height="5"></rect>
                    <rect id="Rectangle-331" fill="#FFFFFF" x="28" y="37" width="5" height="5"></rect>
                    <rect id="Rectangle-330" fill="#FFFFFF" x="18" y="37" width="5" height="5"></rect>
                    <rect id="Rectangle-328" fill="#FFFFFF" x="108" y="27" width="5" height="5"></rect>
                    <rect id="Rectangle-327" fill="#FFFFFF" x="98" y="27" width="5" height="5"></rect>
                    <rect id="Rectangle-326" fill="#FFFFFF" x="88" y="27" width="5" height="5"></rect>
                    <rect id="Rectangle-325" fill="#FFFFFF" x="78" y="27" width="5" height="5"></rect>
                    <rect id="Rectangle-324" fill="#FFFFFF" x="68" y="27" width="5" height="5"></rect>
                    <rect id="Rectangle-323" fill="#FFFFFF" x="58" y="27" width="5" height="5"></rect>
                    <rect id="Rectangle-322" fill="#FFFFFF" x="48" y="27" width="5" height="5"></rect>
                    <rect id="Rectangle-321" fill="#FFFFFF" x="38" y="27" width="5" height="5"></rect>
                    <rect id="Rectangle-320" fill="#FFFFFF" x="28" y="27" width="5" height="5"></rect>
                    <rect id="Rectangle-317" fill="#FFFFFF" x="108" y="17" width="5" height="5"></rect>
                    <rect id="Rectangle-316" fill="#FFFFFF" x="98" y="17" width="5" height="5"></rect>
                    <rect id="Rectangle-315" fill="#FFFFFF" x="88" y="17" width="5" height="5"></rect>
                    <rect id="Rectangle-314" fill="#FFFFFF" x="78" y="17" width="5" height="5"></rect>
                    <rect id="Rectangle-313" fill="#FFFFFF" x="68" y="17" width="5" height="5"></rect>
                    <rect id="Rectangle-312-Copy" fill="#FFFFFF" x="58" y="17" width="5" height="5"></rect>
                    <rect id="Rectangle-311" fill="#FFFFFF" x="48" y="17" width="5" height="5"></rect>
                    <rect id="Rectangle-310" fill="#FFFFFF" x="38" y="17" width="5" height="5"></rect>
                    <rect id="Rectangle-309" fill="#FFFFFF" x="28" y="17" width="5" height="5"></rect>
                    <rect id="Rectangle-308" fill="#FFFFFF" x="18" y="17" width="5" height="5"></rect>
                    <rect id="Rectangle-306" fill="#FFFFFF" x="108" y="7" width="5" height="5"></rect>
                    <rect id="Rectangle-305" fill="#FFFFFF" x="98" y="7" width="5" height="5"></rect>
                    <rect id="Rectangle-304" fill="#FFFFFF" x="88" y="7" width="5" height="5"></rect>
                    <rect id="Rectangle-303" fill="#FFFFFF" x="78" y="7" width="5" height="5"></rect>
                    <rect id="Rectangle-302" fill="#FFFFFF" x="68" y="7" width="5" height="5"></rect>
                    <rect id="Rectangle-301" fill="#FFFFFF" x="58" y="7" width="5" height="5"></rect>
                    <rect id="Rectangle-300" fill="#FFFFFF" x="48" y="7" width="5" height="5"></rect>
                    <rect id="Rectangle-299" fill="#FFFFFF" x="38" y="7" width="5" height="5"></rect>
                    <rect id="Rectangle-298" fill="#FFFFFF" x="28" y="7" width="5" height="5"></rect>
                    <rect id="Rectangle-297-Copy" fill="#FFFFFF" x="18" y="7" width="5" height="5"></rect>
                    <rect id="Rectangle-329" fill="#FFFFFF" x="8" y="37" width="5" height="5"></rect>
                    <rect id="Rectangle-351" fill="#FFFFFF" x="8" y="57" width="5" height="5"></rect>
                    <rect id="Rectangle-340" fill="#FFFFFF" x="8" y="47" width="5" height="5"></rect>
                    <rect id="Rectangle-318" fill="#FFFFFF" x="8" y="27" width="5" height="5"></rect>
                    <rect id="Rectangle-307" fill="#FFFFFF" x="8" y="17" width="5" height="5"></rect>
                    <rect id="Rectangle-297" fill="#FFFFFF" x="8" y="7" width="5" height="5"></rect>
                </g>
                <g id="builiding2" transform="translate(99.000000, 139.000000)">
                    <rect id="Rectangle-228-Copy-3" fill="#CED2D6" x="0" y="0" width="36" height="83" rx="5"></rect>
                    <rect id="Rectangle-312" fill="#F8F8F8" x="6" y="6" width="25" height="5"></rect>
                    <rect id="Rectangle-312" fill="#F8F8F8" x="6" y="16" width="25" height="5"></rect>
                    <rect id="Rectangle-312" fill="#F8F8F8" x="6" y="26" width="25" height="5"></rect>
                    <rect id="Rectangle-312" fill="#F8F8F8" x="6" y="36" width="25" height="5"></rect>
                    <rect id="Rectangle-312" fill="#F8F8F8" x="6" y="46" width="25" height="5"></rect>
                </g>
                <g id="building1" transform="translate(7.000000, 116.000000)">
                    <rect id="Rectangle-228-Copy-4" fill="#C7C7C7" x="0" y="0" width="61" height="107" rx="2"></rect>
                    <rect id="Rectangle-354" fill="#F8F8F8" x="43" y="72.5454545" width="6" height="6.45454545"></rect>
                    <rect id="Rectangle-353" fill="#F8F8F8" x="31" y="72.5454545" width="6" height="6.45454545"></rect>
                    <rect id="Rectangle-352" fill="#F8F8F8" x="19" y="72.5454545" width="6" height="6.45454545"></rect>
                    <rect id="Rectangle-351" fill="#F8F8F8" x="7" y="72.5454545" width="6" height="6.45454545"></rect>
                    <rect id="Rectangle-343" fill="#F8F8F8" x="43" y="59.6363636" width="6" height="6.45454545"></rect>
                    <rect id="Rectangle-342" fill="#F8F8F8" x="31" y="59.6363636" width="6" height="6.45454545"></rect>
                    <rect id="Rectangle-341" fill="#F8F8F8" x="19" y="59.6363636" width="6" height="6.45454545"></rect>
                    <rect id="Rectangle-340" fill="#F8F8F8" x="7" y="59.6363636" width="6" height="6.45454545"></rect>
                    <rect id="Rectangle-332" fill="#F8F8F8" x="43" y="46.7272727" width="6" height="6.45454545"></rect>
                    <rect id="Rectangle-331" fill="#F8F8F8" x="31" y="46.7272727" width="6" height="6.45454545"></rect>
                    <rect id="Rectangle-330" fill="#F8F8F8" x="19" y="46.7272727" width="6" height="6.45454545"></rect>
                    <rect id="Rectangle-329" fill="#F8F8F8" x="7" y="46.7272727" width="6" height="6.45454545"></rect>
                    <rect id="Rectangle-321" fill="#F8F8F8" x="43" y="33.8181818" width="6" height="6.45454545"></rect>
                    <rect id="Rectangle-320" fill="#F8F8F8" x="31" y="33.8181818" width="6" height="6.45454545"></rect>
                    <rect id="Rectangle-319" fill="#F8F8F8" x="19" y="33.8181818" width="6" height="6.45454545"></rect>
                    <rect id="Rectangle-318" fill="#F8F8F8" x="7" y="33.8181818" width="6" height="6.45454545"></rect>
                    <rect id="Rectangle-310" fill="#F8F8F8" x="43" y="20.9090909" width="6" height="6.45454545"></rect>
                    <rect id="Rectangle-309" fill="#F8F8F8" x="31" y="20.9090909" width="6" height="6.45454545"></rect>
                    <rect id="Rectangle-308" fill="#F8F8F8" x="19" y="20.9090909" width="6" height="6.45454545"></rect>
                    <rect id="Rectangle-307" fill="#F8F8F8" x="7" y="20.9090909" width="6" height="6.45454545"></rect>
                    <rect id="Rectangle-299" fill="#F8F8F8" x="43" y="8" width="6" height="6.45454545"></rect>
                    <rect id="Rectangle-298" fill="#F8F8F8" x="31" y="8" width="6" height="6.45454545"></rect>
                    <rect id="Rectangle-297-Copy" fill="#F8F8F8" x="19" y="8" width="6" height="6.45454545"></rect>
                    <rect id="Rectangle-297" fill="#F8F8F8" x="7" y="8" width="6" height="6.45454545"></rect>
                </g>
                <g id="building2" transform="translate(61.000000, 108.000000)">
                    <rect id="Rectangle-228" fill="#077CA0" x="0" y="0" width="51" height="107" rx="5"></rect>
                    <rect id="Rectangle-232" fill="#F4F6F7" x="8" y="7" width="5" height="10"></rect>
                    <rect id="Rectangle-232" fill="#F4F6F7" x="18" y="7" width="5" height="10"></rect>
                    <rect id="Rectangle-232" fill="#F4F6F7" x="28" y="7" width="5" height="10"></rect>
                    <rect id="Rectangle-232" fill="#F4F6F7" x="38" y="7" width="5" height="10"></rect>
                    <rect id="Rectangle-232" fill="#F4F6F7" x="8" y="22" width="5" height="10"></rect>
                    <rect id="Rectangle-232" fill="#F4F6F7" x="18" y="22" width="5" height="10"></rect>
                    <rect id="Rectangle-232" fill="#F4F6F7" x="28" y="22" width="5" height="10"></rect>
                    <rect id="Rectangle-232" fill="#F4F6F7" x="38" y="22" width="5" height="10"></rect>
                    <rect id="Rectangle-232" fill="#F4F6F7" x="8" y="37" width="5" height="10"></rect>
                    <rect id="Rectangle-232" fill="#F4F6F7" x="18" y="37" width="5" height="10"></rect>
                    <rect id="Rectangle-232" fill="#F4F6F7" x="28" y="37" width="5" height="10"></rect>
                    <rect id="Rectangle-232" fill="#F4F6F7" x="38" y="37" width="5" height="10"></rect>
                    <rect id="Rectangle-232" fill="#F4F6F7" x="8" y="52" width="5" height="10"></rect>
                    <rect id="Rectangle-232" fill="#F4F6F7" x="18" y="52" width="5" height="10"></rect>
                    <rect id="Rectangle-232" fill="#F4F6F7" x="28" y="52" width="5" height="10"></rect>
                    <rect id="Rectangle-232" fill="#F4F6F7" x="38" y="52" width="5" height="10"></rect>
                    <rect id="Rectangle-232" fill="#F4F6F7" x="8" y="67" width="5" height="10"></rect>
                    <rect id="Rectangle-232" fill="#F4F6F7" x="18" y="67" width="5" height="10"></rect>
                    <rect id="Rectangle-232" fill="#F4F6F7" x="28" y="67" width="5" height="10"></rect>
                    <rect id="Rectangle-232" fill="#F4F6F7" x="38" y="67" width="5" height="10"></rect>
                </g>
                <path d="M300,206 L300,236.003685 C300,236.553935 299.552754,237 299.001346,237 L0.998653681,237 C0.447112483,237 0,236.561774 0,236.003685 L0,206 L300,206 Z" id="road" fill="#B8C1C6"></path>
                <g id="tree2" transform="translate(75.000000, 162.000000)">
                    <path d="M18,43.5 L18,25.0609111" id="Line" stroke="#AC9A76" stroke-width="6" stroke-linecap="square"></path>
                    <circle id="Oval-123" fill="#7EAE49" cx="18.5" cy="14.5" r="14.5"></circle>
                    <circle id="Oval-123-Copy" fill="#7EAE49" cx="14.5" cy="19.5" r="14.5"></circle>
                    <circle id="Oval-123-Copy-2" fill="#7EAE49" cx="21" cy="20" r="12"></circle>
                </g>
                <g id="tree1" transform="translate(129.000000, 154.000000)">
                    <path d="M19,54.5 L19,36.0609111" id="Line-Copy-2" stroke="#AC9A76" stroke-width="6" stroke-linecap="square"></path>
                    <ellipse id="Oval-123" fill="#7EAE49" cx="20" cy="19.5" rx="12" ry="14.5"></ellipse>
                    <ellipse id="Oval-123-Copy" fill="#7EAE49" cx="12" cy="28.5" rx="12" ry="14.5"></ellipse>
                    <ellipse id="Oval-123-Copy-2" fill="#7EAE49" cx="24" cy="28" rx="10" ry="12"></ellipse>
                    <ellipse id="Oval-123" fill="#7EAE49" cx="13" cy="14.5" rx="12" ry="14.5"></ellipse>
                </g>
                <ellipse id="sun" fill="#F88B1C" cx="42" cy="43.2038261" rx="17" ry="17.2038261"></ellipse>
            </g>
            <g id="user4-card" transform="translate(330.000000, 0.000000)">
                <g>
                    <rect id="card4" fill="#2F4149" filter="url(#filter-2)" sketch:type="MSShapeGroup" x="0" y="0" width="108" height="88" rx="1"></rect>
                    <g id="user4-avatar" transform="translate(4.000000, 68.000000)">
                        <mask id="mask-4" sketch:name="Mask" fill="white">
                            <use xlink:href="#path-3"></use>
                        </mask>
                        <use id="Mask" fill="#FFFFFF" sketch:type="MSShapeGroup" xlink:href="#path-3"></use>
                        <g id="g236" mask="url(#mask-4)" fill="#F88B1C" sketch:type="MSShapeGroup">
                            <g transform="translate(2.817748, 2.818589)">
                                <path d="M8.33248218,3.68142189 C8.33248218,1.64835665 6.67431823,0 4.62915677,0 C2.58399531,0 0.925831353,1.64835665 0.925831353,3.68142189 C0.925831353,5.71448712 2.58399531,7.36284377 4.62915677,7.36284377 C6.67431823,7.36284377 8.33248218,5.71448712 8.33248218,3.68142189" id="Fill-1585"></path>
                                <path d="M4.62915677,7.36284377 C2.0729364,7.36284377 0,9.42351967 0,11.9646211 L0,12.8849766 L9.25831353,12.8849766 L9.25831353,11.9646211 C9.25831353,9.42351967 7.18537713,7.36284377 4.62915677,7.36284377" id="Fill-1586"></path>
                            </g>
                        </g>
                    </g>
                    <rect id="user4-name" fill="#FFFFFF" sketch:type="MSShapeGroup" x="22" y="73" width="39" height="5"></rect>
                </g>
                <g id="map-group" transform="translate(5.000000, 5.000000)">
                    <g id="streets">
                        <mask id="mask-6" sketch:name="street-bg" fill="white">
                            <use xlink:href="#path-5"></use>
                        </mask>
                        <use id="street-bg" fill="#FFFFFF" sketch:type="MSShapeGroup" xlink:href="#path-5"></use>
                        <path d="M26.1156708,47.319358 L6,67.4350288 L15.2036872,76.6387161 L51.819358,40.0230453 L92.7175144,80.9212017 L101.921202,71.7175144 L61.0230453,30.819358 L102.638716,-10.7963128 L93.4350288,-20 L65.319358,8.1156708 L42.8526045,-14.3510827 L33.6489173,-5.14739548 L56.1156708,17.319358 L35.319358,38.1156708 L-15.6731964,-12.8768836 L-24.8768836,-3.67319639 L26.1156708,47.319358 Z" id="street4" fill="#D3D3D3" sketch:type="MSShapeGroup" mask="url(#mask-6)"></path>
                    </g>
                    <path d="M57.9959958,14.1045333 L57.9959958,14.1045333 C52.7603793,9.10142857 44.2711275,9.10142857 39.0347734,14.1045333 C34.3169652,18.6121905 33.7858799,27.1003429 37.7896733,32.2 L48.5153846,47 L59.2418335,32.2 C63.2448894,27.1003429 62.713804,18.6121905 57.9959958,14.1045333 L57.9959958,14.1045333 L57.9959958,14.1045333 Z M48.6459431,27.2666667 C46.2014752,27.2666667 44.2202318,25.3736762 44.2202318,23.0380952 C44.2202318,20.703219 46.2014752,18.8095238 48.6459431,18.8095238 C51.090411,18.8095238 53.0716544,20.703219 53.0716544,23.0380952 C53.0716544,25.3736762 51.090411,27.2666667 48.6459431,27.2666667 L48.6459431,27.2666667 L48.6459431,27.2666667 Z" id="map-pin" fill="#077CA0" sketch:type="MSShapeGroup"></path>
                </g>
            </g>
        </g>
    </g>
</svg>