<?xml version="1.0" encoding="UTF-8" standalone="no"?>
<svg width="336px" height="236px" viewBox="0 0 336 236" version="1.1" xmlns="http://www.w3.org/2000/svg" xmlns:xlink="http://www.w3.org/1999/xlink" xmlns:sketch="http://www.bohemiancoding.com/sketch/ns">
    <!-- Generator: Sketch 3.4.4 (17249) - http://www.bohemiancoding.com/sketch -->
    <title>case-audio</title>
    <desc>Created with Sketch.</desc>
    <defs>
        <filter x="-50%" y="-50%" width="200%" height="200%" filterUnits="objectBoundingBox" id="filter-1">
            <feOffset dx="0" dy="1" in="SourceAlpha" result="shadowOffsetOuter1"></feOffset>
            <feGaussianBlur stdDeviation="1.5" in="shadowOffsetOuter1" result="shadowBlurOuter1"></feGaussianBlur>
            <feColorMatrix values="0 0 0 0 0   0 0 0 0 0   0 0 0 0 0  0 0 0 0.35 0" in="shadowBlurOuter1" type="matrix" result="shadowMatrixOuter1"></feColorMatrix>
            <feMerge>
                <feMergeNode in="shadowMatrixOuter1"></feMergeNode>
                <feMergeNode in="SourceGraphic"></feMergeNode>
            </feMerge>
        </filter>
        <filter x="-50%" y="-50%" width="200%" height="200%" filterUnits="objectBoundingBox" id="filter-2">
            <feOffset dx="0" dy="1" in="SourceAlpha" result="shadowOffsetOuter1"></feOffset>
            <feGaussianBlur stdDeviation="1.5" in="shadowOffsetOuter1" result="shadowBlurOuter1"></feGaussianBlur>
            <feColorMatrix values="0 0 0 0 0   0 0 0 0 0   0 0 0 0 0  0 0 0 0.35 0" in="shadowBlurOuter1" type="matrix" result="shadowMatrixOuter1"></feColorMatrix>
            <feMerge>
                <feMergeNode in="shadowMatrixOuter1"></feMergeNode>
                <feMergeNode in="SourceGraphic"></feMergeNode>
            </feMerge>
        </filter>
        <filter x="-50%" y="-50%" width="200%" height="200%" filterUnits="objectBoundingBox" id="filter-3">
            <feOffset dx="0" dy="1" in="SourceAlpha" result="shadowOffsetOuter1"></feOffset>
            <feGaussianBlur stdDeviation="1.5" in="shadowOffsetOuter1" result="shadowBlurOuter1"></feGaussianBlur>
            <feColorMatrix values="0 0 0 0 0   0 0 0 0 0   0 0 0 0 0  0 0 0 0.35 0" in="shadowBlurOuter1" type="matrix" result="shadowMatrixOuter1"></feColorMatrix>
            <feMerge>
                <feMergeNode in="shadowMatrixOuter1"></feMergeNode>
                <feMergeNode in="SourceGraphic"></feMergeNode>
            </feMerge>
        </filter>
    </defs>
    <g id="Style-Inventory" stroke="none" stroke-width="1" fill="none" fill-rule="evenodd" sketch:type="MSPage">
        <g id="Uses-cases" sketch:type="MSArtboardGroup" transform="translate(-179.000000, -1529.000000)">
            <g id="case-audio" sketch:type="MSLayerGroup" transform="translate(182.000000, 1531.000000)">
                <g id="Group-Copy-6" transform="translate(0.000000, 0.128448)" sketch:type="MSShapeGroup">
                    <rect id="Rectangle-177" fill="#F7F7F7" x="0" y="0" width="329.666667" height="140.875" rx="1"></rect>
                    <g id="g106" transform="translate(0.000000, 140.616528)">
                        <g>
                            <g>
                                <path d="M329.666667,0.685195652 L329.666667,41.2095732 L0,41.2095732 L0,0.685195652 L329.666667,0.685195652 Z" id="Fill-247" fill="#2F4149"></path>
                                <path d="M159.496487,24.1465179 L67.6239316,24.1465179 C65.9304142,24.1465179 64.5615131,22.7574818 64.5615131,21.0390546 C64.5615131,19.3237349 65.9304142,17.9315913 67.6239316,17.9315913 L159.496487,17.9315913 C161.190004,17.9315913 162.558906,19.3237349 162.558906,21.0390546 C162.558906,22.7574818 161.190004,24.1465179 159.496487,24.1465179" id="Fill-1870" fill="#1B1D20"></path>
                                <path d="M18.3745111,33.4689077 C16.6809936,33.4689077 15.3120926,32.0798716 15.3120926,30.3614444 L15.3120926,11.7166648 C15.3120926,10.0013451 16.6809936,8.60920153 18.3745111,8.60920153 C20.0680285,8.60920153 21.4369296,10.0013451 21.4369296,11.7166648 L21.4369296,30.3614444 C21.4369296,32.0798716 20.0680285,33.4689077 18.3745111,33.4689077" id="Fill-1871" fill="#FFFFFF"></path>
                                <path d="M30.6241851,33.4689077 C28.9306677,33.4689077 27.5617666,32.0798716 27.5617666,30.3614444 L27.5617666,11.7166648 C27.5617666,10.0013451 28.9306677,8.60920153 30.6241851,8.60920153 C32.3177026,8.60920153 33.6866037,10.0013451 33.6866037,11.7166648 L33.6866037,30.3614444 C33.6866037,32.0798716 32.3177026,33.4689077 30.6241851,33.4689077" id="Fill-1872" fill="#FFFFFF"></path>
                                <path d="M110.873877,17.9315913 L48.9986962,17.9315913 C47.3051788,17.9315913 45.9362777,19.3237349 45.9362777,21.0390546 C45.9362777,22.7574818 47.3051788,24.1465179 48.9986962,24.1465179 L120.186495,24.1465179 L120.186495,17.9315913" id="Fill-2553" fill="#3AB0D5"></path>
                                <path d="M308.49837,24.1465179 L216.625815,24.1465179 C214.932297,24.1465179 213.563396,22.7574818 213.563396,21.0390546 C213.563396,19.3237349 214.932297,17.9315913 216.625815,17.9315913 L308.49837,17.9315913 C310.191888,17.9315913 311.560789,19.3237349 311.560789,21.0390546 C311.560789,22.7574818 310.191888,24.1465179 308.49837,24.1465179" id="Fill-1870" fill="#1B1D20"></path>
                                <path d="M233.997429,24.1465179 L142.124873,24.1465179 C140.431356,24.1465179 139.062455,22.7574818 139.062455,21.0390546 C139.062455,19.3237349 140.431356,17.9315913 142.124873,17.9315913 L233.997429,17.9315913 C235.690946,17.9315913 237.059847,19.3237349 237.059847,21.0390546 C237.059847,22.7574818 235.690946,24.1465179 233.997429,24.1465179" id="Fill-1870" fill="#1B1D20"></path>
                                <path d="M152.380839,17.9315913 L118.786764,17.9315913 C117.867298,17.9315913 117.124076,19.3237349 117.124076,21.0390546 C117.124076,22.7574818 117.867298,24.1465179 118.786764,24.1465179 L243.686966,24.1465179 L243.686966,17.9315913" id="Fill-2553" fill="#3AB0D5"></path>
                            </g>
                        </g>
                    </g>
                    <rect id="Rectangle-179" fill="#FFFFFF" x="239.908192" y="150.98323" width="5.58757062" height="20.7334025"></rect>
                    <g id="g135" transform="translate(7.666667, 144.708333)">
                        <g id="Page-1">
                            <g>
                                <g id="g135">
                                    <path d="M31.6629002,16.0212656 C31.6629002,24.8699763 24.5747778,32.0425311 15.8314501,32.0425311 C7.08812235,32.0425311 0,24.8699763 0,16.0212656 C0,7.17310731 7.08812235,0 15.8314501,0 C24.5747778,0 31.6629002,7.17310731 31.6629002,16.0212656" id="Fill-760" fill="#C7CBC7"></path>
                                    <path d="M18.0150984,7.73440406 L21.2905708,7.73440406 L21.2905708,24.3081271 L18.0150984,24.3081271 L18.0150984,7.73440406 L18.0150984,7.73440406 Z" id="Fill-1899" fill="#FFFFFF"></path>
                                    <path d="M17.4691863,7.18194663 L21.8364829,7.18194663 L21.8364829,24.8605845 L17.4691863,24.8605845 L17.4691863,7.18194663 L17.4691863,7.18194663 Z M18.5610105,23.7556696 L20.7446587,23.7556696 L20.7446587,8.2868615 L18.5610105,8.2868615 L18.5610105,23.7556696 L18.5610105,23.7556696 Z" id="Fill-1900" fill="#FFFFFF"></path>
                                    <path d="M10.3723294,7.73440406 L13.6478018,7.73440406 L13.6478018,24.3081271 L10.3723294,24.3081271 L10.3723294,7.73440406 L10.3723294,7.73440406 Z" id="Fill-1901" fill="#FFFFFF"></path>
                                    <path d="M9.8264173,7.18194663 L14.1937139,7.18194663 L14.1937139,24.8605845 L9.8264173,24.8605845 L9.8264173,7.18194663 L9.8264173,7.18194663 Z M10.9182414,23.7556696 L13.1018897,23.7556696 L13.1018897,8.2868615 L10.9182414,8.2868615 L10.9182414,23.7556696 L10.9182414,23.7556696 Z" id="Fill-1902" fill="#FFFFFF"></path>
                                </g>
                            </g>
                        </g>
                    </g>
                </g>
                <g id="Group-Copy-7" transform="translate(4.791667, 39.291667)" stroke="#077CA0" stroke-width="4" stroke-linecap="square" sketch:type="MSShapeGroup">
                    <path d="M320.083333,33.5416667 L320.083333,38.3333333" id="Line-Copy-39"></path>
                    <path d="M311.458333,33.5416667 L311.458333,38.3333333" id="Line-Copy-38"></path>
                    <path d="M302.833333,33.5416667 L302.833333,38.3333333" id="Line-Copy-37"></path>
                    <path d="M294.208333,27.7916667 L294.208333,45.0416667" id="Line-Copy-36"></path>
                    <path d="M285.583333,27.7916667 L285.583333,45.0416667" id="Line-Copy-35"></path>
                    <path d="M276.958333,19.6458333 L276.958333,53.1875" id="Line-Copy-34"></path>
                    <path d="M268.333333,28.75 L268.333333,43.125" id="Line-Copy-33"></path>
                    <path d="M259.708333,22.0416667 L259.708333,50.7916667" id="Line-Copy-32"></path>
                    <path d="M251.083333,16.2916667 L251.083333,56.5416667" id="Line-Copy-31"></path>
                    <path d="M242.458333,16.2916667 L242.458333,56.5416667" id="Line-Copy-30"></path>
                    <path d="M233.833333,4.79166667 L233.833333,67.0833333" id="Line-Copy-29"></path>
                    <path d="M225.208333,4.79166667 L225.208333,67.0833333" id="Line-Copy-28"></path>
                    <path d="M216.583333,4.79166667 L216.583333,67.0833333" id="Line-Copy-27"></path>
                    <path d="M207.958333,19.6458333 L207.958333,53.1875" id="Line-Copy-26"></path>
                    <path d="M199.333333,9.58333333 L199.333333,62.2916667" id="Line-Copy-25"></path>
                    <path d="M190.708333,9.58333333 L190.708333,62.2916667" id="Line-Copy-24"></path>
                    <path d="M182.083333,4.79166667 L182.083333,67.0833333" id="Line-Copy-23"></path>
                    <path d="M173.458333,19.6458333 L173.458333,53.1875" id="Line-Copy-22"></path>
                    <path d="M164.833333,23.9583333 L164.833333,47.9166667" id="Line-Copy-21"></path>
                    <path d="M156.208333,4.79166667 L156.208333,67.0833333" id="Line-Copy-20"></path>
                    <path d="M147.583333,0 L147.583333,71.875" id="Line-Copy-19"></path>
                    <path d="M138.958333,9.58333333 L138.958333,62.2916667" id="Line-Copy-18"></path>
                    <path d="M130.333333,19.6458333 L130.333333,53.1875" id="Line-Copy-17"></path>
                    <path d="M121.708333,23.9583333 L121.708333,47.9166667" id="Line-Copy-16"></path>
                    <path d="M113.083333,23.9583333 L113.083333,47.9166667" id="Line-Copy-15"></path>
                    <path d="M104.458333,19.6458333 L104.458333,53.1875" id="Line-Copy-14"></path>
                    <path d="M95.8333333,14.375 L95.8333333,57.5" id="Line-Copy-13"></path>
                    <path d="M87.2083333,9.58333333 L87.2083333,62.2916667" id="Line-Copy-12"></path>
                    <path d="M78.5833333,19.6458333 L78.5833333,53.1875" id="Line-Copy-11"></path>
                    <path d="M69.9583333,19.6458333 L69.9583333,53.1875" id="Line-Copy-10"></path>
                    <path d="M61.3333333,23.9583333 L61.3333333,47.9166667" id="Line-Copy-9"></path>
                    <path d="M52.7083333,23.9583333 L52.7083333,47.9166667" id="Line-Copy-8"></path>
                    <path d="M44.0833333,19.6458333 L44.0833333,53.1875" id="Line-Copy-7"></path>
                    <path d="M35.4583333,31.625 L35.4583333,41.2083333" id="Line-Copy-6"></path>
                    <path d="M26.8333333,31.625 L26.8333333,41.2083333" id="Line-Copy-5"></path>
                    <path d="M18.2083333,31.625 L18.2083333,41.2083333" id="Line-Copy-4"></path>
                    <path d="M9.58333333,33.5416667 L9.58333333,38.3333333" id="Line-Copy-47"></path>
                    <path d="M0.958333333,33.5416667 L0.958333333,38.3333333" id="Line-Copy-3"></path>
                </g>
                <rect id="Rectangle-1226" stroke="#2F4149" fill="#2F4149" filter="url(#filter-1)" sketch:type="MSShapeGroup" x="0" y="193.583333" width="102.310345" height="36.4166667" rx="2"></rect>
                <rect id="Rectangle-1226-Copy" fill="#077CA0" filter="url(#filter-2)" sketch:type="MSShapeGroup" x="113.678161" y="193.583333" width="102.310345" height="36.4166667" rx="2"></rect>
                <rect id="Rectangle-1226-Copy-2" fill="#2F4149" filter="url(#filter-3)" sketch:type="MSShapeGroup" x="227.356322" y="193.583333" width="102.310345" height="36.4166667" rx="2"></rect>
                <path d="M36.165107,217.333333 L39.621107,217.333333 C43.059107,217.333333 45.363107,215.443333 45.363107,211.411333 C45.363107,207.379333 43.059107,205.597333 39.477107,205.597333 L36.165107,205.597333 L36.165107,217.333333 Z M38.811107,215.191333 L38.811107,207.739333 L39.315107,207.739333 C41.313107,207.739333 42.645107,208.603333 42.645107,211.411333 C42.645107,214.219333 41.313107,215.191333 39.315107,215.191333 L38.811107,215.191333 Z M52.365107,217.549333 C55.533107,217.549333 57.693107,215.245333 57.693107,211.411333 C57.693107,207.595333 55.533107,205.381333 52.365107,205.381333 C49.197107,205.381333 47.037107,207.577333 47.037107,211.411333 C47.037107,215.245333 49.197107,217.549333 52.365107,217.549333 L52.365107,217.549333 Z M52.365107,215.263333 C50.763107,215.263333 49.755107,213.769333 49.755107,211.411333 C49.755107,209.071333 50.763107,207.667333 52.365107,207.667333 C53.967107,207.667333 54.975107,209.071333 54.975107,211.411333 C54.975107,213.769333 53.967107,215.263333 52.365107,215.263333 L52.365107,215.263333 Z M59.349107,211.537333 C59.349107,215.479333 61.869107,217.549333 65.037107,217.549333 C66.675107,217.549333 68.133107,216.919333 68.961107,216.127333 L68.961107,210.727333 L64.677107,210.727333 L64.677107,212.887333 L66.621107,212.887333 L66.621107,214.903333 C66.333107,215.137333 65.847107,215.263333 65.361107,215.263333 C63.165107,215.263333 62.067107,213.859333 62.067107,211.447333 C62.067107,209.089333 63.345107,207.667333 65.163107,207.667333 C66.171107,207.667333 66.729107,208.009333 67.305107,208.549333 L68.763107,206.911333 C67.989107,206.119333 66.765107,205.381333 65.127107,205.381333 C61.941107,205.381333 59.349107,207.649333 59.349107,211.537333 L59.349107,211.537333 Z" id="DOG" fill="#FFFFFF" sketch:type="MSShapeGroup"></path>
                <path d="M146.806333,217.333333 L151.162333,217.333333 C153.700333,217.333333 155.716333,216.271333 155.716333,213.877333 C155.716333,212.311333 154.852333,211.429333 153.178333,211.123333 L153.178333,211.051333 C154.546333,210.691333 155.140333,209.557333 155.140333,208.513333 C155.140333,206.263333 153.250333,205.597333 150.820333,205.597333 L146.806333,205.597333 L146.806333,217.333333 Z M149.452333,210.331333 L149.452333,207.649333 L150.712333,207.649333 C151.954333,207.649333 152.548333,208.009333 152.548333,208.891333 C152.548333,209.773333 151.990333,210.331333 150.694333,210.331333 L149.452333,210.331333 Z M149.452333,215.281333 L149.452333,212.203333 L150.946333,212.203333 C152.404333,212.203333 153.124333,212.653333 153.124333,213.679333 C153.124333,214.741333 152.386333,215.281333 150.946333,215.281333 L149.452333,215.281333 Z M157.696333,217.333333 L160.342333,217.333333 L160.342333,205.597333 L157.696333,205.597333 L157.696333,217.333333 Z M165.760333,207.703333 L167.128333,207.703333 C168.514333,207.703333 169.270333,208.099333 169.270333,209.251333 C169.270333,210.403333 168.514333,210.997333 167.128333,210.997333 L165.760333,210.997333 L165.760333,207.703333 Z M172.438333,217.333333 L169.774333,212.635333 C171.034333,212.077333 171.862333,210.979333 171.862333,209.251333 C171.862333,206.461333 169.828333,205.597333 167.344333,205.597333 L163.114333,205.597333 L163.114333,217.333333 L165.760333,217.333333 L165.760333,213.103333 L167.218333,213.103333 L169.468333,217.333333 L172.438333,217.333333 Z M174.202333,217.333333 L177.658333,217.333333 C181.096333,217.333333 183.400333,215.443333 183.400333,211.411333 C183.400333,207.379333 181.096333,205.597333 177.514333,205.597333 L174.202333,205.597333 L174.202333,217.333333 Z M176.848333,215.191333 L176.848333,207.739333 L177.352333,207.739333 C179.350333,207.739333 180.682333,208.603333 180.682333,211.411333 C180.682333,214.219333 179.350333,215.191333 177.352333,215.191333 L176.848333,215.191333 Z" id="BIRD" fill="#FFFFFF" sketch:type="MSShapeGroup"></path>
                <path d="M264.300494,211.537333 C264.300494,215.479333 266.784494,217.549333 269.826494,217.549333 C271.284494,217.549333 272.580494,216.955333 273.552494,215.821333 L272.094494,214.219333 C271.518494,214.849333 270.816494,215.263333 269.862494,215.263333 C268.134494,215.263333 267.018494,213.859333 267.018494,211.447333 C267.018494,209.089333 268.296494,207.667333 269.934494,207.667333 C270.744494,207.667333 271.320494,208.009333 271.914494,208.549333 L273.372494,206.911333 C272.580494,206.101333 271.356494,205.381333 269.898494,205.381333 C266.874494,205.381333 264.300494,207.649333 264.300494,211.537333 L264.300494,211.537333 Z M277.800494,212.473333 L278.088494,211.393333 C278.412494,210.223333 278.718494,208.855333 279.006494,207.613333 L279.078494,207.613333 C279.384494,208.837333 279.708494,210.223333 280.032494,211.393333 L280.302494,212.473333 L277.800494,212.473333 Z M281.562494,217.333333 L284.370494,217.333333 L280.698494,205.597333 L277.512494,205.597333 L273.840494,217.333333 L276.540494,217.333333 L277.260494,214.543333 L280.842494,214.543333 L281.562494,217.333333 Z M287.214494,217.333333 L289.878494,217.333333 L289.878494,207.829333 L293.100494,207.829333 L293.100494,205.597333 L283.992494,205.597333 L283.992494,207.829333 L287.214494,207.829333 L287.214494,217.333333 Z" id="CAT" fill="#FFFFFF" sketch:type="MSShapeGroup"></path>
            </g>
        </g>
    </g>
</svg>