<?xml version="1.0" encoding="UTF-8" standalone="no"?>
<svg width="452px" height="235px" viewBox="0 0 452 235" version="1.1" xmlns="http://www.w3.org/2000/svg" xmlns:xlink="http://www.w3.org/1999/xlink" xmlns:sketch="http://www.bohemiancoding.com/sketch/ns">
    <!-- Generator: Sketch 3.4.4 (17249) - http://www.bohemiancoding.com/sketch -->
    <title>case-translation</title>
    <desc>Created with Sketch.</desc>
    <defs>
        <ellipse id="path-1" cx="7.51222809" cy="7.51447032" rx="7.51222809" ry="7.51447032"></ellipse>
    </defs>
    <g id="Style-Inventory" stroke="none" stroke-width="1" fill="none" fill-rule="evenodd" sketch:type="MSPage">
        <g id="Uses-cases" sketch:type="MSArtboardGroup" transform="translate(-788.000000, -1909.000000)">
            <g id="case-translation" sketch:type="MSLayerGroup" transform="translate(790.000000, 1911.000000)">
                <g id="Group-Copy" transform="translate(354.000000, 0.000000)">
                    <rect id="Rectangle-163" fill="#2F4149" sketch:type="MSShapeGroup" x="0" y="0" width="92.8070175" height="69.6052632" rx="1"></rect>
                    <rect id="Rectangle-273" fill="#FFFFFF" sketch:type="MSShapeGroup" x="6.05263158" y="6.05263158" width="80.7017544" height="36.3157895"></rect>
                    <rect id="Rectangle-262" fill="#077CA0" sketch:type="MSShapeGroup" x="12.1052632" y="32.2807018" width="65.5701754" height="4.03508772"></rect>
                    <g id="g236" transform="translate(6.052632, 48.421053)">
                        <mask id="mask-2" sketch:name="Mask" fill="white">
                            <use xlink:href="#path-1"></use>
                        </mask>
                        <use id="Mask" fill="#FFFFFF" sketch:type="MSShapeGroup" xlink:href="#path-1"></use>
                        <g mask="url(#mask-2)" fill="#F88B1C" sketch:type="MSShapeGroup">
                            <g transform="translate(2.842465, 2.843313)">
                                <path d="M8.40557413,3.71371506 C8.40557413,1.66281592 6.73286488,0 4.6697634,0 C2.60666193,0 0.933952681,1.66281592 0.933952681,3.71371506 C0.933952681,5.7646142 2.60666193,7.42743012 4.6697634,7.42743012 C6.73286488,7.42743012 8.40557413,5.7646142 8.40557413,3.71371506" id="Fill-1585"></path>
                                <path d="M4.6697634,7.42743012 C2.09112005,7.42743012 0,9.50618213 0,12.0695739 L0,12.9980027 L9.33952681,12.9980027 L9.33952681,12.0695739 C9.33952681,9.50618213 7.24840676,7.42743012 4.6697634,7.42743012" id="Fill-1586"></path>
                            </g>
                        </g>
                    </g>
                    <rect id="Rectangle-262" fill="#077CA0" sketch:type="MSShapeGroup" x="53.4649123" y="22.1929825" width="13.1140351" height="4.03508772"></rect>
                    <rect id="Rectangle-262" fill="#077CA0" sketch:type="MSShapeGroup" x="12.1052632" y="22.1929825" width="38.3333333" height="4.03508772"></rect>
                    <rect id="Rectangle-262" fill="#077CA0" sketch:type="MSShapeGroup" x="34.2982456" y="12.1052632" width="26.2280702" height="4.03508772"></rect>
                    <rect id="Rectangle-262" fill="#077CA0" sketch:type="MSShapeGroup" x="12.1052632" y="12.1052632" width="12.1052632" height="4.03508772"></rect>
                    <rect id="Rectangle-262" fill="#077CA0" sketch:type="MSShapeGroup" x="27.2368421" y="12.1052632" width="4.03508772" height="4.03508772"></rect>
                    <rect id="Rectangle-262" fill="#FFFFFF" sketch:type="MSShapeGroup" x="27.2368421" y="53.4649123" width="39.3421053" height="5.04385965"></rect>
                </g>
                <g id="Group-Copy-8" transform="translate(0.911406, 0.000000)" sketch:type="MSShapeGroup">
                    <rect id="Rectangle-177" fill="#F7F7F7" x="0" y="0" width="332.436975" height="189.119042" rx="1"></rect>
                    <g id="g106" transform="translate(0.000000, 187.218348)">
                        <g>
                            <g>
                                <path d="M332.436975,0.690953598 L332.436975,41.5558722 L0,41.5558722 L0,0.690953598 L332.436975,0.690953598 Z" id="Fill-247" fill="#2F4149"></path>
                                <path d="M160.836794,24.3494298 L68.1922,24.3494298 C66.4844513,24.3494298 65.1040468,22.9487211 65.1040468,21.2158534 C65.1040468,19.4861192 66.4844513,18.082277 68.1922,18.082277 L160.836794,18.082277 C162.544542,18.082277 163.924947,19.4861192 163.924947,21.2158534 C163.924947,22.9487211 162.544542,24.3494298 160.836794,24.3494298" id="Fill-1870" fill="#1B1D20"></path>
                                <path d="M18.5289187,33.750159 C16.8211701,33.750159 15.4407656,32.3494504 15.4407656,30.6165826 L15.4407656,11.8151242 C15.4407656,10.08539 16.8211701,8.68154776 18.5289187,8.68154776 C20.2366674,8.68154776 21.6170719,10.08539 21.6170719,11.8151242 L21.6170719,30.6165826 C21.6170719,32.3494504 20.2366674,33.750159 18.5289187,33.750159" id="Fill-1871" fill="#FFFFFF"></path>
                                <path d="M30.8815312,33.750159 C29.1737826,33.750159 27.7933781,32.3494504 27.7933781,30.6165826 L27.7933781,11.8151242 C27.7933781,10.08539 29.1737826,8.68154776 30.8815312,8.68154776 C32.5892799,8.68154776 33.9696844,10.08539 33.9696844,11.8151242 L33.9696844,30.6165826 C33.9696844,32.3494504 32.5892799,33.750159 30.8815312,33.750159" id="Fill-1872" fill="#FFFFFF"></path>
                                <path d="M111.805591,18.082277 L49.41045,18.082277 C47.7027013,18.082277 46.3222968,19.4861192 46.3222968,21.2158534 C46.3222968,22.9487211 47.7027013,24.3494298 49.41045,24.3494298 L121.196466,24.3494298 L121.196466,18.082277" id="Fill-2553" fill="#3AB0D5"></path>
                                <path d="M311.090794,24.3494298 L218.4462,24.3494298 C216.738451,24.3494298 215.358047,22.9487211 215.358047,21.2158534 C215.358047,19.4861192 216.738451,18.082277 218.4462,18.082277 L311.090794,18.082277 C312.798542,18.082277 314.178947,19.4861192 314.178947,21.2158534 C314.178947,22.9487211 312.798542,24.3494298 311.090794,24.3494298" id="Fill-1870" fill="#1B1D20"></path>
                                <path d="M235.963794,24.3494298 L143.3192,24.3494298 C141.611451,24.3494298 140.231047,22.9487211 140.231047,21.2158534 C140.231047,19.4861192 141.611451,18.082277 143.3192,18.082277 L235.963794,18.082277 C237.671542,18.082277 239.051947,19.4861192 239.051947,21.2158534 C239.051947,22.9487211 237.671542,24.3494298 235.963794,24.3494298" id="Fill-1870" fill="#1B1D20"></path>
                            </g>
                        </g>
                    </g>
                    <rect id="Rectangle-179" fill="#FFFFFF" x="120.159521" y="197.672164" width="5.634525" height="20.9076328"></rect>
                    <g id="g135" transform="translate(7.731092, 191.344538)">
                        <g id="Page-1">
                            <g>
                                <g id="g135">
                                    <path d="M31.928975,16.155898 C31.928975,25.0789677 24.7812886,32.3117961 15.9644875,32.3117961 C7.1476864,32.3117961 0,25.0789677 0,16.155898 C0,7.23338552 7.1476864,0 15.9644875,0 C24.7812886,0 31.928975,7.23338552 31.928975,16.155898" id="Fill-760" fill="#C7CBC7"></path>
                                    <path d="M18.1664858,7.79939906 L21.4694832,7.79939906 L21.4694832,24.512397 L18.1664858,24.512397 L18.1664858,7.79939906 L18.1664858,7.79939906 Z" id="Fill-1899" fill="#FFFFFF"></path>
                                    <path d="M17.6159862,7.24229912 L22.0199827,7.24229912 L22.0199827,25.069497 L17.6159862,25.069497 L17.6159862,7.24229912 L17.6159862,7.24229912 Z M18.7169853,23.9552971 L20.9189836,23.9552971 L20.9189836,8.35649899 L18.7169853,8.35649899 L18.7169853,23.9552971 L18.7169853,23.9552971 Z" id="Fill-1900" fill="#FFFFFF"></path>
                                    <path d="M10.4594918,7.79939906 L13.7624892,7.79939906 L13.7624892,24.512397 L10.4594918,24.512397 L10.4594918,7.79939906 L10.4594918,7.79939906 Z" id="Fill-1901" fill="#FFFFFF"></path>
                                    <path d="M9.90899224,7.24229912 L14.3129888,7.24229912 L14.3129888,25.069497 L9.90899224,25.069497 L9.90899224,7.24229912 L9.90899224,7.24229912 Z M11.0099914,23.9552971 L13.2119896,23.9552971 L13.2119896,8.35649899 L11.0099914,8.35649899 L11.0099914,23.9552971 L11.0099914,23.9552971 Z" id="Fill-1902" fill="#FFFFFF"></path>
                                </g>
                            </g>
                        </g>
                    </g>
                </g>
                <g id="e20" transform="translate(24.159664, 23.540347)" fill="#077CA0" sketch:type="MSShapeGroup">
                    <g id="Page-1">
                        <g>
                            <g id="e20">
                                <path d="M289.229143,96.148666 C289.229143,106.187279 281.01845,114.326594 270.891805,114.326594 L81.8465054,114.326594 L44.6435484,154.894096 L44.6435484,114.326594 L18.3373375,114.326594 C8.21069261,114.326594 0,106.187279 0,96.148666 L0,18.1779285 C0,8.13931594 8.21069261,0 18.3373375,0 L270.891805,0 C281.01845,0 289.229143,8.13931594 289.229143,18.1779285" id="Fill-368"></path>
                            </g>
                        </g>
                    </g>
                </g>
                <path d="M46.8300209,54.8393461 L46.8300209,53.424307 C49.5546439,54.6665007 52.1884067,55.2875883 54.7313881,55.2875883 C56.3954589,55.2875883 57.748961,55.0707936 58.791935,54.6371977 C58.1298223,54.2973522 57.6332452,53.8710869 57.3021889,53.3583891 C56.9711326,52.8456912 56.8056069,52.2436464 56.8056069,51.5522367 C56.8056069,50.644029 57.1322638,49.86474 57.7855873,49.2143461 C58.4389109,48.5639522 59.2225945,48.2387602 60.1366616,48.2387602 C61.0390098,48.2387602 61.8124396,48.5610226 62.4569741,49.205557 C63.1015085,49.8500915 63.4237709,50.6264509 63.4237709,51.5346586 C63.4237709,52.9819315 62.540479,54.186021 60.7738686,55.1469633 C59.0072582,56.1079056 56.7909718,56.5883695 54.1249428,56.5883695 C51.8221969,56.5883695 49.3905806,56.0053675 46.8300209,54.8393461 L46.8300209,54.8393461 Z M57.6757241,51.5610258 C57.6757241,52.2231385 57.9174209,52.792957 58.4008217,53.2704984 C58.8842226,53.7480399 59.4628301,53.986807 60.1366616,53.986807 C60.810493,53.986807 61.3817764,53.7538992 61.8505287,53.2880766 C62.3192811,52.8222539 62.5536537,52.2524354 62.5536537,51.5786039 C62.5536537,50.8930536 62.3178163,50.3100516 61.8461342,49.8295805 C61.3744522,49.3491093 60.801704,49.1088773 60.1278725,49.1088773 C59.4481816,49.1088773 58.8695741,49.3476445 58.3920326,49.8251859 C57.9144912,50.3027274 57.6757241,50.8813349 57.6757241,51.5610258 L57.6757241,51.5610258 Z M63.4237709,45.3295805 L63.4237709,46.7446195 C60.6991479,45.4965664 58.0653852,44.8725492 55.5224037,44.8725492 C53.8583329,44.8725492 52.5019012,45.0922736 51.4530678,45.5317289 C52.1210399,45.8657149 52.6205466,46.2905154 52.951603,46.806143 C53.2826593,47.3217705 53.448185,47.9252801 53.448185,48.6166898 C53.448185,49.5248975 53.1215281,50.3041866 52.4682045,50.9545805 C51.8148809,51.6049743 51.0311974,51.9301664 50.1171303,51.9301664 C49.2089226,51.9301664 48.434028,51.607904 47.7924233,50.9633695 C47.1508185,50.3188351 46.8300209,49.5424756 46.8300209,48.634268 C46.8300209,47.1811357 47.7133129,45.9741165 49.4799233,45.0131742 C51.2465337,44.0522319 53.4628201,43.571768 56.1288491,43.571768 C58.4374543,43.571768 60.8690707,44.1576996 63.4237709,45.3295805 L63.4237709,45.3295805 Z M52.5780678,48.6079008 C52.5780678,47.9399287 52.3349062,47.3686453 51.8485756,46.8940336 C51.3622451,46.4194218 50.7821727,46.1821195 50.1083412,46.1821195 C49.4345097,46.1821195 48.8646912,46.4150274 48.3988686,46.88085 C47.9330459,47.3466726 47.7001381,47.9164912 47.7001381,48.5903227 C47.7001381,49.275873 47.9359756,49.8588749 48.4076576,50.3393461 C48.8793397,50.8198172 49.4520879,51.0600492 50.1259194,51.0600492 C50.8056103,51.0600492 51.3842178,50.8198172 51.8617592,50.3393461 C52.3393007,49.8588749 52.5780678,49.2817323 52.5780678,48.6079008 L52.5780678,48.6079008 Z M80.3602944,58.8735258 C79.3466174,59.8051711 78.3739709,60.2709867 77.4423256,60.2709867 C76.6337278,60.2709867 75.955512,60.002923 75.4076576,59.4667875 C74.8598033,58.930652 74.5858803,58.2700141 74.5858803,57.4848539 C74.5858803,56.4360205 75.136656,54.7426781 76.2382241,52.4047758 L77.0819741,50.611807 C77.7323679,49.2231282 78.05756,48.0981395 78.05756,47.236807 C78.05756,46.135239 77.7367624,45.2504822 77.0951576,44.5825102 C76.4535529,43.9145381 75.6054168,43.580557 74.5507241,43.580557 C73.5604847,43.580557 72.7592232,43.8779173 72.1469155,44.4726469 C71.5346077,45.0673764 71.2284584,45.8481303 71.2284584,46.814932 C71.2284584,47.7055615 71.5155649,48.7485198 72.0897866,49.9438383 L72.43256,50.6557523 C73.0009222,51.8334926 73.2850991,52.7006714 73.2850991,53.2573148 C73.2850991,54.1538037 72.9467235,54.9330928 72.2699623,55.5952055 C71.5932011,56.2573181 70.7948693,56.5883695 69.8749428,56.5883695 C68.9257193,56.5883695 68.1185985,56.2543885 67.4535561,55.5864164 C66.7885137,54.9184443 66.4559975,54.106929 66.4559975,53.1518461 C66.4559975,52.2319196 66.7841192,51.4365174 67.4403725,50.7656156 C68.0966258,50.0947138 68.8788445,49.759268 69.7870522,49.759268 C70.1151788,49.759268 70.4784564,49.8207908 70.8768959,49.9438383 C70.2440803,48.7309416 69.9276772,47.6586867 69.9276772,46.7270414 C69.9276772,45.5141447 70.3656611,44.5048775 71.241642,43.6992094 C72.117623,42.8935413 73.2177096,42.4907133 74.541935,42.4907133 C75.9950673,42.4907133 77.1610712,42.9169785 78.0399819,43.7695219 C78.9188925,44.6220652 79.3583412,45.7543781 79.3583412,47.1664945 C79.3583412,47.869623 79.2850998,48.4760623 79.1386147,48.9858305 C78.9921296,49.4955986 78.6464299,50.3364105 78.1015053,51.5082914 L77.49506,52.8266508 C76.4169296,55.1586937 75.8778725,56.6674677 75.8778725,57.353018 C75.8778725,57.8569267 76.0287499,58.2714734 76.3305092,58.5966703 C76.6322685,58.9218672 77.0175186,59.0844633 77.4862709,59.0844633 C78.1015084,59.0844633 78.8046264,58.735834 79.5956459,58.0385648 L80.3602944,58.8735258 Z M67.4315834,53.1606352 C67.4315834,53.8520449 67.6615616,54.433582 68.1215248,54.9052641 C68.5814881,55.3769461 69.1483769,55.6127836 69.8222084,55.6127836 C70.4784617,55.6127836 71.0394913,55.3754813 71.5053139,54.9008695 C71.9711365,54.4262578 72.2040444,53.8520448 72.2040444,53.1782133 C72.2040444,52.492663 71.9726014,51.9140555 71.5097084,51.4423734 C71.0468155,50.9706914 70.4784618,50.7348539 69.8046303,50.7348539 C69.148377,50.7348539 68.5888123,50.9721562 68.1259194,51.446768 C67.6630264,51.9213797 67.4315834,52.4926631 67.4315834,53.1606352 L67.4315834,53.1606352 Z M83.3925209,50.0844633 L85.9940834,46.4018461 L88.5956459,50.0844633 L85.9940834,53.7670805 L83.3925209,50.0844633 Z M93.3593178,54.8569242 L102.90424,54.8569242 L102.90424,45.3120023 L93.3593178,45.3120023 L93.3593178,54.8569242 Z M91.6278725,56.5883695 L91.6278725,43.580557 L104.635685,43.580557 L104.635685,56.5883695 L91.6278725,56.5883695 Z M121.572208,58.8735258 C120.558531,59.8051711 119.585885,60.2709867 118.65424,60.2709867 C117.845642,60.2709867 117.167426,60.002923 116.619572,59.4667875 C116.071717,58.930652 115.797794,58.2700141 115.797794,57.4848539 C115.797794,56.4360205 116.34857,54.7426781 117.450138,52.4047758 L118.293888,50.611807 C118.944282,49.2231282 119.269474,48.0981395 119.269474,47.236807 C119.269474,46.135239 118.948676,45.2504822 118.307072,44.5825102 C117.665467,43.9145381 116.817331,43.580557 115.762638,43.580557 C114.772399,43.580557 113.971137,43.8779173 113.35883,44.4726469 C112.746522,45.0673764 112.440372,45.8481303 112.440372,46.814932 C112.440372,47.7055615 112.727479,48.7485198 113.301701,49.9438383 L113.644474,50.6557523 C114.212836,51.8334926 114.497013,52.7006714 114.497013,53.2573148 C114.497013,54.1538037 114.158638,54.9330928 113.481876,55.5952055 C112.805115,56.2573181 112.006783,56.5883695 111.086857,56.5883695 C110.137633,56.5883695 109.330513,56.2543885 108.66547,55.5864164 C108.000428,54.9184443 107.667912,54.106929 107.667912,53.1518461 C107.667912,52.2319196 107.996033,51.4365174 108.652287,50.7656156 C109.30854,50.0947138 110.090759,49.759268 110.998966,49.759268 C111.327093,49.759268 111.690371,49.8207908 112.08881,49.9438383 C111.455994,48.7309416 111.139591,47.6586867 111.139591,46.7270414 C111.139591,45.5141447 111.577575,44.5048775 112.453556,43.6992094 C113.329537,42.8935413 114.429624,42.4907133 115.753849,42.4907133 C117.206981,42.4907133 118.372985,42.9169785 119.251896,43.7695219 C120.130807,44.6220652 120.570255,45.7543781 120.570255,47.1664945 C120.570255,47.869623 120.497014,48.4760623 120.350529,48.9858305 C120.204044,49.4955986 119.858344,50.3364105 119.313419,51.5082914 L118.706974,52.8266508 C117.628844,55.1586937 117.089787,56.6674677 117.089787,57.353018 C117.089787,57.8569267 117.240664,58.2714734 117.542423,58.5966703 C117.844183,58.9218672 118.229433,59.0844633 118.698185,59.0844633 C119.313422,59.0844633 120.01654,58.735834 120.80756,58.0385648 L121.572208,58.8735258 Z M108.643497,53.1606352 C108.643497,53.8520449 108.873476,54.433582 109.333439,54.9052641 C109.793402,55.3769461 110.360291,55.6127836 111.034122,55.6127836 C111.690376,55.6127836 112.251405,55.3754813 112.717228,54.9008695 C113.183051,54.4262578 113.415958,53.8520448 113.415958,53.1782133 C113.415958,52.492663 113.184515,51.9140555 112.721622,51.4423734 C112.25873,50.9706914 111.690376,50.7348539 111.016544,50.7348539 C110.360291,50.7348539 109.800726,50.9721562 109.337833,51.446768 C108.87494,51.9213797 108.643497,52.4926631 108.643497,53.1606352 L108.643497,53.1606352 Z M125.703068,56.5883695 L125.703068,47.3071195 C125.703068,45.7602368 125.336861,44.5180617 124.604435,43.580557 L126.001896,43.580557 C126.494086,44.3305608 126.828067,45.1830913 127.003849,46.1381742 C127.414007,45.1186379 127.923768,44.2661073 128.533146,43.580557 L129.789982,43.3256742 C130.375922,44.0112245 130.747989,44.9955897 130.906193,46.2787992 C131.22846,45.3588727 131.752869,44.4594677 132.479435,43.580557 L133.762638,43.3256742 C134.459907,44.2748977 134.808537,45.3969568 134.808537,46.6918852 L134.808537,54.7866117 C134.808537,55.6362253 134.837833,56.2119032 134.896427,56.5136625 C134.955021,56.8154218 135.086856,57.0776262 135.291935,57.3002836 C135.666937,57.6928637 136.288024,57.8891508 137.155216,57.8891508 L137.955021,57.8891508 L137.955021,56.5883695 L140.011662,58.4428617 L137.955021,60.2358305 L137.955021,58.9702055 L136.759708,58.9702055 C135.622984,58.9702055 134.79682,58.6713803 134.281193,58.0737211 C133.765565,57.4760619 133.507755,56.5209933 133.507755,55.2084867 L133.507755,47.368643 C133.507755,46.050277 133.317328,45.1039974 132.936466,44.5297758 C131.963805,45.648922 131.287054,47.0492986 130.906193,48.7309477 L130.906193,56.5883695 L129.605412,56.5883695 L129.605412,47.8344633 C129.605412,46.2582835 129.414984,45.156732 129.034122,44.5297758 C128.102477,45.5786091 127.425726,46.882307 127.003849,48.4409086 L127.003849,56.5883695 L125.703068,56.5883695 Z M155.831974,44.1518461 L156.728458,50.5590727 L155.445255,50.7612211 L154.786076,46.0942289 L148.923771,51.9653227 L151.683537,54.7250883 L150.760685,55.6391508 L148.000919,52.8793852 L143.949162,56.9135648 L143.052677,56.0170805 L147.104435,51.9829008 L144.344669,49.2231352 L145.258732,48.3002836 L148.018497,51.0600492 L153.889591,45.1977445 L149.222599,44.5385648 L149.424747,43.2553617 L155.831974,44.1518461 Z M191.673771,58.8735258 C190.660094,59.8051711 189.687447,60.2709867 188.755802,60.2709867 C187.947204,60.2709867 187.268989,60.002923 186.721134,59.4667875 C186.17328,58.930652 185.899357,58.2700141 185.899357,57.4848539 C185.899357,56.4360205 186.450133,54.7426781 187.551701,52.4047758 L188.395451,50.611807 C189.045844,49.2231282 189.371037,48.0981395 189.371037,47.236807 C189.371037,46.135239 189.050239,45.2504822 188.408634,44.5825102 C187.767029,43.9145381 186.918893,43.580557 185.864201,43.580557 C184.873961,43.580557 184.0727,43.8779173 183.460392,44.4726469 C182.848084,45.0673764 182.541935,45.8481303 182.541935,46.814932 C182.541935,47.7055615 182.829041,48.7485198 183.403263,49.9438383 L183.746037,50.6557523 C184.314399,51.8334926 184.598576,52.7006714 184.598576,53.2573148 C184.598576,54.1538037 184.2602,54.9330928 183.583439,55.5952055 C182.906678,56.2573181 182.108346,56.5883695 181.188419,56.5883695 C180.239196,56.5883695 179.432075,56.2543885 178.767033,55.5864164 C178.10199,54.9184443 177.769474,54.106929 177.769474,53.1518461 C177.769474,52.2319196 178.097596,51.4365174 178.753849,50.7656156 C179.410102,50.0947138 180.192321,49.759268 181.100529,49.759268 C181.428655,49.759268 181.791933,49.8207908 182.190372,49.9438383 C181.557557,48.7309416 181.241154,47.6586867 181.241154,46.7270414 C181.241154,45.5141447 181.679138,44.5048775 182.555119,43.6992094 C183.4311,42.8935413 184.531186,42.4907133 185.855412,42.4907133 C187.308544,42.4907133 188.474548,42.9169785 189.353458,43.7695219 C190.232369,44.6220652 190.671818,45.7543781 190.671818,47.1664945 C190.671818,47.869623 190.598576,48.4760623 190.452091,48.9858305 C190.305606,49.4955986 189.959906,50.3364105 189.414982,51.5082914 L188.808537,52.8266508 C187.730406,55.1586937 187.191349,56.6674677 187.191349,57.353018 C187.191349,57.8569267 187.342226,58.2714734 187.643986,58.5966703 C187.945745,58.9218672 188.330995,59.0844633 188.799747,59.0844633 C189.414985,59.0844633 190.118103,58.735834 190.909122,58.0385648 L191.673771,58.8735258 Z M178.74506,53.1606352 C178.74506,53.8520449 178.975038,54.433582 179.435001,54.9052641 C179.894965,55.3769461 180.461853,55.6127836 181.135685,55.6127836 C181.791938,55.6127836 182.352968,55.3754813 182.81879,54.9008695 C183.284613,54.4262578 183.517521,53.8520448 183.517521,53.1782133 C183.517521,52.492663 183.286078,51.9140555 182.823185,51.4423734 C182.360292,50.9706914 181.791938,50.7348539 181.118107,50.7348539 C180.461854,50.7348539 179.902289,50.9721562 179.439396,51.446768 C178.976503,51.9213797 178.74506,52.4926631 178.74506,53.1606352 L178.74506,53.1606352 Z M203.811466,51.3852445 L205.112247,51.3852445 C205.827095,51.3852445 206.439393,51.6415896 206.949162,52.1542875 C207.45893,52.6669854 207.71381,53.2778191 207.71381,53.986807 C207.71381,54.6957949 207.45893,55.3066287 206.949162,55.8193266 C206.439393,56.3320244 205.827095,56.5883695 205.112247,56.5883695 C204.40326,56.5883695 203.792426,56.3334893 203.279728,55.8237211 C202.76703,55.3139529 202.510685,54.7016544 202.510685,53.986807 L202.510685,52.6860258 L199.909122,52.6860258 L199.909122,53.986807 C199.909122,54.6899355 199.654242,55.2993044 199.144474,55.814932 C198.634706,56.3305596 198.022407,56.5883695 197.30756,56.5883695 C196.604431,56.5883695 195.995063,56.3349541 195.479435,55.8281156 C194.963807,55.3212771 194.705997,54.7075138 194.705997,53.986807 C194.705997,53.2719597 194.962343,52.6596611 195.47504,52.149893 C195.987738,51.6401248 196.598572,51.3852445 197.30756,51.3852445 L198.608341,51.3852445 L198.608341,48.783682 L197.30756,48.783682 C196.598572,48.783682 195.987738,48.5288018 195.47504,48.0190336 C194.962343,47.5092654 194.705997,46.8969669 194.705997,46.1821195 C194.705997,45.4672722 194.962343,44.8549736 195.47504,44.3452055 C195.987738,43.8354373 196.598572,43.580557 197.30756,43.580557 C198.016548,43.580557 198.627382,43.8354373 199.14008,44.3452055 C199.652777,44.8549736 199.909122,45.4672722 199.909122,46.1821195 L199.909122,47.4829008 L202.510685,47.4829008 L202.510685,46.1821195 C202.510685,45.4672722 202.76703,44.8549736 203.279728,44.3452055 C203.792426,43.8354373 204.40326,43.580557 205.112247,43.580557 C205.821235,43.580557 206.432069,43.8354373 206.944767,44.3452055 C207.457465,44.8549736 207.71381,45.4672722 207.71381,46.1821195 C207.71381,46.8911074 207.45893,47.5019412 206.949162,48.0146391 C206.439393,48.5273369 205.827095,48.783682 205.112247,48.783682 L203.811466,48.783682 L203.811466,51.3852445 Z M203.811466,47.4829008 L205.112247,47.4829008 C205.469671,47.4829008 205.77582,47.3539958 206.030705,47.096182 C206.285589,46.8383682 206.413029,46.5336838 206.413029,46.1821195 C206.413029,45.8305553 206.285589,45.5258708 206.030705,45.268057 C205.77582,45.0102432 205.469671,44.8813383 205.112247,44.8813383 C204.754824,44.8813383 204.448675,45.0087784 204.19379,45.2636625 C203.938906,45.5185466 203.811466,45.8246959 203.811466,46.1821195 L203.811466,47.4829008 Z M198.608341,52.6860258 L197.30756,52.6860258 C196.950136,52.6860258 196.643987,52.8149307 196.389103,53.0727445 C196.134219,53.3305583 196.006779,53.6352428 196.006779,53.986807 C196.006779,54.3383713 196.134219,54.6430557 196.389103,54.9008695 C196.643987,55.1586833 196.950136,55.2875883 197.30756,55.2875883 C197.664984,55.2875883 197.971133,55.1586833 198.226017,54.9008695 C198.480901,54.6430557 198.608341,54.3383713 198.608341,53.986807 L198.608341,52.6860258 Z M198.608341,47.4829008 L198.608341,46.1821195 C198.608341,45.8305553 198.479436,45.5258708 198.221622,45.268057 C197.963809,45.0102432 197.659124,44.8813383 197.30756,44.8813383 C196.961855,44.8813383 196.658636,45.0073136 196.397892,45.259268 C196.137149,45.5112223 196.006779,45.8188365 196.006779,46.1821195 C196.006779,46.5395432 196.134219,46.8456925 196.389103,47.1005766 C196.643987,47.3554606 196.950136,47.4829008 197.30756,47.4829008 L198.608341,47.4829008 Z M203.811466,52.6860258 L203.811466,53.986807 C203.811466,54.3442307 203.940371,54.65038 204.198185,54.9052641 C204.455999,55.1601481 204.760683,55.2875883 205.112247,55.2875883 C205.463812,55.2875883 205.768496,55.1601481 206.02631,54.9052641 C206.284124,54.65038 206.413029,54.3442307 206.413029,53.986807 C206.413029,53.6293834 206.285589,53.3232341 206.030705,53.06835 C205.77582,52.8134659 205.469671,52.6860258 205.112247,52.6860258 L203.811466,52.6860258 Z M202.510685,51.3852445 L202.510685,48.783682 L199.909122,48.783682 L199.909122,51.3852445 L202.510685,51.3852445 Z M210.746037,55.2875883 L210.746037,53.986807 L224.729435,53.986807 L224.729435,55.2875883 L210.746037,55.2875883 Z M216.274357,50.1723539 L216.274357,51.3852445 L210.746037,51.3852445 L210.746037,50.0844633 L214.622013,50.0844633 C213.918885,49.3637565 213.567326,48.5551709 213.567326,47.658682 C213.567326,46.5453952 213.978943,45.587397 214.802189,44.7846586 C215.625435,43.9819202 216.605406,43.580557 217.74213,43.580557 C218.878855,43.580557 219.858825,43.9819202 220.682072,44.7846586 C221.505318,45.587397 221.916935,46.5453952 221.916935,47.658682 C221.916935,48.5551709 221.565376,49.3637565 220.862247,50.0844633 L224.729435,50.0844633 L224.729435,51.3852445 L219.201115,51.3852445 L219.201115,50.1723539 C220.144479,49.5629759 220.616154,48.7456012 220.616154,47.7202055 C220.616154,46.9467641 220.331977,46.2802669 219.763615,45.7206937 C219.195252,45.1611206 218.521431,44.8813383 217.74213,44.8813383 C216.95697,44.8813383 216.281684,45.1611206 215.716251,45.7206937 C215.150819,46.2802669 214.868107,46.9467641 214.868107,47.7202055 C214.868107,48.7456012 215.336852,49.5629759 216.274357,50.1723539 L216.274357,50.1723539 Z M228.869083,56.5883695 L228.869083,47.3071195 C228.869083,45.7602368 228.502876,44.5180617 227.770451,43.580557 L229.167912,43.580557 C229.660102,44.3305608 229.994083,45.1830913 230.169865,46.1381742 C230.580023,45.1186379 231.089784,44.2661073 231.699162,43.580557 L232.955997,43.3256742 C233.541938,44.0112245 233.914005,44.9955897 234.072208,46.2787992 C234.394476,45.3588727 234.918884,44.4594677 235.645451,43.580557 L236.928654,43.3256742 C237.625923,44.2748977 237.974552,45.3969568 237.974552,46.6918852 L237.974552,54.7866117 C237.974552,55.6362253 238.003849,56.2119032 238.062443,56.5136625 C238.121037,56.8154218 238.252871,57.0776262 238.457951,57.3002836 C238.832952,57.6928637 239.45404,57.8891508 240.321232,57.8891508 L241.121037,57.8891508 L241.121037,56.5883695 L243.177677,58.4428617 L241.121037,60.2358305 L241.121037,58.9702055 L239.925724,58.9702055 C238.789,58.9702055 237.962836,58.6713803 237.447208,58.0737211 C236.931581,57.4760619 236.673771,56.5209933 236.673771,55.2084867 L236.673771,47.368643 C236.673771,46.050277 236.483343,45.1039974 236.102482,44.5297758 C235.129821,45.648922 234.45307,47.0492986 234.072208,48.7309477 L234.072208,56.5883695 L232.771427,56.5883695 L232.771427,47.8344633 C232.771427,46.2582835 232.580999,45.156732 232.200138,44.5297758 C231.268493,45.5786091 230.591742,46.882307 230.169865,48.4409086 L230.169865,56.5883695 L228.869083,56.5883695 Z M46.8300209,80.0844633 L52.0331459,72.7192289 L57.2362709,80.0844633 L52.0331459,87.4409086 L46.8300209,80.0844633 Z M61.3671303,86.5883695 L61.3671303,77.3071195 C61.3671303,75.7602368 61.000923,74.5180617 60.2684975,73.580557 L61.6659584,73.580557 C62.1581484,74.3305608 62.4921294,75.1830913 62.6679116,76.1381742 C63.0780699,75.1186379 63.5878304,74.2661073 64.1972084,73.580557 L65.4540444,73.3256742 C66.0399848,74.0112245 66.4120514,74.9955897 66.5702553,76.2787992 C66.8925225,75.3588727 67.4169314,74.4594677 68.1434975,73.580557 L69.4267006,73.3256742 C70.1239697,74.2748977 70.4725991,75.3969568 70.4725991,76.6918852 L70.4725991,84.7866117 C70.4725991,85.6362253 70.5018956,86.2119032 70.5604897,86.5136625 C70.6190837,86.8154218 70.7509183,87.0776262 70.9559975,87.3002836 C71.3309994,87.6928637 71.9520869,87.8891508 72.8192787,87.8891508 L73.6190834,87.8891508 L73.6190834,86.5883695 L75.6757241,88.4428617 L73.6190834,90.2358305 L73.6190834,88.9702055 L72.4237709,88.9702055 C71.2870465,88.9702055 70.4608829,88.6713803 69.9452553,88.0737211 C69.4296277,87.4760619 69.1718178,86.5209933 69.1718178,85.2084867 L69.1718178,77.368643 C69.1718178,76.050277 68.98139,75.1039974 68.6005287,74.5297758 C67.6278676,75.648922 66.9511166,77.0492986 66.5702553,78.7309477 L66.5702553,86.5883695 L65.2694741,86.5883695 L65.2694741,77.8344633 C65.2694741,76.2582835 65.0790463,75.156732 64.698185,74.5297758 C63.7665397,75.5786091 63.0897887,76.882307 62.6679116,78.4409086 L62.6679116,86.5883695 L61.3671303,86.5883695 Z M78.7167397,86.5883695 L78.7167397,73.580557 L94.7655678,73.580557 L94.7655678,86.5883695 L78.7167397,86.5883695 Z M80.0175209,85.2875883 L93.4647866,85.2875883 L93.4647866,74.8813383 L80.0175209,74.8813383 L80.0175209,85.2875883 Z M86.7411537,79.1616117 L89.9579506,75.9448148 L90.8808022,76.8676664 L87.6552162,80.0844633 L90.8808022,83.3012602 L89.9579506,84.2241117 L86.7411537,81.0073148 L83.5155678,84.2241117 L82.6015053,83.3012602 L85.8183022,80.0844633 L82.6015053,76.8676664 L83.5155678,75.9448148 L86.7411537,79.1616117 Z M97.7977944,80.0844633 L103.000919,72.7192289 L108.204044,80.0844633 L103.000919,87.4409086 L97.7977944,80.0844633 Z M131.837833,83.986807 L139.642521,83.986807 L139.642521,76.1821195 L131.837833,76.1821195 L131.837833,83.986807 Z M129.236271,86.5883695 L129.236271,73.580557 L142.244083,73.580557 L142.244083,86.5883695 L129.236271,86.5883695 Z M145.27631,84.8393461 L145.27631,83.424307 C148.000933,84.6665007 150.634696,85.2875883 153.177677,85.2875883 C154.841748,85.2875883 156.19525,85.0707936 157.238224,84.6371977 C156.576111,84.2973522 156.079534,83.8710869 155.748478,83.3583891 C155.417422,82.8456912 155.251896,82.2436464 155.251896,81.5522367 C155.251896,80.644029 155.578553,79.86474 156.231876,79.2143461 C156.8852,78.5639522 157.668884,78.2387602 158.582951,78.2387602 C159.485299,78.2387602 160.258729,78.5610226 160.903263,79.205557 C161.547798,79.8500915 161.87006,80.6264509 161.87006,81.5346586 C161.87006,82.9819315 160.986768,84.186021 159.220158,85.1469633 C157.453547,86.1079056 155.237261,86.5883695 152.571232,86.5883695 C150.268486,86.5883695 147.83687,86.0053675 145.27631,84.8393461 L145.27631,84.8393461 Z M156.122013,81.5610258 C156.122013,82.2231385 156.36371,82.792957 156.847111,83.2704984 C157.330512,83.7480399 157.909119,83.986807 158.582951,83.986807 C159.256782,83.986807 159.828065,83.7538992 160.296818,83.2880766 C160.76557,82.8222539 160.999943,82.2524354 160.999943,81.5786039 C160.999943,80.8930536 160.764105,80.3100516 160.292423,79.8295805 C159.820741,79.3491093 159.247993,79.1088773 158.574162,79.1088773 C157.894471,79.1088773 157.315863,79.3476445 156.838322,79.8251859 C156.36078,80.3027274 156.122013,80.8813349 156.122013,81.5610258 L156.122013,81.5610258 Z M161.87006,75.3295805 L161.87006,76.7446195 C159.145437,75.4965664 156.511674,74.8725492 153.968693,74.8725492 C152.304622,74.8725492 150.94819,75.0922736 149.899357,75.5317289 C150.567329,75.8657149 151.066836,76.2905154 151.397892,76.806143 C151.728948,77.3217705 151.894474,77.9252801 151.894474,78.6166898 C151.894474,79.5248975 151.567817,80.3041866 150.914494,80.9545805 C150.26117,81.6049743 149.477486,81.9301664 148.563419,81.9301664 C147.655212,81.9301664 146.880317,81.607904 146.238712,80.9633695 C145.597108,80.3188351 145.27631,79.5424756 145.27631,78.634268 C145.27631,77.1811357 146.159602,75.9741165 147.926212,75.0131742 C149.692823,74.0522319 151.909109,73.571768 154.575138,73.571768 C156.883743,73.571768 159.31536,74.1576996 161.87006,75.3295805 L161.87006,75.3295805 Z M151.024357,78.6079008 C151.024357,77.9399287 150.781195,77.3686453 150.294865,76.8940336 C149.808534,76.4194218 149.228462,76.1821195 148.55463,76.1821195 C147.880799,76.1821195 147.31098,76.4150274 146.845158,76.88085 C146.379335,77.3466726 146.146427,77.9164912 146.146427,78.5903227 C146.146427,79.275873 146.382265,79.8588749 146.853947,80.3393461 C147.325629,80.8198172 147.898377,81.0600492 148.572208,81.0600492 C149.251899,81.0600492 149.830507,80.8198172 150.308048,80.3393461 C150.78559,79.8588749 151.024357,79.2817323 151.024357,78.6079008 L151.024357,78.6079008 Z M175.308537,85.7182523 L175.308537,76.1821195 L165.763615,76.1821195 L165.772404,85.7270414 L175.308537,85.7182523 Z M164.902287,86.5883695 L164.902287,75.3120023 L166.633732,73.580557 L177.910099,73.580557 L177.910099,84.8569242 L176.178654,86.5883695 L164.902287,86.5883695 Z M183.579044,82.721182 L180.942326,80.0844633 L183.579044,77.4477445 L186.224552,80.0844633 L183.579044,82.721182 Z M184.809513,76.2172758 L187.446232,73.580557 L190.09174,76.2172758 L187.446232,78.8627836 L184.809513,76.2172758 Z M191.313419,77.4477445 L193.950138,80.0844633 L191.313419,82.721182 L188.676701,80.0844633 L191.313419,77.4477445 Z M190.082951,83.9516508 L187.446232,86.5883695 L184.809513,83.9516508 L187.446232,81.314932 L190.082951,83.9516508 Z M214.982365,84.6108305 L219.860294,81.3852445 L220.93256,83.8813383 L224.711857,81.3852445 L225.766544,83.8813383 L229.545841,81.3852445 L231.110294,85.0590727 L230.099552,85.5073148 L229.053654,83.0112211 L225.256779,85.5073148 L224.202091,83.0112211 L220.440372,85.5073148 L219.376896,83.0112211 L215.580021,85.5073148 L214.982365,84.6108305 Z M214.991154,77.8871977 L219.869083,74.6616117 L220.941349,77.1577055 L224.720646,74.6616117 L225.775333,77.1577055 L229.55463,74.6616117 L231.119083,78.3354398 L230.108341,78.783682 L229.062443,76.2875883 L225.256779,78.783682 L224.202091,76.2875883 L220.440372,78.783682 L219.385685,76.2875883 L215.58881,78.783682 L214.991154,77.8871977 Z M243.915958,88.4340727 L244.988224,83.0375883 C243.980407,84.2329068 242.872996,85.1616084 241.665958,85.8237211 C240.458921,86.4858338 239.275339,86.8168852 238.115177,86.8168852 C236.955015,86.8168852 236.01313,86.4829041 235.289494,85.814932 C234.565857,85.1469599 234.204044,84.2768515 234.204044,83.2045805 C234.204044,81.6166819 234.820737,80.1591769 236.054142,78.8320219 C237.287547,77.5048668 238.639584,76.8412992 240.110294,76.8412992 C240.74311,76.8412992 241.217715,77.0126842 241.534122,77.3554594 C241.85053,77.6982345 242.008732,78.2123895 242.008732,78.8979398 C242.372015,78.5112192 242.736757,78.221183 243.10297,78.0278227 C243.469183,77.8344623 243.839785,77.7377836 244.214787,77.7377836 C244.718695,77.7377836 245.483336,77.9340707 246.508732,78.3266508 L247.334904,78.634268 C248.530222,79.0913015 249.40326,79.3198148 249.954044,79.3198148 C250.299749,79.3198148 250.557559,79.2304603 250.727482,79.0517484 C250.897405,78.8730366 250.982365,78.6049729 250.982365,78.2475492 C250.982365,77.8842661 250.800726,77.5883707 250.437443,77.3598539 L251.615177,76.2700102 C251.843694,76.674309 251.957951,77.0844612 251.957951,77.5004789 C251.957951,78.2387638 251.632759,78.9155149 250.982365,79.5307523 C250.331971,80.1459898 249.614205,80.4536039 248.829044,80.4536039 C248.37787,80.4536039 247.859321,80.3862218 247.27338,80.2514555 L245.796818,87.6694242 L243.915958,88.4340727 Z M236.032169,82.3168852 C237.362254,82.2172753 238.406677,81.8715756 239.16547,81.2797758 C239.924263,80.6879759 240.303654,79.9291945 240.303654,79.0034086 C240.303654,78.5346562 240.20844,78.1830973 240.018009,77.9487211 C239.827579,77.7143449 239.539007,77.5971586 239.152287,77.5971586 C238.378845,77.5971586 237.6977,78.0410018 237.10883,78.9287016 C236.519959,79.8164013 236.161076,80.9457845 236.032169,82.3168852 L236.032169,82.3168852 Z M245.656193,79.6625883 L245.410099,79.5395414 C244.683533,79.2055554 244.088812,79.0385648 243.625919,79.0385648 C243.373965,79.0385648 243.092718,79.1103415 242.782169,79.2538969 C242.471621,79.3974523 242.128851,79.6127822 241.753849,79.899893 C240.845641,81.7104489 238.923786,82.6977437 235.988224,82.861807 C235.982365,82.9789951 235.979435,83.0639552 235.979435,83.1166898 C235.979435,83.8666936 236.285584,84.4819218 236.897892,84.962393 C237.5102,85.4428641 238.296813,85.6830961 239.257755,85.6830961 C240.734325,85.6830961 242.077573,85.1469686 243.28754,84.0746977 C244.497507,83.0024267 245.260683,81.6723618 245.577091,80.0844633 L245.656193,79.6625883 Z M260.580021,85.8940336 C259.296811,86.5737245 257.94038,86.9135648 256.510685,86.9135648 C255.409117,86.9135648 254.502388,86.5898376 253.79047,85.9423734 C253.078553,85.2949093 252.722599,84.4672808 252.722599,83.4594633 C252.722599,82.498521 253.049256,81.6621036 253.70258,80.9501859 C254.355903,80.2382683 255.412045,79.5659118 256.871037,78.9330961 C256.589785,78.2123894 256.449162,77.5414976 256.449162,76.9204008 C256.449162,75.9711773 256.834412,75.1230412 257.604923,74.3759672 C258.375435,73.6288931 259.249938,73.2553617 260.228458,73.2553617 C260.890571,73.2553617 261.432558,73.4531136 261.854435,73.8486234 C262.276312,74.2441332 262.487247,74.7553586 262.487247,75.3823148 C262.487247,76.9877916 261.212846,78.2035998 258.664005,79.0297758 C258.839787,79.5454034 259.170839,80.3217628 259.657169,81.3588773 C260.319282,80.2045747 261.054626,79.413567 261.863224,78.9858305 C262.671822,78.558094 263.837826,78.3442289 265.361271,78.3442289 L268.147404,78.3442289 C269.875928,78.3442289 271.000917,78.2446205 271.522404,78.0454008 C272.043891,77.8520404 272.30463,77.42724 272.30463,76.7709867 C272.30463,76.1850463 271.997016,75.7661052 271.381779,75.5141508 L272.647404,74.274893 C273.204047,74.7319265 273.482365,75.3061395 273.482365,75.9975492 C273.482365,76.9877885 272.902292,77.8432487 271.74213,78.5639555 C270.581968,79.2846622 269.210888,79.6450102 267.628849,79.6450102 L266.96088,79.6450102 C266.046813,81.7836927 264.409134,83.5825029 262.047794,85.0414945 C263.038034,86.1489219 264.139585,87.0073118 265.352482,87.6166898 C266.565379,88.2260679 267.778257,88.5307523 268.991154,88.5307523 C270.081003,88.5307523 270.9599,88.2172789 271.627872,87.5903227 C272.295845,86.9633664 272.629826,86.1401324 272.629826,85.1205961 C272.629826,84.1713726 272.16401,83.5004809 271.232365,83.1079008 L272.647404,81.7807523 C273.532174,82.19677 273.974552,82.9731295 273.974552,84.1098539 C273.974552,85.5922832 273.366648,86.8461769 272.150822,87.8715727 C270.934995,88.8969684 269.448194,89.4096586 267.690372,89.4096586 C266.424741,89.4096586 265.172312,89.1020445 263.933048,88.486807 C262.693784,87.8715696 261.57612,87.0073204 260.580021,85.8940336 L260.580021,85.8940336 Z M258.470646,78.5287992 C260.181592,77.8022331 261.037052,76.7504858 261.037052,75.3735258 C261.037052,74.869617 260.93012,74.4916911 260.716251,74.2397367 C260.502383,73.9877823 260.181586,73.861807 259.753849,73.861807 C259.24994,73.861807 258.82807,74.0698128 258.488224,74.4858305 C258.148379,74.9018482 257.978458,75.417468 257.978458,76.0327055 C257.978458,76.6538023 258.142519,77.4858252 258.470646,78.5287992 L258.470646,78.5287992 Z M260.114201,85.3315336 C258.918882,83.8491043 257.887642,81.8862333 257.020451,79.4428617 C255.379817,80.2045843 254.559513,81.3530103 254.559513,82.8881742 C254.559513,83.7670849 254.845155,84.4907104 255.416447,85.0590727 C255.987739,85.6274349 256.712829,85.9116117 257.59174,85.9116117 C258.318306,85.9116117 259.159118,85.7182543 260.114201,85.3315336 L260.114201,85.3315336 Z M265.633732,79.6450102 L264.605412,79.6450102 C262.413994,79.6450102 260.852487,80.3891433 259.920841,81.877432 C260.471625,82.891109 261.054627,83.8051623 261.669865,84.6196195 C263.603468,83.5532079 264.924744,81.8950214 265.633732,79.6450102 L265.633732,79.6450102 Z M275.925724,80.0844633 C275.925724,78.6489092 276.43402,77.4228473 277.450626,76.4062406 C278.467233,75.389634 279.693295,74.8813383 281.128849,74.8813383 C282.564403,74.8813383 283.79193,75.389634 284.811466,76.4062406 C285.831003,77.4228473 286.340763,78.6489092 286.340763,80.0844633 C286.340763,81.5200173 285.831003,82.7460793 284.811466,83.7626859 C283.79193,84.7792926 282.564403,85.2875883 281.128849,85.2875883 C279.693295,85.2875883 278.467233,84.7792926 277.450626,83.7626859 C276.43402,82.7460793 275.925724,81.5200173 275.925724,80.0844633 L275.925724,80.0844633 Z M46.8300209,114.839346 L46.8300209,113.424307 C49.5546439,114.666501 52.1884067,115.287588 54.7313881,115.287588 C56.3954589,115.287588 57.748961,115.070794 58.791935,114.637198 C58.1298223,114.297352 57.6332452,113.871087 57.3021889,113.358389 C56.9711326,112.845691 56.8056069,112.243646 56.8056069,111.552237 C56.8056069,110.644029 57.1322638,109.86474 57.7855873,109.214346 C58.4389109,108.563952 59.2225945,108.23876 60.1366616,108.23876 C61.0390098,108.23876 61.8124396,108.561023 62.4569741,109.205557 C63.1015085,109.850091 63.4237709,110.626451 63.4237709,111.534659 C63.4237709,112.981931 62.540479,114.186021 60.7738686,115.146963 C59.0072582,116.107906 56.7909718,116.58837 54.1249428,116.58837 C51.8221969,116.58837 49.3905806,116.005368 46.8300209,114.839346 L46.8300209,114.839346 Z M57.6757241,111.561026 C57.6757241,112.223138 57.9174209,112.792957 58.4008217,113.270498 C58.8842226,113.74804 59.4628301,113.986807 60.1366616,113.986807 C60.810493,113.986807 61.3817764,113.753899 61.8505287,113.288077 C62.3192811,112.822254 62.5536537,112.252435 62.5536537,111.578604 C62.5536537,110.893054 62.3178163,110.310052 61.8461342,109.82958 C61.3744522,109.349109 60.801704,109.108877 60.1278725,109.108877 C59.4481816,109.108877 58.8695741,109.347644 58.3920326,109.825186 C57.9144912,110.302727 57.6757241,110.881335 57.6757241,111.561026 L57.6757241,111.561026 Z M63.4237709,105.32958 L63.4237709,106.74462 C60.6991479,105.496566 58.0653852,104.872549 55.5224037,104.872549 C53.8583329,104.872549 52.5019012,105.092274 51.4530678,105.531729 C52.1210399,105.865715 52.6205466,106.290515 52.951603,106.806143 C53.2826593,107.321771 53.448185,107.92528 53.448185,108.61669 C53.448185,109.524898 53.1215281,110.304187 52.4682045,110.95458 C51.8148809,111.604974 51.0311974,111.930166 50.1171303,111.930166 C49.2089226,111.930166 48.434028,111.607904 47.7924233,110.96337 C47.1508185,110.318835 46.8300209,109.542476 46.8300209,108.634268 C46.8300209,107.181136 47.7133129,105.974117 49.4799233,105.013174 C51.2465337,104.052232 53.4628201,103.571768 56.1288491,103.571768 C58.4374543,103.571768 60.8690707,104.1577 63.4237709,105.32958 L63.4237709,105.32958 Z M52.5780678,108.607901 C52.5780678,107.939929 52.3349062,107.368645 51.8485756,106.894034 C51.3622451,106.419422 50.7821727,106.18212 50.1083412,106.18212 C49.4345097,106.18212 48.8646912,106.415027 48.3988686,106.88085 C47.9330459,107.346673 47.7001381,107.916491 47.7001381,108.590323 C47.7001381,109.275873 47.9359756,109.858875 48.4076576,110.339346 C48.8793397,110.819817 49.4520879,111.060049 50.1259194,111.060049 C50.8056103,111.060049 51.3842178,110.819817 51.8617592,110.339346 C52.3393007,109.858875 52.5780678,109.281732 52.5780678,108.607901 L52.5780678,108.607901 Z M68.8290444,108.43212 L68.8290444,116.58837 L67.5282631,116.58837 L67.5282631,107.140127 C67.5282631,105.83348 67.1708448,104.646969 66.4559975,103.580557 L67.8270912,103.580557 C68.3134218,104.248529 68.6474028,105.106919 68.8290444,106.155752 C69.2684997,105.071763 69.7782602,104.213373 70.3583412,103.580557 L71.6327553,103.343252 C72.2186957,104.093256 72.5878327,105.08934 72.7401772,106.331534 C73.0390068,105.394029 73.5692749,104.477046 74.3309975,103.580557 L75.5878334,103.343252 C76.2909619,104.321773 76.6425209,105.402817 76.6425209,106.586416 L76.6425209,109.064932 C76.9940852,108.068833 77.3661518,107.289544 77.7587319,106.727041 L78.8309975,106.331534 C79.7567834,107.767088 80.2196694,109.275862 80.2196694,110.857901 C80.2196694,112.111813 79.9428167,113.289536 79.389103,114.391104 C78.8353893,115.492672 78.0048312,116.518052 76.8974037,117.467276 C77.002873,118.228998 77.4511107,119.093248 78.2421303,120.060049 L76.7128334,120.060049 C76.343691,119.591297 76.0155692,118.970209 75.7284584,118.196768 C74.9140012,118.659661 73.9179174,118.984853 72.7401772,119.172354 L72.7401772,118.056143 C73.853464,117.827626 74.7645877,117.502434 75.4735756,117.080557 C75.3856846,116.518054 75.3417397,115.95263 75.3417397,115.384268 L75.3417397,107.474112 C75.3417397,106.185043 75.1542416,105.212396 74.7792397,104.556143 C73.8593132,105.546382 73.1796325,106.9409 72.7401772,108.739737 L72.7401772,116.58837 L71.4306069,116.58837 L71.4306069,107.913565 C71.4306069,106.302229 71.2401791,105.183099 70.8593178,104.556143 C69.9628289,105.599117 69.2860779,106.891096 68.8290444,108.43212 L68.8290444,108.43212 Z M76.6425209,116.245596 C77.4042435,115.472155 77.974062,114.641597 78.3519936,113.753897 C78.7299252,112.866197 78.9188881,111.924312 78.9188881,110.928213 C78.9188881,109.885239 78.6903748,108.874507 78.2333412,107.895987 C77.5888068,108.692866 77.0585386,109.756332 76.6425209,111.086416 L76.6425209,116.245596 Z M84.3505287,116.58837 L84.3505287,107.30712 C84.3505287,105.760237 83.9843215,104.518062 83.2518959,103.580557 L84.6493569,103.580557 C85.1415468,104.330561 85.4755279,105.183091 85.65131,106.138174 C86.0614683,105.118638 86.5712288,104.266107 87.1806069,103.580557 L88.4374428,103.325674 C89.0233832,104.011225 89.3954498,104.99559 89.5536537,106.278799 C89.875921,105.358873 90.4003298,104.459468 91.1268959,103.580557 L92.4100991,103.325674 C93.1073682,104.274898 93.4559975,105.396957 93.4559975,106.691885 L93.4559975,114.786612 C93.4559975,115.636225 93.4852941,116.211903 93.5438881,116.513662 C93.6024822,116.815422 93.7343168,117.077626 93.9393959,117.300284 C94.3143978,117.692864 94.9354853,117.889151 95.8026772,117.889151 L96.6024819,117.889151 L96.6024819,116.58837 L98.6591225,118.442862 L96.6024819,120.23583 L96.6024819,118.970205 L95.4071694,118.970205 C94.2704449,118.970205 93.4442813,118.67138 92.9286537,118.073721 C92.4130262,117.476062 92.1552162,116.520993 92.1552162,115.208487 L92.1552162,107.368643 C92.1552162,106.050277 91.9647885,105.103997 91.5839272,104.529776 C90.6112661,105.648922 89.934515,107.049299 89.5536537,108.730948 L89.5536537,116.58837 L88.2528725,116.58837 L88.2528725,107.834463 C88.2528725,106.258284 88.0624447,105.156732 87.6815834,104.529776 C86.7499381,105.578609 86.0731871,106.882307 85.65131,108.440909 L85.65131,116.58837 L84.3505287,116.58837 Z M119.700138,110.084463 L127.056583,102.719229 L134.421818,110.084463 L127.056583,117.440909 L119.700138,110.084463 Z M137.454044,114.839346 L137.454044,113.424307 C140.178667,114.666501 142.81243,115.287588 145.355412,115.287588 C147.019482,115.287588 148.372984,115.070794 149.415958,114.637198 C148.753846,114.297352 148.257269,113.871087 147.926212,113.358389 C147.595156,112.845691 147.42963,112.243646 147.42963,111.552237 C147.42963,110.644029 147.756287,109.86474 148.409611,109.214346 C149.062934,108.563952 149.846618,108.23876 150.760685,108.23876 C151.663033,108.23876 152.436463,108.561023 153.080997,109.205557 C153.725532,109.850091 154.047794,110.626451 154.047794,111.534659 C154.047794,112.981931 153.164502,114.186021 151.397892,115.146963 C149.631282,116.107906 147.414995,116.58837 144.748966,116.58837 C142.44622,116.58837 140.014604,116.005368 137.454044,114.839346 L137.454044,114.839346 Z M148.299747,111.561026 C148.299747,112.223138 148.541444,112.792957 149.024845,113.270498 C149.508246,113.74804 150.086853,113.986807 150.760685,113.986807 C151.434516,113.986807 152.0058,113.753899 152.474552,113.288077 C152.943305,112.822254 153.177677,112.252435 153.177677,111.578604 C153.177677,110.893054 152.94184,110.310052 152.470158,109.82958 C151.998476,109.349109 151.425727,109.108877 150.751896,109.108877 C150.072205,109.108877 149.493598,109.347644 149.016056,109.825186 C148.538515,110.302727 148.299747,110.881335 148.299747,111.561026 L148.299747,111.561026 Z M154.047794,105.32958 L154.047794,106.74462 C151.323171,105.496566 148.689409,104.872549 146.146427,104.872549 C144.482356,104.872549 143.125925,105.092274 142.077091,105.531729 C142.745063,105.865715 143.24457,106.290515 143.575626,106.806143 C143.906683,107.321771 144.072208,107.92528 144.072208,108.61669 C144.072208,109.524898 143.745552,110.304187 143.092228,110.95458 C142.438904,111.604974 141.655221,111.930166 140.741154,111.930166 C139.832946,111.930166 139.058051,111.607904 138.416447,110.96337 C137.774842,110.318835 137.454044,109.542476 137.454044,108.634268 C137.454044,107.181136 138.337336,105.974117 140.103947,105.013174 C141.870557,104.052232 144.086844,103.571768 146.752872,103.571768 C149.061478,103.571768 151.493094,104.1577 154.047794,105.32958 L154.047794,105.32958 Z M143.202091,108.607901 C143.202091,107.939929 142.95893,107.368645 142.472599,106.894034 C141.986268,106.419422 141.406196,106.18212 140.732365,106.18212 C140.058533,106.18212 139.488715,106.415027 139.022892,106.88085 C138.557069,107.346673 138.324162,107.916491 138.324162,108.590323 C138.324162,109.275873 138.559999,109.858875 139.031681,110.339346 C139.503363,110.819817 140.076111,111.060049 140.749943,111.060049 C141.429634,111.060049 142.008241,110.819817 142.485783,110.339346 C142.963324,109.858875 143.202091,109.281732 143.202091,108.607901 L143.202091,108.607901 Z M157.080021,110.084463 L164.436466,102.719229 L171.801701,110.084463 L164.436466,117.440909 L157.080021,110.084463 Z M177.206974,108.43212 L177.206974,116.58837 L175.906193,116.58837 L175.906193,107.140127 C175.906193,105.83348 175.548775,104.646969 174.833927,103.580557 L176.205021,103.580557 C176.691351,104.248529 177.025333,105.106919 177.206974,106.155752 C177.646429,105.071763 178.15619,104.213373 178.736271,103.580557 L180.010685,103.343252 C180.596625,104.093256 180.965762,105.08934 181.118107,106.331534 C181.416936,105.394029 181.947205,104.477046 182.708927,103.580557 L183.965763,103.343252 C184.668892,104.321773 185.020451,105.402817 185.020451,106.586416 L185.020451,109.064932 C185.372015,108.068833 185.744081,107.289544 186.136662,106.727041 L187.208927,106.331534 C188.134713,107.767088 188.597599,109.275862 188.597599,110.857901 C188.597599,112.111813 188.320746,113.289536 187.767033,114.391104 C187.213319,115.492672 186.382761,116.518052 185.275333,117.467276 C185.380803,118.228998 185.82904,119.093248 186.62006,120.060049 L185.090763,120.060049 C184.721621,119.591297 184.393499,118.970209 184.106388,118.196768 C183.291931,118.659661 182.295847,118.984853 181.118107,119.172354 L181.118107,118.056143 C182.231394,117.827626 183.142517,117.502434 183.851505,117.080557 C183.763614,116.518054 183.719669,115.95263 183.719669,115.384268 L183.719669,107.474112 C183.719669,106.185043 183.532171,105.212396 183.157169,104.556143 C182.237243,105.546382 181.557562,106.9409 181.118107,108.739737 L181.118107,116.58837 L179.808537,116.58837 L179.808537,107.913565 C179.808537,106.302229 179.618109,105.183099 179.237247,104.556143 C178.340759,105.599117 177.664008,106.891096 177.206974,108.43212 L177.206974,108.43212 Z M185.020451,116.245596 C185.782173,115.472155 186.351992,114.641597 186.729923,113.753897 C187.107855,112.866197 187.296818,111.924312 187.296818,110.928213 C187.296818,109.885239 187.068304,108.874507 186.611271,107.895987 C185.966736,108.692866 185.436468,109.756332 185.020451,111.086416 L185.020451,116.245596 Z M195.787052,110.295401 C195.787052,111.367672 195.539496,112.499985 195.044376,113.692373 C194.549257,114.884762 193.882759,115.958482 193.044865,116.913565 L191.629826,116.913565 C193.539991,114.89793 194.49506,112.691897 194.49506,110.295401 L191.726505,110.295401 L191.726505,109.319815 L194.49506,109.319815 C194.377872,107.239726 193.422803,105.218262 191.629826,103.255362 L192.974552,103.255362 C194.615185,105.013183 195.552676,107.034647 195.787052,109.319815 L198.476505,109.319815 C198.710881,107.034647 199.648372,105.013183 201.289005,103.255362 L202.633732,103.255362 C200.840754,105.218262 199.885686,107.239726 199.768497,109.319815 L202.537052,109.319815 L202.537052,110.295401 L199.768497,110.295401 C199.768497,112.691897 200.723566,114.89793 202.633732,116.913565 L201.218693,116.913565 C200.380798,115.958482 199.714301,114.884762 199.219181,113.692373 C198.724061,112.499985 198.476505,111.367672 198.476505,110.295401 L195.787052,110.295401 Z M211.229435,112.686026 L211.229435,115.64794 L205.665958,110.084463 L211.229435,104.520987 L211.229435,107.482901 L216.15131,107.482901 L216.15131,104.520987 L221.714787,110.084463 L216.15131,115.64794 L216.15131,112.686026 L211.229435,112.686026 Z M210.359318,111.815909 L217.012638,111.815909 L217.012638,113.556143 L220.484318,110.084463 L217.012638,106.612784 L217.012638,108.353018 L210.359318,108.353018 L210.359318,106.612784 L206.896427,110.084463 L210.359318,113.556143 L210.359318,111.815909 Z" id="absobef-bzde-text-pa" fill="#FFFFFF" sketch:type="MSShapeGroup"></path>
            </g>
        </g>
    </g>
</svg>