<?xml version="1.0" encoding="UTF-8" standalone="no"?>
<svg width="452px" height="235px" viewBox="0 0 452 235" version="1.1" xmlns="http://www.w3.org/2000/svg" xmlns:xlink="http://www.w3.org/1999/xlink" xmlns:sketch="http://www.bohemiancoding.com/sketch/ns">
    <!-- Generator: Sketch 3.4.4 (17249) - http://www.bohemiancoding.com/sketch -->
    <title>case-translation</title>
    <desc>Created with Sketch.</desc>
    <defs>
        <ellipse id="path-1" cx="7.51222809" cy="7.51447032" rx="7.51222809" ry="7.51447032"></ellipse>
    </defs>
    <g id="Style-Inventory" stroke="none" stroke-width="1" fill="none" fill-rule="evenodd" sketch:type="MSPage">
        <g id="Uses-cases" sketch:type="MSArtboardGroup" transform="translate(-788.000000, -1909.000000)">
            <g id="case-translation" sketch:type="MSLayerGroup" transform="translate(790.000000, 1911.000000)">
                <g id="Group-Copy" transform="translate(354.000000, 0.000000)">
                    <rect id="Rectangle-163" fill="#2F4149" sketch:type="MSShapeGroup" x="0" y="0" width="92.8070175" height="69.6052632" rx="1"></rect>
                    <rect id="Rectangle-273" fill="#FFFFFF" sketch:type="MSShapeGroup" x="6.05263158" y="6.05263158" width="80.7017544" height="36.3157895"></rect>
                    <rect id="Rectangle-262" fill="#077CA0" sketch:type="MSShapeGroup" x="12.1052632" y="32.2807018" width="65.5701754" height="4.03508772"></rect>
                    <g id="g236" transform="translate(6.052632, 48.421053)">
                        <mask id="mask-2" sketch:name="Mask" fill="white">
                            <use xlink:href="#path-1"></use>
                        </mask>
                        <use id="Mask" fill="#FFFFFF" sketch:type="MSShapeGroup" xlink:href="#path-1"></use>
                        <g mask="url(#mask-2)" fill="#F88B1C" sketch:type="MSShapeGroup">
                            <g transform="translate(2.842465, 2.843313)">
                                <path d="M8.40557413,3.71371506 C8.40557413,1.66281592 6.73286488,0 4.6697634,0 C2.60666193,0 0.933952681,1.66281592 0.933952681,3.71371506 C0.933952681,5.7646142 2.60666193,7.42743012 4.6697634,7.42743012 C6.73286488,7.42743012 8.40557413,5.7646142 8.40557413,3.71371506" id="Fill-1585"></path>
                                <path d="M4.6697634,7.42743012 C2.09112005,7.42743012 0,9.50618213 0,12.0695739 L0,12.9980027 L9.33952681,12.9980027 L9.33952681,12.0695739 C9.33952681,9.50618213 7.24840676,7.42743012 4.6697634,7.42743012" id="Fill-1586"></path>
                            </g>
                        </g>
                    </g>
                    <rect id="Rectangle-262" fill="#077CA0" sketch:type="MSShapeGroup" x="53.4649123" y="22.1929825" width="13.1140351" height="4.03508772"></rect>
                    <rect id="Rectangle-262" fill="#077CA0" sketch:type="MSShapeGroup" x="12.1052632" y="22.1929825" width="38.3333333" height="4.03508772"></rect>
                    <rect id="Rectangle-262" fill="#077CA0" sketch:type="MSShapeGroup" x="34.2982456" y="12.1052632" width="26.2280702" height="4.03508772"></rect>
                    <rect id="Rectangle-262" fill="#077CA0" sketch:type="MSShapeGroup" x="12.1052632" y="12.1052632" width="12.1052632" height="4.03508772"></rect>
                    <rect id="Rectangle-262" fill="#077CA0" sketch:type="MSShapeGroup" x="27.2368421" y="12.1052632" width="4.03508772" height="4.03508772"></rect>
                    <rect id="Rectangle-262" fill="#FFFFFF" sketch:type="MSShapeGroup" x="27.2368421" y="53.4649123" width="39.3421053" height="5.04385965"></rect>
                </g>
                <g id="Group-Copy-8" transform="translate(0.911406, 0.000000)" sketch:type="MSShapeGroup">
                    <rect id="Rectangle-177" fill="#F7F7F7" x="0" y="0" width="332.436975" height="189.119042" rx="1"></rect>
                    <g id="g106" transform="translate(0.000000, 187.218348)">
                        <g>
                            <g>
                                <path d="M332.436975,0.690953598 L332.436975,41.5558722 L0,41.5558722 L0,0.690953598 L332.436975,0.690953598 Z" id="Fill-247" fill="#2F4149"></path>
                                <path d="M160.836794,24.3494298 L68.1922,24.3494298 C66.4844513,24.3494298 65.1040468,22.9487211 65.1040468,21.2158534 C65.1040468,19.4861192 66.4844513,18.082277 68.1922,18.082277 L160.836794,18.082277 C162.544542,18.082277 163.924947,19.4861192 163.924947,21.2158534 C163.924947,22.9487211 162.544542,24.3494298 160.836794,24.3494298" id="Fill-1870" fill="#1B1D20"></path>
                                <path d="M18.5289187,33.750159 C16.8211701,33.750159 15.4407656,32.3494504 15.4407656,30.6165826 L15.4407656,11.8151242 C15.4407656,10.08539 16.8211701,8.68154776 18.5289187,8.68154776 C20.2366674,8.68154776 21.6170719,10.08539 21.6170719,11.8151242 L21.6170719,30.6165826 C21.6170719,32.3494504 20.2366674,33.750159 18.5289187,33.750159" id="Fill-1871" fill="#FFFFFF"></path>
                                <path d="M30.8815312,33.750159 C29.1737826,33.750159 27.7933781,32.3494504 27.7933781,30.6165826 L27.7933781,11.8151242 C27.7933781,10.08539 29.1737826,8.68154776 30.8815312,8.68154776 C32.5892799,8.68154776 33.9696844,10.08539 33.9696844,11.8151242 L33.9696844,30.6165826 C33.9696844,32.3494504 32.5892799,33.750159 30.8815312,33.750159" id="Fill-1872" fill="#FFFFFF"></path>
                                <path d="M111.805591,18.082277 L49.41045,18.082277 C47.7027013,18.082277 46.3222968,19.4861192 46.3222968,21.2158534 C46.3222968,22.9487211 47.7027013,24.3494298 49.41045,24.3494298 L121.196466,24.3494298 L121.196466,18.082277" id="Fill-2553" fill="#3AB0D5"></path>
                                <path d="M311.090794,24.3494298 L218.4462,24.3494298 C216.738451,24.3494298 215.358047,22.9487211 215.358047,21.2158534 C215.358047,19.4861192 216.738451,18.082277 218.4462,18.082277 L311.090794,18.082277 C312.798542,18.082277 314.178947,19.4861192 314.178947,21.2158534 C314.178947,22.9487211 312.798542,24.3494298 311.090794,24.3494298" id="Fill-1870" fill="#1B1D20"></path>
                                <path d="M235.963794,24.3494298 L143.3192,24.3494298 C141.611451,24.3494298 140.231047,22.9487211 140.231047,21.2158534 C140.231047,19.4861192 141.611451,18.082277 143.3192,18.082277 L235.963794,18.082277 C237.671542,18.082277 239.051947,19.4861192 239.051947,21.2158534 C239.051947,22.9487211 237.671542,24.3494298 235.963794,24.3494298" id="Fill-1870" fill="#1B1D20"></path>
                            </g>
                        </g>
                    </g>
                    <rect id="Rectangle-179" fill="#FFFFFF" x="120.159521" y="197.672164" width="5.634525" height="20.9076328"></rect>
                    <g id="g135" transform="translate(7.731092, 191.344538)">
                        <g id="Page-1">
                            <g>
                                <g id="g135">
                                    <path d="M31.928975,16.155898 C31.928975,25.0789677 24.7812886,32.3117961 15.9644875,32.3117961 C7.1476864,32.3117961 0,25.0789677 0,16.155898 C0,7.23338552 7.1476864,0 15.9644875,0 C24.7812886,0 31.928975,7.23338552 31.928975,16.155898" id="Fill-760" fill="#C7CBC7"></path>
                                    <path d="M18.1664858,7.79939906 L21.4694832,7.79939906 L21.4694832,24.512397 L18.1664858,24.512397 L18.1664858,7.79939906 L18.1664858,7.79939906 Z" id="Fill-1899" fill="#FFFFFF"></path>
                                    <path d="M17.6159862,7.24229912 L22.0199827,7.24229912 L22.0199827,25.069497 L17.6159862,25.069497 L17.6159862,7.24229912 L17.6159862,7.24229912 Z M18.7169853,23.9552971 L20.9189836,23.9552971 L20.9189836,8.35649899 L18.7169853,8.35649899 L18.7169853,23.9552971 L18.7169853,23.9552971 Z" id="Fill-1900" fill="#FFFFFF"></path>
                                    <path d="M10.4594918,7.79939906 L13.7624892,7.79939906 L13.7624892,24.512397 L10.4594918,24.512397 L10.4594918,7.79939906 L10.4594918,7.79939906 Z" id="Fill-1901" fill="#FFFFFF"></path>
                                    <path d="M9.90899224,7.24229912 L14.3129888,7.24229912 L14.3129888,25.069497 L9.90899224,25.069497 L9.90899224,7.24229912 L9.90899224,7.24229912 Z M11.0099914,23.9552971 L13.2119896,23.9552971 L13.2119896,8.35649899 L11.0099914,8.35649899 L11.0099914,23.9552971 L11.0099914,23.9552971 Z" id="Fill-1902" fill="#FFFFFF"></path>
                                </g>
                            </g>
                        </g>
                    </g>
                </g>
                <g id="e20" transform="translate(24.159664, 23.540347)" fill="#077CA0" sketch:type="MSShapeGroup">
                    <g id="Page-1">
                        <g>
                            <g id="e20">
                                <path d="M289.229143,96.148666 C289.229143,106.187279 281.01845,114.326594 270.891805,114.326594 L81.8465054,114.326594 L44.6435484,154.894096 L44.6435484,114.326594 L18.3373375,114.326594 C8.21069261,114.326594 0,106.187279 0,96.148666 L0,18.1779285 C0,8.13931594 8.21069261,0 18.3373375,0 L270.891805,0 C281.01845,0 289.229143,8.13931594 289.229143,18.1779285" id="Fill-368"></path>
                            </g>
                        </g>
                    </g>
                </g>
                <text id="absobef-bzde-text-pa" sketch:type="MSTextLayer" font-family="Wingdings" font-size="18" font-weight="normal" line-spacing="30" fill="#FFFFFF">
                    <tspan x="45.3095131" y="56.5883695">absobef bzde </tspan>
                    <tspan x="45.3095131" y="86.5883695">text parv hjkl </tspan>
                    <tspan x="45.3095131" y="116.58837">ace uaució</tspan>
                </text>
            </g>
        </g>
    </g>
</svg>