<?xml version="1.0" encoding="UTF-8" standalone="no"?>
<svg width="440px" height="239px" viewBox="0 0 440 239" version="1.1" xmlns="http://www.w3.org/2000/svg" xmlns:xlink="http://www.w3.org/1999/xlink" xmlns:sketch="http://www.bohemiancoding.com/sketch/ns">
    <!-- Generator: Sketch 3.4.4 (17249) - http://www.bohemiancoding.com/sketch -->
    <title>case-geolocation</title>
    <desc>Created with Sketch.</desc>
    <defs>
        <filter x="-50%" y="-50%" width="200%" height="200%" filterUnits="objectBoundingBox" id="filter-1">
            <feOffset dx="0" dy="1" in="SourceAlpha" result="shadowOffsetOuter1"></feOffset>
            <feGaussianBlur stdDeviation="1.5" in="shadowOffsetOuter1" result="shadowBlurOuter1"></feGaussianBlur>
            <feColorMatrix values="0 0 0 0 0   0 0 0 0 0   0 0 0 0 0  0 0 0 0.35 0" in="shadowBlurOuter1" type="matrix" result="shadowMatrixOuter1"></feColorMatrix>
            <feMerge>
                <feMergeNode in="shadowMatrixOuter1"></feMergeNode>
                <feMergeNode in="SourceGraphic"></feMergeNode>
            </feMerge>
        </filter>
        <ellipse id="path-2" cx="7.38270691" cy="7.38491049" rx="7.38270691" ry="7.38491049"></ellipse>
        <rect id="path-4" x="0" y="0" width="97.1551724" height="56.5086207"></rect>
    </defs>
    <g id="Style-Inventory" stroke="none" stroke-width="1" fill="none" fill-rule="evenodd" sketch:type="MSPage">
        <g id="Uses-cases" sketch:type="MSArtboardGroup" transform="translate(-852.000000, -1149.000000)">
            <g id="case-geolocation" sketch:type="MSLayerGroup" transform="translate(859.000000, 1151.000000)">
                <g id="Group-Copy-13" transform="translate(0.000000, 3.965517)" sketch:type="MSShapeGroup">
                    <path d="M286.119598,0 L286.119598,224.979209 L0.127674966,224.979209 L0.127674966,0 L286.119598,0 Z M142.106067,103.139303 L146.874727,103.139303 L146.874727,110.496664 L142.106067,110.496664 L142.106067,103.139303 Z M142.106067,103.139303 L146.874727,103.139303 L146.874727,110.496664 L142.106067,110.496664 L142.106067,103.139303 Z M142.106067,103.139303 L146.874727,103.139303 L146.874727,110.496664 L142.106067,110.496664 L142.106067,103.139303 Z M142.106067,103.139303 L146.874727,103.139303 L146.874727,110.496664 L142.106067,110.496664 L142.106067,103.139303 Z" id="Stroke-664" stroke="#FFFFFF" stroke-width="4" fill="#F7F7F7" filter="url(#filter-1)"></path>
                    <rect id="Rectangle-228-Copy-4" fill="#C7C7C7" x="6.67612396" y="110.632911" width="58.1776517" height="102.049323" rx="2"></rect>
                    <rect id="Rectangle-228-Copy-2" fill="#077CA0" x="134.476211" y="67.7149716" width="48.6403317" height="154.504583" rx="18"></rect>
                    <rect id="Rectangle-228-Copy-3" fill="#CED2D6" x="94.4194675" y="132.568747" width="34.3343518" height="79.1597556" rx="5"></rect>
                    <rect id="Rectangle-232" fill="#DDDFDF" x="142.106067" y="136.383675" width="4.76865997" height="7.3573611"></rect>
                    <rect id="Rectangle-232" fill="#DDDFDF" x="151.643387" y="136.383675" width="4.76865997" height="7.3573611"></rect>
                    <rect id="Rectangle-232" fill="#DDDFDF" x="161.180707" y="136.383675" width="4.76865997" height="7.3573611"></rect>
                    <rect id="Rectangle-232" fill="#DDDFDF" x="170.718027" y="136.383675" width="4.76865997" height="7.3573611"></rect>
                    <rect id="Rectangle-232" fill="#DDDFDF" x="142.106067" y="147.419717" width="4.76865997" height="7.3573611"></rect>
                    <rect id="Rectangle-232" fill="#DDDFDF" x="151.643387" y="147.419717" width="4.76865997" height="7.3573611"></rect>
                    <rect id="Rectangle-232" fill="#DDDFDF" x="161.180707" y="147.419717" width="4.76865997" height="7.3573611"></rect>
                    <rect id="Rectangle-232" fill="#DDDFDF" x="170.718027" y="147.419717" width="4.76865997" height="7.3573611"></rect>
                    <rect id="Rectangle-232" fill="#DDDFDF" x="142.106067" y="158.455759" width="4.76865997" height="7.3573611"></rect>
                    <rect id="Rectangle-232" fill="#DDDFDF" x="151.643387" y="158.455759" width="4.76865997" height="7.3573611"></rect>
                    <rect id="Rectangle-232" fill="#DDDFDF" x="161.180707" y="158.455759" width="4.76865997" height="7.3573611"></rect>
                    <rect id="Rectangle-232" fill="#DDDFDF" x="170.718027" y="158.455759" width="4.76865997" height="7.3573611"></rect>
                    <rect id="Rectangle-232" fill="#DDDFDF" x="142.106067" y="169.4918" width="4.76865997" height="7.3573611"></rect>
                    <rect id="Rectangle-232" fill="#DDDFDF" x="151.643387" y="169.4918" width="4.76865997" height="7.3573611"></rect>
                    <rect id="Rectangle-232" fill="#DDDFDF" x="161.180707" y="169.4918" width="4.76865997" height="7.3573611"></rect>
                    <rect id="Rectangle-232" fill="#DDDFDF" x="170.718027" y="169.4918" width="4.76865997" height="7.3573611"></rect>
                    <rect id="Rectangle-232" fill="#DDDFDF" x="142.106067" y="180.527842" width="4.76865997" height="7.3573611"></rect>
                    <rect id="Rectangle-232" fill="#DDDFDF" x="151.643387" y="180.527842" width="4.76865997" height="7.3573611"></rect>
                    <rect id="Rectangle-232" fill="#DDDFDF" x="161.180707" y="180.527842" width="4.76865997" height="7.3573611"></rect>
                    <rect id="Rectangle-232" fill="#DDDFDF" x="170.718027" y="180.527842" width="4.76865997" height="7.3573611"></rect>
                    <rect id="Rectangle-232" fill="#DDDFDF" x="142.106067" y="81.0672196" width="4.76865997" height="7.3573611"></rect>
                    <rect id="Rectangle-232" fill="#DDDFDF" x="151.643387" y="81.0672196" width="4.76865997" height="7.3573611"></rect>
                    <rect id="Rectangle-232" fill="#DDDFDF" x="161.180707" y="81.0672196" width="4.76865997" height="7.3573611"></rect>
                    <rect id="Rectangle-232" fill="#DDDFDF" x="170.718027" y="81.0672196" width="4.76865997" height="7.3573611"></rect>
                    <rect id="Rectangle-232" fill="#DDDFDF" x="142.106067" y="92.1032612" width="4.76865997" height="7.3573611"></rect>
                    <rect id="Rectangle-232" fill="#DDDFDF" x="151.643387" y="92.1032612" width="4.76865997" height="7.3573611"></rect>
                    <rect id="Rectangle-232" fill="#DDDFDF" x="161.180707" y="92.1032612" width="4.76865997" height="7.3573611"></rect>
                    <rect id="Rectangle-232" fill="#DDDFDF" x="170.718027" y="92.1032612" width="4.76865997" height="7.3573611"></rect>
                    <rect id="Rectangle-232" fill="#DDDFDF" x="161.180707" y="103.139303" width="4.76865997" height="7.3573611"></rect>
                    <rect id="Rectangle-232" fill="#DDDFDF" x="142.106067" y="114.175345" width="4.76865997" height="7.3573611"></rect>
                    <rect id="Rectangle-232" fill="#DDDFDF" x="151.643387" y="114.175345" width="4.76865997" height="7.3573611"></rect>
                    <rect id="Rectangle-232" fill="#DDDFDF" x="161.180707" y="114.175345" width="4.76865997" height="7.3573611"></rect>
                    <rect id="Rectangle-232" fill="#DDDFDF" x="170.718027" y="114.175345" width="4.76865997" height="7.3573611"></rect>
                    <rect id="Rectangle-232" fill="#DDDFDF" x="142.106067" y="125.211386" width="4.76865997" height="7.3573611"></rect>
                    <rect id="Rectangle-232" fill="#DDDFDF" x="151.643387" y="125.211386" width="4.76865997" height="7.3573611"></rect>
                    <rect id="Rectangle-232" fill="#DDDFDF" x="161.180707" y="125.211386" width="4.76865997" height="7.3573611"></rect>
                    <rect id="Rectangle-232" fill="#2F4149" x="170.718027" y="125.211386" width="4.76865997" height="7.3573611"></rect>
                    <rect id="Rectangle-232" fill="#DDDFDF" x="142.106067" y="103.139303" width="4.76865997" height="7.3573611"></rect>
                    <rect id="Rectangle-232" fill="#DDDFDF" x="151.643387" y="103.139303" width="4.76865997" height="7.3573611"></rect>
                    <rect id="Rectangle-232" fill="#DDDFDF" x="170.718027" y="103.139303" width="4.76865997" height="7.3573611"></rect>
                    <rect id="Rectangle-228-Copy" fill="#D0D3D4" x="164.041903" y="123.031427" width="114.447839" height="102.049323" rx="5"></rect>
                    <rect id="Rectangle-312" fill="#F8F8F8" x="100.141859" y="138.291139" width="23.8432999" height="4.76865997"></rect>
                    <rect id="Rectangle-312" fill="#F8F8F8" x="100.141859" y="147.828459" width="23.8432999" height="4.76865997"></rect>
                    <rect id="Rectangle-312" fill="#F8F8F8" x="100.141859" y="157.365779" width="23.8432999" height="4.76865997"></rect>
                    <rect id="Rectangle-312" fill="#F8F8F8" x="100.141859" y="166.903099" width="23.8432999" height="4.76865997"></rect>
                    <rect id="Rectangle-312" fill="#F8F8F8" x="100.141859" y="176.440419" width="23.8432999" height="4.76865997"></rect>
                    <g id="Rectangle-228-+-Group" transform="translate(58.177652, 103.003055)">
                        <rect id="Rectangle-228" fill="#077CA0" x="0" y="0" width="48.6403317" height="102.049323" rx="5"></rect>
                        <rect id="Rectangle-232" fill="#F4F6F7" x="7.62985596" y="6.67612396" width="4.76865997" height="9.53731995"></rect>
                        <rect id="Rectangle-232" fill="#F4F6F7" x="17.1671759" y="6.67612396" width="4.76865997" height="9.53731995"></rect>
                        <rect id="Rectangle-232" fill="#F4F6F7" x="26.7044959" y="6.67612396" width="4.76865997" height="9.53731995"></rect>
                        <rect id="Rectangle-232" fill="#F4F6F7" x="36.2418158" y="6.67612396" width="4.76865997" height="9.53731995"></rect>
                        <rect id="Rectangle-232" fill="#F4F6F7" x="7.62985596" y="20.9821039" width="4.76865997" height="9.53731995"></rect>
                        <rect id="Rectangle-232" fill="#F4F6F7" x="17.1671759" y="20.9821039" width="4.76865997" height="9.53731995"></rect>
                        <rect id="Rectangle-232" fill="#F4F6F7" x="26.7044959" y="20.9821039" width="4.76865997" height="9.53731995"></rect>
                        <rect id="Rectangle-232" fill="#F4F6F7" x="36.2418158" y="20.9821039" width="4.76865997" height="9.53731995"></rect>
                        <rect id="Rectangle-232" fill="#F4F6F7" x="7.62985596" y="35.2880838" width="4.76865997" height="9.53731995"></rect>
                        <rect id="Rectangle-232" fill="#F4F6F7" x="17.1671759" y="35.2880838" width="4.76865997" height="9.53731995"></rect>
                        <rect id="Rectangle-232" fill="#F4F6F7" x="26.7044959" y="35.2880838" width="4.76865997" height="9.53731995"></rect>
                        <rect id="Rectangle-232" fill="#F4F6F7" x="36.2418158" y="35.2880838" width="4.76865997" height="9.53731995"></rect>
                        <rect id="Rectangle-232" fill="#F4F6F7" x="7.62985596" y="49.5940637" width="4.76865997" height="9.53731995"></rect>
                        <rect id="Rectangle-232" fill="#F4F6F7" x="17.1671759" y="49.5940637" width="4.76865997" height="9.53731995"></rect>
                        <rect id="Rectangle-232" fill="#F4F6F7" x="26.7044959" y="49.5940637" width="4.76865997" height="9.53731995"></rect>
                        <rect id="Rectangle-232" fill="#F4F6F7" x="36.2418158" y="49.5940637" width="4.76865997" height="9.53731995"></rect>
                        <rect id="Rectangle-232" fill="#F4F6F7" x="7.62985596" y="63.9000436" width="4.76865997" height="9.53731995"></rect>
                        <rect id="Rectangle-232" fill="#F4F6F7" x="17.1671759" y="63.9000436" width="4.76865997" height="9.53731995"></rect>
                        <rect id="Rectangle-232" fill="#F4F6F7" x="26.7044959" y="63.9000436" width="4.76865997" height="9.53731995"></rect>
                        <rect id="Rectangle-232" fill="#F4F6F7" x="36.2418158" y="63.9000436" width="4.76865997" height="9.53731995"></rect>
                    </g>
                    <path d="M88.6970755,195.991925 L88.6970755,178.405976" id="Line" stroke="#AC9A76" stroke-width="6" stroke-linecap="square"></path>
                    <path d="M141.152335,198.853121 L141.152335,181.267172" id="Line-Copy-2" stroke="#AC9A76" stroke-width="6" stroke-linecap="square"></path>
                    <path d="M285.991923,195.515059 L285.991923,225.449634 L0,225.449634 L0,195.515059 L285.991923,195.515059 Z" id="Fill-2569" fill="#B8C1C6"></path>
                    <ellipse id="Oval-123" fill="#7EAE49" cx="89.1739415" cy="168.333697" rx="13.8291139" ry="13.8291139"></ellipse>
                    <ellipse id="Oval-123-Copy" fill="#7EAE49" cx="85.3590135" cy="173.102357" rx="13.8291139" ry="13.8291139"></ellipse>
                    <ellipse id="Oval-123-Copy-2" fill="#7EAE49" cx="91.5582715" cy="173.579223" rx="11.4447839" ry="11.4447839"></ellipse>
                    <rect id="Rectangle-354" fill="#F8F8F8" x="47.6865997" y="179.821832" width="5.72239197" height="6.15590651"></rect>
                    <rect id="Rectangle-353" fill="#F8F8F8" x="36.2418158" y="179.821832" width="5.72239197" height="6.15590651"></rect>
                    <rect id="Rectangle-352" fill="#F8F8F8" x="24.7970319" y="179.821832" width="5.72239197" height="6.15590651"></rect>
                    <rect id="Rectangle-351" fill="#F8F8F8" x="13.3522479" y="179.821832" width="5.72239197" height="6.15590651"></rect>
                    <rect id="Rectangle-343" fill="#F8F8F8" x="47.6865997" y="167.510019" width="5.72239197" height="6.15590651"></rect>
                    <rect id="Rectangle-342" fill="#F8F8F8" x="36.2418158" y="167.510019" width="5.72239197" height="6.15590651"></rect>
                    <rect id="Rectangle-341" fill="#F8F8F8" x="24.7970319" y="167.510019" width="5.72239197" height="6.15590651"></rect>
                    <rect id="Rectangle-340" fill="#F8F8F8" x="13.3522479" y="167.510019" width="5.72239197" height="6.15590651"></rect>
                    <rect id="Rectangle-332" fill="#F8F8F8" x="47.6865997" y="155.198206" width="5.72239197" height="6.15590651"></rect>
                    <rect id="Rectangle-331" fill="#F8F8F8" x="36.2418158" y="155.198206" width="5.72239197" height="6.15590651"></rect>
                    <rect id="Rectangle-330" fill="#F8F8F8" x="24.7970319" y="155.198206" width="5.72239197" height="6.15590651"></rect>
                    <rect id="Rectangle-329" fill="#F8F8F8" x="13.3522479" y="155.198206" width="5.72239197" height="6.15590651"></rect>
                    <rect id="Rectangle-321" fill="#F8F8F8" x="47.6865997" y="142.886393" width="5.72239197" height="6.15590651"></rect>
                    <rect id="Rectangle-320" fill="#F8F8F8" x="36.2418158" y="142.886393" width="5.72239197" height="6.15590651"></rect>
                    <rect id="Rectangle-319" fill="#F8F8F8" x="24.7970319" y="142.886393" width="5.72239197" height="6.15590651"></rect>
                    <rect id="Rectangle-318" fill="#F8F8F8" x="13.3522479" y="142.886393" width="5.72239197" height="6.15590651"></rect>
                    <rect id="Rectangle-310" fill="#F8F8F8" x="47.6865997" y="130.57458" width="5.72239197" height="6.15590651"></rect>
                    <rect id="Rectangle-309" fill="#F8F8F8" x="36.2418158" y="130.57458" width="5.72239197" height="6.15590651"></rect>
                    <rect id="Rectangle-308" fill="#F8F8F8" x="24.7970319" y="130.57458" width="5.72239197" height="6.15590651"></rect>
                    <rect id="Rectangle-307" fill="#F8F8F8" x="13.3522479" y="130.57458" width="5.72239197" height="6.15590651"></rect>
                    <rect id="Rectangle-299" fill="#F8F8F8" x="47.6865997" y="118.262767" width="5.72239197" height="6.15590651"></rect>
                    <rect id="Rectangle-298" fill="#F8F8F8" x="36.2418158" y="118.262767" width="5.72239197" height="6.15590651"></rect>
                    <rect id="Rectangle-297-Copy" fill="#F8F8F8" x="24.7970319" y="118.262767" width="5.72239197" height="6.15590651"></rect>
                    <rect id="Rectangle-297" fill="#F8F8F8" x="13.3522479" y="118.262767" width="5.72239197" height="6.15590651"></rect>
                    <ellipse id="Oval-123" fill="#7EAE49" cx="142.106067" cy="165.472501" rx="11.4447839" ry="13.8291139"></ellipse>
                    <ellipse id="Oval-123-Copy" fill="#7EAE49" cx="134.476211" cy="174.056089" rx="11.4447839" ry="13.8291139"></ellipse>
                    <ellipse id="Oval-123-Copy-2" fill="#7EAE49" cx="145.920995" cy="173.579223" rx="9.53731995" ry="11.4447839"></ellipse>
                    <ellipse id="Oval-123" fill="#7EAE49" cx="135.429943" cy="160.703841" rx="11.4447839" ry="13.8291139"></ellipse>
                    <rect id="Rectangle-329" fill="#FFFFFF" x="171.671759" y="158.319511" width="4.76865997" height="4.76865997"></rect>
                    <rect id="Rectangle-319" fill="#FFFFFF" x="181.209079" y="148.782191" width="4.76865997" height="4.76865997"></rect>
                    <rect id="Rectangle-361" fill="#FFFFFF" x="267.044959" y="177.394151" width="4.76865997" height="4.76865997"></rect>
                    <rect id="Rectangle-360" fill="#FFFFFF" x="257.507639" y="177.394151" width="4.76865997" height="4.76865997"></rect>
                    <rect id="Rectangle-359" fill="#FFFFFF" x="247.970319" y="177.394151" width="4.76865997" height="4.76865997"></rect>
                    <rect id="Rectangle-358" fill="#FFFFFF" x="238.432999" y="177.394151" width="4.76865997" height="4.76865997"></rect>
                    <rect id="Rectangle-357" fill="#FFFFFF" x="228.895679" y="177.394151" width="4.76865997" height="4.76865997"></rect>
                    <rect id="Rectangle-356" fill="#FFFFFF" x="219.358359" y="177.394151" width="4.76865997" height="4.76865997"></rect>
                    <rect id="Rectangle-355" fill="#FFFFFF" x="209.821039" y="177.394151" width="4.76865997" height="4.76865997"></rect>
                    <rect id="Rectangle-354" fill="#FFFFFF" x="200.283719" y="177.394151" width="4.76865997" height="4.76865997"></rect>
                    <rect id="Rectangle-353" fill="#FFFFFF" x="190.746399" y="177.394151" width="4.76865997" height="4.76865997"></rect>
                    <rect id="Rectangle-352" fill="#FFFFFF" x="181.209079" y="177.394151" width="4.76865997" height="4.76865997"></rect>
                    <rect id="Rectangle-351" fill="#FFFFFF" x="171.671759" y="177.394151" width="4.76865997" height="4.76865997"></rect>
                    <rect id="Rectangle-350" fill="#FFFFFF" x="267.044959" y="167.856831" width="4.76865997" height="4.76865997"></rect>
                    <rect id="Rectangle-349" fill="#FFFFFF" x="257.507639" y="167.856831" width="4.76865997" height="4.76865997"></rect>
                    <rect id="Rectangle-348" fill="#FFFFFF" x="247.970319" y="167.856831" width="4.76865997" height="4.76865997"></rect>
                    <rect id="Rectangle-347" fill="#FFFFFF" x="238.432999" y="167.856831" width="4.76865997" height="4.76865997"></rect>
                    <rect id="Rectangle-346" fill="#FFFFFF" x="228.895679" y="167.856831" width="4.76865997" height="4.76865997"></rect>
                    <rect id="Rectangle-345" fill="#FFFFFF" x="219.358359" y="167.856831" width="4.76865997" height="4.76865997"></rect>
                    <rect id="Rectangle-344" fill="#FFFFFF" x="209.821039" y="167.856831" width="4.76865997" height="4.76865997"></rect>
                    <rect id="Rectangle-343" fill="#FFFFFF" x="200.283719" y="167.856831" width="4.76865997" height="4.76865997"></rect>
                    <rect id="Rectangle-342" fill="#FFFFFF" x="190.746399" y="167.856831" width="4.76865997" height="4.76865997"></rect>
                    <rect id="Rectangle-341" fill="#FFFFFF" x="181.209079" y="167.856831" width="4.76865997" height="4.76865997"></rect>
                    <rect id="Rectangle-340" fill="#FFFFFF" x="171.671759" y="167.856831" width="4.76865997" height="4.76865997"></rect>
                    <rect id="Rectangle-339" fill="#FFFFFF" x="267.044959" y="158.319511" width="4.76865997" height="4.76865997"></rect>
                    <rect id="Rectangle-338" fill="#FFFFFF" x="257.507639" y="158.319511" width="4.76865997" height="4.76865997"></rect>
                    <rect id="Rectangle-337" fill="#FFFFFF" x="247.970319" y="158.319511" width="4.76865997" height="4.76865997"></rect>
                    <rect id="Rectangle-336" fill="#FFFFFF" x="238.432999" y="158.319511" width="4.76865997" height="4.76865997"></rect>
                    <rect id="Rectangle-335" fill="#FFFFFF" x="228.895679" y="158.319511" width="4.76865997" height="4.76865997"></rect>
                    <rect id="Rectangle-334" fill="#FFFFFF" x="219.358359" y="158.319511" width="4.76865997" height="4.76865997"></rect>
                    <rect id="Rectangle-333" fill="#FFFFFF" x="209.821039" y="158.319511" width="4.76865997" height="4.76865997"></rect>
                    <rect id="Rectangle-332" fill="#FFFFFF" x="200.283719" y="158.319511" width="4.76865997" height="4.76865997"></rect>
                    <rect id="Rectangle-331" fill="#FFFFFF" x="190.746399" y="158.319511" width="4.76865997" height="4.76865997"></rect>
                    <rect id="Rectangle-330" fill="#FFFFFF" x="181.209079" y="158.319511" width="4.76865997" height="4.76865997"></rect>
                    <rect id="Rectangle-328" fill="#FFFFFF" x="267.044959" y="148.782191" width="4.76865997" height="4.76865997"></rect>
                    <rect id="Rectangle-327" fill="#FFFFFF" x="257.507639" y="148.782191" width="4.76865997" height="4.76865997"></rect>
                    <rect id="Rectangle-326" fill="#FFFFFF" x="247.970319" y="148.782191" width="4.76865997" height="4.76865997"></rect>
                    <rect id="Rectangle-325" fill="#FFFFFF" x="238.432999" y="148.782191" width="4.76865997" height="4.76865997"></rect>
                    <rect id="Rectangle-324" fill="#FFFFFF" x="228.895679" y="148.782191" width="4.76865997" height="4.76865997"></rect>
                    <rect id="Rectangle-323" fill="#FFFFFF" x="219.358359" y="148.782191" width="4.76865997" height="4.76865997"></rect>
                    <rect id="Rectangle-322" fill="#FFFFFF" x="209.821039" y="148.782191" width="4.76865997" height="4.76865997"></rect>
                    <rect id="Rectangle-321" fill="#FFFFFF" x="200.283719" y="148.782191" width="4.76865997" height="4.76865997"></rect>
                    <rect id="Rectangle-320" fill="#FFFFFF" x="190.746399" y="148.782191" width="4.76865997" height="4.76865997"></rect>
                    <rect id="Rectangle-318" fill="#FFFFFF" x="171.671759" y="148.782191" width="4.76865997" height="4.76865997"></rect>
                    <rect id="Rectangle-317" fill="#FFFFFF" x="267.044959" y="139.244871" width="4.76865997" height="4.76865997"></rect>
                    <rect id="Rectangle-316" fill="#FFFFFF" x="257.507639" y="139.244871" width="4.76865997" height="4.76865997"></rect>
                    <rect id="Rectangle-315" fill="#FFFFFF" x="247.970319" y="139.244871" width="4.76865997" height="4.76865997"></rect>
                    <rect id="Rectangle-314" fill="#FFFFFF" x="238.432999" y="139.244871" width="4.76865997" height="4.76865997"></rect>
                    <rect id="Rectangle-313" fill="#FFFFFF" x="228.895679" y="139.244871" width="4.76865997" height="4.76865997"></rect>
                    <rect id="Rectangle-312-Copy" fill="#FFFFFF" x="219.358359" y="139.244871" width="4.76865997" height="4.76865997"></rect>
                    <rect id="Rectangle-311" fill="#FFFFFF" x="209.821039" y="139.244871" width="4.76865997" height="4.76865997"></rect>
                    <rect id="Rectangle-310" fill="#FFFFFF" x="200.283719" y="139.244871" width="4.76865997" height="4.76865997"></rect>
                    <rect id="Rectangle-309" fill="#FFFFFF" x="190.746399" y="139.244871" width="4.76865997" height="4.76865997"></rect>
                    <rect id="Rectangle-308" fill="#FFFFFF" x="181.209079" y="139.244871" width="4.76865997" height="4.76865997"></rect>
                    <rect id="Rectangle-307" fill="#FFFFFF" x="171.671759" y="139.244871" width="4.76865997" height="4.76865997"></rect>
                    <rect id="Rectangle-306" fill="#FFFFFF" x="267.044959" y="129.707551" width="4.76865997" height="4.76865997"></rect>
                    <rect id="Rectangle-305" fill="#FFFFFF" x="257.507639" y="129.707551" width="4.76865997" height="4.76865997"></rect>
                    <rect id="Rectangle-304" fill="#FFFFFF" x="247.970319" y="129.707551" width="4.76865997" height="4.76865997"></rect>
                    <rect id="Rectangle-303" fill="#FFFFFF" x="238.432999" y="129.707551" width="4.76865997" height="4.76865997"></rect>
                    <rect id="Rectangle-302" fill="#FFFFFF" x="228.895679" y="129.707551" width="4.76865997" height="4.76865997"></rect>
                    <rect id="Rectangle-301" fill="#FFFFFF" x="219.358359" y="129.707551" width="4.76865997" height="4.76865997"></rect>
                    <rect id="Rectangle-300" fill="#FFFFFF" x="209.821039" y="129.707551" width="4.76865997" height="4.76865997"></rect>
                    <rect id="Rectangle-299" fill="#FFFFFF" x="200.283719" y="129.707551" width="4.76865997" height="4.76865997"></rect>
                    <rect id="Rectangle-298" fill="#FFFFFF" x="190.746399" y="129.707551" width="4.76865997" height="4.76865997"></rect>
                    <rect id="Rectangle-297-Copy" fill="#FFFFFF" x="181.209079" y="129.707551" width="4.76865997" height="4.76865997"></rect>
                    <rect id="Rectangle-297" fill="#FFFFFF" x="171.671759" y="129.707551" width="4.76865997" height="4.76865997"></rect>
                    <ellipse id="Oval-91" fill="#F88B1C" cx="41.637931" cy="42.8313793" rx="16.8534483" ry="17.0555173"></ellipse>
                </g>
                <g id="Group" transform="translate(320.215517, 0.000000)">
                    <rect id="Rectangle-163" fill="#2F4149" sketch:type="MSShapeGroup" x="0" y="0" width="109.051724" height="89.2241379" rx="1"></rect>
                    <g id="g236" transform="translate(5.948276, 68.405172)">
                        <mask id="mask-3" sketch:name="Mask" fill="white">
                            <use xlink:href="#path-2"></use>
                        </mask>
                        <use id="Mask" fill="#FFFFFF" sketch:type="MSShapeGroup" xlink:href="#path-2"></use>
                        <g mask="url(#mask-3)" fill="#F88B1C" sketch:type="MSShapeGroup">
                            <g transform="translate(2.793457, 2.794290)">
                                <path d="M8.26065044,3.64968549 C8.26065044,1.63414668 6.616781,0 4.58925024,0 C2.56171949,0 0.917850049,1.63414668 0.917850049,3.64968549 C0.917850049,5.6652243 2.56171949,7.29937098 4.58925024,7.29937098 C6.616781,7.29937098 8.26065044,5.6652243 8.26065044,3.64968549" id="Fill-1585"></path>
                                <path d="M4.58925024,7.29937098 C2.05506626,7.29937098 0,9.34228244 0,11.8614778 L0,12.7738992 L9.17850049,12.7738992 L9.17850049,11.8614778 C9.17850049,9.34228244 7.12343423,7.29937098 4.58925024,7.29937098" id="Fill-1586"></path>
                            </g>
                        </g>
                    </g>
                    <g id="Rectangle-262" transform="translate(5.948276, 5.948276)">
                        <mask id="mask-5" sketch:name="Mask" fill="white">
                            <use xlink:href="#path-4"></use>
                        </mask>
                        <use id="Mask" fill="#FFFFFF" sketch:type="MSShapeGroup" xlink:href="#path-4"></use>
                        <path d="M5.94827586,66.8536924 L92.6295545,-19.8275862 L101.7539,-10.7032411 L15.072621,75.9780375 L5.94827586,66.8536924 L5.94827586,66.8536924 Z" fill="#D3D3D3" sketch:type="MSShapeGroup" mask="url(#mask-5)"></path>
                        <path d="M91.9182255,80.2236051 L48.5775862,36.8829658 L57.7019313,27.7586207 L101.042571,71.09926 L91.9182255,80.2236051 L91.9182255,80.2236051 Z" fill="#D3D3D3" sketch:type="MSShapeGroup" mask="url(#mask-5)"></path>
                        <path d="M58.211329,19.7494672 L33.3588404,-5.10302138 L42.4831855,-14.2273665 L67.3356741,10.6251221 L58.211329,19.7494672 L58.211329,19.7494672 Z" fill="#D3D3D3" sketch:type="MSShapeGroup" mask="url(#mask-5)"></path>
                        <path d="M30.8007644,51.8216612 L-24.6624277,-3.6415309 L-15.5380826,-12.765876 L39.9251095,42.6973161 L30.8007644,51.8216612 L30.8007644,51.8216612 Z" id="Rectangle-262-Copy" fill="#D3D3D3" sketch:type="MSShapeGroup" mask="url(#mask-5)"></path>
                    </g>
                    <rect id="Rectangle-262" fill="#FFFFFF" sketch:type="MSShapeGroup" x="26.7672414" y="73.362069" width="38.6637931" height="4.95689655"></rect>
                    <g id="g224" transform="translate(40.646552, 15.862069)" fill="#077CA0" sketch:type="MSShapeGroup">
                        <g id="Page-1">
                            <g>
                                <g id="g224">
                                    <path d="M22.7977544,4.06914943 L22.7977544,4.06914943 C17.6072726,-0.890825123 9.19120399,-0.890825123 3.99999092,4.06914943 C-0.677146543,8.53794745 -1.20365357,16.9529261 2.76562443,22.0086207 L13.3988727,36.6810345 L24.0328522,22.0086207 C28.0013989,16.9529261 27.4748919,8.53794745 22.7977544,4.06914943 L22.7977544,4.06914943 L22.7977544,4.06914943 Z M13.5283057,17.1178161 C11.1049108,17.1178161 9.14074707,15.2411445 9.14074707,12.9256979 C9.14074707,10.6109499 11.1049108,8.73357964 13.5283057,8.73357964 C15.9517005,8.73357964 17.9158642,10.6109499 17.9158642,12.9256979 C17.9158642,15.2411445 15.9517005,17.1178161 13.5283057,17.1178161 L13.5283057,17.1178161 L13.5283057,17.1178161 Z" id="Fill-2695"></path>
                                </g>
                            </g>
                        </g>
                    </g>
                </g>
            </g>
        </g>
    </g>
</svg>