<?xml version="1.0" encoding="UTF-8" standalone="no"?>
<svg width="510px" height="" viewBox="0 0 510 251" version="1.1" xmlns="http://www.w3.org/2000/svg" xmlns:xlink="http://www.w3.org/1999/xlink" xmlns:sketch="http://www.bohemiancoding.com/sketch/ns">
    <!-- Generator: Sketch 3.4.4 (17249) - http://www.bohemiancoding.com/sketch -->
    <title>example-for-translate</title>
    <desc>Created with Sketch.</desc>
    <defs>
        <filter x="-50%" y="-50%" width="200%" height="200%" filterUnits="objectBoundingBox" id="filter-1">
            <feOffset dx="0" dy="1" in="SourceAlpha" result="shadowOffsetOuter1"></feOffset>
            <feGaussianBlur stdDeviation="1.5" in="shadowOffsetOuter1" result="shadowBlurOuter1"></feGaussianBlur>
            <feColorMatrix values="0 0 0 0 0   0 0 0 0 0   0 0 0 0 0  0 0 0 0.35 0" in="shadowBlurOuter1" type="matrix" result="shadowMatrixOuter1"></feColorMatrix>
            <feMerge>
                <feMergeNode in="shadowMatrixOuter1"></feMergeNode>
                <feMergeNode in="SourceGraphic"></feMergeNode>
            </feMerge>
        </filter>
        <filter x="-50%" y="-50%" width="200%" height="200%" filterUnits="objectBoundingBox" id="filter-2">
            <feOffset dx="0" dy="1" in="SourceAlpha" result="shadowOffsetOuter1"></feOffset>
            <feGaussianBlur stdDeviation="1.5" in="shadowOffsetOuter1" result="shadowBlurOuter1"></feGaussianBlur>
            <feColorMatrix values="0 0 0 0 0   0 0 0 0 0   0 0 0 0 0  0 0 0 0.35 0" in="shadowBlurOuter1" type="matrix" result="shadowMatrixOuter1"></feColorMatrix>
            <feMerge>
                <feMergeNode in="shadowMatrixOuter1"></feMergeNode>
                <feMergeNode in="SourceGraphic"></feMergeNode>
            </feMerge>
        </filter>
        <ellipse id="path-3" cx="7.44690436" cy="7.4491271" rx="7.44690436" ry="7.4491271"></ellipse>
    </defs>
    <g id="animations" stroke="none" stroke-width="1" fill="none" fill-rule="evenodd" sketch:type="MSPage">
        <g id="example-for-translate" sketch:type="MSLayerGroup" transform="translate(3.000000, 2.000000)">
            <g id="translate" sketch:type="MSShapeGroup">
                <rect id="translate-bg" fill="#F7F7F7" filter="url(#filter-1)" x="0" y="0" width="340" height="245" rx="1"></rect>
                <path d="M319.289287,119.492967 C319.289287,129.880749 310.793005,138.303172 300.314129,138.303172 L104.69334,138.303172 L66.1963675,180.281716 L66.1963675,138.303172 L38.9751579,138.303172 C28.4962819,138.303172 20,129.880749 20,119.492967 L20,38.8102043 C20,28.4224226 28.4962819,20 38.9751579,20 L300.314129,20 C310.793005,20 319.289287,28.4224226 319.289287,38.8102043" id="chat" fill="#077CA0"></path>
            </g>
            <g id="user5-card" transform="translate(370.000000, 0.000000)">
                <rect id="card5" fill="#2F4149" filter="url(#filter-2)" sketch:type="MSShapeGroup" x="0" y="0" width="134" height="69" rx="1"></rect>
                <rect id="input" fill="#FFFFFF" sketch:type="MSShapeGroup" x="6" y="6" width="122" height="36"></rect>
                <g id="user5-avatar" transform="translate(6.000000, 48.000000)">
                    <mask id="mask-4" sketch:name="Mask" fill="white">
                        <use xlink:href="#path-3"></use>
                    </mask>
                    <use id="Mask" fill="#FFFFFF" sketch:type="MSShapeGroup" xlink:href="#path-3"></use>
                    <g id="g236" mask="url(#mask-4)" fill="#F88B1C" sketch:type="MSShapeGroup">
                        <g transform="translate(2.817748, 2.818589)">
                            <path d="M8.33248218,3.68142189 C8.33248218,1.64835665 6.67431823,0 4.62915677,0 C2.58399531,0 0.925831353,1.64835665 0.925831353,3.68142189 C0.925831353,5.71448712 2.58399531,7.36284377 4.62915677,7.36284377 C6.67431823,7.36284377 8.33248218,5.71448712 8.33248218,3.68142189" id="Fill-1585"></path>
                            <path d="M4.62915677,7.36284377 C2.0729364,7.36284377 0,9.42351967 0,11.9646211 L0,12.8849766 L9.25831353,12.8849766 L9.25831353,11.9646211 C9.25831353,9.42351967 7.18537713,7.36284377 4.62915677,7.36284377" id="Fill-1586"></path>
                        </g>
                    </g>
                </g>
                <g id="user5-line3" transform="translate(12.000000, 32.000000)" fill="#077CA0" sketch:type="MSShapeGroup">
                    <rect id="Rectangle-262" x="0" y="0" width="65" height="4"></rect>
                    <rect id="Rectangle-262" x="70" y="0" width="11" height="4"></rect>
                    <rect id="Rectangle-262" x="85" y="0" width="16" height="4"></rect>
                </g>
                <g id="user5-line2" transform="translate(12.000000, 22.000000)" fill="#077CA0" sketch:type="MSShapeGroup">
                    <rect id="Rectangle-262" x="58" y="0" width="39" height="4"></rect>
                    <rect id="Rectangle-262" x="41" y="0" width="13" height="4"></rect>
                    <rect id="Rectangle-262" x="0" y="0" width="38" height="4"></rect>
                </g>
                <g id="user5-line1" transform="translate(12.000000, 12.000000)" fill="#077CA0" sketch:type="MSShapeGroup">
                    <rect id="Rectangle-262" x="52" y="0" width="37" height="4"></rect>
                    <rect id="Rectangle-262" x="96" y="0" width="11" height="4"></rect>
                    <rect id="Rectangle-262" x="22" y="0" width="26" height="4"></rect>
                    <rect id="Rectangle-262" x="0" y="0" width="12" height="4"></rect>
                    <rect id="Rectangle-262" x="15" y="0" width="4" height="4"></rect>
                </g>
                <rect id="user5-name" fill="#FFFFFF" sketch:type="MSShapeGroup" x="27" y="53" width="39" height="5"></rect>
            </g>
            <rect id="translate-ui" fill="#2F4149" sketch:type="MSShapeGroup" x="0" y="200" width="340" height="45"></rect>
            <path d="M45.5205078,52.2509766 L45.5205078,50.8359375 C48.2451308,52.0781312 50.8788935,52.6992188 53.421875,52.6992188 C55.0859458,52.6992188 56.4394479,52.482424 57.4824219,52.0488281 C56.8203092,51.7089827 56.3237321,51.2827174 55.9926758,50.7700195 C55.6616194,50.2573217 55.4960938,49.6552769 55.4960938,48.9638672 C55.4960938,48.0556595 55.8227506,47.2763704 56.4760742,46.6259766 C57.1293978,45.9755827 57.9130814,45.6503906 58.8271484,45.6503906 C59.7294967,45.6503906 60.5029265,45.972653 61.1474609,46.6171875 C61.7919954,47.261722 62.1142578,48.0380814 62.1142578,48.9462891 C62.1142578,50.3935619 61.2309659,51.5976514 59.4643555,52.5585938 C57.6977451,53.5195361 55.4814586,54 52.8154297,54 C50.5126838,54 48.0810675,53.416998 45.5205078,52.2509766 L45.5205078,52.2509766 Z M56.3662109,48.9726562 C56.3662109,49.6347689 56.6079077,50.2045875 57.0913086,50.6821289 C57.5747094,51.1596704 58.1533169,51.3984375 58.8271484,51.3984375 C59.5009799,51.3984375 60.0722633,51.1655297 60.5410156,50.699707 C61.009768,50.2338844 61.2441406,49.6640659 61.2441406,48.9902344 C61.2441406,48.3046841 61.0083031,47.7216821 60.5366211,47.2412109 C60.064939,46.7607398 59.4921909,46.5205078 58.8183594,46.5205078 C58.1386685,46.5205078 57.560061,46.759275 57.0825195,47.2368164 C56.6049781,47.7143579 56.3662109,48.2929654 56.3662109,48.9726562 L56.3662109,48.9726562 Z M62.1142578,42.7412109 L62.1142578,44.15625 C59.3896348,42.9081969 56.7558721,42.2841797 54.2128906,42.2841797 C52.5488198,42.2841797 51.1923881,42.5039041 50.1435547,42.9433594 C50.8115268,43.2773454 51.3110335,43.7021459 51.6420898,44.2177734 C51.9731462,44.733401 52.1386719,45.3369106 52.1386719,46.0283203 C52.1386719,46.936528 51.812015,47.7158171 51.1586914,48.3662109 C50.5053678,49.0166048 49.7216843,49.3417969 48.8076172,49.3417969 C47.8994095,49.3417969 47.1245149,49.0195345 46.4829102,48.375 C45.8413054,47.7304655 45.5205078,46.9541061 45.5205078,46.0458984 C45.5205078,44.5927662 46.4037998,43.385747 48.1704102,42.4248047 C49.9370206,41.4638624 52.153307,40.9833984 54.8193359,40.9833984 C57.1279412,40.9833984 59.5595575,41.5693301 62.1142578,42.7412109 L62.1142578,42.7412109 Z M51.2685547,46.0195312 C51.2685547,45.3515592 51.0253931,44.7802758 50.5390625,44.3056641 C50.0527319,43.8310523 49.4726596,43.59375 48.7988281,43.59375 C48.1249966,43.59375 47.5551781,43.8266578 47.0893555,44.2924805 C46.6235328,44.7583031 46.390625,45.3281216 46.390625,46.0019531 C46.390625,46.6875034 46.6264625,47.2705054 47.0981445,47.7509766 C47.5698266,48.2314477 48.1425748,48.4716797 48.8164062,48.4716797 C49.4960971,48.4716797 50.0747046,48.2314477 50.5522461,47.7509766 C51.0297875,47.2705054 51.2685547,46.6933627 51.2685547,46.0195312 L51.2685547,46.0195312 Z M79.0507812,56.2851562 C78.0371043,57.2168015 77.0644578,57.6826172 76.1328125,57.6826172 C75.3242147,57.6826172 74.6459988,57.4145535 74.0981445,56.878418 C73.5502902,56.3422825 73.2763672,55.6816446 73.2763672,54.8964844 C73.2763672,53.847651 73.8271429,52.1543086 74.9287109,49.8164062 L75.7724609,48.0234375 C76.4228548,46.6347587 76.7480469,45.5097699 76.7480469,44.6484375 C76.7480469,43.5468695 76.4272493,42.6621127 75.7856445,41.9941406 C75.1440398,41.3261685 74.2959037,40.9921875 73.2412109,40.9921875 C72.2509716,40.9921875 71.4497101,41.2895478 70.8374023,41.8842773 C70.2250946,42.4790069 69.9189453,43.2597608 69.9189453,44.2265625 C69.9189453,45.117192 70.2060518,46.1601503 70.7802734,47.3554688 L71.1230469,48.0673828 C71.6914091,49.2451231 71.9755859,50.1123019 71.9755859,50.6689453 C71.9755859,51.5654342 71.6372104,52.3447233 70.9604492,53.0068359 C70.283688,53.6689486 69.4853562,54 68.5654297,54 C67.6162062,54 66.8090854,53.666019 66.144043,52.9980469 C65.4790006,52.3300748 65.1464844,51.5185595 65.1464844,50.5634766 C65.1464844,49.6435501 65.4746061,48.8481479 66.1308594,48.1772461 C66.7871127,47.5063443 67.5693314,47.1708984 68.4775391,47.1708984 C68.8056657,47.1708984 69.1689433,47.2324213 69.5673828,47.3554688 C68.9345671,46.1425721 68.6181641,45.0703172 68.6181641,44.1386719 C68.6181641,42.9257752 69.056148,41.9165079 69.9321289,41.1108398 C70.8081098,40.3051718 71.9081965,39.9023438 73.2324219,39.9023438 C74.6855541,39.9023438 75.8515581,40.328609 76.7304688,41.1811523 C77.6093794,42.0336957 78.0488281,43.1660086 78.0488281,44.578125 C78.0488281,45.2812535 77.9755867,45.8876928 77.8291016,46.3974609 C77.6826165,46.9072291 77.3369168,47.748041 76.7919922,48.9199219 L76.1855469,50.2382812 C75.1074165,52.5703242 74.5683594,54.0790981 74.5683594,54.7646484 C74.5683594,55.2685572 74.7192368,55.6831038 75.0209961,56.0083008 C75.3227554,56.3334977 75.7080055,56.4960938 76.1767578,56.4960938 C76.7919953,56.4960938 77.4951132,56.1474644 78.2861328,55.4501953 L79.0507812,56.2851562 Z M66.1220703,50.5722656 C66.1220703,51.2636753 66.3520485,51.8452125 66.8120117,52.3168945 C67.271975,52.7885766 67.8388638,53.0244141 68.5126953,53.0244141 C69.1689486,53.0244141 69.7299781,52.7871117 70.1958008,52.3125 C70.6616234,51.8378883 70.8945312,51.2636752 70.8945312,50.5898438 C70.8945312,49.9042934 70.6630883,49.325686 70.2001953,48.8540039 C69.7373024,48.3823219 69.1689487,48.1464844 68.4951172,48.1464844 C67.8388639,48.1464844 67.2792992,48.3837867 66.8164062,48.8583984 C66.3535133,49.3330102 66.1220703,49.9042935 66.1220703,50.5722656 L66.1220703,50.5722656 Z M82.0830078,47.4960938 L84.6845703,43.8134766 L87.2861328,47.4960938 L84.6845703,51.1787109 L82.0830078,47.4960938 Z M92.0498047,52.2685547 L101.594727,52.2685547 L101.594727,42.7236328 L92.0498047,42.7236328 L92.0498047,52.2685547 Z M90.3183594,54 L90.3183594,40.9921875 L103.326172,40.9921875 L103.326172,54 L90.3183594,54 Z M120.262695,56.2851562 C119.249018,57.2168015 118.276372,57.6826172 117.344727,57.6826172 C116.536129,57.6826172 115.857913,57.4145535 115.310059,56.878418 C114.762204,56.3422825 114.488281,55.6816446 114.488281,54.8964844 C114.488281,53.847651 115.039057,52.1543086 116.140625,49.8164062 L116.984375,48.0234375 C117.634769,46.6347587 117.959961,45.5097699 117.959961,44.6484375 C117.959961,43.5468695 117.639163,42.6621127 116.997559,41.9941406 C116.355954,41.3261685 115.507818,40.9921875 114.453125,40.9921875 C113.462886,40.9921875 112.661624,41.2895478 112.049316,41.8842773 C111.437009,42.4790069 111.130859,43.2597608 111.130859,44.2265625 C111.130859,45.117192 111.417966,46.1601503 111.992188,47.3554688 L112.334961,48.0673828 C112.903323,49.2451231 113.1875,50.1123019 113.1875,50.6689453 C113.1875,51.5654342 112.849124,52.3447233 112.172363,53.0068359 C111.495602,53.6689486 110.69727,54 109.777344,54 C108.82812,54 108.020999,53.666019 107.355957,52.9980469 C106.690915,52.3300748 106.358398,51.5185595 106.358398,50.5634766 C106.358398,49.6435501 106.68652,48.8481479 107.342773,48.1772461 C107.999027,47.5063443 108.781245,47.1708984 109.689453,47.1708984 C110.01758,47.1708984 110.380857,47.2324213 110.779297,47.3554688 C110.146481,46.1425721 109.830078,45.0703172 109.830078,44.1386719 C109.830078,42.9257752 110.268062,41.9165079 111.144043,41.1108398 C112.020024,40.3051718 113.120111,39.9023438 114.444336,39.9023438 C115.897468,39.9023438 117.063472,40.328609 117.942383,41.1811523 C118.821293,42.0336957 119.260742,43.1660086 119.260742,44.578125 C119.260742,45.2812535 119.187501,45.8876928 119.041016,46.3974609 C118.894531,46.9072291 118.548831,47.748041 118.003906,48.9199219 L117.397461,50.2382812 C116.319331,52.5703242 115.780273,54.0790981 115.780273,54.7646484 C115.780273,55.2685572 115.931151,55.6831038 116.23291,56.0083008 C116.534669,56.3334977 116.91992,56.4960938 117.388672,56.4960938 C118.003909,56.4960938 118.707027,56.1474644 119.498047,55.4501953 L120.262695,56.2851562 Z M107.333984,50.5722656 C107.333984,51.2636753 107.563963,51.8452125 108.023926,52.3168945 C108.483889,52.7885766 109.050778,53.0244141 109.724609,53.0244141 C110.380863,53.0244141 110.941892,52.7871117 111.407715,52.3125 C111.873537,51.8378883 112.106445,51.2636752 112.106445,50.5898438 C112.106445,49.9042934 111.875002,49.325686 111.412109,48.8540039 C110.949216,48.3823219 110.380863,48.1464844 109.707031,48.1464844 C109.050778,48.1464844 108.491213,48.3837867 108.02832,48.8583984 C107.565427,49.3330102 107.333984,49.9042935 107.333984,50.5722656 L107.333984,50.5722656 Z M124.393555,54 L124.393555,44.71875 C124.393555,43.1718673 124.027347,41.9296922 123.294922,40.9921875 L124.692383,40.9921875 C125.184573,41.7421912 125.518554,42.5947218 125.694336,43.5498047 C126.104494,42.5302683 126.614255,41.6777378 127.223633,40.9921875 L128.480469,40.7373047 C129.066409,41.422855 129.438476,42.4072201 129.59668,43.6904297 C129.918947,42.7705032 130.443356,41.8710981 131.169922,40.9921875 L132.453125,40.7373047 C133.150394,41.6865282 133.499023,42.8085873 133.499023,44.1035156 L133.499023,52.1982422 C133.499023,53.0478558 133.52832,53.6235336 133.586914,53.925293 C133.645508,54.2270523 133.777343,54.4892567 133.982422,54.7119141 C134.357424,55.1044942 134.978511,55.3007812 135.845703,55.3007812 L136.645508,55.3007812 L136.645508,54 L138.702148,55.8544922 L136.645508,57.6474609 L136.645508,56.3818359 L135.450195,56.3818359 C134.313471,56.3818359 133.487307,56.0830108 132.97168,55.4853516 C132.456052,54.8876923 132.198242,53.9326237 132.198242,52.6201172 L132.198242,44.7802734 C132.198242,43.4619075 132.007814,42.5156279 131.626953,41.9414062 C130.654292,43.0605525 129.977541,44.4609291 129.59668,46.1425781 L129.59668,54 L128.295898,54 L128.295898,45.2460938 C128.295898,43.669914 128.105471,42.5683625 127.724609,41.9414062 C126.792964,42.9902396 126.116213,44.2939375 125.694336,45.8525391 L125.694336,54 L124.393555,54 Z M154.522461,41.5634766 L155.418945,47.9707031 L154.135742,48.1728516 L153.476562,43.5058594 L147.614258,49.3769531 L150.374023,52.1367188 L149.451172,53.0507812 L146.691406,50.2910156 L142.639648,54.3251953 L141.743164,53.4287109 L145.794922,49.3945312 L143.035156,46.6347656 L143.949219,45.7119141 L146.708984,48.4716797 L152.580078,42.609375 L147.913086,41.9501953 L148.115234,40.6669922 L154.522461,41.5634766 Z" id="word1" fill="#FFFFFF" sketch:type="MSShapeGroup"></path>
            <path d="M190.364258,56.2851562 C189.350581,57.2168015 188.377934,57.6826172 187.446289,57.6826172 C186.637691,57.6826172 185.959475,57.4145535 185.411621,56.878418 C184.863767,56.3422825 184.589844,55.6816446 184.589844,54.8964844 C184.589844,53.847651 185.140619,52.1543086 186.242188,49.8164062 L187.085938,48.0234375 C187.736331,46.6347587 188.061523,45.5097699 188.061523,44.6484375 C188.061523,43.5468695 187.740726,42.6621127 187.099121,41.9941406 C186.457516,41.3261685 185.60938,40.9921875 184.554688,40.9921875 C183.564448,40.9921875 182.763187,41.2895478 182.150879,41.8842773 C181.538571,42.4790069 181.232422,43.2597608 181.232422,44.2265625 C181.232422,45.117192 181.519528,46.1601503 182.09375,47.3554688 L182.436523,48.0673828 C183.004886,49.2451231 183.289062,50.1123019 183.289062,50.6689453 C183.289062,51.5654342 182.950687,52.3447233 182.273926,53.0068359 C181.597165,53.6689486 180.798833,54 179.878906,54 C178.929683,54 178.122562,53.666019 177.45752,52.9980469 C176.792477,52.3300748 176.459961,51.5185595 176.459961,50.5634766 C176.459961,49.6435501 176.788083,48.8481479 177.444336,48.1772461 C178.100589,47.5063443 178.882808,47.1708984 179.791016,47.1708984 C180.119142,47.1708984 180.48242,47.2324213 180.880859,47.3554688 C180.248044,46.1425721 179.931641,45.0703172 179.931641,44.1386719 C179.931641,42.9257752 180.369625,41.9165079 181.245605,41.1108398 C182.121586,40.3051718 183.221673,39.9023438 184.545898,39.9023438 C185.999031,39.9023438 187.165035,40.328609 188.043945,41.1811523 C188.922856,42.0336957 189.362305,43.1660086 189.362305,44.578125 C189.362305,45.2812535 189.289063,45.8876928 189.142578,46.3974609 C188.996093,46.9072291 188.650393,47.748041 188.105469,48.9199219 L187.499023,50.2382812 C186.420893,52.5703242 185.881836,54.0790981 185.881836,54.7646484 C185.881836,55.2685572 186.032713,55.6831038 186.334473,56.0083008 C186.636232,56.3334977 187.021482,56.4960938 187.490234,56.4960938 C188.105472,56.4960938 188.80859,56.1474644 189.599609,55.4501953 L190.364258,56.2851562 Z M177.435547,50.5722656 C177.435547,51.2636753 177.665525,51.8452125 178.125488,52.3168945 C178.585452,52.7885766 179.15234,53.0244141 179.826172,53.0244141 C180.482425,53.0244141 181.043455,52.7871117 181.509277,52.3125 C181.9751,51.8378883 182.208008,51.2636752 182.208008,50.5898438 C182.208008,49.9042934 181.976565,49.325686 181.513672,48.8540039 C181.050779,48.3823219 180.482425,48.1464844 179.808594,48.1464844 C179.15234,48.1464844 178.592776,48.3837867 178.129883,48.8583984 C177.66699,49.3330102 177.435547,49.9042935 177.435547,50.5722656 L177.435547,50.5722656 Z M202.501953,48.796875 L203.802734,48.796875 C204.517582,48.796875 205.12988,49.0532201 205.639648,49.565918 C206.149417,50.0786158 206.404297,50.6894496 206.404297,51.3984375 C206.404297,52.1074254 206.149417,52.7182592 205.639648,53.230957 C205.12988,53.7436549 204.517582,54 203.802734,54 C203.093746,54 202.482913,53.7451197 201.970215,53.2353516 C201.457517,52.7255834 201.201172,52.1132848 201.201172,51.3984375 L201.201172,50.0976562 L198.599609,50.0976562 L198.599609,51.3984375 C198.599609,52.101566 198.344729,52.7109349 197.834961,53.2265625 C197.325193,53.7421901 196.712894,54 195.998047,54 C195.294918,54 194.685549,53.7465846 194.169922,53.2397461 C193.654294,52.7329076 193.396484,52.1191442 193.396484,51.3984375 C193.396484,50.6835902 193.652829,50.0712916 194.165527,49.5615234 C194.678225,49.0517553 195.289059,48.796875 195.998047,48.796875 L197.298828,48.796875 L197.298828,46.1953125 L195.998047,46.1953125 C195.289059,46.1953125 194.678225,45.9404322 194.165527,45.4306641 C193.652829,44.9208959 193.396484,44.3085973 193.396484,43.59375 C193.396484,42.8789027 193.652829,42.2666041 194.165527,41.7568359 C194.678225,41.2470678 195.289059,40.9921875 195.998047,40.9921875 C196.707035,40.9921875 197.317869,41.2470678 197.830566,41.7568359 C198.343264,42.2666041 198.599609,42.8789027 198.599609,43.59375 L198.599609,44.8945312 L201.201172,44.8945312 L201.201172,43.59375 C201.201172,42.8789027 201.457517,42.2666041 201.970215,41.7568359 C202.482913,41.2470678 203.093746,40.9921875 203.802734,40.9921875 C204.511722,40.9921875 205.122556,41.2470678 205.635254,41.7568359 C206.147952,42.2666041 206.404297,42.8789027 206.404297,43.59375 C206.404297,44.3027379 206.149417,44.9135717 205.639648,45.4262695 C205.12988,45.9389674 204.517582,46.1953125 203.802734,46.1953125 L202.501953,46.1953125 L202.501953,48.796875 Z M202.501953,44.8945312 L203.802734,44.8945312 C204.160158,44.8945312 204.466307,44.7656263 204.721191,44.5078125 C204.976075,44.2499987 205.103516,43.9453143 205.103516,43.59375 C205.103516,43.2421857 204.976075,42.9375013 204.721191,42.6796875 C204.466307,42.4218737 204.160158,42.2929688 203.802734,42.2929688 C203.445311,42.2929688 203.139161,42.4204089 202.884277,42.675293 C202.629393,42.9301771 202.501953,43.2363263 202.501953,43.59375 L202.501953,44.8945312 Z M197.298828,50.0976562 L195.998047,50.0976562 C195.640623,50.0976562 195.334474,50.2265612 195.07959,50.484375 C194.824706,50.7421888 194.697266,51.0468732 194.697266,51.3984375 C194.697266,51.7500018 194.824706,52.0546862 195.07959,52.3125 C195.334474,52.5703138 195.640623,52.6992188 195.998047,52.6992188 C196.355471,52.6992188 196.66162,52.5703138 196.916504,52.3125 C197.171388,52.0546862 197.298828,51.7500018 197.298828,51.3984375 L197.298828,50.0976562 Z M197.298828,44.8945312 L197.298828,43.59375 C197.298828,43.2421857 197.169923,42.9375013 196.912109,42.6796875 C196.654296,42.4218737 196.349611,42.2929688 195.998047,42.2929688 C195.652342,42.2929688 195.349122,42.4189441 195.088379,42.6708984 C194.827635,42.9228528 194.697266,43.2304669 194.697266,43.59375 C194.697266,43.9511737 194.824706,44.2573229 195.07959,44.512207 C195.334474,44.7670911 195.640623,44.8945312 195.998047,44.8945312 L197.298828,44.8945312 Z M202.501953,50.0976562 L202.501953,51.3984375 C202.501953,51.7558612 202.630858,52.0620104 202.888672,52.3168945 C203.146486,52.5717786 203.45117,52.6992188 203.802734,52.6992188 C204.154299,52.6992188 204.458983,52.5717786 204.716797,52.3168945 C204.974611,52.0620104 205.103516,51.7558612 205.103516,51.3984375 C205.103516,51.0410138 204.976075,50.7348646 204.721191,50.4799805 C204.466307,50.2250964 204.160158,50.0976562 203.802734,50.0976562 L202.501953,50.0976562 Z M201.201172,48.796875 L201.201172,46.1953125 L198.599609,46.1953125 L198.599609,48.796875 L201.201172,48.796875 Z M209.436523,52.6992188 L209.436523,51.3984375 L223.419922,51.3984375 L223.419922,52.6992188 L209.436523,52.6992188 Z M214.964844,47.5839844 L214.964844,48.796875 L209.436523,48.796875 L209.436523,47.4960938 L213.3125,47.4960938 C212.609371,46.775387 212.257812,45.9668014 212.257812,45.0703125 C212.257812,43.9570257 212.669429,42.9990275 213.492676,42.1962891 C214.315922,41.3935507 215.295893,40.9921875 216.432617,40.9921875 C217.569342,40.9921875 218.549312,41.3935507 219.372559,42.1962891 C220.195805,42.9990275 220.607422,43.9570257 220.607422,45.0703125 C220.607422,45.9668014 220.255863,46.775387 219.552734,47.4960938 L223.419922,47.4960938 L223.419922,48.796875 L217.891602,48.796875 L217.891602,47.5839844 C218.834966,46.9746063 219.306641,46.1572317 219.306641,45.1318359 C219.306641,44.3583946 219.022464,43.6918973 218.454102,43.1323242 C217.885739,42.5727511 217.211918,42.2929688 216.432617,42.2929688 C215.647457,42.2929688 214.972171,42.5727511 214.406738,43.1323242 C213.841306,43.6918973 213.558594,44.3583946 213.558594,45.1318359 C213.558594,46.1572317 214.027339,46.9746063 214.964844,47.5839844 L214.964844,47.5839844 Z M227.55957,54 L227.55957,44.71875 C227.55957,43.1718673 227.193363,41.9296922 226.460938,40.9921875 L227.858398,40.9921875 C228.350588,41.7421912 228.684569,42.5947218 228.860352,43.5498047 C229.27051,42.5302683 229.78027,41.6777378 230.389648,40.9921875 L231.646484,40.7373047 C232.232425,41.422855 232.604491,42.4072201 232.762695,43.6904297 C233.084963,42.7705032 233.609371,41.8710981 234.335938,40.9921875 L235.619141,40.7373047 C236.31641,41.6865282 236.665039,42.8085873 236.665039,44.1035156 L236.665039,52.1982422 C236.665039,53.0478558 236.694336,53.6235336 236.75293,53.925293 C236.811524,54.2270523 236.943358,54.4892567 237.148438,54.7119141 C237.523439,55.1044942 238.144527,55.3007812 239.011719,55.3007812 L239.811523,55.3007812 L239.811523,54 L241.868164,55.8544922 L239.811523,57.6474609 L239.811523,56.3818359 L238.616211,56.3818359 C237.479487,56.3818359 236.653323,56.0830108 236.137695,55.4853516 C235.622068,54.8876923 235.364258,53.9326237 235.364258,52.6201172 L235.364258,44.7802734 C235.364258,43.4619075 235.17383,42.5156279 234.792969,41.9414062 C233.820308,43.0605525 233.143557,44.4609291 232.762695,46.1425781 L232.762695,54 L231.461914,54 L231.461914,45.2460938 C231.461914,43.669914 231.271486,42.5683625 230.890625,41.9414062 C229.95898,42.9902396 229.282229,44.2939375 228.860352,45.8525391 L228.860352,54 L227.55957,54 Z" id="word2" fill="#FFFFFF" sketch:type="MSShapeGroup"></path>
            <path d="M45.5205078,77.4960938 L50.7236328,70.1308594 L55.9267578,77.4960938 L50.7236328,84.8525391 L45.5205078,77.4960938 Z M60.0576172,84 L60.0576172,74.71875 C60.0576172,73.1718673 59.6914099,71.9296922 58.9589844,70.9921875 L60.3564453,70.9921875 C60.8486353,71.7421912 61.1826163,72.5947218 61.3583984,73.5498047 C61.7685567,72.5302683 62.2783173,71.6777378 62.8876953,70.9921875 L64.1445312,70.7373047 C64.7304717,71.422855 65.1025383,72.4072201 65.2607422,73.6904297 C65.5830094,72.7705032 66.1074182,71.8710981 66.8339844,70.9921875 L68.1171875,70.7373047 C68.8144566,71.6865282 69.1630859,72.8085873 69.1630859,74.1035156 L69.1630859,82.1982422 C69.1630859,83.0478558 69.1923825,83.6235336 69.2509766,83.925293 C69.3095706,84.2270523 69.4414052,84.4892567 69.6464844,84.7119141 C70.0214862,85.1044942 70.6425738,85.3007812 71.5097656,85.3007812 L72.3095703,85.3007812 L72.3095703,84 L74.3662109,85.8544922 L72.3095703,87.6474609 L72.3095703,86.3818359 L71.1142578,86.3818359 C69.9775334,86.3818359 69.1513698,86.0830108 68.6357422,85.4853516 C68.1201146,84.8876923 67.8623047,83.9326237 67.8623047,82.6201172 L67.8623047,74.7802734 C67.8623047,73.4619075 67.6718769,72.5156279 67.2910156,71.9414062 C66.3183545,73.0605525 65.6416035,74.4609291 65.2607422,76.1425781 L65.2607422,84 L63.9599609,84 L63.9599609,75.2460938 C63.9599609,73.669914 63.7695332,72.5683625 63.3886719,71.9414062 C62.4570266,72.9902396 61.7802755,74.2939375 61.3583984,75.8525391 L61.3583984,84 L60.0576172,84 Z M77.4072266,84 L77.4072266,70.9921875 L93.4560547,70.9921875 L93.4560547,84 L77.4072266,84 Z M78.7080078,82.6992188 L92.1552734,82.6992188 L92.1552734,72.2929688 L78.7080078,72.2929688 L78.7080078,82.6992188 Z M85.4316406,76.5732422 L88.6484375,73.3564453 L89.5712891,74.2792969 L86.3457031,77.4960938 L89.5712891,80.7128906 L88.6484375,81.6357422 L85.4316406,78.4189453 L82.2060547,81.6357422 L81.2919922,80.7128906 L84.5087891,77.4960938 L81.2919922,74.2792969 L82.2060547,73.3564453 L85.4316406,76.5732422 Z M96.4882812,77.4960938 L101.691406,70.1308594 L106.894531,77.4960938 L101.691406,84.8525391 L96.4882812,77.4960938 Z" id="word3" fill="#FFFFFF" sketch:type="MSShapeGroup"></path>
            <path d="M132.12207,81.3984375 L139.926758,81.3984375 L139.926758,73.59375 L132.12207,73.59375 L132.12207,81.3984375 Z M129.520508,84 L129.520508,70.9921875 L142.52832,70.9921875 L142.52832,84 L129.520508,84 Z M145.560547,82.2509766 L145.560547,80.8359375 C148.28517,82.0781312 150.918933,82.6992188 153.461914,82.6992188 C155.125985,82.6992188 156.479487,82.482424 157.522461,82.0488281 C156.860348,81.7089827 156.363771,81.2827174 156.032715,80.7700195 C155.701659,80.2573217 155.536133,79.6552769 155.536133,78.9638672 C155.536133,78.0556595 155.86279,77.2763704 156.516113,76.6259766 C157.169437,75.9755827 157.95312,75.6503906 158.867188,75.6503906 C159.769536,75.6503906 160.542966,75.972653 161.1875,76.6171875 C161.832034,77.261722 162.154297,78.0380814 162.154297,78.9462891 C162.154297,80.3935619 161.271005,81.5976514 159.504395,82.5585938 C157.737784,83.5195361 155.521498,84 152.855469,84 C150.552723,84 148.121107,83.416998 145.560547,82.2509766 L145.560547,82.2509766 Z M156.40625,78.9726562 C156.40625,79.6347689 156.647947,80.2045875 157.131348,80.6821289 C157.614749,81.1596704 158.193356,81.3984375 158.867188,81.3984375 C159.541019,81.3984375 160.112302,81.1655297 160.581055,80.699707 C161.049807,80.2338844 161.28418,79.6640659 161.28418,78.9902344 C161.28418,78.3046841 161.048342,77.7216821 160.57666,77.2412109 C160.104978,76.7607398 159.53223,76.5205078 158.858398,76.5205078 C158.178708,76.5205078 157.6001,76.759275 157.122559,77.2368164 C156.645017,77.7143579 156.40625,78.2929654 156.40625,78.9726562 L156.40625,78.9726562 Z M162.154297,72.7412109 L162.154297,74.15625 C159.429674,72.9081969 156.795911,72.2841797 154.25293,72.2841797 C152.588859,72.2841797 151.232427,72.5039041 150.183594,72.9433594 C150.851566,73.2773454 151.351073,73.7021459 151.682129,74.2177734 C152.013185,74.733401 152.178711,75.3369106 152.178711,76.0283203 C152.178711,76.936528 151.852054,77.7158171 151.19873,78.3662109 C150.545407,79.0166048 149.761723,79.3417969 148.847656,79.3417969 C147.939449,79.3417969 147.164554,79.0195345 146.522949,78.375 C145.881344,77.7304655 145.560547,76.9541061 145.560547,76.0458984 C145.560547,74.5927662 146.443839,73.385747 148.210449,72.4248047 C149.97706,71.4638624 152.193346,70.9833984 154.859375,70.9833984 C157.16798,70.9833984 159.599597,71.5693301 162.154297,72.7412109 L162.154297,72.7412109 Z M151.308594,76.0195312 C151.308594,75.3515592 151.065432,74.7802758 150.579102,74.3056641 C150.092771,73.8310523 149.512699,73.59375 148.838867,73.59375 C148.165036,73.59375 147.595217,73.8266578 147.129395,74.2924805 C146.663572,74.7583031 146.430664,75.3281216 146.430664,76.0019531 C146.430664,76.6875034 146.666502,77.2705054 147.138184,77.7509766 C147.609866,78.2314477 148.182614,78.4716797 148.856445,78.4716797 C149.536136,78.4716797 150.114744,78.2314477 150.592285,77.7509766 C151.069827,77.2705054 151.308594,76.6933627 151.308594,76.0195312 L151.308594,76.0195312 Z M175.592773,83.1298828 L175.592773,73.59375 L166.047852,73.59375 L166.056641,83.1386719 L175.592773,83.1298828 Z M165.186523,84 L165.186523,72.7236328 L166.917969,70.9921875 L178.194336,70.9921875 L178.194336,82.2685547 L176.462891,84 L165.186523,84 Z M183.863281,80.1328125 L181.226562,77.4960938 L183.863281,74.859375 L186.508789,77.4960938 L183.863281,80.1328125 Z M185.09375,73.6289062 L187.730469,70.9921875 L190.375977,73.6289062 L187.730469,76.2744141 L185.09375,73.6289062 Z M191.597656,74.859375 L194.234375,77.4960938 L191.597656,80.1328125 L188.960938,77.4960938 L191.597656,74.859375 Z M190.367188,81.3632812 L187.730469,84 L185.09375,81.3632812 L187.730469,78.7265625 L190.367188,81.3632812 Z" id="word4" fill="#FFFFFF" sketch:type="MSShapeGroup"></path>
            <path d="M213.520508,82.0224609 L218.398438,78.796875 L219.470703,81.2929688 L223.25,78.796875 L224.304688,81.2929688 L228.083984,78.796875 L229.648438,82.4707031 L228.637695,82.9189453 L227.591797,80.4228516 L223.794922,82.9189453 L222.740234,80.4228516 L218.978516,82.9189453 L217.915039,80.4228516 L214.118164,82.9189453 L213.520508,82.0224609 Z M213.529297,75.2988281 L218.407227,72.0732422 L219.479492,74.5693359 L223.258789,72.0732422 L224.313477,74.5693359 L228.092773,72.0732422 L229.657227,75.7470703 L228.646484,76.1953125 L227.600586,73.6992188 L223.794922,76.1953125 L222.740234,73.6992188 L218.978516,76.1953125 L217.923828,73.6992188 L214.126953,76.1953125 L213.529297,75.2988281 Z M242.454102,85.8457031 L243.526367,80.4492188 C242.51855,81.6445372 241.411139,82.5732389 240.204102,83.2353516 C238.997064,83.8974642 237.813482,84.2285156 236.65332,84.2285156 C235.493158,84.2285156 234.551273,83.8945346 233.827637,83.2265625 C233.104,82.5585904 232.742188,81.6884819 232.742188,80.6162109 C232.742188,79.0283124 233.358881,77.5708074 234.592285,76.2436523 C235.82569,74.9164973 237.177727,74.2529297 238.648438,74.2529297 C239.281253,74.2529297 239.755858,74.4243147 240.072266,74.7670898 C240.388673,75.109865 240.546875,75.62402 240.546875,76.3095703 C240.910158,75.9228496 241.274901,75.6328135 241.641113,75.4394531 C242.007326,75.2460928 242.377928,75.1494141 242.75293,75.1494141 C243.256838,75.1494141 244.021479,75.3457012 245.046875,75.7382812 L245.873047,76.0458984 C247.068365,76.502932 247.941403,76.7314453 248.492188,76.7314453 C248.837892,76.7314453 249.095702,76.6420907 249.265625,76.4633789 C249.435548,76.2846671 249.520508,76.0166033 249.520508,75.6591797 C249.520508,75.2958966 249.338869,75.0000011 248.975586,74.7714844 L250.15332,73.6816406 C250.381837,74.0859395 250.496094,74.4960917 250.496094,74.9121094 C250.496094,75.6503943 250.170902,76.3271454 249.520508,76.9423828 C248.870114,77.5576203 248.152348,77.8652344 247.367188,77.8652344 C246.916013,77.8652344 246.397464,77.7978522 245.811523,77.6630859 L244.334961,85.0810547 L242.454102,85.8457031 Z M234.570312,79.7285156 C235.900397,79.6289058 236.94482,79.2832061 237.703613,78.6914062 C238.462406,78.0996064 238.841797,77.3408249 238.841797,76.4150391 C238.841797,75.9462867 238.746583,75.5947277 238.556152,75.3603516 C238.365722,75.1259754 238.07715,75.0087891 237.69043,75.0087891 C236.916988,75.0087891 236.235843,75.4526323 235.646973,76.340332 C235.058103,77.2280318 234.699219,78.357415 234.570312,79.7285156 L234.570312,79.7285156 Z M244.194336,77.0742188 L243.948242,76.9511719 C243.221676,76.6171858 242.626955,76.4501953 242.164062,76.4501953 C241.912108,76.4501953 241.630861,76.5219719 241.320312,76.6655273 C241.009764,76.8090827 240.666994,77.0244126 240.291992,77.3115234 C239.383785,79.1220794 237.461929,80.1093742 234.526367,80.2734375 C234.520508,80.3906256 234.517578,80.4755857 234.517578,80.5283203 C234.517578,81.2783241 234.823727,81.8935523 235.436035,82.3740234 C236.048343,82.8544946 236.834956,83.0947266 237.795898,83.0947266 C239.272468,83.0947266 240.615717,82.5585991 241.825684,81.4863281 C243.035651,80.4140571 243.798827,79.0839923 244.115234,77.4960938 L244.194336,77.0742188 Z M259.118164,83.3056641 C257.834955,83.985355 256.478523,84.3251953 255.048828,84.3251953 C253.94726,84.3251953 253.040531,84.0014681 252.328613,83.3540039 C251.616696,82.7065397 251.260742,81.8789113 251.260742,80.8710938 C251.260742,79.9101514 251.587399,79.073734 252.240723,78.3618164 C252.894046,77.6498988 253.950188,76.9775422 255.40918,76.3447266 C255.127928,75.6240198 254.987305,74.9531281 254.987305,74.3320312 C254.987305,73.3828078 255.372555,72.5346717 256.143066,71.7875977 C256.913578,71.0405236 257.788081,70.6669922 258.766602,70.6669922 C259.428714,70.6669922 259.970701,70.8647441 260.392578,71.2602539 C260.814455,71.6557637 261.025391,72.1669891 261.025391,72.7939453 C261.025391,74.3994221 259.750989,75.6152302 257.202148,76.4414062 C257.377931,76.9570338 257.708982,77.7333933 258.195312,78.7705078 C258.857425,77.6162052 259.592769,76.8251975 260.401367,76.3974609 C261.209965,75.9697244 262.375969,75.7558594 263.899414,75.7558594 L266.685547,75.7558594 C268.414071,75.7558594 269.53906,75.656251 270.060547,75.4570312 C270.582034,75.2636709 270.842773,74.8388705 270.842773,74.1826172 C270.842773,73.5966768 270.535159,73.1777356 269.919922,72.9257812 L271.185547,71.6865234 C271.74219,72.143557 272.020508,72.71777 272.020508,73.4091797 C272.020508,74.399419 271.440435,75.2548792 270.280273,75.9755859 C269.120111,76.6962927 267.749031,77.0566406 266.166992,77.0566406 L265.499023,77.0566406 C264.584956,79.1953232 262.947277,80.9941333 260.585938,82.453125 C261.576177,83.5605524 262.677728,84.4189423 263.890625,85.0283203 C265.103522,85.6376984 266.3164,85.9423828 267.529297,85.9423828 C268.619146,85.9423828 269.498044,85.6289094 270.166016,85.0019531 C270.833988,84.3749969 271.167969,83.5517629 271.167969,82.5322266 C271.167969,81.5830031 270.702153,80.9121113 269.770508,80.5195312 L271.185547,79.1923828 C272.070317,79.6084005 272.512695,80.3847599 272.512695,81.5214844 C272.512695,83.0039137 271.904791,84.2578074 270.688965,85.2832031 C269.473138,86.3085989 267.986337,86.8212891 266.228516,86.8212891 C264.962884,86.8212891 263.710455,86.513675 262.471191,85.8984375 C261.231927,85.2832 260.114263,84.4189509 259.118164,83.3056641 L259.118164,83.3056641 Z M257.008789,75.9404297 C258.719735,75.2138636 259.575195,74.1621163 259.575195,72.7851562 C259.575195,72.2812475 259.468263,71.9033216 259.254395,71.6513672 C259.040526,71.3994128 258.719729,71.2734375 258.291992,71.2734375 C257.788083,71.2734375 257.366213,71.4814432 257.026367,71.8974609 C256.686522,72.3134786 256.516602,72.8290985 256.516602,73.4443359 C256.516602,74.0654328 256.680662,74.8974557 257.008789,75.9404297 L257.008789,75.9404297 Z M258.652344,82.7431641 C257.457025,81.2607348 256.425786,79.2978638 255.558594,76.8544922 C253.917961,77.6162147 253.097656,78.7646408 253.097656,80.2998047 C253.097656,81.1787153 253.383298,81.9023409 253.95459,82.4707031 C254.525882,83.0390653 255.250972,83.3232422 256.129883,83.3232422 C256.856449,83.3232422 257.697261,83.1298847 258.652344,82.7431641 L258.652344,82.7431641 Z M264.171875,77.0566406 L263.143555,77.0566406 C260.952137,77.0566406 259.39063,77.8007738 258.458984,79.2890625 C259.009768,80.3027394 259.59277,81.2167928 260.208008,82.03125 C262.141611,80.9648384 263.462887,79.3066519 264.171875,77.0566406 L264.171875,77.0566406 Z M274.463867,77.4960938 C274.463867,76.0605397 274.972163,74.8344777 275.98877,73.8178711 C277.005376,72.8012644 278.231438,72.2929688 279.666992,72.2929688 C281.102546,72.2929688 282.330073,72.8012644 283.349609,73.8178711 C284.369146,74.8344777 284.878906,76.0605397 284.878906,77.4960938 C284.878906,78.9316478 284.369146,80.1577098 283.349609,81.1743164 C282.330073,82.1909231 281.102546,82.6992188 279.666992,82.6992188 C278.231438,82.6992188 277.005376,82.1909231 275.98877,81.1743164 C274.972163,80.1577098 274.463867,78.9316478 274.463867,77.4960938 L274.463867,77.4960938 Z" id="word5" fill="#FFFFFF" sketch:type="MSShapeGroup"></path>
            <path d="M45.5205078,112.250977 L45.5205078,110.835938 C48.2451308,112.078131 50.8788935,112.699219 53.421875,112.699219 C55.0859458,112.699219 56.4394479,112.482424 57.4824219,112.048828 C56.8203092,111.708983 56.3237321,111.282717 55.9926758,110.77002 C55.6616194,110.257322 55.4960938,109.655277 55.4960938,108.963867 C55.4960938,108.05566 55.8227506,107.27637 56.4760742,106.625977 C57.1293978,105.975583 57.9130814,105.650391 58.8271484,105.650391 C59.7294967,105.650391 60.5029265,105.972653 61.1474609,106.617188 C61.7919954,107.261722 62.1142578,108.038081 62.1142578,108.946289 C62.1142578,110.393562 61.2309659,111.597651 59.4643555,112.558594 C57.6977451,113.519536 55.4814586,114 52.8154297,114 C50.5126838,114 48.0810675,113.416998 45.5205078,112.250977 L45.5205078,112.250977 Z M56.3662109,108.972656 C56.3662109,109.634769 56.6079077,110.204587 57.0913086,110.682129 C57.5747094,111.15967 58.1533169,111.398438 58.8271484,111.398438 C59.5009799,111.398438 60.0722633,111.16553 60.5410156,110.699707 C61.009768,110.233884 61.2441406,109.664066 61.2441406,108.990234 C61.2441406,108.304684 61.0083031,107.721682 60.5366211,107.241211 C60.064939,106.76074 59.4921909,106.520508 58.8183594,106.520508 C58.1386685,106.520508 57.560061,106.759275 57.0825195,107.236816 C56.6049781,107.714358 56.3662109,108.292965 56.3662109,108.972656 L56.3662109,108.972656 Z M62.1142578,102.741211 L62.1142578,104.15625 C59.3896348,102.908197 56.7558721,102.28418 54.2128906,102.28418 C52.5488198,102.28418 51.1923881,102.503904 50.1435547,102.943359 C50.8115268,103.277345 51.3110335,103.702146 51.6420898,104.217773 C51.9731462,104.733401 52.1386719,105.336911 52.1386719,106.02832 C52.1386719,106.936528 51.812015,107.715817 51.1586914,108.366211 C50.5053678,109.016605 49.7216843,109.341797 48.8076172,109.341797 C47.8994095,109.341797 47.1245149,109.019534 46.4829102,108.375 C45.8413054,107.730466 45.5205078,106.954106 45.5205078,106.045898 C45.5205078,104.592766 46.4037998,103.385747 48.1704102,102.424805 C49.9370206,101.463862 52.153307,100.983398 54.8193359,100.983398 C57.1279412,100.983398 59.5595575,101.56933 62.1142578,102.741211 L62.1142578,102.741211 Z M51.2685547,106.019531 C51.2685547,105.351559 51.0253931,104.780276 50.5390625,104.305664 C50.0527319,103.831052 49.4726596,103.59375 48.7988281,103.59375 C48.1249966,103.59375 47.5551781,103.826658 47.0893555,104.29248 C46.6235328,104.758303 46.390625,105.328122 46.390625,106.001953 C46.390625,106.687503 46.6264625,107.270505 47.0981445,107.750977 C47.5698266,108.231448 48.1425748,108.47168 48.8164062,108.47168 C49.4960971,108.47168 50.0747046,108.231448 50.5522461,107.750977 C51.0297875,107.270505 51.2685547,106.693363 51.2685547,106.019531 L51.2685547,106.019531 Z M67.5195312,105.84375 L67.5195312,114 L66.21875,114 L66.21875,104.551758 C66.21875,103.245111 65.8613317,102.058599 65.1464844,100.992188 L66.5175781,100.992188 C67.0039087,101.66016 67.3378897,102.518549 67.5195312,103.567383 C67.9589866,102.483393 68.4687471,101.625003 69.0488281,100.992188 L70.3232422,100.754883 C70.9091826,101.504887 71.2783196,102.50097 71.4306641,103.743164 C71.7294937,102.805659 72.2597618,101.888676 73.0214844,100.992188 L74.2783203,100.754883 C74.9814488,101.733403 75.3330078,102.814447 75.3330078,103.998047 L75.3330078,106.476562 C75.6845721,105.480464 76.0566387,104.701175 76.4492188,104.138672 L77.5214844,103.743164 C78.4472703,105.178718 78.9101562,106.687492 78.9101562,108.269531 C78.9101562,109.523444 78.6333035,110.701166 78.0795898,111.802734 C77.5258761,112.904302 76.695318,113.929683 75.5878906,114.878906 C75.6933599,115.640629 76.1415976,116.504878 76.9326172,117.47168 L75.4033203,117.47168 C75.0341778,117.002927 74.7060561,116.38184 74.4189453,115.608398 C73.6044881,116.071291 72.6084043,116.396483 71.4306641,116.583984 L71.4306641,115.467773 C72.5439509,115.239257 73.4550746,114.914065 74.1640625,114.492188 C74.0761714,113.929685 74.0322266,113.364261 74.0322266,112.795898 L74.0322266,104.885742 C74.0322266,103.596673 73.8447284,102.624027 73.4697266,101.967773 C72.5498001,102.958013 71.8701194,104.35253 71.4306641,106.151367 L71.4306641,114 L70.1210938,114 L70.1210938,105.325195 C70.1210938,103.713859 69.930666,102.59473 69.5498047,101.967773 C68.6533158,103.010747 67.9765648,104.302727 67.5195312,105.84375 L67.5195312,105.84375 Z M75.3330078,113.657227 C76.0947304,112.883785 76.6645489,112.053227 77.0424805,111.165527 C77.420412,110.277828 77.609375,109.335942 77.609375,108.339844 C77.609375,107.29687 77.3808617,106.286138 76.9238281,105.307617 C76.2792937,106.104496 75.7490255,107.167962 75.3330078,108.498047 L75.3330078,113.657227 Z M83.0410156,114 L83.0410156,104.71875 C83.0410156,103.171867 82.6748083,101.929692 81.9423828,100.992188 L83.3398438,100.992188 C83.8320337,101.742191 84.1660147,102.594722 84.3417969,103.549805 C84.7519552,102.530268 85.2617157,101.677738 85.8710938,100.992188 L87.1279297,100.737305 C87.7138701,101.422855 88.0859367,102.40722 88.2441406,103.69043 C88.5664079,102.770503 89.0908167,101.871098 89.8173828,100.992188 L91.1005859,100.737305 C91.797855,101.686528 92.1464844,102.808587 92.1464844,104.103516 L92.1464844,112.198242 C92.1464844,113.047856 92.175781,113.623534 92.234375,113.925293 C92.292969,114.227052 92.4248037,114.489257 92.6298828,114.711914 C93.0048847,115.104494 93.6259722,115.300781 94.4931641,115.300781 L95.2929688,115.300781 L95.2929688,114 L97.3496094,115.854492 L95.2929688,117.647461 L95.2929688,116.381836 L94.0976562,116.381836 C92.9609318,116.381836 92.1347682,116.083011 91.6191406,115.485352 C91.103513,114.887692 90.8457031,113.932624 90.8457031,112.620117 L90.8457031,104.780273 C90.8457031,103.461907 90.6552753,102.515628 90.2744141,101.941406 C89.3017529,103.060552 88.6250019,104.460929 88.2441406,106.142578 L88.2441406,114 L86.9433594,114 L86.9433594,105.246094 C86.9433594,103.669914 86.7529316,102.568363 86.3720703,101.941406 C85.440425,102.99024 84.763674,104.293938 84.3417969,105.852539 L84.3417969,114 L83.0410156,114 Z" id="word6" fill="#FFFFFF" sketch:type="MSShapeGroup"></path>
            <path d="M119.520508,107.496094 L126.876953,100.130859 L134.242188,107.496094 L126.876953,114.852539 L119.520508,107.496094 Z M137.274414,112.250977 L137.274414,110.835938 C139.999037,112.078131 142.6328,112.699219 145.175781,112.699219 C146.839852,112.699219 148.193354,112.482424 149.236328,112.048828 C148.574215,111.708983 148.077638,111.282717 147.746582,110.77002 C147.415526,110.257322 147.25,109.655277 147.25,108.963867 C147.25,108.05566 147.576657,107.27637 148.22998,106.625977 C148.883304,105.975583 149.666988,105.650391 150.581055,105.650391 C151.483403,105.650391 152.256833,105.972653 152.901367,106.617188 C153.545902,107.261722 153.868164,108.038081 153.868164,108.946289 C153.868164,110.393562 152.984872,111.597651 151.218262,112.558594 C149.451651,113.519536 147.235365,114 144.569336,114 C142.26659,114 139.834974,113.416998 137.274414,112.250977 L137.274414,112.250977 Z M148.120117,108.972656 C148.120117,109.634769 148.361814,110.204587 148.845215,110.682129 C149.328616,111.15967 149.907223,111.398438 150.581055,111.398438 C151.254886,111.398438 151.82617,111.16553 152.294922,110.699707 C152.763674,110.233884 152.998047,109.664066 152.998047,108.990234 C152.998047,108.304684 152.762209,107.721682 152.290527,107.241211 C151.818845,106.76074 151.246097,106.520508 150.572266,106.520508 C149.892575,106.520508 149.313967,106.759275 148.836426,107.236816 C148.358884,107.714358 148.120117,108.292965 148.120117,108.972656 L148.120117,108.972656 Z M153.868164,102.741211 L153.868164,104.15625 C151.143541,102.908197 148.509778,102.28418 145.966797,102.28418 C144.302726,102.28418 142.946294,102.503904 141.897461,102.943359 C142.565433,103.277345 143.06494,103.702146 143.395996,104.217773 C143.727052,104.733401 143.892578,105.336911 143.892578,106.02832 C143.892578,106.936528 143.565921,107.715817 142.912598,108.366211 C142.259274,109.016605 141.475591,109.341797 140.561523,109.341797 C139.653316,109.341797 138.878421,109.019534 138.236816,108.375 C137.595212,107.730466 137.274414,106.954106 137.274414,106.045898 C137.274414,104.592766 138.157706,103.385747 139.924316,102.424805 C141.690927,101.463862 143.907213,100.983398 146.573242,100.983398 C148.881847,100.983398 151.313464,101.56933 153.868164,102.741211 L153.868164,102.741211 Z M143.022461,106.019531 C143.022461,105.351559 142.779299,104.780276 142.292969,104.305664 C141.806638,103.831052 141.226566,103.59375 140.552734,103.59375 C139.878903,103.59375 139.309084,103.826658 138.843262,104.29248 C138.377439,104.758303 138.144531,105.328122 138.144531,106.001953 C138.144531,106.687503 138.380369,107.270505 138.852051,107.750977 C139.323733,108.231448 139.896481,108.47168 140.570312,108.47168 C141.250003,108.47168 141.828611,108.231448 142.306152,107.750977 C142.783694,107.270505 143.022461,106.693363 143.022461,106.019531 L143.022461,106.019531 Z M156.900391,107.496094 L164.256836,100.130859 L171.62207,107.496094 L164.256836,114.852539 L156.900391,107.496094 Z M177.027344,105.84375 L177.027344,114 L175.726562,114 L175.726562,104.551758 C175.726562,103.245111 175.369144,102.058599 174.654297,100.992188 L176.025391,100.992188 C176.511721,101.66016 176.845702,102.518549 177.027344,103.567383 C177.466799,102.483393 177.97656,101.625003 178.556641,100.992188 L179.831055,100.754883 C180.416995,101.504887 180.786132,102.50097 180.938477,103.743164 C181.237306,102.805659 181.767574,101.888676 182.529297,100.992188 L183.786133,100.754883 C184.489261,101.733403 184.84082,102.814447 184.84082,103.998047 L184.84082,106.476562 C185.192385,105.480464 185.564451,104.701175 185.957031,104.138672 L187.029297,103.743164 C187.955083,105.178718 188.417969,106.687492 188.417969,108.269531 C188.417969,109.523444 188.141116,110.701166 187.587402,111.802734 C187.033689,112.904302 186.203131,113.929683 185.095703,114.878906 C185.201172,115.640629 185.64941,116.504878 186.44043,117.47168 L184.911133,117.47168 C184.54199,117.002927 184.213869,116.38184 183.926758,115.608398 C183.112301,116.071291 182.116217,116.396483 180.938477,116.583984 L180.938477,115.467773 C182.051763,115.239257 182.962887,114.914065 183.671875,114.492188 C183.583984,113.929685 183.540039,113.364261 183.540039,112.795898 L183.540039,104.885742 C183.540039,103.596673 183.352541,102.624027 182.977539,101.967773 C182.057613,102.958013 181.377932,104.35253 180.938477,106.151367 L180.938477,114 L179.628906,114 L179.628906,105.325195 C179.628906,103.713859 179.438478,102.59473 179.057617,101.967773 C178.161128,103.010747 177.484377,104.302727 177.027344,105.84375 L177.027344,105.84375 Z M184.84082,113.657227 C185.602543,112.883785 186.172361,112.053227 186.550293,111.165527 C186.928225,110.277828 187.117188,109.335942 187.117188,108.339844 C187.117188,107.29687 186.888674,106.286138 186.431641,105.307617 C185.787106,106.104496 185.256838,107.167962 184.84082,108.498047 L184.84082,113.657227 Z M195.607422,107.707031 C195.607422,108.779302 195.359866,109.911615 194.864746,111.104004 C194.369626,112.296393 193.703129,113.370112 192.865234,114.325195 L191.450195,114.325195 C193.360361,112.30956 194.31543,110.103528 194.31543,107.707031 L191.546875,107.707031 L191.546875,106.731445 L194.31543,106.731445 C194.198242,104.651357 193.243173,102.629893 191.450195,100.666992 L192.794922,100.666992 C194.435555,102.424813 195.373046,104.446278 195.607422,106.731445 L198.296875,106.731445 C198.531251,104.446278 199.468742,102.424813 201.109375,100.666992 L202.454102,100.666992 C200.661124,102.629893 199.706055,104.651357 199.588867,106.731445 L202.357422,106.731445 L202.357422,107.707031 L199.588867,107.707031 C199.588867,110.103528 200.543936,112.30956 202.454102,114.325195 L201.039062,114.325195 C200.201168,113.370112 199.53467,112.296393 199.039551,111.104004 C198.544431,109.911615 198.296875,108.779302 198.296875,107.707031 L195.607422,107.707031 Z M211.049805,110.097656 L211.049805,113.05957 L205.486328,107.496094 L211.049805,101.932617 L211.049805,104.894531 L215.97168,104.894531 L215.97168,101.932617 L221.535156,107.496094 L215.97168,113.05957 L215.97168,110.097656 L211.049805,110.097656 Z M210.179688,109.227539 L216.833008,109.227539 L216.833008,110.967773 L220.304688,107.496094 L216.833008,104.024414 L216.833008,105.764648 L210.179688,105.764648 L210.179688,104.024414 L206.716797,107.496094 L210.179688,110.967773 L210.179688,109.227539 Z" id="word7" fill="#FFFFFF" sketch:type="MSShapeGroup"></path>
            <ellipse id="start-4" fill="#3AB0D5" sketch:type="MSShapeGroup" cx="23.5" cy="221.952282" rx="3.5" ry="3.5"></ellipse>
            <rect id="empty-bar-4" fill="#1B1D20" sketch:type="MSShapeGroup" x="50" y="218.452282" width="266.5" height="7"></rect>
            <rect id="progress-4" fill="#3AB0D5" sketch:type="MSShapeGroup" x="23" y="218.452282" width="102" height="7"></rect>
            <rect id="bar-4" fill="#FFFFFF" sketch:type="MSShapeGroup" x="122.338983" y="211" width="5.83050847" height="21.6348548"></rect>
            <ellipse id="end-4" fill="#1B1D20" sketch:type="MSShapeGroup" cx="316.5" cy="221.952282" rx="3.5" ry="3.5"></ellipse>
        </g>
    </g>
</svg>
