<?xml version="1.0" encoding="UTF-8" standalone="no"?>
<svg width="424px" height="230px" viewBox="0 0 424 238" version="1.1" xmlns="http://www.w3.org/2000/svg" xmlns:xlink="http://www.w3.org/1999/xlink" xmlns:sketch="http://www.bohemiancoding.com/sketch/ns">
    <!-- Generator: Sketch 3.4.4 (17249) - http://www.bohemiancoding.com/sketch -->
    <title>case-classification</title>
    <desc>Created with Sketch.</desc>
    <defs>
        <filter x="-50%" y="-50%" width="200%" height="200%" filterUnits="objectBoundingBox" id="filter-1">
            <feOffset dx="0" dy="1" in="SourceAlpha" result="shadowOffsetOuter1"></feOffset>
            <feGaussianBlur stdDeviation="1.5" in="shadowOffsetOuter1" result="shadowBlurOuter1"></feGaussianBlur>
            <feColorMatrix values="0 0 0 0 0   0 0 0 0 0   0 0 0 0 0  0 0 0 0.35 0" in="shadowBlurOuter1" type="matrix" result="shadowMatrixOuter1"></feColorMatrix>
            <feMerge>
                <feMergeNode in="shadowMatrixOuter1"></feMergeNode>
                <feMergeNode in="SourceGraphic"></feMergeNode>
            </feMerge>
        </filter>
        <filter x="-50%" y="-50%" width="200%" height="200%" filterUnits="objectBoundingBox" id="filter-2">
            <feOffset dx="0" dy="1" in="SourceAlpha" result="shadowOffsetOuter1"></feOffset>
            <feGaussianBlur stdDeviation="1.5" in="shadowOffsetOuter1" result="shadowBlurOuter1"></feGaussianBlur>
            <feColorMatrix values="0 0 0 0 0   0 0 0 0 0   0 0 0 0 0  0 0 0 0.35 0" in="shadowBlurOuter1" type="matrix" result="shadowMatrixOuter1"></feColorMatrix>
            <feMerge>
                <feMergeNode in="shadowMatrixOuter1"></feMergeNode>
                <feMergeNode in="SourceGraphic"></feMergeNode>
            </feMerge>
        </filter>
    </defs>
    <g id="Style-Inventory" stroke="none" stroke-width="1" fill="none" fill-rule="evenodd" sketch:type="MSPage">
        <g id="Uses-cases" sketch:type="MSArtboardGroup" transform="translate(-154.000000, -2289.000000)">
            <g id="case-classification" sketch:type="MSLayerGroup" transform="translate(158.000000, 2291.000000)">
                <rect id="btnNessy" fill="#077CA0" filter="url(#filter-1)" sketch:type="MSShapeGroup" x="310" y="0" width="106.758621" height="38" rx="2"></rect>
                <path d="M335.982,24 L338.502,24 L338.502,19.842 C338.502,18.456 338.286,16.89 338.178,15.594 L338.25,15.594 L339.402,18.15 L342.462,24 L345.18,24 L345.18,12.264 L342.66,12.264 L342.66,16.404 C342.66,17.79 342.876,19.446 342.984,20.688 L342.912,20.688 L341.76,18.096 L338.7,12.264 L335.982,12.264 L335.982,24 Z M347.952,24 L355.476,24 L355.476,21.768 L350.598,21.768 L350.598,19.068 L354.594,19.068 L354.594,16.854 L350.598,16.854 L350.598,14.496 L355.296,14.496 L355.296,12.264 L347.952,12.264 L347.952,24 Z M357.06,22.524 C358.248,23.64 359.868,24.216 361.398,24.216 C364.206,24.216 365.826,22.524 365.826,20.58 C365.826,18.924 364.926,17.97 363.504,17.394 L361.992,16.782 C360.984,16.368 360.21,16.116 360.21,15.396 C360.21,14.73 360.786,14.334 361.704,14.334 C362.64,14.334 363.36,14.676 364.134,15.27 L365.484,13.596 C364.476,12.588 363.054,12.048 361.704,12.048 C359.256,12.048 357.528,13.596 357.528,15.54 C357.528,17.25 358.68,18.258 359.886,18.744 L361.416,19.392 C362.442,19.824 363.108,20.058 363.108,20.796 C363.108,21.498 362.568,21.93 361.47,21.93 C360.498,21.93 359.418,21.426 358.572,20.706 L357.06,22.524 Z M366.744,22.524 C367.932,23.64 369.552,24.216 371.082,24.216 C373.89,24.216 375.51,22.524 375.51,20.58 C375.51,18.924 374.61,17.97 373.188,17.394 L371.676,16.782 C370.668,16.368 369.894,16.116 369.894,15.396 C369.894,14.73 370.47,14.334 371.388,14.334 C372.324,14.334 373.044,14.676 373.818,15.27 L375.168,13.596 C374.16,12.588 372.738,12.048 371.388,12.048 C368.94,12.048 367.212,13.596 367.212,15.54 C367.212,17.25 368.364,18.258 369.57,18.744 L371.1,19.392 C372.126,19.824 372.792,20.058 372.792,20.796 C372.792,21.498 372.252,21.93 371.154,21.93 C370.182,21.93 369.102,21.426 368.256,20.706 L366.744,22.524 Z M377.508,24 L380.154,24 L380.154,12.264 L377.508,12.264 L377.508,24 Z M382.926,24 L390.45,24 L390.45,21.768 L385.572,21.768 L385.572,19.068 L389.568,19.068 L389.568,16.854 L385.572,16.854 L385.572,14.496 L390.27,14.496 L390.27,12.264 L382.926,12.264 L382.926,24 Z" id="NESSIE" fill="#FFFFFF" sketch:type="MSShapeGroup"></path>
                <g id="Group" transform="translate(0.000000, 1.000000)" sketch:type="MSShapeGroup">
                    <g id="g103">
                        <g id="Page-1">
                            <g id="g103">
                                <path d="M289.387886,0 L289.387886,229.928416 L0,229.928416 L0,0 L289.387886,0 Z" id="Fill-663" fill="#F8F8F8"></path>
                                <path d="M0,0 L288.727786,0 L288.727786,230 L0,230 L0,0 L0,0 Z" id="Stroke-664" stroke="#FFFFFF" stroke-width="1.9047619"></path>
                                <path d="M1.18818019,152.116402 L287.539606,152.116402 L287.539606,228.783069 L1.18818019,228.783069 L1.18818019,152.116402 L1.18818019,152.116402 Z" id="Fill-2569" fill="#077CA0"></path>
                            </g>
                            <g id="Group" transform="translate(102.183496, 18.253968)" fill="#ECECEC">
                                <ellipse id="Oval-219" cx="15.729119" cy="31.8274318" rx="15.729119" ry="16.1009361"></ellipse>
                                <ellipse id="Oval-219-Copy" cx="34.0187922" cy="25.0875051" rx="15.729119" ry="16.1009361"></ellipse>
                                <ellipse id="Oval-219-Copy-2" cx="53.7716393" cy="31.8274318" rx="15.729119" ry="16.1009361"></ellipse>
                                <ellipse id="Oval-219-Copy-3" cx="69.8665517" cy="25.0875051" rx="15.729119" ry="16.1009361"></ellipse>
                                <ellipse id="Oval-219-Copy-4" cx="85.9614642" cy="31.8274318" rx="15.729119" ry="16.1009361"></ellipse>
                                <ellipse id="Oval-219-Copy-5" cx="107.909072" cy="16.1009361" rx="15.729119" ry="16.1009361"></ellipse>
                                <ellipse id="Oval-219-Copy-6" cx="112.298594" cy="32.5763126" rx="15.729119" ry="16.1009361"></ellipse>
                                <ellipse id="Oval-219-Copy-7" cx="128.393506" cy="28.8319088" rx="15.729119" ry="16.1009361"></ellipse>
                                <ellipse id="Oval-219-Copy-8" cx="151.804288" cy="31.8274318" rx="15.729119" ry="16.1009361"></ellipse>
                            </g>
                        </g>
                    </g>
                    <path d="M58.0464058,134.58716 C63.5199069,136.721923 72.4911267,133.770673 75.8115232,135.564296 C76.9648521,136.187305 58.7416457,158.163281 57.5121378,163.200318 C56.2826298,168.237355 54.8063967,170.529997 56.2826296,170.755874 C59.8303085,171.298701 73.1648843,170.755874 74.7252528,170.755874 C76.2824678,170.755874 76.4965182,170.749409 79.9141642,165.715604 C83.3318102,160.6818 84.96057,155.339456 90.0069758,148.422024 C93.2140458,144.025888 105.146193,132.857802 105.146193,120.752296 C105.146193,111.201316 95.644273,100 84.96057,100 C75.4254183,100 68.1715129,108.922378 66.7220519,117.63071 C66.5474579,118.679667 53,123.368572 53,124.39535 C53,126.957244 54.2780931,133.117451 58.0464058,134.58716 Z" id="Oval-210" fill="#2F4149"></path>
                    <path d="M113,170.164524 C113,170.164524 129.821353,140.266112 148.324841,139.03608 C162.400049,138.100421 169.661896,155.599487 172.331573,164.028876 C173.171494,166.680893 174.988054,174.293822 174.988054,174.293822" id="Path-2638" stroke="#2F4149" stroke-width="13"></path>
                    <path d="M209.128157,171.664143 C209.488346,170.728308 209.941178,169.670794 210.490651,168.523059 C212.072554,165.218789 211.290528,162.808877 213.035209,159.449811 C217.982152,149.925369 241.305954,143.524655 239.892417,140.629172 C238.478879,137.733689 207.381059,144.972396 201.72691,159.449811 C200.042608,163.762456 198.388683,167.881992 198,169.117913 L208.76372,172.668785 C208.805122,172.537136 208.925077,172.191782 209.128157,171.664143 Z" id="Shape" fill="#2F4149"></path>
                    <path d="M50,164.791973 C50,164.791973 62.2280141,167.012259 79.5081967,166.989797 C89.2314322,166.977157 100.676151,164.626668 112.143613,164.755733 C113.149142,164.767051 113.934426,167.976359 122.540984,167.976359 C131.147541,167.976359 129.918033,166.989797 136.702249,164.931244 C143.486465,162.872692 159.201176,164.876078 167.266443,164.830114 C171.070611,164.808434 169.262295,170.494878 180.327869,170.494878 C192.622951,170.494878 187.995862,165.885387 193.769411,166.989796 C200.097865,168.200352 206.393129,169.424118 212.295082,169.235619 C224.519727,168.845181 234.355292,164.791973 234.355292,164.791973 L234.355292,184.34673 L50,184.34673 L50,164.791973 Z" id="Rectangle-1243" fill="#077CA0"></path>
                    <ellipse id="Oval-91" fill="#F5A623" cx="49.9509111" cy="47.5692367" rx="16.9509111" ry="17.5692367"></ellipse>
                </g>
                <g id="Rectangle-1226-Copy-4-+-NOPE" transform="translate(310.000000, 48.000000)" sketch:type="MSShapeGroup">
                    <rect id="Rectangle-1226-Copy-4" stroke="#077CA0" fill="#FFFFFF" filter="url(#filter-2)" x="0" y="0" width="106.758621" height="38" rx="2"></rect>
                    <path d="M31.859,24 L34.379,24 L34.379,19.842 C34.379,18.456 34.163,16.89 34.055,15.594 L34.127,15.594 L35.279,18.15 L38.339,24 L41.057,24 L41.057,12.264 L38.537,12.264 L38.537,16.404 C38.537,17.79 38.753,19.446 38.861,20.688 L38.789,20.688 L37.637,18.096 L34.577,12.264 L31.859,12.264 L31.859,24 Z M48.599,24.216 C51.767,24.216 53.927,21.912 53.927,18.078 C53.927,14.262 51.767,12.048 48.599,12.048 C45.431,12.048 43.271,14.244 43.271,18.078 C43.271,21.912 45.431,24.216 48.599,24.216 L48.599,24.216 Z M48.599,21.93 C46.997,21.93 45.989,20.436 45.989,18.078 C45.989,15.738 46.997,14.334 48.599,14.334 C50.201,14.334 51.209,15.738 51.209,18.078 C51.209,20.436 50.201,21.93 48.599,21.93 L48.599,21.93 Z M56.141,24 L58.787,24 L58.787,20.022 L60.425,20.022 C62.909,20.022 65.015,18.798 65.015,16.044 C65.015,13.2 62.963,12.264 60.425,12.264 L56.141,12.264 L56.141,24 Z M58.787,17.916 L58.787,14.37 L60.263,14.37 C61.667,14.37 62.423,14.82 62.423,16.044 C62.423,17.268 61.721,17.916 60.263,17.916 L58.787,17.916 Z M67.049,24 L74.573,24 L74.573,21.768 L69.695,21.768 L69.695,19.068 L73.691,19.068 L73.691,16.854 L69.695,16.854 L69.695,14.496 L74.393,14.496 L74.393,12.264 L67.049,12.264 L67.049,24 Z" id="NOPE" fill="#077CA0"></path>
                </g>
            </g>
        </g>
    </g>
</svg>
