<?xml version="1.0" encoding="UTF-8" standalone="no"?>
<svg width="472px" height="244px" viewBox="0 0 472 244" version="1.1" xmlns="http://www.w3.org/2000/svg" xmlns:xlink="http://www.w3.org/1999/xlink" xmlns:sketch="http://www.bohemiancoding.com/sketch/ns">
    <!-- Generator: Sketch 3.4.4 (17249) - http://www.bohemiancoding.com/sketch -->
    <title>example-for-video</title>
    <desc>Created with Sketch.</desc>
    <defs>
        <filter x="-50%" y="-50%" width="200%" height="200%" filterUnits="objectBoundingBox" id="filter-1">
            <feOffset dx="0" dy="1" in="SourceAlpha" result="shadowOffsetOuter1"></feOffset>
            <feGaussianBlur stdDeviation="1.5" in="shadowOffsetOuter1" result="shadowBlurOuter1"></feGaussianBlur>
            <feColorMatrix values="0 0 0 0 0   0 0 0 0 0   0 0 0 0 0  0 0 0 0.35 0" in="shadowBlurOuter1" type="matrix" result="shadowMatrixOuter1"></feColorMatrix>
            <feMerge>
                <feMergeNode in="shadowMatrixOuter1"></feMergeNode>
                <feMergeNode in="SourceGraphic"></feMergeNode>
            </feMerge>
        </filter>
        <filter x="-50%" y="-50%" width="200%" height="200%" filterUnits="objectBoundingBox" id="filter-2">
            <feOffset dx="0" dy="1" in="SourceAlpha" result="shadowOffsetOuter1"></feOffset>
            <feGaussianBlur stdDeviation="1.5" in="shadowOffsetOuter1" result="shadowBlurOuter1"></feGaussianBlur>
            <feColorMatrix values="0 0 0 0 0   0 0 0 0 0   0 0 0 0 0  0 0 0 0.35 0" in="shadowBlurOuter1" type="matrix" result="shadowMatrixOuter1"></feColorMatrix>
            <feMerge>
                <feMergeNode in="shadowMatrixOuter1"></feMergeNode>
                <feMergeNode in="SourceGraphic"></feMergeNode>
            </feMerge>
        </filter>
        <ellipse id="path-3" cx="7.44690436" cy="7.4491271" rx="7.44690436" ry="7.4491271"></ellipse>
    </defs>
    <g id="animations" stroke="none" stroke-width="1" fill="none" fill-rule="evenodd" sketch:type="MSPage">
        <g id="example-for-video" sketch:type="MSLayerGroup" transform="translate(3.000000, 2.000000)">
            <g id="video" sketch:type="MSShapeGroup">
                <rect id="Rectangle-177" fill="#F8F8F8" filter="url(#filter-1)" x="0" y="0" width="344" height="237.73029" rx="1"></rect>
                <rect id="sea" fill="#077CA0" x="0" y="120" width="344" height="76"></rect>
                <g id="video-controls" transform="translate(0.000000, 194.730290)">
                    <g id="g106">
                        <g>
                            <path d="M344,0.714986767 L344,43.0012938 L0,43.0012938 L0,0.714986767 L344,0.714986767 Z" id="Fill-247" fill="#2F4149"></path>
                            <path d="M166.431117,25.1963665 L70.5641026,25.1963665 C68.7969539,25.1963665 67.3685354,23.7469375 67.3685354,21.9537961 C67.3685354,20.1638973 68.7969539,18.7112257 70.5641026,18.7112257 L166.431117,18.7112257 C168.198266,18.7112257 169.626684,20.1638973 169.626684,21.9537961 C169.626684,23.7469375 168.198266,25.1963665 166.431117,25.1963665" id="Fill-1870" fill="#1B1D20"></path>
                            <path d="M115.694481,18.7112257 L51.1290743,18.7112257 C49.3619257,18.7112257 47.9335072,20.1638973 47.9335072,21.9537961 C47.9335072,23.7469375 49.3619257,25.1963665 51.1290743,25.1963665 L125.411995,25.1963665 L125.411995,18.7112257" id="Fill-2553" fill="#3AB0D5"></path>
                            <path d="M321.911343,25.1963665 L226.044329,25.1963665 C224.27718,25.1963665 222.848761,23.7469375 222.848761,21.9537961 C222.848761,20.1638973 224.27718,18.7112257 226.044329,18.7112257 L321.911343,18.7112257 C323.678492,18.7112257 325.10691,20.1638973 325.10691,21.9537961 C325.10691,23.7469375 323.678492,25.1963665 321.911343,25.1963665" id="Fill-1870" fill="#1B1D20"></path>
                            <path d="M244.17123,25.1963665 L148.304216,25.1963665 C146.537067,25.1963665 145.108648,23.7469375 145.108648,21.9537961 C145.108648,20.1638973 146.537067,18.7112257 148.304216,18.7112257 L244.17123,18.7112257 C245.938379,18.7112257 247.366797,20.1638973 247.366797,21.9537961 C247.366797,23.7469375 245.938379,25.1963665 244.17123,25.1963665" id="Fill-1870" fill="#1B1D20"></path>
                        </g>
                    </g>
                </g>
                <rect id="bar" fill="#FFFFFF" x="122.338983" y="204.547718" width="5.83050847" height="21.6348548"></rect>
                <ellipse id="sun" fill="#F88B1C" cx="288.786741" cy="30.9520409" rx="13.786741" ry="13.9520409"></ellipse>
                <g id="btn" transform="translate(8.000000, 198.000000)">
                    <path d="M33.039548,16.7178423 C33.039548,25.9512796 25.6432464,33.4356846 16.519774,33.4356846 C7.39630158,33.4356846 0,25.9512796 0,16.7178423 C0,7.48498154 7.39630158,0 16.519774,0 C25.6432464,0 33.039548,7.48498154 33.039548,16.7178423" id="Fill-760" fill="#C7CBC7"></path>
                    <g id="pause" transform="translate(10.000000, 7.000000)" fill="#FFFFFF">
                        <path d="M8.79836353,1.0706825 L12.2162478,1.0706825 L12.2162478,18.3650021 L8.79836353,18.3650021 L8.79836353,1.0706825 L8.79836353,1.0706825 Z" id="Fill-1899"></path>
                        <path d="M0.823300214,1.0706825 L4.24118449,1.0706825 L4.24118449,18.3650021 L0.823300214,18.3650021 L0.823300214,1.0706825 L0.823300214,1.0706825 Z" id="Fill-1901"></path>
                        <path d="M0.253652835,0.49420518 L4.81083187,0.49420518 L4.81083187,18.9414795 L0.253652835,18.9414795 L0.253652835,0.49420518 L0.253652835,0.49420518 Z M1.39294759,17.7885248 L3.67153711,17.7885248 L3.67153711,1.64715982 L1.39294759,1.64715982 L1.39294759,17.7885248 L1.39294759,17.7885248 Z" id="Fill-1902"></path>
                        <path d="M8.22871615,0.49420518 L12.7858952,0.49420518 L12.7858952,18.9414795 L8.22871615,18.9414795 L8.22871615,0.49420518 L8.22871615,0.49420518 Z M9.36801091,17.7885248 L11.6466004,17.7885248 L11.6466004,1.64715982 L9.36801091,1.64715982 L9.36801091,17.7885248 L9.36801091,17.7885248 Z" id="Fill-1900"></path>
                    </g>
                    <path d="M10.5,25.5 L10.5,7.5 L28.5,16.5 L10.5,25.5 Z" id="play" fill="#F8F8F8"></path>
                </g>
                <g id="waves" transform="translate(9.000000, 130.000000)" stroke="#285680" stroke-width="4">
                    <path d="M119,0.208 C114.578,5.68 107.422,5.68 103,0.208 M98,19 C93.578,24.472 86.422,24.472 82,19 M64,29.104 C59.578,34.576 52.422,34.576 48,29.104 M24,48 C19.578,53.472 12.422,53.472 8,48 M40,2 C35.578,7.472 28.422,7.472 24,2 M16,18 C11.578,23.472 4.422,23.472 0,18 M92,50.104 C87.578,55.576 80.422,55.576 76,50.104" id="Stroke-301" opacity="0.200000003"></path>
                    <path d="M327,28.896 C322.578,34.368 315.422,34.368 311,28.896 M287,47.792 C282.578,53.264 275.422,53.264 271,47.792 M303,1.792 C298.578,7.264 291.422,7.264 287,1.792 M279,17.792 C274.578,23.264 267.422,23.264 263,17.792" id="Stroke-301-Copy" opacity="0.200000003"></path>
                    <path d="M240,31.208 C235.578,36.68 228.422,36.68 224,31.208 M216,12 C211.578,17.472 204.422,17.472 200,12 M190,33.104 C185.578,38.576 178.422,38.576 174,33.104 M162,43 C157.578,48.472 150.422,48.472 146,43 M168,7 C163.578,12.472 156.422,12.472 152,7 M144,23 C139.578,28.472 132.422,28.472 128,23 M220,45.104 C215.578,50.576 208.422,50.576 204,45.104" id="Stroke-301" opacity="0.200000018"></path>
                </g>
                <path d="M86.5300416,92.8798018 L129.267566,92.8798018 L129.267566,109.272277 L147.7584,109.272277 C148.862837,109.272277 149.442777,110.113295 149.058569,111.13785 L139.91973,135.508089 C139.533357,136.538417 138.325597,137.373662 137.221932,137.373662 L62.7686447,137.373662 C61.6650653,137.373662 60.4375343,136.532644 60.0319814,135.508089 L50.3854289,111.13785 C49.9775909,110.107522 50.5430195,109.272277 51.6467318,109.272277 L71.8939032,109.272277 L71.8939032,92.8798018 L85.3591505,92.8798018 L85.3591505,80 L86.5300416,80 L86.5300416,92.8798018 Z M85.3591505,88.1962375 L67.7957844,86.4399009 L73.0647943,84.0981187 L66.0394478,81.1708911 L85.3591505,80 L85.3591505,88.1962375 Z" id="boat" fill="#2F4149"></path>
            </g>
            <g id="user3-card" transform="translate(374.000000, 0.000000)">
                <rect id="card3" fill="#2F4149" filter="url(#filter-2)" sketch:type="MSShapeGroup" x="0" y="0" width="92" height="69" rx="1"></rect>
                <rect id="user3-input" fill="#FFFFFF" sketch:type="MSShapeGroup" x="6" y="6" width="80" height="36"></rect>
                <rect id="user3-line3" fill="#077CA0" sketch:type="MSShapeGroup" x="12" y="32" width="65" height="4"></rect>
                <g id="user3-avatar" transform="translate(6.000000, 48.000000)">
                    <mask id="mask-4" sketch:name="Mask" fill="white">
                        <use xlink:href="#path-3"></use>
                    </mask>
                    <use id="Mask" fill="#FFFFFF" sketch:type="MSShapeGroup" xlink:href="#path-3"></use>
                    <g id="g236" mask="url(#mask-4)" fill="#F88B1C" sketch:type="MSShapeGroup">
                        <g transform="translate(2.817748, 2.818589)">
                            <path d="M8.33248218,3.68142189 C8.33248218,1.64835665 6.67431823,0 4.62915677,0 C2.58399531,0 0.925831353,1.64835665 0.925831353,3.68142189 C0.925831353,5.71448712 2.58399531,7.36284377 4.62915677,7.36284377 C6.67431823,7.36284377 8.33248218,5.71448712 8.33248218,3.68142189" id="Fill-1585"></path>
                            <path d="M4.62915677,7.36284377 C2.0729364,7.36284377 0,9.42351967 0,11.9646211 L0,12.8849766 L9.25831353,12.8849766 L9.25831353,11.9646211 C9.25831353,9.42351967 7.18537713,7.36284377 4.62915677,7.36284377" id="Fill-1586"></path>
                        </g>
                    </g>
                </g>
                <g id="user3-line2" transform="translate(12.000000, 22.000000)" fill="#077CA0" sketch:type="MSShapeGroup">
                    <rect id="Rectangle-262" x="41" y="0" width="13" height="4"></rect>
                    <rect id="Rectangle-262" x="0" y="0" width="38" height="4"></rect>
                </g>
                <g id="user3-line1" transform="translate(12.000000, 12.000000)" fill="#077CA0" sketch:type="MSShapeGroup">
                    <rect id="Rectangle-262" x="22" y="0" width="26" height="4"></rect>
                    <rect id="Rectangle-262" x="0" y="0" width="12" height="4"></rect>
                    <rect id="Rectangle-262" x="15" y="0" width="4" height="4"></rect>
                </g>
                <rect id="user3-name" fill="#FFFFFF" sketch:type="MSShapeGroup" x="27" y="53" width="39" height="5"></rect>
            </g>
        </g>
    </g>
</svg>