<?xml version="1.0" encoding="UTF-8" standalone="no"?>
<svg width="75px" height="75px" viewBox="0 0 75 75" version="1.1" xmlns="http://www.w3.org/2000/svg" xmlns:xlink="http://www.w3.org/1999/xlink" xmlns:sketch="http://www.bohemiancoding.com/sketch/ns">
    <!-- Generator: Sketch 3.3.3 (12072) - http://www.bohemiancoding.com/sketch -->
    <title>cheers</title>
    <desc>Created with Sketch.</desc>
    <defs></defs>
    <g id="Page-1" stroke="none" stroke-width="1" fill="none" fill-rule="evenodd" sketch:type="MSPage">
        <g id="Features-Copy-2" sketch:type="MSArtboardGroup" transform="translate(-718.000000, -613.000000)">
            <g id="cheers" sketch:type="MSLayerGroup" transform="translate(718.000000, 613.000000)">
                <circle id="Oval-30" fill="#FFFFFF" sketch:type="MSShapeGroup" cx="37.5" cy="37.5" r="37.5"></circle>
                <g transform="translate(11.041504, 3.000000)" sketch:type="MSShapeGroup">
                    <path d="M18.3954724,9.17662995 C18.1174205,20.4180016 16.15821,44.0478238 9.64739107,44.0478238 C3.166855,44.0478238 1.19479722,20.6409938 0.902980387,9.33722098 C0.900227398,9.24729 0.972722775,9.17662995 1.06357141,9.17662995 L18.3954724,9.17662995" id="Fill-885" fill="#B0D3F0"></path>
                    <path d="M8.42781695,43.1301608 L10.2631429,43.1301608 L10.2631429,51.3891277 L8.42781695,51.3891277 L8.42781695,43.1301608 Z" id="Fill-886" fill="#B0D3F0"></path>
                    <path d="M37.2277524,7.24403168 C41.8830568,17.4796447 50.4320052,39.5962406 44.5736447,42.4373252 C38.7152841,45.2793275 26.6397568,24.8732555 21.484326,14.8799055 L37.2277524,7.24403168" id="Fill-887" fill="#B0D3F0"></path>
                    <path d="M45.0260525,54.0898099 C44.7314827,54.2320477 44.3680882,54.0714567 44.2946751,53.7530276 C44.0157056,52.5316182 44.6030099,51.2349603 45.7785362,50.6650916 L50.732081,48.2626499 C51.9076073,47.6918635 53.2896078,48.0332342 54.076045,49.0087099 C54.2806838,49.2638202 54.1815762,49.6492387 53.8879241,49.7914765 L45.0260525,54.0898099" id="Fill-888" fill="#90BAE1"></path>
                    <path d="M47.4367532,49.8786544 L42.3538179,39.8752101 L43.9909287,39.0438075 L49.073864,49.0472518 L47.4367532,49.8786544" id="Fill-889" fill="#B0D3F0"></path>
                    <path d="M21.1484614,0 C20.6419114,0 20.2307984,0.410195359 20.2307984,0.917662995 L20.2307984,4.58831498 C20.2307984,5.09578261 20.6419114,5.50597797 21.1484614,5.50597797 C21.6550114,5.50597797 22.0661244,5.09578261 22.0661244,4.58831498 L22.0661244,0.917662995 C22.0661244,0.410195359 21.6550114,0 21.1484614,0" id="Fill-1017" fill="#D1D4D1"></path>
                    <path d="M28.2208901,2.10420125 C27.8620839,1.74539502 27.2821208,1.74539502 26.9233146,2.10420125 L24.1703256,4.85719023 C23.8115194,5.21599646 23.8115194,5.79595948 24.1703256,6.15476571 C24.3492699,6.33370999 24.5841916,6.42364097 24.8191134,6.42364097 C25.0540351,6.42364097 25.2889568,6.33370999 25.4679011,6.15476571 L28.2208901,3.40177672 C28.5796963,3.04297049 28.5796963,2.46208982 28.2208901,2.10420125" id="Fill-1018" fill="#D1D4D1"></path>
                    <path d="M29.4074283,7.34130396 L26.6544394,7.34130396 C26.1478894,7.34130396 25.7367764,7.75149932 25.7367764,8.25896696 C25.7367764,8.76643459 26.1478894,9.17662995 26.6544394,9.17662995 L29.4074283,9.17662995 C29.9139783,9.17662995 30.3250913,8.76643459 30.3250913,8.25896696 C30.3250913,7.75149932 29.9139783,7.34130396 29.4074283,7.34130396" id="Fill-1019" fill="#D1D4D1"></path>
                    <path d="M15.3736082,2.10420125 C15.0148019,1.74539502 14.4348389,1.74539502 14.0760327,2.10420125 C13.7172265,2.46208982 13.7172265,3.04297049 14.0760327,3.40177672 L16.8290217,6.15476571 C17.007966,6.33370999 17.2428877,6.42364097 17.4778094,6.42364097 C17.7127311,6.42364097 17.9476529,6.33370999 18.1265971,6.15476571 C18.4854034,5.79595948 18.4854034,5.21599646 18.1265971,4.85719023 L15.3736082,2.10420125" id="Fill-1020" fill="#D1D4D1"></path>
                    <path d="M17.416326,22.9415749 L2.73371806,22.9415749 L1.82890235,23.0654594 C2.96772213,33.4451455 5.28573885,44.0478238 9.64739107,44.0478238 C14.0182199,44.0478238 16.3362366,33.3983447 17.4723034,22.9975523 L17.416326,22.9415749" id="Fill-1022" fill="#F0C419"></path>
                    <path d="M8.88573078,27.9887214 C8.88573078,28.7485463 8.26997891,29.3652158 7.50923629,29.3652158 C6.74941133,29.3652158 6.1327418,28.7485463 6.1327418,27.9887214 C6.1327418,27.2288964 6.74941133,26.6122269 7.50923629,26.6122269 C8.26997891,26.6122269 8.88573078,27.2288964 8.88573078,27.9887214" id="Fill-1023" fill="#ECF0F1"></path>
                    <path d="M14.3917088,30.7417103 C14.3917088,31.5015353 13.7759569,32.1182048 13.0152143,32.1182048 C12.2553893,32.1182048 11.6387198,31.5015353 11.6387198,30.7417103 C11.6387198,29.9818854 12.2553893,29.3652158 13.0152143,29.3652158 C13.7759569,29.3652158 14.3917088,29.9818854 14.3917088,30.7417103" id="Fill-1024" fill="#ECF0F1"></path>
                    <path d="M10.7210568,34.4123623 C10.7210568,35.1721873 10.1053049,35.7888568 9.34456228,35.7888568 C8.58473732,35.7888568 7.96806779,35.1721873 7.96806779,34.4123623 C7.96806779,33.6525374 8.58473732,33.0358678 9.34456228,33.0358678 C10.1053049,33.0358678 10.7210568,33.6525374 10.7210568,34.4123623" id="Fill-1025" fill="#ECF0F1"></path>
                    <path d="M4.85076659,54.1421167 C4.23868537,54.1421167 3.84500795,53.498835 4.11021256,52.9482372 C4.55527911,52.0259858 5.49955433,51.3891277 6.59157329,51.3891277 L12.0975513,51.3891277 C13.1904879,51.3891277 14.1347631,52.0259858 14.578912,52.9482372 C14.8450343,53.498835 14.4513568,54.1421167 13.8392756,54.1421167 L4.85076659,54.1421167" id="Fill-1026" fill="#90BAE1"></path>
                    <path d="M28.3842341,26.9737861 C33.9388482,35.8145514 40.6497177,44.3405583 44.5736447,42.4373252 C47.6248741,40.9580525 46.7650239,34.2462653 44.5846566,26.7113345 L44.0900363,26.6122269 L28.4897653,26.6122269 L28.3842341,26.9737861" id="Fill-1027" fill="#F0C419"></path>
                    <path d="M36.3146777,29.6148202 C36.6468717,30.2993968 36.3605609,31.1225405 35.6769019,31.4538168 C34.993243,31.7860108 34.1691816,31.5006176 33.8379053,30.816041 C33.5057113,30.1323821 33.7920221,29.3092384 34.4756811,28.9770444 C35.15934,28.6457681 35.9834014,28.9311612 36.3146777,29.6148202" id="Fill-1028" fill="#ECF0F1"></path>
                    <path d="M42.4703611,29.6891509 C42.8016374,30.3737275 42.5162442,31.1968712 41.8325853,31.5281475 C41.1480087,31.8603415 40.324865,31.5749483 39.992671,30.8903717 C39.6613947,30.2067128 39.9467878,29.3835691 40.6313644,29.0513751 C41.3150234,28.7200988 42.1381671,29.005492 42.4703611,29.6891509" id="Fill-1029" fill="#ECF0F1"></path>
                    <path d="M40.7690139,34.5940596 C41.1012079,35.2777185 40.8158147,36.1008622 40.1312381,36.4330562 C39.4475792,36.7643326 38.6244355,36.4789394 38.2922415,35.7952805 C37.9609651,35.1107039 38.2463583,34.2875602 38.9300172,33.9562838 C39.6145938,33.6240898 40.4377375,33.909483 40.7690139,34.5940596" id="Fill-1030" fill="#ECF0F1"></path>
                </g>
            </g>
        </g>
    </g>
</svg>