<?xml version="1.0" encoding="UTF-8" standalone="no"?>
<svg width="113px" height="113px" viewBox="0 0 113 113" version="1.1" xmlns="http://www.w3.org/2000/svg" xmlns:xlink="http://www.w3.org/1999/xlink" xmlns:sketch="http://www.bohemiancoding.com/sketch/ns">
    <!-- Generator: Sketch 3.3.3 (12072) - http://www.bohemiancoding.com/sketch -->
    <title>civic_hacker</title>
    <desc>Created with Sketch.</desc>
    <defs></defs>
    <g id="Page-1" stroke="none" stroke-width="1" fill="none" fill-rule="evenodd" sketch:type="MSPage">
        <g id="Home" sketch:type="MSArtboardGroup" transform="translate(-664.000000, -1768.000000)">
            <g id="civic_hacker" sketch:type="MSLayerGroup" transform="translate(664.000000, 1768.000000)">
                <circle id="Oval-27" fill="#F7F7F7" sketch:type="MSShapeGroup" cx="56.5" cy="56.5" r="56.5"></circle>
                <g transform="translate(18.379310, 16.000000)" sketch:type="MSShapeGroup">
                    <path d="M38.6206897,20.6896552 C22.6234483,20.6896552 9.65517241,24.3944828 9.65517241,28.9655172 L9.65517241,68.9655172 C9.65517241,72 12.137931,74.4827586 15.1724138,74.4827586 L62.0689655,74.4827586 C65.1034483,74.4827586 67.5862069,72 67.5862069,68.9655172 L67.5862069,28.9655172 C67.5862069,24.3944828 54.617931,20.6896552 38.6206897,20.6896552" id="Fill-437" fill="#FFDB2B"></path>
                    <path d="M59.0344828,66.3724138 C58.662069,66.3724138 58.3034483,66.2206897 58.0551724,65.9724138 C57.7917241,65.7089655 57.6551724,65.3641379 57.6551724,64.9931034 C57.6551724,64.6193103 57.7917241,64.262069 58.0551724,64.0137931 C58.5655172,63.5034483 59.4896552,63.5034483 60,64.0137931 C60.262069,64.2744828 60.4137931,64.6193103 60.4137931,64.9931034 C60.4137931,65.3517241 60.262069,65.7089655 60,65.9724138 C59.7503448,66.2206897 59.3931034,66.3724138 59.0344828,66.3724138" id="Fill-516" fill="#E57E25"></path>
                    <path d="M59.5862069,54.6882759 C59.2275862,54.6882759 58.8689655,54.537931 58.6068966,54.2744828 C58.3586207,54.0275862 58.2068966,53.6689655 58.2068966,53.2951724 C58.2068966,52.937931 58.3586207,52.5793103 58.6206897,52.3296552 C59.1034483,51.8193103 60.0413793,51.8055172 60.5655172,52.3296552 C60.8275862,52.5793103 60.9655172,52.937931 60.9655172,53.2951724 C60.9655172,53.6689655 60.8275862,54.0137931 60.5655172,54.2744828 C60.3034483,54.537931 59.9448276,54.6882759 59.5862069,54.6882759" id="Fill-517" fill="#E57E25"></path>
                    <path d="M59.3103448,60.5241379 C58.9517241,60.5241379 58.5917241,60.3848276 58.3310345,60.1241379 C58.0813793,59.8606897 57.9310345,59.5158621 57.9310345,59.1448276 C57.9310345,58.7710345 58.0689655,58.4262069 58.3310345,58.1793103 C58.8551724,57.6551724 59.7655172,57.6551724 60.2896552,58.1655172 C60.537931,58.4262069 60.6896552,58.7862069 60.6896552,59.1448276 C60.6896552,59.502069 60.537931,59.8606897 60.2896552,60.1241379 C60.0275862,60.3848276 59.6689655,60.5241379 59.3103448,60.5241379" id="Fill-518" fill="#E57E25"></path>
                    <path d="M54.7034483,63.6689655 C54.3434483,63.6689655 53.9862069,63.5172414 53.7241379,63.2537931 C53.4744828,62.9931034 53.3241379,62.6482759 53.3241379,62.2896552 C53.3241379,61.9296552 53.4744828,61.5710345 53.7241379,61.3103448 C54.2331034,60.8 55.1724138,60.8 55.6827586,61.3103448 C55.9310345,61.5710345 56.0827586,61.9158621 56.0827586,62.2896552 C56.0827586,62.6482759 55.9310345,63.0068966 55.6827586,63.2537931 C55.4344828,63.5172414 55.0758621,63.6689655 54.7034483,63.6689655" id="Fill-519" fill="#E57E25"></path>
                    <path d="M51.462069,70.3448276 C51.0896552,70.3448276 50.7448276,70.1917241 50.4827586,69.9448276 C50.2206897,69.6813793 50.0827586,69.3365517 50.0827586,68.9655172 C50.0827586,68.5917241 50.2206897,68.2468966 50.4827586,67.9862069 C50.9793103,67.4758621 51.9296552,67.4758621 52.44,67.9862069 C52.6896552,68.2468966 52.8413793,68.6068966 52.8413793,68.9655172 C52.8413793,69.3241379 52.6896552,69.6813793 52.4275862,69.9448276 C52.1793103,70.1917241 51.8193103,70.3448276 51.462069,70.3448276" id="Fill-520" fill="#E57E25"></path>
                    <path d="M64.137931,61.737931 C63.7641379,61.737931 63.4068966,61.5848276 63.1586207,61.3241379 C62.8965517,61.0744828 62.7586207,60.7158621 62.7586207,60.3586207 C62.7586207,59.9862069 62.8965517,59.6262069 63.1586207,59.3793103 C63.6689655,58.8689655 64.6068966,58.8689655 65.1172414,59.3793103 C65.3655172,59.6262069 65.5172414,59.9862069 65.5172414,60.3586207 C65.5172414,60.7158621 65.3655172,61.0744828 65.1034483,61.337931 C64.8537931,61.5848276 64.5103448,61.737931 64.137931,61.737931" id="Fill-521" fill="#E57E25"></path>
                    <path d="M20.0137931,68.2468966 C19.6551724,68.2468966 19.2965517,68.0965517 19.0344828,67.8468966 C18.7862069,67.5862069 18.6344828,67.2275862 18.6344828,66.8675862 C18.6344828,66.4965517 18.7862069,66.137931 19.0344828,65.8882759 C19.5586207,65.3641379 20.4827586,65.377931 20.9931034,65.8882759 C21.24,66.137931 21.3931034,66.4965517 21.3931034,66.8675862 C21.3931034,67.2275862 21.24,67.5862069 20.9931034,67.8344828 C20.7310345,68.0965517 20.3724138,68.2468966 20.0137931,68.2468966" id="Fill-522" fill="#E57E25"></path>
                    <path d="M19.4482759,56.5517241 C19.0896552,56.5517241 18.7310345,56.3986207 18.4813793,56.137931 C18.2206897,55.8882759 18.0689655,55.5310345 18.0689655,55.1724138 C18.0689655,54.8137931 18.2206897,54.4537931 18.4813793,54.1931034 C18.9931034,53.6827586 19.9034483,53.6827586 20.4275862,54.1931034 C20.6896552,54.4537931 20.84,54.8137931 20.84,55.1724138 C20.84,55.5310345 20.6896552,55.8882759 20.4275862,56.1517241 C20.1793103,56.3986207 19.8206897,56.5517241 19.4482759,56.5517241" id="Fill-523" fill="#E57E25"></path>
                    <path d="M19.737931,62.4 C19.3655172,62.4 19.0068966,62.2482759 18.7586207,61.9848276 C18.4965517,61.737931 18.3586207,61.3793103 18.3586207,61.0206897 C18.3586207,60.6482759 18.4965517,60.2896552 18.7586207,60.04 C19.2551724,59.5310345 20.1931034,59.5158621 20.7172414,60.04 C20.9655172,60.2896552 21.1172414,60.6482759 21.1172414,61.0206897 C21.1172414,61.3793103 20.9655172,61.737931 20.7034483,62 C20.4551724,62.2482759 20.0951724,62.4 19.737931,62.4" id="Fill-524" fill="#E57E25"></path>
                    <path d="M24.3434483,65.5310345 C23.9724138,65.5310345 23.6137931,65.377931 23.3655172,65.1310345 C23.1034483,64.8675862 22.9641379,64.5089655 22.9641379,64.1517241 C22.9641379,63.7931034 23.1034483,63.4482759 23.3517241,63.1848276 C23.8882759,62.662069 24.7986207,62.662069 25.3103448,63.1848276 C25.5724138,63.4344828 25.7227586,63.7931034 25.7227586,64.1517241 C25.7227586,64.5227586 25.5724138,64.8675862 25.3103448,65.1310345 C25.062069,65.377931 24.7034483,65.5310345 24.3434483,65.5310345" id="Fill-525" fill="#E57E25"></path>
                    <path d="M27.5862069,72.2055172 C27.2124138,72.2055172 26.8551724,72.0689655 26.6068966,71.8055172 C26.3448276,71.5448276 26.2068966,71.2 26.2068966,70.84 C26.2068966,70.4689655 26.3572414,70.1103448 26.6068966,69.8606897 C27.102069,69.3503448 28.0551724,69.3365517 28.5655172,69.8606897 C28.8137931,70.1241379 28.9655172,70.4689655 28.9655172,70.84 C28.9655172,71.2 28.8137931,71.5448276 28.5655172,71.8055172 C28.3034483,72.0689655 27.9448276,72.2055172 27.5862069,72.2055172" id="Fill-526" fill="#E57E25"></path>
                    <path d="M14.9103448,63.5986207 C14.5517241,63.5986207 14.1931034,63.462069 13.9310345,63.1986207 C13.6827586,62.937931 13.5310345,62.5793103 13.5310345,62.2193103 C13.5310345,61.8606897 13.6827586,61.5034483 13.9310345,61.24 C14.4537931,60.7296552 15.377931,60.7296552 15.8896552,61.2551724 C16.137931,61.5034483 16.2896552,61.8482759 16.2896552,62.2193103 C16.2896552,62.5931034 16.137931,62.9503448 15.8896552,63.1986207 C15.6275862,63.462069 15.2675862,63.5986207 14.9103448,63.5986207" id="Fill-527" fill="#E57E25"></path>
                    <path d="M50.9186207,56.5903448 C51.7531034,60.0758621 48.0165517,67.1517241 41.6813793,68.6675862 C35.3448276,70.1862069 28.8082759,65.5696552 27.9737931,62.0841379 C27.1393103,58.5972414 33.3737931,61.9517241 39.7089655,60.4344828 C46.0455172,58.9172414 50.0841379,53.1034483 50.9186207,56.5903448" id="Fill-528" fill="#802D40"></path>
                    <path d="M59.3103448,41.3793103 C59.3103448,45.9503448 55.6055172,49.6551724 51.0344828,49.6551724 C46.4634483,49.6551724 42.7586207,45.9503448 42.7586207,41.3793103 C42.7586207,36.8082759 46.4634483,33.1034483 51.0344828,33.1034483 C55.6055172,33.1034483 59.3103448,36.8082759 59.3103448,41.3793103" id="Fill-581" fill="#FFFFFF"></path>
                    <path d="M54.7517241,80 L22.4896552,80 C21.4951724,80 20.6896552,79.1944828 20.6896552,78.2 L20.6896552,74.4827586 L56.5517241,74.4827586 L56.5517241,78.2 C56.5517241,79.1944828 55.7462069,80 54.7517241,80" id="Fill-582" fill="#FEC722"></path>
                    <path d="M67.5862069,34.4827586 C67.5862069,29.9117241 54.617931,26.2068966 38.6206897,26.2068966 C22.6234483,26.2068966 9.65517241,29.9117241 9.65517241,34.4827586 L9.65517241,24.8275862 L37.2413793,15.1724138 L67.5862069,24.8275862 L67.5862069,34.4827586" id="Fill-606" fill="#556080"></path>
                    <path d="M53.7931034,41.3793103 C53.7931034,42.902069 52.5586207,44.137931 51.0344828,44.137931 C49.5103448,44.137931 48.2758621,42.902069 48.2758621,41.3793103 C48.2758621,39.8551724 49.5103448,38.6206897 51.0344828,38.6206897 C52.5586207,38.6206897 53.7931034,39.8551724 53.7931034,41.3793103" id="Fill-611" fill="#556080"></path>
                    <path d="M49.0786207,63.2234483 C47.7848276,62.0441379 44.4675862,61.702069 40.7986207,62.5075862 C36.3751724,63.4786207 33.1117241,65.7462069 33.4482759,67.5972414 C35.862069,68.7696552 38.7889655,69.36 41.6813793,68.6689655 C44.9117241,67.8937931 47.4606897,65.6744828 49.0786207,63.2234483" id="Fill-612" fill="#E64C3C"></path>
                    <path d="M45.2731034,24.0124138 L35.7641379,33.52 C35.7393103,33.48 35.72,33.4372414 35.6937931,33.3972414 C34.4662069,31.4717241 32.9406897,30.4965517 31.16,30.4965517 C29.0427586,30.4965517 26.9751724,31.8386207 24.5793103,33.3931034 L22.5489655,34.6868966 C19.7751724,36.4262069 17.3793103,37.9282759 16.8289655,40.3668966 C16.52,41.7462069 16.8593103,43.1834483 17.8689655,44.7655172 C18.1682759,45.2358621 18.5117241,45.6662069 18.8717241,46.0758621 L9.65517241,54.257931 L9.65517241,57.9475862 L20.9737931,47.9006897 C22.6717241,49.0206897 24.6758621,49.6551724 26.7903448,49.6551724 C28.8013793,49.6551724 30.7641379,49.0813793 32.4662069,47.9958621 C36.4813793,45.4344828 38.1793103,40.5944828 36.9572414,36.2275862 L47.2234483,25.9627586 L45.2731034,24.0124138" id="Fill-613" fill="#556080"></path>
                    <path d="M71.7241379,17.9310345 L67.9696552,17.9310345 C64.7834483,17.9310345 62.0551724,15.4041379 62.0689655,12.2165517 C62.0993103,5.47448276 56.6427586,0 49.9075862,0 L46.4262069,0 C45.0234483,0 43.742069,0.791724138 43.1144828,2.04689655 C42.9062069,2.46344828 42.7710345,2.92 42.7393103,3.38482759 C42.5834483,5.75310345 41.4289655,5.51724138 38.6206897,5.51724138 C35.8124138,5.51724138 34.6593103,5.75310345 34.502069,3.38482759 C34.4703448,2.92 34.3351724,2.46344828 34.1268966,2.04689655 C33.4993103,0.791724138 32.217931,0 30.8151724,0 L27.3337931,0 C20.5986207,0 15.142069,5.47448276 15.1724138,12.2165517 C15.1862069,15.4041379 12.457931,17.9310345 9.27172414,17.9310345 L5.75448276,17.9310345 C2.87310345,17.9310345 0.299310345,20.0372414 0.0262068966,22.9062069 C-0.288275862,26.1958621 2.29103448,28.9655172 5.51724138,28.9655172 L9.65517241,28.9655172 C9.65517241,24.3944828 22.6234483,20.6896552 38.6206897,20.6896552 C54.617931,20.6896552 67.5862069,24.3944828 67.5862069,28.9655172 L71.4868966,28.9655172 C74.3682759,28.9655172 76.942069,26.857931 77.2151724,23.9903448 C77.5296552,20.6993103 74.9503448,17.9310345 71.7241379,17.9310345" id="Fill-614" fill="#35495E"></path>
                </g>
                <g id="Group-Copy-6" transform="translate(46.000000, 28.000000)" fill="#FFFFFF" sketch:type="MSShapeGroup">
                    <path d="M1.48445902,0.121846154 C1.97104918,0.121846154 2.33704918,0.253333333 2.5822623,0.516205128 C2.78508197,0.727794872 2.88659016,1.00174359 2.88659016,1.33753846 C2.88659016,1.67333333 2.78508197,1.94728205 2.5822623,2.15887179 C2.33704918,2.42174359 1.97104918,2.55323077 1.48445902,2.55323077 L0.528688525,2.55323077 L0.528688525,3.72471795 C0.528688525,3.79425641 0.505278689,3.85282051 0.457672131,3.9 C0.410655738,3.94758974 0.353803279,3.97097436 0.287508197,3.97097436 C0.220819672,3.97097436 0.16504918,3.94758974 0.119311475,3.9 C0.0736721311,3.85282051 0.0512459016,3.79425641 0.0512459016,3.72471795 L0.0512459016,0.373846154 C0.0512459016,0.304717949 0.0736721311,0.245025641 0.119311475,0.195897436 C0.16504918,0.146461538 0.220819672,0.121846154 0.287508197,0.121846154 L1.48445902,0.121846154 L1.48445902,0.121846154 Z M1.43734426,2.08215385 C1.79783607,2.08215385 2.05878689,2.00205128 2.21990164,1.84112821 C2.34609836,1.71712821 2.40865574,1.54912821 2.40865574,1.33753846 C2.40865574,0.997846154 2.24606557,0.771589744 1.92068852,0.658666667 C1.79459016,0.614769231 1.63337705,0.592923077 1.43734426,0.592923077 L0.528688525,0.592923077 L0.528688525,2.08215385 L1.43734426,2.08215385 L1.43734426,2.08215385 Z" id="Fill-1"></path>
                    <path d="M5.7697377,0.220410256 C5.82186885,0.136615385 5.88777049,0.0946666667 5.96645902,0.0946666667 C6.04504918,0.0946666667 6.10554098,0.118358974 6.14754098,0.165641026 C6.18963934,0.213230769 6.21068852,0.268 6.21068852,0.329948718 C6.21068852,0.391897436 6.19652459,0.446769231 6.16859016,0.494358974 L4.90819672,2.32841026 L4.90819672,3.72471795 C4.90819672,3.79425641 4.88577049,3.85282051 4.84003279,3.9 C4.79439344,3.94758974 4.73862295,3.97097436 4.67193443,3.97097436 C4.6052459,3.97097436 4.54878689,3.94758974 4.50137705,3.9 C4.45386885,3.85282051 4.43065574,3.79425641 4.43065574,3.72471795 L4.43065574,2.32841026 L3.17567213,0.494358974 C3.14744262,0.446769231 3.13367213,0.391897436 3.13367213,0.329948718 C3.13367213,0.268 3.15462295,0.213230769 3.19632787,0.165641026 C3.23842623,0.118358974 3.29881967,0.0946666667 3.37790164,0.0946666667 C3.45609836,0.0946666667 3.52209836,0.136615385 3.57462295,0.220410256 L4.67193443,1.88492308 L5.7697377,0.220410256" id="Fill-2"></path>
                    <path d="M9.44488525,1.11323077 C9.44488525,1.50717949 9.27383607,1.78830769 8.93036066,1.95630769 C9.26301639,2.07312821 9.48393443,2.26461538 9.59193443,2.53128205 C9.63029508,2.63333333 9.64986885,2.75569231 9.64986885,2.89815385 C9.64986885,3.04020513 9.62527869,3.17733333 9.57668852,3.30882051 C9.52740984,3.44030769 9.44852459,3.55323077 9.33983607,3.648 C9.11586885,3.84512821 8.76954098,3.94379487 8.30036066,3.94379487 L7.02983607,3.94379487 C6.96314754,3.94379487 6.90737705,3.92010256 6.8617377,3.87282051 C6.81609836,3.82523077 6.79357377,3.76666667 6.79357377,3.69753846 L6.79357377,0.373846154 C6.79357377,0.304717949 6.81609836,0.245025641 6.8617377,0.195897436 C6.90737705,0.146461538 6.96314754,0.121846154 7.02983607,0.121846154 L8.26878689,0.121846154 C8.6542623,0.121846154 8.94629508,0.213230769 9.14557377,0.395692308 C9.34563934,0.578153846 9.44488525,0.817333333 9.44488525,1.11323077 L9.44488525,1.11323077 Z M8.98839344,1.15128205 C8.98839344,0.979794872 8.92239344,0.842974359 8.79127869,0.740615385 C8.66016393,0.638666667 8.47386885,0.587282051 8.23219672,0.587282051 L7.27111475,0.587282051 L7.27111475,1.77548718 L8.14278689,1.77548718 C8.59416393,1.77548718 8.86367213,1.64964103 8.95140984,1.39764103 C8.976,1.32092308 8.98839344,1.23897436 8.98839344,1.15128205 L8.98839344,1.15128205 Z M8.25285246,3.47835897 C8.74996721,3.47835897 9.04632787,3.35446154 9.14055738,3.10594872 C9.17242623,3.02964103 9.18757377,2.94389744 9.18757377,2.84861538 C9.18757377,2.62953846 9.10927869,2.47087179 8.95140984,2.37220513 C8.79413115,2.27364103 8.56308197,2.22461538 8.25836066,2.22461538 L7.27111475,2.22461538 L7.27111475,3.47835897 L8.25285246,3.47835897 L8.25285246,3.47835897 Z" id="Fill-3"></path>
                    <path d="M12.0026557,0.0670769231 C12.555541,0.0670769231 12.9997377,0.251384615 13.3359344,0.620205128 C13.6619016,0.981641026 13.8315738,1.45230769 13.8453443,2.03302564 C13.8315738,2.61323077 13.6619016,3.08389744 13.3359344,3.44553846 C12.9997377,3.81435897 12.555541,3.9985641 12.0026557,3.9985641 C11.4454426,3.9985641 11.0012459,3.81435897 10.6686885,3.44553846 C10.3361311,3.08051282 10.1657705,2.60953846 10.1592787,2.03302564 C10.1657705,1.45610256 10.3361311,0.985333333 10.6686885,0.620205128 C11.0012459,0.251384615 11.4454426,0.0670769231 12.0026557,0.0670769231 L12.0026557,0.0670769231 Z M12.0026557,3.53312821 C12.4294426,3.53312821 12.7656393,3.38882051 13.0105574,3.10061538 C13.2481967,2.82328205 13.3678033,2.46748718 13.3678033,2.03302564 C13.3678033,1.5985641 13.2481967,1.24266667 13.0105574,0.965025641 C12.7656393,0.676820513 12.4294426,0.532410256 12.0026557,0.532410256 C11.5751803,0.532410256 11.2389836,0.676820513 10.9940656,0.965025641 C10.7557377,1.24266667 10.6368197,1.5985641 10.6368197,2.03302564 C10.6368197,2.46748718 10.7557377,2.82328205 10.9940656,3.10061538 C11.2389836,3.38882051 11.5751803,3.53312821 12.0026557,3.53312821 L12.0026557,3.53312821 Z" id="Fill-4"></path>
                    <path d="M15.6937377,3.52748718 C16.3067213,3.52748718 16.6132131,3.31794872 16.6132131,2.89815385 C16.6132131,2.72287179 16.4958689,2.58235897 16.261082,2.47651282 C16.1596721,2.43271795 16.041541,2.3934359 15.9067869,2.35866667 C15.7720328,2.32389744 15.6350164,2.28646154 15.4974098,2.24635897 C15.358918,2.20646154 15.2220984,2.16061538 15.0872459,2.10974359 C14.9524918,2.05825641 14.8328852,1.99261538 14.7278361,1.91251282 C14.4966885,1.72994872 14.3815082,1.48902564 14.3815082,1.18984615 C14.3815082,0.868410256 14.4966885,0.60574359 14.7278361,0.401025641 C14.9800328,0.178461538 15.3176066,0.0670769231 15.741541,0.0670769231 C16.1226885,0.0670769231 16.4711803,0.127487179 16.7864262,0.248 C16.8841967,0.284307692 16.9334754,0.357128205 16.9334754,0.466769231 C16.9334754,0.521538462 16.9146885,0.57374359 16.8784918,0.622769231 C16.8415082,0.672307692 16.8009836,0.696820513 16.7574098,0.696820513 C16.7132459,0.696820513 16.6531475,0.682461538 16.5762295,0.653025641 C16.3488197,0.569128205 16.0878689,0.527282051 15.7936721,0.527282051 C15.5241639,0.527282051 15.3016721,0.580102564 15.127082,0.685948718 C14.9481639,0.795487179 14.8589508,0.950769231 14.8589508,1.15128205 C14.8589508,1.35938462 14.9742295,1.51620513 15.205377,1.62235897 C15.3104262,1.67333333 15.4292459,1.71538462 15.562623,1.74820513 C15.6959016,1.78102564 15.8321311,1.81579487 15.972,1.85210256 C16.112459,1.88871795 16.2486885,1.93138462 16.3820656,1.98082051 C16.5146557,2.03005128 16.6342623,2.09497436 16.738623,2.17507692 C16.9696721,2.35035897 17.0856393,2.60235897 17.0856393,2.93097436 C17.0856393,3.24502564 16.9647541,3.50030769 16.723377,3.69753846 C16.4748197,3.89815385 16.1472787,3.9985641 15.741541,3.9985641 C15.2966557,3.9985641 14.88,3.91097436 14.4916721,3.73569231 C14.4532131,3.71753846 14.4184918,3.68851282 14.3886885,3.648 C14.3589836,3.608 14.3445246,3.55969231 14.3445246,3.50297436 C14.3445246,3.44676923 14.3633115,3.39528205 14.4025574,3.34953846 C14.440918,3.30430769 14.4851803,3.28123077 14.5358361,3.28123077 C14.5865902,3.28123077 14.649541,3.2985641 14.7248852,3.33333333 C14.8003279,3.36810256 14.9235738,3.40923077 15.0952131,3.45651282 C15.2669508,3.50410256 15.4662295,3.52748718 15.6937377,3.52748718" id="Fill-5"></path>
                    <path d="M18.8760984,3.52748718 C19.4884918,3.52748718 19.7948852,3.31794872 19.7948852,2.89815385 C19.7948852,2.72287179 19.677541,2.58235897 19.4427541,2.47651282 C19.3413443,2.43271795 19.2231148,2.3934359 19.088459,2.35866667 C18.9536066,2.32389744 18.817377,2.28646154 18.679082,2.24635897 C18.5405902,2.20646154 18.4043607,2.16061538 18.2696066,2.10974359 C18.1348525,2.05825641 18.0145574,1.99261538 17.9095082,1.91251282 C17.6791475,1.72994872 17.5631803,1.48902564 17.5631803,1.18984615 C17.5631803,0.868410256 17.6791475,0.60574359 17.9095082,0.401025641 C18.1617049,0.178461538 18.4992787,0.0670769231 18.9233115,0.0670769231 C19.3051475,0.0670769231 19.6529508,0.127487179 19.9680984,0.248 C20.0659672,0.284307692 20.1151475,0.357128205 20.1151475,0.466769231 C20.1151475,0.521538462 20.0970492,0.57374359 20.0600656,0.622769231 C20.023082,0.672307692 19.9833443,0.696820513 19.9391803,0.696820513 C19.8956066,0.696820513 19.8355082,0.682461538 19.758,0.653025641 C19.5304918,0.569128205 19.269541,0.527282051 18.9761311,0.527282051 C18.7058361,0.527282051 18.4841311,0.580102564 18.3088525,0.685948718 C18.1305246,0.795487179 18.0414098,0.950769231 18.0414098,1.15128205 C18.0414098,1.35938462 18.1565902,1.51620513 18.3877377,1.62235897 C18.4928852,1.67333333 18.6117049,1.71538462 18.7449836,1.74820513 C18.8775738,1.78102564 19.0145902,1.81579487 19.1543607,1.85210256 C19.2942295,1.88871795 19.4312459,1.93138462 19.5637377,1.98082051 C19.6971148,2.03005128 19.8159344,2.09497436 19.9209836,2.17507692 C20.1521311,2.35035897 20.2674098,2.60235897 20.2674098,2.93097436 C20.2674098,3.24502564 20.1470164,3.50030769 19.9050492,3.69753846 C19.6565902,3.89815385 19.3290492,3.9985641 18.9233115,3.9985641 C18.4783279,3.9985641 18.062459,3.91097436 17.6733443,3.73569231 C17.6348852,3.71753846 17.6008525,3.68851282 17.5712459,3.648 C17.5414426,3.608 17.5262951,3.55969231 17.5262951,3.50297436 C17.5262951,3.44676923 17.5458689,3.39528205 17.5842295,3.34953846 C17.6225902,3.30430769 17.667541,3.28123077 17.7182951,3.28123077 C17.7689508,3.28123077 17.832,3.2985641 17.9074426,3.33333333 C17.9826885,3.36810256 18.1058361,3.40923077 18.2775738,3.45651282 C18.4485246,3.50410256 18.6485902,3.52748718 18.8760984,3.52748718" id="Fill-6"></path>
                    <path d="M23.9432459,3.61517949 C23.9613443,3.65897436 23.97,3.70584615 23.97,3.75487179 C23.97,3.80410256 23.9489508,3.85282051 23.9070492,3.9 C23.8649508,3.94758974 23.7982623,3.97097436 23.7069836,3.97097436 C23.6164918,3.97097436 23.5498033,3.92010256 23.5077049,3.81805128 L23.1663934,2.96389744 L21.3810492,2.96389744 L21.0397377,3.81805128 C20.9977377,3.92010256 20.9310492,3.97097436 20.8405574,3.97097436 C20.7491803,3.97097436 20.6825902,3.94758974 20.6405902,3.9 C20.5984918,3.85282051 20.5774426,3.80410256 20.5774426,3.75487179 C20.5774426,3.70584615 20.5861967,3.65897436 20.6036066,3.61517949 L21.9425902,0.318974359 C22.0057377,0.169435897 22.1071475,0.0946666667 22.2477049,0.0946666667 L22.2998361,0.0946666667 C22.4397049,0.0946666667 22.5419016,0.169435897 22.6048525,0.318974359 L23.9432459,3.61517949 L23.9432459,3.61517949 Z M22.9823607,2.5094359 L22.2736721,0.729641026 L21.565082,2.5094359 L22.9823607,2.5094359 L22.9823607,2.5094359 Z" id="Fill-7"></path>
                </g>
            </g>
        </g>
    </g>
</svg>