<?xml version="1.0" encoding="UTF-8" standalone="no"?>
<svg width="113px" height="113px" viewBox="0 0 113 113" version="1.1" xmlns="http://www.w3.org/2000/svg" xmlns:xlink="http://www.w3.org/1999/xlink" xmlns:sketch="http://www.bohemiancoding.com/sketch/ns">
    <!-- Generator: Sketch 3.3.3 (12072) - http://www.bohemiancoding.com/sketch -->
    <title>civic_hacker</title>
    <desc>Created with Sketch.</desc>
    <defs></defs>
    <g id="Page-1" stroke="none" stroke-width="1" fill="none" fill-rule="evenodd" sketch:type="MSPage">
        <g id="Home" sketch:type="MSArtboardGroup" transform="translate(-664.000000, -1768.000000)">
            <g id="civic_hacker" sketch:type="MSLayerGroup" transform="translate(664.000000, 1768.000000)">
                <circle id="Oval-27" fill="#F7F7F7" sketch:type="MSShapeGroup" cx="56.5" cy="56.5" r="56.5"></circle>
                <g transform="translate(18.379310, 16.000000)" sketch:type="MSShapeGroup">
                    <path d="M38.6206897,20.6896552 C22.6234483,20.6896552 9.65517241,24.3944828 9.65517241,28.9655172 L9.65517241,68.9655172 C9.65517241,72 12.137931,74.4827586 15.1724138,74.4827586 L62.0689655,74.4827586 C65.1034483,74.4827586 67.5862069,72 67.5862069,68.9655172 L67.5862069,28.9655172 C67.5862069,24.3944828 54.617931,20.6896552 38.6206897,20.6896552" id="Fill-437" fill="#FFDB2B"></path>
                    <path d="M59.0344828,66.3724138 C58.662069,66.3724138 58.3034483,66.2206897 58.0551724,65.9724138 C57.7917241,65.7089655 57.6551724,65.3641379 57.6551724,64.9931034 C57.6551724,64.6193103 57.7917241,64.262069 58.0551724,64.0137931 C58.5655172,63.5034483 59.4896552,63.5034483 60,64.0137931 C60.262069,64.2744828 60.4137931,64.6193103 60.4137931,64.9931034 C60.4137931,65.3517241 60.262069,65.7089655 60,65.9724138 C59.7503448,66.2206897 59.3931034,66.3724138 59.0344828,66.3724138" id="Fill-516" fill="#E57E25"></path>
                    <path d="M59.5862069,54.6882759 C59.2275862,54.6882759 58.8689655,54.537931 58.6068966,54.2744828 C58.3586207,54.0275862 58.2068966,53.6689655 58.2068966,53.2951724 C58.2068966,52.937931 58.3586207,52.5793103 58.6206897,52.3296552 C59.1034483,51.8193103 60.0413793,51.8055172 60.5655172,52.3296552 C60.8275862,52.5793103 60.9655172,52.937931 60.9655172,53.2951724 C60.9655172,53.6689655 60.8275862,54.0137931 60.5655172,54.2744828 C60.3034483,54.537931 59.9448276,54.6882759 59.5862069,54.6882759" id="Fill-517" fill="#E57E25"></path>
                    <path d="M59.3103448,60.5241379 C58.9517241,60.5241379 58.5917241,60.3848276 58.3310345,60.1241379 C58.0813793,59.8606897 57.9310345,59.5158621 57.9310345,59.1448276 C57.9310345,58.7710345 58.0689655,58.4262069 58.3310345,58.1793103 C58.8551724,57.6551724 59.7655172,57.6551724 60.2896552,58.1655172 C60.537931,58.4262069 60.6896552,58.7862069 60.6896552,59.1448276 C60.6896552,59.502069 60.537931,59.8606897 60.2896552,60.1241379 C60.0275862,60.3848276 59.6689655,60.5241379 59.3103448,60.5241379" id="Fill-518" fill="#E57E25"></path>
                    <path d="M54.7034483,63.6689655 C54.3434483,63.6689655 53.9862069,63.5172414 53.7241379,63.2537931 C53.4744828,62.9931034 53.3241379,62.6482759 53.3241379,62.2896552 C53.3241379,61.9296552 53.4744828,61.5710345 53.7241379,61.3103448 C54.2331034,60.8 55.1724138,60.8 55.6827586,61.3103448 C55.9310345,61.5710345 56.0827586,61.9158621 56.0827586,62.2896552 C56.0827586,62.6482759 55.9310345,63.0068966 55.6827586,63.2537931 C55.4344828,63.5172414 55.0758621,63.6689655 54.7034483,63.6689655" id="Fill-519" fill="#E57E25"></path>
                    <path d="M51.462069,70.3448276 C51.0896552,70.3448276 50.7448276,70.1917241 50.4827586,69.9448276 C50.2206897,69.6813793 50.0827586,69.3365517 50.0827586,68.9655172 C50.0827586,68.5917241 50.2206897,68.2468966 50.4827586,67.9862069 C50.9793103,67.4758621 51.9296552,67.4758621 52.44,67.9862069 C52.6896552,68.2468966 52.8413793,68.6068966 52.8413793,68.9655172 C52.8413793,69.3241379 52.6896552,69.6813793 52.4275862,69.9448276 C52.1793103,70.1917241 51.8193103,70.3448276 51.462069,70.3448276" id="Fill-520" fill="#E57E25"></path>
                    <path d="M64.137931,61.737931 C63.7641379,61.737931 63.4068966,61.5848276 63.1586207,61.3241379 C62.8965517,61.0744828 62.7586207,60.7158621 62.7586207,60.3586207 C62.7586207,59.9862069 62.8965517,59.6262069 63.1586207,59.3793103 C63.6689655,58.8689655 64.6068966,58.8689655 65.1172414,59.3793103 C65.3655172,59.6262069 65.5172414,59.9862069 65.5172414,60.3586207 C65.5172414,60.7158621 65.3655172,61.0744828 65.1034483,61.337931 C64.8537931,61.5848276 64.5103448,61.737931 64.137931,61.737931" id="Fill-521" fill="#E57E25"></path>
                    <path d="M20.0137931,68.2468966 C19.6551724,68.2468966 19.2965517,68.0965517 19.0344828,67.8468966 C18.7862069,67.5862069 18.6344828,67.2275862 18.6344828,66.8675862 C18.6344828,66.4965517 18.7862069,66.137931 19.0344828,65.8882759 C19.5586207,65.3641379 20.4827586,65.377931 20.9931034,65.8882759 C21.24,66.137931 21.3931034,66.4965517 21.3931034,66.8675862 C21.3931034,67.2275862 21.24,67.5862069 20.9931034,67.8344828 C20.7310345,68.0965517 20.3724138,68.2468966 20.0137931,68.2468966" id="Fill-522" fill="#E57E25"></path>
                    <path d="M19.4482759,56.5517241 C19.0896552,56.5517241 18.7310345,56.3986207 18.4813793,56.137931 C18.2206897,55.8882759 18.0689655,55.5310345 18.0689655,55.1724138 C18.0689655,54.8137931 18.2206897,54.4537931 18.4813793,54.1931034 C18.9931034,53.6827586 19.9034483,53.6827586 20.4275862,54.1931034 C20.6896552,54.4537931 20.84,54.8137931 20.84,55.1724138 C20.84,55.5310345 20.6896552,55.8882759 20.4275862,56.1517241 C20.1793103,56.3986207 19.8206897,56.5517241 19.4482759,56.5517241" id="Fill-523" fill="#E57E25"></path>
                    <path d="M19.737931,62.4 C19.3655172,62.4 19.0068966,62.2482759 18.7586207,61.9848276 C18.4965517,61.737931 18.3586207,61.3793103 18.3586207,61.0206897 C18.3586207,60.6482759 18.4965517,60.2896552 18.7586207,60.04 C19.2551724,59.5310345 20.1931034,59.5158621 20.7172414,60.04 C20.9655172,60.2896552 21.1172414,60.6482759 21.1172414,61.0206897 C21.1172414,61.3793103 20.9655172,61.737931 20.7034483,62 C20.4551724,62.2482759 20.0951724,62.4 19.737931,62.4" id="Fill-524" fill="#E57E25"></path>
                    <path d="M24.3434483,65.5310345 C23.9724138,65.5310345 23.6137931,65.377931 23.3655172,65.1310345 C23.1034483,64.8675862 22.9641379,64.5089655 22.9641379,64.1517241 C22.9641379,63.7931034 23.1034483,63.4482759 23.3517241,63.1848276 C23.8882759,62.662069 24.7986207,62.662069 25.3103448,63.1848276 C25.5724138,63.4344828 25.7227586,63.7931034 25.7227586,64.1517241 C25.7227586,64.5227586 25.5724138,64.8675862 25.3103448,65.1310345 C25.062069,65.377931 24.7034483,65.5310345 24.3434483,65.5310345" id="Fill-525" fill="#E57E25"></path>
                    <path d="M27.5862069,72.2055172 C27.2124138,72.2055172 26.8551724,72.0689655 26.6068966,71.8055172 C26.3448276,71.5448276 26.2068966,71.2 26.2068966,70.84 C26.2068966,70.4689655 26.3572414,70.1103448 26.6068966,69.8606897 C27.102069,69.3503448 28.0551724,69.3365517 28.5655172,69.8606897 C28.8137931,70.1241379 28.9655172,70.4689655 28.9655172,70.84 C28.9655172,71.2 28.8137931,71.5448276 28.5655172,71.8055172 C28.3034483,72.0689655 27.9448276,72.2055172 27.5862069,72.2055172" id="Fill-526" fill="#E57E25"></path>
                    <path d="M14.9103448,63.5986207 C14.5517241,63.5986207 14.1931034,63.462069 13.9310345,63.1986207 C13.6827586,62.937931 13.5310345,62.5793103 13.5310345,62.2193103 C13.5310345,61.8606897 13.6827586,61.5034483 13.9310345,61.24 C14.4537931,60.7296552 15.377931,60.7296552 15.8896552,61.2551724 C16.137931,61.5034483 16.2896552,61.8482759 16.2896552,62.2193103 C16.2896552,62.5931034 16.137931,62.9503448 15.8896552,63.1986207 C15.6275862,63.462069 15.2675862,63.5986207 14.9103448,63.5986207" id="Fill-527" fill="#E57E25"></path>
                    <path d="M50.9186207,56.5903448 C51.7531034,60.0758621 48.0165517,67.1517241 41.6813793,68.6675862 C35.3448276,70.1862069 28.8082759,65.5696552 27.9737931,62.0841379 C27.1393103,58.5972414 33.3737931,61.9517241 39.7089655,60.4344828 C46.0455172,58.9172414 50.0841379,53.1034483 50.9186207,56.5903448" id="Fill-528" fill="#802D40"></path>
                    <path d="M59.3103448,41.3793103 C59.3103448,45.9503448 55.6055172,49.6551724 51.0344828,49.6551724 C46.4634483,49.6551724 42.7586207,45.9503448 42.7586207,41.3793103 C42.7586207,36.8082759 46.4634483,33.1034483 51.0344828,33.1034483 C55.6055172,33.1034483 59.3103448,36.8082759 59.3103448,41.3793103" id="Fill-581" fill="#FFFFFF"></path>
                    <path d="M54.7517241,80 L22.4896552,80 C21.4951724,80 20.6896552,79.1944828 20.6896552,78.2 L20.6896552,74.4827586 L56.5517241,74.4827586 L56.5517241,78.2 C56.5517241,79.1944828 55.7462069,80 54.7517241,80" id="Fill-582" fill="#FEC722"></path>
                    <path d="M67.5862069,34.4827586 C67.5862069,29.9117241 54.617931,26.2068966 38.6206897,26.2068966 C22.6234483,26.2068966 9.65517241,29.9117241 9.65517241,34.4827586 L9.65517241,24.8275862 L37.2413793,15.1724138 L67.5862069,24.8275862 L67.5862069,34.4827586" id="Fill-606" fill="#556080"></path>
                    <path d="M53.7931034,41.3793103 C53.7931034,42.902069 52.5586207,44.137931 51.0344828,44.137931 C49.5103448,44.137931 48.2758621,42.902069 48.2758621,41.3793103 C48.2758621,39.8551724 49.5103448,38.6206897 51.0344828,38.6206897 C52.5586207,38.6206897 53.7931034,39.8551724 53.7931034,41.3793103" id="Fill-611" fill="#556080"></path>
                    <path d="M49.0786207,63.2234483 C47.7848276,62.0441379 44.4675862,61.702069 40.7986207,62.5075862 C36.3751724,63.4786207 33.1117241,65.7462069 33.4482759,67.5972414 C35.862069,68.7696552 38.7889655,69.36 41.6813793,68.6689655 C44.9117241,67.8937931 47.4606897,65.6744828 49.0786207,63.2234483" id="Fill-612" fill="#E64C3C"></path>
                    <path d="M45.2731034,24.0124138 L35.7641379,33.52 C35.7393103,33.48 35.72,33.4372414 35.6937931,33.3972414 C34.4662069,31.4717241 32.9406897,30.4965517 31.16,30.4965517 C29.0427586,30.4965517 26.9751724,31.8386207 24.5793103,33.3931034 L22.5489655,34.6868966 C19.7751724,36.4262069 17.3793103,37.9282759 16.8289655,40.3668966 C16.52,41.7462069 16.8593103,43.1834483 17.8689655,44.7655172 C18.1682759,45.2358621 18.5117241,45.6662069 18.8717241,46.0758621 L9.65517241,54.257931 L9.65517241,57.9475862 L20.9737931,47.9006897 C22.6717241,49.0206897 24.6758621,49.6551724 26.7903448,49.6551724 C28.8013793,49.6551724 30.7641379,49.0813793 32.4662069,47.9958621 C36.4813793,45.4344828 38.1793103,40.5944828 36.9572414,36.2275862 L47.2234483,25.9627586 L45.2731034,24.0124138" id="Fill-613" fill="#556080"></path>
                    <path d="M71.7241379,17.9310345 L67.9696552,17.9310345 C64.7834483,17.9310345 62.0551724,15.4041379 62.0689655,12.2165517 C62.0993103,5.47448276 56.6427586,0 49.9075862,0 L46.4262069,0 C45.0234483,0 43.742069,0.791724138 43.1144828,2.04689655 C42.9062069,2.46344828 42.7710345,2.92 42.7393103,3.38482759 C42.5834483,5.75310345 41.4289655,5.51724138 38.6206897,5.51724138 C35.8124138,5.51724138 34.6593103,5.75310345 34.502069,3.38482759 C34.4703448,2.92 34.3351724,2.46344828 34.1268966,2.04689655 C33.4993103,0.791724138 32.217931,0 30.8151724,0 L27.3337931,0 C20.5986207,0 15.142069,5.47448276 15.1724138,12.2165517 C15.1862069,15.4041379 12.457931,17.9310345 9.27172414,17.9310345 L5.75448276,17.9310345 C2.87310345,17.9310345 0.299310345,20.0372414 0.0262068966,22.9062069 C-0.288275862,26.1958621 2.29103448,28.9655172 5.51724138,28.9655172 L9.65517241,28.9655172 C9.65517241,24.3944828 22.6234483,20.6896552 38.6206897,20.6896552 C54.617931,20.6896552 67.5862069,24.3944828 67.5862069,28.9655172 L71.4868966,28.9655172 C74.3682759,28.9655172 76.942069,26.857931 77.2151724,23.9903448 C77.5296552,20.6993103 74.9503448,17.9310345 71.7241379,17.9310345" id="Fill-614" fill="#35495E"></path>
                    <path d="M42.3544828,10.6303448 L40.4041379,8.68 L38.6206897,10.4634483 L36.8372414,8.68 L34.8868966,10.6303448 L36.6703448,12.4137931 L34.8868966,14.1972414 L36.8372414,16.1475862 L38.6206897,14.3641379 L40.4041379,16.1475862 L42.3544828,14.1972414 L40.5710345,12.4137931 L42.3544828,10.6303448" id="Fill-615" fill="#FFFFFF"></path>
                </g>
            </g>
        </g>
    </g>
</svg>