<?xml version="1.0" encoding="UTF-8" standalone="no"?>
<svg width="120px" height="100px" viewBox="0 0 120 100" version="1.1" xmlns="http://www.w3.org/2000/svg" xmlns:xlink="http://www.w3.org/1999/xlink" xmlns:sketch="http://www.bohemiancoding.com/sketch/ns">
    <!-- Generator: Sketch 3.4.4 (17249) - http://www.bohemiancoding.com/sketch -->
    <title>customisable</title>
    <desc>Created with Sketch.</desc>
    <defs></defs>
    <g id="Style-Inventory" stroke="none" stroke-width="1" fill="none" fill-rule="evenodd" sketch:type="MSPage">
        <g id="Features" sketch:type="MSArtboardGroup" transform="translate(-661.000000, -404.000000)">
            <g id="customisable" sketch:type="MSLayerGroup" transform="translate(661.000000, 404.000000)">
                <rect id="Bound" fill-opacity="0.01" fill="#FFFFFF" sketch:type="MSShapeGroup" x="0" y="0" width="120" height="100"></rect>
                <g id="Icon" transform="translate(30.485294, 17.882353)" sketch:type="MSShapeGroup">
                    <path d="M27.9851203,12.9236653 L27.9851203,19.2444146 C27.9851203,20.8071012 26.9383034,22.2480899 25.4057721,22.551796 C23.3466014,22.9599684 21.5232876,21.3757424 21.5232876,19.385498 L21.5232876,29.078247 C21.5232876,31.0684914 19.6999738,32.6527174 17.6418801,32.244545 C16.1082719,31.9408388 15.061455,30.4998502 15.061455,28.9371636 L15.061455,25.3088446 C15.061455,26.1833459 14.636051,26.9609198 13.9844829,27.454173 L13.9844829,61.5231088 C18.0640532,62.1197513 22.8576561,62.4643824 27.9851203,62.4643824 C34.1195534,62.4643824 39.7715031,61.9711292 44.2990938,61.1418606 L44.2990938,11.6011436 C39.7715031,12.4304121 34.1195534,12.9236653 27.9851203,12.9236653" id="Fill-300" fill="#C0D3DC"></path>
                    <path d="M11.6377606,27.9032704 C10.4541683,27.5855636 9.67659441,26.4407423 9.67659441,25.215148 L9.67659441,11.8079222 C9.67659441,11.6043745 9.7002878,11.4062116 9.73690485,11.2112797 C9.4105823,11.1391225 9.09179855,11.0648115 8.77947664,10.9894234 C8.75147537,10.9818846 8.72562804,10.9754228 8.69762676,10.9689609 C8.41546007,10.8989578 8.13975521,10.8278776 7.87158915,10.7557205 C7.82635632,10.7438738 7.78220047,10.7309501 7.73804461,10.7191034 C7.48926405,10.6501772 7.24586836,10.581251 7.01001147,10.5112478 C6.95508589,10.4950932 6.90231425,10.4778617 6.84846565,10.4617071 C6.62876334,10.3949348 6.41336892,10.3270856 6.20443633,10.2592363 C6.14089497,10.2376969 6.07843059,10.2161574 6.01488924,10.194618 C5.82211123,10.1299997 5.63364111,10.0632274 5.45055585,9.99645513 C5.38162963,9.97168477 5.31485736,9.94583744 5.24808509,9.91999011 C5.07684653,9.85644875 4.91099282,9.79075345 4.74944701,9.72505816 C4.68052079,9.69705688 4.61159458,9.66797863 4.54482231,9.63997736 C4.39296924,9.57535903 4.24542406,9.51074071 4.10326374,9.44504541 C4.0354145,9.41273624 3.96756525,9.38150405 3.90186996,9.35027186 C3.76832541,9.28673051 3.64016573,9.22211218 3.51523697,9.15641688 C3.44954167,9.12195377 3.38384637,9.08749067 3.32138199,9.05410453 C3.205069,8.99056318 3.09414087,8.92594485 2.98644366,8.86132652 C2.92505625,8.8236325 2.86259187,8.78701545 2.8033584,8.7503984 C2.7032,8.68685704 2.60950342,8.62223871 2.51796079,8.55762039 C2.46088127,8.51884939 2.40380175,8.47900142 2.35103012,8.43915346 C2.26487235,8.3756121 2.18625338,8.31099377 2.10871139,8.24637545 C2.06024765,8.20545051 2.00962996,8.16560254 1.96439713,8.12360063 C1.89331697,8.0589823 1.82869864,7.993287 1.76623426,7.92866868 C1.72530932,7.88558979 1.68115346,7.84358788 1.64345944,7.80158597 C1.58637992,7.73589067 1.53791617,7.6691184 1.48837546,7.6034231 C1.45606629,7.56034421 1.42052621,7.51726533 1.39144797,7.47310947 C1.34729211,7.40526023 1.312829,7.33633401 1.27621195,7.2674078 C1.25467251,7.22540589 1.22882518,7.18340398 1.20943968,7.14032509 C1.17713052,7.06493704 1.15559107,6.98847202 1.13405163,6.912007 C1.12328191,6.87646692 1.10712733,6.83984987 1.09958852,6.80323282 C1.07481817,6.69015075 1.06081753,6.5759917 1.06081753,6.46183266 L1.06081753,56.0025497 C1.06081753,58.3406562 6.23566852,60.3879802 13.9844829,61.5231088 L13.9844829,27.454173 C13.3566081,27.9291177 12.5176468,28.1391273 11.6377606,27.9032704" id="Fill-301" fill="#8AA6B4"></path>
                    <path d="M54.909423,56.0025497 L54.909423,6.46183266 C54.909423,8.55869736 50.7458489,10.4207821 44.2990938,11.6011436 L44.2990938,61.1418606 C50.7458489,59.9614992 54.909423,58.0994144 54.909423,56.0025497" id="Fill-302" fill="#8AA6B4"></path>
                    <path d="M16.100733,43.6173705 L16.100733,43.6173705 C14.6134346,42.131149 14.6134346,39.7198084 16.100733,38.2325099 L18.7931633,35.5400796 L21.4855936,38.2325099 C22.9728921,39.7198084 22.9728921,42.131149 21.4855936,43.6173705 C19.9982951,45.1046689 17.5869546,45.1046689 16.100733,43.6173705" id="Fill-318" fill="#3AB0D5"></path>
                    <path d="M23.6772318,62.3793016 C25.0816035,62.4331502 26.5172073,62.4643824 27.9851203,62.4643824 C30.2144526,62.4643824 32.3770125,62.3976101 34.4469529,62.2748353 L34.4469529,12.7341182 C32.3770125,12.8568931 30.2144526,12.9236653 27.9851203,12.9236653 L27.9851203,19.2444146 C27.9851203,20.8071012 26.9383034,22.2480899 25.4057721,22.551796 C24.791898,22.6734938 24.2071021,22.6013367 23.6772318,22.4117896 L23.6772318,62.3793016" id="Fill-373" fill="#EBEFF0"></path>
                    <path d="M54.909423,15.0776095 L54.909423,21.5965217 C54.909423,38.2195862 43.2932019,51.6946613 28.963011,51.6946613 L27.0083066,51.6946613 C12.6781157,51.6946613 1.06081753,38.2195862 1.06081753,21.5965217 L1.06081753,15.0776095" id="Stroke-374" stroke="#2F4149" stroke-width="2" stroke-linecap="round" stroke-linejoin="round"></path>
                    <path d="M27.9851203,0 C13.1153664,0 1.06081753,2.89382406 1.06081753,6.46183266 C1.06081753,8.34007202 4.40373896,10.0309182 9.73690485,11.2112797 C9.7002878,11.4062116 9.67659441,11.6043745 9.67659441,11.8079222 L9.67659441,25.215148 C9.67659441,26.4407423 10.4541683,27.5855636 11.6377606,27.9032704 C13.4298422,28.3836 15.061455,27.0276921 15.061455,25.3088446 L15.061455,28.9371636 C15.061455,30.4998502 16.1082719,31.9408388 17.6418801,32.244545 C19.6999738,32.6527174 21.5232876,31.0684914 21.5232876,29.078247 L21.5232876,19.385498 C21.5232876,21.3757424 23.3466014,22.9599684 25.4057721,22.551796 C26.9383034,22.2480899 27.9851203,20.8071012 27.9851203,19.2444146 L27.9851203,12.9236653 C42.8548742,12.9236653 54.909423,10.0309182 54.909423,6.46183266 C54.909423,2.89382406 42.8548742,0 27.9851203,0" id="Fill-375" fill="#3AB0D5"></path>
                    <path d="M9.67659441,11.8079222 C9.67659441,11.6043745 9.7002878,11.4062116 9.73690485,11.2112797 C4.40373896,10.0309182 1.06081753,8.34007202 1.06081753,6.46183266 L1.06081753,11.8466932 C1.06081753,13.7184707 4.38004557,15.4028551 9.67659441,16.5832166 L9.67659441,11.8079222" id="Fill-376" fill="#2F4149"></path>
                    <path d="M27.9851203,12.9236653 L27.9851203,18.3085259 C42.8548742,18.3085259 54.909423,15.4157788 54.909423,11.8466932 L54.909423,6.46183266 C54.909423,10.0309182 42.8548742,12.9236653 27.9851203,12.9236653" id="Fill-377" fill="#2F4149"></path>
                </g>
            </g>
        </g>
    </g>
</svg>