<?xml version="1.0" encoding="UTF-8" standalone="no"?>
<svg width="34px" height="38px" viewBox="0 0 34 38" version="1.1" xmlns="http://www.w3.org/2000/svg" xmlns:xlink="http://www.w3.org/1999/xlink" xmlns:sketch="http://www.bohemiancoding.com/sketch/ns">
    <!-- Generator: Sketch 3.3.3 (12072) - http://www.bohemiancoding.com/sketch -->
    <title>customisable</title>
    <desc>Created with Sketch.</desc>
    <defs></defs>
    <g id="Page-1" stroke="none" stroke-width="1" fill="none" fill-rule="evenodd" sketch:type="MSPage">
        <g id="Home" sketch:type="MSArtboardGroup" transform="translate(-341.000000, -1124.000000)">
            <g id="customisable" sketch:type="MSLayerGroup" transform="translate(341.402168, 1124.797534)">
                <path d="M16.5415529,7.63896999 L16.5415529,11.3750629 C16.5415529,12.2987417 15.9227964,13.1504868 15.0169418,13.3300026 C13.7997993,13.5712668 12.7220679,12.6348564 12.7220679,11.458455 L12.7220679,17.1876825 C12.7220679,18.3640839 11.6443366,19.3004943 10.4278306,19.0592301 C9.52133952,18.8797143 8.90258295,18.0279692 8.90258295,17.1042904 L8.90258295,14.9596496 C8.90258295,15.4765532 8.65113352,15.9361646 8.26600211,16.2277186 L8.26600211,36.3653167 C10.6773703,36.7179824 13.5107916,36.9216883 16.5415529,36.9216883 C20.1675174,36.9216883 23.5082936,36.6301343 26.1844794,36.139967 L26.1844794,6.85724873 C23.5082936,7.34741597 20.1675174,7.63896999 16.5415529,7.63896999" id="Fill-300" fill="#E6E7E8" sketch:type="MSShapeGroup"></path>
                <path d="M6.87889248,16.4931728 C6.17929014,16.3053815 5.71967878,15.628696 5.71967878,14.904267 L5.71967878,6.97947225 C5.71967878,6.85915847 5.73368356,6.7420276 5.75532731,6.62680647 C5.56244332,6.58415555 5.37401539,6.54023148 5.18940695,6.49567082 C5.17285585,6.49121475 5.15757791,6.48739527 5.14102681,6.48357578 C4.97424263,6.44219803 4.81127793,6.40018369 4.65276931,6.35753278 C4.62603291,6.35053039 4.5999331,6.34289142 4.57383328,6.33588903 C4.42678311,6.29514786 4.28291584,6.25440668 4.14350464,6.21302893 C4.11103902,6.20348022 4.07984656,6.19329492 4.04801752,6.18374621 C3.91815503,6.1442782 3.79083886,6.10417361 3.66734218,6.06406901 C3.62978391,6.0513374 3.59286222,6.03860578 3.55530395,6.02587416 C3.44135598,5.98767931 3.32995434,5.9482113 3.22173559,5.90874329 C3.18099442,5.89410193 3.14152641,5.87882399 3.1020584,5.86354605 C3.00084205,5.82598778 2.9028086,5.78715635 2.80732147,5.74832492 C2.7665803,5.73177382 2.72583913,5.71458614 2.68637111,5.69803503 C2.59661322,5.65984018 2.50940164,5.62164533 2.42537297,5.5828139 C2.38526838,5.56371648 2.34516379,5.54525563 2.30633236,5.52679479 C2.22739633,5.48923652 2.15164321,5.45104167 2.07779984,5.41221024 C2.03896841,5.39183965 2.00013698,5.37146907 1.96321529,5.35173506 C1.89446456,5.31417679 1.82889673,5.27598194 1.76523865,5.23778709 C1.72895354,5.21550676 1.69203185,5.19386302 1.65701991,5.17221927 C1.59781789,5.134661 1.54243536,5.09646615 1.48832599,5.0582713 C1.4545872,5.03535439 1.42084842,5.0118009 1.38965596,4.98824741 C1.33872949,4.95068914 1.29225909,4.91249429 1.24642527,4.87429944 C1.21777913,4.85010937 1.18785983,4.82655587 1.16112344,4.80172922 C1.1191091,4.76353437 1.08091425,4.72470294 1.04399257,4.68650809 C1.01980249,4.66104486 0.99370268,4.63621821 0.971422351,4.61139155 C0.937683567,4.57256012 0.909037429,4.53309211 0.879754711,4.49426068 C0.860657286,4.46879745 0.839650119,4.44333421 0.822462436,4.4172344 C0.796362622,4.37712981 0.775992035,4.33638863 0.754348287,4.29564746 C0.74161667,4.27082081 0.72633873,4.24599415 0.714880275,4.22053092 C0.69578285,4.17597026 0.683051234,4.13077302 0.670319617,4.08557579 C0.663953809,4.06456862 0.654405096,4.04292487 0.64994903,4.02128112 C0.635307671,3.95444013 0.62703212,3.88696257 0.62703212,3.819485 L0.62703212,33.1022033 C0.62703212,34.4842203 3.68580302,35.6943605 8.26600211,36.3653167 L8.26600211,16.2277186 C7.89487549,16.5084507 7.39897902,16.632584 6.87889248,16.4931728" id="Fill-301" fill="#CCCDCF" sketch:type="MSShapeGroup"></path>
                <path d="M32.4560738,33.1022033 L32.4560738,3.819485 C32.4560738,5.05890788 29.9950523,6.15955614 26.1844794,6.85724873 L26.1844794,36.139967 C29.9950523,35.4422744 32.4560738,34.3416262 32.4560738,33.1022033" id="Fill-302" fill="#CCCDCF" sketch:type="MSShapeGroup"></path>
                <path d="M9.51688345,25.7815237 L9.51688345,25.7815237 C8.63776532,24.9030422 8.63776532,23.4777377 9.51688345,22.5986196 L11.1083355,21.0071675 L12.6997876,22.5986196 C13.5789057,23.4777377 13.5789057,24.9030422 12.6997876,25.7815237 C11.8206695,26.6606419 10.395365,26.6606419 9.51688345,25.7815237" id="Fill-318" fill="#25C3AB" sketch:type="MSShapeGroup"></path>
                <path d="M13.9952296,36.8713984 C14.825331,36.9032275 15.6738933,36.9216883 16.5415529,36.9216883 C17.8592753,36.9216883 19.1375296,36.8822203 20.3610379,36.8096501 L20.3610379,7.52693177 C19.1375296,7.59950198 17.8592753,7.63896999 16.5415529,7.63896999 L16.5415529,11.3750629 C16.5415529,12.2987417 15.9227964,13.1504868 15.0169418,13.3300026 C14.6540908,13.4019363 14.3084274,13.3592854 13.9952296,13.2472471 L13.9952296,36.8713984" id="Fill-373" fill="#ECF0F1" sketch:type="MSShapeGroup"></path>
                <path d="M32.4560738,8.91213166 L32.4560738,12.7653554 C32.4560738,22.5909806 25.5899129,30.55588 17.1195683,30.55588 L15.9641741,30.55588 C7.49382956,30.55588 0.62703212,22.5909806 0.62703212,12.7653554 L0.62703212,8.91213166" id="Stroke-374" stroke="#687492" stroke-width="2" stroke-linecap="round" stroke-linejoin="round" sketch:type="MSShapeGroup"></path>
                <path d="M16.5415529,0 C7.75228138,0 0.62703212,1.7104927 0.62703212,3.819485 C0.62703212,4.92968197 2.60297903,5.92911388 5.75532731,6.62680647 C5.73368356,6.7420276 5.71967878,6.85915847 5.71967878,6.97947225 L5.71967878,14.904267 C5.71967878,15.628696 6.17929014,16.3053815 6.87889248,16.4931728 C7.93816299,16.7770878 8.90258295,15.9756326 8.90258295,14.9596496 L8.90258295,17.1042904 C8.90258295,18.0279692 9.52133952,18.8797143 10.4278306,19.0592301 C11.6443366,19.3004943 12.7220679,18.3640839 12.7220679,17.1876825 L12.7220679,11.458455 C12.7220679,12.6348564 13.7997993,13.5712668 15.0169418,13.3300026 C15.9227964,13.1504868 16.5415529,12.2987417 16.5415529,11.3750629 L16.5415529,7.63896999 C25.3308245,7.63896999 32.4560738,5.92911388 32.4560738,3.819485 C32.4560738,1.7104927 25.3308245,0 16.5415529,0" id="Fill-375" fill="#25C3AB" sketch:type="MSShapeGroup"></path>
                <path d="M5.71967878,6.97947225 C5.71967878,6.85915847 5.73368356,6.7420276 5.75532731,6.62680647 C2.60297903,5.92911388 0.62703212,4.92968197 0.62703212,3.819485 L0.62703212,7.00238916 C0.62703212,8.10876665 2.58897425,9.10437907 5.71967878,9.80207166 L5.71967878,6.97947225" id="Fill-376" fill="#8697CB" sketch:type="MSShapeGroup"></path>
                <path d="M16.5415529,7.63896999 L16.5415529,10.8218742 C25.3308245,10.8218742 32.4560738,9.11201804 32.4560738,7.00238916 L32.4560738,3.819485 C32.4560738,5.92911388 25.3308245,7.63896999 16.5415529,7.63896999" id="Fill-377" fill="#8697CB" sketch:type="MSShapeGroup"></path>
            </g>
        </g>
    </g>
</svg>