<?xml version="1.0" encoding="UTF-8" standalone="no"?>
<svg width="75px" height="75px" viewBox="0 0 75 75" version="1.1" xmlns="http://www.w3.org/2000/svg" xmlns:xlink="http://www.w3.org/1999/xlink" xmlns:sketch="http://www.bohemiancoding.com/sketch/ns">
    <!-- Generator: Sketch 3.3.3 (12072) - http://www.bohemiancoding.com/sketch -->
    <title>customisable</title>
    <desc>Created with Sketch.</desc>
    <defs></defs>
    <g id="Page-1" stroke="none" stroke-width="1" fill="none" fill-rule="evenodd" sketch:type="MSPage">
        <g id="Home" sketch:type="MSArtboardGroup" transform="translate(-213.000000, -1110.000000)">
            <g id="customisable" sketch:type="MSLayerGroup" transform="translate(213.000000, 1109.499023)">
                <circle id="Oval-51-Copy-5" fill="#FFFFFF" sketch:type="MSShapeGroup" cx="37.5" cy="38.0009766" r="37.5"></circle>
                <path d="M37.4182467,16.9674412 L37.4182467,21.3532673 C37.4182467,22.4375804 36.691884,23.4374501 35.6284949,23.648185 C34.1996826,23.9314067 32.9345261,22.8321478 32.9345261,21.4511619 L32.9345261,28.1767428 C32.9345261,29.5577288 31.6693696,30.6569876 30.2413046,30.3737659 C29.1771682,30.163031 28.4508055,29.1631613 28.4508055,28.0788482 L28.4508055,25.5612391 C28.4508055,26.168036 28.1556272,26.707577 27.7035187,27.0498343 L27.7035187,50.689504 C30.534241,51.1035009 33.8604144,51.3426327 37.4182467,51.3426327 C41.6747922,51.3426327 45.5965531,51.0003753 48.7381467,50.4249645 L48.7381467,16.0497731 C45.5965531,16.6251839 41.6747922,16.9674412 37.4182467,16.9674412" id="Fill-300" fill="#E6E7E8" sketch:type="MSShapeGroup"></path>
                <path d="M26.0751808,27.3614529 C25.2539127,27.1410033 24.7143716,26.3466375 24.7143716,25.4962252 L24.7143716,16.1932522 C24.7143716,16.052015 24.7308119,15.9145142 24.7562197,15.7792553 C24.5297918,15.7291871 24.3085949,15.6776243 24.0918818,15.6253142 C24.0724523,15.6200832 24.0545174,15.6155995 24.035088,15.6111158 C23.8392988,15.5625421 23.6479934,15.5132212 23.461919,15.463153 C23.430533,15.4549328 23.3998942,15.4459654 23.3692554,15.4377452 C23.1966322,15.3899189 23.0277454,15.3420925 22.8640896,15.2935189 C22.825978,15.2823096 22.7893609,15.270353 22.7519966,15.2591437 C22.5995501,15.2128119 22.4500927,15.1657328 22.3051191,15.1186538 C22.2610292,15.103708 22.2176865,15.0887623 22.1735966,15.0738166 C22.0398323,15.0289794 21.9090571,14.9826476 21.7820183,14.9363158 C21.734192,14.9191282 21.6878602,14.9011933 21.6415284,14.8832584 C21.5227098,14.8391685 21.4076277,14.793584 21.2955347,14.7479995 C21.2477083,14.7285701 21.199882,14.7083933 21.1535502,14.6889639 C21.0481827,14.6441267 20.9458044,14.5992895 20.8471626,14.553705 C20.8000835,14.5312864 20.7530045,14.5096151 20.70742,14.4879437 C20.6147564,14.4438538 20.5258293,14.3990166 20.439144,14.3534321 C20.3935595,14.3295189 20.347975,14.3056058 20.3046324,14.2824399 C20.2239254,14.23835 20.1469549,14.1935128 20.0722262,14.1486755 C20.0296309,14.1225205 19.9862882,14.0971128 19.9451875,14.071705 C19.8756898,14.0276151 19.8106758,13.9827779 19.7471565,13.9379407 C19.7075503,13.9110384 19.6679441,13.8833887 19.631327,13.8557391 C19.5715441,13.8116492 19.5169921,13.766812 19.4631875,13.7219748 C19.4295596,13.6935779 19.3944371,13.6659283 19.3630511,13.6367841 C19.3137301,13.5919469 19.2688929,13.5463624 19.2255503,13.5015252 C19.1971534,13.4716337 19.1665146,13.4424895 19.1403596,13.4133454 C19.1007534,13.3677609 19.0671255,13.3214291 19.0327503,13.2758446 C19.0103317,13.2459531 18.9856713,13.2160617 18.9654945,13.1854229 C18.9348557,13.1383438 18.9109426,13.0905175 18.8855348,13.0426911 C18.8705891,13.0135469 18.8526542,12.9844028 18.839203,12.9545113 C18.8167844,12.9022012 18.8018387,12.8491439 18.786893,12.7960865 C18.7794201,12.771426 18.7682108,12.7460183 18.7629798,12.7206105 C18.7457922,12.6421454 18.7360775,12.562933 18.7360775,12.4837206 L18.7360775,46.8589121 C18.7360775,48.4812716 22.3267904,49.9018638 27.7035187,50.689504 L27.7035187,27.0498343 C27.2678505,27.3793878 26.6857141,27.5251087 26.0751808,27.3614529" id="Fill-301" fill="#CCCDCF" sketch:type="MSShapeGroup"></path>
                <path d="M56.100416,46.8589121 L56.100416,12.4837206 C56.100416,13.938688 53.2114053,15.2307468 48.7381467,16.0497731 L48.7381467,50.4249645 C53.2114053,49.6059382 56.100416,48.3138794 56.100416,46.8589121" id="Fill-302" fill="#CCCDCF" sketch:type="MSShapeGroup"></path>
                <path d="M29.1719372,38.2651142 L29.1719372,38.2651142 C28.1399342,37.2338585 28.1399342,35.5606834 29.1719372,34.5286803 L31.0401541,32.6604634 L32.9083711,34.5286803 C33.9403741,35.5606834 33.9403741,37.2338585 32.9083711,38.2651142 C31.876368,39.2971172 30.203193,39.2971172 29.1719372,38.2651142" id="Fill-318" fill="#25C3AB" sketch:type="MSShapeGroup"></path>
                <path d="M34.4290996,51.283597 C35.4035616,51.3209614 36.3996949,51.3426327 37.4182467,51.3426327 C38.9651303,51.3426327 40.4656822,51.2963009 41.9019673,51.2111102 L41.9019673,16.8359188 C40.4656822,16.9211095 38.9651303,16.9674412 37.4182467,16.9674412 L37.4182467,21.3532673 C37.4182467,22.4375804 36.691884,23.4374501 35.6284949,23.648185 C35.2025415,23.7326284 34.7967647,23.6825602 34.4290996,23.5510377 L34.4290996,51.283597" id="Fill-373" fill="#ECF0F1" sketch:type="MSShapeGroup"></path>
                <path d="M56.100416,18.4620148 L56.100416,22.9853416 C56.100416,34.5197129 48.0401809,43.869765 38.0967831,43.869765 L36.7404576,43.869765 C26.7970599,43.869765 18.7360775,34.5197129 18.7360775,22.9853416 L18.7360775,18.4620148" id="Stroke-374" stroke="#687492" stroke-width="2" stroke-linecap="round" stroke-linejoin="round" sketch:type="MSShapeGroup"></path>
                <path d="M37.4182467,8 C27.1004583,8 18.7360775,10.0079596 18.7360775,12.4837206 C18.7360775,13.7869887 21.0556556,14.960229 24.7562197,15.7792553 C24.7308119,15.9145142 24.7143716,16.052015 24.7143716,16.1932522 L24.7143716,25.4962252 C24.7143716,26.3466375 25.2539127,27.1410033 26.0751808,27.3614529 C27.318666,27.6947428 28.4508055,26.7539088 28.4508055,25.5612391 L28.4508055,28.0788482 C28.4508055,29.1631613 29.1771682,30.163031 30.2413046,30.3737659 C31.6693696,30.6569876 32.9345261,29.5577288 32.9345261,28.1767428 L32.9345261,21.4511619 C32.9345261,22.8321478 34.1996826,23.9314067 35.6284949,23.648185 C36.691884,23.4374501 37.4182467,22.4375804 37.4182467,21.3532673 L37.4182467,16.9674412 C47.7360352,16.9674412 56.100416,14.960229 56.100416,12.4837206 C56.100416,10.0079596 47.7360352,8 37.4182467,8" id="Fill-375" fill="#25C3AB" sketch:type="MSShapeGroup"></path>
                <path d="M24.7143716,16.1932522 C24.7143716,16.052015 24.7308119,15.9145142 24.7562197,15.7792553 C21.0556556,14.960229 18.7360775,13.7869887 18.7360775,12.4837206 L18.7360775,16.2201545 C18.7360775,17.5189389 21.0392153,18.6876954 24.7143716,19.5067217 L24.7143716,16.1932522" id="Fill-376" fill="#8697CB" sketch:type="MSShapeGroup"></path>
                <path d="M37.4182467,16.9674412 L37.4182467,20.7038751 C47.7360352,20.7038751 56.100416,18.6966628 56.100416,16.2201545 L56.100416,12.4837206 C56.100416,14.960229 47.7360352,16.9674412 37.4182467,16.9674412" id="Fill-377" fill="#8697CB" sketch:type="MSShapeGroup"></path>
            </g>
        </g>
    </g>
</svg>