<?xml version="1.0" encoding="UTF-8" standalone="no"?>
<svg width="113px" height="113px" viewBox="0 0 113 113" version="1.1" xmlns="http://www.w3.org/2000/svg" xmlns:xlink="http://www.w3.org/1999/xlink" xmlns:sketch="http://www.bohemiancoding.com/sketch/ns">
    <!-- Generator: Sketch 3.3.3 (12072) - http://www.bohemiancoding.com/sketch -->
    <title>developer</title>
    <desc>Created with Sketch.</desc>
    <defs></defs>
    <g id="Page-1" stroke="none" stroke-width="1" fill="none" fill-rule="evenodd" sketch:type="MSPage">
        <g id="Home" sketch:type="MSArtboardGroup" transform="translate(-1065.000000, -1768.000000)">
            <g id="developer" sketch:type="MSLayerGroup" transform="translate(1065.000000, 1768.000000)">
                <g id="Oval-27-+-researcher-Copy" fill="#F7F7F7" sketch:type="MSShapeGroup">
                    <circle id="Oval-27" cx="56.5" cy="56.5" r="56.5"></circle>
                </g>
                <g transform="translate(20.000000, 15.000000)" sketch:type="MSShapeGroup">
                    <path d="M11.4515,73.0886552 L7.94930769,76.6118621 C6.83788462,77.7295 6.83788462,79.5411897 7.94930769,80.6588276 C9.06073077,81.7764655 10.8623462,81.7764655 11.9737692,80.6588276 L15.9626538,76.649069 C14.3616923,75.5772241 12.8546538,74.3851724 11.4515,73.0886552" id="Fill-386" fill="#616D7F"></path>
                    <path d="M63.2486538,72.4346724 C61.8825,73.7641034 60.4081923,74.9862069 58.8413846,76.0966897 L63.3767308,80.6588276 C64.4895769,81.7764655 66.2911923,81.7764655 67.4026154,80.6588276 C68.5140385,79.5411897 68.5140385,77.7295 67.4026154,76.6118621 L63.2486538,72.4346724" id="Fill-387" fill="#616D7F"></path>
                    <path d="M69.7307692,31.4827586 L4.26923077,31.4827586 L0.916461538,25.8630862 C0.512307692,25.1876379 0.997576923,24.3275862 1.78026923,24.3275862 L72.2197308,24.3275862 C73.0024231,24.3275862 73.4862692,25.1876379 73.0835385,25.8630862 L69.7307692,31.4827586" id="Fill-398" fill="#616D7F"></path>
                    <path d="M69.7307692,31.4827586 L4.26923077,31.4827586 L4.00453846,31.040569 C1.45011538,35.9017931 0,41.3969655 0,47.2241379 C0,66.982431 16.5660385,83 37,83 C57.4339615,83 74,66.982431 74,47.2241379 C74,41.3969655 72.5498846,35.9017931 69.9954615,31.040569 L69.7307692,31.4827586" id="Fill-399" fill="#464F5D"></path>
                    <path d="M59.7692308,4.29310345 C59.7692308,6.66432759 57.8580385,8.5862069 55.5,8.5862069 C53.1419615,8.5862069 51.2307692,6.66432759 51.2307692,4.29310345 C51.2307692,1.92187931 53.1419615,0 55.5,0 C57.8580385,0 59.7692308,1.92187931 59.7692308,4.29310345" id="Fill-400" fill="#1EB291"></path>
                    <path d="M15.6538462,4.29310345 C15.6538462,6.66432759 13.7426538,8.5862069 11.3846154,8.5862069 C9.02657692,8.5862069 7.11538462,6.66432759 7.11538462,4.29310345 C7.11538462,1.92187931 9.02657692,0 11.3846154,0 C13.7426538,0 15.6538462,1.92187931 15.6538462,4.29310345" id="Fill-401" fill="#70BFAD"></path>
                    <path d="M45.5384615,10.7327586 C45.5384615,12.7090172 43.9460385,14.3103448 41.9807692,14.3103448 C40.0155,14.3103448 38.4230769,12.7090172 38.4230769,10.7327586 C38.4230769,8.7565 40.0155,7.15517241 41.9807692,7.15517241 C43.9460385,7.15517241 45.5384615,8.7565 45.5384615,10.7327586" id="Fill-402" fill="#42CFB0"></path>
                    <path d="M29.8846154,6.43965517 C29.8846154,8.41591379 28.2921923,10.0172414 26.3269231,10.0172414 C24.3616538,10.0172414 22.7692308,8.41591379 22.7692308,6.43965517 C22.7692308,4.46339655 24.3616538,2.86206897 26.3269231,2.86206897 C28.2921923,2.86206897 29.8846154,4.46339655 29.8846154,6.43965517" id="Fill-403" fill="#56B9A3"></path>
                    <path d="M64.0384615,18.6034483 C61.7956923,18.6034483 59.8745385,19.918569 58.9466923,21.8146897 C58.1711154,20.7399828 56.9216538,20.0344828 55.5,20.0344828 C54.2092692,20.0344828 53.0651154,20.6226379 52.2824231,21.5342069 C51.4200385,19.0027069 49.0591538,17.1724138 46.25,17.1724138 C43.4408462,17.1724138 41.0799615,19.0027069 40.2175769,21.5342069 C39.4348846,20.6226379 38.2907308,20.0344828 37,20.0344828 C35.8885769,20.0344828 34.8838846,20.4723793 34.1239615,21.1721552 C33.9688462,17.3598793 30.8679615,14.3103448 27.0384615,14.3103448 C23.7710769,14.3103448 21.0473077,16.5370345 20.2119615,19.5550862 C19.3125769,18.9569138 18.2367308,18.6034483 17.0769231,18.6034483 C14.8341538,18.6034483 12.913,19.918569 11.9851538,21.8146897 C11.2095769,20.7399828 9.96011538,20.0344828 8.53846154,20.0344828 C6.18042308,20.0344828 4.26923077,21.9563621 4.26923077,24.3275862 L69.7307692,24.3275862 C69.7307692,21.166431 67.1820385,18.6034483 64.0384615,18.6034483" id="Fill-404" fill="#1EB291"></path>
                    <path d="M35.5769231,74.4137931 C21.4528846,74.4137931 9.96153846,62.8581897 9.96153846,48.6551724 C9.96153846,47.8638103 10.5976538,47.2241379 11.3846154,47.2241379 C12.1715769,47.2241379 12.8076923,47.8638103 12.8076923,48.6551724 C12.8076923,61.2797586 23.0225385,71.5517241 35.5769231,71.5517241 C36.3638846,71.5517241 37,72.1913966 37,72.9827586 C37,73.7741207 36.3638846,74.4137931 35.5769231,74.4137931" id="Fill-405" fill="#616D7F"></path>
                </g>
            </g>
        </g>
    </g>
</svg>