<?xml version="1.0" encoding="UTF-8" standalone="no"?>
<svg width="120px" height="100px" viewBox="0 0 120 100" version="1.1" xmlns="http://www.w3.org/2000/svg" xmlns:xlink="http://www.w3.org/1999/xlink" xmlns:sketch="http://www.bohemiancoding.com/sketch/ns">
    <!-- Generator: Sketch 3.4.4 (17249) - http://www.bohemiancoding.com/sketch -->
    <title>ecosystem</title>
    <desc>Created with Sketch.</desc>
    <defs></defs>
    <g id="Style-Inventory" stroke="none" stroke-width="1" fill="none" fill-rule="evenodd" sketch:type="MSPage">
        <g id="Features" sketch:type="MSArtboardGroup" transform="translate(-1061.000000, -1269.000000)">
            <g id="ecosystem" sketch:type="MSLayerGroup" transform="translate(1061.000000, 1269.000000)">
                <g id="g184" transform="translate(25.000000, 6.000000)" sketch:type="MSShapeGroup">
                    <g id="Page-1">
                        <g>
                            <g id="g184">
                                <path d="M36.6792453,38.0377358 L39.3962264,38.0377358 L39.3962264,62.490566 L36.6792453,62.490566 L36.6792453,38.0377358 L36.6792453,38.0377358 Z" id="Fill-913" fill="#2F4149"></path>
                                <path d="M41.1527547,27.5678491 L61.5301132,7.19049057 L63.4510189,9.11139623 L43.0736604,29.4887547 L41.1527547,27.5678491 Z" id="Fill-914" fill="#2F4149"></path>
                                <path d="M9.11139623,63.4510189 L7.19049057,61.5301132 L34.3603019,34.3603019 L36.2812075,36.2812075 L9.11139623,63.4510189" id="Fill-915" fill="#2F4149"></path>
                                <path d="M31.6433208,28.1302642 L16.6999245,13.1868679 L18.6208302,11.2659623 L33.5642264,26.2093585 L31.6433208,28.1302642" id="Fill-916" fill="#2F4149"></path>
                                <path d="M60.1716226,56.658566 L39.7942642,36.2812075 L41.7151698,34.3603019 L62.0925283,54.7376604 L60.1716226,56.658566" id="Fill-917" fill="#2F4149"></path>
                                <path d="M72,6.79245283 C72,10.5446038 68.9583396,13.5849057 65.2075472,13.5849057 C61.4567547,13.5849057 58.4150943,10.5446038 58.4150943,6.79245283 C58.4150943,3.04166038 61.4567547,0 65.2075472,0 C68.9583396,0 72,3.04166038 72,6.79245283" id="Fill-2605" fill="#3AB0D5"></path>
                                <path d="M44.8301887,65.2075472 C44.8301887,68.9583396 41.7885283,72 38.0377358,72 C34.2869434,72 31.245283,68.9583396 31.245283,65.2075472 C31.245283,61.4567547 34.2869434,58.4150943 38.0377358,58.4150943 C41.7885283,58.4150943 44.8301887,61.4567547 44.8301887,65.2075472" id="Fill-2606" fill="#0097A7"></path>
                                <path d="M13.5849057,62.490566 C13.5849057,66.242717 10.5432453,69.2830189 6.79245283,69.2830189 C3.04166038,69.2830189 0,66.242717 0,62.490566 C0,58.7397736 3.04166038,55.6981132 6.79245283,55.6981132 C10.5432453,55.6981132 13.5849057,58.7397736 13.5849057,62.490566" id="Fill-2607" fill="#76A6B4"></path>
                                <path d="M20.3773585,10.8679245 C20.3773585,13.1189434 18.5529057,14.9433962 16.3018868,14.9433962 C14.0508679,14.9433962 12.2264151,13.1189434 12.2264151,10.8679245 C12.2264151,8.61690566 14.0508679,6.79245283 16.3018868,6.79245283 C18.5529057,6.79245283 20.3773585,8.61690566 20.3773585,10.8679245" id="Fill-2608" fill="#F88B1C"></path>
                                <path d="M63.8490566,54.3396226 C63.8490566,56.5906415 62.0246038,58.4150943 59.7735849,58.4150943 C57.522566,58.4150943 55.6981132,56.5906415 55.6981132,54.3396226 C55.6981132,52.0886038 57.522566,50.2641509 59.7735849,50.2641509 C62.0246038,50.2641509 63.8490566,52.0886038 63.8490566,54.3396226" id="Fill-2609" fill="#FFDA71"></path>
                                <path d="M47.5471698,32.6037736 C47.5471698,37.8556981 43.2896604,42.1132075 38.0377358,42.1132075 C32.7858113,42.1132075 28.5283019,37.8556981 28.5283019,32.6037736 C28.5283019,27.3518491 32.7858113,23.0943396 38.0377358,23.0943396 C43.2896604,23.0943396 47.5471698,27.3518491 47.5471698,32.6037736" id="Fill-2610" fill="#077CA0"></path>
                            </g>
                        </g>
                    </g>
                </g>
                <rect id="Rectangle-273" fill-opacity="0.01" fill="#FFFFFF" sketch:type="MSShapeGroup" x="0" y="0" width="120" height="100"></rect>
            </g>
        </g>
    </g>
</svg>