<?xml version="1.0" encoding="UTF-8" standalone="no"?>
<svg width="120px" height="100px" viewBox="0 0 120 100" version="1.1" xmlns="http://www.w3.org/2000/svg" xmlns:xlink="http://www.w3.org/1999/xlink" xmlns:sketch="http://www.bohemiancoding.com/sketch/ns">
    <!-- Generator: Sketch 3.4.4 (17249) - http://www.bohemiancoding.com/sketch -->
    <title>export</title>
    <desc>Created with Sketch.</desc>
    <defs></defs>
    <g id="Style-Inventory" stroke="none" stroke-width="1" fill="none" fill-rule="evenodd" sketch:type="MSPage">
        <g id="Features" sketch:type="MSArtboardGroup" transform="translate(-660.000000, -1269.000000)">
            <g id="export" sketch:type="MSLayerGroup" transform="translate(660.000000, 1269.000000)">
                <g id="feature-10" transform="translate(31.000000, 10.000000)" sketch:type="MSShapeGroup">
                    <g transform="translate(0.385051, 0.000000)">
                        <path d="M3.48845393,16.3028417 L3.48845393,51.8197469 C3.48845393,60.4660754 10.5525732,67.5403442 19.1864966,67.5403442 L35.4659483,67.5403442 C26.8320248,67.5403442 19.7679056,60.4660754 19.7679056,51.8197469 L19.7679056,16.3028417 L3.48845393,16.3028417" id="Fill-2303" fill="#3AB0D5"></path>
                        <path d="M36.0473573,51.8197469 C36.0473573,57.7260335 32.7484427,62.8940344 27.9076315,65.5793453 C30.1541958,66.8253482 32.7298376,67.5403442 35.4659483,67.5403442 L36.6287663,67.5403442 C45.2626898,67.5403442 52.326809,60.4660754 52.326809,51.8197469 L52.326809,26.78324 L36.0473573,26.78324 L36.0473573,51.8197469 Z" id="Fill-2304" fill="#3AB0D5"></path>
                        <path d="M21.8656293,16.3028417 L1.39189312,16.3028417 C0.623270436,16.3028417 0,15.6786758 0,14.9089487 L0,7.21517195 C0,6.44660941 0.623270436,5.82244347 1.39189312,5.82244347 L21.8656293,5.82244347 C22.6330891,5.82244347 23.2563596,6.44660941 23.2563596,7.21517195 L23.2563596,14.9089487 C23.2563596,15.6786758 22.6330891,16.3028417 21.8656293,16.3028417" id="Fill-2305" fill="#2F4149"></path>
                        <path d="M17.4422697,10.4803982 L5.81408989,10.4803982 C5.17105155,10.4803982 4.65127191,9.9598718 4.65127191,9.31590955 C4.65127191,8.6719473 5.17105155,8.15142086 5.81408989,8.15142086 L17.4422697,8.15142086 C18.085308,8.15142086 18.6050877,8.6719473 18.6050877,9.31590955 C18.6050877,9.9598718 18.085308,10.4803982 17.4422697,10.4803982" id="Fill-2306" fill="#6F8894"></path>
                        <path d="M17.4422697,13.9738643 L5.81408989,13.9738643 C5.17105155,13.9738643 4.65127191,13.4533379 4.65127191,12.8093756 C4.65127191,12.1654134 5.17105155,11.6448869 5.81408989,11.6448869 L17.4422697,11.6448869 C18.085308,11.6448869 18.6050877,12.1654134 18.6050877,12.8093756 C18.6050877,13.4533379 18.085308,13.9738643 17.4422697,13.9738643" id="Fill-2307" fill="#6F8894"></path>
                        <path d="M54.4245327,26.78324 L33.9496337,26.78324 C33.1821738,26.78324 32.5589034,26.159074 32.5589034,25.389347 L32.5589034,17.6955702 C32.5589034,16.9270077 33.1821738,16.3028417 33.9496337,16.3028417 L54.4245327,16.3028417 C55.1919925,16.3028417 55.815263,16.9270077 55.815263,17.6955702 L55.815263,25.389347 C55.815263,26.159074 55.1919925,26.78324 54.4245327,26.78324" id="Fill-2308" fill="#2F4149"></path>
                        <path d="M50.0011731,20.9607965 L38.3729933,20.9607965 C37.7299549,20.9607965 37.2101753,20.44027 37.2101753,19.7963078 C37.2101753,19.1523455 37.7299549,18.6318191 38.3729933,18.6318191 L50.0011731,18.6318191 C50.6442114,18.6318191 51.163991,19.1523455 51.163991,19.7963078 C51.163991,20.44027 50.6442114,20.9607965 50.0011731,20.9607965" id="Fill-2309" fill="#6F8894"></path>
                        <path d="M50.0011731,24.4542626 L38.3729933,24.4542626 C37.7299549,24.4542626 37.2101753,23.9337361 37.2101753,23.2897739 C37.2101753,22.6458116 37.7299549,22.1252852 38.3729933,22.1252852 L50.0011731,22.1252852 C50.6442114,22.1252852 51.163991,22.6458116 51.163991,23.2897739 C51.163991,23.9337361 50.6442114,24.4542626 50.0011731,24.4542626" id="Fill-2310" fill="#6F8894"></path>
                        <path d="M46.5127191,40.7571043 C45.8696808,40.7571043 45.3499012,41.2776307 45.3499012,41.921593 L45.3499012,50.9894664 C45.3499012,54.6424675 44.0487078,58.1848421 41.6858617,60.9621476 C41.2695729,61.4523973 41.3288766,62.1871897 41.8172601,62.6052412 C42.0358699,62.7915593 42.3044809,62.8823895 42.5707662,62.8823895 C42.8998437,62.8823895 43.2265955,62.7438153 43.4568335,62.4724894 C46.1778276,59.273639 47.6755371,55.1944351 47.6755371,50.9894664 L47.6755371,41.921593 C47.6755371,41.2776307 47.1557575,40.7571043 46.5127191,40.7571043" id="Fill-2311" fill="#077CA0"></path>
                        <path d="M43.0242652,41.921593 C43.0242652,41.2776307 42.5044856,40.7571043 41.8614472,40.7571043 C41.2184089,40.7571043 40.6986292,41.2776307 40.6986292,41.921593 L40.6986292,50.9894664 C40.6986292,54.6447964 39.3974359,58.1860066 37.0345898,60.9621476 C36.6171381,61.4512329 36.675279,62.1860252 37.1648254,62.6029122 C37.3834352,62.7915593 37.6520461,62.8823895 37.9183315,62.8823895 C38.2474089,62.8823895 38.5741608,62.7438153 38.8032359,62.4724894 C41.5253928,59.2748035 43.0242652,55.1967641 43.0242652,50.9894664 L43.0242652,41.921593" id="Fill-2312" fill="#077CA0"></path>
                        <path d="M9.30254383,0 L9.30254383,2.32897739 C9.30254383,2.97293964 8.78276419,3.49346608 8.13972585,3.49346608 C7.49668751,3.49346608 6.97690787,2.97293964 6.97690787,2.32897739 L6.97690787,0 L3.48845393,0 L3.48845393,5.82244347 L19.7679056,5.82244347 L19.7679056,0 L9.30254383,0" id="Fill-2313" fill="#6F8894"></path>
                        <path d="M8.13972585,3.49346608 C8.78276419,3.49346608 9.30254383,2.97293964 9.30254383,2.32897739 L9.30254383,0 L6.97690787,0 L6.97690787,2.32897739 C6.97690787,2.97293964 7.49668751,3.49346608 8.13972585,3.49346608" id="Fill-2314" fill="#2F4149"></path>
                        <path d="M41.8614472,10.4803982 L41.8614472,12.8093756 C41.8614472,13.4533379 41.3416676,13.9738643 40.6986292,13.9738643 C40.0555909,13.9738643 39.5358113,13.4533379 39.5358113,12.8093756 L39.5358113,10.4803982 L36.0473573,10.4803982 L36.0473573,16.3028417 L52.326809,16.3028417 L52.326809,10.4803982 L41.8614472,10.4803982" id="Fill-2315" fill="#6F8894"></path>
                        <path d="M40.6986292,13.9738643 C41.3416676,13.9738643 41.8614472,13.4533379 41.8614472,12.8093756 L41.8614472,10.4803982 L39.5358113,10.4803982 L39.5358113,12.8093756 C39.5358113,13.4533379 40.0555909,13.9738643 40.6986292,13.9738643" id="Fill-2316" fill="#2F4149"></path>
                        <path d="M35.4659483,67.5403442 C33.3310145,67.5403442 31.2925946,67.1048255 29.4320858,66.3222891 C21.4505032,65.7784728 15.1166337,59.118762 15.1166337,50.9894664 L15.1166337,26.78324 C15.1166337,26.1392777 14.5968541,25.6187513 13.9538157,25.6187513 C13.3107774,25.6187513 12.7909978,26.1392777 12.7909978,26.78324 L12.7909978,50.9894664 C12.7909978,56.8154034 15.625948,61.9775817 19.9737244,65.2078734 C14.4003378,62.8963633 10.4653618,57.3964832 10.4653618,50.9894664 L10.4653618,26.78324 C10.4653618,26.1392777 9.94558217,25.6187513 9.30254383,25.6187513 C8.65950548,25.6187513 8.13972585,26.1392777 8.13972585,26.78324 L8.13972585,50.9894664 C8.13972585,58.551656 12.9037911,65.0029234 19.5760407,67.5403442 L35.4659483,67.5403442" id="Fill-2521" fill="#077CA0"></path>
                    </g>
                </g>
                <rect id="Rectangle-273" fill-opacity="0.01" fill="#FFFFFF" sketch:type="MSShapeGroup" x="0" y="0" width="120" height="100"></rect>
            </g>
        </g>
    </g>
</svg>