<?xml version="1.0" encoding="UTF-8" standalone="no"?>
<svg width="75px" height="76px" viewBox="0 0 75 76" version="1.1" xmlns="http://www.w3.org/2000/svg" xmlns:xlink="http://www.w3.org/1999/xlink" xmlns:sketch="http://www.bohemiancoding.com/sketch/ns">
    <!-- Generator: Sketch 3.3.3 (12072) - http://www.bohemiancoding.com/sketch -->
    <title>extensible</title>
    <desc>Created with Sketch.</desc>
    <defs></defs>
    <g id="Page-1" stroke="none" stroke-width="1" fill="none" fill-rule="evenodd" sketch:type="MSPage">
        <g id="Home" sketch:type="MSArtboardGroup" transform="translate(-720.000000, -963.000000)">
            <g id="extensible" sketch:type="MSLayerGroup" transform="translate(719.500000, 963.000000)">
                <circle id="Oval-51-Copy-4" fill="#FFFFFF" sketch:type="MSShapeGroup" cx="38" cy="37.8703704" r="37.5"></circle>
                <g id="Group" transform="translate(8.000000, 2.000000)" sketch:type="MSShapeGroup">
                    <path d="M32.3207458,12.7678644 L41.3569492,21.8040678 L47.6130847,15.5479322 L32.3207458,0.25559322 C28.865322,3.71101695 28.865322,9.31244068 32.3207458,12.7678644" id="Fill-961" fill="#D1D4D1"></path>
                    <path d="M22.5885424,40.5724746 L25.4364407,37.7245763 L17.380339,35.2423729 C17.2800678,35.2069831 17.1817627,35.2944746 17.1915932,35.399661 C17.7519322,41.2999322 10.2207797,35.2708814 8.72359322,34.1580678 C8.58105085,34.0518983 8.4080339,33.9988136 8.23108475,34.0027458 L3.56355932,34.1295593 C2.83413559,33.9821017 2.10667797,34.3930169 1.8579661,35.0939322 L1.06955932,37.3097288 C0.824779661,37.9988475 1.11379661,38.763661 1.75277966,39.1185424 L5.87274576,41.4051186 L20.6637288,46.4540678 C20.3560339,44.3690169 20.9920678,42.1689492 22.5885424,40.5724746" id="Fill-962" fill="#D1D4D1"></path>
                    <path d="M39.2709153,12.3608814 C39.0202373,12.3608814 38.7685763,12.2645424 38.5758983,12.0728475 L34.4057966,7.90176271 C34.0224068,7.51738983 34.0224068,6.89610169 34.4057966,6.51172881 C34.7901695,6.12735593 35.4124407,6.12735593 35.7958305,6.51172881 L39.9659322,10.6828136 C40.3503051,11.0662034 40.3503051,11.6884746 39.9659322,12.0728475 C39.7742373,12.2645424 39.5225763,12.3608814 39.2709153,12.3608814" id="Fill-963" fill="#FFFFFF"></path>
                    <path d="M30.9297288,32.2312881 L36.4584068,26.7026102 L33.9850508,21.4835932 L29.8483729,24.1378305 L27.5372203,19.0800339 L23.4005424,21.7352542 L21.0884068,16.6774576 L16.9517288,19.3316949 L14.6405763,14.2738983 L10.5038983,16.9291186 L8.27040678,12.0413898 C8.24189831,11.9784746 8.15145763,11.9824068 8.12688136,12.0472881 L5.78918644,18.3191525 C4.84152542,20.8632881 6.13522034,23.6934915 8.67837288,24.6411525 C8.67837288,24.6411525 30.7616271,32.3993898 30.9297288,32.2312881" id="Fill-964" fill="#D1D4D1"></path>
                    <path d="M13.9347458,42.3046102 C13.8138305,42.3046102 13.6909492,42.282 13.572,42.2338305 L9.2780339,40.5282373 C8.77274576,40.3276949 8.52698305,39.7565424 8.72654237,39.2522373 C8.9280678,38.7469492 9.50020339,38.5002034 10.0035254,38.7017288 L14.2974915,40.407322 C14.8027797,40.6078644 15.0485424,41.1790169 14.8489831,41.683322 C14.6946441,42.068678 14.3250169,42.3046102 13.9347458,42.3046102" id="Fill-965" fill="#FFFFFF"></path>
                    <path d="M23.9795593,57.9970508 C22.7192881,57.9970508 21.4609831,57.5183051 20.5025085,56.5598305 C18.5865424,54.6438644 18.5865424,51.5256271 20.5025085,49.609661 C20.7915254,49.3206441 21.1267458,49.0709492 21.556339,48.8271525 C22.0272203,48.5558305 22.6288475,48.7209831 22.8962373,49.1938305 C23.1655932,49.6647119 23.0014237,50.2653559 22.5295593,50.5337288 C22.2582373,50.6890508 22.0547458,50.8374915 21.8935254,50.9996949 C20.7433559,52.1498644 20.7433559,54.0196271 21.8935254,55.1697966 C23.0427119,56.3189831 24.9134576,56.3209492 26.0646102,55.1697966 C26.7655254,54.4688814 27.0633898,53.4681356 26.8638305,52.4909831 C26.7547119,51.9591525 27.0977966,51.4391186 27.6296271,51.3309831 C28.1663729,51.2218644 28.6814915,51.5649492 28.7896271,52.0957966 C29.1228814,53.7227458 28.6234915,55.3919661 27.4546441,56.5598305 C26.4961695,57.5183051 25.2378644,57.9970508 23.9795593,57.9970508" id="Fill-966" fill="#D1D4D1"></path>
                    <path d="M55.9542712,26.6701695 L32.3207458,50.3036949 C29.6438983,52.9805424 25.2653898,52.9805424 22.5885424,50.3036949 C19.912678,47.6278305 19.912678,43.248339 22.5885424,40.5724746 L46.2230508,16.9379661 C48.8989153,14.2621017 53.2784068,14.2621017 55.9542712,16.9379661 C58.6311186,19.6148136 58.6311186,23.993322 55.9542712,26.6701695" id="Fill-1995" fill="#D0021B"></path>
                    <path d="M50.0510508,24.0847458 L51.813661,22.3221356 C52.1980339,21.9377627 52.1980339,21.3164746 51.813661,20.9321017 C51.4302712,20.5477288 50.808,20.5477288 50.4236271,20.9321017 L48.6610169,22.6947119 L46.8984068,20.9321017 C46.5140339,20.5477288 45.8927458,20.5477288 45.5083729,20.9321017 C45.124,21.3164746 45.124,21.9377627 45.5083729,22.3221356 L47.2709831,24.0847458 L45.5083729,25.8473559 C45.124,26.2317288 45.124,26.8530169 45.5083729,27.2373898 C45.7000678,27.4290847 45.9517288,27.5254237 46.2033898,27.5254237 C46.4550508,27.5254237 46.7067119,27.4290847 46.8984068,27.2373898 L48.6610169,25.4747797 L50.4236271,27.2373898 C50.615322,27.4290847 50.8669831,27.5254237 51.1186441,27.5254237 C51.3703051,27.5254237 51.6219661,27.4290847 51.813661,27.2373898 C52.1980339,26.8530169 52.1980339,26.2317288 51.813661,25.8473559 L50.0510508,24.0847458" id="Fill-1996" fill="#E6E6E6"></path>
                    <path d="M27.4546441,49.3619322 C26.3988475,49.3619322 25.4118644,48.9559322 24.6755593,48.2186441 C24.2911864,47.8342712 24.2911864,47.212 24.6755593,46.8286102 C25.0589492,46.4452203 25.6812203,46.4452203 26.0655932,46.8286102 C26.7989492,47.5609831 28.1142712,47.5609831 28.845661,46.8286102 L40.7857966,34.8874915 C41.1701695,34.5031186 41.7924407,34.5031186 42.1758305,34.8874915 C42.5602034,35.2708814 42.5602034,35.8931525 42.1758305,36.2775254 L30.2356949,48.2186441 C29.4984068,48.9559322 28.5104407,49.3619322 27.4546441,49.3619322" id="Fill-1997" fill="#E14F61"></path>
                </g>
            </g>
        </g>
    </g>
</svg>