<?xml version="1.0" encoding="UTF-8" standalone="no"?>
<svg width="76px" height="76px" viewBox="0 0 76 76" version="1.1" xmlns="http://www.w3.org/2000/svg" xmlns:xlink="http://www.w3.org/1999/xlink" xmlns:sketch="http://www.bohemiancoding.com/sketch/ns">
    <!-- Generator: Sketch 3.3.3 (12072) - http://www.bohemiancoding.com/sketch -->
    <title>extensible</title>
    <desc>Created with Sketch.</desc>
    <defs></defs>
    <g id="Page-1" stroke="none" stroke-width="1" fill="none" fill-rule="evenodd" sketch:type="MSPage">
        <g id="Home" sketch:type="MSArtboardGroup" transform="translate(-217.000000, -1254.000000)">
            <g id="extensible" sketch:type="MSLayerGroup" transform="translate(217.000000, 1254.000000)">
                <circle id="Oval-51-Copy-4" fill="#FFFFFF" sketch:type="MSShapeGroup" cx="38" cy="37.8703704" r="37.5"></circle>
                <path d="M39.8627119,17.0067797 L47.6525424,24.7966102 L53.0457627,19.4033898 L39.8627119,6.22033898 C36.8838983,9.19915254 36.8838983,14.0279661 39.8627119,17.0067797" id="Fill-961" fill="#D1D4D1" sketch:type="MSShapeGroup"></path>
                <path d="M31.4728814,40.9762712 L33.9279661,38.5211864 L26.9830508,36.3813559 C26.8966102,36.3508475 26.8118644,36.4262712 26.820339,36.5169492 C27.3033898,41.6033898 20.8110169,36.4059322 19.520339,35.4466102 C19.3974576,35.3550847 19.2483051,35.309322 19.0957627,35.3127119 L15.0720339,35.4220339 C14.4432203,35.2949153 13.8161017,35.6491525 13.6016949,36.2533898 L12.9220339,38.1635593 C12.7110169,38.7576271 12.9601695,39.4169492 13.5110169,39.7228814 L17.0627119,41.6940678 L29.8135593,46.0466102 C29.5483051,44.2491525 30.0966102,42.3525424 31.4728814,40.9762712" id="Fill-962" fill="#D1D4D1" sketch:type="MSShapeGroup"></path>
                <path d="M45.8542373,16.6559322 C45.6381356,16.6559322 45.4211864,16.5728814 45.2550847,16.4076271 L41.6601695,12.8118644 C41.329661,12.4805085 41.329661,11.9449153 41.6601695,11.6135593 C41.9915254,11.2822034 42.5279661,11.2822034 42.8584746,11.6135593 L46.4533898,15.209322 C46.7847458,15.5398305 46.7847458,16.0762712 46.4533898,16.4076271 C46.2881356,16.5728814 46.0711864,16.6559322 45.8542373,16.6559322" id="Fill-963" fill="#FFFFFF" sketch:type="MSShapeGroup"></path>
                <path d="M38.6635593,33.7855932 L43.429661,29.0194915 L41.2974576,24.520339 L37.7313559,26.8084746 L35.7389831,22.4483051 L32.1728814,24.7372881 L30.179661,20.3771186 L26.6135593,22.6652542 L24.6211864,18.3050847 L21.0550847,20.5940678 L19.129661,16.3805085 C19.1050847,16.3262712 19.0271186,16.329661 19.0059322,16.3855932 L16.990678,21.7923729 C16.1737288,23.9855932 17.2889831,26.4254237 19.4813559,27.2423729 C19.4813559,27.2423729 38.5186441,33.9305085 38.6635593,33.7855932" id="Fill-964" fill="#D1D4D1" sketch:type="MSShapeGroup"></path>
                <path d="M24.0127119,42.4694915 C23.9084746,42.4694915 23.8025424,42.45 23.7,42.4084746 L19.9983051,40.9381356 C19.5627119,40.7652542 19.3508475,40.2728814 19.5228814,39.8381356 C19.6966102,39.4025424 20.1898305,39.1898305 20.6237288,39.3635593 L24.3254237,40.8338983 C24.7610169,41.0067797 24.9728814,41.4991525 24.8008475,41.9338983 C24.6677966,42.2661017 24.3491525,42.4694915 24.0127119,42.4694915" id="Fill-965" fill="#FFFFFF" sketch:type="MSShapeGroup"></path>
                <path d="M32.6720339,55.9974576 C31.5855932,55.9974576 30.5008475,55.5847458 29.6745763,54.7584746 C28.0228814,53.1067797 28.0228814,50.4186441 29.6745763,48.7669492 C29.9237288,48.5177966 30.2127119,48.3025424 30.5830508,48.0923729 C30.9889831,47.8584746 31.5076271,48.0008475 31.7381356,48.4084746 C31.970339,48.8144068 31.8288136,49.3322034 31.4220339,49.5635593 C31.1881356,49.6974576 31.0127119,49.8254237 30.8737288,49.9652542 C29.8822034,50.9567797 29.8822034,52.5686441 30.8737288,53.5601695 C31.8644068,54.5508475 33.4771186,54.5525424 34.4694915,53.5601695 C35.0737288,52.9559322 35.3305085,52.0932203 35.1584746,51.2508475 C35.0644068,50.7923729 35.3601695,50.3440678 35.8186441,50.2508475 C36.2813559,50.1567797 36.7254237,50.4525424 36.8186441,50.9101695 C37.1059322,52.3127119 36.6754237,53.7516949 35.6677966,54.7584746 C34.8415254,55.5847458 33.7567797,55.9974576 32.6720339,55.9974576" id="Fill-966" fill="#D1D4D1" sketch:type="MSShapeGroup"></path>
                <path d="M60.2364407,28.9915254 L39.8627119,49.3652542 C37.5550847,51.6728814 33.7805085,51.6728814 31.4728814,49.3652542 C29.1661017,47.0584746 29.1661017,43.2830508 31.4728814,40.9762712 L51.8474576,20.6016949 C54.1542373,18.2949153 57.929661,18.2949153 60.2364407,20.6016949 C62.5440678,22.909322 62.5440678,26.6838983 60.2364407,28.9915254" id="Fill-1995" fill="#E64C3C" sketch:type="MSShapeGroup"></path>
                <path d="M55.1474576,26.7627119 L56.6669492,25.2432203 C56.9983051,24.9118644 56.9983051,24.3762712 56.6669492,24.0449153 C56.3364407,23.7135593 55.8,23.7135593 55.4686441,24.0449153 L53.9491525,25.5644068 L52.429661,24.0449153 C52.0983051,23.7135593 51.5627119,23.7135593 51.2313559,24.0449153 C50.9,24.3762712 50.9,24.9118644 51.2313559,25.2432203 L52.7508475,26.7627119 L51.2313559,28.2822034 C50.9,28.6135593 50.9,29.1491525 51.2313559,29.4805085 C51.3966102,29.6457627 51.6135593,29.7288136 51.8305085,29.7288136 C52.0474576,29.7288136 52.2644068,29.6457627 52.429661,29.4805085 L53.9491525,27.9610169 L55.4686441,29.4805085 C55.6338983,29.6457627 55.8508475,29.7288136 56.0677966,29.7288136 C56.2847458,29.7288136 56.5016949,29.6457627 56.6669492,29.4805085 C56.9983051,29.1491525 56.9983051,28.6135593 56.6669492,28.2822034 L55.1474576,26.7627119" id="Fill-1996" fill="#E6E6E6" sketch:type="MSShapeGroup"></path>
                <path d="M35.6677966,48.5533898 C34.7576271,48.5533898 33.9067797,48.2033898 33.2720339,47.5677966 C32.940678,47.2364407 32.940678,46.7 33.2720339,46.3694915 C33.6025424,46.0389831 34.1389831,46.0389831 34.470339,46.3694915 C35.1025424,47.0008475 36.2364407,47.0008475 36.8669492,46.3694915 L47.1601695,36.0754237 C47.4915254,35.7440678 48.0279661,35.7440678 48.3584746,36.0754237 C48.6898305,36.4059322 48.6898305,36.9423729 48.3584746,37.2737288 L38.0652542,47.5677966 C37.429661,48.2033898 36.5779661,48.5533898 35.6677966,48.5533898" id="Fill-1997" fill="#C03A2B" sketch:type="MSShapeGroup"></path>
            </g>
        </g>
    </g>
</svg>