<?xml version="1.0" encoding="UTF-8" standalone="no"?>
<svg width="120px" height="100px" viewBox="0 0 120 100" version="1.1" xmlns="http://www.w3.org/2000/svg" xmlns:xlink="http://www.w3.org/1999/xlink" xmlns:sketch="http://www.bohemiancoding.com/sketch/ns">
    <!-- Generator: Sketch 3.4.4 (17249) - http://www.bohemiancoding.com/sketch -->
    <title>extensible</title>
    <desc>Created with Sketch.</desc>
    <defs></defs>
    <g id="Style-Inventory" stroke="none" stroke-width="1" fill="none" fill-rule="evenodd" sketch:type="MSPage">
        <g id="Features" sketch:type="MSArtboardGroup" transform="translate(-1060.000000, -404.000000)">
            <g id="extensible" sketch:type="MSLayerGroup" transform="translate(1060.000000, 404.000000)">
                <rect id="Rectangle-202" fill-opacity="0.01" fill="#FFFFFF" sketch:type="MSShapeGroup" x="0" y="0" width="120" height="100"></rect>
                <g id="Group" transform="translate(16.941176, 8.823529)" sketch:type="MSShapeGroup">
                    <path d="M45.6292881,18.0252203 L58.3862812,30.7822134 L67.2184726,21.9500219 L45.6292881,0.360837488 C40.7510429,5.23908275 40.7510429,13.1469751 45.6292881,18.0252203" id="Fill-961" fill="#D1D4D1"></path>
                    <path d="M31.8897069,57.2787876 L35.9102692,53.2582253 L24.5369492,49.7539382 C24.3953898,49.7039761 24.2566062,49.8274935 24.2704845,49.975992 C25.0615513,58.3057866 14.429336,49.7941854 12.315661,48.2231545 C12.1144247,48.0732682 11.8701655,47.998325 11.6203549,48.0038764 L5.03090728,48.1829073 C4.0011326,47.9747318 2.9741336,48.5548475 2.62301097,49.5443749 L1.5099661,52.6725583 C1.16439482,53.6454317 1.57241874,54.7251685 2.47451246,55.2261775 L8.29093519,58.4542851 L29.172323,65.5822134 C28.7379302,62.6386122 29.6358604,59.5326341 31.8897069,57.2787876" id="Fill-962" fill="#D1D4D1"></path>
                    <path d="M55.4412921,17.450656 C55.0873938,17.450656 54.7321077,17.3146481 54.4600917,17.0440199 L48.5728893,11.1554297 C48.0316331,10.6127856 48.0316331,9.73567298 48.5728893,9.19302891 C49.1155334,8.65038485 49.9940339,8.65038485 50.5352901,9.19302891 L56.4224925,15.0816191 C56.9651366,15.6228754 56.9651366,16.5013759 56.4224925,17.0440199 C56.1518644,17.3146481 55.7965783,17.450656 55.4412921,17.450656" id="Fill-963" fill="#FFFFFF"></path>
                    <path d="M43.6654995,45.502995 L51.4706919,37.6978026 L47.9788953,30.3297787 L42.1388794,34.0769372 L38.8760758,26.9365184 L33.0360598,30.6850648 L29.7718684,23.5446461 L23.9318524,27.2918046 L20.6690489,20.1513858 L14.8290329,23.8999322 L11.6758684,16.9996092 C11.6356211,16.9107876 11.5079402,16.916339 11.4732443,17.0079362 L8.17296909,25.862333 C6.83509472,29.4540538 8.66148754,33.4496351 12.2518205,34.7875095 C12.2518205,34.7875095 43.4281795,45.7403151 43.6654995,45.502995" id="Fill-964" fill="#D3D3D3"></path>
                    <path d="M19.6725823,59.7241555 C19.5018784,59.7241555 19.3283988,59.6922353 19.1604706,59.6242313 L13.0984008,57.216335 C12.3850528,56.9332164 12.0380937,56.1268833 12.3198245,55.4149232 C12.604331,54.7015753 13.4120518,54.3532283 14.1226241,54.6377348 L20.1846939,57.0456311 C20.8980419,57.3287498 21.245001,58.1350828 20.9632702,58.8470429 C20.7453799,59.3910748 20.2235533,59.7241555 19.6725823,59.7241555" id="Fill-965" fill="#FFFFFF"></path>
                    <path d="M78.9942652,37.652004 L45.6292881,71.0169811 C41.8502094,74.7960598 35.6687856,74.7960598 31.8897069,71.0169811 C28.112016,67.2392901 28.112016,61.0564786 31.8897069,57.2787876 L65.2560718,23.9124227 C69.0337627,20.1347318 75.2165743,20.1347318 78.9942652,23.9124227 C82.773344,27.6915015 82.773344,33.8729252 78.9942652,37.652004" id="Fill-1995" fill="#2F4149"></path>
                    <path d="M70.6603071,34.001994 L73.1486979,31.5136032 C73.691342,30.9709591 73.691342,30.0938465 73.1486979,29.5512024 C72.6074417,29.0085583 71.7289412,29.0085583 71.1862971,29.5512024 L68.6979063,32.0395932 L66.2095155,29.5512024 C65.6668714,29.0085583 64.7897587,29.0085583 64.2471147,29.5512024 C63.7044706,30.0938465 63.7044706,30.9709591 64.2471147,31.5136032 L66.7355055,34.001994 L64.2471147,36.4903848 C63.7044706,37.0330289 63.7044706,37.9101416 64.2471147,38.4527856 C64.5177428,38.7234138 64.8730289,38.8594217 65.2283151,38.8594217 C65.5836012,38.8594217 65.9388873,38.7234138 66.2095155,38.4527856 L68.6979063,35.9643948 L71.1862971,38.4527856 C71.4569252,38.7234138 71.8122114,38.8594217 72.1674975,38.8594217 C72.5227836,38.8594217 72.8780698,38.7234138 73.1486979,38.4527856 C73.691342,37.9101416 73.691342,37.0330289 73.1486979,36.4903848 L70.6603071,34.001994" id="Fill-1996" fill="#F8F8F8"></path>
                    <path d="M38.7594975,69.6874337 C37.2689611,69.6874337 35.8755733,69.1142572 34.8360837,68.0733799 C34.2934397,67.5307358 34.2934397,66.6522353 34.8360837,66.1109791 C35.37734,65.5697228 36.2558405,65.5697228 36.7984845,66.1109791 C37.8338106,67.1449172 39.6907358,67.1449172 40.7232861,66.1109791 L57.5799482,49.2529292 C58.1225922,48.7102851 59.0010927,48.7102851 59.542349,49.2529292 C60.084993,49.7941854 60.084993,50.6726859 59.542349,51.21533 L42.6856869,68.0733799 C41.6448096,69.1142572 40.2500339,69.6874337 38.7594975,69.6874337" id="Fill-1997" fill="#62A4B9"></path>
                </g>
            </g>
        </g>
    </g>
</svg>