<?xml version="1.0" encoding="UTF-8" standalone="no"?>
<svg width="45px" height="45px" viewBox="0 0 45 45" version="1.1" xmlns="http://www.w3.org/2000/svg" xmlns:xlink="http://www.w3.org/1999/xlink" xmlns:sketch="http://www.bohemiancoding.com/sketch/ns">
    <!-- Generator: Sketch 3.3.3 (12072) - http://www.bohemiancoding.com/sketch -->
    <title>extensible</title>
    <desc>Created with Sketch.</desc>
    <defs></defs>
    <g id="Page-1" stroke="none" stroke-width="1" fill="none" fill-rule="evenodd" sketch:type="MSPage">
        <g id="Home" sketch:type="MSArtboardGroup" transform="translate(-333.000000, -1266.000000)">
            <g id="extensible" sketch:type="MSLayerGroup" transform="translate(333.000000, 1266.000000)">
                <path d="M25.0764407,9.90610169 L32.0872881,16.9169492 L36.9411864,12.0630508 L25.0764407,0.198305085 C22.3955085,2.87923729 22.3955085,7.22516949 25.0764407,9.90610169" id="Fill-961" fill="#D1D4D1" sketch:type="MSShapeGroup"></path>
                <path d="M17.5255932,31.4786441 L19.7351695,29.2690678 L13.4847458,27.3432203 C13.4069492,27.3157627 13.330678,27.3836441 13.3383051,27.4652542 C13.7730508,32.0430508 7.92991525,27.365339 6.76830508,26.5019492 C6.65771186,26.4195763 6.52347458,26.3783898 6.38618644,26.3814407 L2.76483051,26.4798305 C2.19889831,26.3654237 1.63449153,26.6842373 1.44152542,27.2280508 L0.829830508,28.9472034 C0.639915254,29.4818644 0.864152542,30.0752542 1.35991525,30.3505932 L4.55644068,32.124661 L16.0322034,36.0419492 C15.7934746,34.4242373 16.2869492,32.7172881 17.5255932,31.4786441" id="Fill-962" fill="#D1D4D1" sketch:type="MSShapeGroup"></path>
                <path d="M30.4688136,9.59033898 C30.274322,9.59033898 30.0790678,9.51559322 29.9295763,9.36686441 L26.6941525,6.13067797 C26.3966949,5.83245763 26.3966949,5.35042373 26.6941525,5.05220339 C26.9923729,4.75398305 27.4751695,4.75398305 27.7726271,5.05220339 L31.0080508,8.28838983 C31.3062712,8.58584746 31.3062712,9.06864407 31.0080508,9.36686441 C30.859322,9.51559322 30.6640678,9.59033898 30.4688136,9.59033898" id="Fill-963" fill="#FFFFFF" sketch:type="MSShapeGroup"></path>
                <path d="M23.9972034,25.0070339 L28.2866949,20.7175424 L26.3677119,16.6683051 L23.1582203,18.7276271 L21.3650847,14.8034746 L18.1555932,16.8635593 L16.3616949,12.9394068 L13.1522034,14.9987288 L11.3590678,11.0745763 L8.14957627,13.134661 L6.41669492,9.34245763 C6.39457627,9.29364407 6.32440678,9.29669492 6.30533898,9.3470339 L4.49161017,14.2131356 C3.75635593,16.1870339 4.76008475,18.3828814 6.73322034,19.1181356 C6.73322034,19.1181356 23.8667797,25.1374576 23.9972034,25.0070339" id="Fill-964" fill="#D1D4D1" sketch:type="MSShapeGroup"></path>
                <path d="M10.8114407,32.8225424 C10.7176271,32.8225424 10.6222881,32.805 10.53,32.7676271 L7.19847458,31.444322 C6.80644068,31.2887288 6.61576271,30.8455932 6.77059322,30.454322 C6.92694915,30.0622881 7.37084746,29.8708475 7.76135593,30.0272034 L11.0928814,31.3505085 C11.4849153,31.5061017 11.6755932,31.9492373 11.5207627,32.3405085 C11.4010169,32.6394915 11.1142373,32.8225424 10.8114407,32.8225424" id="Fill-965" fill="#FFFFFF" sketch:type="MSShapeGroup"></path>
                <path d="M18.6048305,44.9977119 C17.6270339,44.9977119 16.6507627,44.6262712 15.9071186,43.8826271 C14.4205932,42.3961017 14.4205932,39.9767797 15.9071186,38.4902542 C16.1313559,38.2660169 16.3914407,38.0722881 16.7247458,37.8831356 C17.0900847,37.6726271 17.5568644,37.8007627 17.764322,38.1676271 C17.9733051,38.5329661 17.8459322,38.9989831 17.4798305,39.2072034 C17.269322,39.3277119 17.1114407,39.4428814 16.9863559,39.5687288 C16.0939831,40.4611017 16.0939831,41.9117797 16.9863559,42.8041525 C17.8779661,43.6957627 19.3294068,43.6972881 20.2225424,42.8041525 C20.7663559,42.260339 20.9974576,41.4838983 20.8426271,40.7257627 C20.7579661,40.3131356 21.0241525,39.909661 21.4367797,39.8257627 C21.8532203,39.7411017 22.2528814,40.0072881 22.3367797,40.4191525 C22.595339,41.6814407 22.2078814,42.9765254 21.3010169,43.8826271 C20.5573729,44.6262712 19.5811017,44.9977119 18.6048305,44.9977119" id="Fill-966" fill="#D1D4D1" sketch:type="MSShapeGroup"></path>
                <path d="M43.4127966,20.6923729 L25.0764407,39.0287288 C22.9995763,41.1055932 19.6024576,41.1055932 17.5255932,39.0287288 C15.4494915,36.9526271 15.4494915,33.5547458 17.5255932,31.4786441 L35.8627119,13.1415254 C37.9388136,11.0654237 41.3366949,11.0654237 43.4127966,13.1415254 C45.489661,15.2183898 45.489661,18.6155085 43.4127966,20.6923729" id="Fill-1995" fill="#E64C3C" sketch:type="MSShapeGroup"></path>
                <path d="M38.8327119,18.6864407 L40.2002542,17.3188983 C40.4984746,17.020678 40.4984746,16.5386441 40.2002542,16.2404237 C39.9027966,15.9422034 39.42,15.9422034 39.1217797,16.2404237 L37.7542373,17.6079661 L36.3866949,16.2404237 C36.0884746,15.9422034 35.6064407,15.9422034 35.3082203,16.2404237 C35.01,16.5386441 35.01,17.020678 35.3082203,17.3188983 L36.6757627,18.6864407 L35.3082203,20.0539831 C35.01,20.3522034 35.01,20.8342373 35.3082203,21.1324576 C35.4569492,21.2811864 35.6522034,21.3559322 35.8474576,21.3559322 C36.0427119,21.3559322 36.2379661,21.2811864 36.3866949,21.1324576 L37.7542373,19.7649153 L39.1217797,21.1324576 C39.2705085,21.2811864 39.4657627,21.3559322 39.6610169,21.3559322 C39.8562712,21.3559322 40.0515254,21.2811864 40.2002542,21.1324576 C40.4984746,20.8342373 40.4984746,20.3522034 40.2002542,20.0539831 L38.8327119,18.6864407" id="Fill-1996" fill="#E6E6E6" sketch:type="MSShapeGroup"></path>
                <path d="M21.3010169,38.2980508 C20.4818644,38.2980508 19.7161017,37.9830508 19.1448305,37.4110169 C18.8466102,37.1127966 18.8466102,36.63 19.1448305,36.3325424 C19.4422881,36.0350847 19.9250847,36.0350847 20.2233051,36.3325424 C20.7922881,36.9007627 21.8127966,36.9007627 22.3802542,36.3325424 L31.6441525,27.0678814 C31.9423729,26.769661 32.4251695,26.769661 32.7226271,27.0678814 C33.0208475,27.365339 33.0208475,27.8481356 32.7226271,28.1463559 L23.4587288,37.4110169 C22.8866949,37.9830508 22.1201695,38.2980508 21.3010169,38.2980508" id="Fill-1997" fill="#C03A2B" sketch:type="MSShapeGroup"></path>
            </g>
        </g>
    </g>
</svg>