<?xml version="1.0" encoding="UTF-8" standalone="no"?>
<svg width="76px" height="76px" viewBox="0 0 76 76" version="1.1" xmlns="http://www.w3.org/2000/svg" xmlns:xlink="http://www.w3.org/1999/xlink" xmlns:sketch="http://www.bohemiancoding.com/sketch/ns">
    <!-- Generator: Sketch 3.3.3 (12072) - http://www.bohemiancoding.com/sketch -->
    <title>feature-8</title>
    <desc>Created with Sketch.</desc>
    <defs></defs>
    <g id="Page-1" stroke="none" stroke-width="1" fill="none" fill-rule="evenodd" sketch:type="MSPage">
        <g id="Features-Copy-2" sketch:type="MSArtboardGroup" transform="translate(-378.000000, -1220.000000)">
            <g id="feature-8" sketch:type="MSLayerGroup" transform="translate(378.000000, 1220.000000)">
                <circle id="Oval-34-Copy-9" fill="#F7F7F7" sketch:type="MSShapeGroup" cx="38.15625" cy="37.6755371" r="37.5"></circle>
                <g transform="translate(12.080357, 15.000000)" sketch:type="MSShapeGroup">
                    <path d="M7.07142857,17.5698482 L6.6763125,17.3515179 C-1.04745536,13.0777232 -1.04745536,5.04811607 6.6763125,0.774321429 L7.07142857,0.556875 L7.46566071,0.774321429 C15.1894286,5.04811607 15.1894286,13.0777232 7.46566071,17.3515179 L7.07142857,17.5698482" id="Fill-2125" fill="#4C8056"></path>
                    <path d="M7.07142857,12.2662768 L7.07142857,26.4091339 M7.07142857,12.2662768 L4.41964286,9.61449107 M7.07142857,12.2662768 L9.72321429,9.61449107 M7.07142857,12.2662768 L7.07142857,7.84663393" id="Stroke-2126" stroke="#805333" stroke-width="2" stroke-linecap="round"></path>
                    <path d="M16.7946429,39.8863929 L16.3995268,39.6680625 C8.67575893,35.3942679 8.67575893,27.3646607 16.3995268,23.09175 L16.7946429,22.8734196 L17.188875,23.09175 C24.9126429,27.3646607 24.9126429,35.3942679 17.188875,39.6680625 L16.7946429,39.8863929" id="Fill-2127" fill="#76A944"></path>
                    <path d="M16.7946429,34.5828214 L16.7946429,48.7256786" id="Path" stroke="#805333" stroke-width="2" stroke-linecap="round"></path>
                    <path d="M16.7946429,34.5828214 L14.1428571,31.9310357" id="Path" stroke="#805333" stroke-width="2" stroke-linecap="round"></path>
                    <path d="M16.7946429,34.5828214 L19.4464286,31.9310357" id="Path" stroke="#805333" stroke-width="2" stroke-linecap="round"></path>
                    <path d="M16.7946429,34.5828214 L16.7946429,30.1631786" id="Path" stroke="#805333" stroke-width="2" stroke-linecap="round"></path>
                    <path d="M36.2410714,39.8863929 L35.8459554,39.6680625 C28.1221875,35.3942679 28.1221875,27.3646607 35.8459554,23.09175 L36.2410714,22.8734196 L36.6353036,23.09175 C44.3590714,27.3646607 44.3590714,35.3942679 36.6353036,39.6680625 L36.2410714,39.8863929" id="Fill-2129" fill="#4C8056"></path>
                    <path d="M36.2410714,34.5828214 L36.2410714,48.7256786 M36.2410714,34.5828214 L33.5892857,31.9310357 M36.2410714,34.5828214 L38.8928571,31.9310357 M36.2410714,34.5828214 L36.2410714,30.1631786" id="Stroke-2130" stroke="#805333" stroke-width="2" stroke-linecap="round"></path>
                    <path d="M45.9642857,17.5698482 L45.5691696,17.3515179 C37.8454018,13.0777232 37.8454018,5.04811607 45.5691696,0.774321429 L45.9642857,0.556875 L46.3594018,0.774321429 C54.0822857,5.04811607 54.0822857,13.0777232 46.3594018,17.3515179 L45.9642857,17.5698482" id="Fill-2131" fill="#98C969"></path>
                    <path d="M45.9642857,12.2662768 L45.9642857,26.4091339 M45.9642857,12.2662768 L43.3125,9.61449107 M45.9642857,12.2662768 L48.6160714,9.61449107 M45.9642857,12.2662768 L45.9642857,7.84663393" id="Stroke-2132" stroke="#805333" stroke-width="2" stroke-linecap="round"></path>
                    <path d="M26.5178571,17.5698482 L26.1227411,17.3515179 C18.3989732,13.0777232 18.3989732,5.04811607 26.1227411,0.774321429 L26.5178571,0.556875 L26.9120893,0.774321429 C34.6367411,5.04811607 34.6367411,13.0777232 26.9120893,17.3515179 L26.5178571,17.5698482" id="Fill-2133" fill="#76A944"></path>
                    <path d="M26.5178571,12.2662768 L26.5178571,26.4091339 M26.5178571,12.2662768 L23.8660714,9.61449107 M26.5178571,12.2662768 L29.1696429,9.61449107 M26.5178571,12.2662768 L26.5178571,7.84663393" id="Stroke-2134" stroke="#805333" stroke-width="2" stroke-linecap="round"></path>
                </g>
            </g>
        </g>
    </g>
</svg>