<?xml version="1.0" encoding="UTF-8" standalone="no"?>
<svg width="75px" height="75px" viewBox="0 0 75 75" version="1.1" xmlns="http://www.w3.org/2000/svg" xmlns:xlink="http://www.w3.org/1999/xlink" xmlns:sketch="http://www.bohemiancoding.com/sketch/ns">
    <!-- Generator: Sketch 3.3.3 (12072) - http://www.bohemiancoding.com/sketch -->
    <title>feature-2</title>
    <desc>Created with Sketch.</desc>
    <defs></defs>
    <g id="Page-1" stroke="none" stroke-width="1" fill="none" fill-rule="evenodd" sketch:type="MSPage">
        <g id="Features-Copy-2" sketch:type="MSArtboardGroup" transform="translate(-380.000000, -1078.000000)">
            <g id="feature-2" sketch:type="MSLayerGroup" transform="translate(380.000000, 1078.000000)">
                <circle id="Oval-34-Copy-6" fill="#F7F7F7" sketch:type="MSShapeGroup" cx="37.5" cy="37.5" r="37.5"></circle>
                <g transform="translate(15.120821, 15.000000)" sketch:type="MSShapeGroup">
                    <path d="M25.376339,11.6490161 C25.1815928,11.6490161 24.9868466,11.5752255 24.8385048,11.4268837 C24.5410605,11.1294394 24.5410605,10.647899 24.8385048,10.3504547 L32.3689437,2.82001584 C32.666388,2.5225715 33.1479283,2.5225715 33.444612,2.82001584 L35.0588752,4.4335183 C35.3563195,4.73096265 35.3563195,5.21250298 35.0588752,5.5091866 C34.7614308,5.80663095 34.2798905,5.80663095 33.9832068,5.5091866 L32.9067778,4.4335183 L25.9141731,11.4268837 C25.7658313,11.5752255 25.5710851,11.6490161 25.376339,11.6490161" id="Fill-306" fill="#556080"></path>
                    <path d="M10.4318525,39.8347207 C11.3234248,38.9431484 12.7680458,38.9431484 13.6596182,39.8347207 C14.8478741,38.6464648 14.8478741,36.7195427 13.6596182,35.5312868 L9.35618421,31.2278528 C8.16792828,30.0395969 6.2410062,30.0395969 5.05275027,31.2278528 C5.94432258,32.1194251 5.94432258,33.5640461 5.05275027,34.4556185 C4.16193868,35.3471908 2.71655694,35.3471908 1.82574535,34.4556185 L0.749316322,44.1381546 L10.4318525,43.0624863 C9.54104093,42.170914 9.54104093,40.726293 10.4318525,39.8347207" id="Fill-339" fill="#F3D55B"></path>
                    <path d="M16.7550173,33.4963414 L11.3751543,28.1172392 L37.2102118,2.28218169 L42.589314,7.66128394 L16.7550173,33.4963414" id="Fill-340" fill="#687492"></path>
                    <path d="M42.0689766,7.10595306 L37.7663034,2.80251912 L40.5680618,0 L44.8714957,4.30343394 L42.0689766,7.10595306" id="Fill-341" fill="#8697CB"></path>
                    <path d="M32.6686702,18.342655 C32.473924,18.342655 32.2791779,18.2688644 32.130836,18.1197619 L26.7509731,12.7414204 C26.4542894,12.443976 26.4542894,11.9631964 26.7509731,11.6657521 C27.0484174,11.3683077 27.5299578,11.3683077 27.8274021,11.6657521 L33.2065043,17.0440936 C33.503188,17.3415379 33.503188,17.8230783 33.2065043,18.1197619 C33.0581625,18.2688644 32.8634164,18.342655 32.6686702,18.342655" id="Fill-342" fill="#FAC176"></path>
                    <path d="M9.35618421,31.2278528 L13.6512502,35.5236795 L16.186754,32.9881756 L11.8833201,28.6847417 L9.34781621,31.2210063 C9.35009839,31.2232885 9.3531413,31.2255706 9.35618421,31.2278528" id="Fill-343" fill="#8697CB"></path>
                    <path d="M0.749316322,44.1381546 L0.750077049,44.1381546 L1.9611548,44.0035059 L4.97895972,40.9917868 C5.08317936,41.044277 5.19500626,41.0792705 5.31367971,41.0792705 L6.83513417,41.0792705 C7.03672688,41.0792705 7.23071233,40.9993941 7.37296832,40.8563774 L8.13369555,40.0956501 C8.27671227,39.9533942 8.35658863,39.7601694 8.35658863,39.557816 L8.35658863,38.0363615 C8.35658863,37.8340081 8.27671227,37.6407834 8.13369555,37.4985274 L7.37296832,36.7378001 C7.23071233,36.5955442 7.03672688,36.5149071 6.83513417,36.5149071 L5.31367971,36.5149071 C5.11208699,36.5149071 4.91886227,36.5955442 4.77584555,36.7378001 L4.01511832,37.4985274 C3.87286233,37.6407834 3.79222524,37.8340081 3.79222524,38.0363615 L3.79222524,39.557816 C3.79222524,39.6879004 3.83634742,39.808856 3.89796633,39.9206829 L0.883965042,42.9285984 L0.749316322,44.1381546 L0.749316322,44.1381546 Z M5.31367971,38.3513026 L5.62862078,38.0363615 L6.52019309,38.0363615 L6.83513417,38.3513026 L6.83513417,39.2428749 L6.52019309,39.557816 L5.62862078,39.557816 L5.31367971,39.2428749 L5.31367971,38.3513026 L5.31367971,38.3513026 Z" id="Fill-353" fill="#D7AF1C"></path>
                </g>
            </g>
        </g>
    </g>
</svg>