<?xml version="1.0" encoding="UTF-8" standalone="no"?>
<svg width="75px" height="75px" viewBox="0 0 75 75" version="1.1" xmlns="http://www.w3.org/2000/svg" xmlns:xlink="http://www.w3.org/1999/xlink" xmlns:sketch="http://www.bohemiancoding.com/sketch/ns">
    <!-- Generator: Sketch 3.3.3 (12072) - http://www.bohemiancoding.com/sketch -->
    <title>feature-extensible</title>
    <desc>Created with Sketch.</desc>
    <defs></defs>
    <g id="Page-1" stroke="none" stroke-width="1" fill="none" fill-rule="evenodd" sketch:type="MSPage">
        <g id="Features-Copy-2" sketch:type="MSArtboardGroup" transform="translate(-716.000000, -358.000000)">
            <g id="feature-extensible" sketch:type="MSLayerGroup" transform="translate(716.000000, 358.000000)">
                <circle id="Oval-30-Copy" fill="#FFFFFF" sketch:type="MSShapeGroup" cx="37.5" cy="37.5" r="37.5"></circle>
                <g id="43---Swiss-Army-Knife-(Flat)" transform="translate(10.000000, 1.000000)" sketch:type="MSShapeGroup">
                    <path d="M30.0917288,11.887322 L38.5047458,20.300339 L44.3294237,14.475661 L30.0917288,0.237966102 C26.8746102,3.45508475 26.8746102,8.67020339 30.0917288,11.887322" id="Fill-961" fill="#D1D4D1"></path>
                    <path d="M21.0307119,37.7743729 L23.6822034,35.1228814 L16.1816949,32.8118644 C16.088339,32.7789153 15.9968136,32.8603729 16.0059661,32.9583051 C16.527661,38.451661 9.51589831,32.8384068 8.1219661,31.802339 C7.98925424,31.7034915 7.82816949,31.6540678 7.66342373,31.6577288 L3.31779661,31.7757966 C2.63867797,31.6385085 1.96138983,32.0210847 1.72983051,32.673661 L0.99579661,34.7366441 C0.767898305,35.3782373 1.03698305,36.0903051 1.63189831,36.4207119 L5.46772881,38.5495932 L19.2386441,43.250339 C18.9521695,41.3090847 19.544339,39.2607458 21.0307119,37.7743729" id="Fill-962" fill="#D1D4D1"></path>
                    <path d="M36.5625763,11.5084068 C36.3291864,11.5084068 36.0948814,11.4187119 35.9154915,11.2402373 L32.0329831,7.35681356 C31.6760339,6.99894915 31.6760339,6.42050847 32.0329831,6.06264407 C32.3908475,5.70477966 32.9702034,5.70477966 33.3271525,6.06264407 L37.209661,9.9460678 C37.5675254,10.3030169 37.5675254,10.8823729 37.209661,11.2402373 C37.0311864,11.4187119 36.7968814,11.5084068 36.5625763,11.5084068" id="Fill-963" fill="#FFFFFF"></path>
                    <path d="M28.7966441,30.0084407 L33.9440339,24.8610508 L31.6412542,20.0019661 L27.7898644,22.4731525 L25.6381017,17.7641695 L21.7867119,20.2362712 L19.6340339,15.5272881 L15.7826441,17.9984746 L13.6308814,13.2894915 L9.77949153,15.7615932 L7.7000339,11.2109492 C7.67349153,11.1523729 7.58928814,11.1560339 7.56640678,11.2164407 L5.3899322,17.0557627 C4.50762712,19.4244407 5.71210169,22.0594576 8.07986441,22.9417627 C8.07986441,22.9417627 28.6401356,30.1649492 28.7966441,30.0084407" id="Fill-964" fill="#D1D4D1"></path>
                    <path d="M12.9737288,39.3870508 C12.8611525,39.3870508 12.7467458,39.366 12.636,39.3211525 L8.63816949,37.7331864 C8.16772881,37.5464746 7.93891525,37.0147119 8.12471186,36.5451864 C8.31233898,36.0747458 8.84501695,35.8450169 9.31362712,36.0326441 L13.3114576,37.6206102 C13.7818983,37.807322 14.0107119,38.3390847 13.8249153,38.8086102 C13.6812203,39.1673898 13.3370847,39.3870508 12.9737288,39.3870508" id="Fill-965" fill="#FFFFFF"></path>
                    <path d="M22.3257966,53.9972542 C21.1524407,53.9972542 19.9809153,53.5515254 19.0885424,52.6591525 C17.3047119,50.875322 17.3047119,47.9721356 19.0885424,46.1883051 C19.3576271,45.9192203 19.6697288,45.6867458 20.0696949,45.4597627 C20.5081017,45.2071525 21.0682373,45.3609153 21.3171864,45.8011525 C21.5679661,46.2395593 21.4151186,46.7987797 20.9757966,47.0486441 C20.7231864,47.1932542 20.5337288,47.3314576 20.3836271,47.4824746 C19.3127797,48.553322 19.3127797,50.2941356 20.3836271,51.3649831 C21.4535593,52.4349153 23.1952881,52.4367458 24.2670508,51.3649831 C24.9196271,50.7124068 25.1969492,49.780678 25.0111525,48.8709153 C24.9095593,48.3757627 25.2289831,47.8915932 25.7241356,47.7909153 C26.2238644,47.689322 26.7034576,48.0087458 26.8041356,48.5029831 C27.1144068,50.0177288 26.6494576,51.5718305 25.5612203,52.6591525 C24.6688475,53.5515254 23.497322,53.9972542 22.3257966,53.9972542" id="Fill-966" fill="#D1D4D1"></path>
                    <path d="M52.0953559,24.8308475 L30.0917288,46.8344746 C27.5994915,49.3267119 23.5229492,49.3267119 21.0307119,46.8344746 C18.5393898,44.3431525 18.5393898,40.2656949 21.0307119,37.7743729 L43.0352542,15.7698305 C45.5265763,13.2785085 49.6040339,13.2785085 52.0953559,15.7698305 C54.5875932,18.2620678 54.5875932,22.3386102 52.0953559,24.8308475" id="Fill-1995" fill="#E64C3C"></path>
                    <path d="M46.5992542,22.4237288 L48.2403051,20.782678 C48.5981695,20.4248136 48.5981695,19.8463729 48.2403051,19.4885085 C47.8833559,19.1306441 47.304,19.1306441 46.9461356,19.4885085 L45.3050847,21.1295593 L43.6640339,19.4885085 C43.3061695,19.1306441 42.7277288,19.1306441 42.3698644,19.4885085 C42.012,19.8463729 42.012,20.4248136 42.3698644,20.782678 L44.0109153,22.4237288 L42.3698644,24.0647797 C42.012,24.4226441 42.012,25.0010847 42.3698644,25.3589492 C42.548339,25.5374237 42.7826441,25.6271186 43.0169492,25.6271186 C43.2512542,25.6271186 43.4855593,25.5374237 43.6640339,25.3589492 L45.3050847,23.7178983 L46.9461356,25.3589492 C47.1246102,25.5374237 47.3589153,25.6271186 47.5932203,25.6271186 C47.8275254,25.6271186 48.0618305,25.5374237 48.2403051,25.3589492 C48.5981695,25.0010847 48.5981695,24.4226441 48.2403051,24.0647797 L46.5992542,22.4237288" id="Fill-1996" fill="#E6E6E6"></path>
                    <path d="M25.5612203,45.957661 C24.5782373,45.957661 23.659322,45.579661 22.9737966,44.8932203 C22.6159322,44.5353559 22.6159322,43.956 22.9737966,43.5990508 C23.3307458,43.2421017 23.9101017,43.2421017 24.2679661,43.5990508 C24.9507458,44.2809153 26.1753559,44.2809153 26.8563051,43.5990508 L37.9729831,32.4814576 C38.3308475,32.1235932 38.9102034,32.1235932 39.2671525,32.4814576 C39.6250169,32.8384068 39.6250169,33.4177627 39.2671525,33.7756271 L28.1504746,44.8932203 C27.4640339,45.579661 26.5442034,45.957661 25.5612203,45.957661" id="Fill-1997" fill="#C03A2B"></path>
                </g>
            </g>
        </g>
    </g>
</svg>