<?xml version="1.0" encoding="UTF-8" standalone="no"?>
<svg width="75px" height="75px" viewBox="0 0 75 75" version="1.1" xmlns="http://www.w3.org/2000/svg" xmlns:xlink="http://www.w3.org/1999/xlink" xmlns:sketch="http://www.bohemiancoding.com/sketch/ns">
    <!-- Generator: Sketch 3.3.3 (12072) - http://www.bohemiancoding.com/sketch -->
    <title>feature-5</title>
    <desc>Created with Sketch.</desc>
    <defs></defs>
    <g id="Page-1" stroke="none" stroke-width="1" fill="none" fill-rule="evenodd" sketch:type="MSPage">
        <g id="Features-Copy-2" sketch:type="MSArtboardGroup" transform="translate(-980.000000, -1078.000000)">
            <g id="feature-5" sketch:type="MSLayerGroup" transform="translate(980.000000, 1078.000000)">
                <circle id="Oval-34-Copy-2" fill="#F7F7F7" sketch:type="MSShapeGroup" cx="37.5" cy="37.5" r="37.5"></circle>
                <g transform="translate(18.500000, 15.365192)" sketch:type="MSShapeGroup">
                    <path d="M15.2435652,24.2658804 L4.29347826,19.75 L4.29347826,36.0652174 L17.0682935,45.433587 C17.112087,45.4662174 17.173913,45.4344457 17.173913,45.3803478 L17.173913,26.6195652 C17.2159891,25.4852283 16.3564348,24.4882826 15.2435652,24.2658804" id="Fill-1407" fill="#406051"></path>
                    <path d="M24.2581522,24.2658804 L35.2082391,19.75 L35.2082391,36.0652174 L22.4325652,45.433587 C22.3887717,45.4662174 22.3278043,45.4344457 22.3278043,45.3803478 L22.3278043,26.6195652 C22.2857283,25.4852283 23.1452826,24.4882826 24.2581522,24.2658804" id="Fill-1408" fill="#406051"></path>
                    <path d="M4.29347826,36.0652174 L2.26609783,34.8484457 C0.860413043,34.0052065 0,32.4861739 0,30.8460652 L0,18.8913043 L4.29347826,18.8913043 L4.29347826,36.0652174" id="Fill-1409" fill="#E3C798"></path>
                    <path d="M35.2065217,36.0652174 L37.2339022,34.8484457 C38.639587,34.0052065 39.5,32.4861739 39.5,30.8460652 L39.5,18.8913043 L35.2065217,18.8913043 L35.2065217,36.0652174" id="Fill-1410" fill="#E3C798"></path>
                    <path d="M26.1198043,2.26438043 C24.3448804,1.43831522 22.3870543,0.942847826 20.3133043,0.869 C11.5202609,0.556434783 4.29347826,7.59172826 4.29347826,16.3152174 L4.29347826,17.173913 C14.527413,18.8792826 24.972587,18.8792826 35.2065217,17.173913 L35.2065217,16.6861739 C35.2065217,14.3032935 34.6646848,12.0294674 33.7184022,9.97632609 C33.7184022,9.97632609 31.0401304,4.23422826 26.1198043,2.26438043" id="Fill-1411" fill="#7C9382"></path>
                    <path d="M1.7173913,18.8913043 L1.7173913,1.7173913" id="Stroke-1486" stroke="#464F5D" stroke-width="2"></path>
                    <path d="M1.7173913,0 L7.72826087,0 L7.72826087,2.57608696 L1.7173913,2.57608696 L1.7173913,0 Z" id="Fill-1487" fill="#464F5D"></path>
                    <path d="M1.7173913,0 L7.72826087,0 L7.72826087,2.57608696 L1.7173913,2.57608696 L1.7173913,0 Z" id="Stroke-1488" stroke="#464F5D" stroke-width="2"></path>
                    <path d="M26.6195652,10.3043478 C26.6195652,10.7783478 26.2348696,11.1630435 25.7608696,11.1630435 C25.2868696,11.1630435 24.9021739,10.7783478 24.9021739,10.3043478 C24.9021739,9.83034783 25.2868696,9.44565217 25.7608696,9.44565217 C26.2348696,9.44565217 26.6195652,9.83034783 26.6195652,10.3043478" id="Fill-1489" fill="#DADADB"></path>
                    <path d="M28.3369565,8.58695652 C28.3369565,9.06095652 27.9522609,9.44565217 27.4782609,9.44565217 C27.0042609,9.44565217 26.6195652,9.06095652 26.6195652,8.58695652 C26.6195652,8.11295652 27.0042609,7.72826087 27.4782609,7.72826087 C27.9522609,7.72826087 28.3369565,8.11295652 28.3369565,8.58695652" id="Fill-1490" fill="#DADADB"></path>
                    <path d="M30.0543478,10.3043478 C30.0543478,10.7783478 29.6696522,11.1630435 29.1956522,11.1630435 C28.7216522,11.1630435 28.3369565,10.7783478 28.3369565,10.3043478 C28.3369565,9.83034783 28.7216522,9.44565217 29.1956522,9.44565217 C29.6696522,9.44565217 30.0543478,9.83034783 30.0543478,10.3043478" id="Fill-1491" fill="#DADADB"></path>
                    <path d="M28.3369565,12.0217391 C28.3369565,12.4957391 27.9522609,12.8804348 27.4782609,12.8804348 C27.0042609,12.8804348 26.6195652,12.4957391 26.6195652,12.0217391 C26.6195652,11.5477391 27.0042609,11.1630435 27.4782609,11.1630435 C27.9522609,11.1630435 28.3369565,11.5477391 28.3369565,12.0217391" id="Fill-1492" fill="#DADADB"></path>
                    <path d="M24.9021739,12.0217391 C24.9021739,12.4957391 24.5174783,12.8804348 24.0434783,12.8804348 C23.5694783,12.8804348 23.1847826,12.4957391 23.1847826,12.0217391 C23.1847826,11.5477391 23.5694783,11.1630435 24.0434783,11.1630435 C24.5174783,11.1630435 24.9021739,11.5477391 24.9021739,12.0217391" id="Fill-1493" fill="#DADADB"></path>
                    <path d="M24.9021739,8.58695652 C24.9021739,9.06095652 24.5174783,9.44565217 24.0434783,9.44565217 C23.5694783,9.44565217 23.1847826,9.06095652 23.1847826,8.58695652 C23.1847826,8.11295652 23.5694783,7.72826087 24.0434783,7.72826087 C24.5174783,7.72826087 24.9021739,8.11295652 24.9021739,8.58695652" id="Fill-1494" fill="#DADADB"></path>
                    <path d="M14.5978261,37.8401413 L14.5978261,43.6578043 L17.1129457,45.5108696 L22.3870543,45.5108696 L24.9021739,43.6578043 L24.9030326,37.8392826 C24.9038913,31.1388804 28.9509239,25.10225 35.1489891,22.5562174 L35.2065217,22.5330326 L35.2065217,17.173913 C24.972587,18.8792826 14.527413,18.8792826 4.29347826,17.173913 L4.29347826,22.5321739 L4.35186957,22.5562174 C10.5507935,25.1013913 14.5978261,31.1388804 14.5978261,37.8401413" id="Fill-1496" fill="#D25627"></path>
                    <path d="M4.29347826,19.75 L4.29347826,19.75 L15.2435652,24.2658804 C16.3555761,24.4882826 17.2159891,25.4852283 17.173913,26.6195652 L17.173913,45.5108696 L22.326087,45.5108696 L22.326087,34.3478261 L22.3278043,34.3478261 L22.3278043,26.6195652 C22.2857283,25.4852283 23.1452826,24.4882826 24.2581522,24.2658804 L35.2065217,19.7508587 L35.2065217,19.75 C24.972587,21.4553696 14.527413,21.4553696 4.29347826,19.75" id="Fill-1497" fill="#000000"></path>
                </g>
            </g>
        </g>
    </g>
</svg>