<?xml version="1.0" encoding="UTF-8" standalone="no"?>
<svg width="75px" height="75px" viewBox="0 0 75 75" version="1.1" xmlns="http://www.w3.org/2000/svg" xmlns:xlink="http://www.w3.org/1999/xlink" xmlns:sketch="http://www.bohemiancoding.com/sketch/ns">
    <!-- Generator: Sketch 3.3.3 (12072) - http://www.bohemiancoding.com/sketch -->
    <title>feature-6</title>
    <desc>Created with Sketch.</desc>
    <defs></defs>
    <g id="Page-1" stroke="none" stroke-width="1" fill="none" fill-rule="evenodd" sketch:type="MSPage">
        <g id="Features-Copy-2" sketch:type="MSArtboardGroup" transform="translate(-1180.000000, -1078.000000)">
            <g id="feature-6" sketch:type="MSLayerGroup" transform="translate(1180.000000, 1078.000000)">
                <circle id="Oval-34-Copy" fill="#F7F7F7" sketch:type="MSShapeGroup" cx="37.5" cy="37.5" r="37.5"></circle>
                <g transform="translate(12.500000, 12.000000)" sketch:type="MSShapeGroup">
                    <path d="M21.1666025,3.38665639 L6.77331279,17.7799461 M27.9399152,3.38665639 L42.3332049,17.7799461" id="Stroke-177" stroke="#556080" stroke-width="2" stroke-linecap="round"></path>
                    <path d="M27.9399152,3.38665639 C27.9399152,5.25693739 26.4235398,6.77331279 24.5532588,6.77331279 C22.6829779,6.77331279 21.1666025,5.25693739 21.1666025,3.38665639 C21.1666025,1.5163754 22.6829779,0 24.5532588,0 C26.4235398,0 27.9399152,1.5163754 27.9399152,3.38665639" id="Fill-203" fill="#F9EBB0"></path>
                    <path d="M0,17.7799461 L49.1065177,17.7799461 L49.1065177,44.8731972 L0,44.8731972 L0,17.7799461 Z" id="Fill-204" fill="#4F7FB7"></path>
                    <path d="M9.31330508,39.7932126 L9.31330508,39.7932126 C7.45064406,39.7932126 5.92664869,38.2692172 5.92664869,36.4065562 L5.92664869,26.246587 C5.92664869,24.383926 7.45064406,22.8599307 9.31330508,22.8599307 C11.1759661,22.8599307 12.6999615,24.383926 12.6999615,26.246587 L12.6999615,36.4065562 C12.6999615,38.2692172 11.1759661,39.7932126 9.31330508,39.7932126 L9.31330508,39.7932126 Z M19.4732743,33.8665639 L19.4732743,33.8665639 C17.6106132,33.8665639 16.0866179,32.3425686 16.0866179,30.4799075 L16.0866179,26.246587 C16.0866179,24.383926 17.6106132,22.8599307 19.4732743,22.8599307 C21.3359353,22.8599307 22.8599307,24.383926 22.8599307,26.246587 L22.8599307,30.4799075 C22.8599307,32.3425686 21.3359353,33.8665639 19.4732743,33.8665639 L19.4732743,33.8665639 Z M26.246587,39.7932126 L26.246587,22.8599307 L26.246587,39.7932126 Z M43.179869,22.8599307 L43.179869,39.7932126 L43.179869,22.8599307 Z M36.4065562,39.7932126 L36.4065562,22.8599307 L36.4065562,39.7932126 Z M16.0866179,30.4799075 L16.0866179,39.7932126 L16.0866179,30.4799075 Z M33.0198998,31.3265716 L26.246587,31.3265716 L33.0198998,31.3265716 Z M33.0198998,22.8599307 L26.246587,22.8599307 L33.0198998,22.8599307 Z M33.0198998,39.7932126 L26.246587,39.7932126 L33.0198998,39.7932126 Z M36.4065562,22.8599307 L43.179869,39.7932126 L36.4065562,22.8599307 Z" id="Stroke-205" stroke="#FFFFFF" stroke-width="2" stroke-linecap="round"></path>
                </g>
            </g>
        </g>
    </g>
</svg>