<?xml version="1.0" encoding="UTF-8" standalone="no"?>
<svg width="75px" height="75px" viewBox="0 0 75 75" version="1.1" xmlns="http://www.w3.org/2000/svg" xmlns:xlink="http://www.w3.org/1999/xlink" xmlns:sketch="http://www.bohemiancoding.com/sketch/ns">
    <!-- Generator: Sketch 3.3.3 (12072) - http://www.bohemiancoding.com/sketch -->
    <title>feature-nuke</title>
    <desc>Created with Sketch.</desc>
    <defs></defs>
    <g id="Page-1" stroke="none" stroke-width="1" fill="none" fill-rule="evenodd" sketch:type="MSPage">
        <g id="Features-Copy-2" sketch:type="MSArtboardGroup" transform="translate(-178.000000, -1566.000000)">
            <g id="feature-nuke" sketch:type="MSLayerGroup" transform="translate(178.000000, 1566.000000)">
                <circle id="Oval-34-Copy-8" fill="#FFFFFF" sketch:type="MSShapeGroup" cx="37.5" cy="37.5" r="37.5"></circle>
                <g id="24---Lisa-(Flat)" transform="translate(16.000000, 5.910670)" sketch:type="MSShapeGroup">
                    <path d="M39.5086364,37.9298246 L2.49136364,37.9298246 C1.11490909,37.9298246 0,36.9659123 0,35.7777193 L0,2.66333333 C0,1.19231579 1.38027273,0 3.08318182,0 L38.9168182,0 C40.6197273,0 42,1.19231579 42,2.66333333 L42,35.7777193 C42,36.9659123 40.8850909,37.9298246 39.5086364,37.9298246" id="Fill-1425" fill="#C1C0AB"></path>
                    <path d="M36.4135449,47 L5.58645511,47 C3.86517028,47 2.47058824,45.8208772 2.47058824,44.3663509 L2.47058824,37.9298246 L39.5294118,37.9298246 L39.5294118,44.3663509 C39.5294118,45.8208772 38.1348297,47 36.4135449,47" id="Fill-1426" fill="#9D957E"></path>
                    <path d="M5.86048693,26.3859649 C4.44303268,26.3859649 3.29411765,25.3487935 3.29411765,24.0692011 L3.29411765,4.8540027 C3.29411765,3.99531714 4.06629085,3.29824561 5.0174902,3.29824561 L36.9825098,3.29824561 C37.9337092,3.29824561 38.7058824,3.99531714 38.7058824,4.8540027 L38.7058824,24.0692011 C38.7058824,25.3487935 37.5569673,26.3859649 36.1395131,26.3859649 L5.86048693,26.3859649 Z" id="Fill-1486" fill="#323232"></path>
                    <path d="M8.23529412,41.2280702 L9.88235294,41.2280702 L9.88235294,47 L8.23529412,47 L8.23529412,41.2280702 Z" id="Fill-1487" fill="#7F6E5D"></path>
                    <path d="M4.94117647,41.2280702 L6.58823529,41.2280702 L6.58823529,47 L4.94117647,47 L4.94117647,41.2280702 Z" id="Fill-1487-Copy" fill="#7F6E5D"></path>
                    <path d="M11.5294118,41.2280702 L13.1764706,41.2280702 L13.1764706,47 L11.5294118,47 L11.5294118,41.2280702 Z" id="Fill-1488" fill="#7F6E5D"></path>
                    <path d="M14.8235294,41.2280702 L16.4705882,41.2280702 L16.4705882,47 L14.8235294,47 L14.8235294,41.2280702 Z" id="Fill-1489" fill="#7F6E5D"></path>
                    <path d="M18.1176471,41.2280702 L19.7647059,41.2280702 L19.7647059,47 L18.1176471,47 L18.1176471,41.2280702 Z" id="Fill-1490" fill="#7F6E5D"></path>
                    <path d="M21.4117647,41.2280702 L23.0588235,41.2280702 L23.0588235,47 L21.4117647,47 L21.4117647,41.2280702 Z" id="Fill-1491" fill="#7F6E5D"></path>
                    <path d="M24.7058824,41.2280702 L26.3529412,41.2280702 L26.3529412,47 L24.7058824,47 L24.7058824,41.2280702 Z" id="Fill-1492" fill="#7F6E5D"></path>
                    <path d="M28,41.2280702 L29.6470588,41.2280702 L29.6470588,47 L28,47 L28,41.2280702 Z" id="Fill-1493" fill="#7F6E5D"></path>
                    <path d="M31.2941176,41.2280702 L32.9411765,41.2280702 L32.9411765,47 L31.2941176,47 L31.2941176,41.2280702 Z" id="Fill-1493-Copy" fill="#7F6E5D"></path>
                    <path d="M34.5882353,41.2280702 L36.2352941,41.2280702 L36.2352941,47 L34.5882353,47 L34.5882353,41.2280702 Z" id="Fill-1493-Copy-2" fill="#7F6E5D"></path>
                    <path d="M3.29411765,32.9717368 L9.05882353,32.9717368 L9.05882353,34.6315789 L3.29411765,34.6315789 L3.29411765,32.9717368 Z" id="Fill-1494" fill="#0096E6"></path>
                    <path d="M3.29411765,31.322614 L9.05882353,31.322614 L9.05882353,32.9824561 L3.29411765,32.9824561 L3.29411765,31.322614 Z" id="Fill-1495" fill="#D75A4A"></path>
                    <path d="M3.29411765,29.6842105 L9.05882353,29.6842105 L9.05882353,31.3440526 L3.29411765,31.3440526 L3.29411765,29.6842105 Z" id="Fill-1496" fill="#F29C1F"></path>
                    <path d="M3.29411765,28.0350877 L9.05882353,28.0350877 L9.05882353,29.6949298 L3.29411765,29.6949298 L3.29411765,28.0350877 Z" id="Fill-1497" fill="#A4E869"></path>
                    <path d="M35.4117647,32.1578947 L38.7058824,32.1578947 L38.7058824,34.6315789 L35.4117647,34.6315789 L35.4117647,32.1578947 Z" id="Fill-1498" fill="#38454F"></path>
                    <path d="M30.4705882,28.0350877 L38.7058824,28.0350877 L38.7058824,29.6842105 L30.4705882,29.6842105 L30.4705882,28.0350877 Z" id="Fill-1499" fill="#9D957E"></path>
                    <path d="M6.58823529,10.7192982 C6.79905882,10.7192982 7.00988235,10.6384912 7.17047059,10.4777018 L10.4645882,7.17945614 C10.7865882,6.85705263 10.7865882,6.33592982 10.4645882,6.01352632 C10.1425882,5.69112281 9.62211765,5.69112281 9.30011765,6.01352632 L6.006,9.31177193 C5.684,9.63417544 5.684,10.1552982 6.006,10.4777018 C6.16658824,10.6384912 6.37741176,10.7192982 6.58823529,10.7192982" id="Fill-1501" fill="#D0E8F9"></path>
                    <path d="M7.65305882,11.7854561 L6.006,13.4345789 C5.684,13.7569825 5.684,14.2781053 6.006,14.6005088 C6.16658824,14.7612982 6.37741176,14.8421053 6.58823529,14.8421053 C6.79905882,14.8421053 7.00988235,14.7612982 7.17047059,14.6005088 L8.81752941,12.951386 C9.13952941,12.6289825 9.13952941,12.1078596 8.81752941,11.7854561 C8.49552941,11.4630526 7.97505882,11.4630526 7.65305882,11.7854561" id="Fill-1502" fill="#D0E8F9"></path>
                    <path d="M9.29764706,10.1338596 C9.14117647,10.2905263 9.05882353,10.5049123 9.05882353,10.7192982 C9.05882353,10.9336842 9.14858824,11.1480702 9.29764706,11.3047368 C9.44588235,11.4531579 9.65917647,11.5438596 9.88235294,11.5438596 C10.1038824,11.5438596 10.3097647,11.4531579 10.4670588,11.3047368 C10.6152941,11.1480702 10.7058824,10.9336842 10.7058824,10.7192982 C10.7058824,10.5049123 10.6152941,10.2905263 10.4670588,10.1338596 C10.1541176,9.82877193 9.60235294,9.82877193 9.29764706,10.1338596" id="Fill-1503" fill="#D0E8F9"></path>
                    <path d="M14.5822353,6.01352632 C14.2602353,5.69112281 13.7397647,5.69112281 13.4177647,6.01352632 L10.9471765,8.48721053 C10.6251765,8.80961404 10.6251765,9.33073684 10.9471765,9.65314035 C11.1077647,9.81392982 11.3185882,9.89473684 11.5294118,9.89473684 C11.7402353,9.89473684 11.9510588,9.81392982 12.1116471,9.65314035 L14.5822353,7.17945614 C14.9042353,6.85705263 14.9042353,6.33592982 14.5822353,6.01352632" id="Fill-1504" fill="#D0E8F9"></path>
                </g>
            </g>
        </g>
    </g>
</svg>