<?xml version="1.0" encoding="UTF-8" standalone="no"?>
<svg width="75px" height="75px" viewBox="0 0 75 75" version="1.1" xmlns="http://www.w3.org/2000/svg" xmlns:xlink="http://www.w3.org/1999/xlink" xmlns:sketch="http://www.bohemiancoding.com/sketch/ns">
    <!-- Generator: Sketch 3.3.3 (12072) - http://www.bohemiancoding.com/sketch -->
    <title>feature-templates</title>
    <desc>Created with Sketch.</desc>
    <defs></defs>
    <g id="Page-1" stroke="none" stroke-width="1" fill="none" fill-rule="evenodd" sketch:type="MSPage">
        <g id="Features-Copy-2" sketch:type="MSArtboardGroup" transform="translate(-720.000000, -2185.000000)">
            <g id="feature-templates" sketch:type="MSLayerGroup" transform="translate(720.000000, 2185.000000)">
                <circle id="Oval-34-Copy-8" fill="#FFFFFF" sketch:type="MSShapeGroup" cx="37.5" cy="37.5" r="37.5"></circle>
                <g id="15---Isotope-(Flat)-Copy" transform="translate(15.000000, 9.000000)" sketch:type="MSShapeGroup">
                    <g id="15---Isotope-(Flat)">
                        <path d="M0,0 L43.9137931,0 L43.9137931,43.9137931 L0,43.9137931 L0,0 Z" id="Fill-1644" fill="#ECF0F1"></path>
                        <path d="M0,0 L43.9137931,0 L43.9137931,9.08561237 L0,9.08561237 L0,0 Z" id="Fill-1645" fill="#546A79"></path>
                        <path d="M6.81420927,4.54280618 C6.81420927,5.79737782 5.79737782,6.81420927 4.54280618,6.81420927 C3.28823454,6.81420927 2.27140309,5.79737782 2.27140309,4.54280618 C2.27140309,3.28823454 3.28823454,2.27140309 4.54280618,2.27140309 C5.79737782,2.27140309 6.81420927,3.28823454 6.81420927,4.54280618" id="Fill-1646" fill="#ED7161"></path>
                        <path d="M13.6284185,4.54280618 C13.6284185,5.79737782 12.6115871,6.81420927 11.3570155,6.81420927 C10.1024438,6.81420927 9.08561237,5.79737782 9.08561237,4.54280618 C9.08561237,3.28823454 10.1024438,2.27140309 11.3570155,2.27140309 C12.6115871,2.27140309 13.6284185,3.28823454 13.6284185,4.54280618" id="Fill-1647" fill="#F0C419"></path>
                        <path d="M20.4426278,4.54280618 C20.4426278,5.79737782 19.4257964,6.81420927 18.1712247,6.81420927 C16.9166531,6.81420927 15.8998216,5.79737782 15.8998216,4.54280618 C15.8998216,3.28823454 16.9166531,2.27140309 18.1712247,2.27140309 C19.4257964,2.27140309 20.4426278,3.28823454 20.4426278,4.54280618" id="Fill-1648" fill="#4FBA6F"></path>
                        <path d="M3.02853746,33.313912 L12.8712842,33.313912 L12.8712842,40.8852556 L3.02853746,40.8852556 L3.02853746,33.313912 Z" id="Fill-1649" fill="#F0C419"></path>
                        <path d="M16.656956,33.313912 L26.4997027,33.313912 L26.4997027,40.8852556 L16.656956,40.8852556 L16.656956,33.313912 Z" id="Fill-1650" fill="#F29C1F"></path>
                        <path d="M3.02853746,12.1141498 L12.8712842,12.1141498 L12.8712842,19.6854935 L3.02853746,19.6854935 L3.02853746,12.1141498 Z" id="Fill-1651" fill="#8697CB"></path>
                        <path d="M16.656956,12.1141498 L26.4997027,12.1141498 L26.4997027,19.6854935 L16.656956,19.6854935 L16.656956,12.1141498 Z" id="Fill-1652" fill="#556080"></path>
                        <path d="M30.2853746,12.1141498 L40.1281213,12.1141498 L40.1281213,19.6854935 L30.2853746,19.6854935 L30.2853746,12.1141498 Z" id="Fill-1653" fill="#9777A8"></path>
                        <path d="M3.02853746,22.7140309 L12.8712842,22.7140309 L12.8712842,30.2853746 L3.02853746,30.2853746 L3.02853746,22.7140309 Z" id="Fill-1654" fill="#67B9CC"></path>
                        <path d="M30.2853746,33.313912 L40.1281213,33.313912 L40.1281213,40.8852556 L30.2853746,40.8852556 L30.2853746,33.313912 Z" id="Fill-1655" fill="#E57E25"></path>
                        <path d="M16.656956,22.7140309 L26.4997027,22.7140309 L26.4997027,30.2853746 L16.656956,30.2853746 L16.656956,22.7140309 Z" id="Fill-1656" fill="#26B99A"></path>
                        <path d="M30.2853746,22.7140309 L40.1281213,22.7140309 L40.1281213,30.2853746 L30.2853746,30.2853746 L30.2853746,22.7140309 Z" id="Fill-1657" fill="#71C285"></path>
                    </g>
                </g>
            </g>
        </g>
    </g>
</svg>