<?xml version="1.0" encoding="UTF-8" standalone="no"?>
<svg width="75px" height="75px" viewBox="0 0 75 75" version="1.1" xmlns="http://www.w3.org/2000/svg" xmlns:xlink="http://www.w3.org/1999/xlink" xmlns:sketch="http://www.bohemiancoding.com/sketch/ns">
    <!-- Generator: Sketch 3.3.3 (12072) - http://www.bohemiancoding.com/sketch -->
    <title>feature-private</title>
    <desc>Created with Sketch.</desc>
    <defs></defs>
    <g id="Page-1" stroke="none" stroke-width="1" fill="none" fill-rule="evenodd" sketch:type="MSPage">
        <g id="Features-Copy-2" sketch:type="MSArtboardGroup" transform="translate(-135.000000, -611.000000)">
            <g id="feature-private" sketch:type="MSLayerGroup" transform="translate(135.000000, 611.000000)">
                <circle id="Oval-30-Copy-3" fill="#FFFFFF" sketch:type="MSShapeGroup" cx="37.5" cy="37.5" r="37.5"></circle>
                <g id="feature" transform="translate(19.136513, 4.675437)" sketch:type="MSShapeGroup">
                    <path d="M32.9601056,20.7028586 L29.1932364,20.7028586 L29.1932364,14.5780955 C29.1932364,8.6505736 24.3349168,3.82797697 18.3634874,3.82797697 C12.392058,3.82797697 7.53373843,8.6505736 7.53373843,14.5780955 L7.53373843,20.7028586 L3.76686921,20.7028586 L3.76686921,14.5780955 C3.76686921,6.58842044 10.3146296,0.0888053266 18.3634874,0.0888053266 C26.4123452,0.0888053266 32.9601056,6.58842044 32.9601056,14.5780955 L32.9601056,20.7028586" id="Fill-2559" fill="#556080"></path>
                    <path d="M30.1349537,47.8109182 L6.59202112,47.8109182 C2.95134203,47.8109182 0,44.8812773 0,41.2683027 L0,20.7028586 L36.7269748,20.7028586 L36.7269748,41.2683027 C36.7269748,44.8812773 33.7756328,47.8109182 30.1349537,47.8109182" id="Fill-2565" fill="#97A5AF"></path>
                    <path d="M6.59202112,47.8109182 L17.8926288,47.8109182 L17.8926288,20.7028586 L0,20.7028586 L0,41.2683027 C0,44.8812773 2.95134203,47.8109182 6.59202112,47.8109182" id="Fill-2566" fill="#ABBCC6"></path>
                    <path d="M30.1349537,47.8109182 L6.59202112,47.8109182 C2.95134203,47.8109182 0,44.8812773 0,41.2683027 L36.7269748,41.2683027 C36.7269748,44.8812773 33.7756328,47.8109182 30.1349537,47.8109182" id="Fill-2576" fill="#3D74B5"></path>
                    <path d="M24.4846499,25.3758884 L29.1932364,25.3758884 L29.1932364,36.5934033 L24.4846499,36.5934033 L24.4846499,25.3758884 Z" id="Fill-2577" fill="#556080"></path>
                    <path d="M16.0091942,25.3758884 L20.7177807,25.3758884 L20.7177807,36.5934033 L16.0091942,36.5934033 L16.0091942,25.3758884 Z" id="Fill-2578" fill="#556080"></path>
                    <path d="M7.53373843,25.3758884 L12.2423249,25.3758884 L12.2423249,36.5934033 L7.53373843,36.5934033 L7.53373843,25.3758884 Z" id="Fill-2579" fill="#556080"></path>
                    <path d="M8.47545573,26.3116161 L11.3006076,26.3116161 L11.3006076,28.1812019 L8.47545573,28.1812019 L8.47545573,26.3116161 Z" id="Fill-2651" fill="#313847"></path>
                    <path d="M8.47545573,30.0507877 L11.3006076,30.0507877 L11.3006076,31.9203735 L8.47545573,31.9203735 L8.47545573,30.0507877 Z" id="Fill-2652" fill="#313847"></path>
                    <path d="M8.47545573,33.7890246 L11.3006076,33.7890246 L11.3006076,35.6586104 L8.47545573,35.6586104 L8.47545573,33.7890246 Z" id="Fill-2653" fill="#3D74B5"></path>
                    <path d="M16.9509115,26.3116161 L19.7760634,26.3116161 L19.7760634,28.1812019 L16.9509115,28.1812019 L16.9509115,26.3116161 Z" id="Fill-2654" fill="#313847"></path>
                    <path d="M16.9509115,30.0507877 L19.7760634,30.0507877 L19.7760634,31.9203735 L16.9509115,31.9203735 L16.9509115,30.0507877 Z" id="Fill-2655" fill="#3D74B5"></path>
                    <path d="M16.9509115,33.7890246 L19.7760634,33.7890246 L19.7760634,35.6586104 L16.9509115,35.6586104 L16.9509115,33.7890246 Z" id="Fill-2656" fill="#313847"></path>
                    <path d="M25.4263672,26.3116161 L28.2515191,26.3116161 L28.2515191,28.1812019 L25.4263672,28.1812019 L25.4263672,26.3116161 Z" id="Fill-2657" fill="#313847"></path>
                    <path d="M25.4263672,30.0507877 L28.2515191,30.0507877 L28.2515191,31.9203735 L25.4263672,31.9203735 L25.4263672,30.0507877 Z" id="Fill-2658" fill="#313847"></path>
                    <path d="M25.4263672,33.7890246 L28.2515191,33.7890246 L28.2515191,35.6586104 L25.4263672,35.6586104 L25.4263672,33.7890246 Z" id="Fill-2659" fill="#3D74B5"></path>
                    <path d="M0,41.2683027 C0,44.8812773 2.95134203,47.8109182 6.59202112,47.8109182 L17.8926288,47.8109182 L17.8926288,41.2683027 L0,41.2683027" id="Fill-2672" fill="#618FC7"></path>
                </g>
            </g>
        </g>
    </g>
</svg>