<?xml version="1.0" encoding="UTF-8" standalone="no"?>
<svg width="76px" height="76px" viewBox="0 0 76 76" version="1.1" xmlns="http://www.w3.org/2000/svg" xmlns:xlink="http://www.w3.org/1999/xlink" xmlns:sketch="http://www.bohemiancoding.com/sketch/ns">
    <!-- Generator: Sketch 3.3.3 (12072) - http://www.bohemiancoding.com/sketch -->
    <title>feature-10</title>
    <desc>Created with Sketch.</desc>
    <defs></defs>
    <g id="Page-1" stroke="none" stroke-width="1" fill="none" fill-rule="evenodd" sketch:type="MSPage">
        <g id="Features-Copy-2" sketch:type="MSArtboardGroup" transform="translate(-782.000000, -1221.000000)">
            <g id="feature-10" sketch:type="MSLayerGroup" transform="translate(782.000000, 1221.000000)">
                <circle id="Oval-34-Copy-11" fill="#F7F7F7" sketch:type="MSShapeGroup" cx="38" cy="37.6755371" r="37.5"></circle>
                <g transform="translate(18.272192, 14.000000)" sketch:type="MSShapeGroup">
                    <path d="M2.46597606,11.5078883 L2.46597606,36.5786449 C2.46597606,42.6819356 7.45957757,47.6755371 13.5628683,47.6755371 L25.0707566,47.6755371 C18.9674658,47.6755371 13.9738643,42.6819356 13.9738643,36.5786449 L13.9738643,11.5078883 L2.46597606,11.5078883" id="Fill-2303" fill="#E64C3C"></path>
                    <path d="M25.4817526,18.9058164 L25.4817526,36.5786449 C25.4817526,40.7477884 23.1497612,44.395789 19.7278085,46.2913025 C21.315897,47.170834 23.1366094,47.6755371 25.0707566,47.6755371 L25.8927486,47.6755371 C31.9960393,47.6755371 36.9896409,42.6819356 36.9896409,36.5786449 L36.9896409,18.9058164 L25.4817526,18.9058164" id="Fill-2304" fill="#E64C3C"></path>
                    <path d="M15.4567379,11.5078883 L0.983924447,11.5078883 C0.440587722,11.5078883 0,11.0673005 0,10.5239638 L0,5.09306255 C0,4.55054782 0.440587722,4.1099601 0.983924447,4.1099601 L15.4567379,4.1099601 C15.9992527,4.1099601 16.4398404,4.55054782 16.4398404,5.09306255 L16.4398404,10.5239638 C16.4398404,11.0673005 15.9992527,11.5078883 15.4567379,11.5078883" id="Fill-2305" fill="#485762"></path>
                    <path d="M12.3298803,7.39792817 L4.1099601,7.39792817 C3.65539851,7.39792817 3.28796808,7.03049774 3.28796808,6.57593615 C3.28796808,6.12137457 3.65539851,5.75394413 4.1099601,5.75394413 L12.3298803,5.75394413 C12.7844419,5.75394413 13.1518723,6.12137457 13.1518723,6.57593615 C13.1518723,7.03049774 12.7844419,7.39792817 12.3298803,7.39792817" id="Fill-2306" fill="#667D8C"></path>
                    <path d="M12.3298803,9.86390423 L4.1099601,9.86390423 C3.65539851,9.86390423 3.28796808,9.4964738 3.28796808,9.04191221 C3.28796808,8.58735062 3.65539851,8.21992019 4.1099601,8.21992019 L12.3298803,8.21992019 C12.7844419,8.21992019 13.1518723,8.58735062 13.1518723,9.04191221 C13.1518723,9.4964738 12.7844419,9.86390423 12.3298803,9.86390423" id="Fill-2307" fill="#667D8C"></path>
                    <path d="M38.4725145,18.9058164 L23.998879,18.9058164 C23.4563643,18.9058164 23.0157765,18.4652287 23.0157765,17.921892 L23.0157765,12.4909907 C23.0157765,11.948476 23.4563643,11.5078883 23.998879,11.5078883 L38.4725145,11.5078883 C39.0150292,11.5078883 39.4556169,11.948476 39.4556169,12.4909907 L39.4556169,17.921892 C39.4556169,18.4652287 39.0150292,18.9058164 38.4725145,18.9058164" id="Fill-2308" fill="#485762"></path>
                    <path d="M35.3456568,14.7958563 L27.1257366,14.7958563 C26.671175,14.7958563 26.3037446,14.4284259 26.3037446,13.9738643 C26.3037446,13.5193027 26.671175,13.1518723 27.1257366,13.1518723 L35.3456568,13.1518723 C35.8002184,13.1518723 36.1676488,13.5193027 36.1676488,13.9738643 C36.1676488,14.4284259 35.8002184,14.7958563 35.3456568,14.7958563" id="Fill-2309" fill="#667D8C"></path>
                    <path d="M35.3456568,17.2618324 L27.1257366,17.2618324 C26.671175,17.2618324 26.3037446,16.894402 26.3037446,16.4398404 C26.3037446,15.9852788 26.671175,15.6178484 27.1257366,15.6178484 L35.3456568,15.6178484 C35.8002184,15.6178484 36.1676488,15.9852788 36.1676488,16.4398404 C36.1676488,16.894402 35.8002184,17.2618324 35.3456568,17.2618324" id="Fill-2310" fill="#667D8C"></path>
                    <path d="M32.8796808,28.7697207 C32.4251192,28.7697207 32.0576887,29.1371511 32.0576887,29.5917127 L32.0576887,35.9925645 C32.0576887,38.5711535 31.1378797,41.0716532 29.4675919,43.0321042 C29.1733188,43.3781628 29.2152403,43.8968398 29.560477,44.1919349 C29.7150115,44.3234537 29.9048916,44.387569 30.0931278,44.387569 C30.3257516,44.387569 30.5567313,44.289752 30.7194857,44.0982278 C32.6429471,41.8402158 33.7016728,38.9607777 33.7016728,35.9925645 L33.7016728,29.5917127 C33.7016728,29.1371511 33.3342424,28.7697207 32.8796808,28.7697207" id="Fill-2311" fill="#C03A2B"></path>
                    <path d="M30.4137047,29.5917127 C30.4137047,29.1371511 30.0462743,28.7697207 29.5917127,28.7697207 C29.1371511,28.7697207 28.7697207,29.1371511 28.7697207,29.5917127 L28.7697207,35.9925645 C28.7697207,38.5727975 27.8499116,41.0724752 26.1796238,43.0321042 C25.8845287,43.3773408 25.9256283,43.8960178 26.2716869,44.1902909 C26.4262214,44.3234537 26.6161016,44.387569 26.8043378,44.387569 C27.0369615,44.387569 27.2679413,44.289752 27.4298737,44.0982278 C29.354157,41.8410378 30.4137047,38.9624217 30.4137047,35.9925645 L30.4137047,29.5917127" id="Fill-2312" fill="#C03A2B"></path>
                    <path d="M6.57593615,0 L6.57593615,1.64398404 C6.57593615,2.09854562 6.20850572,2.46597606 5.75394413,2.46597606 C5.29938255,2.46597606 4.93195211,2.09854562 4.93195211,1.64398404 L4.93195211,0 L2.46597606,0 L2.46597606,4.1099601 L13.9738643,4.1099601 L13.9738643,0 L6.57593615,0" id="Fill-2313" fill="#667D8C"></path>
                    <path d="M5.75394413,2.46597606 C6.20850572,2.46597606 6.57593615,2.09854562 6.57593615,1.64398404 L6.57593615,0 L4.93195211,0 L4.93195211,1.64398404 C4.93195211,2.09854562 5.29938255,2.46597606 5.75394413,2.46597606" id="Fill-2314" fill="#95A5A5"></path>
                    <path d="M29.5917127,7.39792817 L29.5917127,9.04191221 C29.5917127,9.4964738 29.2242823,9.86390423 28.7697207,9.86390423 C28.3151591,9.86390423 27.9477287,9.4964738 27.9477287,9.04191221 L27.9477287,7.39792817 L25.4817526,7.39792817 L25.4817526,11.5078883 L36.9896409,11.5078883 L36.9896409,7.39792817 L29.5917127,7.39792817" id="Fill-2315" fill="#667D8C"></path>
                    <path d="M28.7697207,9.86390423 C29.2242823,9.86390423 29.5917127,9.4964738 29.5917127,9.04191221 L29.5917127,7.39792817 L27.9477287,7.39792817 L27.9477287,9.04191221 C27.9477287,9.4964738 28.3151591,9.86390423 28.7697207,9.86390423" id="Fill-2316" fill="#95A5A5"></path>
                    <path d="M25.0707566,47.6755371 C23.5615792,47.6755371 22.1206272,47.3681121 20.80544,46.8157335 C15.1632868,46.4318632 10.6858962,41.7308908 10.6858962,35.9925645 L10.6858962,18.9058164 C10.6858962,18.4512549 10.3184658,18.0838244 9.86390423,18.0838244 C9.40934264,18.0838244 9.04191221,18.4512549 9.04191221,18.9058164 L9.04191221,35.9925645 C9.04191221,40.1049906 11.0459288,43.7488812 14.1193569,46.0290871 C10.1795492,44.3974329 7.39792817,40.5151646 7.39792817,35.9925645 L7.39792817,18.9058164 C7.39792817,18.4512549 7.03049774,18.0838244 6.57593615,18.0838244 C6.12137457,18.0838244 5.75394413,18.4512549 5.75394413,18.9058164 L5.75394413,35.9925645 C5.75394413,41.3305807 9.12164544,45.8844165 13.8382356,47.6755371 L25.0707566,47.6755371" id="Fill-2521" fill="#C03A2B"></path>
                </g>
            </g>
        </g>
    </g>
</svg>