<?xml version="1.0" encoding="UTF-8" standalone="no"?>
<svg width="75px" height="76px" viewBox="0 0 75 76" version="1.1" xmlns="http://www.w3.org/2000/svg" xmlns:xlink="http://www.w3.org/1999/xlink" xmlns:sketch="http://www.bohemiancoding.com/sketch/ns">
    <!-- Generator: Sketch 3.3.3 (12072) - http://www.bohemiancoding.com/sketch -->
    <title>feature-11</title>
    <desc>Created with Sketch.</desc>
    <defs></defs>
    <g id="Page-1" stroke="none" stroke-width="1" fill="none" fill-rule="evenodd" sketch:type="MSPage">
        <g id="Features-Copy-2" sketch:type="MSArtboardGroup" transform="translate(-980.000000, -1221.000000)">
            <g id="feature-11" sketch:type="MSLayerGroup" transform="translate(980.000000, 1221.000000)">
                <circle id="Oval-34-Copy-12" fill="#F7F7F7" sketch:type="MSShapeGroup" cx="37.5" cy="37.6755371" r="37.5"></circle>
                <g transform="translate(14.500000, 12.675537)" sketch:type="MSShapeGroup">
                    <path d="M0,19.0344828 L48,19.0344828 L48,48 L0,48 L0,19.0344828 Z" id="Fill-154" fill="#A98258"></path>
                    <path d="M40.5517241,34.7586207 L37.2413793,38.0689655 L40.5517241,41.3793103 L38.8965517,43.0344828 L48,43.0344828 L48,33.1034483 L38.8965517,33.1034483 L40.5517241,34.7586207" id="Fill-155" fill="#F4D5BD"></path>
                    <path d="M12.9831724,4.13793103 L3.56855172,4.13793103 C3.4262069,4.13793103 3.31034483,4.02206897 3.31034483,3.87972414 L3.31034483,2.32634483 C3.31034483,1.04193103 4.35227586,0 5.63668966,0 L10.9150345,0 C12.1994483,0 13.2413793,1.04193103 13.2413793,2.32634483 L13.2413793,3.87972414 C13.2413793,4.02206897 13.1255172,4.13793103 12.9831724,4.13793103" id="Fill-156" fill="#F0C419"></path>
                    <path d="M4.96551724,2.48275862 L6.62068966,2.48275862 L6.62068966,4.13793103 L4.96551724,4.13793103 L4.96551724,2.48275862 Z" id="Fill-157" fill="#AA891D"></path>
                    <path d="M7.44827586,2.48275862 L9.10344828,2.48275862 L9.10344828,4.13793103 L7.44827586,4.13793103 L7.44827586,2.48275862 Z" id="Fill-158" fill="#AA891D"></path>
                    <path d="M9.93103448,2.48275862 L11.5862069,2.48275862 L11.5862069,4.13793103 L9.93103448,4.13793103 L9.93103448,2.48275862 Z" id="Fill-159" fill="#AA891D"></path>
                    <path d="M28.7073103,4.13793103 L19.2926897,4.13793103 C19.1503448,4.13793103 19.0344828,4.02206897 19.0344828,3.87972414 L19.0344828,2.32634483 C19.0344828,1.04193103 20.0764138,0 21.3608276,0 L26.6391724,0 C27.9235862,0 28.9655172,1.04193103 28.9655172,2.32634483 L28.9655172,3.87972414 C28.9655172,4.02206897 28.8496552,4.13793103 28.7073103,4.13793103" id="Fill-160" fill="#F0C419"></path>
                    <path d="M20.6896552,2.48275862 L22.3448276,2.48275862 L22.3448276,4.13793103 L20.6896552,4.13793103 L20.6896552,2.48275862 Z" id="Fill-161" fill="#AA891D"></path>
                    <path d="M23.1724138,2.48275862 L24.8275862,2.48275862 L24.8275862,4.13793103 L23.1724138,4.13793103 L23.1724138,2.48275862 Z" id="Fill-162" fill="#AA891D"></path>
                    <path d="M25.6551724,2.48275862 L27.3103448,2.48275862 L27.3103448,4.13793103 L25.6551724,4.13793103 L25.6551724,2.48275862 Z" id="Fill-163" fill="#AA891D"></path>
                    <path d="M44.4314483,4.13793103 L35.0168276,4.13793103 C34.8744828,4.13793103 34.7586207,4.02206897 34.7586207,3.87972414 L34.7586207,2.32634483 C34.7586207,1.04193103 35.8005517,0 37.0849655,0 L42.3633103,0 C43.6477241,0 44.6896552,1.04193103 44.6896552,2.32634483 L44.6896552,3.87972414 C44.6896552,4.02206897 44.5737931,4.13793103 44.4314483,4.13793103" id="Fill-164" fill="#F0C419"></path>
                    <path d="M36.4137931,2.48275862 L38.0689655,2.48275862 L38.0689655,4.13793103 L36.4137931,4.13793103 L36.4137931,2.48275862 Z" id="Fill-165" fill="#AA891D"></path>
                    <path d="M38.8965517,2.48275862 L40.5517241,2.48275862 L40.5517241,4.13793103 L38.8965517,4.13793103 L38.8965517,2.48275862 Z" id="Fill-166" fill="#AA891D"></path>
                    <path d="M41.3793103,2.48275862 L43.0344828,2.48275862 L43.0344828,4.13793103 L41.3793103,4.13793103 L41.3793103,2.48275862 Z" id="Fill-167" fill="#AA891D"></path>
                    <path d="M46.3448276,19.0344828 L46.3448276,17.5746207 C46.3448276,16.4408276 45.7042759,15.4038621 44.6896552,14.8965517 C43.6750345,14.3892414 43.0344828,13.3522759 43.0344828,12.2184828 L43.0344828,4.13793103 L36.4137931,4.13793103 L36.4137931,12.2184828 C36.4137931,13.3522759 35.7732414,14.3892414 34.7586207,14.8965517 C33.744,15.4038621 33.1034483,16.4408276 33.1034483,17.5746207 L33.1034483,19.0344828 L46.3448276,19.0344828" id="Fill-168" fill="#6A3006"></path>
                    <path d="M30.6206897,19.0344828 L30.6206897,17.5746207 C30.6206897,16.4408276 29.9801379,15.4038621 28.9655172,14.8965517 C27.9508966,14.3892414 27.3103448,13.3522759 27.3103448,12.2184828 L27.3103448,4.13793103 L20.6896552,4.13793103 L20.6896552,12.2184828 C20.6896552,13.3522759 20.0491034,14.3892414 19.0344828,14.8965517 C18.0198621,15.4038621 17.3793103,16.4408276 17.3793103,17.5746207 L17.3793103,19.0344828 L30.6206897,19.0344828" id="Fill-169" fill="#6A3006"></path>
                    <path d="M14.8965517,19.0344828 L14.8965517,17.5746207 C14.8965517,16.4408276 14.256,15.4038621 13.2413793,14.8965517 C12.2267586,14.3892414 11.5862069,13.3522759 11.5862069,12.2184828 L11.5862069,4.13793103 L4.96551724,4.13793103 L4.96551724,12.2184828 C4.96551724,13.3522759 4.32496552,14.3892414 3.31034483,14.8965517 C2.29572414,15.4038621 1.65517241,16.4408276 1.65517241,17.5746207 L1.65517241,19.0344828 L14.8965517,19.0344828" id="Fill-170" fill="#6A3006"></path>
                    <path d="M0,44.6896552 L8.27586207,44.6896552 L8.27586207,46.3448276 L0,46.3448276 L0,44.6896552 Z" id="Fill-245" fill="#7C5F42"></path>
                    <path d="M0,42.2068966 L6.62068966,42.2068966 L6.62068966,43.862069 L0,43.862069 L0,42.2068966 Z" id="Fill-246" fill="#7C5F42"></path>
                    <path d="M0,39.7241379 L4.96551724,39.7241379 L4.96551724,41.3793103 L0,41.3793103 L0,39.7241379 Z" id="Fill-247" fill="#7C5F42"></path>
                    <path d="M0,37.2413793 L3.31034483,37.2413793 L3.31034483,38.8965517 L0,38.8965517 L0,37.2413793 Z" id="Fill-248" fill="#7C5F42"></path>
                </g>
            </g>
        </g>
    </g>
</svg>