<?xml version="1.0" encoding="UTF-8" standalone="no"?>
<svg width="75px" height="75px" viewBox="0 0 75 75" version="1.1" xmlns="http://www.w3.org/2000/svg" xmlns:xlink="http://www.w3.org/1999/xlink" xmlns:sketch="http://www.bohemiancoding.com/sketch/ns">
    <!-- Generator: Sketch 3.3.3 (12072) - http://www.bohemiancoding.com/sketch -->
    <title>feature-4</title>
    <desc>Created with Sketch.</desc>
    <defs></defs>
    <g id="Page-1" stroke="none" stroke-width="1" fill="none" fill-rule="evenodd" sketch:type="MSPage">
        <g id="Features-Copy-2" sketch:type="MSArtboardGroup" transform="translate(-780.000000, -1078.000000)">
            <g id="feature-4" sketch:type="MSLayerGroup" transform="translate(780.000000, 1078.000000)">
                <circle id="Oval-34-Copy-4" fill="#F7F7F7" sketch:type="MSShapeGroup" cx="37.5" cy="37.5" r="37.5"></circle>
                <g id="15---Isotope-(Flat)" transform="translate(17.000000, 17.000000)" sketch:type="MSShapeGroup">
                    <path d="M0,0 L42,0 L42,42 L0,42 L0,0 Z" id="Fill-1644" fill="#ECF0F1"></path>
                    <path d="M0,0 L42,0 L42,8.68965517 L0,8.68965517 L0,0 Z" id="Fill-1645" fill="#546A79"></path>
                    <path d="M6.51724138,4.34482759 C6.51724138,5.54472414 5.54472414,6.51724138 4.34482759,6.51724138 C3.14493103,6.51724138 2.17241379,5.54472414 2.17241379,4.34482759 C2.17241379,3.14493103 3.14493103,2.17241379 4.34482759,2.17241379 C5.54472414,2.17241379 6.51724138,3.14493103 6.51724138,4.34482759" id="Fill-1646" fill="#ED7161"></path>
                    <path d="M13.0344828,4.34482759 C13.0344828,5.54472414 12.0619655,6.51724138 10.862069,6.51724138 C9.66217241,6.51724138 8.68965517,5.54472414 8.68965517,4.34482759 C8.68965517,3.14493103 9.66217241,2.17241379 10.862069,2.17241379 C12.0619655,2.17241379 13.0344828,3.14493103 13.0344828,4.34482759" id="Fill-1647" fill="#F0C419"></path>
                    <path d="M19.5517241,4.34482759 C19.5517241,5.54472414 18.5792069,6.51724138 17.3793103,6.51724138 C16.1794138,6.51724138 15.2068966,5.54472414 15.2068966,4.34482759 C15.2068966,3.14493103 16.1794138,2.17241379 17.3793103,2.17241379 C18.5792069,2.17241379 19.5517241,3.14493103 19.5517241,4.34482759" id="Fill-1648" fill="#4FBA6F"></path>
                    <path d="M2.89655172,31.862069 L12.3103448,31.862069 L12.3103448,39.1034483 L2.89655172,39.1034483 L2.89655172,31.862069 Z" id="Fill-1649" fill="#F0C419"></path>
                    <path d="M15.9310345,31.862069 L25.3448276,31.862069 L25.3448276,39.1034483 L15.9310345,39.1034483 L15.9310345,31.862069 Z" id="Fill-1650" fill="#F29C1F"></path>
                    <path d="M2.89655172,11.5862069 L12.3103448,11.5862069 L12.3103448,18.8275862 L2.89655172,18.8275862 L2.89655172,11.5862069 Z" id="Fill-1651" fill="#8697CB"></path>
                    <path d="M15.9310345,11.5862069 L25.3448276,11.5862069 L25.3448276,18.8275862 L15.9310345,18.8275862 L15.9310345,11.5862069 Z" id="Fill-1652" fill="#556080"></path>
                    <path d="M28.9655172,11.5862069 L38.3793103,11.5862069 L38.3793103,18.8275862 L28.9655172,18.8275862 L28.9655172,11.5862069 Z" id="Fill-1653" fill="#9777A8"></path>
                    <path d="M2.89655172,21.7241379 L12.3103448,21.7241379 L12.3103448,28.9655172 L2.89655172,28.9655172 L2.89655172,21.7241379 Z" id="Fill-1654" fill="#67B9CC"></path>
                    <path d="M28.9655172,31.862069 L38.3793103,31.862069 L38.3793103,39.1034483 L28.9655172,39.1034483 L28.9655172,31.862069 Z" id="Fill-1655" fill="#E57E25"></path>
                    <path d="M15.9310345,21.7241379 L25.3448276,21.7241379 L25.3448276,28.9655172 L15.9310345,28.9655172 L15.9310345,21.7241379 Z" id="Fill-1656" fill="#26B99A"></path>
                    <path d="M28.9655172,21.7241379 L38.3793103,21.7241379 L38.3793103,28.9655172 L28.9655172,28.9655172 L28.9655172,21.7241379 Z" id="Fill-1657" fill="#71C285"></path>
                </g>
            </g>
        </g>
    </g>
</svg>