<?xml version="1.0" encoding="UTF-8" standalone="no"?>
<svg width="75px" height="76px" viewBox="0 0 75 76" version="1.1" xmlns="http://www.w3.org/2000/svg" xmlns:xlink="http://www.w3.org/1999/xlink" xmlns:sketch="http://www.bohemiancoding.com/sketch/ns">
    <!-- Generator: Sketch 3.3.3 (12072) - http://www.bohemiancoding.com/sketch -->
    <title>feature-7</title>
    <desc>Created with Sketch.</desc>
    <defs></defs>
    <g id="Page-1" stroke="none" stroke-width="1" fill="none" fill-rule="evenodd" sketch:type="MSPage">
        <g id="Features-Copy-2" sketch:type="MSArtboardGroup" transform="translate(-178.000000, -1222.000000)">
            <g id="feature-7" sketch:type="MSLayerGroup" transform="translate(178.000000, 1222.000000)">
                <circle id="Oval-34-Copy-8" fill="#F7F7F7" sketch:type="MSShapeGroup" cx="37.5" cy="37.7530343" r="37.5"></circle>
                <g transform="translate(15.250000, 11.089823)" sketch:type="MSShapeGroup">
                    <path d="M37.0833333,38.7314815 L9.06481481,38.7314815 L9.06481481,20.6018519 C9.06481481,12.8646204 15.3368426,6.59259259 23.0740741,6.59259259 C30.8113056,6.59259259 37.0833333,12.8646204 37.0833333,20.6018519 L37.0833333,38.7314815" id="Fill-1223" fill="#E64C3C"></path>
                    <path d="M6.59259259,38.7314815 L39.5555556,38.7314815 L39.5555556,48.6203704 L6.59259259,48.6203704 L6.59259259,38.7314815 Z" id="Fill-1244" fill="#556080"></path>
                    <path d="M38.1488611,3.53775 L35.6766389,6.00997222 C35.3544259,6.33218519 35.3544259,6.853 35.6766389,7.17521296 C35.8373333,7.33590741 36.0482963,7.41666667 36.2592593,7.41666667 C36.4702222,7.41666667 36.6811852,7.33590741 36.8418796,7.17521296 L39.3141019,4.70299074 C39.6363148,4.38077778 39.6363148,3.85996296 39.3141019,3.53775 C38.9918889,3.21553704 38.4710741,3.21553704 38.1488611,3.53775" id="Fill-1245" fill="#F0C419"></path>
                    <path d="M22.25,0 C21.794287,0 21.4259259,0.368361111 21.4259259,0.824074074 L21.4259259,3.2962963 C21.4259259,3.75200926 21.794287,4.12037037 22.25,4.12037037 C22.705713,4.12037037 23.0740741,3.75200926 23.0740741,3.2962963 L23.0740741,0.824074074 C23.0740741,0.368361111 22.705713,0 22.25,0" id="Fill-1246" fill="#F0C419"></path>
                    <path d="M41.2037037,19.7777778 L43.6759259,19.7777778 C44.1316389,19.7777778 44.5,19.4094167 44.5,18.9537037 C44.5,18.4979907 44.1316389,18.1296296 43.6759259,18.1296296 L41.2037037,18.1296296 C40.7479907,18.1296296 40.3796296,18.4979907 40.3796296,18.9537037 C40.3796296,19.4094167 40.7479907,19.7777778 41.2037037,19.7777778" id="Fill-1247" fill="#F0C419"></path>
                    <path d="M43.6759259,31.3148148 L41.2037037,31.3148148 C40.7479907,31.3148148 40.3796296,31.6831759 40.3796296,32.1388889 C40.3796296,32.5946019 40.7479907,32.962963 41.2037037,32.962963 L43.6759259,32.962963 C44.1316389,32.962963 44.5,32.5946019 44.5,32.1388889 C44.5,31.6831759 44.1316389,31.3148148 43.6759259,31.3148148" id="Fill-1248" fill="#F0C419"></path>
                    <path d="M6.35113889,3.53775 C6.02892593,3.21553704 5.50811111,3.21553704 5.18589815,3.53775 C4.86368519,3.85996296 4.86368519,4.38077778 5.18589815,4.70299074 L7.65812037,7.17521296 C7.81881481,7.33590741 8.02977778,7.41666667 8.24074074,7.41666667 C8.4517037,7.41666667 8.66266667,7.33590741 8.82336111,7.17521296 C9.14557407,6.853 9.14557407,6.33218519 8.82336111,6.00997222 L6.35113889,3.53775" id="Fill-1249" fill="#F0C419"></path>
                    <path d="M3.2962963,18.1296296 L0.824074074,18.1296296 C0.368361111,18.1296296 0,18.4979907 0,18.9537037 C0,19.4094167 0.368361111,19.7777778 0.824074074,19.7777778 L3.2962963,19.7777778 C3.75200926,19.7777778 4.12037037,19.4094167 4.12037037,18.9537037 C4.12037037,18.4979907 3.75200926,18.1296296 3.2962963,18.1296296" id="Fill-1250" fill="#F0C419"></path>
                    <path d="M3.2962963,31.3148148 L0.824074074,31.3148148 C0.368361111,31.3148148 0,31.6831759 0,32.1388889 C0,32.5946019 0.368361111,32.962963 0.824074074,32.962963 L3.2962963,32.962963 C3.75200926,32.962963 4.12037037,32.5946019 4.12037037,32.1388889 C4.12037037,31.6831759 3.75200926,31.3148148 3.2962963,31.3148148" id="Fill-1251" fill="#F0C419"></path>
                    <path d="M23.0740741,6.59259259 C15.3368426,6.59259259 9.06481481,12.8646204 9.06481481,20.6018519 L9.06481481,38.7314815 L23.0740741,38.7314815 L23.0740741,6.59259259" id="Fill-1252" fill="#FF5364"></path>
                    <path d="M6.59259259,38.7314815 L23.0740741,38.7314815 L23.0740741,48.6203704 L6.59259259,48.6203704 L6.59259259,38.7314815 Z" id="Fill-1253" fill="#8697CB"></path>
                </g>
            </g>
        </g>
    </g>
</svg>