<?xml version="1.0" encoding="UTF-8" standalone="no"?>
<svg width="75px" height="75px" viewBox="0 0 75 75" version="1.1" xmlns="http://www.w3.org/2000/svg" xmlns:xlink="http://www.w3.org/1999/xlink" xmlns:sketch="http://www.bohemiancoding.com/sketch/ns">
    <!-- Generator: Sketch 3.3.3 (12072) - http://www.bohemiancoding.com/sketch -->
    <title>feature-1</title>
    <desc>Created with Sketch.</desc>
    <defs></defs>
    <g id="Page-1" stroke="none" stroke-width="1" fill="none" fill-rule="evenodd" sketch:type="MSPage">
        <g id="Features-Copy-2" sketch:type="MSArtboardGroup" transform="translate(-180.000000, -1078.000000)">
            <g id="feature-1" sketch:type="MSLayerGroup" transform="translate(180.000000, 1078.000000)">
                <circle id="Oval-34-Copy-5" fill="#F7F7F7" sketch:type="MSShapeGroup" cx="37.5" cy="37.5" r="37.5"></circle>
                <g transform="translate(18.500000, 11.675537)" sketch:type="MSShapeGroup">
                    <path d="M26.5714286,6.89655172 C26.5714286,10.7051724 21.7868571,13.7931034 18,13.7931034 C14.2131429,13.7931034 9.42857143,10.7051724 9.42857143,6.89655172 C6.75085714,9.58965517 5.24914286,11.1 2.57142857,13.7931034 L2.57142857,47.5793103 C2.57142857,48.9163793 3.64885714,50 4.97828571,50 L31.0217143,50 C32.3511429,50 33.4285714,48.9163793 33.4285714,47.5793103 L33.4285714,13.7931034 C30.9497143,11.1 29.4488571,9.58965517 26.7702857,6.89655172 L26.5714286,6.89655172" id="Fill-1542" fill="#464F5D"></path>
                    <path d="M5.14285714,16.3793103 L30.8571429,16.3793103 L30.8571429,31.8965517 L5.14285714,31.8965517 L5.14285714,16.3793103 Z" id="Fill-1543" fill="#FFB200"></path>
                    <path d="M6.85714286,46.5517241 L6,45.6896552 L6,43.9655172 L6.85714286,43.1034483 L8.57142857,43.1034483 L9.42857143,43.9655172 L9.42857143,45.6896552 L8.57142857,46.5517241 L6.85714286,46.5517241" id="Fill-1624" fill="#ECF0F1"></path>
                    <path d="M13.7142857,46.5517241 L12.8571429,45.6896552 L12.8571429,43.9655172 L13.7142857,43.1034483 L15.4285714,43.1034483 L16.2857143,43.9655172 L16.2857143,45.6896552 L15.4285714,46.5517241 L13.7142857,46.5517241" id="Fill-1625" fill="#ECF0F1"></path>
                    <path d="M6.85714286,39.6551724 L6,38.7931034 L6,37.0689655 L6.85714286,36.2068966 L8.57142857,36.2068966 L9.42857143,37.0689655 L9.42857143,38.7931034 L8.57142857,39.6551724 L6.85714286,39.6551724" id="Fill-1626" fill="#ECF0F1"></path>
                    <path d="M13.7142857,39.6551724 L12.8571429,38.7931034 L12.8571429,37.0689655 L13.7142857,36.2068966 L15.4285714,36.2068966 L16.2857143,37.0689655 L16.2857143,38.7931034 L15.4285714,39.6551724 L13.7142857,39.6551724" id="Fill-1627" fill="#ECF0F1"></path>
                    <path d="M20.5714286,39.6551724 L19.7142857,38.7931034 L19.7142857,37.0689655 L20.5714286,36.2068966 L29.1428571,36.2068966 L30,37.0689655 L30,38.7931034 L29.1428571,39.6551724 L20.5714286,39.6551724" id="Fill-1628" fill="#ED7161"></path>
                    <path d="M20.5714286,46.5517241 L19.7142857,45.6896552 L19.7142857,43.9655172 L20.5714286,43.1034483 L22.2857143,43.1034483 L23.1428571,43.9655172 L23.1428571,45.6896552 L22.2857143,46.5517241 L20.5714286,46.5517241" id="Fill-1629" fill="#ECF0F1"></path>
                    <path d="M27.4285714,46.5517241 L26.5714286,45.6896552 L26.5714286,43.9655172 L27.4285714,43.1034483 L29.1428571,43.1034483 L30,43.9655172 L30,45.6896552 L29.1428571,46.5517241 L27.4285714,46.5517241" id="Fill-1633" fill="#ECF0F1"></path>
                    <path d="M9.42857143,10.3448276 L9.42857143,3.44827586 L12.8571429,0 M26.5714286,10.3448276 L26.5714286,3.44827586 L23.3417143,0" id="Stroke-1897" stroke="#BDC3C7" stroke-width="1.71999991" stroke-linecap="round" stroke-linejoin="round"></path>
                    <path d="M32.2877143,12.5637931 L36,8.83017241 L32.3631429,5.17241379 L28.7074286,8.84913793 C29.9597143,10.1163793 31.0268571,11.2163793 32.2877143,12.5637931" id="Fill-1898" fill="#E4C05C"></path>
                    <path d="M7.38942857,8.94741379 L3.63685714,5.17241379 L0,8.83017241 L3.75342857,12.6043103 C5.076,11.2741379 6.15857143,10.1853448 7.38942857,8.94741379" id="Fill-1899" fill="#E4C05C"></path>
                    <path d="M10.2857143,18.1034483 L7.71428571,18.1034483 C7.24114286,18.1034483 6.85714286,18.4896552 6.85714286,18.9655172 L6.85714286,25.862069 C6.85714286,26.337931 7.24114286,26.7241379 7.71428571,26.7241379 L10.2857143,26.7241379 C10.7588571,26.7241379 11.1428571,26.337931 11.1428571,25.862069 L11.1428571,18.9655172 C11.1428571,18.4896552 10.7588571,18.1034483 10.2857143,18.1034483 L10.2857143,18.1034483 Z M8.57142857,19.8275862 L9.42857143,19.8275862 L9.42857143,25 L8.57142857,25 L8.57142857,19.8275862 Z" id="Fill-1900" fill="#8D4700"></path>
                    <path d="M16.2857143,18.9655172 C16.2857143,18.4896552 15.9017143,18.1034483 15.4285714,18.1034483 L12.8571429,18.1034483 C12.384,18.1034483 12,18.4896552 12,18.9655172 C12,19.4413793 12.384,19.8275862 12.8571429,19.8275862 L14.5714286,19.8275862 L14.5714286,25.862069 C14.5714286,26.337931 14.9554286,26.7241379 15.4285714,26.7241379 C15.9017143,26.7241379 16.2857143,26.337931 16.2857143,25.862069 L16.2857143,18.9655172" id="Fill-1901" fill="#8D4700"></path>
                    <path d="M23.1428571,18.1034483 L20.5714286,18.1034483 C20.0982857,18.1034483 19.7142857,18.4896552 19.7142857,18.9655172 L19.7142857,25.862069 C19.7142857,26.337931 20.0982857,26.7241379 20.5714286,26.7241379 L23.1428571,26.7241379 C23.616,26.7241379 24,26.337931 24,25.862069 L24,18.9655172 C24,18.4896552 23.616,18.1034483 23.1428571,18.1034483 L23.1428571,18.1034483 Z M21.4285714,19.8275862 L22.2857143,19.8275862 L22.2857143,25 L21.4285714,25 L21.4285714,19.8275862 Z" id="Fill-1902" fill="#8D4700"></path>
                    <path d="M28.2857143,21.5517241 L26.5714286,21.5517241 L26.5714286,19.8275862 L28.2857143,19.8275862 C28.7588571,19.8275862 29.1428571,19.4413793 29.1428571,18.9655172 C29.1428571,18.4896552 28.7588571,18.1034483 28.2857143,18.1034483 L25.7142857,18.1034483 C25.2411429,18.1034483 24.8571429,18.4896552 24.8571429,18.9655172 L24.8571429,22.4137931 C24.8571429,22.8896552 25.2411429,23.2758621 25.7142857,23.2758621 L27.4285714,23.2758621 L27.4285714,25 L25.7142857,25 C25.2411429,25 24.8571429,25.3862069 24.8571429,25.862069 C24.8571429,26.337931 25.2411429,26.7241379 25.7142857,26.7241379 L28.2857143,26.7241379 C28.7588571,26.7241379 29.1428571,26.337931 29.1428571,25.862069 L29.1428571,22.4137931 C29.1428571,21.937931 28.7588571,21.5517241 28.2857143,21.5517241" id="Fill-1903" fill="#8D4700"></path>
                    <path d="M18,19.8275862 C17.5268571,19.8275862 17.1428571,20.2137931 17.1428571,20.6896552 C17.1428571,21.1655172 17.5268571,21.5517241 18,21.5517241 C18.4731429,21.5517241 18.8571429,21.1655172 18.8571429,20.6896552 C18.8571429,20.2137931 18.4731429,19.8275862 18,19.8275862" id="Fill-1904" fill="#8D4700"></path>
                    <path d="M18,23.2758621 C17.5268571,23.2758621 17.1428571,23.662069 17.1428571,24.137931 C17.1428571,24.6137931 17.5268571,25 18,25 C18.4731429,25 18.8571429,24.6137931 18.8571429,24.137931 C18.8571429,23.662069 18.4731429,23.2758621 18,23.2758621" id="Fill-1905" fill="#8D4700"></path>
                    <path d="M9.42857143,28.4482759 L8.57142857,28.4482759 C8.09828571,28.4482759 7.71428571,28.8344828 7.71428571,29.3103448 C7.71428571,29.7862069 8.09828571,30.1724138 8.57142857,30.1724138 L9.42857143,30.1724138 C9.90171429,30.1724138 10.2857143,29.7862069 10.2857143,29.3103448 C10.2857143,28.8344828 9.90171429,28.4482759 9.42857143,28.4482759" id="Fill-1906" fill="#8D4700"></path>
                    <path d="M13.7142857,28.4482759 L12.8571429,28.4482759 C12.384,28.4482759 12,28.8344828 12,29.3103448 C12,29.7862069 12.384,30.1724138 12.8571429,30.1724138 L13.7142857,30.1724138 C14.1874286,30.1724138 14.5714286,29.7862069 14.5714286,29.3103448 C14.5714286,28.8344828 14.1874286,28.4482759 13.7142857,28.4482759" id="Fill-1907" fill="#8D4700"></path>
                    <path d="M18,28.4482759 L17.1428571,28.4482759 C16.6697143,28.4482759 16.2857143,28.8344828 16.2857143,29.3103448 C16.2857143,29.7862069 16.6697143,30.1724138 17.1428571,30.1724138 L18,30.1724138 C18.4731429,30.1724138 18.8571429,29.7862069 18.8571429,29.3103448 C18.8571429,28.8344828 18.4731429,28.4482759 18,28.4482759" id="Fill-1908" fill="#8D4700"></path>
                    <path d="M22.2857143,28.4482759 L21.4285714,28.4482759 C20.9554286,28.4482759 20.5714286,28.8344828 20.5714286,29.3103448 C20.5714286,29.7862069 20.9554286,30.1724138 21.4285714,30.1724138 L22.2857143,30.1724138 C22.7588571,30.1724138 23.1428571,29.7862069 23.1428571,29.3103448 C23.1428571,28.8344828 22.7588571,28.4482759 22.2857143,28.4482759" id="Fill-1909" fill="#8D4700"></path>
                    <path d="M26.5714286,28.4482759 L25.7142857,28.4482759 C25.2411429,28.4482759 24.8571429,28.8344828 24.8571429,29.3103448 C24.8571429,29.7862069 25.2411429,30.1724138 25.7142857,30.1724138 L26.5714286,30.1724138 C27.0445714,30.1724138 27.4285714,29.7862069 27.4285714,29.3103448 C27.4285714,28.8344828 27.0445714,28.4482759 26.5714286,28.4482759" id="Fill-1910" fill="#8D4700"></path>
                </g>
            </g>
        </g>
    </g>
</svg>