<?xml version="1.0" encoding="UTF-8" standalone="no"?>
<svg width="75px" height="75px" viewBox="0 0 75 75" version="1.1" xmlns="http://www.w3.org/2000/svg" xmlns:xlink="http://www.w3.org/1999/xlink" xmlns:sketch="http://www.bohemiancoding.com/sketch/ns">
    <!-- Generator: Sketch 3.3.3 (12072) - http://www.bohemiancoding.com/sketch -->
    <title>feature-customisable</title>
    <desc>Created with Sketch.</desc>
    <defs></defs>
    <g id="Page-1" stroke="none" stroke-width="1" fill="none" fill-rule="evenodd" sketch:type="MSPage">
        <g id="Features-Copy-2" sketch:type="MSArtboardGroup" transform="translate(-135.000000, -375.000000)">
            <g id="feature-customisable" sketch:type="MSLayerGroup" transform="translate(135.000000, 375.000000)">
                <g id="Oval-30-Copy-2-+-Color-Bucket" sketch:type="MSShapeGroup">
                    <circle id="Oval-30-Copy-2" fill="#FFFFFF" cx="37.5" cy="37.5" r="37.5"></circle>
                    <g id="Color-Bucket" transform="translate(21.097777, 5.458496)">
                        <path d="M17.4266317,8.04770368 L17.4266317,11.9837014 C17.4266317,12.9568029 16.7747677,13.8541219 15.8204442,14.0432429 C14.5381767,14.2974162 13.4027798,13.3109019 13.4027798,12.0715555 L13.4027798,18.1073333 C13.4027798,19.3466796 12.267383,20.333194 10.9857862,20.0790207 C10.030792,19.8898996 9.378928,18.9925807 9.378928,18.0194792 L9.378928,15.7600864 C9.378928,16.3046477 9.11402442,16.7888512 8.70828602,17.0960052 L8.70828602,38.3110934 C11.2486778,38.682629 14.2337052,38.8972345 17.4266317,38.8972345 C21.2466084,38.8972345 24.7661374,38.5900804 27.5855163,38.0736861 L27.5855163,7.22415534 C24.7661374,7.74054966 21.2466084,8.04770368 17.4266317,8.04770368" id="Fill-300" fill="#E6E7E8"></path>
                        <path d="M7.24695716,17.3756629 C6.50992164,17.1778235 6.02571813,16.4649311 6.02571813,15.7017405 L6.02571813,7.3529186 C6.02571813,7.22616726 6.04047225,7.10276914 6.06327408,6.98138294 C5.86006956,6.93644993 5.66155954,6.89017563 5.46707337,6.8432307 C5.44963668,6.8385362 5.43354127,6.83451235 5.41610458,6.8304885 C5.24039638,6.78689677 5.06871203,6.7426344 4.90172218,6.69770139 C4.87355522,6.69032433 4.8460589,6.68227662 4.81856258,6.67489956 C4.66364428,6.63197847 4.5120792,6.58905739 4.3652086,6.54546566 C4.33100586,6.53540603 4.29814441,6.52467576 4.26461231,6.51461613 C4.12780135,6.47303633 3.99367295,6.43078588 3.86356841,6.38853544 C3.82400053,6.3751226 3.7851033,6.36170976 3.74553542,6.34829692 C3.62549051,6.3080584 3.50812816,6.2664786 3.39411903,6.2248988 C3.35119794,6.20947403 3.30961814,6.19337862 3.26803834,6.17728322 C3.16140626,6.13771534 3.0581274,6.09680618 2.9575311,6.05589702 C2.91461002,6.03846033 2.87168893,6.020353 2.83010913,6.0029163 C2.73554861,5.96267779 2.64367066,5.92243927 2.55514592,5.88153011 C2.51289547,5.86141085 2.47064503,5.84196223 2.42973587,5.82251361 C2.34657626,5.78294574 2.26676987,5.74270722 2.1889754,5.70179806 C2.14806624,5.68033751 2.10715708,5.65887697 2.06825985,5.63808707 C1.99583051,5.59851919 1.92675439,5.55828068 1.85969019,5.51804216 C1.8214636,5.49456969 1.78256637,5.47176786 1.74568106,5.44896603 C1.68331135,5.40939816 1.6249655,5.36915964 1.56796093,5.32892112 C1.53241691,5.30477801 1.49687288,5.27996426 1.46401143,5.2551505 C1.41036007,5.21558263 1.36140321,5.17534411 1.31311698,5.13510559 C1.2829381,5.1096212 1.25141792,5.08480744 1.22325096,5.05865241 C1.17898859,5.01841389 1.13875007,4.97750473 1.09985284,4.93726621 C1.07436844,4.91044053 1.04687212,4.88428549 1.02339965,4.85813046 C0.987855627,4.81722129 0.957676738,4.77564149 0.926827207,4.73473233 C0.906707948,4.70790665 0.884576763,4.68108097 0.86646943,4.65358465 C0.838973109,4.61133421 0.817512566,4.56841312 0.794710738,4.52549204 C0.781297899,4.499337 0.765202492,4.47318196 0.753130936,4.44635628 C0.733011677,4.39941135 0.719598837,4.35179577 0.706185998,4.30418019 C0.699479578,4.282049 0.689419949,4.25924717 0.684725455,4.23644535 C0.669300689,4.16602794 0.660582344,4.09493989 0.660582344,4.02385184 L0.660582344,34.8733826 C0.660582344,36.3293463 3.88301703,37.6042367 8.70828602,38.3110934 L8.70828602,17.0960052 C8.31730175,17.3917583 7.79487166,17.5225335 7.24695716,17.3756629" id="Fill-301" fill="#CCCDCF"></path>
                        <path d="M34.192681,34.8733826 L34.192681,4.02385184 C34.192681,5.32959176 31.5999791,6.48913173 27.5855163,7.22415534 L27.5855163,38.0736861 C31.5999791,37.3386625 34.192681,36.1791225 34.192681,34.8733826" id="Fill-302" fill="#CCCDCF"></path>
                        <path d="M10.0260975,27.1609999 L10.0260975,27.1609999 C9.09994094,26.235514 9.09994094,24.7339466 10.0260975,23.8077901 L11.7027024,22.1311851 L13.3793074,23.8077901 C14.3054639,24.7339466 14.3054639,26.235514 13.3793074,27.1609999 C12.4531508,28.0871565 10.9515834,28.0871565 10.0260975,27.1609999" id="Fill-318" fill="#25C3AB"></path>
                        <path d="M14.7440638,38.8442537 C15.6185809,38.8777858 16.5125467,38.8972345 17.4266317,38.8972345 C18.8148606,38.8972345 20.1615096,38.8556547 21.4504835,38.7792015 L21.4504835,7.92967069 C20.1615096,8.00612388 18.8148606,8.04770368 17.4266317,8.04770368 L17.4266317,11.9837014 C17.4266317,12.9568029 16.7747677,13.8541219 15.8204442,14.0432429 C15.4381782,14.1190255 15.0740196,14.0740925 14.7440638,13.9560595 L14.7440638,38.8442537" id="Fill-373" fill="#ECF0F1"></path>
                        <path d="M34.192681,9.38898763 L34.192681,13.4483835 C34.192681,23.7997424 26.9591367,32.1908147 18.0355746,32.1908147 L16.8183594,32.1908147 C7.89479731,32.1908147 0.660582344,23.7997424 0.660582344,13.4483835 L0.660582344,9.38898763" id="Stroke-374" stroke="#687492" stroke-width="2" stroke-linecap="round" stroke-linejoin="round"></path>
                        <path d="M17.4266317,0 C8.16707795,0 0.660582344,1.80201498 0.660582344,4.02385184 C0.660582344,5.19345144 2.74225503,6.24635934 6.06327408,6.98138294 C6.04047225,7.10276914 6.02571813,7.22616726 6.02571813,7.3529186 L6.02571813,15.7017405 C6.02571813,16.4649311 6.50992164,17.1778235 7.24695716,17.3756629 C8.36290541,17.6747692 9.378928,16.830431 9.378928,15.7600864 L9.378928,18.0194792 C9.378928,18.9925807 10.030792,19.8898996 10.9857862,20.0790207 C12.267383,20.333194 13.4027798,19.3466796 13.4027798,18.1073333 L13.4027798,12.0715555 C13.4027798,13.3109019 14.5381767,14.2974162 15.8204442,14.0432429 C16.7747677,13.8541219 17.4266317,12.9568029 17.4266317,11.9837014 L17.4266317,8.04770368 C26.6861854,8.04770368 34.192681,6.24635934 34.192681,4.02385184 C34.192681,1.80201498 26.6861854,0 17.4266317,0" id="Fill-375" fill="#25C3AB"></path>
                        <path d="M6.02571813,7.3529186 C6.02571813,7.22616726 6.04047225,7.10276914 6.06327408,6.98138294 C2.74225503,6.24635934 0.660582344,5.19345144 0.660582344,4.02385184 L0.660582344,7.37706171 C0.660582344,8.54263746 2.72750091,9.5915215 6.02571813,10.3265451 L6.02571813,7.3529186" id="Fill-376" fill="#8697CB"></path>
                        <path d="M17.4266317,8.04770368 L17.4266317,11.4009135 C26.6861854,11.4009135 34.192681,9.59956921 34.192681,7.37706171 L34.192681,4.02385184 C34.192681,6.24635934 26.6861854,8.04770368 17.4266317,8.04770368" id="Fill-377" fill="#8697CB"></path>
                    </g>
                </g>
            </g>
        </g>
    </g>
</svg>