<?xml version="1.0" encoding="UTF-8" standalone="no"?>
<svg width="76px" height="76px" viewBox="0 0 76 76" version="1.1" xmlns="http://www.w3.org/2000/svg" xmlns:xlink="http://www.w3.org/1999/xlink" xmlns:sketch="http://www.bohemiancoding.com/sketch/ns">
    <!-- Generator: Sketch 3.3.3 (12072) - http://www.bohemiancoding.com/sketch -->
    <title>feature-12</title>
    <desc>Created with Sketch.</desc>
    <defs></defs>
    <g id="Page-1" stroke="none" stroke-width="1" fill="none" fill-rule="evenodd" sketch:type="MSPage">
        <g id="Features-Copy-2" sketch:type="MSArtboardGroup" transform="translate(-1181.000000, -1223.000000)">
            <g id="feature-12" sketch:type="MSLayerGroup" transform="translate(1181.000000, 1223.000000)">
                <circle id="Oval-34-Copy-13" fill="#F7F7F7" sketch:type="MSShapeGroup" cx="37.75" cy="37.6755371" r="37.5"></circle>
                <g transform="translate(14.500000, 10.753034)" sketch:type="MSShapeGroup">
                    <path d="M39.9563726,12.0247037 C39.5535451,11.8572168 39.1129256,11.7618781 38.6508334,11.7618781 L9.44798149,11.7618781 C8.98588931,11.7618781 8.54526981,11.8572168 8.14244223,12.0247037 L39.9563726,12.0247037" id="Fill-441" fill="#FFDB2B"></path>
                    <path d="M6.01235186,18.0370556 L6.01235186,43.8042778 C6.01235186,45.6938741 7.5583852,47.2399075 9.44798149,47.2399075 L38.6508334,47.2399075 C40.5404297,47.2399075 42.086463,45.6938741 42.086463,43.8042778 L42.086463,18.0370556 L6.01235186,18.0370556" id="Fill-442" fill="#FFDB2B"></path>
                    <path d="M44.6631852,18.0370556 L3.00617593,18.0370556 C1.35277917,18.0370556 0,16.6842764 0,15.0308797 C0,13.3774829 1.35277917,12.0247037 3.00617593,12.0247037 L44.6631852,12.0247037 C46.316582,12.0247037 47.6693612,13.3774829 47.6693612,15.0308797 C47.6693612,16.6842764 46.316582,18.0370556 44.6631852,18.0370556" id="Fill-511" fill="#CBB292"></path>
                    <path d="M40.3686482,12.0247037 L6.87125927,12.0247037 L8.8802437,7.41151203 C8.9034342,7.24144836 9.65411927,5.45749767 9.69362901,5.29430527 C10.3463986,2.63598684 13.311347,0.291169612 15.8863514,1.21878961 L22.355642,3.54814651 C23.3614226,3.91060543 24.4599652,3.92520686 25.4760526,3.58937406 L31.1585841,1.10970837 C33.0103884,0.498166297 35.1224418,1.01179293 36.3085929,2.55954408 C36.8024646,3.20458354 38.2428524,6.55775806 38.3596638,7.41151203 L40.3686482,12.0247037" id="Fill-512" fill="#CB8252"></path>
                    <path d="M21.1669142,25.7672223 C21.1669142,28.3224718 19.1141255,30.3950154 16.5820664,30.3950154 C14.0508663,30.3950154 11.9980776,28.3224718 11.9980776,25.7672223 C11.9980776,23.2111138 14.0508663,21.1394291 16.5820664,21.1394291 C19.1141255,21.1394291 21.1669142,23.2111138 21.1669142,25.7672223" id="Fill-555" fill="#D0E8F9"></path>
                    <path d="M35.1885776,25.7672223 C35.1885776,28.3224718 33.1366478,30.3950154 30.6045888,30.3950154 C28.0725297,30.3950154 26.0205999,28.3224718 26.0205999,25.7672223 C26.0205999,23.2111138 28.0725297,21.1394291 30.6045888,21.1394291 C33.1366478,21.1394291 35.1885776,23.2111138 35.1885776,25.7672223" id="Fill-556" fill="#D0E8F9"></path>
                    <path d="M30.6045888,20.2805217 C28.1755986,20.2805217 26.1142209,21.8935498 25.4159291,24.1121077 C24.8559215,23.8621656 24.2375082,23.7161514 23.5933276,23.7161514 C22.9491471,23.7161514 22.3307337,23.8621656 21.7707261,24.1121077 C21.0732933,21.8935498 19.0119155,20.2805217 16.5820664,20.2805217 C13.5810439,20.2805217 11.1391702,22.7412915 11.1391702,25.7672223 C11.1391702,28.7922942 13.5810439,31.2539228 16.5820664,31.2539228 C19.5229654,31.2539228 21.920176,28.8893507 22.0163736,25.9493106 C22.8804345,25.3180137 24.3062208,25.3180137 25.1702816,25.9493106 C25.2673381,28.8893507 27.6645487,31.2539228 30.6045888,31.2539228 C33.6064702,31.2539228 36.047485,28.7922942 36.047485,25.7672223 C36.047485,22.7412915 33.6064702,20.2805217 30.6045888,20.2805217 L30.6045888,20.2805217 Z M16.5820664,29.536108 C14.5284188,29.536108 12.856985,27.8449193 12.856985,25.7672223 C12.856985,23.6895252 14.5284188,21.9983365 16.5820664,21.9983365 C18.636573,21.9983365 20.3080068,23.6895252 20.3080068,25.7672223 C20.3080068,27.8449193 18.636573,29.536108 16.5820664,29.536108 L16.5820664,29.536108 Z M30.6045888,29.536108 C28.5500823,29.536108 26.8795074,27.8449193 26.8795074,25.7672223 C26.8795074,23.6895252 28.5500823,21.9983365 30.6045888,21.9983365 C32.6582364,21.9983365 34.3296702,23.6895252 34.3296702,25.7672223 C34.3296702,27.8449193 32.6582364,29.536108 30.6045888,29.536108 L30.6045888,29.536108 Z" id="Fill-557" fill="#556080"></path>
                    <path d="M42.1311262,32.4374972 C41.1743034,31.1637375 40.055147,30.3958743 38.8045778,30.1545213 C37.2576856,29.8573393 35.9023297,30.2807807 35.268456,31.261653 C34.7513938,32.0621547 34.83299,33.0919846 35.4857596,34.0170279 C36.2398803,35.0880855 37.4354794,35.2761862 38.0229721,35.2186394 C38.4893588,35.1739762 38.8260505,34.7634185 38.7891175,34.2970317 C38.7521845,33.8297861 38.3536514,33.5016835 37.8718044,33.5076958 C37.8108219,33.5137082 37.244802,33.5317452 36.8892143,33.0275666 C36.7500713,32.8300179 36.5413568,32.458111 36.7114205,32.1944264 C36.9038157,31.8972444 37.5376894,31.6593271 38.4799108,31.8422744 C39.3104743,32.0020311 40.0560059,32.5345537 40.7585922,33.469045 C41.270501,34.1501586 41.3606863,34.9764275 41.0282891,35.7442907 C40.621167,36.5508048 39.6265522,37.4183013 38.4034681,37.4183013 C38.2316866,37.4183013 38.0581873,37.4011231 37.8881236,37.3667668 C36.474362,37.0764561 35.0571648,36.4168152 33.6777595,35.4067401 C33.366835,35.1791296 33.0593462,34.9910289 32.7535751,34.8201063 C32.6676844,34.7720075 32.5817936,34.7290622 32.4959029,34.6852579 C32.2433841,34.5555629 31.9925832,34.4439049 31.7443589,34.3494251 C31.6773641,34.3236579 31.6103694,34.2935961 31.5425157,34.2695467 C31.2281556,34.1613244 30.9189489,34.0805871 30.6131779,34.0230403 C30.5461831,34.0110156 30.4783294,34.0032854 30.4113346,33.9929785 C30.1218828,33.9483153 29.8375845,33.9225481 29.5575807,33.9182536 C29.5275189,33.9173947 29.498316,33.9096645 29.4682543,33.9096645 C29.4545118,33.9096645 29.4424871,33.9131001 29.4296034,33.9131001 C29.1418695,33.913959 28.8618657,33.9371495 28.5870153,33.9758004 C28.5475055,33.9809538 28.5105725,33.9895429 28.4727806,33.9955552 C28.218544,34.0359239 27.9703198,34.090894 27.7281079,34.1587476 C27.708353,34.16476 27.689457,34.1690545 27.6705611,34.1750669 C26.1786389,34.6070973 24.9229163,35.5106679 24.0494074,36.409944 C23.1776164,35.5132446 21.9244705,34.6105329 20.435984,34.1776436 C20.4110757,34.1699134 20.3853084,34.1639011 20.3604001,34.1561709 C20.1250595,34.090894 19.8837065,34.0376417 19.6372001,33.998132 C19.5933958,33.9904018 19.5513093,33.9818127 19.5075051,33.9749415 C19.2343725,33.9371495 18.9560865,33.9148179 18.6709292,33.9131001 C18.6571867,33.9131001 18.6443031,33.9096645 18.6305606,33.9096645 C18.5996399,33.9096645 18.5687193,33.9173947 18.5377986,33.9182536 C18.2595126,33.9225481 17.9760732,33.9483153 17.6883392,33.9929785 C17.6204855,34.0032854 17.5526318,34.0110156 17.485637,34.0230403 C17.179866,34.0805871 16.8698004,34.1613244 16.5554403,34.2704056 C16.4893044,34.2927372 16.4231686,34.322799 16.3561738,34.3485662 C16.1070906,34.443046 15.8554308,34.5555629 15.6011942,34.6861168 C15.5161623,34.7299211 15.4311305,34.7720075 15.3460987,34.8192474 C15.0403276,34.9910289 14.7319799,35.1791296 14.4210554,35.4067401 C13.0416501,36.4168152 11.6244529,37.0764561 10.2106913,37.3667668 C10.04664,37.4002642 9.888601,37.4157245 9.73399766,37.4217369 C9.11558433,37.4414918 8.51606696,37.253391 8.02477192,36.9098281 C7.97924983,36.8763307 7.93974009,36.8402566 7.89679471,36.8059003 C7.83237666,36.7552247 7.7679586,36.7045492 7.70869399,36.6487202 C7.65715955,36.5997625 7.61249636,36.549087 7.56697427,36.4984114 C7.51629873,36.4434413 7.4664821,36.3876124 7.4201011,36.3283478 C7.3848859,36.2836846 7.35224742,36.2381625 7.32132675,36.1934993 C7.2689334,36.1153387 7.21997568,36.0337425 7.17531249,35.9504285 C7.15126308,35.9066242 7.12463695,35.8628199 7.10402318,35.8190157 L7.09285738,35.7932484 C7.09028066,35.7863772 7.08169158,35.769199 7.07310251,35.751162 C6.73726971,34.9815809 6.82745499,34.1518764 7.34022271,33.469045 C7.90538379,32.717501 8.56846031,32.0011722 9.58454777,31.8482867 C10.2982998,31.7392055 10.8376937,31.9092691 11.1013783,32.3232625 C11.2757365,32.5963951 11.2680063,32.8961538 11.1949992,33.005235 C10.8789212,33.4845053 10.157439,33.5051191 10.1582979,33.5051191 C9.68418103,33.5051191 9.29939051,33.8890507 9.29939051,34.3640265 C9.29939051,34.8381434 9.68418103,35.2229339 10.1582979,35.2229339 C10.3257849,35.2229339 11.8125536,35.1877187 12.6285156,33.9534688 C13.1000558,33.2388578 13.0691351,32.2124635 12.5494961,31.3990781 C11.9070334,30.3924387 10.7320481,29.9380766 9.32859337,30.1493679 C7.4776479,30.4276539 6.41947397,31.8354031 5.96768868,32.4374972 C5.08730858,33.608188 4.92325727,35.0700484 5.48068817,36.3901891 C5.4841238,36.3979193 5.48240599,36.4047905 5.48584162,36.4125207 C5.49099506,36.4236865 5.49614851,36.4348523 5.50130195,36.446877 C5.50817321,36.4623373 5.51504447,36.4769387 5.52191573,36.4923991 C5.53479934,36.520743 5.54768295,36.5508048 5.56142547,36.5791487 C7.56096192,41.1820335 11.3023626,43.6153182 16.3810821,43.6153182 C19.8948723,43.6153182 23.0109884,42.4592288 24.0494074,42.0289162 C25.0886854,42.4592288 28.2022248,43.6153182 31.7168739,43.6153182 L31.7177328,43.6153182 C36.817925,43.6153182 40.5644791,41.1622787 42.559721,36.5250376 C43.1875823,35.1696817 43.0415681,33.6485566 42.1311262,32.4374972" id="Fill-558" fill="#464F5D"></path>
                    <path d="M34.0943296,50.6755371 L14.0044853,50.6755371 C13.3852131,50.6755371 12.8836111,50.1739352 12.8836111,49.5546629 L12.8836111,47.2399075 L35.2152038,47.2399075 L35.2152038,49.5546629 C35.2152038,50.1739352 34.7136018,50.6755371 34.0943296,50.6755371" id="Fill-559" fill="#FEC722"></path>
                </g>
            </g>
        </g>
    </g>
</svg>