<?xml version="1.0" encoding="UTF-8" standalone="no"?>
<svg width="76px" height="76px" viewBox="0 0 76 76" version="1.1" xmlns="http://www.w3.org/2000/svg" xmlns:xlink="http://www.w3.org/1999/xlink" xmlns:sketch="http://www.bohemiancoding.com/sketch/ns">
    <!-- Generator: Sketch 3.3.3 (12072) - http://www.bohemiancoding.com/sketch -->
    <title>feature-9</title>
    <desc>Created with Sketch.</desc>
    <defs></defs>
    <g id="Page-1" stroke="none" stroke-width="1" fill="none" fill-rule="evenodd" sketch:type="MSPage">
        <g id="Features-Copy-2" sketch:type="MSArtboardGroup" transform="translate(-581.000000, -1225.000000)">
            <g id="feature-9" sketch:type="MSLayerGroup" transform="translate(581.000000, 1225.000000)">
                <circle id="Oval-34-Copy-10" fill="#F7F7F7" sketch:type="MSShapeGroup" cx="37.75" cy="37.75" r="37.5"></circle>
                <g transform="translate(11.500000, 10.753034)" sketch:type="MSShapeGroup">
                    <path d="M16.4745763,8.21052632 L11.8983051,8.21052632 C11.3930847,8.21052632 10.9830508,7.80182456 10.9830508,7.29824561 C10.9830508,6.79466667 11.3930847,6.38596491 11.8983051,6.38596491 L16.4745763,6.38596491 C16.9797966,6.38596491 17.3898305,6.79466667 17.3898305,7.29824561 C17.3898305,7.80182456 16.9797966,8.21052632 16.4745763,8.21052632" id="Fill-33" fill="#BDC3C7"></path>
                    <path d="M42.1016949,8.21052632 L37.5254237,8.21052632 C37.0202034,8.21052632 36.6101695,7.80182456 36.6101695,7.29824561 C36.6101695,6.79466667 37.0202034,6.38596491 37.5254237,6.38596491 L42.1016949,6.38596491 C42.6069153,6.38596491 43.0169492,6.79466667 43.0169492,7.29824561 C43.0169492,7.80182456 42.6069153,8.21052632 42.1016949,8.21052632" id="Fill-34" fill="#BDC3C7"></path>
                    <path d="M37.040339,34.6666667 L16.959661,34.6666667 C16.1862712,34.6666667 15.559322,34.0417544 15.559322,33.2708772 L15.559322,18.7291228 C15.559322,17.9582456 16.1862712,17.3333333 16.959661,17.3333333 L37.040339,17.3333333 C37.8137288,17.3333333 38.440678,17.9582456 38.440678,18.7291228 L38.440678,33.2708772 C38.440678,34.0417544 37.8137288,34.6666667 37.040339,34.6666667" id="Fill-49" fill="#BDC3C7"></path>
                    <path d="M21.9661017,12.7719298 L32.0338983,12.7719298 L32.0338983,17.3333333 L21.9661017,17.3333333 L21.9661017,12.7719298 Z" id="Fill-50" fill="#95A5A5"></path>
                    <path d="M34.779661,12.7719298 L19.220339,12.7719298 L19.220339,2.38926316 C19.220339,1.07010526 20.2939322,0 21.6173898,0 L32.3826102,0 C33.7060678,0 34.779661,1.07010526 34.779661,2.38926316 L34.779661,12.7719298" id="Fill-51" fill="#D1D4D1"></path>
                    <path d="M24.7118644,3.64912281 C24.7118644,4.15270175 24.3018305,4.56140351 23.7966102,4.56140351 C23.2913898,4.56140351 22.8813559,4.15270175 22.8813559,3.64912281 C22.8813559,3.14554386 23.2913898,2.73684211 23.7966102,2.73684211 C24.3018305,2.73684211 24.7118644,3.14554386 24.7118644,3.64912281" id="Fill-52" fill="#FFFFFF"></path>
                    <path d="M31.1186441,3.64912281 C31.1186441,4.15270175 30.7086102,4.56140351 30.2033898,4.56140351 C29.6981695,4.56140351 29.2881356,4.15270175 29.2881356,3.64912281 C29.2881356,3.14554386 29.6981695,2.73684211 30.2033898,2.73684211 C30.7086102,2.73684211 31.1186441,3.14554386 31.1186441,3.64912281" id="Fill-53" fill="#FFFFFF"></path>
                    <path d="M19.220339,10.9473684 L16.4745763,10.0350877 L16.4745763,4.56140351 L19.220339,3.64912281 L19.220339,10.9473684" id="Fill-54" fill="#95A5A5"></path>
                    <path d="M34.779661,10.9473684 L37.5254237,10.0350877 L37.5254237,4.56140351 L34.779661,3.64912281 L34.779661,10.9473684" id="Fill-55" fill="#95A5A5"></path>
                    <path d="M3.66101695,36.4912281 L7.3220339,36.4912281 C7.3220339,30.4546667 9.50308475,25.5438596 15.559322,25.5438596 L15.559322,21.8947368 C7.48494915,21.8947368 3.66101695,28.4430877 3.66101695,36.4912281" id="Fill-56" fill="#B9BBBC"></path>
                    <path d="M25.6271186,25.5438596 C25.6271186,27.5590877 23.9878983,29.1929825 21.9661017,29.1929825 C19.9443051,29.1929825 18.3050847,27.5590877 18.3050847,25.5438596 C18.3050847,23.5286316 19.9443051,21.8947368 21.9661017,21.8947368 C23.9878983,21.8947368 25.6271186,23.5286316 25.6271186,25.5438596" id="Fill-57" fill="#F9EBB0"></path>
                    <path d="M35.6949153,30.1052632 L29.2881356,30.1052632 C28.7829153,30.1052632 28.3728814,29.6965614 28.3728814,29.1929825 C28.3728814,28.6894035 28.7829153,28.2807018 29.2881356,28.2807018 L35.6949153,28.2807018 C36.2001356,28.2807018 36.6101695,28.6894035 36.6101695,29.1929825 C36.6101695,29.6965614 36.2001356,30.1052632 35.6949153,30.1052632" id="Fill-58" fill="#95A5A5"></path>
                    <path d="M35.6949153,26.4561404 L30.2033898,26.4561404 C29.6981695,26.4561404 29.2881356,26.0474386 29.2881356,25.5438596 C29.2881356,25.0402807 29.6981695,24.6315789 30.2033898,24.6315789 L35.6949153,24.6315789 C36.2001356,24.6315789 36.6101695,25.0402807 36.6101695,25.5438596 C36.6101695,26.0474386 36.2001356,26.4561404 35.6949153,26.4561404" id="Fill-59" fill="#ECF0F1"></path>
                    <path d="M35.6949153,22.8070175 L30.2033898,22.8070175 C29.6981695,22.8070175 29.2881356,22.3983158 29.2881356,21.8947368 C29.2881356,21.3911579 29.6981695,20.9824561 30.2033898,20.9824561 L35.6949153,20.9824561 C36.2001356,20.9824561 36.6101695,21.3911579 36.6101695,21.8947368 C36.6101695,22.3983158 36.2001356,22.8070175 35.6949153,22.8070175" id="Fill-60" fill="#FFFFFF"></path>
                    <path d="M2.74667797,45.6158596 C2.55630508,45.6158596 2.36318644,45.5565614 2.19844068,45.4334035 C0.800847458,44.3888421 0,42.7914386 0,41.0526316 C0,38.0338947 2.46294915,35.5789474 5.49152542,35.5789474 C8.52010169,35.5789474 10.9830508,38.0338947 10.9830508,41.0526316 C10.9830508,42.7905263 10.1822034,44.3861053 8.78735593,45.4315789 C8.38189831,45.7335439 7.80894915,45.6523509 7.50508475,45.2500351 C7.20213559,44.846807 7.28359322,44.274807 7.68722034,43.9719298 C8.61894915,43.2749474 9.15254237,42.2112281 9.15254237,41.0526316 C9.15254237,39.0401404 7.51057627,37.4035088 5.49152542,37.4035088 C3.47247458,37.4035088 1.83050847,39.0401404 1.83050847,41.0526316 C1.83050847,42.2121404 2.36501695,43.2767719 3.29674576,43.9737544 C3.70128814,44.2766316 3.78366102,44.8477193 3.47979661,45.2509474 C3.30040678,45.4899649 3.02583051,45.6158596 2.74667797,45.6158596" id="Fill-61" fill="#95A5A5"></path>
                    <path d="M50.3389831,36.4912281 L46.6779661,36.4912281 C46.6779661,30.4546667 44.4969153,25.5438596 38.440678,25.5438596 L38.440678,21.8947368 C46.5150508,21.8947368 50.3389831,28.4430877 50.3389831,36.4912281" id="Fill-62" fill="#B9BBBC"></path>
                    <path d="M51.2524068,45.6158596 C50.9741695,45.6158596 50.6995932,45.4899649 50.5202034,45.2509474 C50.216339,44.8477193 50.2987119,44.2766316 50.702339,43.9737544 C51.6349831,43.2767719 52.1694915,42.2121404 52.1694915,41.0526316 C52.1694915,39.0401404 50.5275254,37.4035088 48.5084746,37.4035088 C46.4894237,37.4035088 44.8474576,39.0401404 44.8474576,41.0526316 C44.8474576,42.2112281 45.3810508,43.2749474 46.3127797,43.9719298 C46.7164068,44.274807 46.7978644,44.846807 46.4949153,45.2500351 C46.1901356,45.6523509 45.6181017,45.7335439 45.2126441,45.4315789 C43.8177966,44.3861053 43.0169492,42.7905263 43.0169492,41.0526316 C43.0169492,38.0338947 45.4798983,35.5789474 48.5084746,35.5789474 C51.5370508,35.5789474 54,38.0338947 54,41.0526316 C54,42.7914386 53.1991525,44.3888421 51.8015593,45.4334035 C51.6368136,45.5565614 51.4436949,45.6158596 51.2524068,45.6158596" id="Fill-63" fill="#95A5A5"></path>
                    <path d="M23.7966102,52 L15.4247797,52 C14.4884746,52 13.7288136,51.242807 13.7288136,50.3095439 L13.7288136,49.1290526 C13.7288136,48.1948772 14.4884746,47.4385965 15.4247797,47.4385965 L23.7966102,47.4385965 L23.7966102,52" id="Fill-64" fill="#95A5A5"></path>
                    <path d="M38.5752203,52 L30.2033898,52 L30.2033898,47.4385965 L38.5752203,47.4385965 C39.5115254,47.4385965 40.2711864,48.1948772 40.2711864,49.1290526 L40.2711864,50.3095439 C40.2711864,51.242807 39.5115254,52 38.5752203,52" id="Fill-65" fill="#95A5A5"></path>
                    <path d="M27,10.9473684 C24.5754915,10.9473684 22.8813559,9.44666667 22.8813559,7.29824561 C22.8813559,6.79466667 23.2913898,6.38596491 23.7966102,6.38596491 C24.3018305,6.38596491 24.7118644,6.79466667 24.7118644,7.29824561 C24.7118644,8.64385965 25.8943729,9.12280702 27,9.12280702 C28.1056271,9.12280702 29.2881356,8.64385965 29.2881356,7.29824561 C29.2881356,6.79466667 29.6981695,6.38596491 30.2033898,6.38596491 C30.7086102,6.38596491 31.1186441,6.79466667 31.1186441,7.29824561 C31.1186441,9.44666667 29.4245085,10.9473684 27,10.9473684" id="Fill-66" fill="#95A5A5"></path>
                    <path d="M14.6440678,38.3157895 L20.1355932,38.3157895 L20.1355932,42.877193 L14.6440678,42.877193 L14.6440678,38.3157895 Z" id="Fill-67" fill="#95A5A5"></path>
                    <path d="M33.8644068,38.3157895 L39.3559322,38.3157895 L39.3559322,42.877193 L33.8644068,42.877193 L33.8644068,38.3157895 Z" id="Fill-68" fill="#95A5A5"></path>
                    <path d="M33.8644068,42.877193 L33.8644068,38.3157895 L36.6101695,38.3157895 L36.6101695,34.6666667 L30.2033898,34.6666667 L30.2033898,47.4385965 L36.6101695,47.4385965 L36.6101695,42.877193 L33.8644068,42.877193" id="Fill-69" fill="#D1D4D1"></path>
                    <path d="M17.3898305,34.6666667 L17.3898305,38.3157895 L20.1355932,38.3157895 L20.1355932,42.877193 L17.3898305,42.877193 L17.3898305,47.4385965 L23.7966102,47.4385965 L23.7966102,34.6666667 L17.3898305,34.6666667" id="Fill-70" fill="#D1D4D1"></path>
                    <path d="M47.5932203,7.29824561 C47.5932203,8.80989474 46.3640339,10.0350877 44.8474576,10.0350877 C43.3308814,10.0350877 42.1016949,8.80989474 42.1016949,7.29824561 C42.1016949,5.78659649 43.3308814,4.56140351 44.8474576,4.56140351 C46.3640339,4.56140351 47.5932203,5.78659649 47.5932203,7.29824561" id="Fill-71" fill="#9FABAE"></path>
                    <path d="M11.8983051,7.29824561 C11.8983051,8.80989474 10.6691186,10.0350877 9.15254237,10.0350877 C7.6359661,10.0350877 6.40677966,8.80989474 6.40677966,7.29824561 C6.40677966,5.78659649 7.6359661,4.56140351 9.15254237,4.56140351 C10.6691186,4.56140351 11.8983051,5.78659649 11.8983051,7.29824561" id="Fill-72" fill="#9FABAE"></path>
                </g>
            </g>
        </g>
    </g>
</svg>