<?xml version="1.0" encoding="UTF-8" standalone="no"?>
<svg width="75px" height="75px" viewBox="0 0 75 75" version="1.1" xmlns="http://www.w3.org/2000/svg" xmlns:xlink="http://www.w3.org/1999/xlink" xmlns:sketch="http://www.bohemiancoding.com/sketch/ns">
    <!-- Generator: Sketch 3.3.3 (12072) - http://www.bohemiancoding.com/sketch -->
    <title>feature-3</title>
    <desc>Created with Sketch.</desc>
    <defs></defs>
    <g id="Page-1" stroke="none" stroke-width="1" fill="none" fill-rule="evenodd" sketch:type="MSPage">
        <g id="Features-Copy-2" sketch:type="MSArtboardGroup" transform="translate(-580.000000, -1078.000000)">
            <g id="feature-3" sketch:type="MSLayerGroup" transform="translate(580.000000, 1078.000000)">
                <circle id="Oval-34-Copy-7" fill="#F7F7F7" sketch:type="MSShapeGroup" cx="37.5" cy="37.5" r="37.5"></circle>
                <g transform="translate(16.000000, 15.000000)" id="Group" sketch:type="MSShapeGroup">
                    <g>
                        <path d="M44.5588235,37.1072183 L0.441176471,37.1072183 L0.441176471,3.26061591 C0.441176471,1.78875992 1.63387424,0.596062155 3.10573022,0.596062155 L41.8942698,0.596062155 C43.3661258,0.596062155 44.5588235,1.78875992 44.5588235,3.26061591 L44.5588235,37.1072183" id="Fill-1531" fill="#D7DCE0"></path>
                        <path d="M0.441176471,37.1072183 L0.441176471,42.0491555 C0.441176471,43.5210114 1.63387424,44.7137092 3.10573022,44.7137092 L41.8942698,44.7137092 C43.3661258,44.7137092 44.5588235,43.5210114 44.5588235,42.0491555 L44.5588235,37.1072183 L0.441176471,37.1072183" id="Fill-1532" fill="#556080"></path>
                        <path d="M35.4310345,18.8516402 C35.4310345,28.0935267 27.938641,35.5859202 18.6967546,35.5859202 C9.45486815,35.5859202 1.96247465,28.0935267 1.96247465,18.8516402 C1.96247465,9.60975384 9.45486815,2.11736033 18.6967546,2.11736033 C27.938641,2.11736033 35.4310345,9.60975384 35.4310345,18.8516402" id="Fill-1533" fill="#2C2F38"></path>
                        <path d="M29.5801217,27.1153319 L33.1719067,23.5235469 C33.6465517,22.0509303 33.9097363,20.4824719 33.9097363,18.8516402 C33.9097363,10.4495104 27.0988844,3.6386585 18.6967546,3.6386585 C10.2946247,3.6386585 3.48377282,10.4495104 3.48377282,18.8516402 C3.48377282,27.2537701 10.2946247,34.064622 18.6967546,34.064622 C23.5656694,34.064622 27.8899594,31.768983 30.6739351,28.209906 L29.5801217,27.1153319" id="Fill-1534" fill="#35495E"></path>
                        <path d="M39.2342799,35.5859202 C38.813641,35.5859202 38.4736308,35.2451494 38.4736308,34.8252711 L38.4736308,31.0220256 C38.4736308,30.6021473 38.813641,30.2613766 39.2342799,30.2613766 C39.6549189,30.2613766 39.994929,30.6021473 39.994929,31.0220256 L39.994929,34.8252711 C39.994929,35.2451494 39.6549189,35.5859202 39.2342799,35.5859202" id="Fill-1636" fill="#556080"></path>
                        <path d="M39.2342799,29.5007275 C38.813641,29.5007275 38.4736308,29.1599567 38.4736308,28.7400784 L38.4736308,26.4581311 C38.4736308,26.0382528 38.813641,25.697482 39.2342799,25.697482 C39.6549189,25.697482 39.994929,26.0382528 39.994929,26.4581311 L39.994929,28.7400784 C39.994929,29.1599567 39.6549189,29.5007275 39.2342799,29.5007275" id="Fill-1637" fill="#556080"></path>
                        <path d="M41.5162272,5.92060577 C41.5162272,7.1810013 40.4946755,8.20255303 39.2342799,8.20255303 C37.9738844,8.20255303 36.9523327,7.1810013 36.9523327,5.92060577 C36.9523327,4.66021023 37.9738844,3.6386585 39.2342799,3.6386585 C40.4946755,3.6386585 41.5162272,4.66021023 41.5162272,5.92060577" id="Fill-1638" fill="#556080"></path>
                        <path d="M18.6967546,12.0057985 C14.915568,12.0057985 11.8509128,15.0712143 11.8509128,18.8516402 C11.8509128,22.6320662 14.915568,25.697482 18.6967546,25.697482 C22.4779412,25.697482 25.5425963,22.6320662 25.5425963,18.8516402 C25.5425963,15.0712143 22.4779412,12.0057985 18.6967546,12.0057985 L18.6967546,12.0057985 Z M18.6967546,21.8942366 C17.0164807,21.8942366 15.6541582,20.5319141 15.6541582,18.8516402 C15.6541582,17.1713664 17.0164807,15.8090439 18.6967546,15.8090439 C20.3770284,15.8090439 21.7393509,17.1713664 21.7393509,18.8516402 C21.7393509,20.5319141 20.3770284,21.8942366 18.6967546,21.8942366 L18.6967546,21.8942366 Z" id="Fill-1639" fill="#F3D55B"></path>
                        <path d="M36.9523327,28.7400784 L41.5162272,28.7400784 L41.5162272,31.0220256 L36.9523327,31.0220256 L36.9523327,28.7400784 Z" id="Fill-1894" fill="#FFFFFF"></path>
                        <path d="M34.4208925,24.4256768 L39.2342799,19.6122893 L39.2342799,5.92060577" id="Stroke-1896" stroke="#464F5D" stroke-width="1.71999991" stroke-linecap="round"></path>
                        <path d="M31.7312373,29.2664476 L29.5801217,27.1153319 L33.344574,23.350119 L35.4964503,25.5019952 L31.7312373,29.2664476" id="Fill-2070" fill="#FFFFFF"></path>
                        <path d="M21.7393509,18.8516402 C21.7393509,20.5319141 20.3770284,21.8942366 18.6967546,21.8942366 C17.0164807,21.8942366 15.6541582,20.5319141 15.6541582,18.8516402 C15.6541582,17.1713664 17.0164807,15.8090439 18.6967546,15.8090439 C20.3770284,15.8090439 21.7393509,17.1713664 21.7393509,18.8516402" id="Fill-2072" fill="#2C2F38"></path>
                        <g transform="translate(13.235294, 38.823529)" fill="#FFFFFF">
                            <path d="M0.775862069,3.60823254 L0.0152129817,2.84758345 L0.0152129817,1.32628528 L0.775862069,0.565636192 L2.29716024,0.565636192 L3.05780933,1.32628528 L3.05780933,2.84758345 L2.29716024,3.60823254 L0.775862069,3.60823254" id="Fill-1622"></path>
                            <path d="M6.10040568,3.60823254 L5.33975659,2.84758345 L5.33975659,1.32628528 L6.10040568,0.565636192 L7.62170385,0.565636192 L8.38235294,1.32628528 L8.38235294,2.84758345 L7.62170385,3.60823254 L6.10040568,3.60823254" id="Fill-1623"></path>
                            <path d="M11.3488844,3.60823254 L10.5882353,2.84758345 L10.5882353,1.32628528 L11.3488844,0.565636192 L12.8701826,0.565636192 L13.6308316,1.32628528 L13.6308316,2.84758345 L12.8701826,3.60823254 L11.3488844,3.60823254" id="Fill-1620"></path>
                            <path d="M16.643002,3.60823254 L15.8823529,2.84758345 L15.8823529,1.32628528 L16.643002,0.565636192 L18.1643002,0.565636192 L18.9249493,1.32628528 L18.9249493,2.84758345 L18.1643002,3.60823254 L16.643002,3.60823254" id="Fill-1621"></path>
                        </g>
                    </g>
                </g>
            </g>
        </g>
    </g>
</svg>