<?xml version="1.0" encoding="UTF-8" standalone="no"?>
<svg width="32px" height="29px" viewBox="0 0 32 29" version="1.1" xmlns="http://www.w3.org/2000/svg" xmlns:xlink="http://www.w3.org/1999/xlink" xmlns:sketch="http://www.bohemiancoding.com/sketch/ns">
    <!-- Generator: Sketch 3.3.3 (12072) - http://www.bohemiancoding.com/sketch -->
    <title>heart</title>
    <desc>Created with Sketch.</desc>
    <defs></defs>
    <g id="Page-1" stroke="none" stroke-width="1" fill="none" fill-rule="evenodd" sketch:type="MSPage">
        <g id="Home" sketch:type="MSArtboardGroup" transform="translate(-707.000000, -1416.000000)">
            <g id="heart" sketch:type="MSLayerGroup" transform="translate(707.000000, 1416.000000)">
                <path d="M15.9076923,5.58280851 C17.1501538,2.63159574 19.9864615,0.569510638 23.2867692,0.569510638 C27.7316923,0.569510638 30.9329231,4.38208511 31.3353846,8.92582979 C31.3353846,8.92582979 31.5526154,10.0543617 31.0744615,12.0849787 C30.4233846,14.8498511 28.8935385,17.3074468 26.8295385,19.1819574 L15.9076923,28.9518723 L5.17046154,19.1813404 C3.10646154,17.3068298 1.57661538,14.8498511 0.925538462,12.0837447 C0.447384615,10.0537447 0.664615385,8.92521277 0.664615385,8.92521277 C1.06707692,4.38146809 4.26830769,0.568893617 8.71323077,0.568893617 C12.0135385,0.568893617 14.6658462,2.63159574 15.9076923,5.58280851" id="Fill-3918" fill="#D0021B" sketch:type="MSShapeGroup"></path>
                <path d="M4.30769231,10.4893617 C3.96738462,10.4893617 3.69230769,10.2135532 3.69230769,9.87234043 C3.69230769,6.47008511 6.45292308,3.70212766 9.84615385,3.70212766 C10.1864615,3.70212766 10.4615385,3.97793617 10.4615385,4.31914894 C10.4615385,4.6603617 10.1864615,4.93617021 9.84615385,4.93617021 C7.13169231,4.93617021 4.92307692,7.15065957 4.92307692,9.87234043 C4.92307692,10.2135532 4.648,10.4893617 4.30769231,10.4893617" id="Fill-3920" fill="#E14F61" sketch:type="MSShapeGroup"></path>
            </g>
        </g>
    </g>
</svg>