<?xml version="1.0" encoding="UTF-8" standalone="no"?>
<svg width="85px" height="70px" viewBox="0 0 85 70" version="1.1" xmlns="http://www.w3.org/2000/svg" xmlns:xlink="http://www.w3.org/1999/xlink" xmlns:sketch="http://www.bohemiancoding.com/sketch/ns">
    <!-- Generator: Sketch 3.4.4 (17249) - http://www.bohemiancoding.com/sketch -->
    <title>home-icon-custom</title>
    <desc>Created with Sketch.</desc>
    <defs></defs>
    <g id="Style-Inventory" stroke="none" stroke-width="1" fill="none" fill-rule="evenodd" sketch:type="MSPage">
        <g id="Home" sketch:type="MSArtboardGroup" transform="translate(-129.000000, -1381.000000)">
            <g id="home-icon-custom" sketch:type="MSLayerGroup" transform="translate(129.000000, 1381.000000)">
                <rect id="Bound" fill-opacity="0.01" fill="#FFFFFF" sketch:type="MSShapeGroup" x="0" y="0" width="85" height="70"></rect>
                <g id="Icon" transform="translate(22.000000, 11.000000)" sketch:type="MSShapeGroup">
                    <path d="M19.4182467,8.96744124 L19.4182467,13.3532673 C19.4182467,14.4375804 18.691884,15.4374501 17.6284949,15.648185 C16.1996826,15.9314067 14.9345261,14.8321478 14.9345261,13.4511619 L14.9345261,20.1767428 C14.9345261,21.5577288 13.6693696,22.6569876 12.2413046,22.3737659 C11.1771682,22.163031 10.4508055,21.1631613 10.4508055,20.0788482 L10.4508055,17.5612391 C10.4508055,18.168036 10.1556272,18.707577 9.70351871,19.0498343 L9.70351871,42.689504 C12.534241,43.1035009 15.8604144,43.3426327 19.4182467,43.3426327 C23.6747922,43.3426327 27.5965531,43.0003753 30.7381467,42.4249645 L30.7381467,8.04977309 C27.5965531,8.6251839 23.6747922,8.96744124 19.4182467,8.96744124" id="Fill-300" fill="#C0D3DC"></path>
                    <path d="M8.07518084,19.3614529 C7.25391268,19.1410033 6.71437163,18.3466375 6.71437163,17.4962252 L6.71437163,8.19325215 C6.71437163,8.05201495 6.73081194,7.91451418 6.75621969,7.77925528 C6.5297918,7.72918707 6.30859492,7.67762428 6.09188175,7.6253142 C6.0724523,7.6200832 6.05451741,7.61559948 6.03508796,7.61111576 C5.83929882,7.56254212 5.64799341,7.51322119 5.461919,7.46315298 C5.43053296,7.45493282 5.3998942,7.44596538 5.36925544,7.43774523 C5.1966322,7.38991887 5.02774539,7.34209252 4.86408959,7.29351888 C4.82597796,7.28230958 4.78936091,7.27035299 4.75199657,7.25914369 C4.59955007,7.21281191 4.45009272,7.16573284 4.30511908,7.11865377 C4.26102916,7.10370804 4.21768653,7.0887623 4.17359661,7.07381657 C4.03983228,7.02897936 3.9090571,6.98264758 3.78201834,6.9363158 C3.73419199,6.91912821 3.68786021,6.90119332 3.64152843,6.88325844 C3.52270984,6.83916852 3.40762767,6.79358403 3.29553466,6.74799954 C3.2477083,6.72857008 3.19988195,6.70839334 3.15355017,6.68896388 C3.04818274,6.64412668 2.94580445,6.59928947 2.8471626,6.55370498 C2.80008353,6.53128637 2.75300446,6.50961506 2.70741997,6.48794374 C2.61475641,6.44385382 2.52582928,6.39901661 2.43914402,6.35343212 C2.39355953,6.32951894 2.34797503,6.30560577 2.3046324,6.28243988 C2.22392543,6.23834996 2.14695489,6.19351275 2.07222621,6.14867555 C2.02963087,6.12252051 1.98628824,6.09711276 1.94518746,6.07170501 C1.87568979,6.02761509 1.81067584,5.98277788 1.74715647,5.93794068 C1.70755027,5.91103835 1.66794407,5.88338874 1.63132702,5.85573913 C1.57154408,5.81164921 1.51699214,5.76681201 1.4631875,5.7219748 C1.42955959,5.6935779 1.39443711,5.66592829 1.36305107,5.63678411 C1.31373014,5.5919469 1.26889294,5.54636241 1.2255503,5.5015252 C1.19715341,5.47163373 1.16651465,5.44248955 1.14035961,5.41334536 C1.10075341,5.36776087 1.06712551,5.32142909 1.03275032,5.2758446 C1.01033171,5.24595313 0.98567125,5.21606166 0.965494507,5.1854229 C0.93485575,5.13834383 0.910942573,5.09051748 0.885534823,5.04269113 C0.870589087,5.01354694 0.852654205,4.98440276 0.839203043,4.95451129 C0.81678444,4.90220121 0.801838705,4.84914385 0.786892969,4.79608649 C0.779420101,4.77142603 0.7682108,4.74601828 0.762979793,4.72061053 C0.745792197,4.64214542 0.736077469,4.56293302 0.736077469,4.48372062 L0.736077469,38.8589121 C0.736077469,40.4812716 4.3267904,41.9018638 9.70351871,42.689504 L9.70351871,19.0498343 C9.26785053,19.3793878 8.68571413,19.5251087 8.07518084,19.3614529" id="Fill-301" fill="#8AA6B4"></path>
                    <path d="M38.100416,38.8589121 L38.100416,4.48372062 C38.100416,5.93868796 35.2114053,7.23074679 30.7381467,8.04977309 L30.7381467,42.4249645 C35.2114053,41.6059382 38.100416,40.3138794 38.100416,38.8589121" id="Fill-302" fill="#8AA6B4"></path>
                    <path d="M11.1719372,30.2651142 L11.1719372,30.2651142 C10.1399342,29.2338585 10.1399342,27.5606834 11.1719372,26.5286803 L13.0401541,24.6604634 L14.9083711,26.5286803 C15.9403741,27.5606834 15.9403741,29.2338585 14.9083711,30.2651142 C13.876368,31.2971172 12.203193,31.2971172 11.1719372,30.2651142" id="Fill-318" fill="#3AB0D5"></path>
                    <path d="M16.4290996,43.283597 C17.4035616,43.3209614 18.3996949,43.3426327 19.4182467,43.3426327 C20.9651303,43.3426327 22.4656822,43.2963009 23.9019673,43.2111102 L23.9019673,8.83591877 C22.4656822,8.92110946 20.9651303,8.96744124 19.4182467,8.96744124 L19.4182467,13.3532673 C19.4182467,14.4375804 18.691884,15.4374501 17.6284949,15.648185 C17.2025415,15.7326284 16.7967647,15.6825602 16.4290996,15.5510377 L16.4290996,43.283597" id="Fill-373" fill="#EBEFF0"></path>
                    <path d="M38.100416,10.4620148 L38.100416,14.9853416 C38.100416,26.5197129 30.0401809,35.869765 20.0967831,35.869765 L18.7404576,35.869765 C8.79705986,35.869765 0.736077469,26.5197129 0.736077469,14.9853416 L0.736077469,10.4620148" id="Stroke-374" stroke="#2F4149" stroke-width="2" stroke-linecap="round" stroke-linejoin="round"></path>
                    <path d="M19.4182467,0 C9.10045829,0 0.736077469,2.00795955 0.736077469,4.48372062 C0.736077469,5.78698875 3.0556556,6.96022898 6.75621969,7.77925528 C6.73081194,7.91451418 6.71437163,8.05201495 6.71437163,8.19325215 L6.71437163,17.4962252 C6.71437163,18.3466375 7.25391268,19.1410033 8.07518084,19.3614529 C9.31866603,19.6947428 10.4508055,18.7539088 10.4508055,17.5612391 L10.4508055,20.0788482 C10.4508055,21.1631613 11.1771682,22.163031 12.2413046,22.3737659 C13.6693696,22.6569876 14.9345261,21.5577288 14.9345261,20.1767428 L14.9345261,13.4511619 C14.9345261,14.8321478 16.1996826,15.9314067 17.6284949,15.648185 C18.691884,15.4374501 19.4182467,14.4375804 19.4182467,13.3532673 L19.4182467,8.96744124 C29.7360352,8.96744124 38.100416,6.96022898 38.100416,4.48372062 C38.100416,2.00795955 29.7360352,0 19.4182467,0" id="Fill-375" fill="#3AB0D5"></path>
                    <path d="M6.71437163,8.19325215 C6.71437163,8.05201495 6.73081194,7.91451418 6.75621969,7.77925528 C3.0556556,6.96022898 0.736077469,5.78698875 0.736077469,4.48372062 L0.736077469,8.22015447 C0.736077469,9.51893888 3.03921529,10.6876954 6.71437163,11.5067217 L6.71437163,8.19325215" id="Fill-376" fill="#2F4149"></path>
                    <path d="M19.4182467,8.96744124 L19.4182467,12.7038751 C29.7360352,12.7038751 38.100416,10.6966628 38.100416,8.22015447 L38.100416,4.48372062 C38.100416,6.96022898 29.7360352,8.96744124 19.4182467,8.96744124" id="Fill-377" fill="#2F4149"></path>
                </g>
            </g>
        </g>
    </g>
</svg>