<?xml version="1.0" encoding="UTF-8" standalone="no"?>
<svg width="85px" height="70px" viewBox="0 0 85 70" version="1.1" xmlns="http://www.w3.org/2000/svg" xmlns:xlink="http://www.w3.org/1999/xlink" xmlns:sketch="http://www.bohemiancoding.com/sketch/ns">
    <!-- Generator: Sketch 3.4.4 (17249) - http://www.bohemiancoding.com/sketch -->
    <title>home-icon-private</title>
    <desc>Created with Sketch.</desc>
    <defs></defs>
    <g id="Style-Inventory" stroke="none" stroke-width="1" fill="none" fill-rule="evenodd" sketch:type="MSPage">
        <g id="Home" sketch:type="MSArtboardGroup" transform="translate(-128.000000, -1244.000000)">
            <g id="home-icon-private" sketch:type="MSLayerGroup" transform="translate(128.000000, 1244.000000)">
                <rect id="Bound" fill-opacity="0.01" fill="#FFFFFF" sketch:type="MSShapeGroup" x="0" y="0" width="85" height="70"></rect>
                <g id="Combination-Lock" transform="translate(23.000000, 6.000000)" sketch:type="MSShapeGroup">
                    <path d="M34.5577342,21.9362862 L30.6082789,21.9362862 L30.6082789,15.4466241 C30.6082789,9.16595444 25.5144688,4.05603884 19.2535948,4.05603884 C12.9927207,4.05603884 7.89891068,9.16595444 7.89891068,15.4466241 L7.89891068,21.9362862 L3.94945534,21.9362862 L3.94945534,15.4466241 C3.94945534,6.98094304 10.8145961,0.0940961391 19.2535948,0.0940961391 C27.6925935,0.0940961391 34.5577342,6.98094304 34.5577342,15.4466241 L34.5577342,21.9362862" id="Fill-2559" fill="#2F4149"></path>
                    <path d="M31.5956427,50.6593803 L6.91154684,50.6593803 C3.09439826,50.6593803 0,47.5551982 0,43.7269711 L0,21.9362862 L38.5071895,21.9362862 L38.5071895,43.7269711 C38.5071895,47.5551982 35.4127913,50.6593803 31.5956427,50.6593803" id="Fill-2565" fill="#8AA7B4"></path>
                    <path d="M18.7599129,50.6593803 L18.7599129,21.9362862 L0,21.9362862 L0,43.7269711 C0,47.5551982 3.09439826,50.6593803 6.91154684,50.6593803 L18.7599129,50.6593803 Z" id="Fill-2566" fill="#C0D3DC"></path>
                    <path d="M31.5956427,50.6593803 L6.91154684,50.6593803 C3.09439826,50.6593803 0,47.5551982 0,43.7269711 L38.5071895,43.7269711 C38.5071895,47.5551982 35.4127913,50.6593803 31.5956427,50.6593803" id="Fill-2576" fill="#2F4149"></path>
                    <path d="M25.6714597,26.8877241 L30.6082789,26.8877241 L30.6082789,38.7735522 L25.6714597,38.7735522 L25.6714597,26.8877241 Z" id="Fill-2577" fill="#2F4149"></path>
                    <path d="M16.7851852,26.8877241 L21.7220044,26.8877241 L21.7220044,38.7735522 L16.7851852,38.7735522 L16.7851852,26.8877241 Z" id="Fill-2578" fill="#2F4149"></path>
                    <path d="M7.89891068,26.8877241 L12.8357298,26.8877241 L12.8357298,38.7735522 L7.89891068,38.7735522 L7.89891068,26.8877241 Z" id="Fill-2579" fill="#2F4149"></path>
                    <path d="M8.88627451,27.8792003 L11.848366,27.8792003 L11.848366,29.8601716 L8.88627451,29.8601716 L8.88627451,27.8792003 Z" id="Fill-2651" fill="#627077"></path>
                    <path d="M8.88627451,31.841143 L11.848366,31.841143 L11.848366,33.8221143 L8.88627451,33.8221143 L8.88627451,31.841143 Z" id="Fill-2652" fill="#627077"></path>
                    <path d="M8.88627451,35.8020952 L11.848366,35.8020952 L11.848366,37.7830666 L8.88627451,37.7830666 L8.88627451,35.8020952 Z" id="Fill-2653" fill="#F88B1C"></path>
                    <path d="M17.772549,27.8792003 L20.7346405,27.8792003 L20.7346405,29.8601716 L17.772549,29.8601716 L17.772549,27.8792003 Z" id="Fill-2654" fill="#627077"></path>
                    <path d="M17.772549,31.841143 L20.7346405,31.841143 L20.7346405,33.8221143 L17.772549,33.8221143 L17.772549,31.841143 Z" id="Fill-2655" fill="#F88B1C"></path>
                    <path d="M17.772549,35.8020952 L20.7346405,35.8020952 L20.7346405,37.7830666 L17.772549,37.7830666 L17.772549,35.8020952 Z" id="Fill-2656" fill="#627077"></path>
                    <path d="M26.6588235,27.8792003 L29.620915,27.8792003 L29.620915,29.8601716 L26.6588235,29.8601716 L26.6588235,27.8792003 Z" id="Fill-2657" fill="#627077"></path>
                    <path d="M26.6588235,31.841143 L29.620915,31.841143 L29.620915,33.8221143 L26.6588235,33.8221143 L26.6588235,31.841143 Z" id="Fill-2658" fill="#627077"></path>
                    <path d="M26.6588235,35.8020952 L29.620915,35.8020952 L29.620915,37.7830666 L26.6588235,37.7830666 L26.6588235,35.8020952 Z" id="Fill-2659" fill="#F88B1C"></path>
                    <path d="M0,43.7269711 C0,47.5551982 3.09439826,50.6593803 6.91154684,50.6593803 L18.7599129,50.6593803 L18.7599129,43.7269711 L0,43.7269711" id="Fill-2672" fill="#627077"></path>
                </g>
            </g>
        </g>
    </g>
</svg>