<?xml version="1.0" encoding="UTF-8" standalone="no"?>
<svg width="85px" height="70px" viewBox="0 0 85 70" version="1.1" xmlns="http://www.w3.org/2000/svg" xmlns:xlink="http://www.w3.org/1999/xlink" xmlns:sketch="http://www.bohemiancoding.com/sketch/ns">
    <!-- Generator: Sketch 3.4.4 (17249) - http://www.bohemiancoding.com/sketch -->
    <title>home-icon-template</title>
    <desc>Created with Sketch.</desc>
    <defs></defs>
    <g id="Style-Inventory" stroke="none" stroke-width="1" fill="none" fill-rule="evenodd" sketch:type="MSPage">
        <g id="Home" sketch:type="MSArtboardGroup" transform="translate(-732.000000, -1381.000000)">
            <g id="home-icon-template" sketch:type="MSLayerGroup" transform="translate(732.000000, 1381.000000)">
                <rect id="Rectangle-203" fill-opacity="0.00999999978" fill="#D8D8D8" sketch:type="MSShapeGroup" x="0" y="0" width="85" height="70"></rect>
                <g id="ICON" transform="translate(19.000000, 15.000000)" sketch:type="MSShapeGroup">
                    <path d="M0,0 L45,0 L45,45 L0,45 L0,0 Z" id="Fill-1644" fill="#ECF0F1"></path>
                    <path d="M0,0 L45,0 L45,9.31034483 L0,9.31034483 L0,0 Z" id="Fill-1645" fill="#2F4149"></path>
                    <path d="M6.98275862,4.65517241 C6.98275862,5.94077586 5.94077586,6.98275862 4.65517241,6.98275862 C3.36956897,6.98275862 2.32758621,5.94077586 2.32758621,4.65517241 C2.32758621,3.36956897 3.36956897,2.32758621 4.65517241,2.32758621 C5.94077586,2.32758621 6.98275862,3.36956897 6.98275862,4.65517241" id="Fill-1646" fill="#B83A49"></path>
                    <path d="M13.9655172,4.65517241 C13.9655172,5.94077586 12.9235345,6.98275862 11.637931,6.98275862 C10.3523276,6.98275862 9.31034483,5.94077586 9.31034483,4.65517241 C9.31034483,3.36956897 10.3523276,2.32758621 11.637931,2.32758621 C12.9235345,2.32758621 13.9655172,3.36956897 13.9655172,4.65517241" id="Fill-1647" fill="#F88B1C"></path>
                    <path d="M20.9482759,4.65517241 C20.9482759,5.94077586 19.9062931,6.98275862 18.6206897,6.98275862 C17.3350862,6.98275862 16.2931034,5.94077586 16.2931034,4.65517241 C16.2931034,3.36956897 17.3350862,2.32758621 18.6206897,2.32758621 C19.9062931,2.32758621 20.9482759,3.36956897 20.9482759,4.65517241" id="Fill-1648" fill="#7ED321"></path>
                    <path d="M3.10344828,34.137931 L13.1896552,34.137931 L13.1896552,41.8965517 L3.10344828,41.8965517 L3.10344828,34.137931 Z" id="Fill-1649" fill="#62A4B8"></path>
                    <path d="M17.0689655,34.137931 L27.1551724,34.137931 L27.1551724,41.8965517 L17.0689655,41.8965517 L17.0689655,34.137931 Z" id="Fill-1650" fill="#7CA6AB"></path>
                    <path d="M3.10344828,12.4137931 L13.1896552,12.4137931 L13.1896552,20.1724138 L3.10344828,20.1724138 L3.10344828,12.4137931 Z" id="Fill-1651" fill="#0097A7"></path>
                    <path d="M17.0689655,12.4137931 L27.1551724,12.4137931 L27.1551724,20.1724138 L17.0689655,20.1724138 L17.0689655,12.4137931 Z" id="Fill-1652" fill="#3AB0D5"></path>
                    <path d="M31.0344828,12.4137931 L41.1206897,12.4137931 L41.1206897,20.1724138 L31.0344828,20.1724138 L31.0344828,12.4137931 Z" id="Fill-1653" fill="#5B81A4"></path>
                    <path d="M3.10344828,23.2758621 L13.1896552,23.2758621 L13.1896552,31.0344828 L3.10344828,31.0344828 L3.10344828,23.2758621 Z" id="Fill-1654" fill="#285680"></path>
                    <path d="M31.0344828,34.137931 L41.1206897,34.137931 L41.1206897,41.8965517 L31.0344828,41.8965517 L31.0344828,34.137931 Z" id="Fill-1655" fill="#5790A2"></path>
                    <path d="M17.0689655,23.2758621 L27.1551724,23.2758621 L27.1551724,31.0344828 L17.0689655,31.0344828 L17.0689655,23.2758621 Z" id="Fill-1656" fill="#3F555F"></path>
                    <path d="M31.0344828,23.2758621 L41.1206897,23.2758621 L41.1206897,31.0344828 L31.0344828,31.0344828 L31.0344828,23.2758621 Z" id="Fill-1657" fill="#658FA3"></path>
                </g>
            </g>
        </g>
    </g>
</svg>