<?xml version="1.0" encoding="UTF-8" standalone="no"?>
<svg width="85px" height="70px" viewBox="0 0 85 70" version="1.1" xmlns="http://www.w3.org/2000/svg" xmlns:xlink="http://www.w3.org/1999/xlink" xmlns:sketch="http://www.bohemiancoding.com/sketch/ns">
    <!-- Generator: Sketch 3.4.4 (17249) - http://www.bohemiancoding.com/sketch -->
    <title>home-icon-integration</title>
    <desc>Created with Sketch.</desc>
    <defs></defs>
    <g id="Style-Inventory" stroke="none" stroke-width="1" fill="none" fill-rule="evenodd" sketch:type="MSPage">
        <g id="Home" sketch:type="MSArtboardGroup" transform="translate(-128.000000, -1515.000000)">
            <g id="home-icon-integration" sketch:type="MSLayerGroup" transform="translate(128.000000, 1515.000000)">
                <rect id="Rectangle-201" fill-opacity="0.01" fill="#FFFFFF" sketch:type="MSShapeGroup" x="0" y="0" width="85" height="70"></rect>
                <g id="Group" transform="translate(18.000000, 9.000000)" sketch:type="MSShapeGroup">
                    <path d="M24,12.4137931 C16.7172414,12.4137931 10.7586207,18.3724138 10.7586207,25.6551724 L10.7586207,29.7931034 L0,29.7931034 L0,41.5125517 C0,45.0951724 2.90482759,48 6.48744828,48 L43.0344828,48 C45.7655172,48 48,45.7655172 48,43.0344828 L48,25.6551724 C48,18.3724138 42.0413793,12.4137931 34.7586207,12.4137931 L24,12.4137931 Z" id="Fill-960" fill="#546E7A"></path>
                    <path d="M12.4137931,7.86206897 C12.4137931,10.3655172 14.462069,12.4137931 16.9655172,12.4137931 L19.862069,12.4137931 L19.862069,3.31034483 L16.9655172,3.31034483 C14.462069,3.31034483 12.4137931,5.35862069 12.4137931,7.86206897" id="Fill-983" fill="#077CA0"></path>
                    <path d="M47.1724138,7.86206897 C47.1724138,10.3655172 45.1241379,12.4137931 42.6206897,12.4137931 L39.7241379,12.4137931 L39.7241379,3.31034483 L42.6206897,3.31034483 C45.1241379,3.31034483 47.1724138,5.35862069 47.1724138,7.86206897" id="Fill-984" fill="#077CA0"></path>
                    <path d="M24,3.31034483 L35.5862069,3.31034483 L35.5862069,12.4137931 L24,12.4137931 L24,3.31034483 Z" id="Fill-985" fill="#077CA0"></path>
                    <path d="M9.93103448,29.7931034 L11.5862069,29.7931034 L11.5862069,48 L9.93103448,48 L9.93103448,29.7931034 Z" id="Fill-986" fill="#2F4149"></path>
                    <path d="M12.5801379,19.0005517 L12.5801379,18.3732414 C12.5801379,17.8245517 12.1348966,17.3793103 11.5862069,17.3793103 L3.47668966,17.3793103 C2.928,17.3793103 2.48275862,17.8245517 2.48275862,18.3732414 L2.48275862,20.6896552 L11.7384828,20.6896552 C11.9776552,20.1037241 12.2623448,19.5417931 12.5801379,19.0005517" id="Fill-987" fill="#F88B1C"></path>
                    <path d="M1.65517241,24 L10.8744828,24 C11.0201379,22.8446897 11.3122759,21.734069 11.7384828,20.6896552 L1.65517241,20.6896552 C0.744827586,20.6896552 0,21.4344828 0,22.3448276 C0,23.2551724 0.744827586,24 1.65517241,24" id="Fill-988" fill="#2F4149"></path>
                    <path d="M10.7586207,25.6551724 C10.7586207,25.0932414 10.8057931,24.5437241 10.8744828,24 L1.65517241,24 L1.65517241,29.7931034 L10.7586207,29.7931034 L10.7586207,25.6551724" id="Fill-989" fill="#F88B1C"></path>
                    <path d="M14.8965517,36.4137931 L26.4827586,36.4137931 L26.4827586,48 L14.8965517,48 L14.8965517,36.4137931 Z" id="Fill-990" fill="#2F4149"></path>
                    <path d="M43.0228966,48 L32.2758621,48 L32.2758621,36.4137931 L43.862069,36.4137931 L43.862069,47.1608276 C43.862069,47.6242759 43.4863448,48 43.0228966,48" id="Fill-991" fill="#2F4149"></path>
                    <path d="M21.5172414,39.7241379 C21.5172414,40.1809655 21.1464828,40.5517241 20.6896552,40.5517241 C20.2328276,40.5517241 19.862069,40.1809655 19.862069,39.7241379 C19.862069,39.2673103 20.2328276,38.8965517 20.6896552,38.8965517 C21.1464828,38.8965517 21.5172414,39.2673103 21.5172414,39.7241379" id="Fill-992" fill="#077CA0"></path>
                    <path d="M38.8965517,39.7241379 C38.8965517,40.1809655 38.5257931,40.5517241 38.0689655,40.5517241 C37.6121379,40.5517241 37.2413793,40.1809655 37.2413793,39.7241379 C37.2413793,39.2673103 37.6121379,38.8965517 38.0689655,38.8965517 C38.5257931,38.8965517 38.8965517,39.2673103 38.8965517,39.7241379" id="Fill-993" fill="#077CA0"></path>
                    <path id="Stroke-994" stroke="#0096E6" stroke-width="2"></path>
                    <path d="M24,12.4137931 L24,0.933517241 C24,0.417931034 23.582069,0 23.0664828,0 L20.7955862,0 C20.28,0 19.862069,0.417931034 19.862069,0.933517241 L19.862069,13.0891034 C21.1663448,12.6562759 22.5550345,12.4137931 24,12.4137931" id="Fill-995" fill="#2F4149"></path>
                    <path d="M39.7241379,13.3936552 L39.7241379,0.933517241 C39.7241379,0.417931034 39.3062069,0 38.7906207,0 L36.5197241,0 C36.0041379,0 35.5862069,0.417931034 35.5862069,0.933517241 L35.5862069,12.456 C37.0394483,12.5470345 38.4322759,12.8664828 39.7241379,13.3936552" id="Fill-996" fill="#2F4149"></path>
                    <path d="M9.10344828,17.3793103 L5.79310345,17.3793103 L5.79310345,14.5688276 C5.79310345,14.2932414 6.01737931,14.0689655 6.29296552,14.0689655 L8.60358621,14.0689655 C8.87917241,14.0689655 9.10344828,14.2932414 9.10344828,14.5688276 L9.10344828,17.3793103" id="Fill-997" fill="#546E7A"></path>
                    <path d="M43.862069,37.5351724 L38.0615172,42.7572414 L32.2758621,37.6932414 L32.2758621,39.8929655 L37.4896552,44.4554483 L38.1161379,44.9346207 L43.862069,39.7622069 L43.862069,37.5351724" id="Fill-1024" fill="#D3D3D3"></path>
                    <path d="M26.4827586,37.8761379 L20.6863448,42.7804138 L14.8965517,37.9572414 L14.8965517,40.1114483 L20.1103448,44.4554483 L20.7202759,44.9197241 L26.4827586,40.0435862 L26.4827586,37.8761379" id="Fill-1025" fill="#D3D3D3"></path>
                    <path d="M24,27.3103448 L35.5862069,27.3103448 L35.5862069,28.9655172 L24,28.9655172 L24,27.3103448 Z" id="Fill-1026" fill="#2F4149"></path>
                    <path d="M10.9456552,23.5365517 C11.904,26.2353103 14.6722759,28.08 17.1095172,28.92 C17.1988966,28.9506207 17.289931,28.9655172 17.3793103,28.9655172 C17.7227586,28.9655172 18.0438621,28.7503448 18.1613793,28.4077241 C18.3103448,27.9757241 18.0811034,27.5048276 17.6491034,27.3558621 C15.1597241,26.4968276 12.2524138,24.4526897 12.2524138,21.5172414 L12.2524138,19.5848276 C11.6176552,20.8046897 11.174069,22.1346207 10.9456552,23.5365517" id="Fill-1027" fill="#2F4149"></path>
                    <path d="M47.8361379,23.6846897 C47.616,22.2289655 47.1633103,20.8477241 46.5062069,19.5848276 L46.5062069,21.5172414 C46.5062069,24.1862069 44.798069,26.3685517 41.9371034,27.3558621 C41.5051034,27.5048276 41.2758621,27.9757241 41.4248276,28.4077241 C41.5431724,28.7503448 41.8634483,28.9655172 42.2068966,28.9655172 C42.2962759,28.9655172 42.3873103,28.9506207 42.4766897,28.92 C45.1961379,27.9823448 47.1103448,26.064 47.8361379,23.6846897" id="Fill-1028" fill="#2F4149"></path>
                    <path d="M17.3793103,29.7931034 L20.5249655,32.9387586 C20.616,33.0297931 20.7633103,33.0297931 20.8535172,32.9387586 L24,29.7931034 L24,12.4137931 C21.590069,12.4137931 19.3315862,13.0775172 17.3793103,14.2146207 L17.3793103,29.7931034" id="Fill-1029" fill="#2F4149"></path>
                    <path d="M35.5862069,12.456 L35.5862069,29.7931034 L38.7318621,32.9387586 C38.8228966,33.0297931 38.9702069,33.0297931 39.0604138,32.9387586 L42.2068966,29.7931034 L42.2068966,14.7268966 C40.296,13.4176552 38.0267586,12.6091034 35.5862069,12.456" id="Fill-1030" fill="#2F4149"></path>
                    <path d="M21.5172414,15.7241379 C21.5172414,16.1809655 21.1464828,16.5517241 20.6896552,16.5517241 C20.2328276,16.5517241 19.862069,16.1809655 19.862069,15.7241379 C19.862069,15.2673103 20.2328276,14.8965517 20.6896552,14.8965517 C21.1464828,14.8965517 21.5172414,15.2673103 21.5172414,15.7241379" id="Fill-1031" fill="#077CA0"></path>
                    <path d="M21.5172414,19.0344828 C21.5172414,19.4913103 21.1464828,19.862069 20.6896552,19.862069 C20.2328276,19.862069 19.862069,19.4913103 19.862069,19.0344828 C19.862069,18.5776552 20.2328276,18.2068966 20.6896552,18.2068966 C21.1464828,18.2068966 21.5172414,18.5776552 21.5172414,19.0344828" id="Fill-1032" fill="#077CA0"></path>
                    <path d="M16.5517241,20.6896552 L24.8275862,20.6896552 L24.8275862,27.3103448 L16.5517241,27.3103448 L16.5517241,20.6896552 Z M18.2068966,25.6551724 L23.1724138,25.6551724 L23.1724138,22.3448276 L18.2068966,22.3448276 L18.2068966,25.6551724 Z" id="Fill-1033" fill="#D3D3D3"></path>
                    <path d="M20.6896552,24.8275862 C20.2328276,24.8275862 19.862069,24.4568276 19.862069,24 L19.862069,21.5172414 C19.862069,21.0604138 20.2328276,20.6896552 20.6896552,20.6896552 C21.1464828,20.6896552 21.5172414,21.0604138 21.5172414,21.5172414 L21.5172414,24 C21.5172414,24.4568276 21.1464828,24.8275862 20.6896552,24.8275862" id="Fill-1034" fill="#F8F8F8"></path>
                    <path d="M39.7241379,15.7241379 C39.7241379,16.1809655 39.3533793,16.5517241 38.8965517,16.5517241 C38.4397241,16.5517241 38.0689655,16.1809655 38.0689655,15.7241379 C38.0689655,15.2673103 38.4397241,14.8965517 38.8965517,14.8965517 C39.3533793,14.8965517 39.7241379,15.2673103 39.7241379,15.7241379" id="Fill-1035" fill="#077CA0"></path>
                    <path d="M39.7241379,19.0344828 C39.7241379,19.4913103 39.3533793,19.862069 38.8965517,19.862069 C38.4397241,19.862069 38.0689655,19.4913103 38.0689655,19.0344828 C38.0689655,18.5776552 38.4397241,18.2068966 38.8965517,18.2068966 C39.3533793,18.2068966 39.7241379,18.5776552 39.7241379,19.0344828" id="Fill-1036" fill="#077CA0"></path>
                    <path d="M34.7586207,20.6896552 L43.0344828,20.6896552 L43.0344828,27.3103448 L34.7586207,27.3103448 L34.7586207,20.6896552 Z M36.4137931,25.6551724 L41.3793103,25.6551724 L41.3793103,22.3448276 L36.4137931,22.3448276 L36.4137931,25.6551724 Z" id="Fill-1037" fill="#D3D3D3"></path>
                    <path d="M38.8965517,24.8275862 C38.4397241,24.8275862 38.0689655,24.4568276 38.0689655,24 L38.0689655,21.5172414 C38.0689655,21.0604138 38.4397241,20.6896552 38.8965517,20.6896552 C39.3533793,20.6896552 39.7241379,21.0604138 39.7241379,21.5172414 L39.7241379,24 C39.7241379,24.4568276 39.3533793,24.8275862 38.8965517,24.8275862" id="Fill-1038" fill="#F8F8F8"></path>
                </g>
            </g>
        </g>
    </g>
</svg>