<?xml version="1.0" encoding="UTF-8" standalone="no"?>
<svg width="85px" height="70px" viewBox="0 0 85 70" version="1.1" xmlns="http://www.w3.org/2000/svg" xmlns:xlink="http://www.w3.org/1999/xlink" xmlns:sketch="http://www.bohemiancoding.com/sketch/ns">
    <!-- Generator: Sketch 3.4.4 (17249) - http://www.bohemiancoding.com/sketch -->
    <title>home-icon-notification</title>
    <desc>Created with Sketch.</desc>
    <defs></defs>
    <g id="Style-Inventory" stroke="none" stroke-width="1" fill="none" fill-rule="evenodd" sketch:type="MSPage">
        <g id="Home" sketch:type="MSArtboardGroup" transform="translate(-728.000000, -1513.000000)">
            <g id="home-icon-notification" sketch:type="MSLayerGroup" transform="translate(728.000000, 1513.000000)">
                <rect id="Rectangle-204" fill-opacity="0.01" fill="#FFFFFF" sketch:type="MSShapeGroup" x="0" y="-4.54747351e-13" width="85" height="70"></rect>
                <g id="Group" transform="translate(18.000000, 9.000000)" sketch:type="MSShapeGroup">
                    <path d="M39.1406217,40.8914404 L9.79307115,40.8914404 L9.79307115,22.0337211 C9.79307115,13.9857607 16.3626066,7.46184702 24.4668464,7.46184702 C32.5710862,7.46184702 39.1406217,13.9857607 39.1406217,22.0337211 L39.1406217,40.8914404" id="Fill-1223" fill="#3AB0D5"></path>
                    <path d="M7.2035814,40.8914404 L41.7301114,40.8914404 L41.7301114,51.1774691 L7.2035814,51.1774691 L7.2035814,40.8914404 Z" id="Fill-1244" fill="#2F4149"></path>
                    <path d="M40.2566917,4.28432131 L37.667202,6.8558285 C37.3297052,7.1909816 37.3297052,7.73271245 37.667202,8.06786555 C37.8355188,8.23501352 38.0564886,8.31901608 38.2774584,8.31901608 C38.4984282,8.31901608 38.719398,8.23501352 38.8877148,8.06786555 L41.4772046,5.49635837 C41.8147014,5.16120526 41.8147014,4.61947442 41.4772046,4.28432131 C41.1397077,3.94916821 40.5941886,3.94916821 40.2566917,4.28432131" id="Fill-1245" fill="#077CA0"></path>
                    <path d="M23.6036832,0.604494535 C23.1263539,0.604494535 22.7405199,0.987649105 22.7405199,1.4616636 L22.7405199,4.03317078 C22.7405199,4.50718527 23.1263539,4.89033984 23.6036832,4.89033984 C24.0810124,4.89033984 24.4668464,4.50718527 24.4668464,4.03317078 L24.4668464,1.4616636 C24.4668464,0.987649105 24.0810124,0.604494535 23.6036832,0.604494535" id="Fill-1246" fill="#077CA0"></path>
                    <path d="M43.4564379,21.176552 L46.0459277,21.176552 C46.5232569,21.176552 46.9090909,20.7933974 46.9090909,20.3193829 C46.9090909,19.8453684 46.5232569,19.4622139 46.0459277,19.4622139 L43.4564379,19.4622139 C42.9791086,19.4622139 42.5932747,19.8453684 42.5932747,20.3193829 C42.5932747,20.7933974 42.9791086,21.176552 43.4564379,21.176552" id="Fill-1247" fill="#077CA0"></path>
                    <path d="M46.0459277,33.1769189 L43.4564379,33.1769189 C42.9791086,33.1769189 42.5932747,33.5600734 42.5932747,34.0340879 C42.5932747,34.5081024 42.9791086,34.891257 43.4564379,34.891257 L46.0459277,34.891257 C46.5232569,34.891257 46.9090909,34.5081024 46.9090909,34.0340879 C46.9090909,33.5600734 46.5232569,33.1769189 46.0459277,33.1769189" id="Fill-1248" fill="#077CA0"></path>
                    <path d="M6.95067456,4.28432131 C6.61317773,3.94916821 6.06765856,3.94916821 5.73016173,4.28432131 C5.3926649,4.61947442 5.3926649,5.16120526 5.73016173,5.49635837 L8.31965148,8.06786555 C8.48796831,8.23501352 8.70893811,8.31901608 8.9299079,8.31901608 C9.15087769,8.31901608 9.37184748,8.23501352 9.54016432,8.06786555 C9.87766115,7.73271245 9.87766115,7.1909816 9.54016432,6.8558285 L6.95067456,4.28432131" id="Fill-1249" fill="#077CA0"></path>
                    <path d="M3.7509284,19.4622139 L1.16143864,19.4622139 C0.684109367,19.4622139 0.298275394,19.8453684 0.298275394,20.3193829 C0.298275394,20.7933974 0.684109367,21.176552 1.16143864,21.176552 L3.7509284,21.176552 C4.22825767,21.176552 4.61409165,20.7933974 4.61409165,20.3193829 C4.61409165,19.8453684 4.22825767,19.4622139 3.7509284,19.4622139" id="Fill-1250" fill="#077CA0"></path>
                    <path d="M3.7509284,33.1769189 L1.16143864,33.1769189 C0.684109367,33.1769189 0.298275394,33.5600734 0.298275394,34.0340879 C0.298275394,34.5081024 0.684109367,34.891257 1.16143864,34.891257 L3.7509284,34.891257 C4.22825767,34.891257 4.61409165,34.5081024 4.61409165,34.0340879 C4.61409165,33.5600734 4.22825767,33.1769189 3.7509284,33.1769189" id="Fill-1251" fill="#077CA0"></path>
                    <path d="M24.4668464,7.46184702 C16.3626066,7.46184702 9.79307115,13.9857607 9.79307115,22.0337211 L9.79307115,40.8914404 L24.4668464,40.8914404 L24.4668464,7.46184702" id="Fill-1252" fill="#94CADA"></path>
                    <path d="M7.2035814,40.8914404 L24.4668464,40.8914404 L24.4668464,51.1774691 L7.2035814,51.1774691 L7.2035814,40.8914404 Z" id="Fill-1253" fill="#546E7A"></path>
                </g>
            </g>
        </g>
    </g>
</svg>