<?xml version="1.0" encoding="UTF-8" standalone="no"?>
<svg
   xmlns:sketch="http://www.bohemiancoding.com/sketch/ns"
   xmlns:dc="http://purl.org/dc/elements/1.1/"
   xmlns:cc="http://creativecommons.org/ns#"
   xmlns:rdf="http://www.w3.org/1999/02/22-rdf-syntax-ns#"
   xmlns:svg="http://www.w3.org/2000/svg"
   xmlns="http://www.w3.org/2000/svg"
   xmlns:xlink="http://www.w3.org/1999/xlink"
   xmlns:sodipodi="http://sodipodi.sourceforge.net/DTD/sodipodi-0.dtd"
   xmlns:inkscape="http://www.inkscape.org/namespaces/inkscape"
   width="60px"
   height="60px"
   viewBox="0 0 60 60"
   version="1.1"
   id="svg1982"
   sodipodi:docname="Importspeed.svg"
   inkscape:version="0.92.3 (unknown)">
  <metadata
     id="metadata1986">
    <rdf:RDF>
      <cc:Work
         rdf:about="">
        <dc:format>image/svg+xml</dc:format>
        <dc:type
           rdf:resource="http://purl.org/dc/dcmitype/StillImage" />
      </cc:Work>
    </rdf:RDF>
  </metadata>
  <sodipodi:namedview
     pagecolor="#ffffff"
     bordercolor="#666666"
     borderopacity="1"
     objecttolerance="10"
     gridtolerance="10"
     guidetolerance="10"
     inkscape:pageopacity="0"
     inkscape:pageshadow="2"
     inkscape:window-width="1848"
     inkscape:window-height="1018"
     id="namedview1984"
     showgrid="false"
     inkscape:zoom="3.9333333"
     inkscape:cx="-78.305085"
     inkscape:cy="30"
     inkscape:window-x="1992"
     inkscape:window-y="28"
     inkscape:window-maximized="1"
     inkscape:current-layer="svg1982" />
  <!-- Generator: Sketch 3.3.3 (12081) - http://www.bohemiancoding.com/sketch -->
  <title
     id="title1917">Importspeed</title>
  <rect
     style="opacity:1;fill:#546e7a;fill-opacity:1;stroke:none;stroke-width:1.31579006;stroke-linecap:butt;stroke-linejoin:miter;stroke-miterlimit:4;stroke-dasharray:none;stroke-opacity:1"
     id="rect843"
     width="28.728815"
     height="10.169492"
     x="15.508476"
     y="46.525425"
     ry="1.8960068" />
  <desc
     id="desc1919">Created with Sketch.</desc>
  <circle
     style="opacity:1;fill:#ffda71;fill-opacity:1;stroke:none;stroke-width:2;stroke-linecap:butt;stroke-linejoin:miter;stroke-miterlimit:4;stroke-dasharray:none;stroke-opacity:1"
     id="path3415"
     cx="29.745764"
     cy="51.864407"
     r="2.2881355" />
  <defs
     id="defs1928">
    <path
       id="path-1"
       d="M0,2.004 C0,0.897 0.9,0 1.993,0 L27.007,0 C28.108,0 29,0.898 29,2.004 L29,43.976 L0,43.976 L0,2.004 L0,2.004 Z" />
    <path
       id="path-3"
       d="M0,0 L29,0 L29,8 C29,9.105 28.1,10 27.007,10 L1.993,10 C0.892,10 0,9.113 0,8 L0,0 L0,0 Z" />
    <path
       id="path-5"
       d="M2,4 C3.105,4 4,3.105 4,2 C4,0.895 3.105,0 2,0 C0.895,0 0,0.895 0,2 C0,3.105 0.895,4 2,4 L2,4 Z" />
    <path
       id="path-7"
       d="M16,0 L0,0" />
    <path
       id="path-9"
       d="M16,0 L0,0" />
    <path
       id="path-11"
       d="M8,0 L8,8 L0,4 L8,0 L8,0 Z" />
    <path
       id="path-13"
       d="M8,0 L8,8 L0,4 L8,0 L8,0 Z" />
  </defs>
  <g
     style="fill:#000000;fill-rule:evenodd;stroke:none;stroke-width:1"
     transform="translate(-240,-240)"
     sketch:type="MSLayerGroup"
     id="Tech_sliced" />
  <g
     id="Group-300"
     transform="translate(15,3)"
     style="fill:#3ab0d5;fill-rule:evenodd;stroke:none;stroke-width:1;fill-opacity:1">
    <mask
       id="mask-2"
       sketch:name="Clip 299"
       fill="white">
      <use
         xlink:href="#path-1"
         id="use1931"
         x="0"
         y="0"
         width="100%"
         height="100%" />
    </mask>
    <g
       id="Clip-299"
       style="fill:#3ab0d5;fill-opacity:1" />
    <path
       d="M 0,0 H 29 V 43.976 H 0 Z"
       id="Fill-298"
       sketch:type="MSShapeGroup"
       mask="url(#mask-2)"
       style="fill:#3ab0d5;fill-opacity:1"
       inkscape:connector-curvature="0" />
  </g>
  <path
     d="M 45,47.976 H 14 V 5.004 C 14,3.348 15.343,2 16.993,2 H 42.007 C 43.657,2 45,3.348 45,5.004 Z m -29,-2 H 43 V 5.004 C 43,4.45 42.555,4 42.007,4 H 16.993 C 16.445,4 16,4.45 16,5.004 Z"
     id="Fill-301"
     sketch:type="MSShapeGroup"
     style="fill:#2f4149;fill-rule:evenodd;stroke:none;stroke-width:1;fill-opacity:1"
     inkscape:connector-curvature="0" />
  <path
     d="M 42.007,58 H 16.993 C 15.343,58 14,56.654 14,55 v -9 h 31 v 9 c 0,1.654 -1.343,3 -2.993,3 z M 16,48 v 7 c 0,0.561 0.436,1 0.993,1 H 42.007 C 42.555,56 43,55.552 43,55 v -7 z"
     id="Fill-305"
     sketch:type="MSShapeGroup"
     style="fill:#2f4149;fill-rule:evenodd;stroke:none;stroke-width:1;fill-opacity:1"
     inkscape:connector-curvature="0" />
</svg>
