<?xml version="1.0" encoding="UTF-8" standalone="no"?>
<svg width="75px" height="75px" viewBox="0 0 75 75" version="1.1" xmlns="http://www.w3.org/2000/svg" xmlns:xlink="http://www.w3.org/1999/xlink" xmlns:sketch="http://www.bohemiancoding.com/sketch/ns">
    <!-- Generator: Sketch 3.3.3 (12072) - http://www.bohemiancoding.com/sketch -->
    <title>integration</title>
    <desc>Created with Sketch.</desc>
    <defs></defs>
    <g id="Page-1" stroke="none" stroke-width="1" fill="none" fill-rule="evenodd" sketch:type="MSPage">
        <g id="Home" sketch:type="MSArtboardGroup" transform="translate(-720.000000, -976.000000)">
            <g id="integration" sketch:type="MSLayerGroup" transform="translate(720.000000, 976.000000)">
                <circle id="Oval-51" fill="#FFFFFF" sketch:type="MSShapeGroup" cx="37.5" cy="37.5" r="37.5"></circle>
                <path d="M45.7586207,18.4137931 L35,18.4137931 C27.7172414,18.4137931 21.7586207,24.3724138 21.7586207,31.6551724 L21.7586207,35.7931034 L11,35.7931034 L11,47.5125517 C11,51.0951724 13.9048276,54 17.4874483,54 L54.0344828,54 C56.7655172,54 59,51.7655172 59,49.0344828 L59,31.6551724 C59,24.3724138 53.0413793,18.4137931 45.7586207,18.4137931" id="Fill-960" fill="#BFA47C" sketch:type="MSShapeGroup"></path>
                <path d="M40.6524138,28.3001379 L37.9354483,25.5550345 C37.8766897,25.4962759 37.8766897,25.4002759 37.9354483,25.3415172 L40.6813793,22.5964138 C40.7401379,22.5368276 40.8361379,22.5368276 40.8957241,22.5964138 L43.64,25.3406897 C43.6995862,25.4002759 43.6987586,25.4962759 43.6391724,25.5550345 L40.8667586,28.3009655 C40.8071724,28.3597241 40.712,28.3597241 40.6524138,28.3001379" id="Fill-982" fill="#6F5D3A" sketch:type="MSShapeGroup"></path>
                <path d="M23.4137931,13.862069 C23.4137931,16.3655172 25.462069,18.4137931 27.9655172,18.4137931 L30.862069,18.4137931 L30.862069,9.31034483 L27.9655172,9.31034483 C25.462069,9.31034483 23.4137931,11.3586207 23.4137931,13.862069" id="Fill-983" fill="#3D75B5" sketch:type="MSShapeGroup"></path>
                <path d="M58.1724138,13.862069 C58.1724138,16.3655172 56.1241379,18.4137931 53.6206897,18.4137931 L50.7241379,18.4137931 L50.7241379,9.31034483 L53.6206897,9.31034483 C56.1241379,9.31034483 58.1724138,11.3586207 58.1724138,13.862069" id="Fill-984" fill="#3D75B5" sketch:type="MSShapeGroup"></path>
                <path d="M35,9.31034483 L46.5862069,9.31034483 L46.5862069,18.4137931 L35,18.4137931 L35,9.31034483 Z" id="Fill-985" fill="#3D75B5" sketch:type="MSShapeGroup"></path>
                <path d="M20.9310345,35.7931034 L22.5862069,35.7931034 L22.5862069,54 L20.9310345,54 L20.9310345,35.7931034 Z" id="Fill-986" fill="#6F5D3A" sketch:type="MSShapeGroup"></path>
                <path d="M23.5801379,25.0005517 L23.5801379,24.3732414 C23.5801379,23.8245517 23.1348966,23.3793103 22.5862069,23.3793103 L14.4766897,23.3793103 C13.928,23.3793103 13.4827586,23.8245517 13.4827586,24.3732414 L13.4827586,26.6896552 L22.7384828,26.6896552 C22.9776552,26.1037241 23.2623448,25.5417931 23.5801379,25.0005517" id="Fill-987" fill="#F0C419" sketch:type="MSShapeGroup"></path>
                <path d="M12.6551724,30 L21.8744828,30 C22.0201379,28.8446897 22.3122759,27.734069 22.7384828,26.6896552 L12.6551724,26.6896552 C11.7448276,26.6896552 11,27.4344828 11,28.3448276 C11,29.2551724 11.7448276,30 12.6551724,30" id="Fill-988" fill="#E57E25" sketch:type="MSShapeGroup"></path>
                <path d="M21.7586207,31.6551724 C21.7586207,31.0932414 21.8057931,30.5437241 21.8744828,30 L12.6551724,30 L12.6551724,35.7931034 L21.7586207,35.7931034 L21.7586207,31.6551724" id="Fill-989" fill="#F0C419" sketch:type="MSShapeGroup"></path>
                <path d="M25.8965517,42.4137931 L37.4827586,42.4137931 L37.4827586,54 L25.8965517,54 L25.8965517,42.4137931 Z" id="Fill-990" fill="#9D8550" sketch:type="MSShapeGroup"></path>
                <path d="M54.0228966,54 L43.2758621,54 L43.2758621,42.4137931 L54.862069,42.4137931 L54.862069,53.1608276 C54.862069,53.6242759 54.4863448,54 54.0228966,54" id="Fill-991" fill="#9D8550" sketch:type="MSShapeGroup"></path>
                <path d="M32.5172414,45.7241379 C32.5172414,46.1809655 32.1464828,46.5517241 31.6896552,46.5517241 C31.2328276,46.5517241 30.862069,46.1809655 30.862069,45.7241379 C30.862069,45.2673103 31.2328276,44.8965517 31.6896552,44.8965517 C32.1464828,44.8965517 32.5172414,45.2673103 32.5172414,45.7241379" id="Fill-992" fill="#BFA47C" sketch:type="MSShapeGroup"></path>
                <path d="M49.8965517,45.7241379 C49.8965517,46.1809655 49.5257931,46.5517241 49.0689655,46.5517241 C48.6121379,46.5517241 48.2413793,46.1809655 48.2413793,45.7241379 C48.2413793,45.2673103 48.6121379,44.8965517 49.0689655,44.8965517 C49.5257931,44.8965517 49.8965517,45.2673103 49.8965517,45.7241379" id="Fill-993" fill="#BFA47C" sketch:type="MSShapeGroup"></path>
                <path id="Stroke-994" stroke="#0096E6" stroke-width="2" sketch:type="MSShapeGroup"></path>
                <path d="M35,18.4137931 L35,6.93351724 C35,6.41793103 34.582069,6 34.0664828,6 L31.7955862,6 C31.28,6 30.862069,6.41793103 30.862069,6.93351724 L30.862069,19.0891034 C32.1663448,18.6562759 33.5550345,18.4137931 35,18.4137931" id="Fill-995" fill="#CAAF7A" sketch:type="MSShapeGroup"></path>
                <path d="M50.7241379,19.3936552 L50.7241379,6.93351724 C50.7241379,6.41793103 50.3062069,6 49.7906207,6 L47.5197241,6 C47.0041379,6 46.5862069,6.41793103 46.5862069,6.93351724 L46.5862069,18.456 C48.0394483,18.5470345 49.4322759,18.8664828 50.7241379,19.3936552" id="Fill-996" fill="#CAAF7A" sketch:type="MSShapeGroup"></path>
                <path d="M20.1034483,23.3793103 L16.7931034,23.3793103 L16.7931034,20.5688276 C16.7931034,20.2932414 17.0173793,20.0689655 17.2929655,20.0689655 L19.6035862,20.0689655 C19.8791724,20.0689655 20.1034483,20.2932414 20.1034483,20.5688276 L20.1034483,23.3793103" id="Fill-997" fill="#FBD490" sketch:type="MSShapeGroup"></path>
                <path d="M54.862069,43.5351724 L49.0615172,48.7572414 L43.2758621,43.6932414 L43.2758621,45.8929655 L48.4896552,50.4554483 L49.1161379,50.9346207 L54.862069,45.7622069 L54.862069,43.5351724" id="Fill-1024" fill="#6F5D3A" sketch:type="MSShapeGroup"></path>
                <path d="M37.4827586,43.8761379 L31.6863448,48.7804138 L25.8965517,43.9572414 L25.8965517,46.1114483 L31.1103448,50.4554483 L31.7202759,50.9197241 L37.4827586,46.0435862 L37.4827586,43.8761379" id="Fill-1025" fill="#6F5D3A" sketch:type="MSShapeGroup"></path>
                <path d="M35,33.3103448 L46.5862069,33.3103448 L46.5862069,34.9655172 L35,34.9655172 L35,33.3103448 Z" id="Fill-1026" fill="#6F5D3A" sketch:type="MSShapeGroup"></path>
                <path d="M21.9456552,29.5365517 C22.904,32.2353103 25.6722759,34.08 28.1095172,34.92 C28.1988966,34.9506207 28.289931,34.9655172 28.3793103,34.9655172 C28.7227586,34.9655172 29.0438621,34.7503448 29.1613793,34.4077241 C29.3103448,33.9757241 29.0811034,33.5048276 28.6491034,33.3558621 C26.1597241,32.4968276 23.2524138,30.4526897 23.2524138,27.5172414 L23.2524138,25.5848276 C22.6176552,26.8046897 22.174069,28.1346207 21.9456552,29.5365517" id="Fill-1027" fill="#6F5D3A" sketch:type="MSShapeGroup"></path>
                <path d="M58.8361379,29.6846897 C58.616,28.2289655 58.1633103,26.8477241 57.5062069,25.5848276 L57.5062069,27.5172414 C57.5062069,30.1862069 55.798069,32.3685517 52.9371034,33.3558621 C52.5051034,33.5048276 52.2758621,33.9757241 52.4248276,34.4077241 C52.5431724,34.7503448 52.8634483,34.9655172 53.2068966,34.9655172 C53.2962759,34.9655172 53.3873103,34.9506207 53.4766897,34.92 C56.1961379,33.9823448 58.1103448,32.064 58.8361379,29.6846897" id="Fill-1028" fill="#6F5D3A" sketch:type="MSShapeGroup"></path>
                <path d="M28.3793103,35.7931034 L31.5249655,38.9387586 C31.616,39.0297931 31.7633103,39.0297931 31.8535172,38.9387586 L35,35.7931034 L35,18.4137931 C32.590069,18.4137931 30.3315862,19.0775172 28.3793103,20.2146207 L28.3793103,35.7931034" id="Fill-1029" fill="#9D8550" sketch:type="MSShapeGroup"></path>
                <path d="M46.5862069,18.456 L46.5862069,35.7931034 L49.7318621,38.9387586 C49.8228966,39.0297931 49.9702069,39.0297931 50.0604138,38.9387586 L53.2068966,35.7931034 L53.2068966,20.7268966 C51.296,19.4176552 49.0267586,18.6091034 46.5862069,18.456" id="Fill-1030" fill="#9D8550" sketch:type="MSShapeGroup"></path>
                <path d="M32.5172414,21.7241379 C32.5172414,22.1809655 32.1464828,22.5517241 31.6896552,22.5517241 C31.2328276,22.5517241 30.862069,22.1809655 30.862069,21.7241379 C30.862069,21.2673103 31.2328276,20.8965517 31.6896552,20.8965517 C32.1464828,20.8965517 32.5172414,21.2673103 32.5172414,21.7241379" id="Fill-1031" fill="#6F5D3A" sketch:type="MSShapeGroup"></path>
                <path d="M32.5172414,25.0344828 C32.5172414,25.4913103 32.1464828,25.862069 31.6896552,25.862069 C31.2328276,25.862069 30.862069,25.4913103 30.862069,25.0344828 C30.862069,24.5776552 31.2328276,24.2068966 31.6896552,24.2068966 C32.1464828,24.2068966 32.5172414,24.5776552 32.5172414,25.0344828" id="Fill-1032" fill="#6F5D3A" sketch:type="MSShapeGroup"></path>
                <path d="M27.5517241,26.6896552 L35.8275862,26.6896552 L35.8275862,33.3103448 L27.5517241,33.3103448 L27.5517241,26.6896552 Z M29.2068966,31.6551724 L34.1724138,31.6551724 L34.1724138,28.3448276 L29.2068966,28.3448276 L29.2068966,31.6551724 Z" id="Fill-1033" fill="#D1D4D1" sketch:type="MSShapeGroup"></path>
                <path d="M31.6896552,30.8275862 C31.2328276,30.8275862 30.862069,30.4568276 30.862069,30 L30.862069,27.5172414 C30.862069,27.0604138 31.2328276,26.6896552 31.6896552,26.6896552 C32.1464828,26.6896552 32.5172414,27.0604138 32.5172414,27.5172414 L32.5172414,30 C32.5172414,30.4568276 32.1464828,30.8275862 31.6896552,30.8275862" id="Fill-1034" fill="#ECF0F1" sketch:type="MSShapeGroup"></path>
                <path d="M50.7241379,21.7241379 C50.7241379,22.1809655 50.3533793,22.5517241 49.8965517,22.5517241 C49.4397241,22.5517241 49.0689655,22.1809655 49.0689655,21.7241379 C49.0689655,21.2673103 49.4397241,20.8965517 49.8965517,20.8965517 C50.3533793,20.8965517 50.7241379,21.2673103 50.7241379,21.7241379" id="Fill-1035" fill="#6F5D3A" sketch:type="MSShapeGroup"></path>
                <path d="M50.7241379,25.0344828 C50.7241379,25.4913103 50.3533793,25.862069 49.8965517,25.862069 C49.4397241,25.862069 49.0689655,25.4913103 49.0689655,25.0344828 C49.0689655,24.5776552 49.4397241,24.2068966 49.8965517,24.2068966 C50.3533793,24.2068966 50.7241379,24.5776552 50.7241379,25.0344828" id="Fill-1036" fill="#6F5D3A" sketch:type="MSShapeGroup"></path>
                <path d="M45.7586207,26.6896552 L54.0344828,26.6896552 L54.0344828,33.3103448 L45.7586207,33.3103448 L45.7586207,26.6896552 Z M47.4137931,31.6551724 L52.3793103,31.6551724 L52.3793103,28.3448276 L47.4137931,28.3448276 L47.4137931,31.6551724 Z" id="Fill-1037" fill="#D1D4D1" sketch:type="MSShapeGroup"></path>
                <path d="M49.8965517,30.8275862 C49.4397241,30.8275862 49.0689655,30.4568276 49.0689655,30 L49.0689655,27.5172414 C49.0689655,27.0604138 49.4397241,26.6896552 49.8965517,26.6896552 C50.3533793,26.6896552 50.7241379,27.0604138 50.7241379,27.5172414 L50.7241379,30 C50.7241379,30.4568276 50.3533793,30.8275862 49.8965517,30.8275862" id="Fill-1038" fill="#ECF0F1" sketch:type="MSShapeGroup"></path>
            </g>
        </g>
    </g>
</svg>