<?xml version="1.0" encoding="UTF-8" standalone="no"?>
<svg width="43px" height="43px" viewBox="0 0 43 43" version="1.1" xmlns="http://www.w3.org/2000/svg" xmlns:xlink="http://www.w3.org/1999/xlink" xmlns:sketch="http://www.bohemiancoding.com/sketch/ns">
    <!-- Generator: Sketch 3.3.3 (12072) - http://www.bohemiancoding.com/sketch -->
    <title>Integration</title>
    <desc>Created with Sketch.</desc>
    <defs></defs>
    <g id="Page-1" stroke="none" stroke-width="1" fill="none" fill-rule="evenodd" sketch:type="MSPage">
        <g id="Home" sketch:type="MSArtboardGroup" transform="translate(-766.000000, -987.000000)">
            <g id="Integration" sketch:type="MSLayerGroup" transform="translate(766.000000, 987.000000)">
                <path d="M31.137931,11.1206897 L21.5,11.1206897 C14.9758621,11.1206897 9.63793103,16.4586207 9.63793103,22.9827586 L9.63793103,26.6896552 L0,26.6896552 L0,37.1883276 C0,40.3977586 2.60224138,43 5.81167241,43 L38.5517241,43 C40.9982759,43 43,40.9982759 43,38.5517241 L43,22.9827586 C43,16.4586207 37.662069,11.1206897 31.137931,11.1206897" id="Fill-960" fill="#BFA47C" sketch:type="MSShapeGroup"></path>
                <path d="M26.5636207,19.9772069 L24.1296724,17.5180517 C24.0770345,17.4654138 24.0770345,17.3794138 24.1296724,17.3267759 L26.589569,14.8676207 C26.6422069,14.8142414 26.7282069,14.8142414 26.7815862,14.8676207 L29.24,17.3260345 C29.2933793,17.3794138 29.2926379,17.4654138 29.2392586,17.5180517 L26.7556379,19.9779483 C26.7022586,20.0305862 26.617,20.0305862 26.5636207,19.9772069" id="Fill-982" fill="#6F5D3A" sketch:type="MSShapeGroup"></path>
                <path d="M11.1206897,7.04310345 C11.1206897,9.28577586 12.9556034,11.1206897 15.1982759,11.1206897 L17.7931034,11.1206897 L17.7931034,2.96551724 L15.1982759,2.96551724 C12.9556034,2.96551724 11.1206897,4.80043103 11.1206897,7.04310345" id="Fill-983" fill="#3D75B5" sketch:type="MSShapeGroup"></path>
                <path d="M42.2586207,7.04310345 C42.2586207,9.28577586 40.4237069,11.1206897 38.1810345,11.1206897 L35.5862069,11.1206897 L35.5862069,2.96551724 L38.1810345,2.96551724 C40.4237069,2.96551724 42.2586207,4.80043103 42.2586207,7.04310345" id="Fill-984" fill="#3D75B5" sketch:type="MSShapeGroup"></path>
                <path d="M21.5,2.96551724 L31.8793103,2.96551724 L31.8793103,11.1206897 L21.5,11.1206897 L21.5,2.96551724 Z" id="Fill-985" fill="#3D75B5" sketch:type="MSShapeGroup"></path>
                <path d="M8.89655172,26.6896552 L10.3793103,26.6896552 L10.3793103,43 L8.89655172,43 L8.89655172,26.6896552 Z" id="Fill-986" fill="#6F5D3A" sketch:type="MSShapeGroup"></path>
                <path d="M11.2697069,17.0213276 L11.2697069,16.4593621 C11.2697069,15.9678276 10.8708448,15.5689655 10.3793103,15.5689655 L3.11453448,15.5689655 C2.623,15.5689655 2.22413793,15.9678276 2.22413793,16.4593621 L2.22413793,18.5344828 L10.5157241,18.5344828 C10.7299828,18.0095862 10.9850172,17.5061897 11.2697069,17.0213276" id="Fill-987" fill="#F0C419" sketch:type="MSShapeGroup"></path>
                <path d="M1.48275862,21.5 L9.74172414,21.5 C9.8722069,20.4650345 10.1339138,19.4701034 10.5157241,18.5344828 L1.48275862,18.5344828 C0.667241379,18.5344828 0,19.2017241 0,20.0172414 C0,20.8327586 0.667241379,21.5 1.48275862,21.5" id="Fill-988" fill="#E57E25" sketch:type="MSShapeGroup"></path>
                <path d="M9.63793103,22.9827586 C9.63793103,22.4793621 9.68018966,21.9870862 9.74172414,21.5 L1.48275862,21.5 L1.48275862,26.6896552 L9.63793103,26.6896552 L9.63793103,22.9827586" id="Fill-989" fill="#F0C419" sketch:type="MSShapeGroup"></path>
                <path d="M13.3448276,32.6206897 L23.7241379,32.6206897 L23.7241379,43 L13.3448276,43 L13.3448276,32.6206897 Z" id="Fill-990" fill="#9D8550" sketch:type="MSShapeGroup"></path>
                <path d="M38.5413448,43 L28.9137931,43 L28.9137931,32.6206897 L39.2931034,32.6206897 L39.2931034,42.2482414 C39.2931034,42.6634138 38.9565172,43 38.5413448,43" id="Fill-991" fill="#9D8550" sketch:type="MSShapeGroup"></path>
                <path d="M19.2758621,35.5862069 C19.2758621,35.9954483 18.9437241,36.3275862 18.5344828,36.3275862 C18.1252414,36.3275862 17.7931034,35.9954483 17.7931034,35.5862069 C17.7931034,35.1769655 18.1252414,34.8448276 18.5344828,34.8448276 C18.9437241,34.8448276 19.2758621,35.1769655 19.2758621,35.5862069" id="Fill-992" fill="#BFA47C" sketch:type="MSShapeGroup"></path>
                <path d="M34.8448276,35.5862069 C34.8448276,35.9954483 34.5126897,36.3275862 34.1034483,36.3275862 C33.6942069,36.3275862 33.362069,35.9954483 33.362069,35.5862069 C33.362069,35.1769655 33.6942069,34.8448276 34.1034483,34.8448276 C34.5126897,34.8448276 34.8448276,35.1769655 34.8448276,35.5862069" id="Fill-993" fill="#BFA47C" sketch:type="MSShapeGroup"></path>
                <path id="Stroke-994" stroke="#0096E6" stroke-width="2" sketch:type="MSShapeGroup"></path>
                <path d="M21.5,11.1206897 L21.5,0.836275862 C21.5,0.374396552 21.1256034,0 20.6637241,0 L18.6293793,0 C18.1675,0 17.7931034,0.374396552 17.7931034,0.836275862 L17.7931034,11.7256552 C18.9615172,11.3379138 20.2055517,11.1206897 21.5,11.1206897" id="Fill-995" fill="#CAAF7A" sketch:type="MSShapeGroup"></path>
                <path d="M35.5862069,11.9984828 L35.5862069,0.836275862 C35.5862069,0.374396552 35.2118103,0 34.749931,0 L32.7155862,0 C32.2537069,0 31.8793103,0.374396552 31.8793103,0.836275862 L31.8793103,11.1585 C33.1811724,11.2400517 34.4289138,11.5262241 35.5862069,11.9984828" id="Fill-996" fill="#CAAF7A" sketch:type="MSShapeGroup"></path>
                <path d="M8.15517241,15.5689655 L5.18965517,15.5689655 L5.18965517,13.0512414 C5.18965517,12.8043621 5.39056897,12.6034483 5.63744828,12.6034483 L7.70737931,12.6034483 C7.95425862,12.6034483 8.15517241,12.8043621 8.15517241,13.0512414 L8.15517241,15.5689655" id="Fill-997" fill="#FBD490" sketch:type="MSShapeGroup"></path>
                <path d="M39.2931034,33.6252586 L34.0967759,38.3033621 L28.9137931,33.7668621 L28.9137931,35.7374483 L33.5844828,39.8246724 L34.1457069,40.253931 L39.2931034,35.6203103 L39.2931034,33.6252586" id="Fill-1024" fill="#6F5D3A" sketch:type="MSShapeGroup"></path>
                <path d="M23.7241379,33.9307069 L18.5315172,38.3241207 L13.3448276,34.0033621 L13.3448276,35.9331724 L18.0155172,39.8246724 L18.5619138,40.2405862 L23.7241379,35.8723793 L23.7241379,33.9307069" id="Fill-1025" fill="#6F5D3A" sketch:type="MSShapeGroup"></path>
                <path d="M21.5,24.4655172 L31.8793103,24.4655172 L31.8793103,25.9482759 L21.5,25.9482759 L21.5,24.4655172 Z" id="Fill-1026" fill="#6F5D3A" sketch:type="MSShapeGroup"></path>
                <path d="M9.80548276,21.0848276 C10.664,23.5024655 13.1439138,25.155 15.3272759,25.9075 C15.4073448,25.934931 15.4888966,25.9482759 15.5689655,25.9482759 C15.8766379,25.9482759 16.1642931,25.7555172 16.269569,25.4485862 C16.4030172,25.0615862 16.1976552,24.6397414 15.8106552,24.5062931 C13.5805862,23.7367414 10.9761207,21.9055345 10.9761207,19.2758621 L10.9761207,17.5447414 C10.4074828,18.6375345 10.0101034,19.828931 9.80548276,21.0848276" id="Fill-1027" fill="#6F5D3A" sketch:type="MSShapeGroup"></path>
                <path d="M42.8532069,21.2175345 C42.656,19.9134483 42.2504655,18.6760862 41.6618103,17.5447414 L41.6618103,19.2758621 C41.6618103,21.6668103 40.1316034,23.6218276 37.5686552,24.5062931 C37.1816552,24.6397414 36.9762931,25.0615862 37.1097414,25.4485862 C37.2157586,25.7555172 37.5026724,25.9482759 37.8103448,25.9482759 C37.8904138,25.9482759 37.9719655,25.934931 38.0520345,25.9075 C40.4882069,25.0675172 42.2030172,23.349 42.8532069,21.2175345" id="Fill-1028" fill="#6F5D3A" sketch:type="MSShapeGroup"></path>
                <path d="M15.5689655,26.6896552 L18.3869483,29.5076379 C18.4685,29.5891897 18.6004655,29.5891897 18.6812759,29.5076379 L21.5,26.6896552 L21.5,11.1206897 C19.3411034,11.1206897 17.3178793,11.7152759 15.5689655,12.733931 L15.5689655,26.6896552" id="Fill-1029" fill="#9D8550" sketch:type="MSShapeGroup"></path>
                <path d="M31.8793103,11.1585 L31.8793103,26.6896552 L34.6972931,29.5076379 C34.7788448,29.5891897 34.9108103,29.5891897 34.9916207,29.5076379 L37.8103448,26.6896552 L37.8103448,13.1928448 C36.0985,12.0199828 34.0656379,11.2956552 31.8793103,11.1585" id="Fill-1030" fill="#9D8550" sketch:type="MSShapeGroup"></path>
                <path d="M19.2758621,14.0862069 C19.2758621,14.4954483 18.9437241,14.8275862 18.5344828,14.8275862 C18.1252414,14.8275862 17.7931034,14.4954483 17.7931034,14.0862069 C17.7931034,13.6769655 18.1252414,13.3448276 18.5344828,13.3448276 C18.9437241,13.3448276 19.2758621,13.6769655 19.2758621,14.0862069" id="Fill-1031" fill="#6F5D3A" sketch:type="MSShapeGroup"></path>
                <path d="M19.2758621,17.0517241 C19.2758621,17.4609655 18.9437241,17.7931034 18.5344828,17.7931034 C18.1252414,17.7931034 17.7931034,17.4609655 17.7931034,17.0517241 C17.7931034,16.6424828 18.1252414,16.3103448 18.5344828,16.3103448 C18.9437241,16.3103448 19.2758621,16.6424828 19.2758621,17.0517241" id="Fill-1032" fill="#6F5D3A" sketch:type="MSShapeGroup"></path>
                <path d="M14.8275862,18.5344828 L22.2413793,18.5344828 L22.2413793,24.4655172 L14.8275862,24.4655172 L14.8275862,18.5344828 Z M16.3103448,22.9827586 L20.7586207,22.9827586 L20.7586207,20.0172414 L16.3103448,20.0172414 L16.3103448,22.9827586 Z" id="Fill-1033" fill="#D1D4D1" sketch:type="MSShapeGroup"></path>
                <path d="M18.5344828,22.2413793 C18.1252414,22.2413793 17.7931034,21.9092414 17.7931034,21.5 L17.7931034,19.2758621 C17.7931034,18.8666207 18.1252414,18.5344828 18.5344828,18.5344828 C18.9437241,18.5344828 19.2758621,18.8666207 19.2758621,19.2758621 L19.2758621,21.5 C19.2758621,21.9092414 18.9437241,22.2413793 18.5344828,22.2413793" id="Fill-1034" fill="#ECF0F1" sketch:type="MSShapeGroup"></path>
                <path d="M35.5862069,14.0862069 C35.5862069,14.4954483 35.254069,14.8275862 34.8448276,14.8275862 C34.4355862,14.8275862 34.1034483,14.4954483 34.1034483,14.0862069 C34.1034483,13.6769655 34.4355862,13.3448276 34.8448276,13.3448276 C35.254069,13.3448276 35.5862069,13.6769655 35.5862069,14.0862069" id="Fill-1035" fill="#6F5D3A" sketch:type="MSShapeGroup"></path>
                <path d="M35.5862069,17.0517241 C35.5862069,17.4609655 35.254069,17.7931034 34.8448276,17.7931034 C34.4355862,17.7931034 34.1034483,17.4609655 34.1034483,17.0517241 C34.1034483,16.6424828 34.4355862,16.3103448 34.8448276,16.3103448 C35.254069,16.3103448 35.5862069,16.6424828 35.5862069,17.0517241" id="Fill-1036" fill="#6F5D3A" sketch:type="MSShapeGroup"></path>
                <path d="M31.137931,18.5344828 L38.5517241,18.5344828 L38.5517241,24.4655172 L31.137931,24.4655172 L31.137931,18.5344828 Z M32.6206897,22.9827586 L37.0689655,22.9827586 L37.0689655,20.0172414 L32.6206897,20.0172414 L32.6206897,22.9827586 Z" id="Fill-1037" fill="#D1D4D1" sketch:type="MSShapeGroup"></path>
                <path d="M34.8448276,22.2413793 C34.4355862,22.2413793 34.1034483,21.9092414 34.1034483,21.5 L34.1034483,19.2758621 C34.1034483,18.8666207 34.4355862,18.5344828 34.8448276,18.5344828 C35.254069,18.5344828 35.5862069,18.8666207 35.5862069,19.2758621 L35.5862069,21.5 C35.5862069,21.9092414 35.254069,22.2413793 34.8448276,22.2413793" id="Fill-1038" fill="#ECF0F1" sketch:type="MSShapeGroup"></path>
            </g>
        </g>
    </g>
</svg>