<?xml version="1.0" encoding="UTF-8" standalone="no"?>
<svg width="918px" height="528px" viewBox="0 0 918 528" version="1.1" xmlns="http://www.w3.org/2000/svg" xmlns:xlink="http://www.w3.org/1999/xlink" xmlns:sketch="http://www.bohemiancoding.com/sketch/ns">
    <!-- Generator: Sketch 3.3.3 (12072) - http://www.bohemiancoding.com/sketch -->
    <title>integrations-image</title>
    <desc>Created with Sketch.</desc>
    <defs>
        <filter x="-50%" y="-50%" width="200%" height="200%" filterUnits="objectBoundingBox" id="filter-1">
            <feOffset dx="0" dy="-2" in="SourceAlpha" result="shadowOffsetInner1"></feOffset>
            <feGaussianBlur stdDeviation="0" in="shadowOffsetInner1" result="shadowBlurInner1"></feGaussianBlur>
            <feComposite in="shadowBlurInner1" in2="SourceAlpha" operator="arithmetic" k2="-1" k3="1" result="shadowInnerInner1"></feComposite>
            <feColorMatrix values="0 0 0 0 0.310336545   0 0 0 0 0.335466955   0 0 0 0 0.360597364  0 0 0 0.7 0" in="shadowInnerInner1" type="matrix" result="shadowMatrixInner1"></feColorMatrix>
            <feOffset dx="0" dy="-1" in="SourceAlpha" result="shadowOffsetInner2"></feOffset>
            <feGaussianBlur stdDeviation="0" in="shadowOffsetInner2" result="shadowBlurInner2"></feGaussianBlur>
            <feComposite in="shadowBlurInner2" in2="SourceAlpha" operator="arithmetic" k2="-1" k3="1" result="shadowInnerInner2"></feComposite>
            <feColorMatrix values="0 0 0 0 0.291080758   0 0 0 0 0.303198755   0 0 0 0 0.315316752  0 0 0 0.7 0" in="shadowInnerInner2" type="matrix" result="shadowMatrixInner2"></feColorMatrix>
            <feMerge>
                <feMergeNode in="SourceGraphic"></feMergeNode>
                <feMergeNode in="shadowMatrixInner1"></feMergeNode>
                <feMergeNode in="shadowMatrixInner2"></feMergeNode>
            </feMerge>
        </filter>
        <filter x="-50%" y="-50%" width="200%" height="200%" filterUnits="objectBoundingBox" id="filter-2">
            <feOffset dx="0" dy="-1" in="SourceAlpha" result="shadowOffsetInner1"></feOffset>
            <feGaussianBlur stdDeviation="0" in="shadowOffsetInner1" result="shadowBlurInner1"></feGaussianBlur>
            <feComposite in="shadowBlurInner1" in2="SourceAlpha" operator="arithmetic" k2="-1" k3="1" result="shadowInnerInner1"></feComposite>
            <feColorMatrix values="0 0 0 0 0.290196078   0 0 0 0 0.301960784   0 0 0 0 0.31372549  0 0 0 0.7 0" in="shadowInnerInner1" type="matrix" result="shadowMatrixInner1"></feColorMatrix>
            <feMerge>
                <feMergeNode in="SourceGraphic"></feMergeNode>
                <feMergeNode in="shadowMatrixInner1"></feMergeNode>
            </feMerge>
        </filter>
    </defs>
    <g id="Page-1" stroke="none" stroke-width="1" fill="none" fill-rule="evenodd" sketch:type="MSPage">
        <g id="assets" sketch:type="MSArtboardGroup" transform="translate(-64.000000, -1161.000000)">
            <g id="integrations-image" sketch:type="MSLayerGroup" transform="translate(66.000000, 1161.000000)">
                <g id="//-MacBook-Air-13-Copy" sketch:type="MSShapeGroup">
                    <g id="::-base" transform="translate(0.000000, 500.258107)" filter="url(#filter-1)" fill="#979797">
                        <path d="M-1.46568084,0.693197736 C-1.86673108,0.310355198 -1.75155443,0 -1.19281261,0 L915.192806,0 C915.744557,0 915.86853,0.308688629 915.469306,0.679450514 C915.469306,0.679450514 888.229899,27.4867092 850.200169,27.4867092 L63.7997961,27.4867092 C25.3046713,27.4867092 -1.46568084,0.693197736 -1.46568084,0.693197736 Z" id="Mask"></path>
                    </g>
                    <g id="::-screen" transform="translate(74.798403, 0.000000)">
                        <path d="M0,15.0057512 C0,6.71830364 6.71972408,0 14.9994357,0 L743.904454,0 C752.188414,0 758.90389,6.71687008 758.90389,15.0057512 L758.90389,500.258107 L571.040266,500.258107 L0,500.258107 L0,15.0057512 Z" id="screen-bg" fill="#121212" filter="url(#filter-2)"></path>
                        <rect id="wallpaper" stroke-opacity="0.1" stroke="#000000" fill="#3373BD" x="22.0505348" y="19.6272085" width="713.448443" height="462.641343"></rect>
                        <path d="M24.119866,20.9995224 L487.423423,20.9995224 L24.119866,484.137809 L24.119866,20.9995224 Z" id="glare" fill-opacity="0.12" fill="#FFFFFF"></path>
                    </g>
                </g>
                <g id="Group-Copy-3" transform="translate(247.000000, 143.000000)" sketch:type="MSShapeGroup">
                    <g id="Group-Copy-2" transform="translate(130.000000, 0.000000)" fill="#FFFFFF">
                        <path d="M9.89639344,0.777968434 C13.1403279,0.777968434 15.5803279,1.61749329 17.215082,3.29588815 C18.5672131,4.64685522 19.2439344,6.39597449 19.2439344,8.53997167 C19.2439344,10.6839689 18.5672131,12.4330881 17.215082,13.7840552 C15.5803279,15.46245 13.1403279,16.3019749 9.89639344,16.3019749 L3.52459016,16.3019749 L3.52459016,23.7817354 C3.52459016,24.2257275 3.36852459,24.59965 3.05114754,24.9008836 C2.73770492,25.2047366 2.35868852,25.3540436 1.91672131,25.3540436 C1.47213115,25.3540436 1.10032787,25.2047366 0.795409836,24.9008836 C0.491147541,24.59965 0.341639344,24.2257275 0.341639344,23.7817354 L0.341639344,2.3869486 C0.341639344,1.94557594 0.491147541,1.56444999 0.795409836,1.25077417 C1.10032787,0.935133774 1.47213115,0.777968434 1.91672131,0.777968434 L9.89639344,0.777968434 L9.89639344,0.777968434 Z M9.58229508,13.2942232 C11.9855738,13.2942232 13.7252459,12.782781 14.7993443,11.7553126 C15.6406557,10.9635922 16.0577049,9.89093874 16.0577049,8.53997167 C16.0577049,6.37108998 14.9737705,4.92647856 12.8045902,4.20548256 C11.9639344,3.92520437 10.8891803,3.78572013 9.58229508,3.78572013 L3.52459016,3.78572013 L3.52459016,13.2942232 L9.58229508,13.2942232 L9.58229508,13.2942232 Z" id="Fill-1"></path>
                        <path d="M38.464918,1.40728465 C38.812459,0.872267638 39.2518033,0.604431704 39.7763934,0.604431704 C40.3003279,0.604431704 40.7036066,0.755703344 40.9836066,1.05759177 C41.2642623,1.36144476 41.4045902,1.71113764 41.4045902,2.10667041 C41.4045902,2.50220319 41.3101639,2.85255092 41.1239344,3.15640391 L32.7213115,14.8665315 L32.7213115,23.7817354 C32.7213115,24.2257275 32.5718033,24.59965 32.2668852,24.9008836 C31.962623,25.2047366 31.5908197,25.3540436 31.1462295,25.3540436 C30.7016393,25.3540436 30.3252459,25.2047366 30.0091803,24.9008836 C29.692459,24.59965 29.5377049,24.2257275 29.5377049,23.7817354 L29.5377049,14.8665315 L21.1711475,3.15640391 C20.9829508,2.85255092 20.8911475,2.50220319 20.8911475,2.10667041 C20.8911475,1.71113764 21.0308197,1.36144476 21.3088525,1.05759177 C21.5895082,0.755703344 21.9921311,0.604431704 22.5193443,0.604431704 C23.0406557,0.604431704 23.4806557,0.872267638 23.8308197,1.40728465 L31.1462295,12.0349359 L38.464918,1.40728465" id="Fill-2"></path>
                        <path d="M62.9659016,7.10780251 C62.9659016,9.6231028 61.8255738,11.418062 59.5357377,12.4907154 C61.7534426,13.2365959 63.2262295,14.4592113 63.9462295,16.1618358 C64.2019672,16.8134171 64.332459,17.5946598 64.332459,18.5042542 C64.332459,19.4112292 64.1685246,20.2867711 63.8445902,21.126296 C63.5160656,21.9658208 62.9901639,22.6868168 62.2655738,23.2919034 C60.772459,24.5505358 58.4636066,25.1805069 55.3357377,25.1805069 L46.8655738,25.1805069 C46.4209836,25.1805069 46.0491803,25.0292353 45.744918,24.7273468 C45.4406557,24.4234939 45.2904918,24.0495713 45.2904918,23.6081987 L45.2904918,2.3869486 C45.2904918,1.94557594 45.4406557,1.56444999 45.744918,1.25077417 C46.0491803,0.935133774 46.4209836,0.777968434 46.8655738,0.777968434 L55.1252459,0.777968434 C57.695082,0.777968434 59.6419672,1.36144476 60.9704918,2.52643284 C62.3042623,3.69142093 62.9659016,5.21854415 62.9659016,7.10780251 L62.9659016,7.10780251 Z M59.922623,7.35075393 C59.922623,6.25583539 59.482623,5.38225804 58.6085246,4.72871217 C57.7344262,4.07778572 56.492459,3.74970307 54.8813115,3.74970307 L48.4740984,3.74970307 L48.4740984,11.336205 L54.2852459,11.336205 C57.2944262,11.336205 59.0911475,10.5326972 59.6760656,8.92371704 C59.84,8.43388506 59.922623,7.91065545 59.922623,7.35075393 L59.922623,7.35075393 Z M55.0190164,22.2087723 C58.3331148,22.2087723 60.3088525,21.4177067 60.9370492,19.8309916 C61.1495082,19.3437791 61.2504918,18.7963198 61.2504918,18.187959 C61.2504918,16.7891875 60.7285246,15.7761259 59.6760656,15.1461548 C58.627541,14.5168386 57.0872131,14.2038176 55.0557377,14.2038176 L48.4740984,14.2038176 L48.4740984,22.2087723 L55.0190164,22.2087723 L55.0190164,22.2087723 Z" id="Fill-3"></path>
                        <path d="M80.0177049,0.428275552 C83.7036066,0.428275552 86.664918,1.60505104 88.9062295,3.95991172 C91.0793443,6.26762279 92.2104918,9.27275507 92.3022951,12.9805474 C92.2104918,16.6850654 91.0793443,19.6901977 88.9062295,21.9992185 C86.664918,24.3540792 83.7036066,25.5301998 80.0177049,25.5301998 C76.3029508,25.5301998 73.3416393,24.3540792 71.1245902,21.9992185 C68.907541,19.6685875 67.7718033,16.6614906 67.7285246,12.9805474 C67.7718033,9.29698472 68.907541,6.29119759 71.1245902,3.95991172 C73.3416393,1.60505104 76.3029508,0.428275552 80.0177049,0.428275552 L80.0177049,0.428275552 Z M80.0177049,22.5584652 C82.8629508,22.5584652 85.1042623,21.6370833 86.7370492,19.7969392 C88.3213115,18.0262097 89.1186885,15.7545156 89.1186885,12.9805474 C89.1186885,10.2065791 88.3213115,7.93423025 86.7370492,6.16153619 C85.1042623,4.321392 82.8629508,3.39935534 80.0177049,3.39935534 C77.1678689,3.39935534 74.9265574,4.321392 73.2937705,6.16153619 C71.704918,7.93423025 70.9121311,10.2065791 70.9121311,12.9805474 C70.9121311,15.7545156 71.704918,18.0262097 73.2937705,19.7969392 C74.9265574,21.6370833 77.1678689,22.5584652 80.0177049,22.5584652 L80.0177049,22.5584652 Z" id="Fill-4"></path>
                        <path d="M104.624918,22.5224481 C108.711475,22.5224481 110.754754,21.1845781 110.754754,18.5042542 C110.754754,17.385106 109.972459,16.4879539 108.407213,15.8121429 C107.731148,15.5325196 106.943607,15.2817099 106.045246,15.0597139 C105.146885,14.8377178 104.233443,14.5986955 103.316066,14.342647 C102.392787,14.0879082 101.480656,13.7951877 100.581639,13.4703794 C99.6832787,13.1416419 98.8859016,12.7225343 98.1855738,12.2110921 C96.6445902,11.0454491 95.8767213,9.50719337 95.8767213,7.59697963 C95.8767213,5.54466223 96.6445902,3.86757708 98.1855738,2.56048533 C99.8668852,1.13944872 102.117377,0.428275552 104.943607,0.428275552 C107.48459,0.428275552 109.807869,0.813985491 111.909508,1.5834408 C112.561311,1.81525968 112.889836,2.28020714 112.889836,2.98024776 C112.889836,3.32994064 112.76459,3.66326214 112.523279,3.97628311 C112.276721,4.29257835 112.006557,4.44908884 111.716066,4.44908884 C111.421639,4.44908884 111.020984,4.35740905 110.508197,4.1694655 C108.992131,3.63379363 107.252459,3.36661256 105.291148,3.36661256 C103.494426,3.36661256 102.011148,3.70386318 100.847213,4.37967414 C99.6544262,5.07905991 99.0596721,6.07051126 99.0596721,7.35075393 C99.0596721,8.67945591 99.8281967,9.6807301 101.36918,10.3585056 C102.069508,10.6839689 102.861639,10.9524596 103.75082,11.1620134 C104.639344,11.3715672 105.547541,11.5935633 106.48,11.8253821 C107.416393,12.0591656 108.32459,12.3315855 109.21377,12.6472259 C110.097705,12.9615566 110.895082,13.3760802 111.59082,13.8875224 C113.131148,15.0066706 113.904262,16.6156507 113.904262,18.713808 C113.904262,20.7189758 113.098361,22.3489114 111.48918,23.6081987 C109.832131,24.8890962 107.648525,25.5301998 104.943607,25.5301998 C101.977705,25.5301998 99.2,24.9709531 96.6111475,23.8518049 C96.3547541,23.7358955 96.1232787,23.5505714 95.9245902,23.2919034 C95.7265574,23.0365097 95.6301639,22.7280727 95.6301639,22.3659376 C95.6301639,22.0070768 95.7554098,21.6783392 96.0170492,21.3862737 C96.2727869,21.0974823 96.5678689,20.9501398 96.9055738,20.9501398 C97.2439344,20.9501398 97.6636066,21.0608104 98.1659016,21.2828065 C98.6688525,21.5048025 99.4904918,21.7673996 100.634754,22.069288 C101.779672,22.373141 103.108197,22.5224481 104.624918,22.5224481" id="Fill-5"></path>
                        <path d="M125.840656,22.5224481 C129.923279,22.5224481 131.965902,21.1845781 131.965902,18.5042542 C131.965902,17.385106 131.183607,16.4879539 129.618361,15.8121429 C128.942295,15.5325196 128.154098,15.2817099 127.256393,15.0597139 C126.357377,14.8377178 125.44918,14.5986955 124.527213,14.342647 C123.603934,14.0879082 122.695738,13.7951877 121.797377,13.4703794 C120.899016,13.1416419 120.097049,12.7225343 119.396721,12.2110921 C117.860984,11.0454491 117.087869,9.50719337 117.087869,7.59697963 C117.087869,5.54466223 117.860984,3.86757708 119.396721,2.56048533 C121.078033,1.13944872 123.328525,0.428275552 126.15541,0.428275552 C128.700984,0.428275552 131.019672,0.813985491 133.120656,1.5834408 C133.773115,1.81525968 134.100984,2.28020714 134.100984,2.98024776 C134.100984,3.32994064 133.980328,3.66326214 133.73377,3.97628311 C133.487213,4.29257835 133.222295,4.44908884 132.927869,4.44908884 C132.637377,4.44908884 132.236721,4.35740905 131.72,4.1694655 C130.203279,3.63379363 128.463607,3.36661256 126.507541,3.36661256 C124.705574,3.36661256 123.227541,3.70386318 122.059016,4.37967414 C120.870164,5.07905991 120.276066,6.07051126 120.276066,7.35075393 C120.276066,8.67945591 121.043934,9.6807301 122.584918,10.3585056 C123.285902,10.6839689 124.078033,10.9524596 124.966557,11.1620134 C125.850492,11.3715672 126.763934,11.5935633 127.695738,11.8253821 C128.628197,12.0591656 129.541639,12.3315855 130.424918,12.6472259 C131.314098,12.9615566 132.10623,13.3760802 132.806557,13.8875224 C134.347541,15.0066706 135.116066,16.6156507 135.116066,18.713808 C135.116066,20.7189758 134.313443,22.3489114 132.700328,23.6081987 C131.043934,24.8890962 128.860328,25.5301998 126.15541,25.5301998 C123.188852,25.5301998 120.416393,24.9709531 117.822295,23.8518049 C117.565902,23.7358955 117.339016,23.5505714 117.141639,23.2919034 C116.942951,23.0365097 116.841967,22.7280727 116.841967,22.3659376 C116.841967,22.0070768 116.972459,21.6783392 117.228197,21.3862737 C117.483934,21.0974823 117.783607,20.9501398 118.121967,20.9501398 C118.459672,20.9501398 118.88,21.0608104 119.382951,21.2828065 C119.88459,21.5048025 120.705574,21.7673996 121.850492,22.069288 C122.990164,22.373141 124.323934,22.5224481 125.840656,22.5224481" id="Fill-6"></path>
                        <path d="M159.621639,23.0823496 C159.742295,23.361973 159.8,23.661242 159.8,23.9742629 C159.8,24.2885936 159.659672,24.59965 159.380328,24.9008836 C159.099672,25.2047366 158.655082,25.3540436 158.046557,25.3540436 C157.443279,25.3540436 156.998689,25.0292353 156.718033,24.377654 L154.442623,18.9240167 L142.540328,18.9240167 L140.264918,24.377654 C139.984918,25.0292353 139.540328,25.3540436 138.937049,25.3540436 C138.327869,25.3540436 137.883934,25.2047366 137.603934,24.9008836 C137.323279,24.59965 137.182951,24.2885936 137.182951,23.9742629 C137.182951,23.661242 137.241311,23.361973 137.357377,23.0823496 L146.283934,2.03660087 C146.704918,1.08182142 147.380984,0.604431704 148.318033,0.604431704 L148.665574,0.604431704 C149.598033,0.604431704 150.279344,1.08182142 150.699016,2.03660087 L159.621639,23.0823496 L159.621639,23.0823496 Z M153.215738,16.0223516 L148.491148,4.65864262 L143.767213,16.0223516 L153.215738,16.0223516 L153.215738,16.0223516 Z" id="Fill-7"></path>
                    </g>
                    <rect id="Rectangle-168" fill-opacity="0.5" fill="#FFFFFF" x="0" y="45.2199644" width="132.458124" height="82.46022" rx="0.900000036"></rect>
                    <rect id="Rectangle-168-Copy-4" fill-opacity="0.5" fill="#FFFFFF" x="292.440013" y="45.2199644" width="132.458124" height="82.46022" rx="0.900000036"></rect>
                    <rect id="Rectangle-168-Copy-2" fill-opacity="0.5" fill="#FFFFFF" x="0" y="139.705633" width="132.458124" height="82.46022" rx="0.900000036"></rect>
                    <rect id="Rectangle-168-Copy" fill-opacity="0.5" fill="#FFFFFF" x="146.220007" y="45.2199644" width="132.458124" height="82.46022" rx="0.900000036"></rect>
                    <rect id="Rectangle-168-Copy-5" fill-opacity="0.5" fill="#FFFFFF" x="292.440013" y="139.705633" width="132.458124" height="82.46022" rx="0.900000036"></rect>
                    <rect id="Rectangle-168-Copy-3" fill-opacity="0.5" fill="#FFFFFF" x="146.220007" y="139.705633" width="132.458124" height="82.46022" rx="0.900000036"></rect>
                    <g id="Google-+" transform="translate(327.093804, 55.449992)">
                        <g>
                            <path d="M0.1181866,31.0000827 C0.1181866,13.8792089 14.0432601,0 31.2207107,0 C48.3981613,0 62.3232348,13.8792089 62.3232348,31.0000827 C62.3232348,48.1209565 48.3981613,62.0001654 31.2207107,62.0001654 C14.0432601,62.0001654 0.1181866,48.1209565 0.1181866,31.0000827 Z" fill="#D34836"></path>
                            <path d="M61.3568206,23.8641737 L54.0017027,23.8641737 L54.0017027,32.009681 L50.5348125,32.009681 L50.5348125,23.8641737 L42.4454456,23.8641737 L42.4454456,20.4739736 L50.5348125,20.4739736 L50.5348125,12.4000331 L54.0017027,12.4000331 L54.0017027,20.4739736 L60.1774658,20.4739736 C60.6335979,21.5736186 61.0281611,22.7051637 61.3568206,23.8641737 Z" id="Shape" fill="#FFFFFF"></path>
                            <path d="M8.66250583,51.0624742 C9.5321874,49.6047956 10.8806949,48.1716727 12.8784275,46.9939787 C17.3859997,44.2412103 23.4568918,43.8776371 26.7398634,43.669881 C25.7237055,42.3714054 24.5512156,40.9950212 24.5512156,38.7356736 C24.5512156,37.5151065 24.9159903,36.7879601 25.2807649,35.9309662 C24.4730496,36.0088747 23.6913897,36.0867832 22.9618405,36.0867832 C15.2755179,36.0867832 10.9242777,30.3734904 10.9242777,24.738106 C10.9242777,21.4140084 12.4615422,17.7211436 15.5621266,15.0488807 C19.7049241,11.6546654 24.6293816,11.0755453 28.5376812,11.0755453 L43.4673857,11.0755453 L38.8295368,13.6750935 L34.34802,13.6750935 C36.0155611,15.0488807 39.4809201,17.9392875 39.4809201,23.4396304 C39.4809201,28.7893501 36.4324464,31.3083928 33.4100281,33.697588 C32.4459808,34.6324905 31.3777123,35.6453015 31.3777123,37.2294418 C31.3777123,38.8135821 32.4459808,39.6965455 33.2536961,40.3457834 L35.8592291,42.3714054 C39.0640348,45.0202957 41.9561765,47.4873994 41.9561765,52.4735459 C41.9561765,55.7617248 40.4166124,59.062034 37.4168861,61.5947936 C35.8028848,61.8570626 34.1471555,61.9955153 32.4598331,62.0000503 C35.5058237,60.6683071 37.0838297,58.2316677 37.0838297,55.3042229 C37.0838297,51.616552 34.7127946,49.6688385 29.1890645,45.7474421 C28.6158472,45.695503 28.2510726,45.695503 27.5215233,45.695503 C26.8701401,45.695503 22.9618405,45.8253506 19.9133668,46.8381616 C18.3239916,47.4094909 13.6861428,49.1494483 13.6861428,54.2914119 C13.6861428,54.8502176 13.745827,55.3919825 13.8622753,55.9137625 C6.22276275,50.2653196 9.53218746,51.0624756 8.66250583,51.0624742 Z M33.0973641,26.7637281 C33.0973641,21.5438559 29.9967797,13.4595465 23.9779984,13.4595465 C22.1020146,13.4595465 20.0696988,14.3996429 18.8972089,15.8461448 C17.6726084,17.3627644 17.3078337,19.3104778 17.3078337,21.1802828 C17.3078337,26.0365817 20.1218094,34.0611612 26.3750888,34.0611612 C28.1729066,34.0611612 30.1270564,33.1781978 31.2995463,32.0355392 C32.9670874,30.3734904 33.0973641,28.0622037 33.0973641,26.7637281 Z" id="Path" fill="#FFFFFF"></path>
                        </g>
                    </g>
                    <g id="Flickr" transform="translate(180.873798, 55.449992)">
                        <path d="M0.354559799,31.0000827 C0.354559799,13.8792089 14.2796333,0 31.4570839,0 C48.6345345,0 62.559608,13.8792089 62.559608,31.0000827 C62.559608,48.1209565 48.6345345,62.0001654 31.4570839,62.0001654 C14.2796333,62.0001654 0.354559799,48.1209565 0.354559799,31.0000827 Z" fill="#FF0084"></path>
                        <path d="M23.681425,24.8000662 C19.9595321,24.8000662 16.9425727,27.8070208 16.9425727,31.5166953 C16.9425727,35.2264252 19.9595321,38.2333798 23.681425,38.2334353 C27.4033737,38.2334353 30.4203331,35.2264252 30.4203331,31.5166953 C30.4203331,27.8070208 27.4034293,24.8000107 23.681425,24.8000662 Z" id="Path" fill="#FFFFFF"></path>
                        <path d="M33.5305855,31.5166953 C33.5305855,35.2264252 36.547545,38.2334353 40.2694379,38.2334353 C43.9914422,38.2334353 47.008346,35.2264252 47.008346,31.5166953 C47.008346,27.8070763 43.9913865,24.8000662 40.2694379,24.8000662 C36.5474893,24.8000662 33.5305855,27.8070763 33.5305855,31.5166953 Z M35.6025911,31.5167508 C35.6025911,28.9486197 37.688338,26.8667384 40.2612376,26.8667384 C42.8341371,26.8667384 44.919884,28.9486197 44.919884,31.5167508 C44.919884,34.0848818 42.8341371,36.1667632 40.2612376,36.1667632 C37.688338,36.1667632 35.6025911,34.0848818 35.6025911,31.5167508 Z" id="Path" fill="#FFFFFF"></path>
                    </g>
                    <g id="Dropbox" transform="translate(34.653791, 55.449992)">
                        <g>
                            <path d="M0.709119597,31.0000827 C0.709119597,13.8792089 14.6341931,0 31.8116437,0 C48.9890943,0 62.9141678,13.8792089 62.9141678,31.0000827 C62.9141678,48.1209565 48.9890943,62.0001654 31.8116437,62.0001654 C14.6341931,62.0001654 0.709119597,48.1209565 0.709119597,31.0000827 Z" fill="#3D9AE8"></path>
                            <path d="M42.5890874,39.7951344 L42.5890874,41.5372838 L31.7866604,48.5209496 L21.2235619,41.4896748 L21.2235619,39.847483 L24.3828814,41.7132885 L24.7345636,41.920278 L25.0591332,41.6728952 L31.8836126,36.4535916 L38.7057497,41.6728952 L39.0327325,41.921905 L39.3852664,41.7109541 L42.5890874,39.7951344 Z" id="Path" fill="#FFFFFF"></path>
                            <path d="M39.2420384,15.545888 L31.8836126,21.6961489 L24.6907009,15.545888 L13.6774776,22.6960084 L21.2617466,28.4465801 L13.6774776,34.1980008 L21.2235619,38.652943 L24.6907719,40.6995637 L31.8836835,35.19878 L39.074253,40.6995637 L42.5890874,38.597411 L49.9458098,34.1980008 L42.9208255,28.1968629 L49.9458098,22.3621795 L39.2420384,15.545888 Z M42.2946822,27.9636991 L31.8112888,34.8878006 L21.3930507,28.3458443 L31.9059698,22.0148391 L42.2946822,27.9636991 Z" id="Path" fill="#FFFFFF"></path>
                        </g>
                    </g>
                    <g id="Twitter" transform="translate(180.873798, 147.942604)">
                        <g>
                            <path d="M0,31.0000827 C0,13.8792089 13.9250735,0 31.1025241,0 C48.2799747,0 62.2050482,13.8792089 62.2050482,31.0000827 C62.2050482,48.1209565 48.2799747,62.0001654 31.1025241,62.0001654 C13.9250735,62.0001654 0,48.1209565 0,31.0000827 Z" fill="#4099FF"></path>
                            <path d="M30.332724,24.6843094 L30.3978966,25.7569822 L29.3116876,25.6256345 C25.357887,25.122135 21.9037424,23.4146151 18.9709782,20.5468572 L17.5371824,19.1239239 L17.1678713,20.1747054 C16.3858009,22.5170725 16.885457,24.9907873 18.5147705,26.6545247 C19.3837376,27.5739586 19.18822,27.7053062 17.6892516,27.1580242 C17.1678713,26.982894 16.7116636,26.8515463 16.6682152,26.9172201 C16.516146,27.0704591 17.0375263,29.0625657 17.4502857,29.8506518 C18.0151143,30.9452159 19.1664958,32.0178887 20.4264982,32.6527359 L21.490983,33.1562354 L20.2309806,33.1781267 C19.0144266,33.1781267 18.9709782,33.2000179 19.1013233,33.6597348 C19.5358069,35.0826682 21.2520171,36.5931666 23.1637448,37.249905 L24.510644,37.7096219 L23.3375383,38.410143 C21.5996039,39.4171419 19.5575311,39.9863152 17.5154582,40.0300978 C16.5378701,40.0519891 15.7340755,40.1395542 15.7340755,40.2052281 C15.7340755,40.4241409 18.3844254,41.6500526 19.9268421,42.1316608 C24.5540923,43.5545941 30.0503097,42.9416383 34.1779038,40.511706 C37.110668,38.7822947 40.0434322,35.3453635 41.4120555,32.0178887 C42.1506776,30.2446949 42.8892997,27.0047852 42.8892997,25.4505042 C42.8892997,24.4435053 42.9544723,24.3121576 44.1710263,23.1081371 C44.8879242,22.4076161 45.5613738,21.6414212 45.6917189,21.4225084 C45.9089607,21.0065741 45.8872365,21.0065741 44.7793033,21.3787259 C42.9327481,22.0354643 42.6720579,21.9478992 43.5844735,20.9627915 C44.257923,20.2622705 45.0617177,18.9925762 45.0617177,18.6204244 C45.0617177,18.5547505 44.735855,18.6642069 44.3665439,18.8612285 C43.9755087,19.0801413 43.1065415,19.4085105 42.4548161,19.605532 L41.2817104,19.9776838 L40.2172257,19.2552715 C39.6306728,18.8612285 38.805154,18.4234028 38.3706704,18.2920552 C37.2627373,17.9855772 35.5682513,18.0293598 34.568939,18.3796203 C31.8534166,19.364728 30.1372064,21.9041166 30.332724,24.6843094 Z" id="Path" fill="#FFFFFF"></path>
                        </g>
                    </g>
                    <g id="Facebook" transform="translate(34.653791, 149.935660)">
                        <g>
                            <path d="M0.1181866,31.0000827 C0.1181866,13.8792089 14.0432601,0 31.2207107,0 C48.3981613,0 62.3232348,13.8792089 62.3232348,31.0000827 C62.3232348,48.1209565 48.3981613,62.0001654 31.2207107,62.0001654 C14.0432601,62.0001654 0.1181866,48.1209565 0.1181866,31.0000827 Z" fill="#3B5998"></path>
                            <path d="M33.8214781,47.8637898 L33.8214781,30.9981081 L38.4857884,30.9981081 L39.1039103,25.1861008 L33.8214781,25.1861008 L33.8294027,22.2771352 C33.8294027,20.7612741 33.9736972,19.9490412 36.154954,19.9490412 L39.0708909,19.9490412 L39.0708909,14.1363757 L34.4059202,14.1363757 C28.8025402,14.1363757 26.8302957,16.9558245 26.8302957,21.6972509 L26.8302957,25.186759 L23.3375112,25.186759 L23.3375112,30.9987663 L26.8302957,30.9987663 L26.8302957,47.8637898 L33.8214781,47.8637898 Z" id="Path" fill="#FFFFFF"></path>
                        </g>
                    </g>
                    <g id="Github" transform="translate(327.093804, 149.935660)">
                        <g>
                            <path d="M0.354559799,31.0000827 C0.354559799,13.8792089 14.2796333,0 31.4570839,0 C48.6345345,0 62.559608,13.8792089 62.559608,31.0000827 C62.559608,48.1209565 48.6345345,62.0001654 31.4570839,62.0001654 C14.2796333,62.0001654 0.354559799,48.1209565 0.354559799,31.0000827 Z" fill="#333333"></path>
                            <path d="M19.175056,33.0001632 C20.636387,35.5992448 23.4546682,37.2162983 28.2080086,37.6635684 C27.5295335,38.1678532 26.7145605,39.1253061 26.6021504,40.2321767 C25.7490382,40.7728329 24.0337809,40.9507579 22.6999149,40.5388762 C20.8310973,39.9608656 20.1154868,36.3365033 17.3172788,36.8525841 C16.7110673,36.9646474 16.8315067,37.3558859 17.3554179,37.6881437 C18.2085301,38.2287999 19.0114592,38.9051116 19.6307183,40.345223 C20.1064538,41.4511106 21.1061006,43.4269632 24.267634,43.4269632 C25.5222107,43.4269632 26.4014181,43.2795115 26.4014181,43.2795115 C26.4014181,43.2795115 26.425506,46.1017367 26.425506,47.1987773 C26.425506,48.4639127 24.6821461,48.8207458 24.6821461,49.4292297 C24.6821461,49.6700675 25.2592514,49.6926767 25.722943,49.6926767 C26.6392859,49.6926767 28.5462425,48.9436222 28.5462425,47.6283532 C28.5462425,46.5834122 28.5633048,43.0701301 28.5633048,42.4557481 C28.5633048,41.1119718 29.2989886,40.6863279 29.2989886,40.6863279 C29.2989886,40.6863279 29.3903218,47.8593608 29.1233478,48.8207458 C28.8102055,49.9512087 28.2451441,49.7909778 28.2451441,50.2952626 C28.2451441,51.0453002 30.5405177,50.4790857 31.3012931,48.8325419 C31.8894386,47.5506953 31.6325013,40.5143009 31.6325013,40.5143009 L32.2597897,40.5015218 C32.2597897,40.5015218 32.2949178,43.7228496 32.273841,45.1954004 C32.2517604,46.7200508 32.146376,48.6487188 33.0707481,49.5580042 C33.6779633,50.155675 35.6471469,51.204548 35.6471469,50.246112 C35.6471469,49.6887447 34.5682109,49.2306615 34.5682109,47.7227222 L34.5682109,40.784629 C35.4293524,40.784629 35.2998801,43.0661981 35.2998801,43.0661981 L35.3631107,47.3049425 C35.3631107,47.3049425 35.1734187,48.8492531 37.0683315,49.4960745 C37.7367699,49.7251161 39.1679911,49.7870458 39.2352364,49.4026884 C39.3024817,49.017348 37.5119498,48.4442525 37.4958912,47.2479278 C37.4858546,46.5185335 37.529012,46.0928896 37.529012,42.9226784 C37.529012,39.7524672 37.0944267,38.5807179 35.5799016,37.6468572 C40.2539527,37.1759948 43.1465049,36.0434676 44.5566492,33.0099933 C44.6667586,33.0135346 45.130691,31.5929843 45.0705238,31.5934741 C45.3866771,30.448266 45.5572996,29.0936766 45.5914241,27.4894023 C45.5833948,23.1395776 43.4576399,21.601165 43.0491497,20.8786518 C43.6513466,17.5855642 42.9487836,16.0864721 42.6225936,15.5723572 C41.4182,15.1526114 38.4323073,16.6517035 36.8013575,17.7084406 C34.1416548,16.9466069 28.521151,17.0203327 26.413462,17.9050428 C22.5242741,15.1771867 20.4667683,15.5949665 20.4667683,15.5949665 C20.4667683,15.5949665 19.1369169,17.9296181 20.1154868,21.3455821 C18.8358185,22.9429754 17.8823402,24.0734383 17.8823402,27.0696565 C17.8823402,28.7574867 18.0850798,30.268375 18.5427494,31.587576 C18.4866448,31.5874406 19.156558,33.0005984 19.175056,33.0001632 Z" id="Path" fill="#FFFFFF"></path>
                        </g>
                    </g>
                </g>
            </g>
        </g>
    </g>
</svg>