<?xml version="1.0" encoding="UTF-8" standalone="no"?>
<svg width="918px" height="529px" viewBox="0 0 918 529" version="1.1" xmlns="http://www.w3.org/2000/svg" xmlns:xlink="http://www.w3.org/1999/xlink" xmlns:sketch="http://www.bohemiancoding.com/sketch/ns">
    <!-- Generator: Sketch 3.3.3 (12072) - http://www.bohemiancoding.com/sketch -->
    <title>integrations-image</title>
    <desc>Created with Sketch.</desc>
    <defs>
        <filter x="-50%" y="-50%" width="200%" height="200%" filterUnits="objectBoundingBox" id="filter-1">
            <feOffset dx="0" dy="-2" in="SourceAlpha" result="shadowOffsetInner1"></feOffset>
            <feGaussianBlur stdDeviation="0" in="shadowOffsetInner1" result="shadowBlurInner1"></feGaussianBlur>
            <feComposite in="shadowBlurInner1" in2="SourceAlpha" operator="arithmetic" k2="-1" k3="1" result="shadowInnerInner1"></feComposite>
            <feColorMatrix values="0 0 0 0 0.310336545   0 0 0 0 0.335466955   0 0 0 0 0.360597364  0 0 0 0.7 0" in="shadowInnerInner1" type="matrix" result="shadowMatrixInner1"></feColorMatrix>
            <feOffset dx="0" dy="-1" in="SourceAlpha" result="shadowOffsetInner2"></feOffset>
            <feGaussianBlur stdDeviation="0" in="shadowOffsetInner2" result="shadowBlurInner2"></feGaussianBlur>
            <feComposite in="shadowBlurInner2" in2="SourceAlpha" operator="arithmetic" k2="-1" k3="1" result="shadowInnerInner2"></feComposite>
            <feColorMatrix values="0 0 0 0 0.291080758   0 0 0 0 0.303198755   0 0 0 0 0.315316752  0 0 0 0.7 0" in="shadowInnerInner2" type="matrix" result="shadowMatrixInner2"></feColorMatrix>
            <feMerge>
                <feMergeNode in="SourceGraphic"></feMergeNode>
                <feMergeNode in="shadowMatrixInner1"></feMergeNode>
                <feMergeNode in="shadowMatrixInner2"></feMergeNode>
            </feMerge>
        </filter>
        <filter x="-50%" y="-50%" width="200%" height="200%" filterUnits="objectBoundingBox" id="filter-2">
            <feOffset dx="0" dy="-1" in="SourceAlpha" result="shadowOffsetInner1"></feOffset>
            <feGaussianBlur stdDeviation="0" in="shadowOffsetInner1" result="shadowBlurInner1"></feGaussianBlur>
            <feComposite in="shadowBlurInner1" in2="SourceAlpha" operator="arithmetic" k2="-1" k3="1" result="shadowInnerInner1"></feComposite>
            <feColorMatrix values="0 0 0 0 0.290196078   0 0 0 0 0.301960784   0 0 0 0 0.31372549  0 0 0 0.7 0" in="shadowInnerInner1" type="matrix" result="shadowMatrixInner1"></feColorMatrix>
            <feMerge>
                <feMergeNode in="SourceGraphic"></feMergeNode>
                <feMergeNode in="shadowMatrixInner1"></feMergeNode>
            </feMerge>
        </filter>
    </defs>
    <g id="Page-1" stroke="none" stroke-width="1" fill="none" fill-rule="evenodd" sketch:type="MSPage">
        <g id="assets" sketch:type="MSArtboardGroup" transform="translate(-261.000000, -562.000000)">
            <g id="integrations-image" sketch:type="MSLayerGroup" transform="translate(263.000000, 562.629112)">
                <g id="//-MacBook-Air-13-Copy" sketch:type="MSShapeGroup">
                    <g id="::-base" transform="translate(0.000000, 500.258107)" filter="url(#filter-1)" fill="#979797">
                        <path d="M-1.46568084,0.693197736 C-1.86673108,0.310355198 -1.75155443,0 -1.19281261,0 L915.192806,0 C915.744557,0 915.86853,0.308688629 915.469306,0.679450514 C915.469306,0.679450514 888.229899,27.4867092 850.200169,27.4867092 L63.7997961,27.4867092 C25.3046713,27.4867092 -1.46568084,0.693197736 -1.46568084,0.693197736 Z" id="Mask"></path>
                    </g>
                    <g id="::-screen" transform="translate(74.798403, 0.000000)">
                        <path d="M0,15.0057512 C0,6.71830364 6.71972408,0 14.9994357,0 L743.904454,0 C752.188414,0 758.90389,6.71687008 758.90389,15.0057512 L758.90389,500.258107 L571.040266,500.258107 L0,500.258107 L0,15.0057512 Z" id="screen-bg" fill="#121212" filter="url(#filter-2)"></path>
                        <rect id="wallpaper" stroke-opacity="0.1" stroke="#000000" fill="#3373BD" x="22.0505348" y="19.6272085" width="713.448443" height="462.641343"></rect>
                        <path d="M24.119866,20.9995224 L487.423423,20.9995224 L24.119866,484.137809 L24.119866,20.9995224 Z" id="glare" fill-opacity="0.12" fill="#FFFFFF"></path>
                    </g>
                </g>
                <g id="Group-Copy-3" transform="translate(124.000000, 66.000000)" sketch:type="MSShapeGroup">
                    <g id="Group-Copy-2" transform="translate(199.537237, 0.201991)" fill="#FFFFFF">
                        <path d="M16.8335995,1.32386417 C22.3514776,1.32386417 26.5018768,2.75247853 29.2825661,5.6085929 C31.5825186,7.90752537 32.7336102,10.883991 32.7336102,14.532418 C32.7336102,18.180845 31.5825186,21.1573107 29.2825661,23.4562432 C26.5018768,26.3123575 22.3514776,27.7409719 16.8335995,27.7409719 L5.99526884,27.7409719 L5.99526884,40.469235 C5.99526884,41.2247736 5.72980392,41.8610753 5.18995087,42.3736827 C4.65679022,42.8907475 4.01208968,43.1448224 3.26031085,43.1448224 C2.50407043,43.1448224 1.87163928,42.8907475 1.35297881,42.3736827 C0.835433742,41.8610753 0.581122803,41.2247736 0.581122803,40.469235 L0.581122803,4.06185597 C0.581122803,3.31077478 0.835433742,2.66221507 1.35297881,2.12843482 C1.87163928,1.59131148 2.50407043,1.32386417 3.26031085,1.32386417 L16.8335995,1.32386417 L16.8335995,1.32386417 Z M16.2993235,22.6226991 C20.3872603,22.6226991 23.3464134,21.752381 25.1734367,20.0039442 C26.6044935,18.6566784 27.3138871,16.8313505 27.3138871,14.532418 C27.3138871,10.8416452 25.4701328,8.3833587 21.7803934,7.15644418 C20.3504521,6.67949649 18.5223134,6.442137 16.2993235,6.442137 L5.99526884,6.442137 L5.99526884,22.6226991 L16.2993235,22.6226991 L16.2993235,22.6226991 Z" id="Fill-1"></path>
                        <path d="M65.4281814,2.39476776 C66.0193428,1.48433255 66.76666,1.02855777 67.6589791,1.02855777 C68.5501828,1.02855777 69.2361531,1.2859758 69.7124284,1.7996975 C70.1898191,2.31676229 70.4285145,2.91183255 70.4285145,3.58490827 C70.4285145,4.257984 70.267897,4.85416862 69.9511238,5.37123341 L55.6584028,25.2982865 L55.6584028,40.469235 C55.6584028,41.2247736 55.4040919,41.8610753 54.8854314,42.3736827 C54.3678864,42.8907475 53.7354552,43.1448224 52.9792148,43.1448224 C52.2229744,43.1448224 51.5827354,42.8907475 51.0451132,42.3736827 C50.5063755,41.8610753 50.2431414,41.2247736 50.2431414,40.469235 L50.2431414,25.2982865 L36.0117674,5.37123341 C35.6916479,4.85416862 35.5354921,4.257984 35.5354921,3.58490827 C35.5354921,2.91183255 35.7730721,2.31676229 36.2460012,1.7996975 C36.7233919,1.2859758 37.4082468,1.02855777 38.3050275,1.02855777 C39.1917695,1.02855777 39.9402022,1.48433255 40.5358252,2.39476776 L52.9792148,20.4797775 L65.4281814,2.39476776" id="Fill-2"></path>
                        <path d="M107.103944,12.0953044 C107.103944,16.3755757 105.164266,19.4300468 101.269293,21.2553747 C105.041572,22.524635 107.546758,24.6051522 108.771465,27.502498 C109.206471,28.61129 109.428435,29.940726 109.428435,31.4885773 C109.428435,33.0319711 109.149586,34.5218755 108.598579,35.9504898 C108.039764,37.3791042 107.145214,38.6060187 105.912698,39.6356909 C103.372935,41.777498 99.4456157,42.849516 94.1251631,42.849516 L79.7175561,42.849516 C78.9613157,42.849516 78.3288846,42.592098 77.8113395,42.0783763 C77.2937944,41.5613115 77.0383681,40.9250098 77.0383681,40.1739286 L77.0383681,4.06185597 C77.0383681,3.31077478 77.2937944,2.66221507 77.8113395,2.12843482 C78.3288846,1.59131148 78.9613157,1.32386417 79.7175561,1.32386417 L93.7671201,1.32386417 C98.1383682,1.32386417 101.449987,2.31676229 103.709785,4.29921546 C105.978507,6.28166862 107.103944,8.88036495 107.103944,12.0953044 L107.103944,12.0953044 Z M101.927378,12.5087334 C101.927378,10.6455172 101.178945,9.15895589 99.6921188,8.04682084 C98.2052921,6.93914325 96.0927267,6.38084699 93.3521917,6.38084699 L82.4536295,6.38084699 L82.4536295,19.2907514 L92.3382942,19.2907514 C97.4568595,19.2907514 100.513052,17.923427 101.507988,15.1854352 C101.786838,14.3518911 101.927378,13.4615144 101.927378,12.5087334 L101.927378,12.5087334 Z M93.5864255,37.7925332 C99.2236513,37.7925332 102.584348,36.4463817 103.6529,33.7462783 C104.014289,32.9171916 104.186061,31.9855835 104.186061,30.9503396 C104.186061,28.5700585 103.298203,26.8461378 101.507988,25.7741198 C99.7244654,24.7032162 97.1043935,24.1705503 93.6488878,24.1705503 L82.4536295,24.1705503 L82.4536295,37.7925332 L93.5864255,37.7925332 L93.5864255,37.7925332 Z" id="Fill-3"></path>
                        <path d="M136.108776,0.728793911 C142.378433,0.728793911 147.415574,2.73130562 151.228007,6.73855777 C154.924439,10.6655757 156.848502,15.7793911 157.004658,22.0889188 C156.848502,28.3928747 154.924439,33.5066901 151.228007,37.4359368 C147.415574,41.4431889 142.378433,43.4445863 136.108776,43.4445863 C129.790042,43.4445863 124.7529,41.4431889 120.981737,37.4359368 C117.210573,33.4699161 115.278702,28.3527576 115.205086,22.0889188 C115.278702,15.8206226 117.210573,10.7056928 120.981737,6.73855777 C124.7529,2.73130562 129.790042,0.728793911 136.108776,0.728793911 L136.108776,0.728793911 Z M136.108776,38.3876034 C140.948492,38.3876034 144.760925,36.8196936 147.538268,33.6883314 C150.233072,30.6750917 151.589397,26.8093638 151.589397,22.0889188 C151.589397,17.3684738 150.233072,13.5016315 147.538268,10.4850488 C144.760925,7.35368657 140.948492,5.78466237 136.108776,5.78466237 C131.261253,5.78466237 127.448819,7.35368657 124.671476,10.4850488 C121.968865,13.5016315 120.620348,17.3684738 120.620348,22.0889188 C120.620348,26.8093638 121.968865,30.6750917 124.671476,33.6883314 C127.448819,36.8196936 131.261253,38.3876034 136.108776,38.3876034 L136.108776,38.3876034 Z" id="Fill-4"></path>
                        <path d="M177.965233,38.3263134 C184.916399,38.3263134 188.391982,36.0496682 188.391982,31.4885773 C188.391982,29.5841296 187.061311,28.0574512 184.398854,26.9074278 C183.248878,26.4315945 181.909284,26.0047931 180.381187,25.6270238 C178.853091,25.2492545 177.29934,24.8425117 175.738897,24.4067955 C174.168416,23.973308 172.616896,23.4751874 171.087684,22.9224629 C169.559588,22.3630523 168.203263,21.6498595 167.012017,20.7795414 C164.390829,18.7959738 163.084697,16.1783333 163.084697,12.9277342 C163.084697,9.43531811 164.390829,6.58143247 167.012017,4.35716237 C169.871899,1.93899297 173.699948,0.728793911 178.507317,0.728793911 C182.829488,0.728793911 186.781346,1.38515418 190.356199,2.69453162 C191.464906,3.08901639 192.023721,3.88021468 192.023721,5.07146955 C192.023721,5.66653981 191.810679,6.23375098 191.400213,6.76641686 C190.980823,7.30465457 190.521278,7.57098751 190.027157,7.57098751 C189.526343,7.57098751 188.844834,7.41497658 187.972592,7.09515418 C185.39379,6.18360461 182.434637,5.72894418 179.098479,5.72894418 C176.042286,5.72894418 173.519254,6.30284153 171.539421,7.45286495 C169.51051,8.64300546 168.498843,10.3301522 168.498843,12.5087334 C168.498843,14.7697775 169.806091,16.4736397 172.427278,17.6270062 C173.618524,18.180845 174.965926,18.6377342 176.478407,18.9943306 C177.989772,19.350927 179.5346,19.7286963 181.120697,20.1231811 C182.713486,20.521009 184.258314,20.9845843 185.770795,21.5217076 C187.274352,22.0566023 188.630677,22.7619945 189.814115,23.6323126 C192.434187,25.5367603 193.749243,28.2747521 193.749243,31.8451737 C193.749243,35.2573556 192.378417,38.031007 189.641229,40.1739286 C186.822616,42.3536241 183.108338,43.4445863 178.507317,43.4445863 C173.462368,43.4445863 168.737539,42.4929196 164.333944,40.5884719 C163.897823,40.3912295 163.504087,40.0758646 163.166121,39.6356909 C162.829271,39.201089 162.665307,38.6762236 162.665307,38.0599805 C162.665307,37.4493091 162.878349,36.8898985 163.323393,36.3928923 C163.758398,35.9014578 164.260328,35.650726 164.834758,35.650726 C165.410304,35.650726 166.124159,35.8390535 166.978555,36.2168228 C167.834066,36.5945921 169.23166,37.041452 171.178031,37.5551737 C173.125518,38.0722385 175.385316,38.3263134 177.965233,38.3263134" id="Fill-5"></path>
                        <path d="M214.052848,38.3263134 C220.997321,38.3263134 224.471789,36.0496682 224.471789,31.4885773 C224.471789,29.5841296 223.141118,28.0574512 220.478661,26.9074278 C219.328685,26.4315945 217.987975,26.0047931 216.460994,25.6270238 C214.931782,25.2492545 213.386955,24.8425117 211.818704,24.4067955 C210.248222,23.973308 208.703395,23.4751874 207.175299,22.9224629 C205.647202,22.3630523 204.283069,21.6498595 203.091823,20.7795414 C200.479559,18.7959738 199.164504,16.1783333 199.164504,12.9277342 C199.164504,9.43531811 200.479559,6.58143247 203.091823,4.35716237 C205.951706,1.93899297 209.779755,0.728793911 214.588239,0.728793911 C218.918218,0.728793911 222.862268,1.38515418 226.436006,2.69453162 C227.545828,3.08901639 228.103527,3.88021468 228.103527,5.07146955 C228.103527,5.66653981 227.898294,6.23375098 227.478904,6.76641686 C227.059514,7.30465457 226.608893,7.57098751 226.108079,7.57098751 C225.613957,7.57098751 224.932448,7.41497658 224.053514,7.09515418 C221.473597,6.18360461 218.514443,5.72894418 215.187209,5.72894418 C212.122093,5.72894418 209.607984,6.30284153 207.620343,7.45286495 C205.598125,8.64300546 204.587573,10.3301522 204.587573,12.5087334 C204.587573,14.7697775 205.893705,16.4736397 208.514893,17.6270062 C209.707254,18.180845 211.054656,18.6377342 212.566021,18.9943306 C214.069579,19.350927 215.62333,19.7286963 217.208311,20.1231811 C218.794408,20.521009 220.348159,20.9845843 221.850601,21.5217076 C223.363082,22.0566023 224.710484,22.7619945 225.90173,23.6323126 C228.522917,25.5367603 229.830165,28.2747521 229.830165,31.8451737 C229.830165,35.2573556 228.464917,38.031007 225.721035,40.1739286 C222.903538,42.3536241 219.18926,43.4445863 214.588239,43.4445863 C209.542175,43.4445863 204.826269,42.4929196 200.413751,40.5884719 C199.97763,40.3912295 199.591702,40.0758646 199.255967,39.6356909 C198.918001,39.201089 198.746229,38.6762236 198.746229,38.0599805 C198.746229,37.4493091 198.968194,36.8898985 199.403199,36.3928923 C199.838205,35.9014578 200.347942,35.650726 200.923488,35.650726 C201.497918,35.650726 202.212889,35.8390535 203.0684,36.2168228 C203.92168,36.5945921 205.31816,37.041452 207.265646,37.5551737 C209.204209,38.0722385 211.47293,38.3263134 214.052848,38.3263134" id="Fill-6"></path>
                        <path d="M271.513735,39.2790945 C271.718969,39.7549278 271.817124,40.264192 271.817124,40.7968579 C271.817124,41.3317525 271.578428,41.8610753 271.103269,42.3736827 C270.625878,42.8907475 269.869637,43.1448224 268.834547,43.1448224 C267.80838,43.1448224 267.05214,42.592098 266.574749,41.483306 L262.704315,32.2028845 L242.458711,32.2028845 L238.588277,41.483306 C238.112001,42.592098 237.355761,43.1448224 236.329594,43.1448224 C235.293388,43.1448224 234.538263,42.8907475 234.061988,42.3736827 C233.584597,41.8610753 233.345902,41.3317525 233.345902,40.7968579 C233.345902,40.264192 233.445172,39.7549278 233.642598,39.2790945 L248.826523,3.46567135 C249.542609,1.84092896 250.692585,1.02855777 252.28649,1.02855777 L252.877651,1.02855777 C254.463748,1.02855777 255.622648,1.84092896 256.336503,3.46567135 L271.513735,39.2790945 L271.513735,39.2790945 Z M260.617404,27.2651386 L252.580955,7.92758392 L244.545622,27.2651386 L260.617404,27.2651386 L260.617404,27.2651386 Z" id="Fill-7"></path>
                    </g>
                    <rect id="Rectangle-168" fill-opacity="0.5" fill="#FFFFFF" x="0" y="86.5690866" width="207.569671" height="129.274005" rx="0.900000036"></rect>
                    <rect id="Rectangle-168-Copy-4" fill-opacity="0.5" fill="#FFFFFF" x="458.270703" y="86.5690866" width="207.569671" height="129.274005" rx="0.900000036"></rect>
                    <rect id="Rectangle-168-Copy-2" fill-opacity="0.5" fill="#FFFFFF" x="0" y="234.69555" width="207.569671" height="129.274005" rx="0.900000036"></rect>
                    <rect id="Rectangle-168-Copy" fill-opacity="0.5" fill="#FFFFFF" x="229.135351" y="86.5690866" width="207.569671" height="129.274005" rx="0.900000036"></rect>
                    <rect id="Rectangle-168-Copy-5" fill-opacity="0.5" fill="#FFFFFF" x="458.270703" y="234.69555" width="207.569671" height="129.274005" rx="0.900000036"></rect>
                    <rect id="Rectangle-168-Copy-3" fill-opacity="0.5" fill="#FFFFFF" x="229.135351" y="234.69555" width="207.569671" height="129.274005" rx="0.900000036"></rect>
                    <g id="Google-+" transform="translate(512.575232, 102.606839)">
                        <g>
                            <path d="M0.185205354,48.5992499 C0.185205354,21.758624 22.0066147,0 48.9246902,0 C75.8427657,0 97.664175,21.758624 97.664175,48.5992499 C97.664175,75.4398758 75.8427657,97.1984998 48.9246902,97.1984998 C22.0066147,97.1984998 0.185205354,75.4398758 0.185205354,48.5992499 Z" fill="#D34836"></path>
                            <path d="M96.1497471,37.4121885 L84.6238446,37.4121885 L84.6238446,50.1820108 L79.1910238,50.1820108 L79.1910238,37.4121885 L66.51451,37.4121885 L66.51451,32.097326 L79.1910238,32.097326 L79.1910238,19.4397 L84.6238446,19.4397 L84.6238446,32.097326 L94.3016287,32.097326 C95.0164146,33.8212543 95.6347184,35.595193 96.1497471,37.4121885 Z" id="Shape" fill="#FFFFFF"></path>
                            <path d="M13.5746562,80.051333 C14.9374984,77.7661105 17.050689,75.5193842 20.1812535,73.6730974 C27.2448843,69.3575451 36.7583292,68.7875665 41.9029389,68.4618644 C40.3105597,66.4262266 38.4731991,64.2684504 38.4731991,60.7264405 C38.4731991,58.8129409 39.0448224,57.6729837 39.6164457,56.3294627 C38.3507084,56.451601 37.1258013,56.5737392 35.9825547,56.5737392 C23.9376352,56.5737392 17.1189858,47.6169326 17.1189858,38.7822642 C17.1189858,33.5710312 19.5279697,27.7816771 24.3867678,23.5923343 C30.8787752,18.2711769 38.5956898,17.3632824 44.7202252,17.3632824 L68.1159503,17.3632824 L60.8481683,21.4386295 L53.8253677,21.4386295 C56.4385028,23.5923343 61.8689242,28.1236642 61.8689242,36.7466263 C61.8689242,45.1334544 57.0917866,49.0825918 52.3554793,52.8281655 C50.8447605,54.2938248 49.1707209,55.8816224 49.1707209,58.3651006 C49.1707209,60.8485788 50.8447605,62.2328125 52.1104978,63.2506315 L56.1935214,66.4262266 C61.2156404,70.5789278 65.7477966,74.4466398 65.7477966,82.2634893 C65.7477966,87.4184118 63.335209,92.5923513 58.6344615,96.5629928 C56.1052265,96.9741555 53.5106013,97.1912097 50.8664679,97.1983193 C55.6397143,95.1105274 58.1125425,91.2905748 58.1125425,86.7011798 C58.1125425,80.9199683 54.396991,77.8665114 45.7409811,71.718885 C44.8427159,71.6374595 44.2710926,71.6374595 43.127846,71.6374595 C42.1070901,71.6374595 35.9825547,71.8410233 31.2054171,73.4288209 C28.7147728,74.3245015 21.4469908,77.0522563 21.4469908,85.1133823 C21.4469908,85.9894296 21.5405194,86.8387618 21.7230009,87.6567634 C9.75143527,78.8016229 14.9374985,80.0513351 13.5746562,80.051333 Z M51.8655164,41.9578593 C51.8655164,33.774595 47.0067184,21.1007136 37.5749339,21.1007136 C34.6351569,21.1007136 31.4503985,22.5745154 29.6130379,24.842216 C27.6940169,27.219841 27.1223936,30.2732978 27.1223936,33.2046164 C27.1223936,40.8179021 31.532059,53.3981441 41.3313156,53.3981441 C44.1486019,53.3981441 47.2108695,52.0139104 49.0482302,50.2225491 C51.6613652,47.6169326 51.8655164,43.9934971 51.8655164,41.9578593 Z" id="Path" fill="#FFFFFF"></path>
                        </g>
                    </g>
                    <g id="Flickr" transform="translate(283.439881, 102.606839)">
                        <path d="M0.555616061,48.5992499 C0.555616061,21.758624 22.3770254,0 49.2951009,0 C76.2131764,0 98.0345857,21.758624 98.0345857,48.5992499 C98.0345857,75.4398758 76.2131764,97.1984998 49.2951009,97.1984998 C22.3770254,97.1984998 0.555616061,75.4398758 0.555616061,48.5992499 Z" fill="#FF0084"></path>
                        <path d="M37.1101861,38.8793999 C31.2777609,38.8793999 26.550008,43.5934435 26.550008,49.4091504 C26.550008,55.2249443 31.2777609,59.9389878 37.1101861,59.9390748 C42.9426985,59.9390748 47.6704514,55.2249443 47.6704514,49.4091504 C47.6704514,43.5934435 42.9427857,38.8793129 37.1101861,38.8793999 Z" id="Path" fill="#FFFFFF"></path>
                        <path d="M52.5443999,49.4091504 C52.5443999,55.2249443 57.2721528,59.9390748 63.104578,59.9390748 C68.9371776,59.9390748 73.6648433,55.2249443 73.6648433,49.4091504 C73.6648433,43.5935305 68.9370904,38.8793999 63.104578,38.8793999 C57.2720655,38.8793999 52.5443999,43.5935305 52.5443999,49.4091504 Z M55.7913545,49.4092374 C55.7913545,45.3831435 59.0598426,42.1193499 63.0917276,42.1193499 C67.1236125,42.1193499 70.3921006,45.3831435 70.3921006,49.4092374 C70.3921006,53.4353313 67.1236125,56.6991249 63.0917276,56.6991249 C59.0598426,56.6991249 55.7913545,53.4353313 55.7913545,49.4092374 Z" id="Path" fill="#FFFFFF"></path>
                    </g>
                    <g id="Dropbox" transform="translate(54.304529, 102.606839)">
                        <g>
                            <path d="M1.11123212,48.5992499 C1.11123212,21.758624 22.9326414,0 49.850717,0 C76.7687925,0 98.5902018,21.758624 98.5902018,48.5992499 C98.5902018,75.4398758 76.7687925,97.1984998 49.850717,97.1984998 C22.9326414,97.1984998 1.11123212,75.4398758 1.11123212,48.5992499 Z" fill="#3D9AE8"></path>
                            <path d="M66.7396051,62.3873715 L66.7396051,65.1185629 L49.8115667,76.0669504 L33.2585699,65.0439256 L33.2585699,62.4694393 L38.2094095,65.3944878 L38.7605161,65.718988 L39.2691358,65.3311626 L49.9634964,57.1487897 L60.6541866,65.3311626 L61.1665879,65.7215388 L61.7190292,65.3908281 L66.7396051,62.3873715 Z" id="Path" fill="#FFFFFF"></path>
                            <path d="M61.4945826,24.3714993 L49.9634964,34.0133467 L38.6917807,24.3714993 L21.4334119,35.58084 L33.3184075,44.5960893 L21.4334119,53.6126694 L33.2585699,60.5967427 L38.6918919,63.8052577 L49.9636076,55.1816045 L61.231653,63.8052577 L66.7396051,60.5096844 L78.268022,53.6126694 L67.2594583,44.2046041 L78.268022,35.057492 L61.4945826,24.3714993 Z M66.2782549,43.8390701 L49.8501608,54.6940779 L33.5241689,44.4381644 L49.9985314,34.5129616 L66.2782549,43.8390701 Z" id="Path" fill="#FFFFFF"></path>
                        </g>
                    </g>
                    <g id="Twitter" transform="translate(283.439881, 247.608761)">
                        <g>
                            <path d="M0,48.5992499 C0,21.758624 21.8214093,0 48.7394848,0 C75.6575604,0 97.4789697,21.758624 97.4789697,48.5992499 C97.4789697,75.4398758 75.6575604,97.1984998 48.7394848,97.1984998 C21.8214093,97.1984998 0,75.4398758 0,48.5992499 Z" fill="#4099FF"></path>
                            <path d="M47.5331628,38.6979264 L47.635292,40.3795701 L45.9331387,40.1736546 C39.7373005,39.3843116 34.3244529,36.7074094 29.7286388,32.2115865 L27.4817964,29.9808347 L26.9030643,31.6281591 C25.6775138,35.3003198 26.4605044,39.178396 29.0137344,41.7866597 C30.3754571,43.2280686 30.0690695,43.4339842 27.7200979,42.5760027 C26.9030643,42.3014486 26.1881598,42.0955331 26.1200737,42.1984908 C25.8817722,42.4387256 26.6988059,45.5617782 27.3456241,46.7972715 C28.2307439,48.5132345 30.0350264,50.1948782 32.0095243,51.1901367 L33.6776346,51.9794796 L31.7031367,52.0137989 C29.7967249,52.0137989 29.7286388,52.0481181 29.9328972,52.7688226 C30.6137586,54.9995744 33.3031608,57.3676033 36.2989507,58.397181 L38.4096209,59.1178855 L36.5712953,60.2161018 C33.8478499,61.7947877 30.6478016,62.6870884 27.4477533,62.7557269 C25.9158153,62.7900462 24.6562218,62.9273232 24.6562218,63.030281 C24.6562218,63.3734736 28.809476,65.2953521 31.2265338,66.0503758 C38.477707,68.2811276 47.090603,67.3201884 53.5587857,63.5107506 C58.1545997,60.7995292 62.7504138,55.4114055 64.895127,50.1948782 C66.0525913,47.4150182 67.2100556,42.3357679 67.2100556,39.8991005 C67.2100556,38.3204146 67.3121848,38.114499 69.2185965,36.2269398 C70.3420177,35.1287235 71.3973528,33.9275494 71.6016112,33.5843568 C71.9420419,32.9322909 71.9079988,32.9322909 70.1718024,33.5157183 C67.2781417,34.5452961 66.8696249,34.4080191 68.2994337,32.8636524 C69.3547688,31.7654361 70.6143623,29.7749191 70.6143623,29.1914917 C70.6143623,29.0885339 70.1037163,29.2601302 69.5249841,29.5690035 C68.9122089,29.9121961 67.5504862,30.426985 66.5291942,30.7358583 L64.6908686,31.3192857 L63.0227583,30.1867502 C62.1035955,29.5690035 60.809959,28.8826184 60.1290976,28.6767028 C58.3929012,28.1962332 55.737542,28.2648717 54.1715609,28.8139798 C49.9161775,30.3583465 47.2267752,34.3393805 47.5331628,38.6979264 Z" id="Path" fill="#FFFFFF"></path>
                        </g>
                    </g>
                    <g id="Facebook" transform="translate(54.304529, 250.733303)">
                        <g>
                            <path d="M0.185205354,48.5992499 C0.185205354,21.758624 22.0066147,0 48.9246902,0 C75.8427657,0 97.664175,21.758624 97.664175,48.5992499 C97.664175,75.4398758 75.8427657,97.1984998 48.9246902,97.1984998 C22.0066147,97.1984998 0.185205354,75.4398758 0.185205354,48.5992499 Z" fill="#3B5998"></path>
                            <path d="M53.0002457,75.036712 L53.0002457,48.5961542 L60.3094943,48.5961542 L61.2781276,39.4845916 L53.0002457,39.4845916 L53.0126641,34.9241668 C53.0126641,32.5477309 53.238782,31.2743823 56.6569397,31.2743823 L61.2263844,31.2743823 L61.2263844,22.1617878 L53.9161009,22.1617878 C45.1352747,22.1617878 42.0446516,26.5818759 42.0446516,34.0150743 L42.0446516,39.4856235 L36.5712528,39.4856235 L36.5712528,48.5971861 L42.0446516,48.5971861 L42.0446516,75.036712 L53.0002457,75.036712 Z" id="Path" fill="#FFFFFF"></path>
                        </g>
                    </g>
                    <g id="Github" transform="translate(512.575232, 250.733303)">
                        <g>
                            <path d="M0.555616061,48.5992499 C0.555616061,21.758624 22.3770254,0 49.2951009,0 C76.2131764,0 98.0345857,21.758624 98.0345857,48.5992499 C98.0345857,75.4398758 76.2131764,97.1984998 49.2951009,97.1984998 C22.3770254,97.1984998 0.555616061,75.4398758 0.555616061,48.5992499 Z" fill="#333333"></path>
                            <path d="M30.0484408,51.7348031 C32.3384324,55.8094187 36.7548448,58.3444953 44.2036088,59.0456867 C43.1403984,59.8362608 41.8632877,61.3372727 41.6871345,63.0725288 C40.3502575,63.9201228 37.6623484,64.1990583 35.5721019,63.5533458 C32.6435549,62.6471907 31.522151,56.9652287 27.1371945,57.7742957 C26.1872255,57.9499788 26.375961,58.5633287 27.1969608,59.0842137 C28.5338378,59.9318077 29.7920749,60.9920708 30.7624903,63.249753 C31.5079959,64.983468 33.0745011,68.0810389 38.0288099,68.0810389 C39.9948055,68.0810389 41.3725752,67.8498769 41.3725752,67.8498769 C41.3725752,67.8498769 41.4103223,72.2743176 41.4103223,73.9941629 C41.4103223,75.9775329 38.6783749,76.5369449 38.6783749,77.4908734 C38.6783749,77.868438 39.5827328,77.9038829 40.3093648,77.9038829 C41.745328,77.9038829 44.7336412,76.7295799 44.7336412,74.6676149 C44.7336412,73.0294468 44.7603788,67.5216268 44.7603788,66.5584518 C44.7603788,64.4517954 45.9132386,63.7845078 45.9132386,63.7845078 C45.9132386,63.7845078 46.056363,75.0297687 45.6379992,76.5369449 C45.1472867,78.3091869 44.2618023,78.0579909 44.2618023,78.8485649 C44.2618023,80.024409 47.8587878,79.1367469 49.0509675,76.5554379 C49.9726262,74.5458695 49.5699903,63.5148188 49.5699903,63.5148188 L50.5529881,63.4947847 C50.5529881,63.4947847 50.608036,68.5449039 50.5750072,70.8534418 C50.5404057,73.2436569 50.3752621,76.2672559 51.8238076,77.6927549 C52.7753495,78.6297316 55.8611761,80.274064 55.8611761,78.7715109 C55.8611761,77.8977186 54.1704199,77.1795753 54.1704199,74.8155585 L54.1704199,63.9386158 C55.5198793,63.9386158 55.3169885,67.5154625 55.3169885,67.5154625 L55.4160747,74.1605995 C55.4160747,74.1605995 55.1188162,76.5816362 58.0882559,77.5956669 C59.1357383,77.9547385 61.3785461,78.0518266 61.4839234,77.4492643 C61.5893008,76.8451609 58.7834319,75.9467113 58.7582672,74.0712169 C58.7425392,72.9277355 58.8101695,72.2604479 58.8101695,67.2904648 C58.8101695,62.3204818 58.1291486,60.4835144 55.7557987,59.0194884 C63.0803118,58.281311 67.6131112,56.5058327 69.8228902,51.7502139 C69.9954381,51.7557657 70.7224476,49.5287497 70.628162,49.5295176 C71.1235929,47.7341594 71.3909683,45.6105511 71.4444433,43.0955085 C71.431861,36.2762295 68.1006781,33.8644392 67.4605499,32.7317454 C68.4042278,27.5691274 67.3032703,25.2189803 66.7921114,24.4129955 C64.9047557,23.7549543 60.2256863,26.1051013 57.669892,27.7617624 C53.5019814,26.5674253 44.6943213,26.6830063 41.3914488,28.0699784 C35.2968625,23.7934813 32.0726298,24.4484403 32.0726298,24.4484403 C32.0726298,24.4484403 29.9886745,28.1085054 31.522151,33.4637584 C29.5168356,35.9680135 28.0226789,37.7402555 28.0226789,42.4374674 C28.0226789,45.0835018 28.3403838,47.4521417 29.057579,49.5202711 C28.9696599,49.5200587 30.0194533,51.7354854 30.0484408,51.7348031 Z" id="Path" fill="#FFFFFF"></path>
                        </g>
                    </g>
                </g>
            </g>
        </g>
    </g>
</svg>