<?xml version="1.0" encoding="UTF-8" standalone="no"?>
<svg width="120px" height="100px" viewBox="0 0 120 100" version="1.1" xmlns="http://www.w3.org/2000/svg" xmlns:xlink="http://www.w3.org/1999/xlink" xmlns:sketch="http://www.bohemiancoding.com/sketch/ns">
    <!-- Generator: Sketch 3.4.4 (17249) - http://www.bohemiancoding.com/sketch -->
    <title>integration</title>
    <desc>Created with Sketch.</desc>
    <defs></defs>
    <g id="Style-Inventory" stroke="none" stroke-width="1" fill="none" fill-rule="evenodd" sketch:type="MSPage">
        <g id="Features" sketch:type="MSArtboardGroup" transform="translate(-660.000000, -691.000000)">
            <g id="integration" sketch:type="MSLayerGroup" transform="translate(660.000000, 691.000000)">
                <rect id="Rectangle-201" fill-opacity="0.01" fill="#FFFFFF" sketch:type="MSShapeGroup" x="0" y="0" width="120" height="100"></rect>
                <g id="Group" transform="translate(19.235294, 12.705882)" sketch:type="MSShapeGroup">
                    <path d="M33.8823529,17.525355 C23.6008114,17.525355 15.188641,25.9375254 15.188641,36.2190669 L15.188641,42.0608519 L0,42.0608519 L0,58.6059554 C0,63.6637728 4.10093306,67.7647059 9.15875051,67.7647059 L60.7545639,67.7647059 C64.610142,67.7647059 67.7647059,64.610142 67.7647059,60.7545639 L67.7647059,36.2190669 C67.7647059,25.9375254 59.3525355,17.525355 49.0709939,17.525355 L33.8823529,17.525355 Z" id="Fill-960" fill="#546E7A"></path>
                    <path d="M17.525355,11.0993915 C17.525355,14.6336714 20.4170385,17.525355 23.9513185,17.525355 L28.040568,17.525355 L28.040568,4.67342799 L23.9513185,4.67342799 C20.4170385,4.67342799 17.525355,7.56511156 17.525355,11.0993915" id="Fill-983" fill="#077CA0"></path>
                    <path d="M66.5963489,11.0993915 C66.5963489,14.6336714 63.7046653,17.525355 60.1703854,17.525355 L56.0811359,17.525355 L56.0811359,4.67342799 L60.1703854,4.67342799 C63.7046653,4.67342799 66.5963489,7.56511156 66.5963489,11.0993915" id="Fill-984" fill="#077CA0"></path>
                    <path d="M33.8823529,4.67342799 L50.2393509,4.67342799 L50.2393509,17.525355 L33.8823529,17.525355 L33.8823529,4.67342799 Z" id="Fill-985" fill="#077CA0"></path>
                    <path d="M14.020284,42.0608519 L16.356998,42.0608519 L16.356998,67.7647059 L14.020284,67.7647059 L14.020284,42.0608519 Z" id="Fill-986" fill="#2F4149"></path>
                    <path d="M17.7601947,26.8243083 L17.7601947,25.9386937 C17.7601947,25.164073 17.1316187,24.535497 16.356998,24.535497 L4.90826775,24.535497 C4.13364706,24.535497 3.50507099,25.164073 3.50507099,25.9386937 L3.50507099,29.2089249 L16.5719757,29.2089249 C16.9096308,28.3817282 17.3115456,27.5884138 17.7601947,26.8243083" id="Fill-987" fill="#F88B1C"></path>
                    <path d="M2.336714,33.8823529 L15.352211,33.8823529 C15.5578418,32.2513266 15.9702718,30.6833915 16.5719757,29.2089249 L2.336714,29.2089249 C1.0515213,29.2089249 0,30.2604462 0,31.5456389 C0,32.8308316 1.0515213,33.8823529 2.336714,33.8823529" id="Fill-988" fill="#2F4149"></path>
                    <path d="M15.188641,36.2190669 C15.188641,35.4257525 15.2552373,34.6499635 15.352211,33.8823529 L2.336714,33.8823529 L2.336714,42.0608519 L15.188641,42.0608519 L15.188641,36.2190669" id="Fill-989" fill="#F88B1C"></path>
                    <path d="M21.030426,51.4077079 L37.3874239,51.4077079 L37.3874239,67.7647059 L21.030426,67.7647059 L21.030426,51.4077079 Z" id="Fill-990" fill="#2F4149"></path>
                    <path d="M60.7382069,67.7647059 L45.5659229,67.7647059 L45.5659229,51.4077079 L61.9229209,51.4077079 L61.9229209,66.5799919 C61.9229209,67.2342718 61.3924868,67.7647059 60.7382069,67.7647059" id="Fill-991" fill="#2F4149"></path>
                    <path d="M30.3772819,56.0811359 C30.3772819,56.726069 29.853858,57.2494929 29.2089249,57.2494929 C28.5639919,57.2494929 28.040568,56.726069 28.040568,56.0811359 C28.040568,55.4362028 28.5639919,54.9127789 29.2089249,54.9127789 C29.853858,54.9127789 30.3772819,55.4362028 30.3772819,56.0811359" id="Fill-992" fill="#077CA0"></path>
                    <path d="M54.9127789,56.0811359 C54.9127789,56.726069 54.389355,57.2494929 53.7444219,57.2494929 C53.0994888,57.2494929 52.5760649,56.726069 52.5760649,56.0811359 C52.5760649,55.4362028 53.0994888,54.9127789 53.7444219,54.9127789 C54.389355,54.9127789 54.9127789,55.4362028 54.9127789,56.0811359" id="Fill-993" fill="#077CA0"></path>
                    <path id="Stroke-994" stroke="#0096E6" stroke-width="2"></path>
                    <path d="M33.8823529,17.525355 L33.8823529,1.31790669 C33.8823529,0.590020284 33.2923327,0 32.5644462,0 L29.3584746,0 C28.6305882,0 28.040568,0.590020284 28.040568,1.31790669 L28.040568,18.4787343 C29.8818986,17.8676836 31.8424016,17.525355 33.8823529,17.525355" id="Fill-995" fill="#2F4149"></path>
                    <path d="M56.0811359,18.9086897 L56.0811359,1.31790669 C56.0811359,0.590020284 55.4911156,0 54.7632292,0 L51.5572576,0 C50.8293712,0 50.2393509,0.590020284 50.2393509,1.31790669 L50.2393509,17.5849412 C52.2909858,17.7134604 54.2573306,18.1644462 56.0811359,18.9086897" id="Fill-996" fill="#2F4149"></path>
                    <path d="M12.851927,24.535497 L8.17849899,24.535497 L8.17849899,20.5677566 C8.17849899,20.1786937 8.49512373,19.862069 8.88418661,19.862069 L12.1462394,19.862069 C12.5353022,19.862069 12.851927,20.1786937 12.851927,20.5677566 L12.851927,24.535497" id="Fill-997" fill="#546E7A"></path>
                    <path d="M61.9229209,52.9908316 L53.7339067,60.3631643 L45.5659229,53.2139878 L45.5659229,56.3194807 L52.926572,62.7606329 L53.8110183,63.4371116 L61.9229209,56.1348803 L61.9229209,52.9908316" id="Fill-1024" fill="#D3D3D3"></path>
                    <path d="M37.3874239,53.4721947 L29.2042515,60.3958783 L21.030426,53.5866937 L21.030426,56.627927 L28.3910751,62.7606329 L29.2521542,63.4160811 L37.3874239,56.5321217 L37.3874239,53.4721947" id="Fill-1025" fill="#D3D3D3"></path>
                    <path d="M33.8823529,38.5557809 L50.2393509,38.5557809 L50.2393509,40.8924949 L33.8823529,40.8924949 L33.8823529,38.5557809 Z" id="Fill-1026" fill="#2F4149"></path>
                    <path d="M15.4526897,33.228073 C16.8056471,37.0380852 20.7138012,39.6423529 24.1546126,40.8282353 C24.2807951,40.8714645 24.4093144,40.8924949 24.535497,40.8924949 C25.0203651,40.8924949 25.4736876,40.5887221 25.6395943,40.1050223 C25.8498986,39.49514 25.5262637,38.8303448 24.9163813,38.6200406 C21.4019635,37.407286 17.2975254,34.5214442 17.2975254,30.3772819 L17.2975254,27.6491684 C16.4013955,29.3713266 15.7751562,31.2488763 15.4526897,33.228073" id="Fill-1027" fill="#2F4149"></path>
                    <path d="M67.5333712,33.4372089 C67.2225882,31.382069 66.583497,29.4320811 65.6558215,27.6491684 L65.6558215,30.3772819 C65.6558215,34.1452333 63.2443327,37.2261907 59.2053225,38.6200406 C58.5954402,38.8303448 58.2718053,39.49514 58.4821095,40.1050223 C58.6491846,40.5887221 59.1013387,40.8924949 59.5862069,40.8924949 C59.7123895,40.8924949 59.8409087,40.8714645 59.9670913,40.8282353 C63.8063124,39.5044868 66.5087221,36.7962353 67.5333712,33.4372089" id="Fill-1028" fill="#2F4149"></path>
                    <path d="M24.535497,42.0608519 L28.9764219,46.5017769 C29.1049412,46.6302961 29.3129087,46.6302961 29.4402596,46.5017769 L33.8823529,42.0608519 L33.8823529,17.525355 C30.4800974,17.525355 27.2916511,18.4623773 24.535497,20.0676998 L24.535497,42.0608519" id="Fill-1029" fill="#2F4149"></path>
                    <path d="M50.2393509,17.5849412 L50.2393509,42.0608519 L54.6802759,46.5017769 C54.8087951,46.6302961 55.0167627,46.6302961 55.1441136,46.5017769 L59.5862069,42.0608519 L59.5862069,20.7909128 C56.8884706,18.942572 53.6848357,17.8010872 50.2393509,17.5849412" id="Fill-1030" fill="#2F4149"></path>
                    <path d="M30.3772819,22.198783 C30.3772819,22.843716 29.853858,23.36714 29.2089249,23.36714 C28.5639919,23.36714 28.040568,22.843716 28.040568,22.198783 C28.040568,21.5538499 28.5639919,21.030426 29.2089249,21.030426 C29.853858,21.030426 30.3772819,21.5538499 30.3772819,22.198783" id="Fill-1031" fill="#077CA0"></path>
                    <path d="M30.3772819,26.872211 C30.3772819,27.517144 29.853858,28.040568 29.2089249,28.040568 C28.5639919,28.040568 28.040568,27.517144 28.040568,26.872211 C28.040568,26.2272779 28.5639919,25.703854 29.2089249,25.703854 C29.853858,25.703854 30.3772819,26.2272779 30.3772819,26.872211" id="Fill-1032" fill="#077CA0"></path>
                    <path d="M23.36714,29.2089249 L35.0507099,29.2089249 L35.0507099,38.5557809 L23.36714,38.5557809 L23.36714,29.2089249 Z M25.703854,36.2190669 L32.7139959,36.2190669 L32.7139959,31.5456389 L25.703854,31.5456389 L25.703854,36.2190669 Z" id="Fill-1033" fill="#D3D3D3"></path>
                    <path d="M29.2089249,35.0507099 C28.5639919,35.0507099 28.040568,34.527286 28.040568,33.8823529 L28.040568,30.3772819 C28.040568,29.7323489 28.5639919,29.2089249 29.2089249,29.2089249 C29.853858,29.2089249 30.3772819,29.7323489 30.3772819,30.3772819 L30.3772819,33.8823529 C30.3772819,34.527286 29.853858,35.0507099 29.2089249,35.0507099" id="Fill-1034" fill="#F8F8F8"></path>
                    <path d="M56.0811359,22.198783 C56.0811359,22.843716 55.557712,23.36714 54.9127789,23.36714 C54.2678458,23.36714 53.7444219,22.843716 53.7444219,22.198783 C53.7444219,21.5538499 54.2678458,21.030426 54.9127789,21.030426 C55.557712,21.030426 56.0811359,21.5538499 56.0811359,22.198783" id="Fill-1035" fill="#077CA0"></path>
                    <path d="M56.0811359,26.872211 C56.0811359,27.517144 55.557712,28.040568 54.9127789,28.040568 C54.2678458,28.040568 53.7444219,27.517144 53.7444219,26.872211 C53.7444219,26.2272779 54.2678458,25.703854 54.9127789,25.703854 C55.557712,25.703854 56.0811359,26.2272779 56.0811359,26.872211" id="Fill-1036" fill="#077CA0"></path>
                    <path d="M49.0709939,29.2089249 L60.7545639,29.2089249 L60.7545639,38.5557809 L49.0709939,38.5557809 L49.0709939,29.2089249 Z M51.4077079,36.2190669 L58.4178499,36.2190669 L58.4178499,31.5456389 L51.4077079,31.5456389 L51.4077079,36.2190669 Z" id="Fill-1037" fill="#D3D3D3"></path>
                    <path d="M54.9127789,35.0507099 C54.2678458,35.0507099 53.7444219,34.527286 53.7444219,33.8823529 L53.7444219,30.3772819 C53.7444219,29.7323489 54.2678458,29.2089249 54.9127789,29.2089249 C55.557712,29.2089249 56.0811359,29.7323489 56.0811359,30.3772819 L56.0811359,33.8823529 C56.0811359,34.527286 55.557712,35.0507099 54.9127789,35.0507099" id="Fill-1038" fill="#F8F8F8"></path>
                </g>
            </g>
        </g>
    </g>
</svg>