<?xml version="1.0" encoding="UTF-8" standalone="no"?>
<svg width="28px" height="26px" viewBox="0 0 28 26" version="1.1" xmlns="http://www.w3.org/2000/svg" xmlns:xlink="http://www.w3.org/1999/xlink" xmlns:sketch="http://www.bohemiancoding.com/sketch/ns">
    <!-- Generator: Sketch 3.4.4 (17249) - http://www.bohemiancoding.com/sketch -->
    <title>love</title>
    <desc>Created with Sketch.</desc>
    <defs></defs>
    <g id="Style-Inventory" stroke="none" stroke-width="1" fill="none" fill-rule="evenodd" sketch:type="MSPage">
        <g id="Home" sketch:type="MSArtboardGroup" transform="translate(-707.000000, -1641.000000)">
            <g id="Source-Sans-Pro-Ligh-+-Fill-3918-+-Fill-3920" sketch:type="MSLayerGroup" transform="translate(228.000000, 1639.000000)">
                <g id="love" transform="translate(479.000000, 2.000000)" sketch:type="MSShapeGroup">
                    <path d="M13.9192308,4.69745745 C15.0063846,2.11514628 17.4881538,0.310821809 20.3759231,0.310821809 C24.2652308,0.310821809 27.0663077,3.64682447 27.4184615,7.62260106 C27.4184615,7.62260106 27.6085385,8.61006649 27.1901538,10.3868564 C26.6204615,12.8061197 25.2818462,14.956516 23.4758462,16.5967128 L13.9192308,25.1453883 L4.52415385,16.5961729 C2.71815385,14.9559761 1.37953846,12.8061197 0.809846154,10.3857766 C0.391461538,8.6095266 0.581538462,7.62206117 0.581538462,7.62206117 C0.933692308,3.64628457 3.73476923,0.310281915 7.62407692,0.310281915 C10.5118462,0.310281915 12.8326154,2.11514628 13.9192308,4.69745745" id="Fill-3918" fill="#D0021B"></path>
                    <path d="M3.76923077,9.99069149 C3.47146154,9.99069149 3.23076923,9.74935904 3.23076923,9.45079787 C3.23076923,6.47382447 5.64630769,4.0518617 8.61538462,4.0518617 C8.91315385,4.0518617 9.15384615,4.29319415 9.15384615,4.59175532 C9.15384615,4.89031649 8.91315385,5.13164894 8.61538462,5.13164894 C6.24023077,5.13164894 4.30769231,7.06932713 4.30769231,9.45079787 C4.30769231,9.74935904 4.067,9.99069149 3.76923077,9.99069149" id="Fill-3920" fill="#E14F61"></path>
                </g>
            </g>
        </g>
    </g>
</svg>