<?xml version="1.0" encoding="UTF-8" standalone="no"?>
<svg width="120px" height="100px" viewBox="0 0 120 100" version="1.1" xmlns="http://www.w3.org/2000/svg" xmlns:xlink="http://www.w3.org/1999/xlink" xmlns:sketch="http://www.bohemiancoding.com/sketch/ns">
    <!-- Generator: Sketch 3.4.4 (17249) - http://www.bohemiancoding.com/sketch -->
    <title>multilingual</title>
    <desc>Created with Sketch.</desc>
    <defs></defs>
    <g id="Style-Inventory" stroke="none" stroke-width="1" fill="none" fill-rule="evenodd" sketch:type="MSPage">
        <g id="Features" sketch:type="MSArtboardGroup" transform="translate(-254.000000, -1534.000000)">
            <g id="multilingual" sketch:type="MSLayerGroup" transform="translate(254.000000, 1534.000000)">
                <g id="feature-3" transform="translate(26.000000, 15.000000)" sketch:type="MSShapeGroup">
                    <g id="Group">
                        <path d="M67.3333333,56.0731299 L0.666666667,56.0731299 L0.666666667,4.92715293 C0.666666667,2.703015 2.46896552,0.900716146 4.69310345,0.900716146 L63.3068966,0.900716146 C65.5310345,0.900716146 67.3333333,2.703015 67.3333333,4.92715293 L67.3333333,56.0731299" id="Fill-1531" fill="#D3D3D3"></path>
                        <path d="M0.666666667,56.0731299 L0.666666667,63.540946 C0.666666667,65.765084 2.46896552,67.5673828 4.69310345,67.5673828 L63.3068966,67.5673828 C65.5310345,67.5673828 67.3333333,65.765084 67.3333333,63.540946 L67.3333333,56.0731299 L0.666666667,56.0731299" id="Fill-1532" fill="#546E7A"></path>
                        <path d="M53.5402299,28.486923 C53.5402299,42.4524403 42.2183908,53.7742794 28.2528736,53.7742794 C14.2873563,53.7742794 2.96551724,42.4524403 2.96551724,28.486923 C2.96551724,14.5214058 14.2873563,3.19956672 28.2528736,3.19956672 C42.2183908,3.19956672 53.5402299,14.5214058 53.5402299,28.486923" id="Fill-1533" fill="#2F4149"></path>
                        <path d="M44.6988506,40.9742794 L50.1264368,35.5466932 C50.8436782,33.3214058 51.2413793,30.9512909 51.2413793,28.486923 C51.2413793,15.7903713 40.9494253,5.4984173 28.2528736,5.4984173 C15.5563218,5.4984173 5.26436782,15.7903713 5.26436782,28.486923 C5.26436782,41.1834748 15.5563218,51.4754288 28.2528736,51.4754288 C35.6103448,51.4754288 42.1448276,48.0064633 46.3517241,42.6283024 L44.6988506,40.9742794" id="Fill-1534" fill="#546E7A"></path>
                        <path d="M59.2873563,53.7742794 C58.6517241,53.7742794 58.137931,53.2593368 58.137931,52.6248541 L58.137931,46.8777276 C58.137931,46.2432449 58.6517241,45.7283024 59.2873563,45.7283024 C59.9229885,45.7283024 60.4367816,46.2432449 60.4367816,46.8777276 L60.4367816,52.6248541 C60.4367816,53.2593368 59.9229885,53.7742794 59.2873563,53.7742794" id="Fill-1636" fill="#2F4149"></path>
                        <path d="M59.2873563,44.5788771 C58.6517241,44.5788771 58.137931,44.0639345 58.137931,43.4294518 L58.137931,39.9811759 C58.137931,39.3466932 58.6517241,38.8317506 59.2873563,38.8317506 C59.9229885,38.8317506 60.4367816,39.3466932 60.4367816,39.9811759 L60.4367816,43.4294518 C60.4367816,44.0639345 59.9229885,44.5788771 59.2873563,44.5788771" id="Fill-1637" fill="#2F4149"></path>
                        <path d="M62.7356322,8.94669316 C62.7356322,10.8512909 61.191954,12.394969 59.2873563,12.394969 C57.3827586,12.394969 55.8390805,10.8512909 55.8390805,8.94669316 C55.8390805,7.04209546 57.3827586,5.4984173 59.2873563,5.4984173 C61.191954,5.4984173 62.7356322,7.04209546 62.7356322,8.94669316" id="Fill-1638" fill="#2F4149"></path>
                        <path d="M28.2528736,18.1420955 C22.5390805,18.1420955 17.908046,22.7742794 17.908046,28.486923 C17.908046,34.1995667 22.5390805,38.8317506 28.2528736,38.8317506 C33.9666667,38.8317506 38.5977011,34.1995667 38.5977011,28.486923 C38.5977011,22.7742794 33.9666667,18.1420955 28.2528736,18.1420955 L28.2528736,18.1420955 Z M28.2528736,33.0846242 C25.7137931,33.0846242 23.6551724,31.0260035 23.6551724,28.486923 C23.6551724,25.9478426 25.7137931,23.8892219 28.2528736,23.8892219 C30.791954,23.8892219 32.8505747,25.9478426 32.8505747,28.486923 C32.8505747,31.0260035 30.791954,33.0846242 28.2528736,33.0846242 L28.2528736,33.0846242 Z" id="Fill-1639" fill="#3AB0D5"></path>
                        <path d="M55.8390805,43.4294518 L62.7356322,43.4294518 L62.7356322,46.8777276 L55.8390805,46.8777276 L55.8390805,43.4294518 Z" id="Fill-1894" fill="#FFFFFF"></path>
                        <path d="M52.0137931,36.9099115 L59.2873563,29.6363483 L59.2873563,8.94669316" id="Stroke-1896" stroke="#464F5D" stroke-width="1.71999991" stroke-linecap="round"></path>
                        <path d="M47.9494253,44.2248541 L44.6988506,40.9742794 L50.3873563,35.2846242 L53.6390805,38.5363483 L47.9494253,44.2248541" id="Fill-2070" fill="#FFFFFF"></path>
                        <path d="M32.8505747,28.486923 C32.8505747,31.0260035 30.791954,33.0846242 28.2528736,33.0846242 C25.7137931,33.0846242 23.6551724,31.0260035 23.6551724,28.486923 C23.6551724,25.9478426 25.7137931,23.8892219 28.2528736,23.8892219 C30.791954,23.8892219 32.8505747,25.9478426 32.8505747,28.486923" id="Fill-2072" fill="#2F4149"></path>
                        <path d="M21.1724138,64.119107 L20.0229885,62.9696817 L20.0229885,60.6708311 L21.1724138,59.5214058 L23.4712644,59.5214058 L24.6206897,60.6708311 L24.6206897,62.9696817 L23.4712644,64.119107 L21.1724138,64.119107" id="Fill-1622" fill="#FFFFFF"></path>
                        <path d="M29.2183908,64.119107 L28.0689655,62.9696817 L28.0689655,60.6708311 L29.2183908,59.5214058 L31.5172414,59.5214058 L32.6666667,60.6708311 L32.6666667,62.9696817 L31.5172414,64.119107 L29.2183908,64.119107" id="Fill-1623" fill="#FFFFFF"></path>
                        <path d="M37.1494253,64.119107 L36,62.9696817 L36,60.6708311 L37.1494253,59.5214058 L39.4482759,59.5214058 L40.5977011,60.6708311 L40.5977011,62.9696817 L39.4482759,64.119107 L37.1494253,64.119107" id="Fill-1620" fill="#FFFFFF"></path>
                        <path d="M45.1494253,64.119107 L44,62.9696817 L44,60.6708311 L45.1494253,59.5214058 L47.4482759,59.5214058 L48.5977011,60.6708311 L48.5977011,62.9696817 L47.4482759,64.119107 L45.1494253,64.119107" id="Fill-1621" fill="#FFFFFF"></path>
                    </g>
                </g>
                <rect id="Rectangle-273" fill-opacity="0.01" fill="#FFFFFF" sketch:type="MSShapeGroup" x="0" y="0" width="120" height="100"></rect>
            </g>
        </g>
    </g>
</svg>