<?xml version="1.0" encoding="UTF-8" standalone="no"?>
<svg width="25px" height="28px" viewBox="0 0 25 28" version="1.1" xmlns="http://www.w3.org/2000/svg" xmlns:xlink="http://www.w3.org/1999/xlink" xmlns:sketch="http://www.bohemiancoding.com/sketch/ns">
    <!-- Generator: Sketch 3.3.3 (12072) - http://www.bohemiancoding.com/sketch -->
    <title>need-help</title>
    <desc>Created with Sketch.</desc>
    <defs></defs>
    <g id="Page-1" stroke="none" stroke-width="1" fill="none" fill-rule="evenodd" sketch:type="MSPage">
        <g id="Get-Started" sketch:type="MSArtboardGroup" transform="translate(-340.000000, -2019.000000)">
            <g id="Group" sketch:type="MSLayerGroup" transform="translate(300.000000, 1984.000000)">
                <g id="need-help" transform="translate(40.000000, 35.173077)" sketch:type="MSShapeGroup">
                    <path d="M16.9615385,7.53846154 C11.8575288,6.75304808 9.89423077,9.42307692 9.89423077,9.42307692 C6.24278846,9.06971154 4.71153846,8.00961538 4.71153846,8.00961538 C3.92188462,8.92742308 3.01821154,9.40234615 2.35576923,9.64640385 L2.35576923,23.5576923 C2.35576923,24.5942308 3.20384615,25.4423077 4.24038462,25.4423077 L20.2596154,25.4423077 C21.2961538,25.4423077 22.1442308,24.5942308 22.1442308,23.5576923 L22.1442308,8.48076923 C18.3358942,10.71875 16.9615385,7.53846154 16.9615385,7.53846154" id="Fill-440" fill="#FFDB2B"></path>
                    <path d="M14.1346154,21.529375 C14.1346154,22.5701538 13.2907788,23.4139904 12.25,23.4139904 C11.2092212,23.4139904 10.3653846,22.5701538 10.3653846,21.529375 C10.3653846,20.488125 11.2092212,19.6447596 12.25,19.6447596 C13.2907788,19.6447596 14.1346154,20.488125 14.1346154,21.529375" id="Fill-529" fill="#F29C1F"></path>
                    <path d="M12.25,23.8846731 C10.9510288,23.8846731 9.89423077,22.827875 9.89423077,21.5289038 C9.89423077,20.2299327 10.9510288,19.1731346 12.25,19.1731346 C13.5489712,19.1731346 14.6057692,20.2299327 14.6057692,21.5289038 C14.6057692,22.827875 13.5489712,23.8846731 12.25,23.8846731 L12.25,23.8846731 Z M12.25,20.1154423 C11.4707115,20.1154423 10.8365385,20.7496154 10.8365385,21.5289038 C10.8365385,22.3081923 11.4707115,22.9423654 12.25,22.9423654 C13.0292885,22.9423654 13.6634615,22.3081923 13.6634615,21.5289038 C13.6634615,20.7496154 13.0292885,20.1154423 12.25,20.1154423 L12.25,20.1154423 Z" id="Fill-530" fill="#F0C419"></path>
                    <path d="M19.3173077,14.1346154 C19.3173077,15.6960192 18.0517885,16.9615385 16.4903846,16.9615385 C14.9289808,16.9615385 13.6634615,15.6960192 13.6634615,14.1346154 C13.6634615,12.5732115 14.9289808,11.3076923 16.4903846,11.3076923 C18.0517885,11.3076923 19.3173077,12.5732115 19.3173077,14.1346154" id="Fill-535" fill="#FFFFFF"></path>
                    <path d="M17.4326923,14.1346154 C17.4326923,14.6547692 17.0110096,15.0769231 16.4903846,15.0769231 C15.9697596,15.0769231 15.5480769,14.6547692 15.5480769,14.1346154 C15.5480769,13.6139904 15.9697596,13.1923077 16.4903846,13.1923077 C17.0110096,13.1923077 17.4326923,13.6139904 17.4326923,14.1346154" id="Fill-536" fill="#34495E"></path>
                    <path d="M10.8365385,14.1346154 C10.8365385,15.6960192 9.57101923,16.9615385 8.00961538,16.9615385 C6.44821154,16.9615385 5.18269231,15.6960192 5.18269231,14.1346154 C5.18269231,12.5732115 6.44821154,11.3076923 8.00961538,11.3076923 C9.57101923,11.3076923 10.8365385,12.5732115 10.8365385,14.1346154" id="Fill-537" fill="#FFFFFF"></path>
                    <path d="M8.95192308,14.1346154 C8.95192308,14.6547692 8.53024038,15.0769231 8.00961538,15.0769231 C7.48899038,15.0769231 7.06730769,14.6547692 7.06730769,14.1346154 C7.06730769,13.6139904 7.48899038,13.1923077 8.00961538,13.1923077 C8.53024038,13.1923077 8.95192308,13.6139904 8.95192308,14.1346154" id="Fill-538" fill="#34495E"></path>
                    <path d="M17.7601442,27.3269231 L6.73985577,27.3269231 C6.40015385,27.3269231 6.125,27.0517692 6.125,26.7120673 L6.125,25.4423077 L18.375,25.4423077 L18.375,26.7120673 C18.375,27.0517692 18.0998462,27.3269231 17.7601442,27.3269231" id="Fill-562" fill="#FEC722"></path>
                    <path d="M24.0288462,8.48076923 C23.7367308,6.36670192 22.8104423,4.95653846 21.9223173,4.22436538 C21.4907404,3.86864423 21.2443269,3.35178846 21.1048654,2.81043269 C20.7284135,1.34891346 19.3436923,0.569153846 17.9038462,0.471153846 C16.9865096,0.408490385 16.1860192,0.698721154 15.2705673,1.06527885 C14.9831635,1.18071154 14.6335673,1.06056731 14.5242596,0.770336538 C13.9617019,-0.723692308 10.7394808,0.0424038462 8.28194231,2.53716346 C8.16415385,2.65683654 7.95967308,2.59605769 7.93658654,2.42974038 C7.85507692,1.85022115 7.81267308,0.805201923 8.48076923,0.471153846 C8.48076923,0.471153846 6.40439423,-0.696836538 4.624375,0.860326923 C4.08113462,1.33477885 3.72682692,1.98779808 3.54543269,2.68604808 C3.50208654,2.85330769 3.45826923,3.031875 3.41869231,3.20761538 C3.30938462,3.69431731 2.68510577,3.86016346 2.36425,3.47758654 C2.358125,3.47004808 2.35152885,3.46203846 2.34493269,3.45402885 C2.04480769,3.08747115 1.46811538,3.14448077 1.28059615,3.57982692 C0.281278846,5.89884615 -1.267875,11.0989712 2.35576923,15.5480769 L2.35576923,9.64640385 C3.01821154,9.40234615 3.92188462,8.92742308 4.71153846,8.00961538 C4.71153846,8.00961538 6.24278846,9.06971154 9.89423077,9.42307692 C9.89423077,9.42307692 11.8575288,6.75304808 16.9615385,7.53846154 C16.9615385,7.53846154 18.3358942,10.71875 22.1442308,8.48076923 L22.1442308,15.5480769 C22.1442308,15.5480769 24.6658462,13.0910096 24.0288462,8.48076923" id="Fill-565" fill="#4A4A4A"></path>
                </g>
            </g>
        </g>
    </g>
</svg>