<?xml version="1.0" encoding="UTF-8" standalone="no"?>
<svg width="35px" height="39px" viewBox="0 0 35 39" version="1.1" xmlns="http://www.w3.org/2000/svg" xmlns:xlink="http://www.w3.org/1999/xlink" xmlns:sketch="http://www.bohemiancoding.com/sketch/ns">
    <!-- Generator: Sketch 3.3.3 (12072) - http://www.bohemiancoding.com/sketch -->
    <title>notifications+</title>
    <desc>Created with Sketch.</desc>
    <defs></defs>
    <g id="Page-1" stroke="none" stroke-width="1" fill="none" fill-rule="evenodd" sketch:type="MSPage">
        <g id="Home" sketch:type="MSArtboardGroup" transform="translate(-775.000000, -1267.000000)">
            <g id="notifications+" sketch:type="MSLayerGroup" transform="translate(775.000000, 1267.370370)">
                <path d="M29.1666667,30.462963 L7.12962963,30.462963 L7.12962963,16.2037037 C7.12962963,10.1182407 12.0626852,5.18518519 18.1481481,5.18518519 C24.2336111,5.18518519 29.1666667,10.1182407 29.1666667,16.2037037 L29.1666667,30.462963" id="Fill-1223" fill="#E64C3C" sketch:type="MSShapeGroup"></path>
                <path d="M5.18518519,30.462963 L31.1111111,30.462963 L31.1111111,38.2407407 L5.18518519,38.2407407 L5.18518519,30.462963 Z" id="Fill-1244" fill="#556080" sketch:type="MSShapeGroup"></path>
                <path d="M30.0047222,2.7825 L28.0602778,4.72694444 C27.8068519,4.98037037 27.8068519,5.39 28.0602778,5.64342593 C28.1866667,5.76981481 28.3525926,5.83333333 28.5185185,5.83333333 C28.6844444,5.83333333 28.8503704,5.76981481 28.9767593,5.64342593 L30.9212037,3.69898148 C31.1746296,3.44555556 31.1746296,3.03592593 30.9212037,2.7825 C30.6677778,2.52907407 30.2581481,2.52907407 30.0047222,2.7825" id="Fill-1245" fill="#F0C419" sketch:type="MSShapeGroup"></path>
                <path d="M17.5,0 C17.1415741,0 16.8518519,0.289722222 16.8518519,0.648148148 L16.8518519,2.59259259 C16.8518519,2.95101852 17.1415741,3.24074074 17.5,3.24074074 C17.8584259,3.24074074 18.1481481,2.95101852 18.1481481,2.59259259 L18.1481481,0.648148148 C18.1481481,0.289722222 17.8584259,0 17.5,0" id="Fill-1246" fill="#F0C419" sketch:type="MSShapeGroup"></path>
                <path d="M32.4074074,15.5555556 L34.3518519,15.5555556 C34.7102778,15.5555556 35,15.2658333 35,14.9074074 C35,14.5489815 34.7102778,14.2592593 34.3518519,14.2592593 L32.4074074,14.2592593 C32.0489815,14.2592593 31.7592593,14.5489815 31.7592593,14.9074074 C31.7592593,15.2658333 32.0489815,15.5555556 32.4074074,15.5555556" id="Fill-1247" fill="#F0C419" sketch:type="MSShapeGroup"></path>
                <path d="M34.3518519,24.6296296 L32.4074074,24.6296296 C32.0489815,24.6296296 31.7592593,24.9193519 31.7592593,25.2777778 C31.7592593,25.6362037 32.0489815,25.9259259 32.4074074,25.9259259 L34.3518519,25.9259259 C34.7102778,25.9259259 35,25.6362037 35,25.2777778 C35,24.9193519 34.7102778,24.6296296 34.3518519,24.6296296" id="Fill-1248" fill="#F0C419" sketch:type="MSShapeGroup"></path>
                <path d="M4.99527778,2.7825 C4.74185185,2.52907407 4.33222222,2.52907407 4.0787963,2.7825 C3.82537037,3.03592593 3.82537037,3.44555556 4.0787963,3.69898148 L6.02324074,5.64342593 C6.14962963,5.76981481 6.31555556,5.83333333 6.48148148,5.83333333 C6.64740741,5.83333333 6.81333333,5.76981481 6.93972222,5.64342593 C7.19314815,5.39 7.19314815,4.98037037 6.93972222,4.72694444 L4.99527778,2.7825" id="Fill-1249" fill="#F0C419" sketch:type="MSShapeGroup"></path>
                <path d="M2.59259259,14.2592593 L0.648148148,14.2592593 C0.289722222,14.2592593 0,14.5489815 0,14.9074074 C0,15.2658333 0.289722222,15.5555556 0.648148148,15.5555556 L2.59259259,15.5555556 C2.95101852,15.5555556 3.24074074,15.2658333 3.24074074,14.9074074 C3.24074074,14.5489815 2.95101852,14.2592593 2.59259259,14.2592593" id="Fill-1250" fill="#F0C419" sketch:type="MSShapeGroup"></path>
                <path d="M2.59259259,24.6296296 L0.648148148,24.6296296 C0.289722222,24.6296296 0,24.9193519 0,25.2777778 C0,25.6362037 0.289722222,25.9259259 0.648148148,25.9259259 L2.59259259,25.9259259 C2.95101852,25.9259259 3.24074074,25.6362037 3.24074074,25.2777778 C3.24074074,24.9193519 2.95101852,24.6296296 2.59259259,24.6296296" id="Fill-1251" fill="#F0C419" sketch:type="MSShapeGroup"></path>
                <path d="M18.1481481,5.18518519 C12.0626852,5.18518519 7.12962963,10.1182407 7.12962963,16.2037037 L7.12962963,30.462963 L18.1481481,30.462963 L18.1481481,5.18518519" id="Fill-1252" fill="#FF5364" sketch:type="MSShapeGroup"></path>
                <path d="M5.18518519,30.462963 L18.1481481,30.462963 L18.1481481,38.2407407 L5.18518519,38.2407407 L5.18518519,30.462963 Z" id="Fill-1253" fill="#8697CB" sketch:type="MSShapeGroup"></path>
            </g>
        </g>
    </g>
</svg>