<?xml version="1.0" encoding="UTF-8" standalone="no"?>
<svg width="75px" height="75px" viewBox="0 0 75 75" version="1.1" xmlns="http://www.w3.org/2000/svg" xmlns:xlink="http://www.w3.org/1999/xlink" xmlns:sketch="http://www.bohemiancoding.com/sketch/ns">
    <!-- Generator: Sketch 3.3.3 (12072) - http://www.bohemiancoding.com/sketch -->
    <title>notifications</title>
    <desc>Created with Sketch.</desc>
    <defs></defs>
    <g id="Page-1" stroke="none" stroke-width="1" fill="none" fill-rule="evenodd" sketch:type="MSPage">
        <g id="Home" sketch:type="MSArtboardGroup" transform="translate(-723.000000, -1255.000000)">
            <g id="notifications" sketch:type="MSLayerGroup" transform="translate(723.000000, 1254.370370)">
                <circle id="Oval-51-Copy-3" fill="#FFFFFF" sketch:type="MSShapeGroup" cx="37.5" cy="38.1296296" r="37.5"></circle>
                <path d="M50.8789032,41.745945 L23.9769819,41.745945 L23.9769819,24.3388194 C23.9769819,16.909933 29.9990561,10.8878588 37.4279425,10.8878588 C44.856829,10.8878588 50.8789032,16.909933 50.8789032,24.3388194 L50.8789032,41.745945" id="Fill-1223" fill="#D0011B" sketch:type="MSShapeGroup"></path>
                <path d="M21.6032829,41.745945 L53.2526021,41.745945 L53.2526021,51.2407407 L21.6032829,51.2407407 L21.6032829,41.745945 Z" id="Fill-1244" fill="#556080" sketch:type="MSShapeGroup"></path>
                <path d="M51.9019674,7.95475814 L49.5282685,10.3284571 C49.2188964,10.6378292 49.2188964,11.1378884 49.5282685,11.4472605 C49.6825589,11.6015509 49.8851146,11.6790918 50.0876702,11.6790918 C50.2902258,11.6790918 50.4927815,11.6015509 50.6470719,11.4472605 L53.0207709,9.07356157 C53.330143,8.76418947 53.330143,8.26413023 53.0207709,7.95475814 C52.7113988,7.64538604 52.2113395,7.64538604 51.9019674,7.95475814" id="Fill-1245" fill="#E14F61" sketch:type="MSShapeGroup"></path>
                <path d="M36.6367096,4.55799496 C36.1991577,4.55799496 35.8454766,4.9116761 35.8454766,5.34922793 L35.8454766,7.72292687 C35.8454766,8.16047871 36.1991577,8.51415985 36.6367096,8.51415985 C37.0742614,8.51415985 37.4279425,8.16047871 37.4279425,7.72292687 L37.4279425,5.34922793 C37.4279425,4.9116761 37.0742614,4.55799496 36.6367096,4.55799496" id="Fill-1246" fill="#E14F61" sketch:type="MSShapeGroup"></path>
                <path d="M54.8350681,23.5475865 L57.208767,23.5475865 C57.6463189,23.5475865 58,23.1939053 58,22.7563535 C58,22.3188016 57.6463189,21.9651205 57.208767,21.9651205 L54.8350681,21.9651205 C54.3975162,21.9651205 54.0438351,22.3188016 54.0438351,22.7563535 C54.0438351,23.1939053 54.3975162,23.5475865 54.8350681,23.5475865" id="Fill-1247" fill="#E14F61" sketch:type="MSShapeGroup"></path>
                <path d="M57.208767,34.6248482 L54.8350681,34.6248482 C54.3975162,34.6248482 54.0438351,34.9785293 54.0438351,35.4160812 C54.0438351,35.853633 54.3975162,36.2073141 54.8350681,36.2073141 L57.208767,36.2073141 C57.6463189,36.2073141 58,35.853633 58,35.4160812 C58,34.9785293 57.6463189,34.6248482 57.208767,34.6248482" id="Fill-1248" fill="#E14F61" sketch:type="MSShapeGroup"></path>
                <path d="M21.3714517,7.95475814 C21.0620796,7.64538604 20.5620203,7.64538604 20.2526483,7.95475814 C19.9432762,8.26413023 19.9432762,8.76418947 20.2526483,9.07356157 L22.6263472,11.4472605 C22.7806376,11.6015509 22.9831933,11.6790918 23.1857489,11.6790918 C23.3883045,11.6790918 23.5908602,11.6015509 23.7451506,11.4472605 C24.0545227,11.1378884 24.0545227,10.6378292 23.7451506,10.3284571 L21.3714517,7.95475814" id="Fill-1249" fill="#E14F61" sketch:type="MSShapeGroup"></path>
                <path d="M18.438351,21.9651205 L16.0646521,21.9651205 C15.6271003,21.9651205 15.2734191,22.3188016 15.2734191,22.7563535 C15.2734191,23.1939053 15.6271003,23.5475865 16.0646521,23.5475865 L18.438351,23.5475865 C18.8759029,23.5475865 19.229584,23.1939053 19.229584,22.7563535 C19.229584,22.3188016 18.8759029,21.9651205 18.438351,21.9651205" id="Fill-1250" fill="#E14F61" sketch:type="MSShapeGroup"></path>
                <path d="M18.438351,34.6248482 L16.0646521,34.6248482 C15.6271003,34.6248482 15.2734191,34.9785293 15.2734191,35.4160812 C15.2734191,35.853633 15.6271003,36.2073141 16.0646521,36.2073141 L18.438351,36.2073141 C18.8759029,36.2073141 19.229584,35.853633 19.229584,35.4160812 C19.229584,34.9785293 18.8759029,34.6248482 18.438351,34.6248482" id="Fill-1251" fill="#E14F61" sketch:type="MSShapeGroup"></path>
                <path d="M37.4279425,10.8878588 C29.9990561,10.8878588 23.9769819,16.909933 23.9769819,24.3388194 L23.9769819,41.745945 L37.4279425,41.745945 L37.4279425,10.8878588" id="Fill-1252" fill="#E24F61" sketch:type="MSShapeGroup"></path>
                <path d="M21.6032829,41.745945 L37.4279425,41.745945 L37.4279425,51.2407407 L21.6032829,51.2407407 L21.6032829,41.745945 Z" id="Fill-1253" fill="#8697CB" sketch:type="MSShapeGroup"></path>
            </g>
        </g>
    </g>
</svg>