<?xml version="1.0" encoding="UTF-8" standalone="no"?>
<svg width="122px" height="100px" viewBox="0 0 122 100" version="1.1" xmlns="http://www.w3.org/2000/svg" xmlns:xlink="http://www.w3.org/1999/xlink" xmlns:sketch="http://www.bohemiancoding.com/sketch/ns">
    <!-- Generator: Sketch 3.4.4 (17249) - http://www.bohemiancoding.com/sketch -->
    <title>notifications</title>
    <desc>Created with Sketch.</desc>
    <defs></defs>
    <g id="Style-Inventory" stroke="none" stroke-width="1" fill="none" fill-rule="evenodd" sketch:type="MSPage">
        <g id="Features" sketch:type="MSArtboardGroup" transform="translate(-1060.000000, -685.000000)">
            <g id="notifications" sketch:type="MSLayerGroup" transform="translate(1060.000000, 685.000000)">
                <rect id="Rectangle-204" fill-opacity="0.01" fill="#FFFFFF" sketch:type="MSShapeGroup" x="0" y="-6.82121026e-13" width="121.428571" height="100"></rect>
                <g id="Group" transform="translate(25.411765, 12.705882)" sketch:type="MSShapeGroup">
                    <path d="M55.2573482,57.7290923 L13.8255122,57.7290923 L13.8255122,31.1064297 C13.8255122,19.7446034 23.1001506,10.5343723 34.5414302,10.5343723 C45.9827099,10.5343723 55.2573482,19.7446034 55.2573482,31.1064297 L55.2573482,57.7290923" id="Fill-1223" fill="#3AB0D5"></path>
                    <path d="M10.169762,57.7290923 L58.9130985,57.7290923 L58.9130985,72.2505447 L10.169762,72.2505447 L10.169762,57.7290923 Z" id="Fill-1244" fill="#2F4149"></path>
                    <path d="M56.8329766,6.04845362 L53.1772263,9.6788167 C52.7007602,10.151974 52.7007602,10.9167705 53.1772263,11.3899278 C53.4148501,11.6259014 53.7268075,11.7444933 54.0387648,11.7444933 C54.3507222,11.7444933 54.6626795,11.6259014 54.9003033,11.3899278 L58.5560535,7.75956475 C59.0325196,7.28640743 59.0325196,6.52161094 58.5560535,6.04845362 C58.0795874,5.5752963 57.3094427,5.5752963 56.8329766,6.04845362" id="Fill-1245" fill="#077CA0"></path>
                    <path d="M33.3228468,0.853404049 C32.6489702,0.853404049 32.1042634,1.39432815 32.1042634,2.06352508 L32.1042634,5.69388816 C32.1042634,6.36308509 32.6489702,6.90400919 33.3228468,6.90400919 C33.9967234,6.90400919 34.5414302,6.36308509 34.5414302,5.69388816 L34.5414302,2.06352508 C34.5414302,1.39432815 33.9967234,0.853404049 33.3228468,0.853404049" id="Fill-1246" fill="#077CA0"></path>
                    <path d="M61.3502653,29.8963087 L65.0060155,29.8963087 C65.6798921,29.8963087 66.2245989,29.3553846 66.2245989,28.6861877 C66.2245989,28.0169907 65.6798921,27.4760667 65.0060155,27.4760667 L61.3502653,27.4760667 C60.6763887,27.4760667 60.1316819,28.0169907 60.1316819,28.6861877 C60.1316819,29.3553846 60.6763887,29.8963087 61.3502653,29.8963087" id="Fill-1247" fill="#077CA0"></path>
                    <path d="M65.0060155,46.8380031 L61.3502653,46.8380031 C60.6763887,46.8380031 60.1316819,47.3789272 60.1316819,48.0481241 C60.1316819,48.717321 60.6763887,49.2582451 61.3502653,49.2582451 L65.0060155,49.2582451 C65.6798921,49.2582451 66.2245989,48.717321 66.2245989,48.0481241 C66.2245989,47.3789272 65.6798921,46.8380031 65.0060155,46.8380031" id="Fill-1248" fill="#077CA0"></path>
                    <path d="M9.81271703,6.04845362 C9.33625092,5.5752963 8.5661062,5.5752963 8.08964009,6.04845362 C7.61317397,6.52161094 7.61317397,7.28640743 8.08964009,7.75956475 L11.7453903,11.3899278 C11.9830141,11.6259014 12.2949714,11.7444933 12.6069288,11.7444933 C12.9188861,11.7444933 13.2308435,11.6259014 13.4684673,11.3899278 C13.9449334,10.9167705 13.9449334,10.151974 13.4684673,9.6788167 L9.81271703,6.04845362" id="Fill-1249" fill="#077CA0"></path>
                    <path d="M5.29542832,27.4760667 L1.63967809,27.4760667 C0.96580146,27.4760667 0.421094674,28.0169907 0.421094674,28.6861877 C0.421094674,29.3553846 0.96580146,29.8963087 1.63967809,29.8963087 L5.29542832,29.8963087 C5.96930495,29.8963087 6.51401174,29.3553846 6.51401174,28.6861877 C6.51401174,28.0169907 5.96930495,27.4760667 5.29542832,27.4760667" id="Fill-1250" fill="#077CA0"></path>
                    <path d="M5.29542832,46.8380031 L1.63967809,46.8380031 C0.96580146,46.8380031 0.421094674,47.3789272 0.421094674,48.0481241 C0.421094674,48.717321 0.96580146,49.2582451 1.63967809,49.2582451 L5.29542832,49.2582451 C5.96930495,49.2582451 6.51401174,48.717321 6.51401174,48.0481241 C6.51401174,47.3789272 5.96930495,46.8380031 5.29542832,46.8380031" id="Fill-1251" fill="#077CA0"></path>
                    <path d="M34.5414302,10.5343723 C23.1001506,10.5343723 13.8255122,19.7446034 13.8255122,31.1064297 L13.8255122,57.7290923 L34.5414302,57.7290923 L34.5414302,10.5343723" id="Fill-1252" fill="#94CADA"></path>
                    <path d="M10.169762,57.7290923 L34.5414302,57.7290923 L34.5414302,72.2505447 L10.169762,72.2505447 L10.169762,57.7290923 Z" id="Fill-1253" fill="#546E7A"></path>
                </g>
            </g>
        </g>
    </g>
</svg>