<?xml version="1.0" encoding="UTF-8" standalone="no"?>
<svg width="120px" height="100px" viewBox="0 0 120 100" version="1.1" xmlns="http://www.w3.org/2000/svg" xmlns:xlink="http://www.w3.org/1999/xlink" xmlns:sketch="http://www.bohemiancoding.com/sketch/ns">
    <!-- Generator: Sketch 3.4.4 (17249) - http://www.bohemiancoding.com/sketch -->
    <title>nukeproof</title>
    <desc>Created with Sketch.</desc>
    <defs></defs>
    <g id="Style-Inventory" stroke="none" stroke-width="1" fill="none" fill-rule="evenodd" sketch:type="MSPage">
        <g id="Features" sketch:type="MSArtboardGroup" transform="translate(-1062.000000, -1538.000000)">
            <g id="nukeproof" sketch:type="MSLayerGroup" transform="translate(1062.000000, 1538.000000)">
                <g id="s40" transform="translate(34.000000, 16.000000)" sketch:type="MSShapeGroup">
                    <g id="Page-1">
                        <g>
                            <g id="s40">
                                <path d="M26,1.12396694 C26,1.12396694 18.4633913,10.1157025 1.13043478,10.1157025 L1.13043478,31.5666116 C1.13043478,42.7680661 6.02295652,53.5705124 14.8810435,60.4919008 C18.0168696,62.9421488 21.7133913,65.0495868 26,66.3140496 C30.2866087,65.0495868 33.9842609,62.9421488 37.1189565,60.4919008 C45.9770435,53.5705124 50.8695652,42.7680661 50.8695652,31.5666116 L50.8695652,10.1157025 C33.5366087,10.1157025 26,1.12396694 26,1.12396694" id="Fill-101" fill="#3AB0D5"></path>
                                <path d="M1.13043478,10.1157025 L1.13043478,31.5666116 C1.13043478,42.7680661 6.02295652,53.5705124 14.8810435,60.4919008 C18.0168696,62.9421488 21.7133913,65.0495868 26,66.3140496 L26,1.12396694 C26,1.12396694 18.4633913,10.1157025 1.13043478,10.1157025" id="Fill-521" fill="#0097A7"></path>
                                <path d="M26,67.4380165 C25.8914783,67.4380165 25.784087,67.422281 25.6789565,67.3919339 C21.6308696,66.197157 17.7625217,64.1740165 14.1824348,61.3753388 C5.30173913,54.4370909 0,43.2929587 0,31.5666116 L0,10.1157025 C0,9.49414876 0.505304348,8.99173554 1.13043478,8.99173554 C17.7410435,8.99173554 25.0594783,0.491173554 25.1306957,0.403504132 C25.5613913,-0.107900826 26.4386087,-0.107900826 26.8693043,0.403504132 C26.9393913,0.48892562 34.3335652,8.99173554 50.8695652,8.99173554 C51.4946957,8.99173554 52,9.49414876 52,10.1157025 L52,31.5666116 C52,43.2929587 46.6982609,54.4370909 37.8175652,61.3753388 C34.2374783,64.1740165 30.3691304,66.197157 26.3210435,67.3919339 C26.215913,67.422281 26.1085217,67.4380165 26,67.4380165 L26,67.4380165 L26,67.4380165 Z M2.26086957,11.2273058 L2.26086957,31.5666116 C2.26086957,42.6084628 7.23930435,53.0917025 15.5796522,59.6084628 C18.8386957,62.1553719 22.3430435,64.0155372 26,65.1395041 C29.6569565,64.0155372 33.1613043,62.1553719 36.4203478,59.6084628 C44.7606957,53.0917025 49.7391304,42.6084628 49.7391304,31.5666116 L49.7391304,11.2273058 C35.9003478,10.9215868 28.4134783,5.0488595 26,2.74585124 C23.5865217,5.0488595 16.0996522,10.9215868 2.26086957,11.2273058 L2.26086957,11.2273058 L2.26086957,11.2273058 Z" id="Fill-522" fill="#546E7A"></path>
                            </g>
                        </g>
                    </g>
                </g>
                <rect id="Rectangle-273" fill-opacity="0.01" fill="#FFFFFF" sketch:type="MSShapeGroup" x="0" y="0" width="120" height="100"></rect>
            </g>
        </g>
    </g>
</svg>