<?xml version="1.0" encoding="UTF-8" standalone="no"?>
<svg width="870px" height="486px" viewBox="0 0 870 486" version="1.1" xmlns="http://www.w3.org/2000/svg" xmlns:xlink="http://www.w3.org/1999/xlink" xmlns:sketch="http://www.bohemiancoding.com/sketch/ns">
    <!-- Generator: Sketch 3.3.3 (12072) - http://www.bohemiancoding.com/sketch -->
    <title>nuke-image</title>
    <desc>Created with Sketch.</desc>
    <defs>
        <filter x="-50%" y="-50%" width="200%" height="200%" filterUnits="objectBoundingBox" id="filter-1">
            <feOffset dx="0" dy="-2" in="SourceAlpha" result="shadowOffsetInner1"></feOffset>
            <feGaussianBlur stdDeviation="0" in="shadowOffsetInner1" result="shadowBlurInner1"></feGaussianBlur>
            <feComposite in="shadowBlurInner1" in2="SourceAlpha" operator="arithmetic" k2="-1" k3="1" result="shadowInnerInner1"></feComposite>
            <feColorMatrix values="0 0 0 0 0.454901961   0 0 0 0 0.454901961   0 0 0 0 0.454901961  0 0 0 0.7 0" in="shadowInnerInner1" type="matrix" result="shadowMatrixInner1"></feColorMatrix>
            <feMerge>
                <feMergeNode in="SourceGraphic"></feMergeNode>
                <feMergeNode in="shadowMatrixInner1"></feMergeNode>
            </feMerge>
        </filter>
        <filter x="-50%" y="-50%" width="200%" height="200%" filterUnits="objectBoundingBox" id="filter-2">
            <feOffset dx="0" dy="2" in="SourceAlpha" result="shadowOffsetOuter1"></feOffset>
            <feGaussianBlur stdDeviation="2" in="shadowOffsetOuter1" result="shadowBlurOuter1"></feGaussianBlur>
            <feColorMatrix values="0 0 0 0 0   0 0 0 0 0   0 0 0 0 0  0 0 0 0.35 0" in="shadowBlurOuter1" type="matrix" result="shadowMatrixOuter1"></feColorMatrix>
            <feMerge>
                <feMergeNode in="shadowMatrixOuter1"></feMergeNode>
                <feMergeNode in="SourceGraphic"></feMergeNode>
            </feMerge>
        </filter>
        <filter x="-50%" y="-50%" width="200%" height="200%" filterUnits="objectBoundingBox" id="filter-3">
            <feOffset dx="0" dy="2" in="SourceAlpha" result="shadowOffsetOuter1"></feOffset>
            <feGaussianBlur stdDeviation="2" in="shadowOffsetOuter1" result="shadowBlurOuter1"></feGaussianBlur>
            <feColorMatrix values="0 0 0 0 0   0 0 0 0 0   0 0 0 0 0  0 0 0 0.35 0" in="shadowBlurOuter1" type="matrix" result="shadowMatrixOuter1"></feColorMatrix>
            <feMerge>
                <feMergeNode in="shadowMatrixOuter1"></feMergeNode>
                <feMergeNode in="SourceGraphic"></feMergeNode>
            </feMerge>
        </filter>
    </defs>
    <g id="Page-1" stroke="none" stroke-width="1" fill="none" fill-rule="evenodd" sketch:type="MSPage">
        <g id="Features-Copy-2" sketch:type="MSArtboardGroup" transform="translate(-533.000000, -1517.000000)">
            <g id="nuke-image" sketch:type="MSLayerGroup" transform="translate(533.000000, 1517.000000)">
                <ellipse id="webcam" fill="#747474" sketch:type="MSShapeGroup" cx="437.175" cy="15.1602163" rx="6.525" ry="6.49723558"></ellipse>
                <rect id="Rectangle-117" fill="#252D34" sketch:type="MSShapeGroup" x="65.25" y="0" width="739.5" height="450.475" rx="3.51999998"></rect>
                <rect id="Mask" fill="#252D34" filter="url(#filter-1)" sketch:type="MSShapeGroup" x="0" y="450.475" width="870" height="34.6519231"></rect>
                <rect id="lip" fill="#747474" sketch:type="MSShapeGroup" x="391.5" y="450.475" width="87" height="12.9944712"></rect>
                <rect id="wallpaper" fill="#F9B94F" sketch:type="MSShapeGroup" x="95.7" y="30.3204327" width="678.6" height="394.165625"></rect>
                <rect id="Rectangle-254" fill="#000000" filter="url(#filter-2)" sketch:type="MSShapeGroup" x="112.614213" y="62.0648412" width="507.86802" height="352.579186"></rect>
                <text id="class-TaskRunAuth(ob" sketch:type="MSTextLayer" font-family="Open Sans" font-size="15.4443803" font-weight="normal" fill="#9CD75B">
                    <tspan x="122.197462" y="82.8825559">class TaskRunAuth(object):</tspan>
                    <tspan x="122.197462" y="104.882556"></tspan>
                    <tspan x="122.197462" y="126.882556">    def __init__(self, task_repo, project_repo):</tspan>
                    <tspan x="122.197462" y="148.882556">        self.task_repo = task_repo</tspan>
                    <tspan x="122.197462" y="170.882556">        self.project_repo = project_repo</tspan>
                    <tspan x="122.197462" y="192.882556"></tspan>
                    <tspan x="122.197462" y="214.882556">    def can(self, user, action, taskrun=None):</tspan>
                    <tspan x="122.197462" y="236.882556">        action = ''.join(['_', action])</tspan>
                    <tspan x="122.197462" y="258.882556">        return getattr(self, action)(user, taskrun)</tspan>
                    <tspan x="122.197462" y="280.882556"></tspan>
                    <tspan x="122.197462" y="302.882556">    def _create(self, user, taskrun):</tspan>
                    <tspan x="122.197462" y="324.882556">        project_id = self.task_repo.get_task(taskrun.task_id).project_id</tspan>
                    <tspan x="122.197462" y="346.882556">        project = self.project_repo.get(project_id)</tspan>
                    <tspan x="122.197462" y="368.882556">        if (user.is_anonymous() and</tspan>
                    <tspan x="122.197462" y="390.882556">                project.allow_anonymous_contributors is False):</tspan>
                </text>
                <path d="M112.614213,43.8279867 L620.482234,43.8279867 L620.482234,62.0648412 L112.614213,62.0648412 L112.614213,43.8279867 Z" id="Fill-1645" fill="#546A79" sketch:type="MSShapeGroup"></path>
                <path d="M126.319797,52.946414 C126.319797,55.4646196 124.274619,57.5056276 121.751269,57.5056276 C119.227919,57.5056276 117.182741,55.4646196 117.182741,52.946414 C117.182741,50.4282083 119.227919,48.3872003 121.751269,48.3872003 C124.274619,48.3872003 126.319797,50.4282083 126.319797,52.946414" id="Fill-1646" fill="#ED7161" sketch:type="MSShapeGroup"></path>
                <path d="M140.025381,52.946414 C140.025381,55.4646196 137.980203,57.5056276 135.456853,57.5056276 C132.933503,57.5056276 130.888325,55.4646196 130.888325,52.946414 C130.888325,50.4282083 132.933503,48.3872003 135.456853,48.3872003 C137.980203,48.3872003 140.025381,50.4282083 140.025381,52.946414" id="Fill-1647" fill="#F0C419" sketch:type="MSShapeGroup"></path>
                <path d="M153.730964,52.946414 C153.730964,55.4646196 151.685787,57.5056276 149.162437,57.5056276 C146.639086,57.5056276 144.593909,55.4646196 144.593909,52.946414 C144.593909,50.4282083 146.639086,48.3872003 149.162437,48.3872003 C151.685787,48.3872003 153.730964,50.4282083 153.730964,52.946414" id="Fill-1648" fill="#4FBA6F" sketch:type="MSShapeGroup"></path>
                <g id="Rectangle-254-Copy-+-To-to-list-+-Group" transform="translate(478.500000, 137.092704)">
                    <rect id="Rectangle-254-Copy" fill="#FFFFFF" filter="url(#filter-3)" sketch:type="MSShapeGroup" x="0" y="19.8325792" width="278.22335" height="156.457014"></rect>
                    <text id="Things-to-do-today:-" sketch:type="MSTextLayer" font-family="Open Sans" font-size="15.4443803" font-weight="normal" fill="#6E8091">
                        <tspan x="9.58324873" y="48.3331955">Things to do today: </tspan>
                        <tspan x="9.58324873" y="70.3331955"></tspan>
                        <tspan x="9.58324873" y="92.3331955">- Make a great website.</tspan>
                        <tspan x="9.58324873" y="114.333196">- Talk with Nasa about their project.</tspan>
                        <tspan x="9.58324873" y="136.333196">- Call mom.</tspan>
                        <tspan x="9.58324873" y="158.333196">- Buy more cooffe.</tspan>
                    </text>
                    <g id="Group" sketch:type="MSShapeGroup">
                        <path d="M0,1.74769855 L278.22335,1.74769855 L278.22335,19.984553 L0,19.984553 L0,1.74769855 Z" id="Fill-1645-Copy" fill="#546A79"></path>
                        <path d="M18.7203046,10.8661258 C18.7203046,13.3843314 16.6751269,15.4253394 14.1517766,15.4253394 C11.6284264,15.4253394 9.58324873,13.3843314 9.58324873,10.8661258 C9.58324873,8.34792011 11.6284264,6.30691215 14.1517766,6.30691215 C16.6751269,6.30691215 18.7203046,8.34792011 18.7203046,10.8661258" id="Fill-1646-Copy" fill="#ED7161"></path>
                        <path d="M32.4258883,10.8661258 C32.4258883,13.3843314 30.3807107,15.4253394 27.8573604,15.4253394 C25.3340102,15.4253394 23.2888325,13.3843314 23.2888325,10.8661258 C23.2888325,8.34792011 25.3340102,6.30691215 27.8573604,6.30691215 C30.3807107,6.30691215 32.4258883,8.34792011 32.4258883,10.8661258" id="Fill-1647-Copy" fill="#F0C419"></path>
                        <path d="M46.1314721,10.8661258 C46.1314721,13.3843314 44.0862944,15.4253394 41.5629442,15.4253394 C39.0395939,15.4253394 36.9944162,13.3843314 36.9944162,10.8661258 C36.9944162,8.34792011 39.0395939,6.30691215 41.5629442,6.30691215 C44.0862944,6.30691215 46.1314721,8.34792011 46.1314721,10.8661258" id="Fill-1648-Copy" fill="#4FBA6F"></path>
                    </g>
                </g>
                <path d="M95.7,30.3204327 L491.55,30.3204327 L95.7,424.486058 L95.7,30.3204327 Z" id="glare" fill-opacity="0.210000008" fill="#FFFFFF" sketch:type="MSShapeGroup"></path>
            </g>
        </g>
    </g>
</svg>