<?xml version="1.0" encoding="UTF-8" standalone="no"?>
<svg width="870px" height="486px" viewBox="0 0 870 486" version="1.1" xmlns="http://www.w3.org/2000/svg" xmlns:xlink="http://www.w3.org/1999/xlink" xmlns:sketch="http://www.bohemiancoding.com/sketch/ns">
    <!-- Generator: Sketch 3.3.3 (12072) - http://www.bohemiancoding.com/sketch -->
    <title>nuke-image</title>
    <desc>Created with Sketch.</desc>
    <defs>
        <filter x="-50%" y="-50%" width="200%" height="200%" filterUnits="objectBoundingBox" id="filter-1">
            <feOffset dx="0" dy="-2" in="SourceAlpha" result="shadowOffsetInner1"></feOffset>
            <feGaussianBlur stdDeviation="0" in="shadowOffsetInner1" result="shadowBlurInner1"></feGaussianBlur>
            <feComposite in="shadowBlurInner1" in2="SourceAlpha" operator="arithmetic" k2="-1" k3="1" result="shadowInnerInner1"></feComposite>
            <feColorMatrix values="0 0 0 0 0.454901961   0 0 0 0 0.454901961   0 0 0 0 0.454901961  0 0 0 0.7 0" in="shadowInnerInner1" type="matrix" result="shadowMatrixInner1"></feColorMatrix>
            <feMerge>
                <feMergeNode in="SourceGraphic"></feMergeNode>
                <feMergeNode in="shadowMatrixInner1"></feMergeNode>
            </feMerge>
        </filter>
        <filter x="-50%" y="-50%" width="200%" height="200%" filterUnits="objectBoundingBox" id="filter-2">
            <feOffset dx="0" dy="1" in="SourceAlpha" result="shadowOffsetOuter1"></feOffset>
            <feGaussianBlur stdDeviation="1.5" in="shadowOffsetOuter1" result="shadowBlurOuter1"></feGaussianBlur>
            <feColorMatrix values="0 0 0 0 0   0 0 0 0 0   0 0 0 0 0  0 0 0 0.35 0" in="shadowBlurOuter1" type="matrix" result="shadowMatrixOuter1"></feColorMatrix>
            <feMerge>
                <feMergeNode in="shadowMatrixOuter1"></feMergeNode>
                <feMergeNode in="SourceGraphic"></feMergeNode>
            </feMerge>
        </filter>
        <filter x="-50%" y="-50%" width="200%" height="200%" filterUnits="objectBoundingBox" id="filter-3">
            <feOffset dx="0" dy="1" in="SourceAlpha" result="shadowOffsetOuter1"></feOffset>
            <feGaussianBlur stdDeviation="1.5" in="shadowOffsetOuter1" result="shadowBlurOuter1"></feGaussianBlur>
            <feColorMatrix values="0 0 0 0 0   0 0 0 0 0   0 0 0 0 0  0 0 0 0.35 0" in="shadowBlurOuter1" type="matrix" result="shadowMatrixOuter1"></feColorMatrix>
            <feMerge>
                <feMergeNode in="shadowMatrixOuter1"></feMergeNode>
                <feMergeNode in="SourceGraphic"></feMergeNode>
            </feMerge>
        </filter>
    </defs>
    <g id="Page-1" stroke="none" stroke-width="1" fill="none" fill-rule="evenodd" sketch:type="MSPage">
        <g id="assets" sketch:type="MSArtboardGroup" transform="translate(-87.000000, -34.000000)">
            <g id="nuke-image" sketch:type="MSLayerGroup" transform="translate(87.000000, 34.000000)">
                <ellipse id="webcam" fill="#747474" sketch:type="MSShapeGroup" cx="437.175" cy="15.1602163" rx="6.525" ry="6.49723558"></ellipse>
                <rect id="Rectangle-117" fill="#252D34" sketch:type="MSShapeGroup" x="65.25" y="0" width="739.5" height="450.475" rx="3.51999998"></rect>
                <rect id="Mask" fill="#252D34" filter="url(#filter-1)" sketch:type="MSShapeGroup" x="0" y="450.475" width="870" height="34.6519231"></rect>
                <rect id="lip" fill="#747474" sketch:type="MSShapeGroup" x="391.5" y="450.475" width="87" height="12.9944712"></rect>
                <rect id="wallpaper" fill="#F9B94F" sketch:type="MSShapeGroup" x="95.7" y="30.3204327" width="678.6" height="394.165625"></rect>
                <path d="M95.7,30.3204327 L491.55,30.3204327 L95.7,424.486058 L95.7,30.3204327 Z" id="glare" fill-opacity="0.210000008" fill="#FFFFFF" sketch:type="MSShapeGroup"></path>
                <g id="Group" transform="translate(214.000000, 95.000000)">
                    <g>
                        <g id="Fill-1645-+-Rectangle-254-+-class-TaskRunAuth(ob-+-Rectangle-254-Copy-+-To-to-list-+-Group">
                            <path d="M0.430418104,0.578700409 L356.325718,0.578700409 L356.325718,13.324889 L0.430418104,13.324889 L0.430418104,0.578700409 Z" id="Fill-1645" fill="#546A79" sketch:type="MSShapeGroup"></path>
                            <g id="Rectangle-254-+-class-TaskRunAuth(ob-+-Rectangle-254-Copy-+-To-to-list-+-Group" transform="translate(0.000000, 13.279570)">
                                <g>
                                    <rect id="Rectangle-254" fill="#000000" filter="url(#filter-2)" sketch:type="MSShapeGroup" x="0.430418104" y="0.0453190921" width="355.8953" height="246.426312"></rect>
                                    <text id="class-TaskRunAuth(ob" sketch:type="MSTextLayer" font-family="Open Sans" font-size="10.811067" font-weight="normal" fill="#9CD75B">
                                        <tspan x="7.14600767" y="14.7136143">class TaskRunAuth(object):</tspan>
                                        <tspan x="7.14600767" y="29.7136143"></tspan>
                                        <tspan x="7.14600767" y="44.7136143">    def __init__(self, task_repo, project_repo):</tspan>
                                        <tspan x="7.14600767" y="59.7136143">        self.task_repo = task_repo</tspan>
                                        <tspan x="7.14600767" y="74.7136143">        self.project_repo = project_repo</tspan>
                                        <tspan x="7.14600767" y="89.7136143"></tspan>
                                        <tspan x="7.14600767" y="104.713614">    def can(self, user, action, taskrun=None):</tspan>
                                        <tspan x="7.14600767" y="119.713614">        action = ''.join(['_', action])</tspan>
                                        <tspan x="7.14600767" y="134.713614">        return getattr(self, action)(user, taskrun)</tspan>
                                        <tspan x="7.14600767" y="149.713614"></tspan>
                                        <tspan x="7.14600767" y="164.713614">    def _create(self, user, taskrun):</tspan>
                                        <tspan x="7.14600767" y="179.713614">        project_id = self.task_repo.get_task(taskrun.task_id).project_id</tspan>
                                        <tspan x="7.14600767" y="194.713614">        project = self.project_repo.get(project_id)</tspan>
                                        <tspan x="7.14600767" y="209.713614">        if (user.is_anonymous() and</tspan>
                                        <tspan x="7.14600767" y="224.713614">                project.allow_anonymous_contributors is False):</tspan>
                                    </text>
                                    <g id="Rectangle-254-Copy-+-To-to-list-+-Group" transform="translate(256.829771, 52.484148)">
                                        <rect id="Rectangle-254-Copy" fill="#FFFFFF" filter="url(#filter-3)" sketch:type="MSShapeGroup" x="0" y="13.8614801" width="194.968729" height="109.351676"></rect>
                                        <text id="Things-to-do-today:-" sketch:type="MSTextLayer" font-family="Open Sans" font-size="10.811067" font-weight="normal" fill="#6E8091">
                                            <tspan x="6.71558957" y="33.8995452">Things to do today: </tspan>
                                            <tspan x="6.71558957" y="48.8995452"></tspan>
                                            <tspan x="6.71558957" y="63.8995452">- Make a great website.</tspan>
                                            <tspan x="6.71558957" y="78.8995452">- Talk with Nasa about their project.</tspan>
                                            <tspan x="6.71558957" y="93.8995452">- Call mom.</tspan>
                                            <tspan x="6.71558957" y="108.899545">- Buy more cooffe.</tspan>
                                        </text>
                                        <g id="Group" sketch:type="MSShapeGroup">
                                            <path d="M0,1.22150974 L194.968729,1.22150974 L194.968729,13.9676983 L0,13.9676983 L0,1.22150974 Z" id="Fill-1645-Copy" fill="#546A79"></path>
                                            <path d="M13.1185035,7.59460403 C13.1185035,9.35464023 11.6853179,10.7811512 9.91704654,10.7811512 C8.14877514,10.7811512 6.71558957,9.35464023 6.71558957,7.59460403 C6.71558957,5.83456782 8.14877514,4.40805688 9.91704654,4.40805688 C11.6853179,4.40805688 13.1185035,5.83456782 13.1185035,7.59460403" id="Fill-1646-Copy" fill="#ED7161"></path>
                                            <path d="M22.7228744,7.59460403 C22.7228744,9.35464023 21.2896888,10.7811512 19.5214174,10.7811512 C17.753146,10.7811512 16.3199605,9.35464023 16.3199605,7.59460403 C16.3199605,5.83456782 17.753146,4.40805688 19.5214174,4.40805688 C21.2896888,4.40805688 22.7228744,5.83456782 22.7228744,7.59460403" id="Fill-1647-Copy" fill="#F0C419"></path>
                                            <path d="M32.3272453,7.59460403 C32.3272453,9.35464023 30.8940598,10.7811512 29.1257884,10.7811512 C27.357517,10.7811512 25.9243314,9.35464023 25.9243314,7.59460403 C25.9243314,5.83456782 27.357517,4.40805688 29.1257884,4.40805688 C30.8940598,4.40805688 32.3272453,5.83456782 32.3272453,7.59460403" id="Fill-1648-Copy" fill="#4FBA6F"></path>
                                        </g>
                                    </g>
                                </g>
                            </g>
                        </g>
                        <path d="M10.034789,6.9517947 C10.034789,8.7118309 8.60160344,10.1383418 6.83333204,10.1383418 C5.06506064,10.1383418 3.63187507,8.7118309 3.63187507,6.9517947 C3.63187507,5.19175849 5.06506064,3.76524755 6.83333204,3.76524755 C8.60160344,3.76524755 10.034789,5.19175849 10.034789,6.9517947" id="Fill-1646" fill="#ED7161" sketch:type="MSShapeGroup"></path>
                        <path d="M19.6391599,6.9517947 C19.6391599,8.7118309 18.2059743,10.1383418 16.4377029,10.1383418 C14.6694315,10.1383418 13.236246,8.7118309 13.236246,6.9517947 C13.236246,5.19175849 14.6694315,3.76524755 16.4377029,3.76524755 C18.2059743,3.76524755 19.6391599,5.19175849 19.6391599,6.9517947" id="Fill-1647" fill="#F0C419" sketch:type="MSShapeGroup"></path>
                        <path d="M29.2435308,6.9517947 C29.2435308,8.7118309 27.8103453,10.1383418 26.0420739,10.1383418 C24.2738025,10.1383418 22.8406169,8.7118309 22.8406169,6.9517947 C22.8406169,5.19175849 24.2738025,3.76524755 26.0420739,3.76524755 C27.8103453,3.76524755 29.2435308,5.19175849 29.2435308,6.9517947" id="Fill-1648" fill="#4FBA6F" sketch:type="MSShapeGroup"></path>
                    </g>
                    <path d="M141.112538,3.70752688 C142.001429,3.70752688 142.670029,3.93727599 143.117979,4.39659498 C143.488485,4.76630824 143.673918,5.24498208 143.673918,5.83172043 C143.673918,6.41845878 143.488485,6.89713262 143.117979,7.26684588 C142.670029,7.72616487 142.001429,7.95591398 141.112538,7.95591398 L139.366559,7.95591398 L139.366559,10.0028674 C139.366559,10.1243728 139.323794,10.2267025 139.236828,10.3091398 C139.15094,10.3922939 139.047083,10.4331541 138.925977,10.4331541 C138.804151,10.4331541 138.702271,10.3922939 138.618719,10.3091398 C138.535346,10.2267025 138.494378,10.1243728 138.494378,10.0028674 L138.494378,4.14784946 C138.494378,4.02706093 138.535346,3.92275986 138.618719,3.83691756 C138.702271,3.75053763 138.804151,3.70752688 138.925977,3.70752688 L141.112538,3.70752688 L141.112538,3.70752688 Z M141.02647,7.1327957 C141.685008,7.1327957 142.161706,6.99283154 142.456027,6.71164875 C142.68656,6.49498208 142.800839,6.20143369 142.800839,5.83172043 C142.800839,5.23817204 142.503823,4.84283154 141.909432,4.64551971 C141.679078,4.5688172 141.384578,4.53064516 141.02647,4.53064516 L139.366559,4.53064516 L139.366559,7.1327957 L141.02647,7.1327957 L141.02647,7.1327957 Z" id="Fill-1" fill="#FFFFFF" sketch:type="MSShapeGroup"></path>
                    <path d="M148.940783,3.8797491 C149.036015,3.73333333 149.156403,3.66003584 149.300149,3.66003584 C149.443716,3.66003584 149.554221,3.70143369 149.630945,3.78405018 C149.70785,3.8672043 149.746302,3.96290323 149.746302,4.07114695 C149.746302,4.17939068 149.720427,4.27526882 149.669398,4.35842294 L147.366941,7.56308244 L147.366941,10.0028674 C147.366941,10.1243728 147.325973,10.2267025 147.24242,10.3091398 C147.159048,10.3922939 147.057167,10.4331541 146.935342,10.4331541 C146.813517,10.4331541 146.710379,10.3922939 146.623772,10.3091398 C146.536985,10.2267025 146.49458,10.1243728 146.49458,10.0028674 L146.49458,7.56308244 L144.202006,4.35842294 C144.150437,4.27526882 144.125281,4.17939068 144.125281,4.07114695 C144.125281,3.96290323 144.163554,3.8672043 144.239739,3.78405018 C144.316644,3.70143369 144.426969,3.66003584 144.571434,3.66003584 C144.714282,3.66003584 144.834849,3.73333333 144.9308,3.8797491 L146.935342,6.78817204 L148.940783,3.8797491" id="Fill-2" fill="#FFFFFF" sketch:type="MSShapeGroup"></path>
                    <path d="M155.654456,5.43978495 C155.654456,6.1281362 155.341987,6.61935484 154.714534,6.91290323 C155.322222,7.11702509 155.72579,7.4516129 155.923082,7.91756272 C155.993158,8.09587814 156.028915,8.30967742 156.028915,8.55860215 C156.028915,8.80681004 155.983994,9.04641577 155.895231,9.27616487 C155.80521,9.50591398 155.661104,9.70322581 155.462554,9.8688172 C155.053416,10.2132616 154.420753,10.3856631 153.563665,10.3856631 L151.242701,10.3856631 C151.120876,10.3856631 151.018996,10.3442652 150.935623,10.2616487 C150.85225,10.1784946 150.811103,10.0761649 150.811103,9.95537634 L150.811103,4.14784946 C150.811103,4.02706093 150.85225,3.92275986 150.935623,3.83691756 C151.018996,3.75053763 151.120876,3.70752688 151.242701,3.70752688 L153.505987,3.70752688 C154.210164,3.70752688 154.743643,3.8672043 155.107681,4.18602151 C155.473156,4.50483871 155.654456,4.92275986 155.654456,5.43978495 L155.654456,5.43978495 Z M154.820547,5.5062724 C154.820547,5.20663082 154.69998,4.96756272 154.460463,4.78870968 C154.220945,4.61057348 153.880626,4.52078853 153.439145,4.52078853 L151.683463,4.52078853 L151.683463,6.59695341 L153.275813,6.59695341 C154.100378,6.59695341 154.592709,6.37706093 154.752986,5.93673835 C154.797907,5.80268817 154.820547,5.65949821 154.820547,5.5062724 L154.820547,5.5062724 Z M153.476878,9.57240143 C154.384996,9.57240143 154.926381,9.35591398 155.098517,8.92168459 C155.156734,8.78835125 155.184405,8.63853047 155.184405,8.47204301 C155.184405,8.08924731 155.041378,7.81200717 154.752986,7.63960573 C154.465674,7.46738351 154.043598,7.38172043 153.486941,7.38172043 L151.683463,7.38172043 L151.683463,9.57240143 L153.476878,9.57240143 L153.476878,9.57240143 Z" id="Fill-3" fill="#FFFFFF" sketch:type="MSShapeGroup"></path>
                    <path d="M160.32693,3.61182796 C161.336928,3.61182796 162.148376,3.93387097 162.762532,4.57831541 C163.358001,5.20985663 163.667954,6.03225806 163.69311,7.04695341 C163.667954,8.06075269 163.358001,8.88315412 162.762532,9.51505376 C162.148376,10.1594982 161.336928,10.481362 160.32693,10.481362 C159.309026,10.481362 158.497578,10.1594982 157.89007,9.51505376 C157.282563,8.87724014 156.971352,8.05430108 156.959493,7.04695341 C156.971352,6.03888889 157.282563,5.21630824 157.89007,4.57831541 C158.497578,3.93387097 159.309026,3.61182796 160.32693,3.61182796 L160.32693,3.61182796 Z M160.32693,9.66810036 C161.106574,9.66810036 161.72073,9.41594982 162.168141,8.91236559 C162.602255,8.42777778 162.820749,7.80609319 162.820749,7.04695341 C162.820749,6.28781362 162.602255,5.66594982 162.168141,5.18082437 C161.72073,4.67724014 161.106574,4.42491039 160.32693,4.42491039 C159.546028,4.42491039 158.931872,4.67724014 158.484462,5.18082437 C158.04909,5.66594982 157.831853,6.28781362 157.831853,7.04695341 C157.831853,7.80609319 158.04909,8.42777778 158.484462,8.91236559 C158.931872,9.41594982 159.546028,9.66810036 160.32693,9.66810036 L160.32693,9.66810036 Z" id="Fill-4" fill="#FFFFFF" sketch:type="MSShapeGroup"></path>
                    <path d="M167.069711,9.65824373 C168.189495,9.65824373 168.749387,9.2921147 168.749387,8.55860215 C168.749387,8.25232975 168.535025,8.00681004 168.106122,7.8218638 C167.920869,7.7453405 167.70507,7.67670251 167.458904,7.61594982 C167.212739,7.55519713 166.96244,7.48978495 166.711064,7.41971326 C166.45807,7.35 166.208132,7.26989247 165.961786,7.18100358 C165.715621,7.09103943 165.497126,6.97634409 165.305225,6.83637993 C164.88297,6.51738351 164.672561,6.09641577 164.672561,5.57365591 C164.672561,5.01200717 164.88297,4.55304659 165.305225,4.1953405 C165.765932,3.80645161 166.382604,3.61182796 167.157037,3.61182796 C167.853308,3.61182796 168.489925,3.71738351 169.065809,3.92795699 C169.244413,3.99139785 169.334435,4.11863799 169.334435,4.31021505 C169.334435,4.40591398 169.300115,4.49713262 169.233992,4.5827957 C169.166431,4.66935484 169.092402,4.71218638 169.012802,4.71218638 C168.932124,4.71218638 168.822338,4.68709677 168.681826,4.63566308 C168.266399,4.4890681 167.789701,4.41594982 167.252269,4.41594982 C166.759938,4.41594982 166.353495,4.50824373 166.034558,4.69318996 C165.707715,4.88458781 165.544742,5.15591398 165.544742,5.5062724 C165.544742,5.86989247 165.755331,6.14390681 166.177585,6.32939068 C166.369487,6.41845878 166.586544,6.49193548 166.830194,6.54928315 C167.073664,6.60663082 167.322525,6.66738351 167.578034,6.73082437 C167.834621,6.79480287 168.083482,6.86935484 168.327132,6.95573477 C168.569345,7.04175627 168.787839,7.15519713 168.978483,7.29516129 C169.400558,7.60143369 169.612404,8.04175627 169.612404,8.61594982 C169.612404,9.16469534 169.391574,9.61075269 168.950632,9.95537634 C168.496573,10.305914 167.898229,10.481362 167.157037,10.481362 C166.344331,10.481362 165.583194,10.3283154 164.873806,10.022043 C164.80355,9.99032258 164.740122,9.93960573 164.685678,9.8688172 C164.631414,9.79892473 164.605001,9.71451613 164.605001,9.61541219 C164.605001,9.5172043 164.63932,9.42724014 164.711014,9.34731183 C164.78109,9.26827957 164.861947,9.22795699 164.954484,9.22795699 C165.0472,9.22795699 165.162197,9.25824373 165.299834,9.31899642 C165.437651,9.3797491 165.662794,9.4516129 165.976341,9.53422939 C166.290067,9.61738351 166.654105,9.65824373 167.069711,9.65824373" id="Fill-5" fill="#FFFFFF" sketch:type="MSShapeGroup"></path>
                    <path d="M172.883172,9.65824373 C174.001878,9.65824373 174.56159,9.2921147 174.56159,8.55860215 C174.56159,8.25232975 174.347228,8.00681004 173.918325,7.8218638 C173.733072,7.7453405 173.517093,7.67670251 173.271107,7.61594982 C173.024762,7.55519713 172.775901,7.48978495 172.523267,7.41971326 C172.270274,7.35 172.021413,7.26989247 171.775247,7.18100358 C171.529082,7.09103943 171.309329,6.97634409 171.117428,6.83637993 C170.696611,6.51738351 170.484765,6.09641577 170.484765,5.57365591 C170.484765,5.01200717 170.696611,4.55304659 171.117428,4.1953405 C171.578135,3.80645161 172.194807,3.61182796 172.96942,3.61182796 C173.666949,3.61182796 174.302308,3.71738351 174.878012,3.92795699 C175.056796,3.99139785 175.146638,4.11863799 175.146638,4.31021505 C175.146638,4.40591398 175.113576,4.49713262 175.046015,4.5827957 C174.978454,4.66935484 174.905863,4.71218638 174.825185,4.71218638 C174.745585,4.71218638 174.635799,4.68709677 174.494209,4.63566308 C174.078602,4.4890681 173.601904,4.41594982 173.06591,4.41594982 C172.572141,4.41594982 172.167136,4.50824373 171.846941,4.69318996 C171.521176,4.88458781 171.358383,5.15591398 171.358383,5.5062724 C171.358383,5.86989247 171.568792,6.14390681 171.991046,6.32939068 C172.183127,6.41845878 172.400184,6.49193548 172.643655,6.54928315 C172.885867,6.60663082 173.136166,6.66738351 173.391495,6.73082437 C173.647004,6.79480287 173.897302,6.86935484 174.139335,6.95573477 C174.382985,7.04175627 174.600042,7.15519713 174.791944,7.29516129 C175.214198,7.60143369 175.424787,8.04175627 175.424787,8.61594982 C175.424787,9.16469534 175.204855,9.61075269 174.762835,9.95537634 C174.308956,10.305914 173.710612,10.481362 172.96942,10.481362 C172.156534,10.481362 171.396835,10.3283154 170.686009,10.022043 C170.615753,9.99032258 170.553583,9.93960573 170.499499,9.8688172 C170.445055,9.79892473 170.417383,9.71451613 170.417383,9.61541219 C170.417383,9.5172043 170.45314,9.42724014 170.523217,9.34731183 C170.593293,9.26827957 170.675408,9.22795699 170.768124,9.22795699 C170.860661,9.22795699 170.975838,9.25824373 171.113655,9.31899642 C171.251112,9.3797491 171.476075,9.4516129 171.789802,9.53422939 C172.10209,9.61738351 172.467565,9.65824373 172.883172,9.65824373" id="Fill-6" fill="#FFFFFF" sketch:type="MSShapeGroup"></path>
                    <path d="M182.139717,9.81146953 C182.172779,9.88799283 182.188591,9.96989247 182.188591,10.0555556 C182.188591,10.1415771 182.150139,10.2267025 182.073594,10.3091398 C181.996689,10.3922939 181.874864,10.4331541 181.708119,10.4331541 C181.54281,10.4331541 181.420985,10.3442652 181.344081,10.1659498 L180.720581,8.6734767 L177.459157,8.6734767 L176.835657,10.1659498 C176.758932,10.3442652 176.637107,10.4331541 176.471799,10.4331541 C176.304874,10.4331541 176.183228,10.3922939 176.106504,10.3091398 C176.0296,10.2267025 175.991147,10.1415771 175.991147,10.0555556 C175.991147,9.96989247 176.007139,9.88799283 176.038943,9.81146953 L178.484967,4.05197133 C178.600323,3.790681 178.785576,3.66003584 179.042343,3.66003584 L179.137575,3.66003584 C179.393084,3.66003584 179.579775,3.790681 179.694772,4.05197133 L182.139717,9.81146953 L182.139717,9.81146953 Z M180.384395,7.87939068 L179.089779,4.76953405 L177.795344,7.87939068 L180.384395,7.87939068 L180.384395,7.87939068 Z" id="Fill-7" fill="#FFFFFF" sketch:type="MSShapeGroup"></path>
                </g>
            </g>
        </g>
    </g>
</svg>