<?xml version="1.0" encoding="UTF-8" standalone="no"?>
<svg width="870px" height="486px" viewBox="0 0 870 486" version="1.1" xmlns="http://www.w3.org/2000/svg" xmlns:xlink="http://www.w3.org/1999/xlink" xmlns:sketch="http://www.bohemiancoding.com/sketch/ns">
    <!-- Generator: Sketch 3.3.3 (12072) - http://www.bohemiancoding.com/sketch -->
    <title>nuke-image</title>
    <desc>Created with Sketch.</desc>
    <defs>
        <filter x="-50%" y="-50%" width="200%" height="200%" filterUnits="objectBoundingBox" id="filter-1">
            <feOffset dx="0" dy="-2" in="SourceAlpha" result="shadowOffsetInner1"></feOffset>
            <feGaussianBlur stdDeviation="0" in="shadowOffsetInner1" result="shadowBlurInner1"></feGaussianBlur>
            <feComposite in="shadowBlurInner1" in2="SourceAlpha" operator="arithmetic" k2="-1" k3="1" result="shadowInnerInner1"></feComposite>
            <feColorMatrix values="0 0 0 0 0.454901961   0 0 0 0 0.454901961   0 0 0 0 0.454901961  0 0 0 0.7 0" in="shadowInnerInner1" type="matrix" result="shadowMatrixInner1"></feColorMatrix>
            <feMerge>
                <feMergeNode in="SourceGraphic"></feMergeNode>
                <feMergeNode in="shadowMatrixInner1"></feMergeNode>
            </feMerge>
        </filter>
        <filter x="-50%" y="-50%" width="200%" height="200%" filterUnits="objectBoundingBox" id="filter-2">
            <feOffset dx="0" dy="2" in="SourceAlpha" result="shadowOffsetOuter1"></feOffset>
            <feGaussianBlur stdDeviation="2" in="shadowOffsetOuter1" result="shadowBlurOuter1"></feGaussianBlur>
            <feColorMatrix values="0 0 0 0 0   0 0 0 0 0   0 0 0 0 0  0 0 0 0.35 0" in="shadowBlurOuter1" type="matrix" result="shadowMatrixOuter1"></feColorMatrix>
            <feMerge>
                <feMergeNode in="shadowMatrixOuter1"></feMergeNode>
                <feMergeNode in="SourceGraphic"></feMergeNode>
            </feMerge>
        </filter>
        <filter x="-50%" y="-50%" width="200%" height="200%" filterUnits="objectBoundingBox" id="filter-3">
            <feOffset dx="0" dy="2" in="SourceAlpha" result="shadowOffsetOuter1"></feOffset>
            <feGaussianBlur stdDeviation="2" in="shadowOffsetOuter1" result="shadowBlurOuter1"></feGaussianBlur>
            <feColorMatrix values="0 0 0 0 0   0 0 0 0 0   0 0 0 0 0  0 0 0 0.35 0" in="shadowBlurOuter1" type="matrix" result="shadowMatrixOuter1"></feColorMatrix>
            <feMerge>
                <feMergeNode in="shadowMatrixOuter1"></feMergeNode>
                <feMergeNode in="SourceGraphic"></feMergeNode>
            </feMerge>
        </filter>
    </defs>
    <g id="Page-1" stroke="none" stroke-width="1" fill="none" fill-rule="evenodd" sketch:type="MSPage">
        <g id="assets" sketch:type="MSArtboardGroup" transform="translate(-285.000000, -34.000000)">
            <g id="nuke-image" sketch:type="MSLayerGroup" transform="translate(285.000000, 34.000000)">
                <ellipse id="webcam" fill="#747474" sketch:type="MSShapeGroup" cx="437.175" cy="15.1602163" rx="6.525" ry="6.49723558"></ellipse>
                <rect id="Rectangle-117" fill="#252D34" sketch:type="MSShapeGroup" x="65.25" y="0" width="739.5" height="450.475" rx="3.51999998"></rect>
                <rect id="Mask" fill="#252D34" filter="url(#filter-1)" sketch:type="MSShapeGroup" x="0" y="450.475" width="870" height="34.6519231"></rect>
                <rect id="lip" fill="#747474" sketch:type="MSShapeGroup" x="391.5" y="450.475" width="87" height="12.9944712"></rect>
                <rect id="wallpaper" fill="#F9B94F" sketch:type="MSShapeGroup" x="95.7" y="30.3204327" width="678.6" height="394.165625"></rect>
                <rect id="Rectangle-254" fill="#000000" filter="url(#filter-2)" sketch:type="MSShapeGroup" x="112.614213" y="62.0648412" width="507.86802" height="352.579186"></rect>
                <text id="class-TaskRunAuth(ob" sketch:type="MSTextLayer" font-family="Open Sans" font-size="15.4443803" font-weight="normal" fill="#9CD75B">
                    <tspan x="122.197462" y="82.8825559">class TaskRunAuth(object):</tspan>
                    <tspan x="122.197462" y="104.882556"></tspan>
                    <tspan x="122.197462" y="126.882556">    def __init__(self, task_repo, project_repo):</tspan>
                    <tspan x="122.197462" y="148.882556">        self.task_repo = task_repo</tspan>
                    <tspan x="122.197462" y="170.882556">        self.project_repo = project_repo</tspan>
                    <tspan x="122.197462" y="192.882556"></tspan>
                    <tspan x="122.197462" y="214.882556">    def can(self, user, action, taskrun=None):</tspan>
                    <tspan x="122.197462" y="236.882556">        action = ''.join(['_', action])</tspan>
                    <tspan x="122.197462" y="258.882556">        return getattr(self, action)(user, taskrun)</tspan>
                    <tspan x="122.197462" y="280.882556"></tspan>
                    <tspan x="122.197462" y="302.882556">    def _create(self, user, taskrun):</tspan>
                    <tspan x="122.197462" y="324.882556">        project_id = self.task_repo.get_task(taskrun.task_id).project_id</tspan>
                    <tspan x="122.197462" y="346.882556">        project = self.project_repo.get(project_id)</tspan>
                    <tspan x="122.197462" y="368.882556">        if (user.is_anonymous() and</tspan>
                    <tspan x="122.197462" y="390.882556">                project.allow_anonymous_contributors is False):</tspan>
                </text>
                <path d="M112.614213,43.8279867 L620.482234,43.8279867 L620.482234,62.0648412 L112.614213,62.0648412 L112.614213,43.8279867 Z" id="Fill-1645" fill="#546A79" sketch:type="MSShapeGroup"></path>
                <path d="M126.319797,52.946414 C126.319797,55.4646196 124.274619,57.5056276 121.751269,57.5056276 C119.227919,57.5056276 117.182741,55.4646196 117.182741,52.946414 C117.182741,50.4282083 119.227919,48.3872003 121.751269,48.3872003 C124.274619,48.3872003 126.319797,50.4282083 126.319797,52.946414" id="Fill-1646" fill="#ED7161" sketch:type="MSShapeGroup"></path>
                <path d="M140.025381,52.946414 C140.025381,55.4646196 137.980203,57.5056276 135.456853,57.5056276 C132.933503,57.5056276 130.888325,55.4646196 130.888325,52.946414 C130.888325,50.4282083 132.933503,48.3872003 135.456853,48.3872003 C137.980203,48.3872003 140.025381,50.4282083 140.025381,52.946414" id="Fill-1647" fill="#F0C419" sketch:type="MSShapeGroup"></path>
                <path d="M153.730964,52.946414 C153.730964,55.4646196 151.685787,57.5056276 149.162437,57.5056276 C146.639086,57.5056276 144.593909,55.4646196 144.593909,52.946414 C144.593909,50.4282083 146.639086,48.3872003 149.162437,48.3872003 C151.685787,48.3872003 153.730964,50.4282083 153.730964,52.946414" id="Fill-1648" fill="#4FBA6F" sketch:type="MSShapeGroup"></path>
                <g id="Rectangle-254-Copy-+-To-to-list-+-Group" transform="translate(478.500000, 137.092704)">
                    <rect id="Rectangle-254-Copy" fill="#FFFFFF" filter="url(#filter-3)" sketch:type="MSShapeGroup" x="0" y="19.8325792" width="278.22335" height="156.457014"></rect>
                    <text id="Things-to-do-today:-" sketch:type="MSTextLayer" font-family="Open Sans" font-size="15.4443803" font-weight="normal" fill="#6E8091">
                        <tspan x="9.58324873" y="48.3331955">Things to do today: </tspan>
                        <tspan x="9.58324873" y="70.3331955"></tspan>
                        <tspan x="9.58324873" y="92.3331955">- Make a great website.</tspan>
                        <tspan x="9.58324873" y="114.333196">- Talk with Nasa about their project.</tspan>
                        <tspan x="9.58324873" y="136.333196">- Call mom.</tspan>
                        <tspan x="9.58324873" y="158.333196">- Buy more cooffe.</tspan>
                    </text>
                    <g id="Group" sketch:type="MSShapeGroup">
                        <path d="M0,1.74769855 L278.22335,1.74769855 L278.22335,19.984553 L0,19.984553 L0,1.74769855 Z" id="Fill-1645-Copy" fill="#546A79"></path>
                        <path d="M18.7203046,10.8661258 C18.7203046,13.3843314 16.6751269,15.4253394 14.1517766,15.4253394 C11.6284264,15.4253394 9.58324873,13.3843314 9.58324873,10.8661258 C9.58324873,8.34792011 11.6284264,6.30691215 14.1517766,6.30691215 C16.6751269,6.30691215 18.7203046,8.34792011 18.7203046,10.8661258" id="Fill-1646-Copy" fill="#ED7161"></path>
                        <path d="M32.4258883,10.8661258 C32.4258883,13.3843314 30.3807107,15.4253394 27.8573604,15.4253394 C25.3340102,15.4253394 23.2888325,13.3843314 23.2888325,10.8661258 C23.2888325,8.34792011 25.3340102,6.30691215 27.8573604,6.30691215 C30.3807107,6.30691215 32.4258883,8.34792011 32.4258883,10.8661258" id="Fill-1647-Copy" fill="#F0C419"></path>
                        <path d="M46.1314721,10.8661258 C46.1314721,13.3843314 44.0862944,15.4253394 41.5629442,15.4253394 C39.0395939,15.4253394 36.9944162,13.3843314 36.9944162,10.8661258 C36.9944162,8.34792011 39.0395939,6.30691215 41.5629442,6.30691215 C44.0862944,6.30691215 46.1314721,8.34792011 46.1314721,10.8661258" id="Fill-1648-Copy" fill="#4FBA6F"></path>
                    </g>
                </g>
                <path d="M95.7,30.3204327 L491.55,30.3204327 L95.7,424.486058 L95.7,30.3204327 Z" id="glare" fill-opacity="0.210000008" fill="#FFFFFF" sketch:type="MSShapeGroup"></path>
                <g id="Group-Copy-7" transform="translate(309.500000, 48.000000)" fill="#FFFFFF" sketch:type="MSShapeGroup">
                    <path d="M3.86974359,0.304615385 C5.13820513,0.304615385 6.09230769,0.633333333 6.73153846,1.29051282 C7.26025641,1.81948718 7.52487179,2.50435897 7.52487179,3.34384615 C7.52487179,4.18333333 7.26025641,4.86820513 6.73153846,5.39717949 C6.09230769,6.05435897 5.13820513,6.38307692 3.86974359,6.38307692 L1.37820513,6.38307692 L1.37820513,9.31179487 C1.37820513,9.48564103 1.31717949,9.63205128 1.19307692,9.75 C1.07051282,9.86897436 0.922307692,9.9274359 0.749487179,9.9274359 C0.575641026,9.9274359 0.43025641,9.86897436 0.311025641,9.75 C0.192051282,9.63205128 0.133589744,9.48564103 0.133589744,9.31179487 L0.133589744,0.934615385 C0.133589744,0.761794872 0.192051282,0.612564103 0.311025641,0.48974359 C0.43025641,0.366153846 0.575641026,0.304615385 0.749487179,0.304615385 L3.86974359,0.304615385 L3.86974359,0.304615385 Z M3.74692308,5.20538462 C4.68666667,5.20538462 5.36692308,5.00512821 5.78692308,4.60282051 C6.11589744,4.29282051 6.27897436,3.87282051 6.27897436,3.34384615 C6.27897436,2.49461538 5.85512821,1.92897436 5.00692308,1.64666667 C4.67820513,1.53692308 4.25794872,1.48230769 3.74692308,1.48230769 L1.37820513,1.48230769 L1.37820513,5.20538462 L3.74692308,5.20538462 L3.74692308,5.20538462 Z" id="Fill-1"></path>
                    <path d="M15.0407692,0.551025641 C15.1766667,0.341538462 15.3484615,0.236666667 15.5535897,0.236666667 C15.7584615,0.236666667 15.9161538,0.295897436 16.025641,0.414102564 C16.1353846,0.533076923 16.1902564,0.67 16.1902564,0.824871795 C16.1902564,0.97974359 16.1533333,1.11692308 16.0805128,1.23589744 L12.7948718,5.82102564 L12.7948718,9.31179487 C12.7948718,9.48564103 12.7364103,9.63205128 12.6171795,9.75 C12.4982051,9.86897436 12.3528205,9.9274359 12.1789744,9.9274359 C12.0051282,9.9274359 11.8579487,9.86897436 11.734359,9.75 C11.6105128,9.63205128 11.55,9.48564103 11.55,9.31179487 L11.55,5.82102564 L8.27846154,1.23589744 C8.20487179,1.11692308 8.16897436,0.97974359 8.16897436,0.824871795 C8.16897436,0.67 8.22358974,0.533076923 8.33230769,0.414102564 C8.44205128,0.295897436 8.59948718,0.236666667 8.80564103,0.236666667 C9.00948718,0.236666667 9.18153846,0.341538462 9.31846154,0.551025641 L12.1789744,4.71230769 L15.0407692,0.551025641" id="Fill-2"></path>
                    <path d="M24.6212821,2.78307692 C24.6212821,3.76794872 24.1753846,4.47076923 23.28,4.89076923 C24.1471795,5.18282051 24.7230769,5.66153846 25.0046154,6.32820513 C25.1046154,6.58333333 25.155641,6.88923077 25.155641,7.24538462 C25.155641,7.60051282 25.0915385,7.94333333 24.9648718,8.27205128 C24.8364103,8.60076923 24.6307692,8.88307692 24.3474359,9.12 C23.7635897,9.61282051 22.8607692,9.85948718 21.6376923,9.85948718 L18.325641,9.85948718 C18.1517949,9.85948718 18.0064103,9.80025641 17.8874359,9.68205128 C17.7684615,9.56307692 17.7097436,9.41666667 17.7097436,9.24384615 L17.7097436,0.934615385 C17.7097436,0.761794872 17.7684615,0.612564103 17.8874359,0.48974359 C18.0064103,0.366153846 18.1517949,0.304615385 18.325641,0.304615385 L21.5553846,0.304615385 C22.5602564,0.304615385 23.3215385,0.533076923 23.8410256,0.989230769 C24.3625641,1.44538462 24.6212821,2.04333333 24.6212821,2.78307692 L24.6212821,2.78307692 Z M23.4312821,2.87820513 C23.4312821,2.44948718 23.2592308,2.1074359 22.9174359,1.85153846 C22.575641,1.59666667 22.09,1.46820513 21.46,1.46820513 L18.9546154,1.46820513 L18.9546154,4.43871795 L21.2269231,4.43871795 C22.4035897,4.43871795 23.1061538,4.12410256 23.3348718,3.49410256 C23.3989744,3.30230769 23.4312821,3.0974359 23.4312821,2.87820513 L23.4312821,2.87820513 Z M21.5138462,8.69589744 C22.8097436,8.69589744 23.5823077,8.38615385 23.8279487,7.76487179 C23.9110256,7.57410256 23.9505128,7.35974359 23.9505128,7.12153846 C23.9505128,6.57384615 23.7464103,6.17717949 23.3348718,5.93051282 C22.9248718,5.68410256 22.3225641,5.56153846 21.5282051,5.56153846 L18.9546154,5.56153846 L18.9546154,8.69589744 L21.5138462,8.69589744 L21.5138462,8.69589744 Z" id="Fill-3"></path>
                    <path d="M31.2889744,0.167692308 C32.7302564,0.167692308 33.8882051,0.628461538 34.7646154,1.55051282 C35.614359,2.45410256 36.0566667,3.63076923 36.0925641,5.0825641 C36.0566667,6.53307692 35.614359,7.70974359 34.7646154,8.61384615 C33.8882051,9.53589744 32.7302564,9.99641026 31.2889744,9.99641026 C29.8364103,9.99641026 28.6784615,9.53589744 27.8115385,8.61384615 C26.9446154,7.70128205 26.5005128,6.52384615 26.4835897,5.0825641 C26.5005128,3.64025641 26.9446154,2.46333333 27.8115385,1.55051282 C28.6784615,0.628461538 29.8364103,0.167692308 31.2889744,0.167692308 L31.2889744,0.167692308 Z M31.2889744,8.83282051 C32.4015385,8.83282051 33.2779487,8.47205128 33.9164103,7.75153846 C34.5358974,7.05820513 34.8476923,6.16871795 34.8476923,5.0825641 C34.8476923,3.99641026 34.5358974,3.10666667 33.9164103,2.4125641 C33.2779487,1.69205128 32.4015385,1.33102564 31.2889744,1.33102564 C30.1746154,1.33102564 29.2982051,1.69205128 28.6597436,2.4125641 C28.0384615,3.10666667 27.7284615,3.99641026 27.7284615,5.0825641 C27.7284615,6.16871795 28.0384615,7.05820513 28.6597436,7.75153846 C29.2982051,8.47205128 30.1746154,8.83282051 31.2889744,8.83282051 L31.2889744,8.83282051 Z" id="Fill-4"></path>
                    <path d="M40.9110256,8.81871795 C42.5089744,8.81871795 43.3079487,8.29487179 43.3079487,7.24538462 C43.3079487,6.80717949 43.0020513,6.45589744 42.39,6.19128205 C42.125641,6.08179487 41.8176923,5.98358974 41.4664103,5.89666667 C41.1151282,5.80974359 40.7579487,5.71615385 40.3992308,5.61589744 C40.0382051,5.51615385 39.6815385,5.40153846 39.33,5.27435897 C38.9787179,5.14564103 38.6669231,4.98153846 38.3930769,4.78128205 C37.7905128,4.32487179 37.4902564,3.7225641 37.4902564,2.97461538 C37.4902564,2.17102564 37.7905128,1.51435897 38.3930769,1.0025641 C39.0505128,0.446153846 39.9305128,0.167692308 41.035641,0.167692308 C42.0292308,0.167692308 42.9376923,0.318717949 43.7594872,0.62 C44.014359,0.710769231 44.1428205,0.892820513 44.1428205,1.16692308 C44.1428205,1.30384615 44.0938462,1.43435897 43.9994872,1.55692308 C43.9030769,1.68076923 43.7974359,1.74205128 43.6838462,1.74205128 C43.5687179,1.74205128 43.4120513,1.70615385 43.2115385,1.6325641 C42.6187179,1.42282051 41.9384615,1.31820513 41.1715385,1.31820513 C40.4689744,1.31820513 39.8889744,1.45025641 39.4338462,1.71487179 C38.9674359,1.98871795 38.7348718,2.37692308 38.7348718,2.87820513 C38.7348718,3.39846154 39.0353846,3.79051282 39.6379487,4.05589744 C39.9117949,4.18333333 40.2215385,4.28846154 40.5692308,4.37051282 C40.9166667,4.4525641 41.2717949,4.53948718 41.6364103,4.63025641 C42.0025641,4.72179487 42.3576923,4.82846154 42.7053846,4.95205128 C43.0510256,5.07512821 43.3628205,5.2374359 43.6348718,5.43769231 C44.2371795,5.87589744 44.5394872,6.50589744 44.5394872,7.3274359 C44.5394872,8.1125641 44.224359,8.75076923 43.5951282,9.24384615 C42.9471795,9.74538462 42.0933333,9.99641026 41.035641,9.99641026 C39.8758974,9.99641026 38.7897436,9.7774359 37.7774359,9.33923077 C37.6771795,9.29384615 37.5866667,9.22128205 37.5089744,9.12 C37.4315385,9.02 37.3938462,8.89923077 37.3938462,8.7574359 C37.3938462,8.61692308 37.4428205,8.48820513 37.5451282,8.37384615 C37.6451282,8.26076923 37.7605128,8.20307692 37.8925641,8.20307692 C38.0248718,8.20307692 38.1889744,8.24641026 38.3853846,8.33333333 C38.5820513,8.42025641 38.9033333,8.52307692 39.3507692,8.64128205 C39.7984615,8.76025641 40.3179487,8.81871795 40.9110256,8.81871795" id="Fill-5"></path>
                    <path d="M49.2069231,8.81871795 C50.8033333,8.81871795 51.6020513,8.29487179 51.6020513,7.24538462 C51.6020513,6.80717949 51.2961538,6.45589744 50.6841026,6.19128205 C50.4197436,6.08179487 50.1115385,5.98358974 49.7605128,5.89666667 C49.4089744,5.80974359 49.0538462,5.71615385 48.6933333,5.61589744 C48.3323077,5.51615385 47.9771795,5.40153846 47.6258974,5.27435897 C47.2746154,5.14564103 46.9610256,4.98153846 46.6871795,4.78128205 C46.0866667,4.32487179 45.784359,3.7225641 45.784359,2.97461538 C45.784359,2.17102564 46.0866667,1.51435897 46.6871795,1.0025641 C47.3446154,0.446153846 48.2246154,0.167692308 49.33,0.167692308 C50.3253846,0.167692308 51.2320513,0.318717949 52.0535897,0.62 C52.3087179,0.710769231 52.4369231,0.892820513 52.4369231,1.16692308 C52.4369231,1.30384615 52.3897436,1.43435897 52.2933333,1.55692308 C52.1969231,1.68076923 52.0933333,1.74205128 51.9782051,1.74205128 C51.8646154,1.74205128 51.7079487,1.70615385 51.5058974,1.6325641 C50.9128205,1.42282051 50.2325641,1.31820513 49.4676923,1.31820513 C48.7630769,1.31820513 48.1851282,1.45025641 47.7282051,1.71487179 C47.2633333,1.98871795 47.0310256,2.37692308 47.0310256,2.87820513 C47.0310256,3.39846154 47.3312821,3.79051282 47.9338462,4.05589744 C48.2079487,4.18333333 48.5176923,4.28846154 48.8651282,4.37051282 C49.2107692,4.4525641 49.5679487,4.53948718 49.9323077,4.63025641 C50.2969231,4.72179487 50.6541026,4.82846154 50.9994872,4.95205128 C51.3471795,5.07512821 51.6569231,5.2374359 51.9307692,5.43769231 C52.5333333,5.87589744 52.8338462,6.50589744 52.8338462,7.3274359 C52.8338462,8.1125641 52.52,8.75076923 51.8892308,9.24384615 C51.2415385,9.74538462 50.3876923,9.99641026 49.33,9.99641026 C48.17,9.99641026 47.0858974,9.7774359 46.0715385,9.33923077 C45.9712821,9.29384615 45.8825641,9.22128205 45.8053846,9.12 C45.7276923,9.02 45.6882051,8.89923077 45.6882051,8.7574359 C45.6882051,8.61692308 45.7392308,8.48820513 45.8392308,8.37384615 C45.9392308,8.26076923 46.0564103,8.20307692 46.1887179,8.20307692 C46.3207692,8.20307692 46.4851282,8.24641026 46.6817949,8.33333333 C46.8779487,8.42025641 47.1989744,8.52307692 47.6466667,8.64128205 C48.0923077,8.76025641 48.6138462,8.81871795 49.2069231,8.81871795" id="Fill-6"></path>
                    <path d="M62.4161538,9.03794872 C62.4633333,9.1474359 62.4858974,9.26461538 62.4858974,9.38717949 C62.4858974,9.51025641 62.4310256,9.63205128 62.3217949,9.75 C62.2120513,9.86897436 62.0382051,9.9274359 61.8002564,9.9274359 C61.564359,9.9274359 61.3905128,9.80025641 61.2807692,9.54512821 L60.3910256,7.40974359 L55.7369231,7.40974359 L54.8471795,9.54512821 C54.7376923,9.80025641 54.5638462,9.9274359 54.3279487,9.9274359 C54.0897436,9.9274359 53.9161538,9.86897436 53.8066667,9.75 C53.6969231,9.63205128 53.6420513,9.51025641 53.6420513,9.38717949 C53.6420513,9.26461538 53.6648718,9.1474359 53.7102564,9.03794872 L57.2007692,0.797435897 C57.3653846,0.423589744 57.6297436,0.236666667 57.9961538,0.236666667 L58.1320513,0.236666667 C58.4966667,0.236666667 58.7630769,0.423589744 58.9271795,0.797435897 L62.4161538,9.03794872 L62.4161538,9.03794872 Z M59.9112821,6.27358974 L58.0638462,1.82410256 L56.2166667,6.27358974 L59.9112821,6.27358974 L59.9112821,6.27358974 Z" id="Fill-7"></path>
                </g>
            </g>
        </g>
    </g>
</svg>