<?xml version="1.0" encoding="UTF-8" standalone="no"?>
<svg width="120px" height="100px" viewBox="0 0 120 100" version="1.1" xmlns="http://www.w3.org/2000/svg" xmlns:xlink="http://www.w3.org/1999/xlink" xmlns:sketch="http://www.bohemiancoding.com/sketch/ns">
    <!-- Generator: Sketch 3.4.4 (17249) - http://www.bohemiancoding.com/sketch -->
    <title>open-source</title>
    <desc>Created with Sketch.</desc>
    <defs></defs>
    <g id="Style-Inventory" stroke="none" stroke-width="1" fill="none" fill-rule="evenodd" sketch:type="MSPage">
        <g id="Features" sketch:type="MSArtboardGroup" transform="translate(-660.000000, -1534.000000)">
            <g id="open-source" sketch:type="MSLayerGroup" transform="translate(660.000000, 1534.000000)">
                <g id="feature-11" transform="translate(27.000000, 16.000000)" sketch:type="MSShapeGroup">
                    <path d="M0,26.5689655 L67,26.5689655 L67,67 L0,67 L0,26.5689655 Z" id="Fill-154" fill="#2F4149"></path>
                    <path d="M51.9827586,53.137931 L56.6034483,57.7586207 L54.2931034,60.0689655 L67,60.0689655 L67,46.2068966 L54.2931034,46.2068966 L56.6034483,48.5172414 L51.9827586,53.137931 Z" id="Fill-155" fill="#FFDA71"></path>
                    <path d="M18.1223448,5.77586207 L4.98110345,5.77586207 C4.78241379,5.77586207 4.62068966,5.61413793 4.62068966,5.41544828 L4.62068966,3.24718966 C4.62068966,1.45436207 6.07505172,0 7.86787931,0 L15.235569,0 C17.0283966,0 18.4827586,1.45436207 18.4827586,3.24718966 L18.4827586,5.41544828 C18.4827586,5.61413793 18.3210345,5.77586207 18.1223448,5.77586207" id="Fill-156" fill="#3AB0D5"></path>
                    <path d="M6.93103448,3.46551724 L9.24137931,3.46551724 L9.24137931,5.77586207 L6.93103448,5.77586207 L6.93103448,3.46551724 Z" id="Fill-157" fill="#0097A7"></path>
                    <path d="M10.3965517,3.46551724 L12.7068966,3.46551724 L12.7068966,5.77586207 L10.3965517,5.77586207 L10.3965517,3.46551724 Z" id="Fill-158" fill="#0097A7"></path>
                    <path d="M13.862069,3.46551724 L16.1724138,3.46551724 L16.1724138,5.77586207 L13.862069,5.77586207 L13.862069,3.46551724 Z" id="Fill-159" fill="#0097A7"></path>
                    <path d="M40.0706207,5.77586207 L26.9293793,5.77586207 C26.7306897,5.77586207 26.5689655,5.61413793 26.5689655,5.41544828 L26.5689655,3.24718966 C26.5689655,1.45436207 28.0233276,0 29.8161552,0 L37.1838448,0 C38.9766724,0 40.4310345,1.45436207 40.4310345,3.24718966 L40.4310345,5.41544828 C40.4310345,5.61413793 40.2693103,5.77586207 40.0706207,5.77586207" id="Fill-160" fill="#3AB0D5"></path>
                    <path d="M28.8793103,3.46551724 L31.1896552,3.46551724 L31.1896552,5.77586207 L28.8793103,5.77586207 L28.8793103,3.46551724 Z" id="Fill-161" fill="#0097A7"></path>
                    <path d="M32.3448276,3.46551724 L34.6551724,3.46551724 L34.6551724,5.77586207 L32.3448276,5.77586207 L32.3448276,3.46551724 Z" id="Fill-162" fill="#0097A7"></path>
                    <path d="M35.8103448,3.46551724 L38.1206897,3.46551724 L38.1206897,5.77586207 L35.8103448,5.77586207 L35.8103448,3.46551724 Z" id="Fill-163" fill="#0097A7"></path>
                    <path d="M48.8776552,5.77586207 C48.6789655,5.77586207 48.5172414,5.61413793 48.5172414,5.41544828 L48.5172414,3.24718966 C48.5172414,1.45436207 49.9716034,0 51.764431,0 L59.1321207,0 C60.9249483,0 62.3793103,1.45436207 62.3793103,3.24718966 L62.3793103,5.41544828 C62.3793103,5.61413793 62.2175862,5.77586207 62.0188966,5.77586207 L48.8776552,5.77586207 Z" id="Fill-164" fill="#3AB0D5"></path>
                    <path d="M50.8275862,3.46551724 L53.137931,3.46551724 L53.137931,5.77586207 L50.8275862,5.77586207 L50.8275862,3.46551724 Z" id="Fill-165" fill="#0097A7"></path>
                    <path d="M54.2931034,3.46551724 L56.6034483,3.46551724 L56.6034483,5.77586207 L54.2931034,5.77586207 L54.2931034,3.46551724 Z" id="Fill-166" fill="#0097A7"></path>
                    <path d="M57.7586207,3.46551724 L60.0689655,3.46551724 L60.0689655,5.77586207 L57.7586207,5.77586207 L57.7586207,3.46551724 Z" id="Fill-167" fill="#0097A7"></path>
                    <path d="M64.6896552,26.5689655 L64.6896552,24.5312414 C64.6896552,22.9486552 63.7955517,21.5012241 62.3793103,20.7931034 C60.963069,20.0849828 60.0689655,18.6375517 60.0689655,17.0549655 L60.0689655,5.77586207 L50.8275862,5.77586207 L50.8275862,17.0549655 C50.8275862,18.6375517 49.9334828,20.0849828 48.5172414,20.7931034 C47.101,21.5012241 46.2068966,22.9486552 46.2068966,24.5312414 L46.2068966,26.5689655 L64.6896552,26.5689655" id="Fill-168" fill="#546E7A"></path>
                    <path d="M42.7413793,26.5689655 L42.7413793,24.5312414 C42.7413793,22.9486552 41.8472759,21.5012241 40.4310345,20.7931034 C39.0147931,20.0849828 38.1206897,18.6375517 38.1206897,17.0549655 L38.1206897,5.77586207 L28.8793103,5.77586207 L28.8793103,17.0549655 C28.8793103,18.6375517 27.9852069,20.0849828 26.5689655,20.7931034 C25.1527241,21.5012241 24.2586207,22.9486552 24.2586207,24.5312414 L24.2586207,26.5689655 L42.7413793,26.5689655" id="Fill-169" fill="#546E7A"></path>
                    <path d="M20.7931034,26.5689655 L20.7931034,24.5312414 C20.7931034,22.9486552 19.899,21.5012241 18.4827586,20.7931034 C17.0665172,20.0849828 16.1724138,18.6375517 16.1724138,17.0549655 L16.1724138,5.77586207 L6.93103448,5.77586207 L6.93103448,17.0549655 C6.93103448,18.6375517 6.03693103,20.0849828 4.62068966,20.7931034 C3.20444828,21.5012241 2.31034483,22.9486552 2.31034483,24.5312414 L2.31034483,26.5689655 L20.7931034,26.5689655" id="Fill-170" fill="#546E7A"></path>
                    <path d="M0,62.3793103 L11.5517241,62.3793103 L11.5517241,64.6896552 L0,64.6896552 L0,62.3793103 Z" id="Fill-245" fill="#FFDA71"></path>
                    <path d="M0,58.9137931 L9.24137931,58.9137931 L9.24137931,61.2241379 L0,61.2241379 L0,58.9137931 Z" id="Fill-246" fill="#FFDA71"></path>
                    <path d="M0,55.4482759 L6.93103448,55.4482759 L6.93103448,57.7586207 L0,57.7586207 L0,55.4482759 Z" id="Fill-247" fill="#FFDA71"></path>
                    <path d="M0,51.9827586 L4.62068966,51.9827586 L4.62068966,54.2931034 L0,54.2931034 L0,51.9827586 Z" id="Fill-248" fill="#FFDA71"></path>
                </g>
                <rect id="Rectangle-273" fill-opacity="0.01" fill="#FFFFFF" sketch:type="MSShapeGroup" x="0" y="0" width="120" height="100"></rect>
            </g>
        </g>
    </g>
</svg>