<?xml version="1.0" encoding="UTF-8" standalone="no"?>
<svg width="120px" height="100px" viewBox="0 0 120 100" version="1.1" xmlns="http://www.w3.org/2000/svg" xmlns:xlink="http://www.w3.org/1999/xlink" xmlns:sketch="http://www.bohemiancoding.com/sketch/ns">
    <!-- Generator: Sketch 3.4.4 (17249) - http://www.bohemiancoding.com/sketch -->
    <title>open-science</title>
    <desc>Created with Sketch.</desc>
    <defs></defs>
    <g id="Style-Inventory" stroke="none" stroke-width="1" fill="none" fill-rule="evenodd" sketch:type="MSPage">
        <g id="Features" sketch:type="MSArtboardGroup" transform="translate(-259.000000, -1269.000000)">
            <g id="open-science" sketch:type="MSLayerGroup" transform="translate(259.000000, 1269.000000)">
                <g id="feature-9-copy" transform="translate(21.000000, 8.000000)" sketch:type="MSShapeGroup">
                    <g id="feature-9" transform="translate(0.672727, 1.022990)">
                        <path d="M22.1657935,11.1539225 L16.0086287,11.1539225 C15.3288777,11.1539225 14.7771957,10.5987051 14.7771957,9.91459782 C14.7771957,9.23049057 15.3288777,8.67527309 16.0086287,8.67527309 L22.1657935,8.67527309 C22.8455445,8.67527309 23.3972265,9.23049057 23.3972265,9.91459782 C23.3972265,10.5987051 22.8455445,11.1539225 22.1657935,11.1539225" id="Fill-33" fill="#8AA6B4"></path>
                        <path d="M56.6459168,11.1539225 L50.4887519,11.1539225 C49.8090009,11.1539225 49.257319,10.5987051 49.257319,9.91459782 C49.257319,9.23049057 49.8090009,8.67527309 50.4887519,8.67527309 L56.6459168,8.67527309 C57.3256678,8.67527309 57.8773498,9.23049057 57.8773498,9.91459782 C57.8773498,10.5987051 57.3256678,11.1539225 56.6459168,11.1539225" id="Fill-34" fill="#8AA6B4"></path>
                        <path d="M49.8360924,47.0943396 L22.818453,47.0943396 C21.7778921,47.0943396 20.9343606,46.2454022 20.9343606,45.1981728 L20.9343606,25.4433366 C20.9343606,24.3961072 21.7778921,23.5471698 22.818453,23.5471698 L49.8360924,23.5471698 C50.8766533,23.5471698 51.7201849,24.3961072 51.7201849,25.4433366 L51.7201849,45.1981728 C51.7201849,46.2454022 50.8766533,47.0943396 49.8360924,47.0943396" id="Fill-49" fill="#8AA6B4"></path>
                        <path d="M29.5543914,17.3505462 L43.1001541,17.3505462 L43.1001541,23.5471698 L29.5543914,23.5471698 L29.5543914,17.3505462 Z" id="Fill-50" fill="#C0D3DC"></path>
                        <path d="M46.794453,17.3505462 L25.8600924,17.3505462 L25.8600924,3.24579146 C25.8600924,1.4537279 27.3045633,0 29.0852154,0 L43.56933,0 C45.3499821,0 46.794453,1.4537279 46.794453,3.24579146 L46.794453,17.3505462" id="Fill-51" fill="#8AA6B4"></path>
                        <path d="M33.2486903,4.95729891 C33.2486903,5.64140616 32.6970083,6.19662363 32.0172573,6.19662363 C31.3375063,6.19662363 30.7858243,5.64140616 30.7858243,4.95729891 C30.7858243,4.27319166 31.3375063,3.71797418 32.0172573,3.71797418 C32.6970083,3.71797418 33.2486903,4.27319166 33.2486903,4.95729891" id="Fill-52" fill="#546E7A"></path>
                        <path d="M41.8687211,4.95729891 C41.8687211,5.64140616 41.3170391,6.19662363 40.6372881,6.19662363 C39.9575371,6.19662363 39.4058552,5.64140616 39.4058552,4.95729891 C39.4058552,4.27319166 39.9575371,3.71797418 40.6372881,3.71797418 C41.3170391,3.71797418 41.8687211,4.27319166 41.8687211,4.95729891" id="Fill-53" fill="#546E7A"></path>
                        <path d="M25.8600924,14.8718967 L22.1657935,13.632572 L22.1657935,6.19662363 L25.8600924,4.95729891 L25.8600924,14.8718967" id="Fill-54" fill="#C0D3DC"></path>
                        <path d="M46.794453,14.8718967 L50.4887519,13.632572 L50.4887519,6.19662363 L46.794453,4.95729891 L46.794453,14.8718967" id="Fill-55" fill="#C0D3DC"></path>
                        <path d="M4.9257319,49.5729891 L9.85146379,49.5729891 C9.85146379,41.3723774 12.7859686,34.7010924 20.9343606,34.7010924 L20.9343606,29.7437934 C10.0706589,29.7437934 4.9257319,38.6396663 4.9257319,49.5729891" id="Fill-56" fill="#C0D3DC"></path>
                        <path d="M41.9713405,35.3404117 C41.9713405,38.4845658 39.4383745,41.0337646 36.3142417,41.0337646 C33.1901089,41.0337646 30.6571429,38.4845658 30.6571429,35.3404117 C30.6571429,32.1962576 33.1901089,29.6470588 36.3142417,29.6470588 C39.4383745,29.6470588 41.9713405,32.1962576 41.9713405,35.3404117" id="Fill-57" fill="#546E7A"></path>
                        <path d="M3.69553035,61.968715 C3.4393923,61.968715 3.17955994,61.8881589 2.957902,61.72085 C1.07750385,60.3018232 0,58.1317656 0,55.7696127 C0,51.6686872 3.31378613,48.3336643 7.38859784,48.3336643 C11.4634096,48.3336643 14.7771957,51.6686872 14.7771957,55.7696127 C14.7771957,58.1305263 13.6996918,60.2981053 11.822988,61.7183714 C11.2774632,62.1285879 10.5065861,62.018288 10.0977504,61.4717458 C9.69014607,60.9239643 9.79974361,60.1469076 10.3428055,59.7354518 C11.5964043,58.7886077 12.3143297,57.3435551 12.3143297,55.7696127 C12.3143297,53.0356624 10.105139,50.8123138 7.38859784,50.8123138 C4.6720567,50.8123138 2.46286595,53.0356624 2.46286595,55.7696127 C2.46286595,57.3447944 3.1820228,58.7910864 4.43562157,59.7379305 C4.97991495,60.1493863 5.09074391,60.9252036 4.68190817,61.4729851 C4.4405473,61.7976882 4.07111741,61.968715 3.69553035,61.968715" id="Fill-61" fill="#8AA6B4"></path>
                        <path d="M67.7288136,49.5729891 L62.8030817,49.5729891 C62.8030817,41.3723774 59.8685769,34.7010924 51.7201849,34.7010924 L51.7201849,29.7437934 C62.5838866,29.7437934 67.7288136,38.6396663 67.7288136,49.5729891" id="Fill-62" fill="#C0D3DC"></path>
                        <path d="M68.9577837,61.968715 C68.583428,61.968715 68.2139982,61.7976882 67.9726373,61.4729851 C67.5638015,60.9252036 67.6746305,60.1493863 68.2176924,59.7379305 C69.4725227,58.7910864 70.1916795,57.3447944 70.1916795,55.7696127 C70.1916795,53.0356624 67.9824888,50.8123138 65.2659476,50.8123138 C62.5494065,50.8123138 60.3402157,53.0356624 60.3402157,55.7696127 C60.3402157,57.3435551 61.0581411,58.7886077 62.3117399,59.7354518 C62.8548018,60.1469076 62.9643994,60.9239643 62.5567951,61.4717458 C62.1467279,62.018288 61.3770823,62.1285879 60.8315575,61.7183714 C58.9548536,60.2981053 57.8773498,58.1305263 57.8773498,55.7696127 C57.8773498,51.6686872 61.1911359,48.3336643 65.2659476,48.3336643 C69.3407593,48.3336643 72.6545455,51.6686872 72.6545455,55.7696127 C72.6545455,58.1317656 71.5770416,60.3018232 69.6966435,61.72085 C69.4749855,61.8881589 69.2151532,61.968715 68.9577837,61.968715" id="Fill-63" fill="#8AA6B4"></path>
                        <path d="M32.0172573,70.6415094 L20.7533399,70.6415094 C19.493584,70.6415094 18.4714946,69.6128699 18.4714946,68.3450407 L18.4714946,66.7413545 C18.4714946,65.472286 19.493584,64.4448858 20.7533399,64.4448858 L32.0172573,64.4448858 L32.0172573,70.6415094" id="Fill-64" fill="#8AA6B4"></path>
                        <path d="M51.9012055,70.6415094 L40.6372881,70.6415094 L40.6372881,64.4448858 L51.9012055,64.4448858 C53.1609615,64.4448858 54.1830508,65.472286 54.1830508,66.7413545 L54.1830508,68.3450407 C54.1830508,69.6128699 53.1609615,70.6415094 51.9012055,70.6415094" id="Fill-65" fill="#8AA6B4"></path>
                        <path d="M36.3272727,14.8718967 C33.0652068,14.8718967 30.7858243,12.8332075 30.7858243,9.91459782 C30.7858243,9.23049057 31.3375063,8.67527309 32.0172573,8.67527309 C32.6970083,8.67527309 33.2486903,9.23049057 33.2486903,9.91459782 C33.2486903,11.7426018 34.8397017,12.3932473 36.3272727,12.3932473 C37.8148438,12.3932473 39.4058552,11.7426018 39.4058552,9.91459782 C39.4058552,9.23049057 39.9575371,8.67527309 40.6372881,8.67527309 C41.3170391,8.67527309 41.8687211,9.23049057 41.8687211,9.91459782 C41.8687211,12.8332075 39.5893387,14.8718967 36.3272727,14.8718967" id="Fill-66" fill="#546E7A"></path>
                        <path d="M19.7029276,52.0516385 L27.0915254,52.0516385 L27.0915254,58.2482622 L19.7029276,58.2482622 L19.7029276,52.0516385 Z" id="Fill-67" fill="#8AA6B4"></path>
                        <path d="M45.56302,52.0516385 L52.9516179,52.0516385 L52.9516179,58.2482622 L45.56302,58.2482622 L45.56302,52.0516385 Z" id="Fill-68" fill="#8AA6B4"></path>
                        <path d="M45.56302,58.2482622 L45.56302,52.0516385 L49.257319,52.0516385 L49.257319,47.0943396 L40.6372881,47.0943396 L40.6372881,64.4448858 L49.257319,64.4448858 L49.257319,58.2482622 L45.56302,58.2482622" id="Fill-69" fill="#C0D3DC"></path>
                        <path d="M23.3972265,47.0943396 L23.3972265,52.0516385 L27.0915254,52.0516385 L27.0915254,58.2482622 L23.3972265,58.2482622 L23.3972265,64.4448858 L32.0172573,64.4448858 L32.0172573,47.0943396 L23.3972265,47.0943396" id="Fill-70" fill="#C0D3DC"></path>
                        <path d="M64.0345146,9.91459782 C64.0345146,11.9681589 62.3807002,13.632572 60.3402157,13.632572 C58.2997313,13.632572 56.6459168,11.9681589 56.6459168,9.91459782 C56.6459168,7.86103674 58.2997313,6.19662363 60.3402157,6.19662363 C62.3807002,6.19662363 64.0345146,7.86103674 64.0345146,9.91459782" id="Fill-71" fill="#C0D3DC"></path>
                        <path d="M16.0086287,9.91459782 C16.0086287,11.9681589 14.3548142,13.632572 12.3143297,13.632572 C10.2738453,13.632572 8.62003082,11.9681589 8.62003082,9.91459782 C8.62003082,7.86103674 10.2738453,6.19662363 12.3143297,6.19662363 C14.3548142,6.19662363 16.0086287,7.86103674 16.0086287,9.91459782" id="Fill-72" fill="#C0D3DC"></path>
                    </g>
                </g>
                <rect id="Rectangle-273" fill-opacity="0.01" fill="#FFFFFF" sketch:type="MSShapeGroup" x="0" y="0" width="120" height="100"></rect>
            </g>
        </g>
    </g>
</svg>