<?xml version="1.0" encoding="UTF-8" standalone="no"?>
<svg width="42px" height="33px" viewBox="0 0 42 33" version="1.1" xmlns="http://www.w3.org/2000/svg" xmlns:xlink="http://www.w3.org/1999/xlink" xmlns:sketch="http://www.bohemiancoding.com/sketch/ns">
    <!-- Generator: Sketch 3.3.3 (12072) - http://www.bohemiancoding.com/sketch -->
    <title>Private</title>
    <desc>Created with Sketch.</desc>
    <defs></defs>
    <g id="Page-1" stroke="none" stroke-width="1" fill="none" fill-rule="evenodd" sketch:type="MSPage">
        <g id="Home" sketch:type="MSArtboardGroup" transform="translate(-335.000000, -994.000000)">
            <g id="Private" sketch:type="MSLayerGroup" transform="translate(334.910789, 993.025757)">
                <g id="27---Football-Helmet-(Flat)-Copy-2" transform="translate(0.401699, 0.519620)" sketch:type="MSShapeGroup">
                    <path d="M11.0445777,2.37365159 C1.67422512,6.54504296 -1.16349321,17.3812785 2.46614652,26.9242383 C2.70286215,27.5463386 3.39794534,27.8545019 4.0033635,27.5845884 L6.73204918,26.3699773 C8.08993614,25.7659195 9.64365149,26.2075962 10.5826235,27.3644717 C13.1549334,30.5319867 17.6030354,31.7191733 21.5009528,29.9842209 C28.2495004,26.9790871 26.02796,22.9881192 26.0781724,19.4619223 C26.0810417,19.2757253 26.0918015,19.0909716 26.1097345,18.9069396 C26.3995318,15.9220132 28.8513319,13.6068188 31.8066908,13.2106088 L37.2274788,12.4838629 C37.7303202,12.4167454 38.0057711,11.8660929 37.7719247,11.412869 C33.0591317,2.26323241 20.4723158,-1.82444245 11.0445777,2.37365159" id="Fill-1387" fill="#3D74B5"></path>
                    <path d="M22.4205572,21.6861832 C22.4205572,24.2597441 20.3475021,26.3454398 17.7902559,26.3454398 C15.2330097,26.3454398 13.1599546,24.2597441 13.1599546,21.6861832 C13.1599546,19.1133441 15.2330097,17.0276484 17.7902559,17.0276484 C20.3475021,17.0276484 22.4205572,19.1133441 22.4205572,21.6861832" id="Fill-1388" fill="#546A79"></path>
                    <path d="M17.7902559,27.0671338 C14.841353,27.0671338 12.4426345,24.6530673 12.4426345,21.6869049 C12.4426345,18.7192992 14.841353,16.3059544 17.7902559,16.3059544 C20.7391589,16.3059544 23.1378773,18.7192992 23.1378773,21.6869049 C23.1378773,24.6530673 20.7391589,27.0671338 17.7902559,27.0671338 L17.7902559,27.0671338 Z M17.7902559,17.7493424 C15.632557,17.7493424 13.8772747,19.5153277 13.8772747,21.6869049 C13.8772747,23.8577605 15.632557,25.6237457 17.7902559,25.6237457 C19.9479548,25.6237457 21.7032371,23.8577605 21.7032371,21.6869049 C21.7032371,19.5153277 19.9479548,17.7493424 17.7902559,17.7493424 L17.7902559,17.7493424 Z" id="Fill-1389" fill="#ECF0F1"></path>
                    <path d="M4.0033635,27.5845884 C3.39794534,27.8545019 2.70286215,27.5463386 2.46614652,26.9242383 C2.16272012,26.1267665 1.92170056,25.3191909 1.70865649,24.5087285 L1.57093103,24.5693508 C0.474148589,25.0521641 -0.0258235238,26.3375011 0.454063626,27.4402496 L2.2158018,31.4925614 C2.44462692,32.0201197 3.11747317,32.1716755 3.54858256,31.7927861 L6.21414407,29.4508891 L4.94377016,27.1660058 L4.0033635,27.5845884" id="Fill-1390" fill="#38454F"></path>
                    <path d="M8.6379687,23.2392687 L7.76212085,23.2392687 C6.97019946,23.2392687 6.32748064,22.5933526 6.32748064,21.7958807 L6.32748064,20.9146923 C6.32748064,20.1179422 6.97019946,19.4713043 7.76212085,19.4713043 L8.6379687,19.4713043 C9.43060742,19.4713043 10.0726089,20.1179422 10.0726089,20.9146923 L10.0726089,21.7958807 C10.0726089,22.5933526 9.43060742,23.2392687 8.6379687,23.2392687" id="Fill-1391" fill="#ECF0F1"></path>
                    <path d="M30.76299,21.1521297 C30.4545424,21.0279983 30.1303137,20.9644892 29.7974771,20.9644892 L20.2922684,20.9644892 C19.5878601,20.9644892 18.9659436,21.3910104 18.706991,22.0506387 C18.4760139,22.6409844 18.5850466,23.2948392 18.98029,23.7726006 C20.369739,28.1814293 27.29403,33.1979244 30.9007155,33.1979244 L39.00715,33.1979244 C40.4633098,33.1979244 41.6045661,32.0857939 41.6045661,30.6655001 L41.6045661,25.8712868 L30.76299,21.1521297 L30.76299,21.1521297 Z M40.1699259,28.5805261 L30.9007155,26.826088 L30.9007155,22.7846015 L40.1699259,26.8195927 L40.1699259,28.5805261 L40.1699259,28.5805261 Z M29.4660753,26.2913127 L21.1960918,22.4078772 L29.4660753,22.4078772 L29.4660753,26.2913127 L29.4660753,26.2913127 Z M20.4759024,23.6629031 L29.4660753,27.8840914 L29.4660753,31.4687455 C26.4353978,30.4648691 21.7247567,26.9105262 20.4759024,23.6629031 L20.4759024,23.6629031 Z M39.00715,31.7545363 L30.9007155,31.7545363 L30.9007155,28.2738061 L40.1699259,30.0484517 L40.1699259,30.6655001 C40.1699259,31.2861569 39.6699537,31.7545363 39.00715,31.7545363 L39.00715,31.7545363 Z" id="Fill-1392" fill="#38454F"></path>
                </g>
            </g>
        </g>
    </g>
</svg>