<?xml version="1.0" encoding="UTF-8" standalone="no"?>
<svg width="75px" height="75px" viewBox="0 0 75 75" version="1.1" xmlns="http://www.w3.org/2000/svg" xmlns:xlink="http://www.w3.org/1999/xlink" xmlns:sketch="http://www.bohemiancoding.com/sketch/ns">
    <!-- Generator: Sketch 3.3.3 (12072) - http://www.bohemiancoding.com/sketch -->
    <title>private</title>
    <desc>Created with Sketch.</desc>
    <defs></defs>
    <g id="Page-1" stroke="none" stroke-width="1" fill="none" fill-rule="evenodd" sketch:type="MSPage">
        <g id="Home" sketch:type="MSArtboardGroup" transform="translate(-168.000000, -982.000000)">
            <g id="private" sketch:type="MSLayerGroup" transform="translate(167.616667, 981.014706)">
                <circle id="Oval-51-Copy-6" fill="#FFFFFF" sketch:type="MSShapeGroup" cx="37.8833333" cy="38.4852941" r="37.5"></circle>
                <g id="Combination-Lock" transform="translate(19.000000, 4.000000)" sketch:type="MSShapeGroup">
                    <path d="M33.8931624,21.288929 L30.0196581,21.288929 L30.0196581,14.990782 C30.0196581,8.89545984 25.023806,3.93634191 18.8833333,3.93634191 C12.7428607,3.93634191 7.74700855,8.89545984 7.74700855,14.990782 L7.74700855,21.288929 L3.87350427,21.288929 L3.87350427,14.990782 C3.87350427,6.77492986 10.6066231,0.0913192873 18.8833333,0.0913192873 C27.1600436,0.0913192873 33.8931624,6.77492986 33.8931624,14.990782 L33.8931624,21.288929" id="Fill-2559" fill="#556080"></path>
                    <path d="M30.9880342,49.1643818 L6.77863248,49.1643818 C3.0348906,49.1643818 0,46.1518066 0,42.4365535 L0,21.288929 L37.7666667,21.288929 L37.7666667,42.4365535 C37.7666667,46.1518066 34.7317761,49.1643818 30.9880342,49.1643818" id="Fill-2565" fill="#97A5AF"></path>
                    <path d="M6.77863248,49.1643818 L18.3991453,49.1643818 L18.3991453,21.288929 L0,21.288929 L0,42.4365535 C0,46.1518066 3.0348906,49.1643818 6.77863248,49.1643818" id="Fill-2566" fill="#ABBCC6"></path>
                    <path d="M30.9880342,49.1643818 L6.77863248,49.1643818 C3.0348906,49.1643818 0,46.1518066 0,42.4365535 L37.7666667,42.4365535 C37.7666667,46.1518066 34.7317761,49.1643818 30.9880342,49.1643818" id="Fill-2576" fill="#3D74B5"></path>
                    <path d="M25.1777778,26.094246 L30.0196581,26.094246 L30.0196581,37.6293139 L25.1777778,37.6293139 L25.1777778,26.094246 Z" id="Fill-2577" fill="#556080"></path>
                    <path d="M16.4623932,26.094246 L21.3042735,26.094246 L21.3042735,37.6293139 L16.4623932,37.6293139 L16.4623932,26.094246 Z" id="Fill-2578" fill="#556080"></path>
                    <path d="M7.74700855,26.094246 L12.5888889,26.094246 L12.5888889,37.6293139 L7.74700855,37.6293139 L7.74700855,26.094246 Z" id="Fill-2579" fill="#556080"></path>
                    <path d="M8.71538462,27.056463 L11.6205128,27.056463 L11.6205128,28.9789743 L8.71538462,28.9789743 L8.71538462,27.056463 Z" id="Fill-2651" fill="#313847"></path>
                    <path d="M8.71538462,30.9014856 L11.6205128,30.9014856 L11.6205128,32.8239969 L8.71538462,32.8239969 L8.71538462,30.9014856 Z" id="Fill-2652" fill="#313847"></path>
                    <path d="M8.71538462,34.7455469 L11.6205128,34.7455469 L11.6205128,36.6680583 L8.71538462,36.6680583 L8.71538462,34.7455469 Z" id="Fill-2653" fill="#3D74B5"></path>
                    <path d="M17.4307692,27.056463 L20.3358974,27.056463 L20.3358974,28.9789743 L17.4307692,28.9789743 L17.4307692,27.056463 Z" id="Fill-2654" fill="#313847"></path>
                    <path d="M17.4307692,30.9014856 L20.3358974,30.9014856 L20.3358974,32.8239969 L17.4307692,32.8239969 L17.4307692,30.9014856 Z" id="Fill-2655" fill="#3D74B5"></path>
                    <path d="M17.4307692,34.7455469 L20.3358974,34.7455469 L20.3358974,36.6680583 L17.4307692,36.6680583 L17.4307692,34.7455469 Z" id="Fill-2656" fill="#313847"></path>
                    <path d="M26.1461538,27.056463 L29.0512821,27.056463 L29.0512821,28.9789743 L26.1461538,28.9789743 L26.1461538,27.056463 Z" id="Fill-2657" fill="#313847"></path>
                    <path d="M26.1461538,30.9014856 L29.0512821,30.9014856 L29.0512821,32.8239969 L26.1461538,32.8239969 L26.1461538,30.9014856 Z" id="Fill-2658" fill="#313847"></path>
                    <path d="M26.1461538,34.7455469 L29.0512821,34.7455469 L29.0512821,36.6680583 L26.1461538,36.6680583 L26.1461538,34.7455469 Z" id="Fill-2659" fill="#3D74B5"></path>
                    <path d="M0,42.4365535 C0,46.1518066 3.0348906,49.1643818 6.77863248,49.1643818 L18.3991453,49.1643818 L18.3991453,42.4365535 L0,42.4365535" id="Fill-2672" fill="#618FC7"></path>
                </g>
            </g>
        </g>
    </g>
</svg>