<?xml version="1.0" encoding="UTF-8" standalone="no"?>
<svg width="31px" height="41px" viewBox="0 0 31 41" version="1.1" xmlns="http://www.w3.org/2000/svg" xmlns:xlink="http://www.w3.org/1999/xlink" xmlns:sketch="http://www.bohemiancoding.com/sketch/ns">
    <!-- Generator: Sketch 3.3.3 (12072) - http://www.bohemiancoding.com/sketch -->
    <title>private</title>
    <desc>Created with Sketch.</desc>
    <defs></defs>
    <g id="Page-1" stroke="none" stroke-width="1" fill="none" fill-rule="evenodd" sketch:type="MSPage">
        <g id="Home" sketch:type="MSArtboardGroup" transform="translate(-197.000000, -989.000000)">
            <g id="private" sketch:type="MSLayerGroup" transform="translate(197.033333, 989.014706)">
                <g id="Combination-Lock" sketch:type="MSShapeGroup">
                    <path d="M27.7905983,17.4557944 L24.6145299,17.4557944 L24.6145299,12.2916473 C24.6145299,7.293806 20.5181957,3.22759191 15.4833333,3.22759191 C10.4484709,3.22759191 6.35213675,7.293806 6.35213675,12.2916473 L6.35213675,17.4557944 L3.17606838,17.4557944 L3.17606838,12.2916473 C3.17606838,5.55508371 8.69686923,0.0748769796 15.4833333,0.0748769796 C22.2697974,0.0748769796 27.7905983,5.55508371 27.7905983,12.2916473 L27.7905983,17.4557944" id="Fill-2559" fill="#556080"></path>
                    <path d="M25.408547,40.3121895 L5.55811966,40.3121895 C2.48844957,40.3121895 0,37.8420373 0,34.7957265 L0,17.4557944 L30.9666667,17.4557944 L30.9666667,34.7957265 C30.9666667,37.8420373 28.4782171,40.3121895 25.408547,40.3121895" id="Fill-2565" fill="#97A5AF"></path>
                    <path d="M5.55811966,40.3121895 L15.0863248,40.3121895 L15.0863248,17.4557944 L0,17.4557944 L0,34.7957265 C0,37.8420373 2.48844957,40.3121895 5.55811966,40.3121895" id="Fill-2566" fill="#ABBCC6"></path>
                    <path d="M25.408547,40.3121895 L5.55811966,40.3121895 C2.48844957,40.3121895 0,37.8420373 0,34.7957265 L30.9666667,34.7957265 C30.9666667,37.8420373 28.4782171,40.3121895 25.408547,40.3121895" id="Fill-2576" fill="#3D74B5"></path>
                    <path d="M20.6444444,21.3958999 L24.6145299,21.3958999 L24.6145299,30.8540447 L20.6444444,30.8540447 L20.6444444,21.3958999 Z" id="Fill-2577" fill="#556080"></path>
                    <path d="M13.4982906,21.3958999 L17.4683761,21.3958999 L17.4683761,30.8540447 L13.4982906,30.8540447 L13.4982906,21.3958999 Z" id="Fill-2578" fill="#556080"></path>
                    <path d="M6.35213675,21.3958999 L10.3222222,21.3958999 L10.3222222,30.8540447 L6.35213675,30.8540447 L6.35213675,21.3958999 Z" id="Fill-2579" fill="#556080"></path>
                    <path d="M7.14615385,22.1848668 L9.52820513,22.1848668 L9.52820513,23.7612243 L7.14615385,23.7612243 L7.14615385,22.1848668 Z" id="Fill-2651" fill="#313847"></path>
                    <path d="M7.14615385,25.3375817 L9.52820513,25.3375817 L9.52820513,26.9139392 L7.14615385,26.9139392 L7.14615385,25.3375817 Z" id="Fill-2652" fill="#313847"></path>
                    <path d="M7.14615385,28.4895085 L9.52820513,28.4895085 L9.52820513,30.065866 L7.14615385,30.065866 L7.14615385,28.4895085 Z" id="Fill-2653" fill="#3D74B5"></path>
                    <path d="M14.2923077,22.1848668 L16.674359,22.1848668 L16.674359,23.7612243 L14.2923077,23.7612243 L14.2923077,22.1848668 Z" id="Fill-2654" fill="#313847"></path>
                    <path d="M14.2923077,25.3375817 L16.674359,25.3375817 L16.674359,26.9139392 L14.2923077,26.9139392 L14.2923077,25.3375817 Z" id="Fill-2655" fill="#3D74B5"></path>
                    <path d="M14.2923077,28.4895085 L16.674359,28.4895085 L16.674359,30.065866 L14.2923077,30.065866 L14.2923077,28.4895085 Z" id="Fill-2656" fill="#313847"></path>
                    <path d="M21.4384615,22.1848668 L23.8205128,22.1848668 L23.8205128,23.7612243 L21.4384615,23.7612243 L21.4384615,22.1848668 Z" id="Fill-2657" fill="#313847"></path>
                    <path d="M21.4384615,25.3375817 L23.8205128,25.3375817 L23.8205128,26.9139392 L21.4384615,26.9139392 L21.4384615,25.3375817 Z" id="Fill-2658" fill="#313847"></path>
                    <path d="M21.4384615,28.4895085 L23.8205128,28.4895085 L23.8205128,30.065866 L21.4384615,30.065866 L21.4384615,28.4895085 Z" id="Fill-2659" fill="#3D74B5"></path>
                    <path d="M0,34.7957265 C0,37.8420373 2.48844957,40.3121895 5.55811966,40.3121895 L15.0863248,40.3121895 L15.0863248,34.7957265 L0,34.7957265" id="Fill-2672" fill="#618FC7"></path>
                </g>
            </g>
        </g>
    </g>
</svg>