<?xml version="1.0" encoding="UTF-8" standalone="no"?>
<svg width="120px" height="100px" viewBox="0 0 120 100" version="1.1" xmlns="http://www.w3.org/2000/svg" xmlns:xlink="http://www.w3.org/1999/xlink" xmlns:sketch="http://www.bohemiancoding.com/sketch/ns">
    <!-- Generator: Sketch 3.4.4 (17249) - http://www.bohemiancoding.com/sketch -->
    <title>private</title>
    <desc>Created with Sketch.</desc>
    <defs></defs>
    <g id="Style-Inventory" stroke="none" stroke-width="1" fill="none" fill-rule="evenodd" sketch:type="MSPage">
        <g id="Features" sketch:type="MSArtboardGroup" transform="translate(-259.000000, -404.000000)">
            <g id="private" sketch:type="MSLayerGroup" transform="translate(259.000000, 404.000000)">
                <rect id="Bound" fill-opacity="0.01" fill="#FFFFFF" sketch:type="MSShapeGroup" x="0" y="0" width="120" height="100"></rect>
                <g id="Combination-Lock" transform="translate(33.000000, 14.000000)" sketch:type="MSShapeGroup">
                    <path d="M47.8491704,30.1086282 L42.3806938,30.1086282 L42.3806938,21.2012488 C42.3806938,12.5807218 35.3277261,5.56711213 26.6588235,5.56711213 C17.989921,5.56711213 10.9369532,12.5807218 10.9369532,21.2012488 L10.9369532,30.1086282 L5.46847662,30.1086282 L5.46847662,21.2012488 C5.46847662,9.58168652 14.9740561,0.129151564 26.6588235,0.129151564 C38.343591,0.129151564 47.8491704,9.58168652 47.8491704,21.2012488 L47.8491704,30.1086282" id="Fill-2559" fill="#2F4149"></path>
                    <path d="M43.747813,69.5324828 L9.56983409,69.5324828 C4.28455143,69.5324828 0,65.2718407 0,60.0174113 L0,30.1086282 L53.3176471,30.1086282 L53.3176471,60.0174113 C53.3176471,65.2718407 49.0330956,69.5324828 43.747813,69.5324828" id="Fill-2565" fill="#8AA7B4"></path>
                    <path d="M25.975264,69.5324828 L25.975264,30.1086282 L0,30.1086282 L0,60.0174113 C0,65.2718407 4.28455143,69.5324828 9.56983409,69.5324828 L25.975264,69.5324828 Z" id="Fill-2566" fill="#C0D3DC"></path>
                    <path d="M43.747813,69.5324828 L9.56983409,69.5324828 C4.28455143,69.5324828 0,65.2718407 0,60.0174113 L53.3176471,60.0174113 C53.3176471,65.2718407 49.0330956,69.5324828 43.747813,69.5324828" id="Fill-2576" fill="#2F4149"></path>
                    <path d="M35.545098,36.9047194 L42.3806938,36.9047194 L42.3806938,53.2186011 L35.545098,53.2186011 L35.545098,36.9047194 Z" id="Fill-2577" fill="#2F4149"></path>
                    <path d="M23.2410256,36.9047194 L30.0766214,36.9047194 L30.0766214,53.2186011 L23.2410256,53.2186011 L23.2410256,36.9047194 Z" id="Fill-2578" fill="#2F4149"></path>
                    <path d="M10.9369532,36.9047194 L17.772549,36.9047194 L17.772549,53.2186011 L10.9369532,53.2186011 L10.9369532,36.9047194 Z" id="Fill-2579" fill="#2F4149"></path>
                    <path d="M12.3040724,38.265569 L16.4054299,38.265569 L16.4054299,40.9845493 L12.3040724,40.9845493 L12.3040724,38.265569 Z" id="Fill-2651" fill="#627077"></path>
                    <path d="M12.3040724,43.7035296 L16.4054299,43.7035296 L16.4054299,46.4225099 L12.3040724,46.4225099 L12.3040724,43.7035296 Z" id="Fill-2652" fill="#627077"></path>
                    <path d="M12.3040724,49.1401307 L16.4054299,49.1401307 L16.4054299,51.859111 L12.3040724,51.859111 L12.3040724,49.1401307 Z" id="Fill-2653" fill="#F88B1C"></path>
                    <path d="M24.6081448,38.265569 L28.7095023,38.265569 L28.7095023,40.9845493 L24.6081448,40.9845493 L24.6081448,38.265569 Z" id="Fill-2654" fill="#627077"></path>
                    <path d="M24.6081448,43.7035296 L28.7095023,43.7035296 L28.7095023,46.4225099 L24.6081448,46.4225099 L24.6081448,43.7035296 Z" id="Fill-2655" fill="#F88B1C"></path>
                    <path d="M24.6081448,49.1401307 L28.7095023,49.1401307 L28.7095023,51.859111 L24.6081448,51.859111 L24.6081448,49.1401307 Z" id="Fill-2656" fill="#627077"></path>
                    <path d="M36.9122172,38.265569 L41.0135747,38.265569 L41.0135747,40.9845493 L36.9122172,40.9845493 L36.9122172,38.265569 Z" id="Fill-2657" fill="#627077"></path>
                    <path d="M36.9122172,43.7035296 L41.0135747,43.7035296 L41.0135747,46.4225099 L36.9122172,46.4225099 L36.9122172,43.7035296 Z" id="Fill-2658" fill="#627077"></path>
                    <path d="M36.9122172,49.1401307 L41.0135747,49.1401307 L41.0135747,51.859111 L36.9122172,51.859111 L36.9122172,49.1401307 Z" id="Fill-2659" fill="#F88B1C"></path>
                    <path d="M0,60.0174113 C0,65.2718407 4.28455143,69.5324828 9.56983409,69.5324828 L25.975264,69.5324828 L25.975264,60.0174113 L0,60.0174113" id="Fill-2672" fill="#627077"></path>
                </g>
            </g>
        </g>
    </g>
</svg>