<?xml version="1.0" encoding="UTF-8" standalone="no"?>
<svg
   xmlns:sketch="http://www.bohemiancoding.com/sketch/ns"
   xmlns:dc="http://purl.org/dc/elements/1.1/"
   xmlns:cc="http://creativecommons.org/ns#"
   xmlns:rdf="http://www.w3.org/1999/02/22-rdf-syntax-ns#"
   xmlns:svg="http://www.w3.org/2000/svg"
   xmlns="http://www.w3.org/2000/svg"
   xmlns:sodipodi="http://sodipodi.sourceforge.net/DTD/sodipodi-0.dtd"
   xmlns:inkscape="http://www.inkscape.org/namespaces/inkscape"
   width="259.33441"
   height="87.438065"
   viewBox="0 0 259.33441 87.438064"
   version="1.1"
   id="svg2"
   inkscape:version="0.48.4 r9939"
   sodipodi:docname="pybossa_scifabric.svg">
  <metadata
     id="metadata17">
    <rdf:RDF>
      <cc:Work
         rdf:about="">
        <dc:format>image/svg+xml</dc:format>
        <dc:type
           rdf:resource="http://purl.org/dc/dcmitype/StillImage" />
        <dc:title>Group 2</dc:title>
      </cc:Work>
    </rdf:RDF>
  </metadata>
  <sodipodi:namedview
     pagecolor="#ffffff"
     bordercolor="#666666"
     borderopacity="1"
     objecttolerance="10"
     gridtolerance="10"
     guidetolerance="10"
     inkscape:pageopacity="0"
     inkscape:pageshadow="2"
     inkscape:window-width="1855"
     inkscape:window-height="1056"
     id="namedview15"
     showgrid="false"
     inkscape:zoom="5.4601315"
     inkscape:cx="135.40874"
     inkscape:cy="51.970885"
     inkscape:window-x="1985"
     inkscape:window-y="24"
     inkscape:window-maximized="1"
     inkscape:current-layer="svg2"
     fit-margin-top="0"
     fit-margin-left="0"
     fit-margin-right="0"
     fit-margin-bottom="0"
     showguides="true"
     inkscape:guide-bbox="true">
    <sodipodi:guide
       orientation="0,1"
       position="68.421875,60.492192"
       id="guide3065" />
    <sodipodi:guide
       orientation="0,1"
       position="-7.2342581,65.474617"
       id="guide3336" />
  </sodipodi:namedview>
  <!-- Generator: Sketch 3.5.2 (25235) - http://www.bohemiancoding.com/sketch -->
  <title
     id="title4">Group 2</title>
  <desc
     id="desc6">Created with Sketch.</desc>
  <defs
     id="defs8" />
  <g
     id="g3338"
     transform="translate(-1.4152164e-7,4.7259455)">
    <path
       d="m 43.8,53.462115 -7.82,13.705 c -0.25,0.435 -0.86,0.939 -1.362,0.939 l -15.638,0 c -0.502,0 -1.112,-0.504 -1.364,-0.939 l -7.818,-13.629 c -0.252,-0.434 -0.252,-1.177 0,-1.611 l 7.818,-13.613 c 0.252,-0.435 0.861,-0.847 1.364,-0.847 l 15.638,0 c 0.502,0 1.112,0.392 1.362,0.828 l 7.82,13.573 c 0.25,0.435 0.251,1.158 0,1.594 m 8.17,-16.531 -24.316,-14.067 c -0.532,-0.307 -1.381,-0.307 -1.915,0 l -24.56,14.067 c -0.533,0.307 -1.179,1.057 -1.179,1.675 l 0,28.133 c 0,0.615 0.653,1.367 1.187,1.676 l 24.459,14.066 c 0.533,0.307 1.455,0.309 1.988,0 l 24.31,-14.066 c 0.532,-0.309 0.924,-1.059 0.924,-1.676 l 0,-28.133 c 0,-0.616 -0.363,-1.367 -0.898,-1.675"
       id="Fill-5"
       sketch:type="MSShapeGroup"
       style="fill:#ffffff;fill-rule:evenodd;stroke:none"
       inkscape:connector-curvature="0" />
    <path
       d="m 174.7804,60.520215 c -1.159,1.33 -2.947,1.994 -5.364,1.994 -2.417,0 -4.209,-0.664 -5.378,-1.994 -1.17,-1.328 -1.754,-3.895 -1.754,-7.7 0,-3.806 0.584,-6.378 1.754,-7.717 1.169,-1.337 2.961,-2.007 5.378,-2.007 2.417,0 4.205,0.67 5.364,2.007 1.158,1.339 1.738,3.911 1.738,7.717 0,3.805 -0.58,6.372 -1.738,7.7 l 0,0 z m -5.379,-23.478 c -4.664,0 -8.246,1.359 -10.742,4.077 -2.498,2.716 -3.746,6.612 -3.746,11.686 0,5.074 1.248,8.969 3.746,11.688 2.496,2.716 6.078,4.074 10.742,4.074 4.664,0 8.246,-1.358 10.743,-4.074 2.497,-2.719 3.745,-6.614 3.745,-11.688 0,-5.074 -1.248,-8.97 -3.745,-11.686 -2.497,-2.718 -6.079,-4.077 -10.743,-4.077 l 0,0 z m 82.561,20.376 c 0,3.098 -1.838,4.647 -5.514,4.647 l -0.061,0 c -3.855,0 -5.783,-1.639 -5.783,-4.916 0.02,-2.655 2.338,-3.984 6.953,-3.984 1.218,0.019 2.687,0.149 4.405,0.389 l 0,3.864 z m 3.895,-17.094 c -2.317,-2.227 -5.663,-3.341 -10.038,-3.341 -3.436,0 -6.562,0.569 -9.38,1.707 l 0,5.964 c 2.537,-1.037 5.524,-1.558 8.96,-1.558 4.335,0 6.503,1.928 6.503,5.782 -1.917,-0.278 -3.716,-0.419 -5.394,-0.419 -2.337,0 -4.365,0.266 -6.083,0.794 -1.719,0.531 -3.018,1.164 -3.895,1.904 -0.88,0.739 -1.574,1.597 -2.084,2.577 -0.509,0.978 -0.823,1.793 -0.943,2.442 -0.119,0.649 -0.18,1.283 -0.18,1.903 0,2.918 1.064,5.394 3.191,7.431 2.127,2.039 5.439,3.057 9.934,3.057 4.375,0 7.615,-1.014 9.725,-3.041 2.107,-2.026 3.161,-4.451 3.161,-7.268 l 0,-8.271 c 0,-4.214 -1.159,-7.435 -3.477,-9.663 l 0,0 z m -53.377,10.368 c -1.429,-0.629 -2.862,-1.128 -4.3,-1.498 -1.439,-0.369 -2.658,-0.799 -3.656,-1.288 -0.999,-0.49 -1.498,-1.163 -1.498,-2.023 0,-1.718 1.758,-2.577 5.274,-2.577 2.637,0 4.994,0.489 7.072,1.468 l 0,-5.604 c -2.537,-1.458 -5.324,-2.187 -8.361,-2.187 -3.236,0 -5.938,0.824 -8.106,2.472 -2.168,1.648 -3.251,4.01 -3.251,7.086 0,1.958 0.505,3.581 1.513,4.871 1.009,1.289 2.227,2.212 3.656,2.771 1.428,0.561 2.856,1.043 4.285,1.453 1.428,0.411 2.648,0.89 3.656,1.439 1.008,0.55 1.514,1.273 1.514,2.173 0,0.979 -0.32,1.711 -0.96,2.202 -0.639,0.49 -2.017,0.734 -4.135,0.734 -3.077,0 -5.964,-0.9 -8.66,-2.697 l 0,6.562 c 2.956,1.678 6.193,2.518 9.708,2.518 3.437,0 6.199,-0.848 8.286,-2.547 2.088,-1.697 3.132,-3.836 3.132,-6.412 0,-2.317 -0.505,-4.227 -1.515,-5.725 -1.007,-1.498 -2.226,-2.56 -3.654,-3.191 l 0,0 z m -58.081,9.162 c -0.94,1.594 -2.578,2.391 -4.915,2.391 -3.676,0 -5.514,-1.104 -5.514,-3.307 l 0,-15.691 c 1.378,-0.339 2.966,-0.511 4.765,-0.511 2.297,0 4.051,0.686 5.259,2.059 1.208,1.372 1.813,3.783 1.813,7.229 0,3.627 -0.469,6.238 -1.408,7.83 l 0,0 z m -5.394,-22.871 c -1.599,0 -3.277,0.159 -5.035,0.478 l 0,-11.776 -7.372,0 0,32.56 c 0,2.841 1.054,5.271 3.161,7.291 2.109,2.021 5.35,3.031 9.725,3.031 1.015,0 2.024,-0.08 3.028,-0.24 1.004,-0.161 2.188,-0.58 3.55,-1.26 1.364,-0.682 2.531,-1.563 3.506,-2.643 0.976,-1.08 1.819,-2.666 2.536,-4.758 0.717,-2.091 1.074,-4.509 1.074,-7.251 0,-4.984 -1.223,-8.803 -3.669,-11.455 -2.448,-2.652 -5.949,-3.977 -10.504,-3.977 l 0,0 z m 87.145,13.709 c -1.429,-0.629 -2.862,-1.128 -4.301,-1.498 -1.438,-0.369 -2.656,-0.799 -3.655,-1.288 -1,-0.49 -1.499,-1.163 -1.499,-2.023 0,-1.718 1.758,-2.577 5.274,-2.577 2.637,0 4.994,0.489 7.073,1.468 l 0,-5.604 c -2.537,-1.458 -5.324,-2.187 -8.362,-2.187 -3.236,0 -5.938,0.824 -8.105,2.472 -2.168,1.648 -3.251,4.01 -3.251,7.086 0,1.958 0.504,3.581 1.513,4.871 1.009,1.289 2.227,2.212 3.656,2.771 1.428,0.561 2.855,1.043 4.285,1.453 1.428,0.411 2.647,0.89 3.655,1.439 1.009,0.55 1.513,1.273 1.513,2.173 0,0.979 -0.319,1.711 -0.958,2.202 -0.64,0.49 -2.019,0.734 -4.135,0.734 -3.077,0 -5.964,-0.9 -8.66,-2.697 l 0,6.562 c 2.956,1.678 6.191,2.518 9.708,2.518 3.436,0 6.199,-0.848 8.286,-2.547 2.087,-1.697 3.132,-3.836 3.132,-6.412 0,-2.317 -0.505,-4.227 -1.514,-5.725 -1.009,-1.498 -2.227,-2.56 -3.655,-3.191 l 0,0 z m -141.003,10.219 c -1.248,1.388 -3.06,2.082 -5.437,2.082 -1.32,0 -2.828,-0.118 -4.526,-0.36 l 0,-15.97 c 0,-2.199 1.838,-3.297 5.514,-3.297 2.338,0 3.975,0.799 4.914,2.397 0.939,1.598 1.408,4.195 1.408,7.791 0,3.517 -0.625,5.968 -1.873,7.357 l 0,0 z m 5.68,-19.733 c -0.981,-1.078 -2.154,-1.957 -3.522,-2.637 -1.369,-0.679 -2.557,-1.099 -3.566,-1.258 -1.009,-0.16 -2.022,-0.241 -3.041,-0.241 -4.375,0 -7.616,1.015 -9.725,3.041 -2.107,2.029 -3.161,4.452 -3.161,7.267 l 0,32.094 7.372,0 0,-11.297 c 1.638,0.359 3.316,0.539 5.034,0.539 4.575,0 8.091,-1.338 10.548,-4.016 2.457,-2.675 3.686,-6.511 3.686,-11.505 0,-2.737 -0.36,-5.149 -1.078,-7.237 -0.719,-2.089 -1.57,-3.672 -2.547,-4.75 l 0,0 z m 18.874,17.651 -6.862,-21.368 -7.821,0 10.998,29.039 c -1.818,4.954 -3.787,7.432 -5.903,7.432 -1.14,0 -2.298,-0.252 -3.478,-0.75 l 0,6.143 c 1.58,0.558 3.127,0.84 4.645,0.84 2.059,0 4.046,-0.776 5.965,-2.323 1.918,-1.551 3.695,-4.551 5.334,-9.006 l 11.656,-31.375 -7.791,0 -6.743,21.368 z"
       id="Fill-9"
       sketch:type="MSShapeGroup"
       style="fill:#ffffff;fill-rule:evenodd;stroke:none"
       inkscape:connector-curvature="0" />
    <g
       transform="matrix(1.49248,0,0,1.49248,-34.512472,28.156247)"
       id="text2988"
       style="font-size:19.35364342px;font-style:normal;font-weight:normal;line-height:125%;letter-spacing:0px;word-spacing:0px;fill:#ffffff;fill-opacity:1;stroke:none;font-family:Sans">
      <path
         id="path3021"
         style="font-variant:normal;font-weight:bold;font-stretch:normal;fill:#ffffff;font-family:Maven Pro;-inkscape-font-specification:Maven Pro Bold"
         d="m 68.560298,-15.16175 c -10e-7,-0.970194 0.340199,-1.713595 1.020602,-2.230205 0.686699,-0.522892 1.54035,-0.784342 2.560956,-0.784352 0.957596,10e-6 1.836447,0.22996 2.636555,0.689852 l 0,1.767154 c -0.655207,-0.308693 -1.398608,-0.463043 -2.230205,-0.463051 -1.108806,8e-6 -1.663207,0.270908 -1.663203,0.812702 -4e-6,0.270907 0.157497,0.485107 0.472501,0.642601 0.314996,0.151207 0.699297,0.286657 1.152902,0.406351 0.453596,0.113406 0.904047,0.270906 1.351353,0.472501 0.453595,0.195306 0.837895,0.529206 1.152903,1.001702 0.321293,0.472505 0.481943,1.074156 0.481951,1.804954 -8e-6,0.812704 -0.330758,1.4868049 -0.992252,2.0223049 -0.655208,0.5355013 -1.524609,0.8032516 -2.608206,0.8032518 -1.108806,-2e-7 -2.129407,-0.2646005 -3.061807,-0.7938018 l 0,-2.0695549 c 0.8505,0.567004 1.760851,0.850504 2.731056,0.850502 0.667797,2e-6 1.102498,-0.0756 1.304103,-0.2268 0.201595,-0.157498 0.302395,-0.390599 0.302401,-0.699302 -6e-6,-0.283497 -0.160656,-0.510298 -0.481951,-0.680401 -0.315006,-0.176397 -0.699306,-0.327597 -1.152903,-0.453601 -0.447304,-0.132297 -0.897755,-0.286647 -1.351353,-0.463051 -0.447303,-0.176396 -0.831603,-0.466197 -1.152902,-0.869402 -0.315002,-0.409496 -0.472502,-0.922946 -0.472501,-1.540354"
         inkscape:connector-curvature="0" />
      <path
         id="path3023"
         style="font-variant:normal;font-weight:bold;font-stretch:normal;fill:#ffffff;font-family:Maven Pro;-inkscape-font-specification:Maven Pro Bold"
         d="m 77.471667,-13.186695 c -10e-7,-1.612798 0.393749,-2.847599 1.181253,-3.704409 0.787498,-0.856792 1.9152,-1.285193 3.383107,-1.285203 0.944996,10e-6 1.874247,0.17956 2.787757,0.538652 l 0,1.937254 c -0.76231,-0.308693 -1.562411,-0.463043 -2.400306,-0.463051 -0.888307,8e-6 -1.549808,0.204758 -1.984504,0.614251 -0.428405,0.403208 -0.642605,1.190709 -0.642602,2.362506 -3e-6,1.159206 0.214197,1.946707 0.642602,2.362505 0.434696,0.409503 1.096197,0.614253 1.984504,0.614251 0.800095,2e-6 1.600196,-0.160648 2.400306,-0.481951 l 0,1.9372545 c -0.91351,0.3591008 -1.842761,0.538651 -2.787757,0.5386512 -1.467907,-2e-7 -2.595609,-0.4284007 -3.383107,-1.2852029 -0.787504,-0.8567998 -1.181254,-2.0853018 -1.181253,-3.6855078"
         inkscape:connector-curvature="0" />
      <path
         sodipodi:nodetypes="ccccc"
         inkscape:connector-curvature="0"
         id="path3025"
         style="font-variant:normal;font-weight:bold;font-stretch:normal;fill:#ffffff;font-family:Maven Pro;-inkscape-font-specification:Maven Pro Bold"
         d="m 87.129589,-8.3671846 0,-9.6579214 2.315255,0 0,9.6579214 -2.315255,0" />
      <path
         id="path3027"
         style="font-variant:normal;font-weight:bold;font-stretch:normal;fill:#ffffff;font-family:Maven Pro;-inkscape-font-specification:Maven Pro Bold"
         d="m 91.78845,-16.031152 0,-1.993954 1.644303,0 c 0.0126,-2.671194 1.212749,-4.006796 3.600458,-4.006809 0.308695,1.3e-5 0.623695,0.03151 0.945003,0.0945 l 0,1.823854 c -0.233108,-0.02519 -0.406358,-0.03779 -0.519752,-0.0378 -0.604807,1.2e-5 -1.039507,0.144912 -1.304103,0.434701 -0.264605,0.289812 -0.396905,0.853662 -0.3969,1.691554 l 2.220755,0 0,1.993954 -2.220755,0 0,7.6639674 -2.324706,0 0,-7.6639674 -1.644303,0"
         inkscape:connector-curvature="0" />
      <path
         id="path3029"
         style="font-variant:normal;font-weight:bold;font-stretch:normal;fill:#ffffff;font-family:Maven Pro;-inkscape-font-specification:Maven Pro Bold"
         d="m 99.017716,-11.523492 c -10e-7,-0.195297 0.0189,-0.393747 0.0567,-0.595351 0.0378,-0.207897 0.135449,-0.466197 0.292951,-0.774902 0.163799,-0.308696 0.384299,-0.579596 0.661503,-0.812702 0.2772,-0.233095 0.6867,-0.431545 1.2285,-0.595351 0.5418,-0.170094 1.18125,-0.255144 1.91836,-0.255151 0.52919,7e-6 1.09619,0.04411 1.701,0.132301 -10e-6,-1.215896 -0.68356,-1.823846 -2.05066,-1.823854 -1.0836,8e-6 -2.02545,0.163808 -2.82555,0.491401 l 0,-1.880554 c 0.8883,-0.359092 1.87425,-0.538642 2.95785,-0.538652 1.3797,10e-6 2.43495,0.352811 3.16576,1.058403 0.73079,0.699309 1.0962,1.713611 1.0962,3.042907 l 0,2.608205 c 0,0.888305 -0.33391,1.6537556 -1.0017,2.2963556 -0.66151,0.6363016 -1.68211,0.9544519 -3.0618,0.9544521 -1.41751,-2e-7 -2.46331,-0.3213006 -3.13741,-0.9639022 -0.667805,-0.6425999 -1.001705,-1.4238005 -1.001704,-2.3436055 m 2.296354,-0.29295 c 0,1.033204 0.60795,1.549805 1.82386,1.549803 0.006,2e-6 0.0126,2e-6 0.0189,0 1.15919,2e-6 1.73879,-0.488249 1.7388,-1.464753 l 0,-1.219053 c -0.54181,-0.07559 -1.00486,-0.116545 -1.38915,-0.12285 -1.45531,5e-6 -2.18611,0.418955 -2.19241,1.256853"
         inkscape:connector-curvature="0" />
      <path
         id="path3031"
         style="font-variant:normal;font-weight:bold;font-stretch:normal;fill:#ffffff;font-family:Maven Pro;-inkscape-font-specification:Maven Pro Bold"
         d="m 109.70569,-11.466792 0,-10.253273 2.3247,0 0,3.694959 c 0.5544,-0.100791 1.0836,-0.151191 1.58761,-0.151201 1.44269,10e-6 2.5515,0.418961 3.32641,1.256853 0.77489,0.83791 1.16234,2.044361 1.16235,3.619358 -10e-6,0.863106 -0.11341,1.625407 -0.3402,2.286905 -0.22681,0.655204 -0.49456,1.1529045 -0.80325,1.4931038 -0.30871,0.3402016 -0.68041,0.6174019 -1.11511,0.8316018 -0.4284,0.2142006 -0.80326,0.3465008 -1.12455,0.3969009 -0.31501,0.0504 -0.63316,0.0756 -0.95445,0.0756 -1.37971,-2e-7 -2.40346,-0.3181505 -3.07126,-0.9544521 -0.6615,-0.6363 -0.99225,-1.4017504 -0.99225,-2.2963554 m 2.3247,0.217351 c 0,0.693004 0.5796,1.039504 1.73881,1.039502 0.73709,2e-6 1.25369,-0.248848 1.5498,-0.746551 0.2961,-0.503998 0.44415,-1.32615 0.44415,-2.466456 0,-1.083596 -0.19215,-1.839597 -0.57645,-2.268005 -0.37801,-0.434693 -0.92926,-0.652044 -1.65375,-0.652052 -0.56701,8e-6 -1.06786,0.05356 -1.50256,0.160651 l 0,4.932911"
         inkscape:connector-curvature="0" />
      <path
         id="path3033"
         style="font-variant:normal;font-weight:bold;font-stretch:normal;fill:#ffffff;font-family:Maven Pro;-inkscape-font-specification:Maven Pro Bold"
         d="m 120.47871,-8.3671846 0,-8.7885194 c 0.1575,-0.07559 0.37485,-0.163792 0.65206,-0.264601 0.27719,-0.107091 0.83475,-0.255141 1.67265,-0.444151 0.8379,-0.195291 1.6695,-0.299241 2.49481,-0.311851 l 0,2.012855 c -0.97021,0.01261 -1.80181,0.119708 -2.49481,0.321301 l 0,7.4749664 -2.32471,0"
         inkscape:connector-curvature="0" />
      <path
         sodipodi:nodetypes="ccccc"
         inkscape:connector-curvature="0"
         id="path3035"
         style="font-variant:normal;font-weight:bold;font-stretch:normal;fill:#ffffff;font-family:Maven Pro;-inkscape-font-specification:Maven Pro Bold"
         d="m 127.53788,-8.3671846 0,-9.6579214 2.31525,0 0,9.6579214 -2.31525,0" />
      <path
         id="path3037"
         style="font-variant:normal;font-weight:bold;font-stretch:normal;fill:#ffffff;font-family:Maven Pro;-inkscape-font-specification:Maven Pro Bold"
         d="m 132.35739,-13.186695 c 0,-1.612798 0.39375,-2.847599 1.18125,-3.704409 0.7875,-0.856792 1.9152,-1.285193 3.38311,-1.285203 0.945,10e-6 1.87425,0.17956 2.78776,0.538652 l 0,1.937254 c -0.76231,-0.308693 -1.56241,-0.463043 -2.40031,-0.463051 -0.88831,8e-6 -1.54981,0.204758 -1.9845,0.614251 -0.42841,0.403208 -0.64261,1.190709 -0.6426,2.362506 -1e-5,1.159206 0.21419,1.946707 0.6426,2.362505 0.43469,0.409503 1.09619,0.614253 1.9845,0.614251 0.8001,2e-6 1.6002,-0.160648 2.40031,-0.481951 l 0,1.9372545 c -0.91351,0.3591008 -1.84276,0.538651 -2.78776,0.5386512 -1.46791,-2e-7 -2.59561,-0.4284007 -3.38311,-1.2852029 -0.7875,-0.8567998 -1.18125,-2.0853018 -1.18125,-3.6855078"
         inkscape:connector-curvature="0" />
    </g>
  </g>
</svg>
