<?xml version="1.0" encoding="UTF-8" standalone="no"?>
<svg width="113px" height="113px" viewBox="0 0 113 113" version="1.1" xmlns="http://www.w3.org/2000/svg" xmlns:xlink="http://www.w3.org/1999/xlink" xmlns:sketch="http://www.bohemiancoding.com/sketch/ns">
    <!-- Generator: Sketch 3.3.3 (12072) - http://www.bohemiancoding.com/sketch -->
    <title>researcher</title>
    <desc>Created with Sketch.</desc>
    <defs></defs>
    <g id="Page-1" stroke="none" stroke-width="1" fill="none" fill-rule="evenodd" sketch:type="MSPage">
        <g id="Home" sketch:type="MSArtboardGroup" transform="translate(-263.000000, -1765.000000)">
            <g id="researcher" sketch:type="MSLayerGroup" transform="translate(263.000000, 1765.000000)">
                <circle id="Oval-27" fill="#F7F7F7" sketch:type="MSShapeGroup" cx="56.5" cy="56.5" r="56.5"></circle>
                <g id="Color-Eyedropper" transform="translate(15.000000, 11.000000)" sketch:type="MSShapeGroup">
                    <path d="M1.92029977,88.5513091 L1.92029977,88.5513091 C-0.199735804,86.4160293 -0.199735804,82.9541238 1.92029977,80.8203902 L5.75816286,76.9549308 L9.59602596,80.8203902 C11.7145264,82.9541238 11.7145264,86.4160293 9.59602596,88.5513091 C7.47599038,90.6850427 4.0388002,90.6850427 1.92029977,88.5513091" id="Fill-320" fill="#31967F"></path>
                    <path d="M60.7808385,33.2845162 L47.753596,20.1636007 L21.7021813,46.4038856 C19.4762207,48.645852 17.830545,51.4042439 16.910993,54.4363103 L16.8741495,54.5553664 C15.9545975,57.5874328 14.3089218,60.3458247 12.0829612,62.5877911 L6.39371299,68.3179482 L12.9073342,74.8768598 L18.5367118,69.2070039 C20.801051,66.9263828 23.5934802,65.2518658 26.6622356,64.3349788 C29.7309909,63.4180918 32.5234201,61.7435748 34.7862242,59.4644999 L60.7808385,33.2845162" id="Fill-337" fill="#F0F4FF"></path>
                    <path d="M22.7859938,45.3122798 L21.7021813,46.4038856 C19.4762207,48.645852 17.830545,51.4042439 16.910993,54.4363103 L16.8741495,54.5553664 C15.9545975,57.5874328 14.3089218,60.3458247 12.0829612,62.5877911 L6.39371299,68.3179482 L12.9073342,74.8768598 L18.5367118,69.2070039 C20.801051,66.9263828 23.5934802,65.2518658 26.6622356,64.3349788 C29.7309909,63.4180918 32.5234201,61.7435748 34.7862242,59.4644999 L48.8374085,45.3122798 L22.7859938,45.3122798" id="Fill-338" fill="#1EB291"></path>
                    <path d="M12.9057991,77.0631636 L4.22301762,68.3179482 L10.9976136,61.4946392 C13.0378216,59.4382148 14.5637559,56.8808268 15.4065507,54.1054269 C16.4320277,50.7208307 18.222007,47.7227803 20.6168336,45.3107336 L47.7551311,17.9772969 L62.9515338,33.2845162 L35.8715718,60.5561057 C33.4352963,63.0098993 30.4018494,64.8297576 27.099752,65.8193152 C24.2858307,66.658893 21.7006462,68.2097153 19.6220595,70.3001558 L12.9057991,77.0631636 L12.9057991,77.0631636 Z M8.56440836,68.3179482 L12.9057991,72.6905559 L17.4513641,68.1138519 C19.8891748,65.6585121 22.9226218,63.8386538 26.2247192,62.8537347 C29.0386404,62.0126108 31.6253601,60.4617884 33.7008765,58.3698018 L58.6101431,33.2845162 L47.7551311,22.3499046 L22.787529,47.4970375 C20.747321,49.5519157 19.2229217,52.1093037 18.3785919,54.8862497 C17.3531148,58.2677537 15.5646706,61.265804 13.1683089,63.6809431 L8.56440836,68.3179482 L8.56440836,68.3179482 Z" id="Fill-383" fill="#687492"></path>
                    <path d="M72.678214,19.1137419 L77.836302,13.9185644 C80.6671099,11.0689477 81.1522158,6.43967352 78.6207613,3.31792848 C75.7147313,-0.267671697 70.4061991,-0.464037037 67.2361242,2.72728628 L61.8216669,8.18067645 C59.4483324,10.5726228 55.5997233,10.5726228 53.2248536,8.18067645 L52.3313991,7.28234368 C51.6022051,6.5463602 50.4186081,6.5463602 49.6894141,7.28234368 L43.6470825,13.3665768 C42.9178885,14.1010141 42.9178885,15.2931218 43.6470825,16.0291053 L64.8858168,37.4205578 C65.616546,38.1549951 66.7986078,38.1549951 67.5293369,37.4205578 L73.5701334,31.3347785 C74.3008626,30.6003412 74.3008626,29.4082335 73.5701334,28.6737962 L72.678214,27.7739173 C70.3033444,25.3819709 70.3033444,21.5056882 72.678214,19.1137419" id="Fill-385" fill="#556080"></path>
                </g>
            </g>
        </g>
    </g>
</svg>