<?xml version="1.0" encoding="UTF-8" standalone="no"?>
<svg width="113px" height="113px" viewBox="0 0 113 113" version="1.1" xmlns="http://www.w3.org/2000/svg" xmlns:xlink="http://www.w3.org/1999/xlink" xmlns:sketch="http://www.bohemiancoding.com/sketch/ns">
    <!-- Generator: Sketch 3.3.3 (12072) - http://www.bohemiancoding.com/sketch -->
    <title>researcher</title>
    <desc>Created with Sketch.</desc>
    <defs></defs>
    <g id="Page-1" stroke="none" stroke-width="1" fill="none" fill-rule="evenodd" sketch:type="MSPage">
        <g id="Home" sketch:type="MSArtboardGroup" transform="translate(-263.000000, -1765.000000)">
            <g id="researcher" sketch:type="MSLayerGroup" transform="translate(263.000000, 1765.000000)">
                <circle id="Oval-27" fill="#F7F7F7" sketch:type="MSShapeGroup" cx="56.5" cy="56.5" r="56.5"></circle>
                <g transform="translate(19.843860, 20.000000)" sketch:type="MSShapeGroup">
                    <path d="M52.1806607,26.3742545 C52.1806607,40.8331636 40.5084821,52.5547636 26.1092321,52.5547636 C11.7112857,52.5547636 0.0378035714,40.8331636 0.0378035714,26.3742545 C0.0378035714,11.9140364 11.7112857,0.192436364 26.1092321,0.192436364 C40.5084821,0.192436364 52.1806607,11.9140364 52.1806607,26.3742545" id="Fill-2580" fill="#556080"></path>
                    <path d="M70.1686429,62.2224 L56.5006964,48.4965818 L54.6574464,50.3476364 L46.5974643,42.5323636 C45.5194107,43.9082182 44.3136071,45.1754182 42.9865714,46.3090909 L50.9696429,54.0510545 L49.1263929,55.9021091 L62.7956429,69.6279273 C64.8318214,71.6727273 68.1324643,71.6727273 70.1686429,69.6279273 C72.206125,67.5831273 72.206125,64.2672 70.1686429,62.2224" id="Fill-2581" fill="#464F5D"></path>
                    <path d="M46.966375,26.3742545 C46.966375,37.9413818 37.6288929,47.3197091 26.1092321,47.3197091 C14.590875,47.3197091 5.25208929,37.9413818 5.25208929,26.3742545 C5.25208929,14.8058182 14.590875,5.42749091 26.1092321,5.42749091 C37.6288929,5.42749091 46.966375,14.8058182 46.966375,26.3742545" id="Fill-2582" fill="#B0D3F0"></path>
                </g>
            </g>
        </g>
    </g>
</svg>