<?xml version="1.0" encoding="UTF-8" standalone="no"?>
<!-- Generator: Adobe Illustrator 16.0.0, SVG Export Plug-In . SVG Version: 6.00 Build 0)  -->

<svg
   xmlns:dc="http://purl.org/dc/elements/1.1/"
   xmlns:cc="http://creativecommons.org/ns#"
   xmlns:rdf="http://www.w3.org/1999/02/22-rdf-syntax-ns#"
   xmlns:svg="http://www.w3.org/2000/svg"
   xmlns="http://www.w3.org/2000/svg"
   xmlns:sodipodi="http://sodipodi.sourceforge.net/DTD/sodipodi-0.dtd"
   xmlns:inkscape="http://www.inkscape.org/namespaces/inkscape"
   version="1.1"
   id="Layer_1"
   x="0px"
   y="0px"
   width="420"
   height="420"
   viewBox="0 0 420 420"
   enable-background="new 0 0 550 550"
   xml:space="preserve"
   inkscape:version="0.48.4 r9939"
   sodipodi:docname="scifabric_logo_white_vert_trans.svg"><metadata
     id="metadata39"><rdf:RDF><cc:Work
         rdf:about=""><dc:format>image/svg+xml</dc:format><dc:type
           rdf:resource="http://purl.org/dc/dcmitype/StillImage" /><dc:title></dc:title></cc:Work></rdf:RDF></metadata><defs
     id="defs37" /><sodipodi:namedview
     pagecolor="#ffffff"
     bordercolor="#666666"
     borderopacity="1"
     objecttolerance="10"
     gridtolerance="10"
     guidetolerance="10"
     inkscape:pageopacity="0"
     inkscape:pageshadow="2"
     inkscape:window-width="640"
     inkscape:window-height="480"
     id="namedview35"
     showgrid="false"
     fit-margin-top="0"
     fit-margin-left="0"
     fit-margin-right="0"
     fit-margin-bottom="0"
     inkscape:zoom="0.42909091"
     inkscape:cx="35.898"
     inkscape:cy="144.777"
     inkscape:window-x="2494"
     inkscape:window-y="190"
     inkscape:window-maximized="0"
     inkscape:current-layer="Layer_1" /><g
     id="g3036"
     transform="translate(-60.225,-13.0305)"><polygon
       enable-background="new    "
       points="204.358,216.387 159.942,241.475 203.756,267.192 248.877,241.815 "
       id="polygon27"
       style="opacity:0.4;fill:#ffffff" /><polygon
       enable-background="new    "
       points="380.369,267.163 336.629,241.538 293.034,267.105 337.035,292.614 "
       id="polygon29"
       style="opacity:0.4;fill:#ffffff" /><g
       id="g3031"><path
         style="fill:#ffffff"
         inkscape:connector-curvature="0"
         id="path25"
         d="m 381.454,13.142 -44.156,25.391 v 50.91 l 44.143,25.382 44.233,-25.382 v -50.91 l -44.22,-25.391 z m 22.135,63.505 -22.083,12.795 -22.12,-12.795 V 51.339 l 22.076,-12.807 22.127,12.807 v 25.308 z" /><g
         id="g31"><path
           style="fill:#ffffff"
           inkscape:connector-curvature="0"
           id="path33"
           d="M 269.331,76.556 114.776,165.653 V 343.82 L 269.331,432.919 423.88,343.82 V 165.652 L 269.331,76.556 z m 110.21,241.509 0.931,-0.022 -110.607,63.529 -110.75,-63.51 v -25.501 l 22.716,-12.694 88.709,50.829 66.392,-38.083 -43.95,-25.511 43.209,-25.564 43.352,25.625 v 50.902 z m 0,-101.61 -21.175,12.706 -87.6,-50.819 -66.512,38.045 44.572,25.429 -45.508,25.377 -44.203,-25.718 0,0 v -50.522 l 0.831,0.035 109.919,-63.531 109.676,63.496 v 25.502 z" /></g></g></g></svg>