<?xml version="1.0" encoding="UTF-8" standalone="no"?>
<svg width="120px" height="100px" viewBox="0 0 120 100" version="1.1" xmlns="http://www.w3.org/2000/svg" xmlns:xlink="http://www.w3.org/1999/xlink" xmlns:sketch="http://www.bohemiancoding.com/sketch/ns">
    <!-- Generator: Sketch 3.4.4 (17249) - http://www.bohemiancoding.com/sketch -->
    <title>social</title>
    <desc>Created with Sketch.</desc>
    <defs></defs>
    <g id="Style-Inventory" stroke="none" stroke-width="1" fill="none" fill-rule="evenodd" sketch:type="MSPage">
        <g id="Features" sketch:type="MSArtboardGroup" transform="translate(-1060.000000, -998.000000)">
            <g id="social" sketch:type="MSLayerGroup" transform="translate(1060.000000, 998.000000)">
                <g id="feature-6" transform="translate(21.000000, 15.000000)" sketch:type="MSShapeGroup">
                    <g transform="translate(0.764706, 0.000000)">
                        <path d="M32.3724508,5.19287314 L10.3591843,27.262584 M42.7316351,5.19287314 L64.7449016,27.262584" id="Stroke-177" stroke="#2F4149" stroke-width="2" stroke-linecap="round"></path>
                        <path d="M42.7316351,5.19287314 C42.7316351,8.06063733 40.4124727,10.3857463 37.5520429,10.3857463 C34.6916132,10.3857463 32.3724508,8.06063733 32.3724508,5.19287314 C32.3724508,2.32510895 34.6916132,0 37.5520429,0 C40.4124727,0 42.7316351,2.32510895 42.7316351,5.19287314" id="Fill-203" fill="#FFDA71"></path>
                        <path d="M0,27.262584 L75.1040859,27.262584 L75.1040859,68.8055691 L0,68.8055691 L0,27.262584 Z" id="Fill-204" fill="#3AB0D5"></path>
                        <path d="M14.2438784,61.0162593 L14.2438784,61.0162593 C11.3951027,61.0162593 9.06428623,58.6794664 9.06428623,55.8233862 L9.06428623,40.2447668 C9.06428623,37.3886866 11.3951027,35.0518937 14.2438784,35.0518937 C17.092654,35.0518937 19.4234705,37.3886866 19.4234705,40.2447668 L19.4234705,55.8233862 C19.4234705,58.6794664 17.092654,61.0162593 14.2438784,61.0162593 L14.2438784,61.0162593 Z M29.7826548,51.9287314 L29.7826548,51.9287314 C26.9338791,51.9287314 24.6030626,49.5919384 24.6030626,46.7358582 L24.6030626,40.2447668 C24.6030626,37.3886866 26.9338791,35.0518937 29.7826548,35.0518937 C32.6314304,35.0518937 34.9622469,37.3886866 34.9622469,40.2447668 L34.9622469,46.7358582 C34.9622469,49.5919384 32.6314304,51.9287314 29.7826548,51.9287314 L29.7826548,51.9287314 Z M40.141839,61.0162593 L40.141839,35.0518937 L40.141839,61.0162593 Z M66.0397997,35.0518937 L66.0397997,61.0162593 L66.0397997,35.0518937 Z M55.6806154,61.0162593 L55.6806154,35.0518937 L55.6806154,61.0162593 Z M24.6030626,46.7358582 L24.6030626,61.0162593 L24.6030626,46.7358582 Z M50.5010233,48.0340765 L40.141839,48.0340765 L50.5010233,48.0340765 Z M50.5010233,35.0518937 L40.141839,35.0518937 L50.5010233,35.0518937 Z M50.5010233,61.0162593 L40.141839,61.0162593 L50.5010233,61.0162593 Z M55.6806154,35.0518937 L66.0397997,61.0162593 L55.6806154,35.0518937 Z" id="Stroke-205" stroke="#FFFFFF" stroke-width="2" stroke-linecap="round"></path>
                    </g>
                </g>
                <rect id="Rectangle-273" fill-opacity="0.01" fill="#FFFFFF" sketch:type="MSShapeGroup" x="0" y="0" width="120" height="100"></rect>
            </g>
        </g>
    </g>
</svg>