<?xml version="1.0" encoding="UTF-8" standalone="no"?>
<svg width="120px" height="100px" viewBox="0 0 120 100" version="1.1" xmlns="http://www.w3.org/2000/svg" xmlns:xlink="http://www.w3.org/1999/xlink" xmlns:sketch="http://www.bohemiancoding.com/sketch/ns">
    <!-- Generator: Sketch 3.4.4 (17249) - http://www.bohemiancoding.com/sketch -->
    <title>template</title>
    <desc>Created with Sketch.</desc>
    <defs></defs>
    <g id="Style-Inventory" stroke="none" stroke-width="1" fill="none" fill-rule="evenodd" sketch:type="MSPage">
        <g id="Features" sketch:type="MSArtboardGroup" transform="translate(-261.000000, -690.000000)">
            <g id="template" sketch:type="MSLayerGroup" transform="translate(261.000000, 690.000000)">
                <rect id="Rectangle-203" fill-opacity="0.01" fill="#FFFFFF" sketch:type="MSShapeGroup" x="0" y="0" width="120" height="100"></rect>
                <g id="ICON" transform="translate(26.823529, 21.176471)" sketch:type="MSShapeGroup">
                    <path d="M0,0 L63.5294118,0 L63.5294118,63.5294118 L0,63.5294118 L0,0 Z" id="Fill-1644" fill="#ECF0F1"></path>
                    <path d="M0,0 L63.5294118,0 L63.5294118,13.1440162 L0,13.1440162 L0,0 Z" id="Fill-1645" fill="#2F4149"></path>
                    <path d="M9.85801217,6.57200811 C9.85801217,8.38697769 8.38697769,9.85801217 6.57200811,9.85801217 C4.75703854,9.85801217 3.28600406,8.38697769 3.28600406,6.57200811 C3.28600406,4.75703854 4.75703854,3.28600406 6.57200811,3.28600406 C8.38697769,3.28600406 9.85801217,4.75703854 9.85801217,6.57200811" id="Fill-1646" fill="#B83A49"></path>
                    <path d="M19.7160243,6.57200811 C19.7160243,8.38697769 18.2449899,9.85801217 16.4300203,9.85801217 C14.6150507,9.85801217 13.1440162,8.38697769 13.1440162,6.57200811 C13.1440162,4.75703854 14.6150507,3.28600406 16.4300203,3.28600406 C18.2449899,3.28600406 19.7160243,4.75703854 19.7160243,6.57200811" id="Fill-1647" fill="#F88B1C"></path>
                    <path d="M29.5740365,6.57200811 C29.5740365,8.38697769 28.103002,9.85801217 26.2880325,9.85801217 C24.4730629,9.85801217 23.0020284,8.38697769 23.0020284,6.57200811 C23.0020284,4.75703854 24.4730629,3.28600406 26.2880325,3.28600406 C28.103002,3.28600406 29.5740365,4.75703854 29.5740365,6.57200811" id="Fill-1648" fill="#7ED321"></path>
                    <path d="M4.38133874,48.1947262 L18.6206897,48.1947262 L18.6206897,59.148073 L4.38133874,59.148073 L4.38133874,48.1947262 Z" id="Fill-1649" fill="#62A4B8"></path>
                    <path d="M24.0973631,48.1947262 L38.336714,48.1947262 L38.336714,59.148073 L24.0973631,59.148073 L24.0973631,48.1947262 Z" id="Fill-1650" fill="#7CA6AB"></path>
                    <path d="M4.38133874,17.525355 L18.6206897,17.525355 L18.6206897,28.4787018 L4.38133874,28.4787018 L4.38133874,17.525355 Z" id="Fill-1651" fill="#0097A7"></path>
                    <path d="M24.0973631,17.525355 L38.336714,17.525355 L38.336714,28.4787018 L24.0973631,28.4787018 L24.0973631,17.525355 Z" id="Fill-1652" fill="#3AB0D5"></path>
                    <path d="M43.8133874,17.525355 L58.0527383,17.525355 L58.0527383,28.4787018 L43.8133874,28.4787018 L43.8133874,17.525355 Z" id="Fill-1653" fill="#5B81A4"></path>
                    <path d="M4.38133874,32.8600406 L18.6206897,32.8600406 L18.6206897,43.8133874 L4.38133874,43.8133874 L4.38133874,32.8600406 Z" id="Fill-1654" fill="#285680"></path>
                    <path d="M43.8133874,48.1947262 L58.0527383,48.1947262 L58.0527383,59.148073 L43.8133874,59.148073 L43.8133874,48.1947262 Z" id="Fill-1655" fill="#5790A2"></path>
                    <path d="M24.0973631,32.8600406 L38.336714,32.8600406 L38.336714,43.8133874 L24.0973631,43.8133874 L24.0973631,32.8600406 Z" id="Fill-1656" fill="#3F555F"></path>
                    <path d="M43.8133874,32.8600406 L58.0527383,32.8600406 L58.0527383,43.8133874 L43.8133874,43.8133874 L43.8133874,32.8600406 Z" id="Fill-1657" fill="#658FA3"></path>
                </g>
            </g>
        </g>
    </g>
</svg>