<?xml version="1.0" encoding="UTF-8" standalone="no"?>
<svg width="956px" height="550px" viewBox="0 0 956 550" version="1.1" xmlns="http://www.w3.org/2000/svg" xmlns:xlink="http://www.w3.org/1999/xlink" xmlns:sketch="http://www.bohemiancoding.com/sketch/ns">
    <!-- Generator: Sketch 3.3.3 (12072) - http://www.bohemiancoding.com/sketch -->
    <title>templates-image</title>
    <desc>Created with Sketch.</desc>
    <defs>
        <filter x="-50%" y="-50%" width="200%" height="200%" filterUnits="objectBoundingBox" id="filter-1">
            <feOffset dx="0" dy="-2" in="SourceAlpha" result="shadowOffsetInner1"></feOffset>
            <feGaussianBlur stdDeviation="0" in="shadowOffsetInner1" result="shadowBlurInner1"></feGaussianBlur>
            <feComposite in="shadowBlurInner1" in2="SourceAlpha" operator="arithmetic" k2="-1" k3="1" result="shadowInnerInner1"></feComposite>
            <feColorMatrix values="0 0 0 0 0.594068878   0 0 0 0 0.594068878   0 0 0 0 0.594068878  0 0 0 0.7 0" in="shadowInnerInner1" type="matrix" result="shadowMatrixInner1"></feColorMatrix>
            <feOffset dx="0" dy="-1" in="SourceAlpha" result="shadowOffsetInner2"></feOffset>
            <feGaussianBlur stdDeviation="0" in="shadowOffsetInner2" result="shadowBlurInner2"></feGaussianBlur>
            <feComposite in="shadowBlurInner2" in2="SourceAlpha" operator="arithmetic" k2="-1" k3="1" result="shadowInnerInner2"></feComposite>
            <feColorMatrix values="0 0 0 0 0.572252338   0 0 0 0 0.572252338   0 0 0 0 0.572252338  0 0 0 0.7 0" in="shadowInnerInner2" type="matrix" result="shadowMatrixInner2"></feColorMatrix>
            <feMerge>
                <feMergeNode in="SourceGraphic"></feMergeNode>
                <feMergeNode in="shadowMatrixInner1"></feMergeNode>
                <feMergeNode in="shadowMatrixInner2"></feMergeNode>
            </feMerge>
        </filter>
        <rect id="path-2" x="415.856632" y="0" width="114.558796" height="11.4524793"></rect>
        <filter x="-50%" y="-50%" width="200%" height="200%" filterUnits="objectBoundingBox" id="filter-4">
            <feOffset dx="0" dy="-1" in="SourceAlpha" result="shadowOffsetInner1"></feOffset>
            <feGaussianBlur stdDeviation="0" in="shadowOffsetInner1" result="shadowBlurInner1"></feGaussianBlur>
            <feComposite in="shadowBlurInner1" in2="SourceAlpha" operator="arithmetic" k2="-1" k3="1" result="shadowInnerInner1"></feComposite>
            <feColorMatrix values="0 0 0 0 0.596078431   0 0 0 0 0.592156863   0 0 0 0 0.596078431  0 0 0 0.7 0" in="shadowInnerInner1" type="matrix" result="shadowMatrixInner1"></feColorMatrix>
            <feMerge>
                <feMergeNode in="SourceGraphic"></feMergeNode>
                <feMergeNode in="shadowMatrixInner1"></feMergeNode>
            </feMerge>
        </filter>
    </defs>
    <g id="Page-1" stroke="none" stroke-width="1" fill="none" fill-rule="evenodd" sketch:type="MSPage">
        <g id="assets" sketch:type="MSArtboardGroup" transform="translate(-45.000000, -556.000000)">
            <g id="templates-image" sketch:type="MSLayerGroup" transform="translate(47.000000, 556.000000)">
                <g id="//-MacBook-Air-13-Copy">
                    <g id="::-base" transform="translate(0.000000, 521.087810)">
                        <path d="M-1.55719678,0.693554897 C-1.95803227,0.310515104 -1.84177252,0 -1.28154383,0 L953.281537,0 C953.834611,0 953.956587,0.311783765 953.561117,0.679501812 C953.561117,0.679501812 925.158494,28.6311983 885.547659,28.6311983 L66.4523041,28.6311983 C26.3567254,28.6311983 -1.55719678,0.693554897 -1.55719678,0.693554897 Z" id="Mask" fill="#E2E2E2" filter="url(#filter-1)" sketch:type="MSShapeGroup"></path>
                        <mask id="mask-3" sketch:name="lip" fill="white">
                            <use xlink:href="#path-2"></use>
                        </mask>
                        <use id="lip" fill="#A4A4A4" sketch:type="MSShapeGroup" xlink:href="#path-2"></use>
                    </g>
                    <g id="::-screen" transform="translate(77.908184, 0.000000)" sketch:type="MSShapeGroup">
                        <path d="M0,4.00590203 C0,1.79350343 1.78719824,0 3.99489453,0 L786.460798,0 C788.667118,0 790.455693,1.78466958 790.455693,4.00590203 L790.455693,521.08781 L594.781546,521.08781 L0,521.08781 L0,4.00590203 Z" id="screen-bg" fill="#E2E2E2" filter="url(#filter-4)"></path>
                        <rect id="wallpaper" stroke-opacity="0.1" stroke="#000000" fill="#14A085" x="51.5514582" y="51.536157" width="687.352776" height="423.741736"></rect>
                        <path d="M51.5514582,51.536157 L475.419004,51.536157 L51.5514582,475.277893 L51.5514582,51.536157 Z" id="glare" fill-opacity="0.12" fill="#FFFFFF"></path>
                    </g>
                    <ellipse id="webcam" fill="#5C5C5C" sketch:type="MSShapeGroup" cx="476" cy="31.4943182" rx="8.59190971" ry="8.5893595"></ellipse>
                </g>
                <g id="Group-+-Group" transform="translate(260.000000, 200.000000)" sketch:type="MSShapeGroup">
                    <g id="Group" transform="translate(0.000000, 0.057508)">
                        <rect id="Rectangle-168-Copy-5" fill-opacity="0.5" fill="#FFFFFF" x="292.516818" y="94.7414781" width="132.23064" height="82.5529533" rx="0.900000036"></rect>
                        <rect id="Rectangle-168-Copy-3" fill-opacity="0.5" fill="#FFFFFF" x="146.54793" y="94.7414781" width="132.23064" height="82.5529533" rx="0.900000036"></rect>
                        <g id="Rectangle-168-Copy-2-+-Group">
                            <rect id="Rectangle-168-Copy-2" fill-opacity="0.5" fill="#FFFFFF" x="0.579041192" y="94.7414781" width="132.23064" height="82.5529533" rx="0.900000036"></rect>
                            <g id="Group">
                                <rect id="Rectangle-168" fill-opacity="0.5" fill="#FFFFFF" x="0.579041192" y="0.149552452" width="132.23064" height="82.5529533" rx="0.900000036"></rect>
                                <rect id="Rectangle-168-Copy-4" fill-opacity="0.5" fill="#FFFFFF" x="292.516818" y="0.149552452" width="132.23064" height="82.5529533" rx="0.900000036"></rect>
                                <rect id="Rectangle-168-Copy" fill-opacity="0.5" fill="#FFFFFF" x="146.54793" y="0.149552452" width="132.23064" height="82.5529533" rx="0.900000036"></rect>
                                <g id="7---Camera-(Flat)-Copy" transform="translate(181.770884, 16.961409)">
                                    <path d="M47.099498,10.4104768 L42.912876,0 L17.7931437,0 L13.6065216,10.4104768 L3.97624429,10.4104768 C1.78036102,10.4104768 0,12.1812989 0,14.365417 L0,44.9389053 C0,47.1428033 1.79606086,48.9292411 4.01183057,48.9292411 L56.6941891,48.9292411 C58.9099588,48.9292411 60.7060196,47.1428033 60.7060196,44.9389053 L60.7060196,14.365417 C60.7060196,12.1812989 58.9256586,10.4104768 56.7297754,10.4104768 L47.099498,10.4104768" id="Fill-1937" fill="#556080"></path>
                                    <path d="M48.1461535,27.0672397 C48.1461535,36.8416364 40.1800584,44.7650504 30.3530098,44.7650504 C20.5259612,44.7650504 12.5598661,36.8416364 12.5598661,27.0672397 C12.5598661,17.2928431 20.5259612,9.36942914 30.3530098,9.36942914 C40.1800584,9.36942914 48.1461535,17.2928431 48.1461535,27.0672397" id="Fill-1938" fill="#535D73"></path>
                                    <path d="M30.3530098,45.806098 C19.9649539,45.806098 11.5132106,37.399638 11.5132106,27.0672397 C11.5132106,16.7348415 19.9649539,8.32838146 30.3530098,8.32838146 C40.7410658,8.32838146 49.192809,16.7348415 49.192809,27.0672397 C49.192809,37.399638 40.7410658,45.806098 30.3530098,45.806098 L30.3530098,45.806098 Z M30.3530098,10.4104768 C21.1194149,10.4104768 13.6065216,17.8831171 13.6065216,27.0672397 C13.6065216,36.2513624 21.1194149,43.7240027 30.3530098,43.7240027 C39.5866047,43.7240027 47.099498,36.2513624 47.099498,27.0672397 C47.099498,17.8831171 39.5866047,10.4104768 30.3530098,10.4104768 L30.3530098,10.4104768 Z" id="Fill-1939" fill="#39404E"></path>
                                    <path d="M41.8662204,27.0672397 C41.8662204,33.3916044 36.7114421,38.5187643 30.3530098,38.5187643 C23.9945776,38.5187643 18.8397992,33.3916044 18.8397992,27.0672397 C18.8397992,20.7428751 23.9945776,15.6157152 30.3530098,15.6157152 C36.7114421,15.6157152 41.8662204,20.7428751 41.8662204,27.0672397" id="Fill-1940" fill="#8697CB"></path>
                                    <path d="M6.27993307,5.20523841 L10.4665551,5.20523841 L10.4665551,10.4104768 L6.27993307,10.4104768 L6.27993307,5.20523841 Z" id="Fill-1941" fill="#38454F"></path>
                                    <path d="M56.5193976,17.6978106 C56.5193976,19.4228266 55.1137392,20.8209537 53.3794311,20.8209537 C51.6451229,20.8209537 50.2394645,19.4228266 50.2394645,17.6978106 C50.2394645,15.9727946 51.6451229,14.5746676 53.3794311,14.5746676 C55.1137392,14.5746676 56.5193976,15.9727946 56.5193976,17.6978106" id="Fill-1942" fill="#F3D55B"></path>
                                    <path d="M33.4929764,27.0672397 C33.4929764,30.8098062 34.9771339,34.1234609 37.2609362,36.2128436 C40.0523664,34.1234609 41.8662204,30.8098062 41.8662204,27.0672397 C41.8662204,23.3246733 40.0523664,20.0110186 37.2609362,17.9216359 C34.9771339,20.0110186 33.4929764,23.3246733 33.4929764,27.0672397" id="Fill-1968" fill="#98ABDF"></path>
                                    <path d="M18.8397992,27.0672397 C18.8397992,30.8098062 20.6536532,34.1234609 23.4450834,36.2128436 C25.7288858,34.1234609 27.2130433,30.8098062 27.2130433,27.0672397 C27.2130433,23.3246733 25.7288858,20.0110186 23.4450834,17.9216359 C20.6536532,20.0110186 18.8397992,23.3246733 18.8397992,27.0672397" id="Fill-1969" fill="#98ABDF"></path>
                                    <path d="M30.3530098,39.5598119 C23.4272903,39.5598119 17.7931437,33.9558523 17.7931437,27.0672397 C17.7931437,20.1786272 23.4272903,14.5746676 30.3530098,14.5746676 C37.2787293,14.5746676 42.912876,20.1786272 42.912876,27.0672397 C42.912876,33.9558523 37.2787293,39.5598119 30.3530098,39.5598119 L30.3530098,39.5598119 Z M30.3530098,16.6567629 C24.5817513,16.6567629 19.8864547,21.3269028 19.8864547,27.0672397 C19.8864547,32.8075767 24.5817513,37.4777166 30.3530098,37.4777166 C36.1242683,37.4777166 40.8195649,32.8075767 40.8195649,27.0672397 C40.8195649,21.3269028 36.1242683,16.6567629 30.3530098,16.6567629 L30.3530098,16.6567629 Z" id="Fill-1970" fill="#556080"></path>
                                    <path d="M35.5862874,23.4235729 C35.5862874,25.435918 33.9461782,27.0672397 31.9229931,27.0672397 C29.899808,27.0672397 28.2596988,25.435918 28.2596988,23.4235729 C28.2596988,21.4112277 29.899808,19.779906 31.9229931,19.779906 C33.9461782,19.779906 35.5862874,21.4112277 35.5862874,23.4235729" id="Fill-1971" fill="#578AEC"></path>
                                    <path d="M31.3996653,24.9851444 C31.3996653,26.1355021 30.4629087,27.0672397 29.3063543,27.0672397 C28.1498,27.0672397 27.2130433,26.1355021 27.2130433,24.9851444 C27.2130433,23.8347867 28.1498,22.903049 29.3063543,22.903049 C30.4629087,22.903049 31.3996653,23.8347867 31.3996653,24.9851444" id="Fill-1972" fill="#CC66A1"></path>
                                    <path d="M28.2596988,22.903049 C28.2596988,24.0534067 27.3229421,24.9851444 26.1663878,24.9851444 C25.0098334,24.9851444 24.0730768,24.0534067 24.0730768,22.903049 C24.0730768,21.7526913 25.0098334,20.8209537 26.1663878,20.8209537 C27.3229421,20.8209537 28.2596988,21.7526913 28.2596988,22.903049" id="Fill-1973" fill="#C7D7F9"></path>
                                </g>
                                <g id="19---Maps-(Flat)-Copy" transform="translate(324.251070, 13.586978)">
                                    <path d="M0,28.8354168 L0,54.1603581 L3.07658857,52.9290389 L13.5778636,42.4219295 L0,28.8354168" id="Fill-1560" fill="#DDD1A0"></path>
                                    <path d="M16.570495,5.54756811 L12.6101467,1.58501946 L0,6.63188058 L0,11.6411611 L16.570495,28.2208625 L16.570495,5.54756811" id="Fill-1561" fill="#DDD1A0"></path>
                                    <path d="M32.0362903,23.9532474 L32.0362903,21.0219561 L16.570495,5.54756811 L16.570495,28.2208625 L22.1702176,33.8236963 L32.0362903,23.9532474" id="Fill-1562" fill="#F9EBB0"></path>
                                    <path d="M32.0362903,43.6952505 L32.0362903,41.1475031 L30.7636763,42.4219295 L32.0362903,43.6952505" id="Fill-1563" fill="#8697CB"></path>
                                    <path d="M42.0934761,31.0847296 L32.0362903,41.1475031 L32.0362903,43.6952505 L39.3582397,51.021268 L47.5020856,47.5284775 L47.5020856,36.4963442 L42.0934761,31.0847296" id="Fill-1564" fill="#7785AF"></path>
                                    <path d="M47.5020856,8.47885933 L47.5020856,0 L33.9982369,5.79073706 L42.0934761,13.8904739 L47.5020856,8.47885933" id="Fill-1565" fill="#DDD1A0"></path>
                                    <path d="M33.5011221,22.4876017 L32.0362903,21.0219561 L32.0362903,23.9532474 L33.5011221,22.4876017" id="Fill-1566" fill="#DDD1A0"></path>
                                    <path d="M53.2796649,2.69807008 L47.5020856,0 L47.5020856,8.47885933 L53.2796649,2.69807008" id="Fill-1567" fill="#F9EBB0"></path>
                                    <path d="M64.0725806,35.8817899 L64.0725806,9.09341359 L50.6858301,22.4876017 L64.0725806,35.8817899" id="Fill-1568" fill="#8697CB"></path>
                                    <path d="M47.5020856,47.5284775 L64.0725806,54.1603581 L64.0725806,53.0760456 L47.5020856,36.4963442 L47.5020856,47.5284775" id="Fill-1569" fill="#8697CB"></path>
                                    <path d="M16.570495,39.4276354 L16.570495,28.2208625 L0,11.6411611 L0,28.8354168 L13.5778636,42.4219295 L16.570495,39.4276354" id="Fill-1570" fill="#D9BA54"></path>
                                    <path d="M22.9324604,50.2563911 L32.0362903,54.1603581 L32.0362903,43.6952505 L30.7636763,42.4219295 L22.9324604,50.2563911" id="Fill-1571" fill="#F3D55B"></path>
                                    <path d="M16.570495,28.2208625 L16.570495,39.4276354 L22.1702176,33.8236963 L16.570495,28.2208625" id="Fill-1572" fill="#F3D55B"></path>
                                    <path d="M32.0362903,54.1603581 L39.3582397,51.021268 L32.0362903,43.6952505 L32.0362903,54.1603581" id="Fill-1573" fill="#D9BA54"></path>
                                    <path d="M16.570495,0 L12.6101467,1.58501946 L16.570495,5.54756811 L16.570495,0" id="Fill-1574" fill="#D9BA54"></path>
                                    <path d="M32.0362903,6.63188058 L16.570495,0 L16.570495,5.54756811 L32.0362903,21.0219561 L32.0362903,6.63188058" id="Fill-1575" fill="#F3D55B"></path>
                                    <path d="M32.0362903,21.0219561 L33.5011221,22.4876017 L42.0934761,13.8904739 L33.9982369,5.79073706 L32.0362903,6.63188058 L32.0362903,21.0219561" id="Fill-1576" fill="#D9BA54"></path>
                                    <path d="M47.5020856,36.4963442 L47.5020856,25.6731151 L42.0934761,31.0847296 L47.5020856,36.4963442" id="Fill-1577" fill="#D9BA54"></path>
                                    <path d="M50.6858301,22.4876017 L47.5020856,25.6731151 L47.5020856,36.4963442 L64.0725806,53.0760456 L64.0725806,35.8817899 L50.6858301,22.4876017" id="Fill-1578" fill="#F3D55B"></path>
                                    <path d="M16.570495,45.4151182 L13.5778636,42.4219295 L3.07658857,52.9290389 L16.570495,47.5284775 L16.570495,45.4151182" id="Fill-1579" fill="#D9BA54"></path>
                                    <path d="M16.570495,47.5284775 L20.2657154,49.113497 L16.570495,45.4151182 L16.570495,47.5284775" id="Fill-1580" fill="#F3D55B"></path>
                                    <path d="M22.1702176,33.8236963 L30.7636763,42.4219295 L32.0362903,41.1475031 L32.0362903,23.9532474 L22.1702176,33.8236963" id="Fill-1581" fill="#F3D55B"></path>
                                    <path d="M47.5020856,8.47885933 L42.0934761,13.8904739 L47.5020856,19.3020884 L47.5020856,8.47885933" id="Fill-1582" fill="#D9BA54"></path>
                                    <path d="M32.0362903,23.9532474 L32.0362903,41.1475031 L42.0934761,31.0847296 L33.5011221,22.4876017 L32.0362903,23.9532474" id="Fill-1583" fill="#D9BA54"></path>
                                    <path d="M47.5020856,19.3020884 L50.6858301,22.4876017 L64.0725806,9.09341359 L64.0725806,7.73719402 L53.2796649,2.69807008 L47.5020856,8.47885933 L47.5020856,19.3020884" id="Fill-1584" fill="#F3D55B"></path>
                                    <path d="M13.5778636,42.4219295 L16.570495,45.4151182 L16.570495,39.4276354 L13.5778636,42.4219295" id="Fill-1585" fill="#D9BA54"></path>
                                    <path d="M22.1702176,33.8236963 L16.570495,39.4276354 L16.570495,45.4151182 L20.2657154,49.113497 L22.9324604,50.2563911 L30.7636763,42.4219295 L22.1702176,33.8236963" id="Fill-1586" fill="#F3D55B"></path>
                                    <path d="M42.0934761,13.8904739 L33.5011221,22.4876017 L42.0934761,31.0847296 L47.5020856,25.6731151 L47.5020856,19.3020884 L42.0934761,13.8904739" id="Fill-1587" fill="#D9BA54"></path>
                                    <path d="M47.5020856,25.6731151 L50.6858301,22.4876017 L47.5020856,19.3020884 L47.5020856,25.6731151" id="Fill-1588" fill="#F3D55B"></path>
                                </g>
                                <g id="Upload-Smartphone-Copy" transform="translate(48.988439, 6.838117)">
                                    <path d="M31.0260878,61.3889822 L4.26641906,61.3889822 C2.26812866,61.3889822 0.64803676,59.775404 0.64803676,57.7851478 L0.64803676,3.62288001 C0.64803676,1.63262379 2.26812866,0.0201035982 4.26641906,0.0201035982 L31.0260878,0.0201035982 C33.0243782,0.0201035982 34.6434078,1.63262379 34.6434078,3.62288001 L34.6434078,57.7851478 C34.6434078,59.775404 33.0243782,61.3889822 31.0260878,61.3889822" id="Fill-1123" fill="#545E73"></path>
                                    <path d="M0.64803676,6.36860829 L34.6434078,6.36860829 L34.6434078,48.6919729 L0.64803676,48.6919729 L0.64803676,6.36860829 Z" id="Fill-1124" fill="#8697CB"></path>
                                    <path d="M20.8327883,55.0404776 C20.8327883,56.7937229 19.4060451,58.2147299 17.6457223,58.2147299 C15.8853995,58.2147299 14.4586562,56.7937229 14.4586562,55.0404776 C14.4586562,53.2872322 15.8853995,51.8662252 17.6457223,51.8662252 C19.4060451,51.8662252 20.8327883,53.2872322 20.8327883,55.0404776" id="Fill-1125" fill="#323A45"></path>
                                    <path d="M17.6457223,4.25244006 L13.3963009,4.25244006 C12.8098807,4.25244006 12.3339455,3.77841837 12.3339455,3.19435594 C12.3339455,2.60923543 12.8098807,2.13627183 13.3963009,2.13627183 L17.6457223,2.13627183 C18.2332048,2.13627183 18.7080776,2.60923543 18.7080776,3.19435594 C18.7080776,3.77841837 18.2332048,4.25244006 17.6457223,4.25244006" id="Fill-1126" fill="#323A45"></path>
                                    <path d="M21.8951436,4.25244006 L20.8327883,4.25244006 C20.2463681,4.25244006 19.7704329,3.77841837 19.7704329,3.19435594 C19.7704329,2.60923543 20.2463681,2.13627183 20.8327883,2.13627183 L21.8951436,2.13627183 C22.4826261,2.13627183 22.957499,2.60923543 22.957499,3.19435594 C22.957499,3.77841837 22.4826261,4.25244006 21.8951436,4.25244006" id="Fill-1127" fill="#323A45"></path>
                                </g>
                            </g>
                        </g>
                        <g id="Condenser-Microphone-Copy" transform="translate(190.184026, 103.960866)">
                            <path d="M5.40192805,15.1338021 L33.4919539,15.1338021 L33.4919539,19.4577456 L5.40192805,19.4577456 L5.40192805,15.1338021 Z" id="Fill-1539" fill="#DBC27D"></path>
                            <path d="M17.2861697,59.4542226 L21.6077122,59.4542226 L21.6077122,62.6971802 L17.2861697,62.6971802 L17.2861697,59.4542226 Z" id="Fill-1540" fill="#D75A4A"></path>
                            <path d="M8.64308487,19.4577456 L8.64308487,45.046843 C8.64308487,46.6315682 9.38855094,48.1233287 10.6547629,49.0735153 L14.6932443,52.1035187 C16.0329224,53.1088355 16.9091152,54.5865432 17.1846135,56.211265 L21.7092684,56.211265 C21.9847668,54.5865432 22.8609595,53.1088355 24.2006376,52.1035187 L28.2391191,49.0735153 C29.505331,48.1233287 30.2507971,46.6315682 30.2507971,45.046843 L30.2507971,19.4577456 L8.64308487,19.4577456" id="Fill-1541" fill="#D75A4A"></path>
                            <path d="M30.2507971,15.1338021 L8.64308487,15.1338021 L8.64308487,9.94831292 C8.64308487,8.36791158 8.9185832,6.79615813 9.46093678,5.27629201 L10.8060169,1.50797528 C11.1247306,0.616161943 12.1435342,0 13.3038684,0 L25.5900135,0 C26.7503477,0 27.7691513,0.616161943 28.0878651,1.50797528 L29.4340255,5.27737299 C29.9752987,6.79615813 30.2507971,8.36899257 30.2507971,9.94831292 L30.2507971,15.1338021" id="Fill-1911" fill="#E3D5A6"></path>
                            <path d="M38.8711938,22.5882806 C38.8636311,22.5158546 38.8506665,22.4477525 38.8279784,22.3764074 C38.8052903,22.3039814 38.7750395,22.2391222 38.7383064,22.174263 C38.7188595,22.1418335 38.7145379,22.103999 38.6918498,22.0726504 C38.675644,22.0488687 38.6486344,22.0369778 38.6302678,22.0142771 C38.5816505,21.9559039 38.5265508,21.9083405 38.4660492,21.8607771 C38.4131103,21.8196997 38.3623322,21.7818652 38.3039914,21.7515976 C38.2434898,21.720249 38.179747,21.6997103 38.1127631,21.6802525 C38.0414577,21.6597138 37.9733934,21.643499 37.8988468,21.6370131 C37.8696764,21.6348511 37.8437471,21.6197173 37.8134963,21.6197173 C37.7735221,21.6197173 37.7400301,21.6380941 37.7022166,21.642418 C37.6287504,21.6499849 37.5596057,21.6629567 37.4883003,21.6856574 C37.4169948,21.7083581 37.3532521,21.7375448 37.2895093,21.7742983 C37.2560173,21.793756 37.2182038,21.79808 37.1857923,21.8207807 L30.1038646,26.8819565 L19.867211,22.786101 L19.847764,22.7774532 C19.7883428,22.7536715 19.7278412,22.7569144 19.6673396,22.7450236 C19.5971146,22.7298898 19.5301307,22.7039461 19.4577448,22.7028651 C19.4534233,22.7028651 19.4501821,22.7007032 19.446941,22.7007032 C19.4436998,22.7007032 19.4404587,22.7028651 19.4372175,22.7028651 C19.3615905,22.7039461 19.2913654,22.7298898 19.2189796,22.7461046 C19.1606388,22.7590764 19.102298,22.7558334 19.0461179,22.7774532 L8.79001732,26.8819565 L1.70808965,21.8207807 C1.67567808,21.79808 1.63786458,21.793756 1.60437263,21.7742983 C1.54062988,21.7386257 1.47688713,21.7083581 1.40558168,21.6856574 C1.33535661,21.6629567 1.26621193,21.6499849 1.19274571,21.642418 C1.15385183,21.6380941 1.12035988,21.6197173 1.08038561,21.6197173 C1.05013481,21.6197173 1.02420556,21.6348511 0.99395476,21.6370131 C0.920488539,21.643499 0.853504631,21.6597138 0.782199181,21.6802525 C0.715215273,21.6997103 0.651472522,21.720249 0.589890543,21.7515976 C0.53154972,21.7818652 0.480771596,21.8196997 0.428913087,21.8607771 C0.368411493,21.9072595 0.313311827,21.9559039 0.263614089,22.0153581 C0.245247533,22.0369778 0.218237893,22.0488687 0.202032109,22.0726504 C0.179344011,22.103999 0.175022469,22.1418335 0.155575528,22.174263 C0.118842417,22.2391222 0.0885916199,22.3039814 0.0648231365,22.3764074 C0.0432154244,22.4466715 0.0302507971,22.5158546 0.0226880978,22.5882806 C0.0183665554,22.6271961 0,22.6607067 0,22.7007032 L0,47.5633781 C0,47.6163464 0.0226880978,47.6606668 0.0302507971,47.7114731 C0.0399742675,47.7882231 0.0475369668,47.8617302 0.0756269926,47.9352372 C0.102636633,48.0098252 0.145852057,48.0725224 0.187987096,48.1373816 C0.214996736,48.17954 0.226880978,48.2281844 0.260372932,48.2670999 C0.269016017,48.2768287 0.281980644,48.2800717 0.290623729,48.2898006 C0.368411493,48.3751984 0.463485426,48.4400576 0.566122059,48.4962689 C0.595292471,48.5124837 0.617980568,48.5384273 0.648231365,48.5513991 C0.781118795,48.6097724 0.925890467,48.6443639 1.08038561,48.6443639 C1.21435342,48.6443639 1.34724085,48.6151773 1.47472636,48.565452 C1.52658487,48.5438322 1.5687199,48.5103217 1.61625687,48.482216 C1.67243692,48.4497865 1.73185813,48.4281668 1.78263626,48.3838463 L8.84943852,42.3249206 L19.0461179,46.4056422 C19.0580021,46.4099661 19.0709668,46.4078042 19.0839314,46.4132091 C19.1995327,46.4542866 19.3216162,46.4834732 19.446941,46.4834732 C19.5722657,46.4834732 19.6943493,46.4542866 19.8099505,46.4132091 C19.8229152,46.4078042 19.8358798,46.4099661 19.847764,46.4056422 L19.867211,46.3980753 L19.867211,46.3969943 L30.0444434,42.3249206 L37.1112457,48.3838463 C37.1620238,48.4281668 37.2225254,48.4497865 37.2787054,48.482216 C37.3262424,48.5103217 37.3672971,48.5449132 37.4191556,48.565452 C37.5466411,48.6151773 37.6795285,48.6443639 37.8134963,48.6443639 C37.9679915,48.6443639 38.1127631,48.6097724 38.2456506,48.5513991 C38.2759014,48.5384273 38.2985895,48.5124837 38.3277599,48.4962689 C38.4303965,48.4400576 38.5243901,48.3751984 38.6032582,48.2898006 C38.6119013,48.2800717 38.6248659,48.2768287 38.633509,48.2670999 C38.667001,48.2281844 38.6788852,48.180621 38.7058948,48.1373816 C38.7480299,48.0725224 38.7912453,48.0098252 38.8193353,47.9352372 C38.846345,47.8617302 38.8539077,47.7882231 38.8636311,47.7114731 C38.8711938,47.6617478 38.8938819,47.6163464 38.8938819,47.5633781 L38.8938819,22.7007032 C38.8938819,22.6607067 38.8755154,22.6271961 38.8711938,22.5882806 L38.8711938,22.5882806 Z M31.3311827,33.5105618 L31.3311827,28.6623402 L36.7331107,24.8010587 L36.7331107,33.5105618 L31.3311827,33.5105618 L31.3311827,33.5105618 Z M29.1704114,33.5105618 L20.5273266,33.5105618 L20.5273266,25.3783052 L29.1704114,28.8374599 L29.1704114,33.5105618 L29.1704114,33.5105618 Z M18.3665554,33.5105618 L9.72347048,33.5105618 L9.72347048,28.8374599 L18.3665554,25.3783052 L18.3665554,33.5105618 L18.3665554,33.5105618 Z M7.56269926,33.5105618 L2.16077122,33.5105618 L2.16077122,24.8010587 L7.56269926,28.6623402 L7.56269926,33.5105618 L7.56269926,33.5105618 Z M2.16077122,35.6725335 L7.56269926,35.6725335 L7.56269926,40.5812904 L2.16077122,45.2133148 L2.16077122,35.6725335 L2.16077122,35.6725335 Z M9.72347048,35.6725335 L18.3665554,35.6725335 L18.3665554,43.8047902 L9.72347048,40.3456354 L9.72347048,35.6725335 L9.72347048,35.6725335 Z M20.5273266,35.6725335 L29.1704114,35.6725335 L29.1704114,40.3456354 L20.5273266,43.8047902 L20.5273266,35.6725335 L20.5273266,35.6725335 Z M31.3311827,35.6725335 L36.7331107,35.6725335 L36.7331107,45.2133148 L31.3311827,40.5812904 L31.3311827,35.6725335 L31.3311827,35.6725335 Z" id="Fill-1912" fill="#556080"></path>
                            <path d="M9.72347048,56.211265 L29.1704114,56.211265 L29.1704114,59.4542226 L9.72347048,59.4542226 L9.72347048,56.211265 Z" id="Fill-1913" fill="#AA453D"></path>
                            <path d="M17.2861697,0 C16.6897969,0 16.2057841,0.484281668 16.2057841,1.08098587 C16.2057841,1.67769006 16.6897969,2.16197173 17.2861697,2.16197173 C17.8825426,2.16197173 18.3665554,1.67769006 18.3665554,1.08098587 C18.3665554,0.484281668 17.8825426,0 17.2861697,0" id="Fill-1914" fill="#FCE092"></path>
                            <path d="M23.7684834,0 C23.1721105,0 22.6880978,0.484281668 22.6880978,1.08098587 C22.6880978,1.67769006 23.1721105,2.16197173 23.7684834,2.16197173 C24.3648563,2.16197173 24.848869,1.67769006 24.848869,1.08098587 C24.848869,0.484281668 24.3648563,0 23.7684834,0" id="Fill-1915" fill="#FCE092"></path>
                            <path d="M10.8038561,6.48591519 C10.2074832,6.48591519 9.72347048,6.97019686 9.72347048,7.56690106 C9.72347048,8.16360525 10.2074832,8.64788692 10.8038561,8.64788692 C11.4002289,8.64788692 11.8842417,8.16360525 11.8842417,7.56690106 C11.8842417,6.97019686 11.4002289,6.48591519 10.8038561,6.48591519" id="Fill-1916" fill="#FCE092"></path>
                            <path d="M14.0450129,3.2429576 C13.4486401,3.2429576 12.9646273,3.72723926 12.9646273,4.32394346 C12.9646273,4.92064766 13.4486401,5.40492933 14.0450129,5.40492933 C14.6413858,5.40492933 15.1253985,4.92064766 15.1253985,4.32394346 C15.1253985,3.72723926 14.6413858,3.2429576 14.0450129,3.2429576" id="Fill-1917" fill="#FCE092"></path>
                            <path d="M14.0450129,9.72887279 C13.4486401,9.72887279 12.9646273,10.2131545 12.9646273,10.8098587 C12.9646273,11.4065628 13.4486401,11.8908445 14.0450129,11.8908445 C14.6413858,11.8908445 15.1253985,11.4065628 15.1253985,10.8098587 C15.1253985,10.2131545 14.6413858,9.72887279 14.0450129,9.72887279" id="Fill-1918" fill="#FCE092"></path>
                            <path d="M17.2861697,6.48591519 C16.6897969,6.48591519 16.2057841,6.97019686 16.2057841,7.56690106 C16.2057841,8.16360525 16.6897969,8.64788692 17.2861697,8.64788692 C17.8825426,8.64788692 18.3665554,8.16360525 18.3665554,7.56690106 C18.3665554,6.97019686 17.8825426,6.48591519 17.2861697,6.48591519" id="Fill-1919" fill="#FCE092"></path>
                            <path d="M20.5273266,3.2429576 C19.9309537,3.2429576 19.446941,3.72723926 19.446941,4.32394346 C19.446941,4.92064766 19.9309537,5.40492933 20.5273266,5.40492933 C21.1236994,5.40492933 21.6077122,4.92064766 21.6077122,4.32394346 C21.6077122,3.72723926 21.1236994,3.2429576 20.5273266,3.2429576" id="Fill-1920" fill="#FCE092"></path>
                            <path d="M20.5273266,9.72887279 C19.9309537,9.72887279 19.446941,10.2131545 19.446941,10.8098587 C19.446941,11.4065628 19.9309537,11.8908445 20.5273266,11.8908445 C21.1236994,11.8908445 21.6077122,11.4065628 21.6077122,10.8098587 C21.6077122,10.2131545 21.1236994,9.72887279 20.5273266,9.72887279" id="Fill-1921" fill="#FCE092"></path>
                            <path d="M23.7684834,6.48591519 C23.1721105,6.48591519 22.6880978,6.97019686 22.6880978,7.56690106 C22.6880978,8.16360525 23.1721105,8.64788692 23.7684834,8.64788692 C24.3648563,8.64788692 24.848869,8.16360525 24.848869,7.56690106 C24.848869,6.97019686 24.3648563,6.48591519 23.7684834,6.48591519" id="Fill-1922" fill="#FCE092"></path>
                            <path d="M27.0096402,5.40492933 C27.6060131,5.40492933 28.0900258,4.92064766 28.0900258,4.32394346 C28.0900258,3.72723926 27.6060131,3.2429576 27.0096402,3.2429576 C26.4132674,3.2429576 25.9292546,3.72723926 25.9292546,4.32394346 C25.9292546,4.92064766 26.4132674,5.40492933 27.0096402,5.40492933" id="Fill-1923" fill="#FCE092"></path>
                            <path d="M27.0096402,9.72887279 C26.4132674,9.72887279 25.9292546,10.2131545 25.9292546,10.8098587 C25.9292546,11.4065628 26.4132674,11.8908445 27.0096402,11.8908445 C27.6060131,11.8908445 28.0900258,11.4065628 28.0900258,10.8098587 C28.0900258,10.2131545 27.6060131,9.72887279 27.0096402,9.72887279" id="Fill-1924" fill="#FCE092"></path>
                            <path d="M10.8038561,12.9718304 C10.2074832,12.9718304 9.72347048,13.456112 9.72347048,14.0528162 C9.72347048,14.6495204 10.2074832,15.1338021 10.8038561,15.1338021 C11.4002289,15.1338021 11.8842417,14.6495204 11.8842417,14.0528162 C11.8842417,13.456112 11.4002289,12.9718304 10.8038561,12.9718304" id="Fill-1925" fill="#FCE092"></path>
                            <path d="M17.2861697,12.9718304 C16.6897969,12.9718304 16.2057841,13.456112 16.2057841,14.0528162 C16.2057841,14.6495204 16.6897969,15.1338021 17.2861697,15.1338021 C17.8825426,15.1338021 18.3665554,14.6495204 18.3665554,14.0528162 C18.3665554,13.456112 17.8825426,12.9718304 17.2861697,12.9718304" id="Fill-1926" fill="#FCE092"></path>
                            <path d="M23.7684834,12.9718304 C23.1721105,12.9718304 22.6880978,13.456112 22.6880978,14.0528162 C22.6880978,14.6495204 23.1721105,15.1338021 23.7684834,15.1338021 C24.3648563,15.1338021 24.848869,14.6495204 24.848869,14.0528162 C24.848869,13.456112 24.3648563,12.9718304 23.7684834,12.9718304" id="Fill-1927" fill="#FCE092"></path>
                        </g>
                        <g id="Rectangle-174-+-Group-Copy" transform="translate(43.929604, 105.648081)">
                            <rect id="Rectangle-174" fill="#F5EFCA" x="0" y="0" width="45.5295147" height="62.4269628"></rect>
                            <g id="Group" transform="translate(7.918176, 7.048205)" fill="#C5BFA5">
                                <path d="M28.5511171,30.344795 L21.698849,30.344795 C21.0672983,30.344795 20.5568043,29.8329413 20.5568043,29.1997084 C20.5568043,28.5664755 21.0672983,28.0546218 21.698849,28.0546218 L28.5511171,28.0546218 C29.1826678,28.0546218 29.6931618,28.5664755 29.6931618,29.1997084 C29.6931618,29.8329413 29.1826678,30.344795 28.5511171,30.344795" id="Fill-505"></path>
                                <path d="M6.8522681,21.1841022 L1.14204468,21.1841022 C0.510493974,21.1841022 0,20.6722485 0,20.0390156 C0,19.4069278 0.510493974,18.893929 1.14204468,18.893929 L6.8522681,18.893929 C7.48381881,18.893929 7.99431279,19.4069278 7.99431279,20.0390156 C7.99431279,20.6722485 7.48381881,21.1841022 6.8522681,21.1841022" id="Fill-506"></path>
                                <path d="M23.9829384,21.1841022 L15.9886256,21.1841022 C15.3570749,21.1841022 14.8465809,20.6722485 14.8465809,20.0390156 C14.8465809,19.4069278 15.3570749,18.893929 15.9886256,18.893929 L23.9829384,18.893929 C24.6144891,18.893929 25.124983,19.4069278 25.124983,20.0390156 C25.124983,20.6722485 24.6144891,21.1841022 23.9829384,21.1841022" id="Fill-507"></path>
                                <path d="M11.4204468,21.1841022 C11.1235152,21.1841022 10.8254416,21.0581426 10.6095951,20.852027 C10.402885,20.6344606 10.2784022,20.3367381 10.2784022,20.0390156 C10.2784022,19.741293 10.402885,19.4424254 10.6095951,19.2260041 C11.0321516,18.802322 11.808742,18.802322 12.2312986,19.2260041 C12.4368666,19.4424254 12.5624915,19.741293 12.5624915,20.0390156 C12.5624915,20.3367381 12.4368666,20.6344606 12.2312986,20.852027 C12.013168,21.0581426 11.7173785,21.1841022 11.4204468,21.1841022" id="Fill-508"></path>
                                <path d="M17.1306703,30.344795 L5.71022342,30.344795 C5.07867271,30.344795 4.56817874,29.8329413 4.56817874,29.1997084 C4.56817874,28.5664755 5.07867271,28.0546218 5.71022342,28.0546218 L17.1306703,28.0546218 C17.762221,28.0546218 18.2727149,28.5664755 18.2727149,29.1997084 C18.2727149,29.8329413 17.762221,30.344795 17.1306703,30.344795" id="Fill-509"></path>
                                <path d="M1.14204468,30.344795 C0.845113066,30.344795 0.547039404,30.2188355 0.331192958,30.0127199 C0.124482871,29.7951534 0,29.4974309 0,29.1997084 C0,28.9019859 0.124482871,28.6031183 0.331192958,28.3866969 C0.753749491,27.9630149 1.51891943,27.9630149 1.95289641,28.3866969 C2.15846445,28.6031183 2.28408937,28.9019859 2.28408937,29.1997084 C2.28408937,29.4974309 2.15846445,29.7951534 1.95289641,30.0127199 C1.73476587,30.2291412 1.4389763,30.344795 1.14204468,30.344795" id="Fill-510"></path>
                                <path d="M28.5511171,21.1841022 C28.2541855,21.1841022 27.9561118,21.0581426 27.7402654,20.852027 C27.5335553,20.6344606 27.4090724,20.3367381 27.4090724,20.0390156 C27.4090724,19.7286971 27.5335553,19.4424254 27.7402654,19.2260041 C28.1628219,18.802322 28.9394123,18.802322 29.3619688,19.2260041 C29.5675369,19.4424254 29.6931618,19.7286971 29.6931618,20.0390156 C29.6931618,20.3481889 29.5675369,20.6344606 29.3619688,20.852027 C29.1438383,21.0581426 28.8480487,21.1841022 28.5511171,21.1841022" id="Fill-511"></path>
                                <path d="M6.8522681,39.5054878 L1.14204468,39.5054878 C0.510493974,39.5054878 0,38.9936341 0,38.3604012 C0,37.7271683 0.510493974,37.2153146 1.14204468,37.2153146 L6.8522681,37.2153146 C7.48381881,37.2153146 7.99431279,37.7271683 7.99431279,38.3604012 C7.99431279,38.9936341 7.48381881,39.5054878 6.8522681,39.5054878" id="Fill-512"></path>
                                <path d="M23.9829384,39.5054878 L15.9886256,39.5054878 C15.3570749,39.5054878 14.8465809,38.9936341 14.8465809,38.3604012 C14.8465809,37.7271683 15.3570749,37.2153146 15.9886256,37.2153146 L23.9829384,37.2153146 C24.6144891,37.2153146 25.124983,37.7271683 25.124983,38.3604012 C25.124983,38.9936341 24.6144891,39.5054878 23.9829384,39.5054878" id="Fill-513"></path>
                                <path d="M11.4204468,39.5054878 C11.1109527,39.5054878 10.8254416,39.3795283 10.6095951,39.1734127 C10.402885,38.9558462 10.2784022,38.6581237 10.2784022,38.3604012 C10.2784022,38.0500827 10.402885,37.7638111 10.6095951,37.5473897 C11.0321516,37.1237077 11.7973216,37.1237077 12.2312986,37.5473897 C12.4368666,37.7638111 12.5624915,38.0626787 12.5624915,38.3604012 C12.5624915,38.6581237 12.4368666,38.9558462 12.2312986,39.1734127 C12.013168,39.3795283 11.7173785,39.5054878 11.4204468,39.5054878" id="Fill-514"></path>
                                <path d="M28.5511171,39.5054878 C28.2541855,39.5054878 27.9561118,39.3795283 27.7402654,39.1734127 C27.5335553,38.9558462 27.4090724,38.6581237 27.4090724,38.3604012 C27.4090724,38.0626787 27.5335553,37.7638111 27.7402654,37.5473897 C28.1628219,37.1237077 28.9394123,37.1237077 29.3619688,37.5473897 C29.5675369,37.7638111 29.6931618,38.0626787 29.6931618,38.3604012 C29.6931618,38.6581237 29.5675369,38.9558462 29.3619688,39.1734127 C29.1438383,39.3795283 28.8583271,39.5054878 28.5511171,39.5054878" id="Fill-515"></path>
                                <path d="M28.5511171,48.6661806 L21.698849,48.6661806 C21.0672983,48.6661806 20.5568043,48.1543269 20.5568043,47.521094 C20.5568043,46.8878612 21.0672983,46.3760074 21.698849,46.3760074 L28.5511171,46.3760074 C29.1826678,46.3760074 29.6931618,46.8878612 29.6931618,47.521094 C29.6931618,48.1543269 29.1826678,48.6661806 28.5511171,48.6661806" id="Fill-505-Copy"></path>
                                <path d="M17.1306703,48.6661806 L5.71022342,48.6661806 C5.07867271,48.6661806 4.56817874,48.1543269 4.56817874,47.521094 C4.56817874,46.8878612 5.07867271,46.3760074 5.71022342,46.3760074 L17.1306703,46.3760074 C17.762221,46.3760074 18.2727149,46.8878612 18.2727149,47.521094 C18.2727149,48.1543269 17.762221,48.6661806 17.1306703,48.6661806" id="Fill-509-Copy"></path>
                                <path d="M1.14204468,48.6661806 C0.845113066,48.6661806 0.547039404,48.5402211 0.331192958,48.3341055 C0.124482871,48.1165391 0,47.8188166 0,47.521094 C0,47.2233715 0.124482871,46.9245039 0.331192958,46.7080826 C0.753749491,46.2844005 1.51891943,46.2844005 1.95289641,46.7080826 C2.15846445,46.9245039 2.28408937,47.2233715 2.28408937,47.521094 C2.28408937,47.8188166 2.15846445,48.1165391 1.95289641,48.3341055 C1.73476587,48.5505269 1.4389763,48.6661806 1.14204468,48.6661806" id="Fill-510-Copy"></path>
                                <path d="M23.9829384,12.0234093 L17.1306703,12.0234093 C16.4991195,12.0234093 15.9886256,11.5115556 15.9886256,10.8783227 C15.9886256,10.2450898 16.4991195,9.73323613 17.1306703,9.73323613 L23.9829384,9.73323613 C24.6144891,9.73323613 25.124983,10.2450898 25.124983,10.8783227 C25.124983,11.5115556 24.6144891,12.0234093 23.9829384,12.0234093" id="Fill-505-Copy-2"></path>
                                <path d="M6.8522681,2.86271651 L1.14204468,2.86271651 C0.510493974,2.86271651 0,2.3508628 0,1.71762991 C0,1.0855421 0.510493974,0.572543302 1.14204468,0.572543302 L6.8522681,0.572543302 C7.48381881,0.572543302 7.99431279,1.0855421 7.99431279,1.71762991 C7.99431279,2.3508628 7.48381881,2.86271651 6.8522681,2.86271651" id="Fill-506-Copy"></path>
                                <path d="M23.9829384,2.86271651 L15.9886256,2.86271651 C15.3570749,2.86271651 14.8465809,2.3508628 14.8465809,1.71762991 C14.8465809,1.0855421 15.3570749,0.572543302 15.9886256,0.572543302 L23.9829384,0.572543302 C24.6144891,0.572543302 25.124983,1.0855421 25.124983,1.71762991 C25.124983,2.3508628 24.6144891,2.86271651 23.9829384,2.86271651" id="Fill-507-Copy"></path>
                                <path d="M11.4204468,2.86271651 C11.1235152,2.86271651 10.8254416,2.73675698 10.6095951,2.53064139 C10.402885,2.31307494 10.2784022,2.01535242 10.2784022,1.71762991 C10.2784022,1.41990739 10.402885,1.12103978 10.6095951,0.904618417 C11.0321516,0.480936373 11.808742,0.480936373 12.2312986,0.904618417 C12.4368666,1.12103978 12.5624915,1.41990739 12.5624915,1.71762991 C12.5624915,2.01535242 12.4368666,2.31307494 12.2312986,2.53064139 C12.013168,2.73675698 11.7173785,2.86271651 11.4204468,2.86271651" id="Fill-508-Copy"></path>
                                <path d="M12.5624915,12.0234093 L1.14204468,12.0234093 C0.510493974,12.0234093 0,11.5115556 0,10.8783227 C0,10.2450898 0.510493974,9.73323613 1.14204468,9.73323613 L12.5624915,9.73323613 C13.1940422,9.73323613 13.7045362,10.2450898 13.7045362,10.8783227 C13.7045362,11.5115556 13.1940422,12.0234093 12.5624915,12.0234093" id="Fill-509-Copy-2"></path>
                                <path d="M28.5511171,12.0234093 C28.2541855,12.0234093 27.9561118,11.8974498 27.7402654,11.6913342 C27.5335553,11.4737678 27.4090724,11.1760452 27.4090724,10.8783227 C27.4090724,10.5806002 27.5335553,10.2817326 27.7402654,10.0653112 C28.1628219,9.6416292 28.9279918,9.6416292 29.3619688,10.0653112 C29.5675369,10.2817326 29.6931618,10.5806002 29.6931618,10.8783227 C29.6931618,11.1760452 29.5675369,11.4737678 29.3619688,11.6913342 C29.1438383,11.9077556 28.8480487,12.0234093 28.5511171,12.0234093" id="Fill-510-Copy-2"></path>
                                <path d="M28.5511171,2.86271651 C28.2541855,2.86271651 27.9561118,2.73675698 27.7402654,2.53064139 C27.5335553,2.31307494 27.4090724,2.01535242 27.4090724,1.71762991 C27.4090724,1.40731144 27.5335553,1.12103978 27.7402654,0.904618417 C28.1628219,0.480936373 28.9394123,0.480936373 29.3619688,0.904618417 C29.5675369,1.12103978 29.6931618,1.40731144 29.6931618,1.71762991 C29.6931618,2.02680329 29.5675369,2.31307494 29.3619688,2.53064139 C29.1438383,2.73675698 28.8480487,2.86271651 28.5511171,2.86271651" id="Fill-511-Copy"></path>
                            </g>
                        </g>
                        <g id="Group-Copy" transform="translate(322.025430, 109.866119)">
                            <rect id="Rectangle-182" fill="#FFFFFF" x="0" y="0" width="72.5099679" height="49.6214319"></rect>
                            <rect id="Rectangle-175" fill="#3B97D3" x="2.68555437" y="2.68223956" width="67.1388592" height="44.2569528"></rect>
                            <g id="Group" transform="translate(2.685554, 9.387838)">
                                <path d="M37.3923206,21.2291503 L26.7086774,0.650006331 L4.97534017,37.565438 L27.7734324,37.565438 L37.3923206,21.2291503 L11.1496238,41.595259" id="Fill-1605" fill="#88C057"></path>
                                <path d="M43.4687939,10.9088019 L27.6942276,37.5719529 L51.4000267,37.5719529 L63.831194,37.5719529" id="Fill-1606" fill="#A4E869"></path>
                                <path d="M18.4924959,14.6047662 L13.6730312,7.17833079 L0.0397489618,30.1294392 L0.0397489752,37.5374679 L5.00127667,37.5374671" id="Fill-1607" fill="#659C35"></path>
                                <path d="M16.8909736,12.1361269 L13.6730312,7.17833079 L9.67667458,13.9649904 L10.8796785,15.5718908 L12.7419137,13.7066552 L14.6041488,15.5718908 L16.8909736,12.1361269" id="Fill-1608" fill="#FFFFFF"></path>
                                <path d="M34.5598609,15.7733362 L26.7086774,0.650006331 L20.85381,10.5935771 L22.9842071,15.5718908 L25.7775598,12.7740375 L28.5709126,18.3697441 L30.4331477,13.7066552 L34.5598609,15.7733362" id="Fill-1609" fill="#FFFFFF"></path>
                                <path d="M49.5816523,18.8977012 L43.4687939,10.9088019 L39.7527036,17.2198264 L42.5376763,22.1002153 L45.3310291,19.3023619 L48.1243818,22.1002153 L49.0778462,19.5523035" id="Fill-1610" fill="#FFFFFF"></path>
                            </g>
                            <g id="Group" transform="translate(51.025533, 5.364479)" fill="#EDE71B">
                                <ellipse id="Oval-48" cx="7.38527451" cy="7.3761588" rx="4.69972014" ry="4.69391924"></ellipse>
                                <path d="M6.74850662,2.2961862 C6.71517214,1.95578832 6.70430296,1.18497498 6.7229733,0.613013676 L6.7229733,0.613013676 C6.74220612,0.0238210417 6.7854636,-0.171298165 6.81815481,0.162530927 L8.02204239,12.4561314 C8.05537687,12.7965293 8.06624605,13.5673426 8.04757571,14.1393039 L8.04757571,14.1393039 C8.0283429,14.7284966 7.98508542,14.9236158 7.9523942,14.5897867 L6.74850662,2.2961862 L6.74850662,2.2961862 Z" id="Rectangle-176"></path>
                                <rect id="Rectangle-176-Copy-5" x="6.71388592" y="0" width="1.34277718" height="14.7523176" rx="3.19999981"></rect>
                                <path d="M6.72860914,1.14657202 C6.69762231,0.780405862 6.7175508,0.306126897 6.76961714,0.101040554 L6.76961714,0.101040554 C6.82325206,-0.110224373 6.89244952,0.0224139331 6.92283839,0.381514038 L8.04193988,13.6057456 C8.07292671,13.9719117 8.05299822,14.4461907 8.00093188,14.651277 L8.00093188,14.651277 C7.94729695,14.862542 7.8780995,14.7299037 7.84771063,14.3708036 L6.72860914,1.14657202 L6.72860914,1.14657202 Z" id="Rectangle-176-Copy"></path>
                                <path d="M7.84766093,0.380357714 C7.87864443,0.0141310267 7.94880497,-0.105282383 8.00086571,0.0998378643 L8.00086571,0.0998378643 C8.05449488,0.311137717 8.07225491,0.786382699 8.0418693,1.14554217 L6.92288809,14.3719599 C6.89190459,14.7381866 6.82174405,14.8576 6.7696833,14.6524797 L6.7696833,14.6524797 C6.71605414,14.4411799 6.69829411,13.9659349 6.72867972,13.6067754 L7.84766093,0.380357714 L7.84766093,0.380357714 Z" id="Rectangle-176-Copy-2"></path>
                                <path d="M7.95230047,0.161755581 C7.98562944,-0.178678888 8.02879899,0.0402639716 8.04746624,0.612286749 L8.04746624,0.612286749 C8.06669588,1.20154271 8.05462295,1.96177521 8.02193714,2.29564019 L6.81824855,14.590562 C6.78491958,14.9309965 6.74175003,14.7120536 6.72308277,14.1400309 L6.72308277,14.1400309 C6.70385314,13.5507749 6.71592607,12.7905424 6.74861187,12.4566774 L7.95230047,0.161755581 L7.95230047,0.161755581 Z" id="Rectangle-176-Copy-3"></path>
                                <path d="M7.99547753,1.96540352e-14 C8.02926939,1.96540352e-14 8.0566631,2.72457399 8.0566631,5.87360793 L8.0566631,5.87360793 C8.0566631,9.11751202 8.02861729,11.7472159 7.99547753,11.7472159 L6.77507149,11.7472159 C6.74127963,11.7472159 6.71388592,9.02264188 6.71388592,5.87360793 L6.71388592,5.87360793 C6.71388592,2.62970385 6.74193173,-6.55134507e-15 6.77507149,0 L7.99547753,1.96540352e-14 L7.99547753,1.96540352e-14 Z" id="Rectangle-176-Copy-4"></path>
                            </g>
                        </g>
                    </g>
                </g>
                <g id="Group-Copy-4" transform="translate(396.000000, 156.000000)" fill="#FFFFFF" sketch:type="MSShapeGroup">
                    <path d="M9.89639344,0.777968434 C13.1403279,0.777968434 15.5803279,1.61749329 17.215082,3.29588815 C18.5672131,4.64685522 19.2439344,6.39597449 19.2439344,8.53997167 C19.2439344,10.6839689 18.5672131,12.4330881 17.215082,13.7840552 C15.5803279,15.46245 13.1403279,16.3019749 9.89639344,16.3019749 L3.52459016,16.3019749 L3.52459016,23.7817354 C3.52459016,24.2257275 3.36852459,24.59965 3.05114754,24.9008836 C2.73770492,25.2047366 2.35868852,25.3540436 1.91672131,25.3540436 C1.47213115,25.3540436 1.10032787,25.2047366 0.795409836,24.9008836 C0.491147541,24.59965 0.341639344,24.2257275 0.341639344,23.7817354 L0.341639344,2.3869486 C0.341639344,1.94557594 0.491147541,1.56444999 0.795409836,1.25077417 C1.10032787,0.935133774 1.47213115,0.777968434 1.91672131,0.777968434 L9.89639344,0.777968434 L9.89639344,0.777968434 Z M9.58229508,13.2942232 C11.9855738,13.2942232 13.7252459,12.782781 14.7993443,11.7553126 C15.6406557,10.9635922 16.0577049,9.89093874 16.0577049,8.53997167 C16.0577049,6.37108998 14.9737705,4.92647856 12.8045902,4.20548256 C11.9639344,3.92520437 10.8891803,3.78572013 9.58229508,3.78572013 L3.52459016,3.78572013 L3.52459016,13.2942232 L9.58229508,13.2942232 L9.58229508,13.2942232 Z" id="Fill-1"></path>
                    <path d="M38.464918,1.40728465 C38.812459,0.872267638 39.2518033,0.604431704 39.7763934,0.604431704 C40.3003279,0.604431704 40.7036066,0.755703344 40.9836066,1.05759177 C41.2642623,1.36144476 41.4045902,1.71113764 41.4045902,2.10667041 C41.4045902,2.50220319 41.3101639,2.85255092 41.1239344,3.15640391 L32.7213115,14.8665315 L32.7213115,23.7817354 C32.7213115,24.2257275 32.5718033,24.59965 32.2668852,24.9008836 C31.962623,25.2047366 31.5908197,25.3540436 31.1462295,25.3540436 C30.7016393,25.3540436 30.3252459,25.2047366 30.0091803,24.9008836 C29.692459,24.59965 29.5377049,24.2257275 29.5377049,23.7817354 L29.5377049,14.8665315 L21.1711475,3.15640391 C20.9829508,2.85255092 20.8911475,2.50220319 20.8911475,2.10667041 C20.8911475,1.71113764 21.0308197,1.36144476 21.3088525,1.05759177 C21.5895082,0.755703344 21.9921311,0.604431704 22.5193443,0.604431704 C23.0406557,0.604431704 23.4806557,0.872267638 23.8308197,1.40728465 L31.1462295,12.0349359 L38.464918,1.40728465" id="Fill-2"></path>
                    <path d="M62.9659016,7.10780251 C62.9659016,9.6231028 61.8255738,11.418062 59.5357377,12.4907154 C61.7534426,13.2365959 63.2262295,14.4592113 63.9462295,16.1618358 C64.2019672,16.8134171 64.332459,17.5946598 64.332459,18.5042542 C64.332459,19.4112292 64.1685246,20.2867711 63.8445902,21.126296 C63.5160656,21.9658208 62.9901639,22.6868168 62.2655738,23.2919034 C60.772459,24.5505358 58.4636066,25.1805069 55.3357377,25.1805069 L46.8655738,25.1805069 C46.4209836,25.1805069 46.0491803,25.0292353 45.744918,24.7273468 C45.4406557,24.4234939 45.2904918,24.0495713 45.2904918,23.6081987 L45.2904918,2.3869486 C45.2904918,1.94557594 45.4406557,1.56444999 45.744918,1.25077417 C46.0491803,0.935133774 46.4209836,0.777968434 46.8655738,0.777968434 L55.1252459,0.777968434 C57.695082,0.777968434 59.6419672,1.36144476 60.9704918,2.52643284 C62.3042623,3.69142093 62.9659016,5.21854415 62.9659016,7.10780251 L62.9659016,7.10780251 Z M59.922623,7.35075393 C59.922623,6.25583539 59.482623,5.38225804 58.6085246,4.72871217 C57.7344262,4.07778572 56.492459,3.74970307 54.8813115,3.74970307 L48.4740984,3.74970307 L48.4740984,11.336205 L54.2852459,11.336205 C57.2944262,11.336205 59.0911475,10.5326972 59.6760656,8.92371704 C59.84,8.43388506 59.922623,7.91065545 59.922623,7.35075393 L59.922623,7.35075393 Z M55.0190164,22.2087723 C58.3331148,22.2087723 60.3088525,21.4177067 60.9370492,19.8309916 C61.1495082,19.3437791 61.2504918,18.7963198 61.2504918,18.187959 C61.2504918,16.7891875 60.7285246,15.7761259 59.6760656,15.1461548 C58.627541,14.5168386 57.0872131,14.2038176 55.0557377,14.2038176 L48.4740984,14.2038176 L48.4740984,22.2087723 L55.0190164,22.2087723 L55.0190164,22.2087723 Z" id="Fill-3"></path>
                    <path d="M80.0177049,0.428275552 C83.7036066,0.428275552 86.664918,1.60505104 88.9062295,3.95991172 C91.0793443,6.26762279 92.2104918,9.27275507 92.3022951,12.9805474 C92.2104918,16.6850654 91.0793443,19.6901977 88.9062295,21.9992185 C86.664918,24.3540792 83.7036066,25.5301998 80.0177049,25.5301998 C76.3029508,25.5301998 73.3416393,24.3540792 71.1245902,21.9992185 C68.907541,19.6685875 67.7718033,16.6614906 67.7285246,12.9805474 C67.7718033,9.29698472 68.907541,6.29119759 71.1245902,3.95991172 C73.3416393,1.60505104 76.3029508,0.428275552 80.0177049,0.428275552 L80.0177049,0.428275552 Z M80.0177049,22.5584652 C82.8629508,22.5584652 85.1042623,21.6370833 86.7370492,19.7969392 C88.3213115,18.0262097 89.1186885,15.7545156 89.1186885,12.9805474 C89.1186885,10.2065791 88.3213115,7.93423025 86.7370492,6.16153619 C85.1042623,4.321392 82.8629508,3.39935534 80.0177049,3.39935534 C77.1678689,3.39935534 74.9265574,4.321392 73.2937705,6.16153619 C71.704918,7.93423025 70.9121311,10.2065791 70.9121311,12.9805474 C70.9121311,15.7545156 71.704918,18.0262097 73.2937705,19.7969392 C74.9265574,21.6370833 77.1678689,22.5584652 80.0177049,22.5584652 L80.0177049,22.5584652 Z" id="Fill-4"></path>
                    <path d="M104.624918,22.5224481 C108.711475,22.5224481 110.754754,21.1845781 110.754754,18.5042542 C110.754754,17.385106 109.972459,16.4879539 108.407213,15.8121429 C107.731148,15.5325196 106.943607,15.2817099 106.045246,15.0597139 C105.146885,14.8377178 104.233443,14.5986955 103.316066,14.342647 C102.392787,14.0879082 101.480656,13.7951877 100.581639,13.4703794 C99.6832787,13.1416419 98.8859016,12.7225343 98.1855738,12.2110921 C96.6445902,11.0454491 95.8767213,9.50719337 95.8767213,7.59697963 C95.8767213,5.54466223 96.6445902,3.86757708 98.1855738,2.56048533 C99.8668852,1.13944872 102.117377,0.428275552 104.943607,0.428275552 C107.48459,0.428275552 109.807869,0.813985491 111.909508,1.5834408 C112.561311,1.81525968 112.889836,2.28020714 112.889836,2.98024776 C112.889836,3.32994064 112.76459,3.66326214 112.523279,3.97628311 C112.276721,4.29257835 112.006557,4.44908884 111.716066,4.44908884 C111.421639,4.44908884 111.020984,4.35740905 110.508197,4.1694655 C108.992131,3.63379363 107.252459,3.36661256 105.291148,3.36661256 C103.494426,3.36661256 102.011148,3.70386318 100.847213,4.37967414 C99.6544262,5.07905991 99.0596721,6.07051126 99.0596721,7.35075393 C99.0596721,8.67945591 99.8281967,9.6807301 101.36918,10.3585056 C102.069508,10.6839689 102.861639,10.9524596 103.75082,11.1620134 C104.639344,11.3715672 105.547541,11.5935633 106.48,11.8253821 C107.416393,12.0591656 108.32459,12.3315855 109.21377,12.6472259 C110.097705,12.9615566 110.895082,13.3760802 111.59082,13.8875224 C113.131148,15.0066706 113.904262,16.6156507 113.904262,18.713808 C113.904262,20.7189758 113.098361,22.3489114 111.48918,23.6081987 C109.832131,24.8890962 107.648525,25.5301998 104.943607,25.5301998 C101.977705,25.5301998 99.2,24.9709531 96.6111475,23.8518049 C96.3547541,23.7358955 96.1232787,23.5505714 95.9245902,23.2919034 C95.7265574,23.0365097 95.6301639,22.7280727 95.6301639,22.3659376 C95.6301639,22.0070768 95.7554098,21.6783392 96.0170492,21.3862737 C96.2727869,21.0974823 96.5678689,20.9501398 96.9055738,20.9501398 C97.2439344,20.9501398 97.6636066,21.0608104 98.1659016,21.2828065 C98.6688525,21.5048025 99.4904918,21.7673996 100.634754,22.069288 C101.779672,22.373141 103.108197,22.5224481 104.624918,22.5224481" id="Fill-5"></path>
                    <path d="M125.840656,22.5224481 C129.923279,22.5224481 131.965902,21.1845781 131.965902,18.5042542 C131.965902,17.385106 131.183607,16.4879539 129.618361,15.8121429 C128.942295,15.5325196 128.154098,15.2817099 127.256393,15.0597139 C126.357377,14.8377178 125.44918,14.5986955 124.527213,14.342647 C123.603934,14.0879082 122.695738,13.7951877 121.797377,13.4703794 C120.899016,13.1416419 120.097049,12.7225343 119.396721,12.2110921 C117.860984,11.0454491 117.087869,9.50719337 117.087869,7.59697963 C117.087869,5.54466223 117.860984,3.86757708 119.396721,2.56048533 C121.078033,1.13944872 123.328525,0.428275552 126.15541,0.428275552 C128.700984,0.428275552 131.019672,0.813985491 133.120656,1.5834408 C133.773115,1.81525968 134.100984,2.28020714 134.100984,2.98024776 C134.100984,3.32994064 133.980328,3.66326214 133.73377,3.97628311 C133.487213,4.29257835 133.222295,4.44908884 132.927869,4.44908884 C132.637377,4.44908884 132.236721,4.35740905 131.72,4.1694655 C130.203279,3.63379363 128.463607,3.36661256 126.507541,3.36661256 C124.705574,3.36661256 123.227541,3.70386318 122.059016,4.37967414 C120.870164,5.07905991 120.276066,6.07051126 120.276066,7.35075393 C120.276066,8.67945591 121.043934,9.6807301 122.584918,10.3585056 C123.285902,10.6839689 124.078033,10.9524596 124.966557,11.1620134 C125.850492,11.3715672 126.763934,11.5935633 127.695738,11.8253821 C128.628197,12.0591656 129.541639,12.3315855 130.424918,12.6472259 C131.314098,12.9615566 132.10623,13.3760802 132.806557,13.8875224 C134.347541,15.0066706 135.116066,16.6156507 135.116066,18.713808 C135.116066,20.7189758 134.313443,22.3489114 132.700328,23.6081987 C131.043934,24.8890962 128.860328,25.5301998 126.15541,25.5301998 C123.188852,25.5301998 120.416393,24.9709531 117.822295,23.8518049 C117.565902,23.7358955 117.339016,23.5505714 117.141639,23.2919034 C116.942951,23.0365097 116.841967,22.7280727 116.841967,22.3659376 C116.841967,22.0070768 116.972459,21.6783392 117.228197,21.3862737 C117.483934,21.0974823 117.783607,20.9501398 118.121967,20.9501398 C118.459672,20.9501398 118.88,21.0608104 119.382951,21.2828065 C119.88459,21.5048025 120.705574,21.7673996 121.850492,22.069288 C122.990164,22.373141 124.323934,22.5224481 125.840656,22.5224481" id="Fill-6"></path>
                    <path d="M159.621639,23.0823496 C159.742295,23.361973 159.8,23.661242 159.8,23.9742629 C159.8,24.2885936 159.659672,24.59965 159.380328,24.9008836 C159.099672,25.2047366 158.655082,25.3540436 158.046557,25.3540436 C157.443279,25.3540436 156.998689,25.0292353 156.718033,24.377654 L154.442623,18.9240167 L142.540328,18.9240167 L140.264918,24.377654 C139.984918,25.0292353 139.540328,25.3540436 138.937049,25.3540436 C138.327869,25.3540436 137.883934,25.2047366 137.603934,24.9008836 C137.323279,24.59965 137.182951,24.2885936 137.182951,23.9742629 C137.182951,23.661242 137.241311,23.361973 137.357377,23.0823496 L146.283934,2.03660087 C146.704918,1.08182142 147.380984,0.604431704 148.318033,0.604431704 L148.665574,0.604431704 C149.598033,0.604431704 150.279344,1.08182142 150.699016,2.03660087 L159.621639,23.0823496 L159.621639,23.0823496 Z M153.215738,16.0223516 L148.491148,4.65864262 L143.767213,16.0223516 L153.215738,16.0223516 L153.215738,16.0223516 Z" id="Fill-7"></path>
                </g>
            </g>
        </g>
    </g>
</svg>