<?xml version="1.0" encoding="UTF-8" standalone="no"?>
<svg width="956px" height="550px" viewBox="0 0 956 550" version="1.1" xmlns="http://www.w3.org/2000/svg" xmlns:xlink="http://www.w3.org/1999/xlink" xmlns:sketch="http://www.bohemiancoding.com/sketch/ns">
    <!-- Generator: Sketch 3.3.3 (12072) - http://www.bohemiancoding.com/sketch -->
    <title>templates-image</title>
    <desc>Created with Sketch.</desc>
    <defs>
        <filter x="-50%" y="-50%" width="200%" height="200%" filterUnits="objectBoundingBox" id="filter-1">
            <feOffset dx="0" dy="-2" in="SourceAlpha" result="shadowOffsetInner1"></feOffset>
            <feGaussianBlur stdDeviation="0" in="shadowOffsetInner1" result="shadowBlurInner1"></feGaussianBlur>
            <feComposite in="shadowBlurInner1" in2="SourceAlpha" operator="arithmetic" k2="-1" k3="1" result="shadowInnerInner1"></feComposite>
            <feColorMatrix values="0 0 0 0 0.594068878   0 0 0 0 0.594068878   0 0 0 0 0.594068878  0 0 0 0.7 0" in="shadowInnerInner1" type="matrix" result="shadowMatrixInner1"></feColorMatrix>
            <feOffset dx="0" dy="-1" in="SourceAlpha" result="shadowOffsetInner2"></feOffset>
            <feGaussianBlur stdDeviation="0" in="shadowOffsetInner2" result="shadowBlurInner2"></feGaussianBlur>
            <feComposite in="shadowBlurInner2" in2="SourceAlpha" operator="arithmetic" k2="-1" k3="1" result="shadowInnerInner2"></feComposite>
            <feColorMatrix values="0 0 0 0 0.572252338   0 0 0 0 0.572252338   0 0 0 0 0.572252338  0 0 0 0.7 0" in="shadowInnerInner2" type="matrix" result="shadowMatrixInner2"></feColorMatrix>
            <feMerge>
                <feMergeNode in="SourceGraphic"></feMergeNode>
                <feMergeNode in="shadowMatrixInner1"></feMergeNode>
                <feMergeNode in="shadowMatrixInner2"></feMergeNode>
            </feMerge>
        </filter>
        <rect id="path-2" x="415.856632" y="0" width="114.558796" height="11.4524793"></rect>
        <filter x="-50%" y="-50%" width="200%" height="200%" filterUnits="objectBoundingBox" id="filter-4">
            <feOffset dx="0" dy="-1" in="SourceAlpha" result="shadowOffsetInner1"></feOffset>
            <feGaussianBlur stdDeviation="0" in="shadowOffsetInner1" result="shadowBlurInner1"></feGaussianBlur>
            <feComposite in="shadowBlurInner1" in2="SourceAlpha" operator="arithmetic" k2="-1" k3="1" result="shadowInnerInner1"></feComposite>
            <feColorMatrix values="0 0 0 0 0.596078431   0 0 0 0 0.592156863   0 0 0 0 0.596078431  0 0 0 0.7 0" in="shadowInnerInner1" type="matrix" result="shadowMatrixInner1"></feColorMatrix>
            <feMerge>
                <feMergeNode in="SourceGraphic"></feMergeNode>
                <feMergeNode in="shadowMatrixInner1"></feMergeNode>
            </feMerge>
        </filter>
    </defs>
    <g id="Page-1" stroke="none" stroke-width="1" fill="none" fill-rule="evenodd" sketch:type="MSPage">
        <g id="assets" sketch:type="MSArtboardGroup" transform="translate(-45.000000, -556.000000)">
            <g id="templates-image" sketch:type="MSLayerGroup" transform="translate(47.000000, 556.000000)">
                <g id="//-MacBook-Air-13-Copy">
                    <g id="::-base" transform="translate(0.000000, 521.087810)">
                        <path d="M-1.55719678,0.693554897 C-1.95803227,0.310515104 -1.84177252,0 -1.28154383,0 L953.281537,0 C953.834611,0 953.956587,0.311783765 953.561117,0.679501812 C953.561117,0.679501812 925.158494,28.6311983 885.547659,28.6311983 L66.4523041,28.6311983 C26.3567254,28.6311983 -1.55719678,0.693554897 -1.55719678,0.693554897 Z" id="Mask" fill="#E2E2E2" filter="url(#filter-1)" sketch:type="MSShapeGroup"></path>
                        <mask id="mask-3" sketch:name="lip" fill="white">
                            <use xlink:href="#path-2"></use>
                        </mask>
                        <use id="lip" fill="#A4A4A4" sketch:type="MSShapeGroup" xlink:href="#path-2"></use>
                    </g>
                    <g id="::-screen" transform="translate(77.908184, 0.000000)" sketch:type="MSShapeGroup">
                        <path d="M0,4.00590203 C0,1.79350343 1.78719824,0 3.99489453,0 L786.460798,0 C788.667118,0 790.455693,1.78466958 790.455693,4.00590203 L790.455693,521.08781 L594.781546,521.08781 L0,521.08781 L0,4.00590203 Z" id="screen-bg" fill="#E2E2E2" filter="url(#filter-4)"></path>
                        <rect id="wallpaper" stroke-opacity="0.1" stroke="#000000" fill="#14A085" x="51.5514582" y="51.536157" width="687.352776" height="423.741736"></rect>
                        <path d="M51.5514582,51.536157 L475.419004,51.536157 L51.5514582,475.277893 L51.5514582,51.536157 Z" id="glare" fill-opacity="0.12" fill="#FFFFFF"></path>
                    </g>
                    <ellipse id="webcam" fill="#5C5C5C" sketch:type="MSShapeGroup" cx="476" cy="31.4943182" rx="8.59190971" ry="8.5893595"></ellipse>
                </g>
                <path d="M352.714297,104.355582 C358.419149,104.355582 362.710185,105.832694 365.585099,108.785766 C367.962986,111.16274 369.153082,114.240248 369.153082,118.012529 C369.153082,121.78481 367.962986,124.862318 365.585099,127.239293 C362.710185,130.192364 358.419149,131.669476 352.714297,131.669476 L341.508707,131.669476 L341.508707,144.829827 C341.508707,145.611014 341.234247,146.268917 340.676101,146.798926 C340.124874,147.333543 339.458327,147.596243 338.681074,147.596243 C337.899209,147.596243 337.245347,147.333543 336.709112,146.798926 C336.17403,146.268917 335.911101,145.611014 335.911101,144.829827 L335.911101,107.186521 C335.911101,106.409943 336.17403,105.739367 336.709112,105.187466 C337.245347,104.632109 337.899209,104.355582 338.681074,104.355582 L352.714297,104.355582 L352.714297,104.355582 Z M352.161916,126.377452 C356.388374,126.377452 359.447798,125.477589 361.336731,123.669798 C362.816279,122.276796 363.549711,120.389504 363.549711,118.012529 C363.549711,114.196465 361.643481,111.654727 357.828714,110.386162 C356.350318,109.893023 354.460233,109.647606 352.161916,109.647606 L341.508707,109.647606 L341.508707,126.377452 L352.161916,126.377452 L352.161916,126.377452 Z" id="Fill-1" fill="#FFFFFF" sketch:type="MSShapeGroup"></path>
                <path d="M402.955516,105.46284 C403.566709,104.521498 404.339349,104.050251 405.261904,104.050251 C406.183307,104.050251 406.892521,104.316408 407.384935,104.847569 C407.878502,105.382187 408.125286,105.997458 408.125286,106.693383 C408.125286,107.389307 407.959226,108.005731 407.631719,108.540348 L392.854686,129.143868 L392.854686,144.829827 C392.854686,145.611014 392.591758,146.268917 392.055522,146.798926 C391.52044,147.333543 390.866579,147.596243 390.084713,147.596243 C389.302847,147.596243 388.640914,147.333543 388.085074,146.798926 C387.528081,146.268917 387.255927,145.611014 387.255927,144.829827 L387.255927,129.143868 L372.542321,108.540348 C372.211354,108.005731 372.049907,107.389307 372.049907,106.693383 C372.049907,105.997458 372.295537,105.382187 372.784491,104.847569 C373.278059,104.316408 373.98612,104.050251 374.913288,104.050251 C375.830078,104.050251 376.603871,104.521498 377.219677,105.46284 L390.084713,124.161785 L402.955516,105.46284" id="Fill-2" fill="#FFFFFF" sketch:type="MSShapeGroup"></path>
                <path d="M446.04347,115.492683 C446.04347,119.918257 444.038065,123.076419 440.01111,124.963711 C443.911214,126.276059 446.501288,128.427204 447.767495,131.422907 C448.217241,132.569339 448.446727,133.943905 448.446727,135.544302 C448.446727,137.14009 448.158428,138.680572 447.58875,140.157684 C447.011,141.634795 446.086138,142.90336 444.811858,143.967987 C442.186035,146.182502 438.125637,147.290912 432.6249,147.290912 L417.729089,147.290912 C416.947223,147.290912 416.293362,147.024755 415.758279,146.493594 C415.223197,145.958977 414.959116,145.301074 414.959116,144.524496 L414.959116,107.186521 C414.959116,106.409943 415.223197,105.739367 415.758279,105.187466 C416.293362,104.632109 416.947223,104.355582 417.729089,104.355582 L432.254725,104.355582 C436.774094,104.355582 440.197928,105.382187 442.534299,107.431938 C444.879897,109.48169 446.04347,112.168605 446.04347,115.492683 L446.04347,115.492683 Z M440.691495,115.920146 C440.691495,113.993679 439.917701,112.456653 438.380493,111.306764 C436.843285,110.161484 434.659135,109.584235 431.825737,109.584235 L420.557874,109.584235 L420.557874,122.932394 L430.777483,122.932394 C436.069492,122.932394 439.229244,121.518653 440.257894,118.687714 C440.546192,117.825874 440.691495,116.905271 440.691495,115.920146 L440.691495,115.920146 Z M432.067907,142.062259 C437.896152,142.062259 441.370726,140.67041 442.475487,137.878645 C442.849122,137.021414 443.026713,136.05818 443.026713,134.987792 C443.026713,132.526708 442.108771,130.744265 440.257894,129.635855 C438.413936,128.528597 435.705082,127.977849 432.132486,127.977849 L420.557874,127.977849 L420.557874,142.062259 L432.067907,142.062259 L432.067907,142.062259 Z" id="Fill-3" fill="#FFFFFF" sketch:type="MSShapeGroup"></path>
                <path d="M476.031136,103.740311 C482.513242,103.740311 487.721068,105.810803 491.662686,109.95409 C495.484372,114.014419 497.473632,119.301833 497.63508,125.825552 C497.473632,132.343509 495.484372,137.630924 491.662686,141.693557 C487.721068,145.836844 482.513242,147.906183 476.031136,147.906183 C469.49829,147.906183 464.290464,145.836844 460.391514,141.693557 C456.492564,137.592901 454.495231,132.30203 454.419121,125.825552 C454.495231,119.344465 456.492564,114.055898 460.391514,109.95409 C464.290464,105.810803 469.49829,103.740311 476.031136,103.740311 L476.031136,103.740311 Z M476.031136,142.67753 C481.034847,142.67753 484.976465,141.056394 487.847919,137.818731 C490.634037,134.703201 492.036321,130.706242 492.036321,125.825552 C492.036321,120.944861 490.634037,116.94675 487.847919,113.827763 C484.976465,110.5901 481.034847,108.967812 476.031136,108.967812 C471.019354,108.967812 467.077735,110.5901 464.206281,113.827763 C461.412091,116.94675 460.017879,120.944861 460.017879,125.825552 C460.017879,130.706242 461.412091,134.703201 464.206281,137.818731 C467.077735,141.056394 471.019354,142.67753 476.031136,142.67753 L476.031136,142.67753 Z" id="Fill-4" fill="#FFFFFF" sketch:type="MSShapeGroup"></path>
                <path d="M519.305908,142.61416 C526.492615,142.61416 530.085969,140.260229 530.085969,135.544302 C530.085969,133.575204 528.710208,131.996699 525.957533,130.807635 C524.76859,130.315649 523.383603,129.874359 521.803727,129.483765 C520.223851,129.093172 518.617451,128.672621 517.004132,128.222114 C515.380434,127.77391 513.776341,127.25888 512.195312,126.687392 C510.615435,126.108991 509.213151,125.371588 507.981539,124.471725 C505.271533,122.420821 503.921142,119.714319 503.921142,116.353371 C503.921142,112.742397 505.271533,109.79163 507.981539,107.491853 C510.93833,104.991593 514.896093,103.740311 519.866361,103.740311 C524.334989,103.740311 528.420756,104.418953 532.116744,105.77278 C533.26302,106.180657 533.84077,106.998714 533.84077,108.230408 C533.84077,108.84568 533.62051,109.432146 533.196134,109.982894 C532.762533,110.539404 532.287417,110.814778 531.776552,110.814778 C531.258768,110.814778 530.554166,110.653471 529.652368,110.322791 C526.986183,109.380297 523.926758,108.910202 520.477554,108.910202 C517.317801,108.910202 514.709275,109.503582 512.662355,110.692645 C510.564695,111.923188 509.518747,113.667608 509.518747,115.920146 C509.518747,118.257946 510.870291,120.01965 513.580298,121.21217 C514.81191,121.78481 516.204968,122.257209 517.7687,122.625911 C519.331278,122.994613 520.928453,123.385206 522.568295,123.793083 C524.215057,124.204416 525.812231,124.683728 527.375962,125.239085 C528.930468,125.792138 530.332753,126.521476 531.556292,127.421339 C534.265145,129.390438 535.624762,132.221376 535.624762,135.913004 C535.624762,139.441019 534.207486,142.308828 531.377547,144.524496 C528.463425,146.778186 524.623287,147.906183 519.866361,147.906183 C514.650462,147.906183 509.765531,146.92221 505.21272,144.953112 C504.761821,144.749174 504.354743,144.423103 504.005325,143.967987 C503.657061,143.518631 503.487541,142.975948 503.487541,142.338786 C503.487541,141.707384 503.707801,141.128983 504.167926,140.615104 C504.617671,140.106987 505.136609,139.847744 505.730504,139.847744 C506.325552,139.847744 507.063597,140.042464 507.946944,140.433058 C508.831444,140.823651 510.276396,141.285681 512.28872,141.816842 C514.302198,142.35146 516.63857,142.61416 519.305908,142.61416" id="Fill-5" fill="#FFFFFF" sketch:type="MSShapeGroup"></path>
                <path d="M556.616359,142.61416 C563.796147,142.61416 567.388347,140.260229 567.388347,135.544302 C567.388347,133.575204 566.012586,131.996699 563.259911,130.807635 C562.070968,130.315649 560.684828,129.874359 559.106105,129.483765 C557.525076,129.093172 555.927902,128.672621 554.30651,128.222114 C552.682813,127.77391 551.085638,127.25888 549.505762,126.687392 C547.925886,126.108991 546.515529,125.371588 545.283918,124.471725 C542.583136,122.420821 541.22352,119.714319 541.22352,116.353371 C541.22352,112.742397 542.583136,109.79163 545.283918,107.491853 C548.240708,104.991593 552.198471,103.740311 557.169892,103.740311 C561.646592,103.740311 565.724288,104.418953 569.419123,105.77278 C570.566551,106.180657 571.143148,106.998714 571.143148,108.230408 C571.143148,108.84568 570.93096,109.432146 570.497359,109.982894 C570.063758,110.539404 569.597868,110.814778 569.080083,110.814778 C568.569218,110.814778 567.864617,110.653471 566.955899,110.322791 C564.288561,109.380297 561.229136,108.910202 557.789157,108.910202 C554.620179,108.910202 552.020879,109.503582 549.965887,110.692645 C547.875145,111.923188 546.830351,113.667608 546.830351,115.920146 C546.830351,118.257946 548.180742,120.01965 550.890749,121.21217 C552.123513,121.78481 553.516572,122.257209 555.079151,122.625911 C556.633657,122.994613 558.240056,123.385206 559.878746,123.793083 C561.518588,124.204416 563.124988,124.683728 564.67834,125.239085 C566.242072,125.792138 567.635131,126.521476 568.866742,127.421339 C571.576749,129.390438 572.928293,132.221376 572.928293,135.913004 C572.928293,139.441019 571.516783,142.308828 568.679925,144.524496 C565.766956,146.778186 561.926819,147.906183 557.169892,147.906183 C551.952841,147.906183 547.077135,146.92221 542.515098,144.953112 C542.064199,144.749174 541.665194,144.423103 541.318082,143.967987 C540.968664,143.518631 540.791072,142.975948 540.791072,142.338786 C540.791072,141.707384 541.020558,141.128983 541.470304,140.615104 C541.92005,140.106987 542.447059,139.847744 543.042108,139.847744 C543.636003,139.847744 544.3752,140.042464 545.259701,140.433058 C546.141894,140.823651 547.585694,141.285681 549.599171,141.816842 C551.603423,142.35146 553.94902,142.61416 556.616359,142.61416" id="Fill-6" fill="#FFFFFF" sketch:type="MSShapeGroup"></path>
                <path d="M616.02432,143.599285 C616.236507,144.091271 616.337989,144.617824 616.337989,145.168572 C616.337989,145.721625 616.091205,146.268917 615.599944,146.798926 C615.106377,147.333543 614.324511,147.596243 613.254347,147.596243 C612.193408,147.596243 611.411542,147.024755 610.917975,145.878323 L606.916391,136.282858 L585.98476,136.282858 L581.983175,145.878323 C581.490761,147.024755 580.708895,147.596243 579.647957,147.596243 C578.576639,147.596243 577.795926,147.333543 577.303512,146.798926 C576.809945,146.268917 576.563162,145.721625 576.563162,145.168572 C576.563162,144.617824 576.665796,144.091271 576.869911,143.599285 L592.568346,106.570098 C593.308697,104.8902 594.49764,104.050251 596.145555,104.050251 L596.756748,104.050251 C598.396591,104.050251 599.59476,104.8902 600.332804,106.570098 L616.02432,143.599285 L616.02432,143.599285 Z M604.758764,131.177489 L596.449998,111.18348 L588.142386,131.177489 L604.758764,131.177489 L604.758764,131.177489 Z" id="Fill-7" fill="#FFFFFF" sketch:type="MSShapeGroup"></path>
                <rect id="Rectangle-168" fill-opacity="0.5" fill="#FFFFFF" sketch:type="MSShapeGroup" x="191.769784" y="180.198347" width="175.788969" height="109.487603" rx="0.900000036"></rect>
                <rect id="Rectangle-168-Copy-4" fill-opacity="0.5" fill="#FFFFFF" sketch:type="MSShapeGroup" x="579.8753" y="180.198347" width="175.788969" height="109.487603" rx="0.900000036"></rect>
                <rect id="Rectangle-168-Copy-2" fill-opacity="0.5" fill="#FFFFFF" sketch:type="MSShapeGroup" x="191.769784" y="305.652893" width="175.788969" height="109.487603" rx="0.900000036"></rect>
                <rect id="Rectangle-168-Copy" fill-opacity="0.5" fill="#FFFFFF" sketch:type="MSShapeGroup" x="385.822542" y="180.198347" width="175.788969" height="109.487603" rx="0.900000036"></rect>
                <rect id="Rectangle-168-Copy-5" fill-opacity="0.5" fill="#FFFFFF" sketch:type="MSShapeGroup" x="579.8753" y="305.652893" width="175.788969" height="109.487603" rx="0.900000036"></rect>
                <rect id="Rectangle-168-Copy-3" fill-opacity="0.5" fill="#FFFFFF" sketch:type="MSShapeGroup" x="385.822542" y="305.652893" width="175.788969" height="109.487603" rx="0.900000036"></rect>
                <g id="7---Camera-(Flat)-Copy" transform="translate(432.648352, 202.495427)" sketch:type="MSShapeGroup">
                    <path d="M62.6146268,13.8071155 L57.0488822,0 L23.6544146,0 L18.08867,13.8071155 L5.28606593,13.8071155 C2.36683289,13.8071155 0,16.1557058 0,19.0524386 L0,59.6011753 C0,62.5241416 2.38770443,64.8934426 5.33337476,64.8934426 L75.3699219,64.8934426 C78.3155923,64.8934426 80.7032967,62.5241416 80.7032967,59.6011753 L80.7032967,19.0524386 C80.7032967,16.1557058 78.3364638,13.8071155 75.4172308,13.8071155 L62.6146268,13.8071155" id="Fill-1937" fill="#556080"></path>
                    <path d="M64.0060629,35.8985002 C64.0060629,48.8620009 53.4158424,59.3705964 40.3516484,59.3705964 C27.2874543,59.3705964 16.6972338,48.8620009 16.6972338,35.8985002 C16.6972338,22.9349995 27.2874543,12.4264039 40.3516484,12.4264039 C53.4158424,12.4264039 64.0060629,22.9349995 64.0060629,35.8985002" id="Fill-1938" fill="#535D73"></path>
                    <path d="M40.3516484,60.751308 C26.5416446,60.751308 15.3057977,49.6020623 15.3057977,35.8985002 C15.3057977,22.1949381 26.5416446,11.0456924 40.3516484,11.0456924 C54.1616521,11.0456924 65.3974991,22.1949381 65.3974991,35.8985002 C65.3974991,49.6020623 54.1616521,60.751308 40.3516484,60.751308 L40.3516484,60.751308 Z M40.3516484,13.8071155 C28.0763986,13.8071155 18.08867,23.7178629 18.08867,35.8985002 C18.08867,48.0791374 28.0763986,57.9898849 40.3516484,57.9898849 C52.6268981,57.9898849 62.6146268,48.0791374 62.6146268,35.8985002 C62.6146268,23.7178629 52.6268981,13.8071155 40.3516484,13.8071155 L40.3516484,13.8071155 Z" id="Fill-1939" fill="#39404E"></path>
                    <path d="M55.657446,35.8985002 C55.657446,44.2863228 48.804623,51.0863272 40.3516484,51.0863272 C31.8986737,51.0863272 25.0458507,44.2863228 25.0458507,35.8985002 C25.0458507,27.5106775 31.8986737,20.7106732 40.3516484,20.7106732 C48.804623,20.7106732 55.657446,27.5106775 55.657446,35.8985002" id="Fill-1940" fill="#8697CB"></path>
                    <path d="M8.3486169,6.90355773 L13.9143615,6.90355773 L13.9143615,13.8071155 L8.3486169,13.8071155 L8.3486169,6.90355773 Z" id="Fill-1941" fill="#38454F"></path>
                    <path d="M75.1375521,23.4720963 C75.1375521,25.7599353 73.2688534,27.6142309 70.9632437,27.6142309 C68.657634,27.6142309 66.7889352,25.7599353 66.7889352,23.4720963 C66.7889352,21.1842572 68.657634,19.3299616 70.9632437,19.3299616 C73.2688534,19.3299616 75.1375521,21.1842572 75.1375521,23.4720963" id="Fill-1942" fill="#F3D55B"></path>
                    <path d="M44.5259568,35.8985002 C44.5259568,40.8621582 46.4990133,45.256963 49.5351269,48.0280511 C53.2460872,45.256963 55.657446,40.8621582 55.657446,35.8985002 C55.657446,30.9348422 53.2460872,26.5400373 49.5351269,23.7689493 C46.4990133,26.5400373 44.5259568,30.9348422 44.5259568,35.8985002" id="Fill-1968" fill="#98ABDF"></path>
                    <path d="M25.0458507,35.8985002 C25.0458507,40.8621582 27.4572095,45.256963 31.1681698,48.0280511 C34.2042834,45.256963 36.1773399,40.8621582 36.1773399,35.8985002 C36.1773399,30.9348422 34.2042834,26.5400373 31.1681698,23.7689493 C27.4572095,26.5400373 25.0458507,30.9348422 25.0458507,35.8985002" id="Fill-1969" fill="#98ABDF"></path>
                    <path d="M40.3516484,52.4670387 C31.1445153,52.4670387 23.6544146,45.0346685 23.6544146,35.8985002 C23.6544146,26.7623319 31.1445153,19.3299616 40.3516484,19.3299616 C49.5587814,19.3299616 57.0488822,26.7623319 57.0488822,35.8985002 C57.0488822,45.0346685 49.5587814,52.4670387 40.3516484,52.4670387 L40.3516484,52.4670387 Z M40.3516484,22.0913847 C32.6792694,22.0913847 26.4372869,28.2852567 26.4372869,35.8985002 C26.4372869,43.5117436 32.6792694,49.7056156 40.3516484,49.7056156 C48.0240273,49.7056156 54.2660099,43.5117436 54.2660099,35.8985002 C54.2660099,28.2852567 48.0240273,22.0913847 40.3516484,22.0913847 L40.3516484,22.0913847 Z" id="Fill-1970" fill="#556080"></path>
                    <path d="M47.3088291,31.0660098 C47.3088291,33.7349252 45.1284487,35.8985002 42.4388026,35.8985002 C39.7491565,35.8985002 37.5687761,33.7349252 37.5687761,31.0660098 C37.5687761,28.3970943 39.7491565,26.2335194 42.4388026,26.2335194 C45.1284487,26.2335194 47.3088291,28.3970943 47.3088291,31.0660098" id="Fill-1971" fill="#578AEC"></path>
                    <path d="M41.7430845,33.1370771 C41.7430845,34.6627633 40.4977491,35.8985002 38.9602122,35.8985002 C37.4226753,35.8985002 36.1773399,34.6627633 36.1773399,33.1370771 C36.1773399,31.6113908 37.4226753,30.375654 38.9602122,30.375654 C40.4977491,30.375654 41.7430845,31.6113908 41.7430845,33.1370771" id="Fill-1972" fill="#CC66A1"></path>
                    <path d="M37.5687761,30.375654 C37.5687761,31.9013403 36.3234407,33.1370771 34.7859038,33.1370771 C33.2483668,33.1370771 32.0030315,31.9013403 32.0030315,30.375654 C32.0030315,28.8499677 33.2483668,27.6142309 34.7859038,27.6142309 C36.3234407,27.6142309 37.5687761,28.8499677 37.5687761,30.375654" id="Fill-1973" fill="#C7D7F9"></path>
                </g>
                <g id="19---Maps-(Flat)-Copy" transform="translate(622.063187, 198.020018)" sketch:type="MSShapeGroup">
                    <path d="M0,38.2435824 L0,71.8313224 L4.09005304,70.1982593 L18.0505716,56.2629827 L0,38.2435824" id="Fill-1560" fill="#DDD1A0"></path>
                    <path d="M22.029011,7.35757974 L16.7640774,2.10216564 L0,8.79567213 L0,15.4393365 L22.029011,37.4285168 L22.029011,7.35757974" id="Fill-1561" fill="#DDD1A0"></path>
                    <path d="M42.5894212,31.7685018 L42.5894212,27.8808147 L22.029011,7.35757974 L22.029011,37.4285168 L29.4733481,44.8593938 L42.5894212,31.7685018" id="Fill-1562" fill="#F9EBB0"></path>
                    <path d="M42.5894212,57.9517518 L42.5894212,54.5727477 L40.8975932,56.2629827 L42.5894212,57.9517518" id="Fill-1563" fill="#8697CB"></path>
                    <path d="M55.9595623,41.2267812 L42.5894212,54.5727477 L42.5894212,57.9517518 L52.3233069,67.6680376 L63.1498315,63.0356503 L63.1498315,48.4040497 L55.9595623,41.2267812" id="Fill-1564" fill="#7785AF"></path>
                    <path d="M63.1498315,11.2452668 L63.1498315,0 L45.1976561,7.68008772 L55.9595623,18.4225353 L63.1498315,11.2452668" id="Fill-1565" fill="#DDD1A0"></path>
                    <path d="M44.5367858,29.8246583 L42.5894212,27.8808147 L42.5894212,31.7685018 L44.5367858,29.8246583" id="Fill-1566" fill="#DDD1A0"></path>
                    <path d="M70.8306133,3.57837261 L63.1498315,0 L63.1498315,11.2452668 L70.8306133,3.57837261" id="Fill-1567" fill="#F9EBB0"></path>
                    <path d="M85.1788425,47.5889841 L85.1788425,12.0603324 L67.3823388,29.8246583 L85.1788425,47.5889841" id="Fill-1568" fill="#8697CB"></path>
                    <path d="M63.1498315,63.0356503 L85.1788425,71.8313224 L85.1788425,70.39323 L63.1498315,48.4040497 L63.1498315,63.0356503" id="Fill-1569" fill="#8697CB"></path>
                    <path d="M22.029011,52.2917368 L22.029011,37.4285168 L0,15.4393365 L0,38.2435824 L18.0505716,56.2629827 L22.029011,52.2917368" id="Fill-1570" fill="#D9BA54"></path>
                    <path d="M30.4866826,66.6536034 L42.5894212,71.8313224 L42.5894212,57.9517518 L40.8975932,56.2629827 L30.4866826,66.6536034" id="Fill-1571" fill="#F3D55B"></path>
                    <path d="M22.029011,37.4285168 L22.029011,52.2917368 L29.4733481,44.8593938 L22.029011,37.4285168" id="Fill-1572" fill="#F3D55B"></path>
                    <path d="M42.5894212,71.8313224 L52.3233069,67.6680376 L42.5894212,57.9517518 L42.5894212,71.8313224" id="Fill-1573" fill="#D9BA54"></path>
                    <path d="M22.029011,0 L16.7640774,2.10216564 L22.029011,7.35757974 L22.029011,0" id="Fill-1574" fill="#D9BA54"></path>
                    <path d="M42.5894212,8.79567213 L22.029011,0 L22.029011,7.35757974 L42.5894212,27.8808147 L42.5894212,8.79567213" id="Fill-1575" fill="#F3D55B"></path>
                    <path d="M42.5894212,27.8808147 L44.5367858,29.8246583 L55.9595623,18.4225353 L45.1976561,7.68008772 L42.5894212,8.79567213 L42.5894212,27.8808147" id="Fill-1576" fill="#D9BA54"></path>
                    <path d="M63.1498315,48.4040497 L63.1498315,34.0495128 L55.9595623,41.2267812 L63.1498315,48.4040497" id="Fill-1577" fill="#D9BA54"></path>
                    <path d="M67.3823388,29.8246583 L63.1498315,34.0495128 L63.1498315,48.4040497 L85.1788425,70.39323 L85.1788425,47.5889841 L67.3823388,29.8246583" id="Fill-1578" fill="#F3D55B"></path>
                    <path d="M22.029011,60.2327628 L18.0505716,56.2629827 L4.09005304,70.1982593 L22.029011,63.0356503 L22.029011,60.2327628" id="Fill-1579" fill="#D9BA54"></path>
                    <path d="M22.029011,63.0356503 L26.9414804,65.1378159 L22.029011,60.2327628 L22.029011,63.0356503" id="Fill-1580" fill="#F3D55B"></path>
                    <path d="M29.4733481,44.8593938 L40.8975932,56.2629827 L42.5894212,54.5727477 L42.5894212,31.7685018 L29.4733481,44.8593938" id="Fill-1581" fill="#F3D55B"></path>
                    <path d="M63.1498315,11.2452668 L55.9595623,18.4225353 L63.1498315,25.5998037 L63.1498315,11.2452668" id="Fill-1582" fill="#D9BA54"></path>
                    <path d="M42.5894212,31.7685018 L42.5894212,54.5727477 L55.9595623,41.2267812 L44.5367858,29.8246583 L42.5894212,31.7685018" id="Fill-1583" fill="#D9BA54"></path>
                    <path d="M63.1498315,25.5998037 L67.3823388,29.8246583 L85.1788425,12.0603324 L85.1788425,10.2616175 L70.8306133,3.57837261 L63.1498315,11.2452668 L63.1498315,25.5998037" id="Fill-1584" fill="#F3D55B"></path>
                    <path d="M18.0505716,56.2629827 L22.029011,60.2327628 L22.029011,52.2917368 L18.0505716,56.2629827" id="Fill-1585" fill="#D9BA54"></path>
                    <path d="M29.4733481,44.8593938 L22.029011,52.2917368 L22.029011,60.2327628 L26.9414804,65.1378159 L30.4866826,66.6536034 L40.8975932,56.2629827 L29.4733481,44.8593938" id="Fill-1586" fill="#F3D55B"></path>
                    <path d="M55.9595623,18.4225353 L44.5367858,29.8246583 L55.9595623,41.2267812 L63.1498315,34.0495128 L63.1498315,25.5998037 L55.9595623,18.4225353" id="Fill-1587" fill="#D9BA54"></path>
                    <path d="M63.1498315,34.0495128 L67.3823388,29.8246583 L63.1498315,25.5998037 L63.1498315,34.0495128" id="Fill-1588" fill="#F3D55B"></path>
                </g>
                <g id="Upload-Smartphone-Copy" transform="translate(256.125807, 189.069198)" sketch:type="MSShapeGroup">
                    <path d="M41.2464462,81.4184383 L5.67182769,81.4184383 C3.01527692,81.4184383 0.861507692,79.2783959 0.861507692,76.6387765 L0.861507692,4.80492137 C0.861507692,2.16530189 3.01527692,0.026662823 5.67182769,0.026662823 L41.2464462,0.026662823 C43.9029969,0.026662823 46.0553538,2.16530189 46.0553538,4.80492137 L46.0553538,76.6387765 C46.0553538,79.2783959 43.9029969,81.4184383 41.2464462,81.4184383" id="Fill-1123" fill="#545E73"></path>
                    <path d="M0.861507692,8.44650167 L46.0553538,8.44650167 L46.0553538,64.5787606 L0.861507692,64.5787606 L0.861507692,8.44650167 Z" id="Fill-1124" fill="#8697CB"></path>
                    <path d="M27.6953538,72.9985995 C27.6953538,75.3238783 25.7986246,77.2085189 23.4584308,77.2085189 C21.1182369,77.2085189 19.2215077,75.3238783 19.2215077,72.9985995 C19.2215077,70.6733206 21.1182369,68.7886801 23.4584308,68.7886801 C25.7986246,68.7886801 27.6953538,70.6733206 27.6953538,72.9985995" id="Fill-1125" fill="#323A45"></path>
                    <path d="M23.4584308,5.63988872 L17.8092,5.63988872 C17.0296062,5.63988872 16.3968923,5.01120742 16.3968923,4.23658225 C16.3968923,3.46055376 17.0296062,2.83327577 17.8092,2.83327577 L23.4584308,2.83327577 C24.2394369,2.83327577 24.8707385,3.46055376 24.8707385,4.23658225 C24.8707385,5.01120742 24.2394369,5.63988872 23.4584308,5.63988872" id="Fill-1126" fill="#323A45"></path>
                    <path d="M29.1076615,5.63988872 L27.6953538,5.63988872 C26.91576,5.63988872 26.2830462,5.01120742 26.2830462,4.23658225 C26.2830462,3.46055376 26.91576,2.83327577 27.6953538,2.83327577 L29.1076615,2.83327577 C29.8886677,2.83327577 30.5199692,3.46055376 30.5199692,4.23658225 C30.5199692,5.01120742 29.8886677,5.63988872 29.1076615,5.63988872" id="Fill-1127" fill="#323A45"></path>
                </g>
                <g id="Condenser-Microphone-Copy" transform="translate(443.832882, 317.880301)" sketch:type="MSShapeGroup">
                    <path d="M7.1813867,20.0715257 L44.5245975,20.0715257 L44.5245975,25.8062473 L7.1813867,25.8062473 L7.1813867,20.0715257 Z" id="Fill-1539" fill="#DBC27D"></path>
                    <path d="M22.9804374,78.8524223 L28.7255468,78.8524223 L28.7255468,83.1534635 L22.9804374,83.1534635 L22.9804374,78.8524223 Z" id="Fill-1540" fill="#D75A4A"></path>
                    <path d="M11.4902187,25.8062473 L11.4902187,59.7443299 C11.4902187,61.8461053 12.4812501,63.8245843 14.1645671,65.0847894 L19.5333718,69.1033956 C21.3143557,70.4367183 22.4791766,72.3965594 22.8454274,74.5513811 L28.8605569,74.5513811 C29.2268076,72.3965594 30.3916285,70.4367183 32.1726124,69.1033956 L37.5414171,65.0847894 C39.2247341,63.8245843 40.2157655,61.8461053 40.2157655,59.7443299 L40.2157655,25.8062473 L11.4902187,25.8062473" id="Fill-1541" fill="#D75A4A"></path>
                    <path d="M40.2157655,20.0715257 L11.4902187,20.0715257 L11.4902187,13.1941608 C11.4902187,11.09812 11.8564694,9.01354871 12.5774807,6.99779406 L14.3656459,1.99998417 C14.7893478,0.817197831 16.1437573,0 17.6863192,0 L34.0196651,0 C35.5622269,0 36.9166364,0.817197831 37.3403383,1.99998417 L39.1299398,6.99922774 C39.8495148,9.01354871 40.2157655,11.0995537 40.2157655,13.1941608 L40.2157655,20.0715257" id="Fill-1911" fill="#E3D5A6"></path>
                    <path d="M51.6758224,29.9581858 C51.6657684,29.8621292 51.6485331,29.7718073 51.6183713,29.6771844 C51.5882095,29.5811278 51.5479937,29.495107 51.4991603,29.4090862 C51.4733073,29.3660758 51.4675622,29.3158969 51.4374003,29.2743202 C51.4158562,29.2427792 51.3799493,29.2270088 51.3555325,29.1969015 C51.2909001,29.1194827 51.2176499,29.0564008 51.1372184,28.9933188 C51.0668408,28.938839 50.9993358,28.8886602 50.9217768,28.8485171 C50.8413453,28.8069404 50.7566049,28.7797005 50.6675557,28.7538942 C50.5727614,28.7266543 50.4822759,28.7051491 50.3831728,28.696547 C50.3443933,28.6936796 50.3099226,28.6736081 50.2697069,28.6736081 C50.2165646,28.6736081 50.17204,28.6979807 50.1217703,28.7037154 C50.0241034,28.7137512 49.9321817,28.7309553 49.8373874,28.7610626 C49.7425931,28.7911699 49.6578527,28.8298793 49.5731124,28.8786244 C49.5285878,28.9044307 49.4783181,28.9101654 49.4352297,28.9402727 L40.0204318,35.6527643 L26.411704,30.2205493 L26.385851,30.2090798 C26.3068557,30.1775389 26.2264242,30.1818399 26.1459927,30.1660694 C26.0526347,30.1459979 25.9635855,30.1115896 25.8673549,30.1101559 C25.8616098,30.1101559 25.8573009,30.1072885 25.8529921,30.1072885 C25.8486833,30.1072885 25.8443744,30.1101559 25.8400656,30.1101559 C25.7395262,30.1115896 25.6461682,30.1459979 25.5499376,30.1675031 C25.4723786,30.1847073 25.3948196,30.1804062 25.3201332,30.2090798 L11.6855524,35.6527643 L2.27075447,28.9402727 C2.22766615,28.9101654 2.17739645,28.9044307 2.13287185,28.8786244 C2.04813149,28.831313 1.96339112,28.7911699 1.86859682,28.7610626 C1.77523879,28.7309553 1.68331704,28.7137512 1.58565018,28.7037154 C1.5339442,28.6979807 1.4894196,28.6736081 1.43627734,28.6736081 C1.39606157,28.6736081 1.36159092,28.6936796 1.32137515,28.696547 C1.22370829,28.7051491 1.1346591,28.7266543 1.03986479,28.7538942 C0.950815599,28.7797005 0.866075236,28.8069404 0.784207427,28.8485171 C0.706648451,28.8886602 0.639143416,28.938839 0.570202104,28.9933188 C0.489770573,29.0549671 0.416520428,29.1194827 0.350451671,29.1983351 C0.326034956,29.2270088 0.290128023,29.2427792 0.268583862,29.2743202 C0.238422038,29.3158969 0.232676929,29.3660758 0.206823937,29.4090862 C0.157990507,29.495107 0.117774742,29.5811278 0.0861766404,29.6771844 C0.0574510936,29.7703736 0.0402157655,29.8621292 0.0301618241,29.9581858 C0.0244167148,30.0097983 0,30.0542423 0,30.1072885 L0,63.0819379 C0,63.1521882 0.0301618241,63.2109691 0.0402157655,63.2783521 C0.0531422616,63.3801434 0.0631962029,63.4776336 0.100539414,63.5751239 C0.136446347,63.6740479 0.193897441,63.7572013 0.249912257,63.8432221 C0.285819191,63.8991357 0.301618241,63.9636513 0.346142839,64.0152638 C0.357633057,64.0281669 0.374868386,64.032468 0.386358604,64.0453711 C0.489770573,64.1586318 0.616162979,64.2446527 0.752609326,64.319204 C0.791388814,64.3407092 0.821550638,64.3751176 0.861766404,64.3923217 C1.03842852,64.4697405 1.23088968,64.5156183 1.43627734,64.5156183 C1.61437573,64.5156183 1.79103784,64.4769089 1.96051857,64.4109596 C2.02945988,64.382286 2.0854747,64.3378419 2.1486709,64.3005662 C2.22335732,64.2575558 2.30235257,64.2288822 2.36985761,64.1701013 L11.7645477,56.1343226 L25.3201332,61.5464661 C25.3359323,61.5522009 25.3531676,61.5493335 25.3704029,61.5565019 C25.5240846,61.6109818 25.6863839,61.6496911 25.8529921,61.6496911 C26.0196003,61.6496911 26.1818996,61.6109818 26.3355813,61.5565019 C26.3528166,61.5493335 26.3700519,61.5522009 26.385851,61.5464661 L26.411704,61.5364304 L26.411704,61.5349967 L39.9414365,56.1343226 L49.3361266,64.1701013 C49.4036316,64.2288822 49.4840632,64.2575558 49.5587496,64.3005662 C49.6219458,64.3378419 49.6765243,64.3837197 49.7454656,64.4109596 C49.9149464,64.4769089 50.0916085,64.5156183 50.2697069,64.5156183 C50.4750945,64.5156183 50.6675557,64.4697405 50.8442178,64.3923217 C50.8844336,64.3751176 50.9145954,64.3407092 50.9533749,64.319204 C51.0898212,64.2446527 51.2147774,64.1586318 51.3196256,64.0453711 C51.3311158,64.032468 51.3483512,64.0281669 51.3598414,64.0152638 C51.404366,63.9636513 51.420165,63.9005694 51.456072,63.8432221 C51.5120868,63.7572013 51.5695379,63.6740479 51.6068811,63.5751239 C51.642788,63.4776336 51.6528419,63.3801434 51.6657684,63.2783521 C51.6758224,63.2124028 51.7059842,63.1521882 51.7059842,63.0819379 L51.7059842,30.1072885 C51.7059842,30.0542423 51.6815675,30.0097983 51.6758224,29.9581858 L51.6758224,29.9581858 Z M41.6520428,44.4440926 L41.6520428,38.014036 L48.8334295,32.8929295 L48.8334295,44.4440926 L41.6520428,44.4440926 L41.6520428,44.4440926 Z M38.7794882,44.4440926 L27.2892694,44.4440926 L27.2892694,33.6585149 L38.7794882,38.2462922 L38.7794882,44.4440926 L38.7794882,44.4440926 Z M24.4167148,44.4440926 L12.9264961,44.4440926 L12.9264961,38.2462922 L24.4167148,33.6585149 L24.4167148,44.4440926 L24.4167148,44.4440926 Z M10.0539414,44.4440926 L2.87255468,44.4440926 L2.87255468,32.8929295 L10.0539414,38.014036 L10.0539414,44.4440926 L10.0539414,44.4440926 Z M2.87255468,47.3114534 L10.0539414,47.3114534 L10.0539414,53.8217961 L2.87255468,59.9651166 L2.87255468,47.3114534 L2.87255468,47.3114534 Z M12.9264961,47.3114534 L24.4167148,47.3114534 L24.4167148,58.0970311 L12.9264961,53.5092538 L12.9264961,47.3114534 L12.9264961,47.3114534 Z M27.2892694,47.3114534 L38.7794882,47.3114534 L38.7794882,53.5092538 L27.2892694,58.0970311 L27.2892694,47.3114534 L27.2892694,47.3114534 Z M41.6520428,47.3114534 L48.8334295,47.3114534 L48.8334295,59.9651166 L41.6520428,53.8217961 L41.6520428,47.3114534 L41.6520428,47.3114534 Z" id="Fill-1912" fill="#556080"></path>
                    <path d="M12.9264961,74.5513811 L38.7794882,74.5513811 L38.7794882,78.8524223 L12.9264961,78.8524223 L12.9264961,74.5513811 Z" id="Fill-1913" fill="#AA453D"></path>
                    <path d="M22.9804374,0 C22.1876123,0 21.5441601,0.642288822 21.5441601,1.43368041 C21.5441601,2.22507199 22.1876123,2.86736081 22.9804374,2.86736081 C23.7732625,2.86736081 24.4167148,2.22507199 24.4167148,1.43368041 C24.4167148,0.642288822 23.7732625,0 22.9804374,0" id="Fill-1914" fill="#FCE092"></path>
                    <path d="M31.5981015,0 C30.8052764,0 30.1618241,0.642288822 30.1618241,1.43368041 C30.1618241,2.22507199 30.8052764,2.86736081 31.5981015,2.86736081 C32.3909266,2.86736081 33.0343788,2.22507199 33.0343788,1.43368041 C33.0343788,0.642288822 32.3909266,0 31.5981015,0" id="Fill-1915" fill="#FCE092"></path>
                    <path d="M14.3627734,8.60208243 C13.5699483,8.60208243 12.9264961,9.24437126 12.9264961,10.0357628 C12.9264961,10.8271544 13.5699483,11.4694432 14.3627734,11.4694432 C15.1555985,11.4694432 15.7990507,10.8271544 15.7990507,10.0357628 C15.7990507,9.24437126 15.1555985,8.60208243 14.3627734,8.60208243" id="Fill-1916" fill="#FCE092"></path>
                    <path d="M18.6716054,4.30104122 C17.8787803,4.30104122 17.2353281,4.94333004 17.2353281,5.73472162 C17.2353281,6.52611321 17.8787803,7.16840203 18.6716054,7.16840203 C19.4644305,7.16840203 20.1078827,6.52611321 20.1078827,5.73472162 C20.1078827,4.94333004 19.4644305,4.30104122 18.6716054,4.30104122" id="Fill-1917" fill="#FCE092"></path>
                    <path d="M18.6716054,12.9031237 C17.8787803,12.9031237 17.2353281,13.5454125 17.2353281,14.3368041 C17.2353281,15.1281956 17.8787803,15.7704845 18.6716054,15.7704845 C19.4644305,15.7704845 20.1078827,15.1281956 20.1078827,14.3368041 C20.1078827,13.5454125 19.4644305,12.9031237 18.6716054,12.9031237" id="Fill-1918" fill="#FCE092"></path>
                    <path d="M22.9804374,8.60208243 C22.1876123,8.60208243 21.5441601,9.24437126 21.5441601,10.0357628 C21.5441601,10.8271544 22.1876123,11.4694432 22.9804374,11.4694432 C23.7732625,11.4694432 24.4167148,10.8271544 24.4167148,10.0357628 C24.4167148,9.24437126 23.7732625,8.60208243 22.9804374,8.60208243" id="Fill-1919" fill="#FCE092"></path>
                    <path d="M27.2892694,4.30104122 C26.4964444,4.30104122 25.8529921,4.94333004 25.8529921,5.73472162 C25.8529921,6.52611321 26.4964444,7.16840203 27.2892694,7.16840203 C28.0820945,7.16840203 28.7255468,6.52611321 28.7255468,5.73472162 C28.7255468,4.94333004 28.0820945,4.30104122 27.2892694,4.30104122" id="Fill-1920" fill="#FCE092"></path>
                    <path d="M27.2892694,12.9031237 C26.4964444,12.9031237 25.8529921,13.5454125 25.8529921,14.3368041 C25.8529921,15.1281956 26.4964444,15.7704845 27.2892694,15.7704845 C28.0820945,15.7704845 28.7255468,15.1281956 28.7255468,14.3368041 C28.7255468,13.5454125 28.0820945,12.9031237 27.2892694,12.9031237" id="Fill-1921" fill="#FCE092"></path>
                    <path d="M31.5981015,8.60208243 C30.8052764,8.60208243 30.1618241,9.24437126 30.1618241,10.0357628 C30.1618241,10.8271544 30.8052764,11.4694432 31.5981015,11.4694432 C32.3909266,11.4694432 33.0343788,10.8271544 33.0343788,10.0357628 C33.0343788,9.24437126 32.3909266,8.60208243 31.5981015,8.60208243" id="Fill-1922" fill="#FCE092"></path>
                    <path d="M35.9069335,7.16840203 C36.6997586,7.16840203 37.3432108,6.52611321 37.3432108,5.73472162 C37.3432108,4.94333004 36.6997586,4.30104122 35.9069335,4.30104122 C35.1141084,4.30104122 34.4706561,4.94333004 34.4706561,5.73472162 C34.4706561,6.52611321 35.1141084,7.16840203 35.9069335,7.16840203" id="Fill-1923" fill="#FCE092"></path>
                    <path d="M35.9069335,12.9031237 C35.1141084,12.9031237 34.4706561,13.5454125 34.4706561,14.3368041 C34.4706561,15.1281956 35.1141084,15.7704845 35.9069335,15.7704845 C36.6997586,15.7704845 37.3432108,15.1281956 37.3432108,14.3368041 C37.3432108,13.5454125 36.6997586,12.9031237 35.9069335,12.9031237" id="Fill-1924" fill="#FCE092"></path>
                    <path d="M14.3627734,17.2041649 C13.5699483,17.2041649 12.9264961,17.8464537 12.9264961,18.6378453 C12.9264961,19.4292369 13.5699483,20.0715257 14.3627734,20.0715257 C15.1555985,20.0715257 15.7990507,19.4292369 15.7990507,18.6378453 C15.7990507,17.8464537 15.1555985,17.2041649 14.3627734,17.2041649" id="Fill-1925" fill="#FCE092"></path>
                    <path d="M22.9804374,17.2041649 C22.1876123,17.2041649 21.5441601,17.8464537 21.5441601,18.6378453 C21.5441601,19.4292369 22.1876123,20.0715257 22.9804374,20.0715257 C23.7732625,20.0715257 24.4167148,19.4292369 24.4167148,18.6378453 C24.4167148,17.8464537 23.7732625,17.2041649 22.9804374,17.2041649" id="Fill-1926" fill="#FCE092"></path>
                    <path d="M31.5981015,17.2041649 C30.8052764,17.2041649 30.1618241,17.8464537 30.1618241,18.6378453 C30.1618241,19.4292369 30.8052764,20.0715257 31.5981015,20.0715257 C32.3909266,20.0715257 33.0343788,19.4292369 33.0343788,18.6378453 C33.0343788,17.8464537 32.3909266,17.2041649 31.5981015,17.2041649" id="Fill-1927" fill="#FCE092"></path>
                </g>
                <g id="Rectangle-174-+-Group-Copy" transform="translate(249.400532, 320.118006)" sketch:type="MSShapeGroup">
                    <rect id="Rectangle-174" fill="#F5EFCA" x="0" y="0" width="60.5274725" height="82.795082"></rect>
                    <g id="Group" transform="translate(10.526517, 9.347832)" fill="#C5BFA5">
                        <path d="M37.956191,40.2454273 L28.8467051,40.2454273 C28.0071142,40.2454273 27.3284575,39.5665704 27.3284575,38.7267319 C27.3284575,37.8868933 28.0071142,37.2080365 28.8467051,37.2080365 L37.956191,37.2080365 C38.7957819,37.2080365 39.4744386,37.8868933 39.4744386,38.7267319 C39.4744386,39.5665704 38.7957819,40.2454273 37.956191,40.2454273" id="Fill-505"></path>
                        <path d="M9.10948583,28.0958643 L1.51824764,28.0958643 C0.678656694,28.0958643 0,27.4170075 0,26.5771689 C0,25.7388491 0.678656694,25.0584736 1.51824764,25.0584736 L9.10948583,25.0584736 C9.94907678,25.0584736 10.6277335,25.7388491 10.6277335,26.5771689 C10.6277335,27.4170075 9.94907678,28.0958643 9.10948583,28.0958643" id="Fill-506"></path>
                        <path d="M31.8832004,28.0958643 L21.2554669,28.0958643 C20.415876,28.0958643 19.7372193,27.4170075 19.7372193,26.5771689 C19.7372193,25.7388491 20.415876,25.0584736 21.2554669,25.0584736 L31.8832004,25.0584736 C32.7227914,25.0584736 33.4014481,25.7388491 33.4014481,26.5771689 C33.4014481,27.4170075 32.7227914,28.0958643 31.8832004,28.0958643" id="Fill-507"></path>
                        <path d="M15.1824764,28.0958643 C14.787732,28.0958643 14.3914694,27.9288078 14.1045206,27.6554427 C13.8297177,27.3668905 13.6642287,26.9720297 13.6642287,26.5771689 C13.6642287,26.1823081 13.8297177,25.7859287 14.1045206,25.4988952 C14.6662722,24.9369779 15.6986806,24.9369779 16.2604322,25.4988952 C16.5337168,25.7859287 16.700724,26.1823081 16.700724,26.5771689 C16.700724,26.9720297 16.5337168,27.3668905 16.2604322,27.6554427 C15.9704469,27.9288078 15.5772208,28.0958643 15.1824764,28.0958643" id="Fill-508"></path>
                        <path d="M22.7737146,40.2454273 L7.59123819,40.2454273 C6.75164725,40.2454273 6.07299055,39.5665704 6.07299055,38.7267319 C6.07299055,37.8868933 6.75164725,37.2080365 7.59123819,37.2080365 L22.7737146,37.2080365 C23.6133055,37.2080365 24.2919622,37.8868933 24.2919622,38.7267319 C24.2919622,39.5665704 23.6133055,40.2454273 22.7737146,40.2454273" id="Fill-509"></path>
                        <path d="M1.51824764,40.2454273 C1.12350325,40.2454273 0.727240619,40.0783708 0.440291815,39.8050056 C0.165488993,39.5164535 0,39.1215927 0,38.7267319 C0,38.3318711 0.165488993,37.9354916 0.440291815,37.6484582 C1.00204344,37.0865409 2.01926936,37.0865409 2.59620346,37.6484582 C2.86948804,37.9354916 3.03649528,38.3318711 3.03649528,38.7267319 C3.03649528,39.1215927 2.86948804,39.5164535 2.59620346,39.8050056 C2.30621816,40.092039 1.91299202,40.2454273 1.51824764,40.2454273" id="Fill-510"></path>
                        <path d="M37.956191,28.0958643 C37.5614466,28.0958643 37.1651839,27.9288078 36.8782351,27.6554427 C36.6034323,27.3668905 36.4379433,26.9720297 36.4379433,26.5771689 C36.4379433,26.1656025 36.6034323,25.7859287 36.8782351,25.4988952 C37.4399868,24.9369779 38.4723952,24.9369779 39.0341468,25.4988952 C39.3074314,25.7859287 39.4744386,26.1656025 39.4744386,26.5771689 C39.4744386,26.9872167 39.3074314,27.3668905 39.0341468,27.6554427 C38.7441615,27.9288078 38.3509354,28.0958643 37.956191,28.0958643" id="Fill-511"></path>
                        <path d="M9.10948583,52.3949902 L1.51824764,52.3949902 C0.678656694,52.3949902 0,51.7161334 0,50.8762948 C0,50.0364563 0.678656694,49.3575995 1.51824764,49.3575995 L9.10948583,49.3575995 C9.94907678,49.3575995 10.6277335,50.0364563 10.6277335,50.8762948 C10.6277335,51.7161334 9.94907678,52.3949902 9.10948583,52.3949902" id="Fill-512"></path>
                        <path d="M31.8832004,52.3949902 L21.2554669,52.3949902 C20.415876,52.3949902 19.7372193,51.7161334 19.7372193,50.8762948 C19.7372193,50.0364563 20.415876,49.3575995 21.2554669,49.3575995 L31.8832004,49.3575995 C32.7227914,49.3575995 33.4014481,50.0364563 33.4014481,50.8762948 C33.4014481,51.7161334 32.7227914,52.3949902 31.8832004,52.3949902" id="Fill-513"></path>
                        <path d="M15.1824764,52.3949902 C14.7710313,52.3949902 14.3914694,52.2279337 14.1045206,51.9545685 C13.8297177,51.6660164 13.6642287,51.2711556 13.6642287,50.8762948 C13.6642287,50.4647284 13.8297177,50.0850545 14.1045206,49.7980211 C14.6662722,49.2361038 15.6834981,49.2361038 16.2604322,49.7980211 C16.5337168,50.0850545 16.700724,50.481434 16.700724,50.8762948 C16.700724,51.2711556 16.5337168,51.6660164 16.2604322,51.9545685 C15.9704469,52.2279337 15.5772208,52.3949902 15.1824764,52.3949902" id="Fill-514"></path>
                        <path d="M37.956191,52.3949902 C37.5614466,52.3949902 37.1651839,52.2279337 36.8782351,51.9545685 C36.6034323,51.6660164 36.4379433,51.2711556 36.4379433,50.8762948 C36.4379433,50.481434 36.6034323,50.0850545 36.8782351,49.7980211 C37.4399868,49.2361038 38.4723952,49.2361038 39.0341468,49.7980211 C39.3074314,50.0850545 39.4744386,50.481434 39.4744386,50.8762948 C39.4744386,51.2711556 39.3074314,51.6660164 39.0341468,51.9545685 C38.7441615,52.2279337 38.3645996,52.3949902 37.956191,52.3949902" id="Fill-515"></path>
                        <path d="M37.956191,64.5445531 L28.8467051,64.5445531 C28.0071142,64.5445531 27.3284575,63.8656963 27.3284575,63.0258578 C27.3284575,62.1860192 28.0071142,61.5071624 28.8467051,61.5071624 L37.956191,61.5071624 C38.7957819,61.5071624 39.4744386,62.1860192 39.4744386,63.0258578 C39.4744386,63.8656963 38.7957819,64.5445531 37.956191,64.5445531" id="Fill-505-Copy"></path>
                        <path d="M22.7737146,64.5445531 L7.59123819,64.5445531 C6.75164725,64.5445531 6.07299055,63.8656963 6.07299055,63.0258578 C6.07299055,62.1860192 6.75164725,61.5071624 7.59123819,61.5071624 L22.7737146,61.5071624 C23.6133055,61.5071624 24.2919622,62.1860192 24.2919622,63.0258578 C24.2919622,63.8656963 23.6133055,64.5445531 22.7737146,64.5445531" id="Fill-509-Copy"></path>
                        <path d="M1.51824764,64.5445531 C1.12350325,64.5445531 0.727240619,64.3774967 0.440291815,64.1041315 C0.165488993,63.8155794 0,63.4207186 0,63.0258578 C0,62.630997 0.165488993,62.2346175 0.440291815,61.9475841 C1.00204344,61.3856668 2.01926936,61.3856668 2.59620346,61.9475841 C2.86948804,62.2346175 3.03649528,62.630997 3.03649528,63.0258578 C3.03649528,63.4207186 2.86948804,63.8155794 2.59620346,64.1041315 C2.30621816,64.3911649 1.91299202,64.5445531 1.51824764,64.5445531" id="Fill-510-Copy"></path>
                        <path d="M31.8832004,15.9463014 L22.7737146,15.9463014 C21.9341236,15.9463014 21.2554669,15.2674445 21.2554669,14.427606 C21.2554669,13.5877675 21.9341236,12.9089106 22.7737146,12.9089106 L31.8832004,12.9089106 C32.7227914,12.9089106 33.4014481,13.5877675 33.4014481,14.427606 C33.4014481,15.2674445 32.7227914,15.9463014 31.8832004,15.9463014" id="Fill-505-Copy-2"></path>
                        <path d="M9.10948583,3.79673842 L1.51824764,3.79673842 C0.678656694,3.79673842 0,3.11788159 0,2.27804305 C0,1.43972321 0.678656694,0.759347684 1.51824764,0.759347684 L9.10948583,0.759347684 C9.94907678,0.759347684 10.6277335,1.43972321 10.6277335,2.27804305 C10.6277335,3.11788159 9.94907678,3.79673842 9.10948583,3.79673842" id="Fill-506-Copy"></path>
                        <path d="M31.8832004,3.79673842 L21.2554669,3.79673842 C20.415876,3.79673842 19.7372193,3.11788159 19.7372193,2.27804305 C19.7372193,1.43972321 20.415876,0.759347684 21.2554669,0.759347684 L31.8832004,0.759347684 C32.7227914,0.759347684 33.4014481,1.43972321 33.4014481,2.27804305 C33.4014481,3.11788159 32.7227914,3.79673842 31.8832004,3.79673842" id="Fill-507-Copy"></path>
                        <path d="M15.1824764,3.79673842 C14.787732,3.79673842 14.3914694,3.62968193 14.1045206,3.35631676 C13.8297177,3.06776464 13.6642287,2.67290385 13.6642287,2.27804305 C13.6642287,1.88318226 13.8297177,1.48680277 14.1045206,1.19976934 C14.6662722,0.637852055 15.6986806,0.637852055 16.2604322,1.19976934 C16.5337168,1.48680277 16.700724,1.88318226 16.700724,2.27804305 C16.700724,2.67290385 16.5337168,3.06776464 16.2604322,3.35631676 C15.9704469,3.62968193 15.5772208,3.79673842 15.1824764,3.79673842" id="Fill-508-Copy"></path>
                        <path d="M16.700724,15.9463014 L1.51824764,15.9463014 C0.678656694,15.9463014 0,15.2674445 0,14.427606 C0,13.5877675 0.678656694,12.9089106 1.51824764,12.9089106 L16.700724,12.9089106 C17.540315,12.9089106 18.2189717,13.5877675 18.2189717,14.427606 C18.2189717,15.2674445 17.540315,15.9463014 16.700724,15.9463014" id="Fill-509-Copy-2"></path>
                        <path d="M37.956191,15.9463014 C37.5614466,15.9463014 37.1651839,15.7792449 36.8782351,15.5058797 C36.6034323,15.2173276 36.4379433,14.8224668 36.4379433,14.427606 C36.4379433,14.0327452 36.6034323,13.6363657 36.8782351,13.3493323 C37.4399868,12.787415 38.4572127,12.787415 39.0341468,13.3493323 C39.3074314,13.6363657 39.4744386,14.0327452 39.4744386,14.427606 C39.4744386,14.8224668 39.3074314,15.2173276 39.0341468,15.5058797 C38.7441615,15.7929131 38.3509354,15.9463014 37.956191,15.9463014" id="Fill-510-Copy-2"></path>
                        <path d="M37.956191,3.79673842 C37.5614466,3.79673842 37.1651839,3.62968193 36.8782351,3.35631676 C36.6034323,3.06776464 36.4379433,2.67290385 36.4379433,2.27804305 C36.4379433,1.86647661 36.6034323,1.48680277 36.8782351,1.19976934 C37.4399868,0.637852055 38.4723952,0.637852055 39.0341468,1.19976934 C39.3074314,1.48680277 39.4744386,1.86647661 39.4744386,2.27804305 C39.4744386,2.6880908 39.3074314,3.06776464 39.0341468,3.35631676 C38.7441615,3.62968193 38.3509354,3.79673842 37.956191,3.79673842" id="Fill-511-Copy"></path>
                    </g>
                </g>
                <g id="Group-Copy" transform="translate(619.104396, 325.712268)" sketch:type="MSShapeGroup">
                    <rect id="Rectangle-182" fill="#FFFFFF" x="0" y="0" width="96.3956044" height="65.8114754"></rect>
                    <rect id="Rectangle-175" fill="#3B97D3" x="3.57020757" y="3.55737705" width="89.2551893" height="58.6967213"></rect>
                    <g id="Group" transform="translate(3.570208, 12.450820)">
                        <path d="M49.7097909,28.1556103 L35.50683,0.862084668 L6.61427576,49.821958 L36.9223278,49.821958 L49.7097909,28.1556103 L14.8224411,55.1665935" id="Fill-1605" fill="#88C057"></path>
                        <path d="M57.787926,14.4680296 L36.817032,49.8305985 L68.3318003,49.8305985 L84.8579403,49.8305985" id="Fill-1606" fill="#A4E869"></path>
                        <path d="M24.5841416,19.3698806 L18.1770886,9.52041329 L0.0528427375,39.959807 L0.0528427553,49.7848621 L6.64875604,49.784861" id="Fill-1607" fill="#659C35"></path>
                        <path d="M22.455059,16.0957954 L18.1770886,9.52041329 L12.864285,18.5213643 L14.4635726,20.6525501 L16.9392499,18.1787419 L19.4149273,20.6525501 L22.455059,16.0957954" id="Fill-1608" fill="#FFFFFF"></path>
                        <path d="M45.9442856,20.9197214 L35.50683,0.862084668 L27.7233004,14.0499561 L30.5554753,20.6525501 L34.2689913,16.9418378 L37.9825073,24.3632624 L40.4581847,18.1787419 L45.9442856,20.9197214" id="Fill-1609" fill="#FFFFFF"></path>
                        <path d="M65.9144319,25.0634766 L57.787926,14.4680296 L52.8477119,22.8381596 L56.5500874,29.3108787 L60.2636034,25.6001664 L63.9771194,29.3108787 L65.2446662,25.9316567" id="Fill-1610" fill="#FFFFFF"></path>
                    </g>
                    <g id="Group" transform="translate(67.833944, 7.114754)" fill="#EDE71B">
                        <ellipse id="Oval-48" cx="9.81807082" cy="9.78278689" rx="6.24786325" ry="6.22540984"></ellipse>
                        <path d="M8.9715441,3.0453656 C8.92722885,2.59390569 8.91277923,1.57159817 8.9375998,0.813022376 L8.9375998,0.813022376 C8.96316814,0.0315931612 9.02067514,-0.227187821 9.06413522,0.215560086 L10.6645975,16.5202082 C10.7089128,16.9716681 10.7233624,17.9939756 10.6985418,18.7525514 L10.6985418,18.7525514 C10.6729735,19.5339806 10.6154665,19.7927616 10.5720064,19.3500137 L8.9715441,3.0453656 L8.9715441,3.0453656 Z" id="Rectangle-176"></path>
                        <rect id="Rectangle-176-Copy-5" x="8.92551893" y="0" width="1.78510379" height="19.5655738" rx="3.19999981"></rect>
                        <path d="M8.94509216,1.52066543 C8.90389789,1.03502981 8.93039107,0.406007283 8.99960867,0.134007176 L8.99960867,0.134007176 C9.07091157,-0.14618741 9.16290348,0.0297269536 9.2033028,0.505991076 L10.6910495,18.0449083 C10.7322437,18.530544 10.7057506,19.1595665 10.636533,19.4315666 L10.636533,19.4315666 C10.5652301,19.7117612 10.4732382,19.5358468 10.4328388,19.0595827 L8.94509216,1.52066543 L8.94509216,1.52066543 Z" id="Rectangle-176-Copy"></path>
                        <path d="M10.4327728,0.504457477 C10.4739626,0.0187415735 10.5672348,-0.13963299 10.636445,0.132412083 L10.636445,0.132412083 C10.7077402,0.412652989 10.7313506,1.04295672 10.6909557,1.51929957 L9.20336887,19.0611163 C9.16217904,19.5468322 9.06890679,19.7052068 8.99969663,19.4331617 L8.99969663,19.4331617 C8.92840139,19.1529208 8.904791,18.5226171 8.94518598,18.0462742 L10.4327728,0.504457477 L10.4327728,0.504457477 Z" id="Rectangle-176-Copy-2"></path>
                        <path d="M10.5718818,0.214531766 C10.6161897,-0.236976661 10.6735798,0.0534009453 10.6983963,0.812058274 L10.6983963,0.812058274 C10.7239604,1.59357148 10.7079105,2.60184594 10.6644576,3.04464144 L9.06425984,19.351042 C9.01995192,19.8025504 8.9625618,19.5121728 8.93774534,18.7535155 L8.93774534,18.7535155 C8.91218123,17.9720023 8.92823112,16.9637278 8.97168402,16.5209323 L10.5718818,0.214531766 L10.5718818,0.214531766 Z" id="Rectangle-176-Copy-3"></path>
                        <path d="M10.6292819,2.60665806e-14 C10.6742052,2.60665806e-14 10.7106227,3.61352398 10.7106227,7.78999696 L10.7106227,7.78999696 C10.7106227,12.0922935 10.6733383,15.5799939 10.6292819,15.5799939 L9.00685975,15.5799939 C8.96193645,15.5799939 8.92551893,11.9664699 8.92551893,7.78999696 L8.92551893,7.78999696 C8.92551893,3.48770044 8.96280336,-8.6888602e-15 9.00685975,0 L10.6292819,2.60665806e-14 L10.6292819,2.60665806e-14 Z" id="Rectangle-176-Copy-4"></path>
                    </g>
                </g>
            </g>
        </g>
    </g>
</svg>