<?xml version="1.0" encoding="UTF-8" standalone="no"?>
<svg width="75px" height="75px" viewBox="0 0 75 75" version="1.1" xmlns="http://www.w3.org/2000/svg" xmlns:xlink="http://www.w3.org/1999/xlink" xmlns:sketch="http://www.bohemiancoding.com/sketch/ns">
    <!-- Generator: Sketch 3.3.3 (12072) - http://www.bohemiancoding.com/sketch -->
    <title>template</title>
    <desc>Created with Sketch.</desc>
    <defs></defs>
    <g id="Page-1" stroke="none" stroke-width="1" fill="none" fill-rule="evenodd" sketch:type="MSPage">
        <g id="Home" sketch:type="MSArtboardGroup" transform="translate(-720.000000, -1110.000000)">
            <g id="template" sketch:type="MSLayerGroup" transform="translate(720.000000, 1110.000000)">
                <circle id="Oval-51-Copy-2" fill="#FFFFFF" sketch:type="MSShapeGroup" cx="37.5" cy="37.5" r="37.5"></circle>
                <path d="M17,12 L59,12 L59,54 L17,54 L17,12 Z" id="Fill-1644" fill="#ECF0F1" sketch:type="MSShapeGroup"></path>
                <path d="M17,12 L59,12 L59,20.6896552 L17,20.6896552 L17,12 Z" id="Fill-1645" fill="#546A79" sketch:type="MSShapeGroup"></path>
                <path d="M23.5172414,16.3448276 C23.5172414,17.5447241 22.5447241,18.5172414 21.3448276,18.5172414 C20.144931,18.5172414 19.1724138,17.5447241 19.1724138,16.3448276 C19.1724138,15.144931 20.144931,14.1724138 21.3448276,14.1724138 C22.5447241,14.1724138 23.5172414,15.144931 23.5172414,16.3448276" id="Fill-1646" fill="#ED7161" sketch:type="MSShapeGroup"></path>
                <path d="M30.0344828,16.3448276 C30.0344828,17.5447241 29.0619655,18.5172414 27.862069,18.5172414 C26.6621724,18.5172414 25.6896552,17.5447241 25.6896552,16.3448276 C25.6896552,15.144931 26.6621724,14.1724138 27.862069,14.1724138 C29.0619655,14.1724138 30.0344828,15.144931 30.0344828,16.3448276" id="Fill-1647" fill="#F0C419" sketch:type="MSShapeGroup"></path>
                <path d="M36.5517241,16.3448276 C36.5517241,17.5447241 35.5792069,18.5172414 34.3793103,18.5172414 C33.1794138,18.5172414 32.2068966,17.5447241 32.2068966,16.3448276 C32.2068966,15.144931 33.1794138,14.1724138 34.3793103,14.1724138 C35.5792069,14.1724138 36.5517241,15.144931 36.5517241,16.3448276" id="Fill-1648" fill="#4FBA6F" sketch:type="MSShapeGroup"></path>
                <path d="M19.8965517,43.862069 L29.3103448,43.862069 L29.3103448,51.1034483 L19.8965517,51.1034483 L19.8965517,43.862069 Z" id="Fill-1649" fill="#F0C419" sketch:type="MSShapeGroup"></path>
                <path d="M32.9310345,43.862069 L42.3448276,43.862069 L42.3448276,51.1034483 L32.9310345,51.1034483 L32.9310345,43.862069 Z" id="Fill-1650" fill="#F29C1F" sketch:type="MSShapeGroup"></path>
                <path d="M19.8965517,23.5862069 L29.3103448,23.5862069 L29.3103448,30.8275862 L19.8965517,30.8275862 L19.8965517,23.5862069 Z" id="Fill-1651" fill="#8697CB" sketch:type="MSShapeGroup"></path>
                <path d="M32.9310345,23.5862069 L42.3448276,23.5862069 L42.3448276,30.8275862 L32.9310345,30.8275862 L32.9310345,23.5862069 Z" id="Fill-1652" fill="#556080" sketch:type="MSShapeGroup"></path>
                <path d="M45.9655172,23.5862069 L55.3793103,23.5862069 L55.3793103,30.8275862 L45.9655172,30.8275862 L45.9655172,23.5862069 Z" id="Fill-1653" fill="#9777A8" sketch:type="MSShapeGroup"></path>
                <path d="M19.8965517,33.7241379 L29.3103448,33.7241379 L29.3103448,40.9655172 L19.8965517,40.9655172 L19.8965517,33.7241379 Z" id="Fill-1654" fill="#67B9CC" sketch:type="MSShapeGroup"></path>
                <path d="M45.9655172,43.862069 L55.3793103,43.862069 L55.3793103,51.1034483 L45.9655172,51.1034483 L45.9655172,43.862069 Z" id="Fill-1655" fill="#E57E25" sketch:type="MSShapeGroup"></path>
                <path d="M32.9310345,33.7241379 L42.3448276,33.7241379 L42.3448276,40.9655172 L32.9310345,40.9655172 L32.9310345,33.7241379 Z" id="Fill-1656" fill="#26B99A" sketch:type="MSShapeGroup"></path>
                <path d="M45.9655172,33.7241379 L55.3793103,33.7241379 L55.3793103,40.9655172 L45.9655172,40.9655172 L45.9655172,33.7241379 Z" id="Fill-1657" fill="#71C285" sketch:type="MSShapeGroup"></path>
            </g>
        </g>
    </g>
</svg>