<?xml version="1.0" encoding="UTF-8" standalone="no"?>
<svg width="39px" height="39px" viewBox="0 0 39 39" version="1.1" xmlns="http://www.w3.org/2000/svg" xmlns:xlink="http://www.w3.org/1999/xlink" xmlns:sketch="http://www.bohemiancoding.com/sketch/ns">
    <!-- Generator: Sketch 3.3.3 (12072) - http://www.bohemiancoding.com/sketch -->
    <title>template</title>
    <desc>Created with Sketch.</desc>
    <defs></defs>
    <g id="Page-1" stroke="none" stroke-width="1" fill="none" fill-rule="evenodd" sketch:type="MSPage">
        <g id="Home" sketch:type="MSArtboardGroup" transform="translate(-772.000000, -1125.000000)">
            <g id="template" sketch:type="MSLayerGroup" transform="translate(772.000000, 1125.000000)">
                <path d="M0,0 L39,0 L39,39 L0,39 L0,0 Z" id="Fill-1644" fill="#ECF0F1" sketch:type="MSShapeGroup"></path>
                <path d="M0,0 L39,0 L39,8.06896552 L0,8.06896552 L0,0 Z" id="Fill-1645" fill="#546A79" sketch:type="MSShapeGroup"></path>
                <path d="M6.05172414,4.03448276 C6.05172414,5.14867241 5.14867241,6.05172414 4.03448276,6.05172414 C2.9202931,6.05172414 2.01724138,5.14867241 2.01724138,4.03448276 C2.01724138,2.9202931 2.9202931,2.01724138 4.03448276,2.01724138 C5.14867241,2.01724138 6.05172414,2.9202931 6.05172414,4.03448276" id="Fill-1646" fill="#ED7161" sketch:type="MSShapeGroup"></path>
                <path d="M12.1034483,4.03448276 C12.1034483,5.14867241 11.2003966,6.05172414 10.0862069,6.05172414 C8.97201724,6.05172414 8.06896552,5.14867241 8.06896552,4.03448276 C8.06896552,2.9202931 8.97201724,2.01724138 10.0862069,2.01724138 C11.2003966,2.01724138 12.1034483,2.9202931 12.1034483,4.03448276" id="Fill-1647" fill="#F0C419" sketch:type="MSShapeGroup"></path>
                <path d="M18.1551724,4.03448276 C18.1551724,5.14867241 17.2521207,6.05172414 16.137931,6.05172414 C15.0237414,6.05172414 14.1206897,5.14867241 14.1206897,4.03448276 C14.1206897,2.9202931 15.0237414,2.01724138 16.137931,2.01724138 C17.2521207,2.01724138 18.1551724,2.9202931 18.1551724,4.03448276" id="Fill-1648" fill="#4FBA6F" sketch:type="MSShapeGroup"></path>
                <path d="M2.68965517,29.5862069 L11.4310345,29.5862069 L11.4310345,36.3103448 L2.68965517,36.3103448 L2.68965517,29.5862069 Z" id="Fill-1649" fill="#F0C419" sketch:type="MSShapeGroup"></path>
                <path d="M14.7931034,29.5862069 L23.5344828,29.5862069 L23.5344828,36.3103448 L14.7931034,36.3103448 L14.7931034,29.5862069 Z" id="Fill-1650" fill="#F29C1F" sketch:type="MSShapeGroup"></path>
                <path d="M2.68965517,10.7586207 L11.4310345,10.7586207 L11.4310345,17.4827586 L2.68965517,17.4827586 L2.68965517,10.7586207 Z" id="Fill-1651" fill="#8697CB" sketch:type="MSShapeGroup"></path>
                <path d="M14.7931034,10.7586207 L23.5344828,10.7586207 L23.5344828,17.4827586 L14.7931034,17.4827586 L14.7931034,10.7586207 Z" id="Fill-1652" fill="#556080" sketch:type="MSShapeGroup"></path>
                <path d="M26.8965517,10.7586207 L35.637931,10.7586207 L35.637931,17.4827586 L26.8965517,17.4827586 L26.8965517,10.7586207 Z" id="Fill-1653" fill="#9777A8" sketch:type="MSShapeGroup"></path>
                <path d="M2.68965517,20.1724138 L11.4310345,20.1724138 L11.4310345,26.8965517 L2.68965517,26.8965517 L2.68965517,20.1724138 Z" id="Fill-1654" fill="#67B9CC" sketch:type="MSShapeGroup"></path>
                <path d="M26.8965517,29.5862069 L35.637931,29.5862069 L35.637931,36.3103448 L26.8965517,36.3103448 L26.8965517,29.5862069 Z" id="Fill-1655" fill="#E57E25" sketch:type="MSShapeGroup"></path>
                <path d="M14.7931034,20.1724138 L23.5344828,20.1724138 L23.5344828,26.8965517 L14.7931034,26.8965517 L14.7931034,20.1724138 Z" id="Fill-1656" fill="#26B99A" sketch:type="MSShapeGroup"></path>
                <path d="M26.8965517,20.1724138 L35.637931,20.1724138 L35.637931,26.8965517 L26.8965517,26.8965517 L26.8965517,20.1724138 Z" id="Fill-1657" fill="#71C285" sketch:type="MSShapeGroup"></path>
            </g>
        </g>
    </g>
</svg>