<?xml version="1.0" encoding="UTF-8" standalone="no"?>
<svg width="110px" height="110px" viewBox="0 0 110 110" version="1.1" xmlns="http://www.w3.org/2000/svg" xmlns:xlink="http://www.w3.org/1999/xlink" xmlns:sketch="http://www.bohemiancoding.com/sketch/ns">
    <!-- Generator: Sketch 3.3.3 (12072) - http://www.bohemiancoding.com/sketch -->
    <title>world</title>
    <desc>Created with Sketch.</desc>
    <defs></defs>
    <g id="Page-1" stroke="none" stroke-width="1" fill="none" fill-rule="evenodd" sketch:type="MSPage">
        <g id="Features-Copy-2" sketch:type="MSArtboardGroup" transform="translate(-125.000000, -130.000000)">
            <g id="world" sketch:type="MSLayerGroup" transform="translate(129.000000, 132.000000)">
                <path d="M101.892164,50.9460822 C101.892164,79.0823736 79.0823736,101.892164 50.9460822,101.892164 C22.8097907,101.892164 0,79.0823736 0,50.9460822 C0,22.808034 22.8097907,0 50.9460822,0 C79.0823736,0 101.892164,22.808034 101.892164,50.9460822" id="Fill-1896" fill="#285680" sketch:type="MSShapeGroup"></path>
                <path d="M50.9460822,0 C43.8680903,0 37.1273966,1.44581468 31.0015694,4.05460544 C30.7222443,5.72177206 29.3291325,8.57123913 29.3712947,9.47772804 C29.568052,9.5163768 42.3238969,-3.52230672 40.7410549,5.27906817 C39.7203765,10.9446239 29.2939972,10.9112454 29.7419714,16.6154498 C40.6971358,20.9107316 44.518092,8.4588064 53.8219007,8.51150924 C56.9260982,8.5273201 64.8754437,3.62068536 66.3932856,4.62028262 C72.5349237,8.66610425 64.9896332,23.0083048 60.2902963,18.2351839 C55.7719059,13.7150367 49.3228346,19.818026 49.614457,26.8626394 C51.963247,26.9680451 52.9646011,20.1939729 55.0779851,22.4549249 C57.4039373,24.9424991 56.5642053,29.9562963 53.3458183,31.1069751 C50.108107,32.2646809 37.3996946,22.5164116 40.5214597,29.9053502 C43.9541716,38.1059127 30.2391349,44.4425513 44.0841719,41.1363262 C50.6122975,39.5728085 48.4444539,44.5391731 51.5222999,46.9090443 C55.1904178,49.725133 53.5654135,43.0195745 56.2409612,44.0402529 C60.1321878,45.5457975 55.5733918,49.4247267 61.6658406,46.6086381 C68.8141029,43.3480889 66.1297714,48.4321565 68.3169394,51.7559492 C72.4207342,57.9608306 82.5080584,63.916252 87.7923969,55.7156895 C89.0396975,53.7814952 88.2403711,38.4871299 96.0860677,48.7466168 C101.068243,55.2659586 99.3589143,41.0467314 100.031754,37.3136133 C94.0693056,15.7985558 74.3584421,0 50.9460822,0" id="Fill-2009" fill="#24AE5F" sketch:type="MSShapeGroup"></path>
                <path d="M57.8308303,73.9262787 L48.4339133,66.8869356 L42.1359235,67.134639 L35.6042844,65.0774713 L30.4903518,61.5516511 L18.8886992,64.2307123 L14.1067945,66.5478806 L8.78380727,73.7189809 L10.6670555,82.1233277 C11.2063813,82.8172485 11.7615179,83.4971151 12.3342222,84.161171 L22.1878972,88.7621292 L28.8372393,89.6598343 L32.7934661,97.7795858 L32.9111691,98.5964798 C38.5187516,100.720404 44.5953895,101.892164 50.9460822,101.892164 C55.3274452,101.892164 59.5805647,101.337028 63.6369269,100.297025 L64.9738224,92.3143009 L71.052217,87.3813147 L73.5766832,79.5092666 L60.8875952,79.4565638 L57.8308303,73.9262787" id="Fill-2010" fill="#FAC176" sketch:type="MSShapeGroup"></path>
                <path d="M0.658785545,59.1097526 C0.901218626,59.0886715 0.932840332,59.0675904 0.955678231,59.0465092 C3.23244108,56.7679896 5.13150021,56.3885291 7.02880258,52.9716281 C8.92786171,49.5547271 6.6493421,49.5547271 7.02880258,43.8610632 C7.41001981,38.1656426 6.6493421,40.8236227 7.02880258,34.7487416 C7.16582997,32.5633303 6.93569422,31.3617055 4.28122766,30.5026491 C1.53540951,36.7619902 0,43.6730897 0,50.9460822 C0,53.7252788 0.231892512,56.4500158 0.658785545,59.1097526" id="Fill-2013" fill="#88C057" sketch:type="MSShapeGroup"></path>
                <path d="M52.7028436,93.1083571 C50.800271,92.9625459 43.7732251,90.766594 42.1622749,87.8380727 C40.5513246,84.9095514 37.0378017,79.9326462 36.8919905,80.8110269 C36.7918551,81.406569 20.8861369,75.9922302 9.95908068,72.1361388 L8.78380727,73.7189809 L10.6670555,82.1233277 C11.2063813,82.8172485 11.7615179,83.4971151 12.3342222,84.161171 L22.1878972,88.7621292 L28.8372393,89.6598343 L32.7934661,97.7795858 L32.9111691,98.5964798 C38.5187516,100.720404 44.5953895,101.892164 50.9460822,101.892164 C55.3274452,101.892164 59.5805647,101.337028 63.6369269,100.297025 L64.6505783,94.2449817 C63.7563867,93.9656566 62.7251677,93.5967367 61.4866509,93.1083571 C56.6555569,91.2040276 54.6054163,93.2541683 52.7028436,93.1083571" id="Fill-2014" fill="#FAC176" sketch:type="MSShapeGroup"></path>
                <path d="M71.052217,87.3813147 L73.5766832,79.5092666 L60.8875952,79.4565638 L57.8308303,73.9262787 L48.4339133,66.8869356 L42.1359235,67.134639 L35.6042844,65.0774713 L30.4903518,61.5516511 L18.8886992,64.2307123 L14.1067945,66.5478806 L9.95908068,72.1361388 C20.8861369,75.9922302 36.7918551,81.406569 36.8919905,80.8110269 C37.0378017,79.9326462 40.5513246,84.9095514 42.1622749,87.8380727 C43.7732251,90.766594 50.800271,92.9625459 52.7028436,93.1083571 C54.6054163,93.2541683 56.6555569,91.2040276 61.4866509,93.1083571 C62.7251677,93.5967367 63.7563867,93.9656566 64.6505783,94.2449817 L64.9738224,92.3143009 L71.052217,87.3813147" id="Fill-2015" fill="#88C057" sketch:type="MSShapeGroup"></path>
                <path d="M70.138701,3.78230741 C69.7978893,10.2120543 69.5466724,14.8586884 69.5466724,14.8586884 L59.7298894,24.6754714 C59.7298894,24.6754714 68.9318059,37.8652364 69.5466724,39.3988891 C70.1597822,40.9325419 77.8280459,42.7736279 79.3616987,41.8530849 C80.8953514,40.9325419 86.7242859,36.0241504 89.1784817,39.3988891 C90.8860538,41.7476792 90.6664586,43.7978198 91.717002,45.2418777 C92.4407877,45.2524183 93.3455199,45.7390412 94.4733607,46.8756659 C96.0667433,47.353505 97.8867482,47.8225603 99.5064823,48.2143181 C100.044051,45.0697151 99.6452664,39.4603758 100.031754,37.3136133 C95.7997156,22.0438427 84.6267128,9.69029618 70.138701,3.78230741" id="Fill-2016" fill="#88C057" sketch:type="MSShapeGroup"></path>
                <path d="M76.1204738,6.68623409 C75.8007432,12.7540882 75.5407425,17.5676145 75.5407425,17.5676145 L68.5136967,24.5946604 C68.5136967,24.5946604 75.1015522,34.0372532 75.5407425,35.1352291 C75.9799329,36.233205 81.4698124,37.5507761 82.5677883,36.8919905 C83.6657642,36.233205 87.8380727,32.7196821 89.5948341,35.1352291 C91.3515956,37.5507761 90.2536197,39.5271327 93.1083571,40.4055134 C95.5203905,41.1486235 98.8476967,41.8847066 99.8279696,42.095518 C99.8420237,40.143756 99.847294,38.3342917 100.031754,37.3136133 C96.4040415,24.2204702 87.6676668,13.2723328 76.1204738,6.68623409" id="Fill-2017" fill="#FAC176" sketch:type="MSShapeGroup"></path>
            </g>
        </g>
    </g>
</svg>