<svg xmlns="http://www.w3.org/2000/svg" xmlns:xlink="http://www.w3.org/1999/xlink" width="103" height="30" viewBox="0 0 103 30">
    <defs>
        <path id="a" d="M0 22.794V.019h14.319v22.775H0z"/>
    </defs>
    <g fill="none" fill-rule="evenodd">
        <path fill="#0097A7" d="M41.797 15.508c-.05.702-.148 1.398-.371 2.07-.147.443-.344.86-.67 1.204-.386.41-.87.639-1.415.75-.532.109-1.069.093-1.606.05-.365-.028-.728-.083-1.07-.22a2.822 2.822 0 0 1-.56-.291c-.376-.262-.562-.637-.587-1.093a4.407 4.407 0 0 1-.005-.24V9.436c.147-.033.284-.069.423-.094.801-.146 1.61-.204 2.424-.172a3.853 3.853 0 0 1 1.588.383c.713.357 1.201.916 1.478 1.663.183.49.285.998.345 1.517.105.924.092 1.85.026 2.775m3.334-5.23c-.6-1.502-1.588-2.661-3.04-3.399-1.006-.51-2.087-.736-3.204-.796a13.513 13.513 0 0 0-2.906.158c-.15.025-.3.045-.468.07v-.203-5.92c0-.063.007-.125.01-.188H31.54c.002.074.004.149.004.223 0 5.766-.001 11.532.003 17.297 0 .302.023.608.076.904.27 1.51 1.074 2.68 2.338 3.529.747.502 1.596.756 2.477.907.917.157 1.841.196 2.768.13.38-.027.762-.082 1.136-.156.582-.115 1.12-.355 1.647-.62 1.218-.613 2.158-1.501 2.75-2.747.618-1.303.952-2.675 1.041-4.11.055-.887.04-1.772-.063-2.655-.097-.832-.276-1.645-.587-2.425M98.775 15.145v1.939c0 .276-.035.548-.11.813-.208.733-.7 1.188-1.41 1.423-.316.104-.642.16-.974.182a5.706 5.706 0 0 1-1.503-.072 3.813 3.813 0 0 1-.642-.18c-.82-.32-1.271-.937-1.4-1.8a2.953 2.953 0 0 1-.012-.888c.081-.531.365-.928.813-1.213.378-.239.796-.37 1.231-.453a8.41 8.41 0 0 1 2.272-.11c.512.042 1.023.099 1.535.15.062.006.123.022.2.036v.173zm3.918-2.97a6.853 6.853 0 0 0-.314-1.802c-.494-1.623-1.49-2.824-3.028-3.558-.996-.475-2.06-.676-3.152-.732a14.794 14.794 0 0 0-2.568.09 12.781 12.781 0 0 0-3.005.737c-.057.022-.114.048-.18.077l.001 3.008c0 .05.006.102.01.152 0 .005.006.01.01.013.004.004.01.006.017.01.015-.003.032-.004.048-.01.93-.368 1.896-.589 2.889-.702.802-.092 1.607-.13 2.413-.08.389.025.77.1 1.139.232.82.295 1.37.847 1.618 1.688.096.325.14.66.149.998.001.043-.006.086-.01.138-.07-.006-.127-.01-.183-.017-.483-.051-.965-.118-1.45-.153a15.612 15.612 0 0 0-2.62.02 9.427 9.427 0 0 0-2.658.633c-.554.225-1.073.507-1.514.922-.681.64-1.123 1.427-1.375 2.316-.2.708-.202 1.438-.076 2.16.31 1.775 1.275 3.083 2.87 3.912.874.455 1.828.64 2.801.733.661.064 1.324.073 1.988.042.67-.032 1.331-.116 1.982-.28 1.154-.29 2.16-.83 2.943-1.748.638-.747 1.068-1.59 1.225-2.565.024-.151.04-.304.061-.456v-5.56c-.01-.073-.028-.146-.03-.218zM22.506 17.713l-.032.003-3.656-11.388h-4.205c.026.071.046.13.068.186l3.84 10.146c.641 1.694 1.281 3.388 1.926 5.08a.406.406 0 0 1 0 .328c-.15.352-.285.71-.44 1.06-.275.618-.593 1.212-1.011 1.747-.235.3-.498.568-.826.766-.27.163-.56.25-.88.244a4.781 4.781 0 0 1-1.62-.329c-.057-.021-.115-.04-.186-.064v3.292c.028.012.049.023.07.03a7.636 7.636 0 0 0 1.53.366c.163.021.326.045.489.067h.72c.038-.01.075-.023.113-.03.236-.043.478-.066.707-.131 1.223-.35 2.212-1.046 2.975-2.062.165-.218.319-.447.463-.68.581-.936 1.024-1.94 1.407-2.97 1.476-3.967 2.949-7.935 4.423-11.903l1.837-4.949c.023-.06.041-.123.065-.195h-4.185l-3.592 11.386M58.136 16.84a7.025 7.025 0 0 1-.278 1.024c-.323.897-.987 1.433-1.883 1.703-.536.161-1.087.205-1.644.189a4.99 4.99 0 0 1-1.252-.18c-1.015-.296-1.697-.931-2.013-1.95a7.87 7.87 0 0 1-.302-1.544 15.166 15.166 0 0 1-.064-2.022c.026-.79.088-1.576.303-2.341.049-.176.108-.35.175-.52.327-.827.945-1.342 1.774-1.62.543-.182 1.106-.23 1.674-.222.442.007.878.056 1.304.179 1.01.29 1.689.921 2.007 1.932.156.493.256.997.3 1.51.047.529.067 1.06.098 1.591-.02.763-.051 1.523-.199 2.272m3.568-6.116c-.818-2.286-2.386-3.758-4.753-4.354-.921-.232-1.86-.294-2.807-.269a9.662 9.662 0 0 0-2.004.25c-2.21.529-3.772 1.833-4.663 3.927-.463 1.092-.66 2.245-.724 3.422-.044.8-.03 1.6.056 2.399.084.775.23 1.537.492 2.273.775 2.186 2.246 3.652 4.493 4.299.993.286 2.01.367 3.038.341a9.641 9.641 0 0 0 2.32-.322c1.184-.325 2.22-.903 3.066-1.801.792-.842 1.306-1.84 1.628-2.944.324-1.107.428-2.242.44-3.65-.019-.272-.045-.803-.094-1.332a9.118 9.118 0 0 0-.488-2.239M72.22 13.408c-.711-.33-1.453-.58-2.213-.776-.681-.177-1.351-.385-1.988-.69a1.84 1.84 0 0 1-.523-.354 1.028 1.028 0 0 1-.306-.873c.04-.388.256-.65.58-.84.27-.157.566-.244.871-.298.916-.16 1.834-.136 2.75-.018a8.07 8.07 0 0 1 2.302.649c.027.012.06.012.104.02V8.377c0-.331-.006-.663.003-.995.003-.115-.034-.179-.137-.225-.125-.056-.242-.129-.365-.188-1.81-.88-3.71-1.102-5.68-.747a6.14 6.14 0 0 0-2.632 1.148 4.216 4.216 0 0 0-1.52 2.109c-.23.706-.288 1.433-.234 2.169.053.712.246 1.385.66 1.977.534.765 1.226 1.339 2.1 1.676.517.199 1.041.38 1.566.556.569.19 1.145.357 1.712.553.405.14.796.319 1.158.553.458.295.685.706.62 1.262-.043.373-.177.696-.474.939-.172.14-.377.213-.589.265-.43.105-.868.134-1.31.146a8.56 8.56 0 0 1-1.994-.162 8.466 8.466 0 0 1-2.82-1.167c-.05-.032-.102-.063-.185-.114v.218c0 1.041.003 2.082-.004 3.124 0 .148.05.22.177.288a10.29 10.29 0 0 0 4.026 1.208c.985.086 1.965.064 2.935-.144 1.097-.234 2.073-.704 2.886-1.49.711-.686 1.159-1.512 1.285-2.496a5.862 5.862 0 0 0-.167-2.347c-.397-1.416-1.253-2.463-2.594-3.086M84.904 13.404a13.059 13.059 0 0 0-2.23-.779c-.67-.173-1.33-.381-1.956-.68a1.85 1.85 0 0 1-.536-.364 1.053 1.053 0 0 1 .078-1.565 1.79 1.79 0 0 1 .555-.302c.314-.112.64-.172.97-.203a10.126 10.126 0 0 1 2.106.025c.84.096 1.651.301 2.426.642.05.022.102.04.165.065.005-.055.01-.088.01-.121 0-.921-.002-1.842.004-2.763 0-.107-.05-.15-.13-.195a8.653 8.653 0 0 0-3.312-1.045 9.27 9.27 0 0 0-2.53.063c-1.037.175-1.99.55-2.837 1.183a4.2 4.2 0 0 0-1.544 2.17c-.238.772-.282 1.561-.19 2.36.077.652.287 1.258.676 1.793.533.735 1.21 1.293 2.064 1.615.588.222 1.184.423 1.778.625.552.187 1.11.354 1.658.55.36.128.708.293 1.027.509.423.286.635.675.59 1.196-.052.58-.347 1.068-.977 1.218-.277.066-.56.116-.843.141a8.69 8.69 0 0 1-2.375-.093 8.403 8.403 0 0 1-2.988-1.197l-.192-.12v.194c0 1.058.002 2.117-.003 3.175 0 .128.045.192.153.25a10.27 10.27 0 0 0 4.04 1.22c.991.086 1.977.065 2.952-.146 1.102-.238 2.082-.712 2.896-1.507.712-.696 1.153-1.53 1.272-2.522a5.884 5.884 0 0 0-.168-2.28c-.394-1.43-1.255-2.486-2.61-3.112"/>
        <g transform="translate(0 6.076)">
            <mask id="b" fill="#fff">
                <use xlink:href="#a"/>
            </mask>
            <path fill="#0097A7" d="M10.29 9.793a7.496 7.496 0 0 1-.327 1.85c-.392 1.221-1.24 1.923-2.472 2.192-.57.124-1.148.127-1.724.088-.547-.036-1.092-.102-1.637-.156-.044-.005-.088-.017-.146-.028v-.175V5.21c-.001-.678.31-1.152.918-1.44.36-.17.745-.263 1.138-.295.404-.033.81-.043 1.216-.038.355.004.703.08 1.037.205.668.25 1.132.713 1.425 1.358.226.498.358 1.023.441 1.56.166 1.073.197 2.152.132 3.233m2.962-6.198c-.254-.529-.552-1.03-.968-1.448C10.987.844 9.417.139 7.58.039a12.378 12.378 0 0 0-2.106.06 8.952 8.952 0 0 0-1.869.416C1.597 1.2.325 3.008.088 4.665c-.02.14-.058.277-.088.415v17.714c.068-.006.135-.016.203-.016l3.569-.001c.066 0 .133-.005.217-.008v-6.042c.052.009.085.013.118.02.583.12 1.172.205 1.766.235.823.043 1.646.034 2.463-.096.755-.12 1.484-.326 2.17-.666 1.454-.72 2.457-1.858 3.08-3.343.472-1.126.667-2.313.718-3.525.034-.818.01-1.634-.09-2.449a10.487 10.487 0 0 0-.961-3.308" mask="url(#b)"/>
        </g>
    </g>
</svg>
