<svg xmlns="http://www.w3.org/2000/svg" width="118" height="25" viewBox="0 0 118 25">
    <path fill="#158AAC" fill-rule="evenodd" d="M60.418 18.227c0 1.728-1.12 2.592-3.362 2.592h-.037c-2.35 0-3.526-.914-3.526-2.742.011-1.483 1.425-2.224 4.239-2.224.743.01 1.638.084 2.686.217v2.157zM56.67 6.823c-2.094 0-4 .317-5.718.953v3.328c1.547-.58 3.368-.87 5.464-.87 2.642 0 3.964 1.076 3.964 3.228a24.994 24.994 0 0 0-3.289-.235c-1.425 0-2.66.148-3.708.443-1.049.295-1.84.65-2.377 1.062-.536.414-.959.892-1.27 1.439-.31.546-.502 1-.574 1.363a5.31 5.31 0 0 0-.111 1.06c0 1.63.65 3.012 1.947 4.149 1.297 1.137 3.316 1.704 6.057 1.704 2.667 0 4.644-.565 5.93-1.696 1.284-1.132 1.927-2.484 1.927-4.056V14.08c0-2.352-.707-4.15-2.12-5.393-1.413-1.242-3.454-1.864-6.122-1.864zm56.656 3.562c1.62 0 3.167.273 4.64.819V7.776a15.806 15.806 0 0 0-5.39-.953c-2.838 0-5.018.758-6.54 2.274-1.525 1.516-2.286 3.701-2.286 6.555 0 2.831.761 5.005 2.285 6.522 1.523 1.516 3.703 2.273 6.542 2.273 1.827 0 3.622-.317 5.389-.953v-3.427c-1.547.568-3.093.853-4.64.853-1.719 0-2.995-.366-3.83-1.096-.834-.73-1.25-2.12-1.25-4.172 0-2.074.416-3.47 1.25-4.188.835-.72 2.111-1.08 3.83-1.08zm-35.242 9.202c-.573.889-1.572 1.333-2.996 1.333-2.241 0-3.362-.615-3.362-1.846V10.32c.84-.19 1.809-.286 2.905-.286 1.4 0 2.47.384 3.206 1.15.736.765 1.106 2.11 1.106 4.033 0 2.024-.286 3.482-.859 4.37zM74.796 6.823c-.975 0-1.997.09-3.07.267V.52h-4.494v18.169c0 1.585.642 2.941 1.927 4.069 1.285 1.127 3.262 1.69 5.93 1.69a12.7 12.7 0 0 0 1.846-.133c.613-.09 1.333-.325 2.165-.703a7.134 7.134 0 0 0 2.138-1.475c.594-.602 1.11-1.488 1.547-2.655.436-1.168.654-2.517.654-4.046 0-2.781-.746-4.913-2.238-6.393-1.491-1.48-3.627-2.22-6.405-2.22zM96.883 24.18h4.477V7.09h-4.477v17.09zM49.493 7.09H45.2c0-1.482.256-2.48.768-2.992.512-.513 1.352-.77 2.522-.77.219 0 .555.022 1.004.067V.167A10.329 10.329 0 0 0 47.666 0c-4.616 0-6.938 2.363-6.961 7.09h-3.18v3.529h3.18V24.18h4.494V10.62h4.294V7.09zM10.26 14.473c-.87-.35-1.745-.63-2.623-.836-.876-.206-1.62-.446-2.228-.719-.61-.273-.913-.65-.913-1.129 0-.959 1.071-1.438 3.215-1.438 1.608 0 3.046.273 4.313.82V8.043c-1.547-.814-3.246-1.221-5.099-1.221-1.973 0-3.62.46-4.942 1.379C.661 9.122 0 10.44 0 12.157c0 1.092.308 1.998.923 2.717a5.191 5.191 0 0 0 2.229 1.547c.871.312 1.741.583 2.613.811.871.23 1.614.496 2.228.803.616.307.924.711.924 1.213 0 .546-.194.955-.585 1.228-.39.274-1.23.41-2.521.41-1.876 0-3.637-.502-5.281-1.505v3.662c1.803.937 3.776 1.404 5.92 1.404 2.095 0 3.779-.473 5.052-1.42 1.273-.948 1.91-2.14 1.91-3.579 0-1.293-.308-2.358-.924-3.194-.614-.836-1.357-1.43-2.228-1.78zm20.707 9.707h4.477V7.09h-4.477v17.09zM17.064 9.097c-1.523 1.516-2.284 3.701-2.284 6.555 0 2.831.76 5.005 2.284 6.522 1.523 1.516 3.704 2.273 6.542 2.273 1.827 0 3.624-.317 5.39-.953v-3.427c-1.547.568-3.094.853-4.641.853-1.717 0-2.994-.366-3.828-1.096-.834-.73-1.252-2.12-1.252-4.172 0-2.074.418-3.47 1.252-4.188.834-.72 2.11-1.08 3.828-1.08 1.62 0 3.167.274 4.641.82V7.776a15.813 15.813 0 0 0-5.39-.953c-2.838 0-5.019.758-6.542 2.274zm69.863-.957c-.536.182-.957.34-1.26.472V24.18h4.494V10.92c1.34-.356 2.948-.546 4.824-.569V6.823a25.467 25.467 0 0 0-4.824.538c-1.62.337-2.698.597-3.234.779z"/>
</svg>
